<svg id="Layer_1" data-name="Layer 1" xmlns="http://www.w3.org/2000/svg" viewBox="0 0 66.21 86.92"><defs><style>.cls-1{fill:#0d3236;}</style></defs><g id="pinterest_base" data-name="pinterest base"><path id="Path_2677" data-name="Path 2677" class="cls-1" d="M24.5,67.54c.8-3.56,1.8-7.1,2.71-10.64,0-.29.09-.66.49-.71l.58.49A13.22,13.22,0,0,0,37,61.74,22,22,0,0,0,55.63,56a29.61,29.61,0,0,0,8.53-13.56,38.82,38.82,0,0,0,2-13.65,24.22,24.22,0,0,0-4.44-15.32A28.84,28.84,0,0,0,51.37,4.08,34.65,34.65,0,0,0,31.49.18,34.62,34.62,0,0,0,9,10,28.71,28.71,0,0,0,.07,29.27a27.61,27.61,0,0,0,1.48,11A15.58,15.58,0,0,0,8.81,49a6.45,6.45,0,0,0,1.39.57A1.39,1.39,0,0,0,12,48.76a1.07,1.07,0,0,0,.07-.27c.42-1.48.75-3,1.16-4.44a2.13,2.13,0,0,0-.6-1.9,16.62,16.62,0,0,1-3-14.8,24.14,24.14,0,0,1,4.13-9.67,22.6,22.6,0,0,1,10.5-7.89,27.47,27.47,0,0,1,16.07-1A17.53,17.53,0,0,1,53,19.16,16.72,16.72,0,0,1,54.52,25a36.86,36.86,0,0,1-5.17,22.55,13.69,13.69,0,0,1-7.72,6.11A8.66,8.66,0,0,1,30.89,49a9,9,0,0,1,0-5.77c1.19-4.73,3.11-9.22,3.87-14a13.34,13.34,0,0,0,0-5,6.24,6.24,0,0,0-7.44-4.74,6,6,0,0,0-1.44.51,10.62,10.62,0,0,0-6.21,8.26,18.16,18.16,0,0,0,.89,10.9,3,3,0,0,1,0,1.92L17.62,53.54c-1.15,4.79-2.36,9.57-3.43,14.4a35.54,35.54,0,0,0-.62,8.3c0,.38,0,10.36.93,10.67s5-7.4,5.15-7.61a40.33,40.33,0,0,0,4.86-11.75Z"/></g></svg>