<svg id="Layer_1" data-name="Layer 1" xmlns="http://www.w3.org/2000/svg" viewBox="0 0 89.18 86.42"><defs><style>.cls-1{fill:none;}.cls-2{fill:#0d3236;fill-rule:evenodd;}</style></defs><g id="Twitter"><rect id="Rectangle_393" data-name="Rectangle 393" class="cls-1" x="2.77" width="86.42" height="86.42"/><path id="Path_2" data-name="Path 2" class="cls-2" d="M27.87,81.07A50.88,50.88,0,0,0,79.2,30.64V27.28A39.62,39.62,0,0,0,88,18a40.37,40.37,0,0,1-10.27,2.94,19.08,19.08,0,0,0,7.83-9.77,44.75,44.75,0,0,1-11.25,4.4,17.45,17.45,0,0,0-13.2-5.88A18.37,18.37,0,0,0,43,27.77a9.61,9.61,0,0,0,.49,3.91A50.54,50.54,0,0,1,6.35,12.61,18.66,18.66,0,0,0,3.91,21.9a19.44,19.44,0,0,0,7.82,15.16,16.49,16.49,0,0,1-8.31-2.45h0a17.87,17.87,0,0,0,14.65,17.6,14.89,14.89,0,0,1-4.88.49,8.29,8.29,0,0,1-3.42-.49,18.49,18.49,0,0,0,17.12,12.7A36.92,36.92,0,0,1,4.4,72.73,13.34,13.34,0,0,1,0,72.26a46.14,46.14,0,0,0,27.87,8.81"/></g></svg>