<svg id="Layer_1" data-name="Layer 1" xmlns="http://www.w3.org/2000/svg" viewBox="0 0 88.19 88.19"><defs><style>.cls-1{fill:#0d3236;fill-rule:evenodd;}</style></defs><g id="Instagram"><path id="Path_3" data-name="Path 3" class="cls-1" d="M44.09,7.91A136.26,136.26,0,0,1,61.7,8.4,22.73,22.73,0,0,1,70,9.87a17.21,17.21,0,0,1,8.31,8.31,22.72,22.72,0,0,1,1.46,8.31c0,4.4.49,5.87.49,17.61a134.3,134.3,0,0,1-.49,17.6A22.64,22.64,0,0,1,78.32,70,17.21,17.21,0,0,1,70,78.32a22.73,22.73,0,0,1-8.31,1.47c-4.4,0-5.87.48-17.61.48a134.29,134.29,0,0,1-17.6-.48,22.65,22.65,0,0,1-8.31-1.47A17.15,17.15,0,0,1,9.86,70,22.72,22.72,0,0,1,8.4,61.7c0-4.4-.49-5.87-.49-17.61a134.3,134.3,0,0,1,.49-17.6,22.68,22.68,0,0,1,1.46-8.31,17.47,17.47,0,0,1,3.42-4.88,8.26,8.26,0,0,1,4.89-3.42,22.45,22.45,0,0,1,8.31-1.47,134.3,134.3,0,0,1,17.6-.49m0-7.82A143.25,143.25,0,0,0,26,.58a30,30,0,0,0-10.77,2A19,19,0,0,0,7.43,7.42a19.13,19.13,0,0,0-4.89,7.82A22.35,22.35,0,0,0,.58,26,145.32,145.32,0,0,0,.09,44.09,145.59,145.59,0,0,0,.58,62.18a30.19,30.19,0,0,0,2,10.76,19,19,0,0,0,4.88,7.82,19.24,19.24,0,0,0,7.82,4.89,30.45,30.45,0,0,0,10.76,2,143.77,143.77,0,0,0,18.09.48,143.67,143.67,0,0,0,18.09-.48,30.41,30.41,0,0,0,10.76-2A20.51,20.51,0,0,0,85.65,72.94a30.23,30.23,0,0,0,2-10.76c0-4.88.49-6.36.49-18.09A145.59,145.59,0,0,0,87.61,26a30.19,30.19,0,0,0-2-10.76,19,19,0,0,0-4.88-7.82,19.21,19.21,0,0,0-7.83-4.89A30.14,30.14,0,0,0,62.18.58,145.59,145.59,0,0,0,44.09.09m0,21.52A22.12,22.12,0,0,0,21.6,43.36v.74A22.49,22.49,0,1,0,44.09,21.61m0,37.15A14.4,14.4,0,0,1,29.44,44.61v-.5A14.41,14.41,0,0,1,43.59,29.46h.5A14.41,14.41,0,0,1,58.75,43.61v.5A14.4,14.4,0,0,1,44.59,58.76a4.17,4.17,0,0,1-.5,0M67.56,15.25a5.38,5.38,0,1,0,5.38,5.38,5.38,5.38,0,0,0-5.38-5.38"/></g></svg>