<svg xmlns="http://www.w3.org/2000/svg" viewBox="0 0 566.93 566.93"><defs><style>.cls-1{fill:#FFFCFB;}.cls-2{fill:#ffd1b8;}.cls-3,.cls-4{fill:none;stroke-miterlimit:10;}.cls-3{stroke:#6e7832;stroke-width:5px;}.cls-4{stroke:#ff8764;stroke-width:15px;}.cls-5{fill:#6e7832;}.cls-6{fill:#324100;}.cls-7{fill:#d37e44;}.cls-8{fill:#af500e;}</style></defs><g id="Tlo"><rect class="cls-1" width="566.93" height="566.93"/></g><g id="Ilustracja"><circle class="cls-2" cx="283.46" cy="283.46" r="206.6"/><line class="cls-3" x1="283.46" y1="209.68" x2="283.46" y2="431.03"/><circle class="cls-4" cx="283.46" cy="283.46" r="177.08"/><path class="cls-5" d="M283.46,135.9s-51.64,34.26-51.64,76.53c0,20.13,14.45,36.45,32.28,36.45a29.77,29.77,0,0,0,19.36-7.29,29.82,29.82,0,0,0,19.37,7.29c17.83,0,32.28-16.32,32.28-36.45C335.11,170.16,283.46,135.9,283.46,135.9Z"/><path class="cls-6" d="M283.46,135.9h0V241.59h0a29.77,29.77,0,0,1-19.36,7.29c-17.83,0-32.28-16.32-32.28-36.45C231.82,170.16,283.46,135.9,283.46,135.9Z"/><path class="cls-3" d="M283.46,364.63a59,59,0,0,1,59-59"/><path class="cls-5" d="M442.1,305.6s-34.27,51.65-76.54,51.65c-20.12,0-36.44-14.45-36.44-32.28a29.78,29.78,0,0,1,7.29-19.37,29.8,29.8,0,0,1-7.29-19.37c0-17.83,16.32-32.28,36.44-32.28C407.83,254,442.1,305.6,442.1,305.6Z"/><path class="cls-6" d="M442.1,305.6H336.41A29.8,29.8,0,0,0,329.12,325c0,17.83,16.32,32.28,36.44,32.28C407.83,357.25,442.1,305.6,442.1,305.6Z"/><polyline class="cls-2" points="342.49 165.41 287.15 183.86 342.49 183.86"/><polyline class="cls-2" points="220.75 209.68 265.02 224.44 224.44 224.44"/><path class="cls-7" d="M224.44,431c0-24.45,26.42-44.27,59-44.27s59,19.82,59,44.27Z"/><path class="cls-8" d="M290.84,387.12c-2.42-.23-4.87-.36-7.38-.36-32.6,0-59,19.82-59,44.27h14.75C239.19,408.46,261.73,389.84,290.84,387.12Z"/><ellipse class="cls-8" cx="314.82" cy="414.43" rx="12.91" ry="9.22"/><ellipse class="cls-8" cx="294.53" cy="399.67" rx="7.38" ry="5.53"/><line class="cls-4" x1="161.28" y1="405.65" x2="405.65" y2="161.28"/><path class="cls-3" d="M283.46,364.63a59,59,0,0,0-59-59"/><path class="cls-5" d="M124.83,305.6s34.26,51.65,76.53,51.65c20.13,0,36.45-14.45,36.45-32.28a29.78,29.78,0,0,0-7.29-19.37,29.8,29.8,0,0,0,7.29-19.37c0-17.83-16.32-32.28-36.45-32.28C159.09,254,124.83,305.6,124.83,305.6Z"/><path class="cls-6" d="M124.83,305.6H230.52A29.8,29.8,0,0,1,237.81,325c0,17.83-16.32,32.28-36.45,32.28C159.09,357.25,124.83,305.6,124.83,305.6Z"/></g></svg>