<svg xmlns="http://www.w3.org/2000/svg" viewBox="0 0 566.93 566.93"><defs><style>.cls-1{fill:#FFFCFB;}.cls-2{fill:#ffd1b8;}.cls-3{fill:#d8aa91;}.cls-4{fill:#006464;}.cls-5{fill:#0f373c;}.cls-6{fill:#6e7832;}.cls-7{fill:#d37e44;}.cls-8{fill:#b7b7b7;}.cls-9{fill:#ff8764;}.cls-10{fill:#919191;}.cls-11{fill:#af500e;}.cls-12,.cls-18,.cls-19{fill:none;}.cls-12{stroke:#1d1d1b;stroke-width:13px;}.cls-12,.cls-19{stroke-linecap:round;stroke-linejoin:round;}.cls-13{fill:#d25a3c;}.cls-14{fill:#324100;}.cls-15{fill:#f5a03c;}.cls-16{fill:#f27900;}.cls-17{fill:#b75300;}.cls-18,.cls-19{stroke:#324100;stroke-width:3px;}.cls-18{stroke-miterlimit:10;}.cls-20{fill:#727272;}.cls-21{fill:#1d1d1b;}</style></defs><g id="Tlo"><rect class="cls-1" width="566.93" height="566.93"/></g><g id="Ilustracja"><circle class="cls-2" cx="283.46" cy="283.46" r="206.6"/><rect class="cls-3" x="137.3" y="405.21" width="267.47" height="18.45" rx="7.09"/><path class="cls-4" d="M321.94,225.61c-9.64,21.14-27.61,33.64-40.12,27.93S267,226.07,276.6,204.93c7.72-16.92,42.78-55.3,56.46-69.94a2.72,2.72,0,0,1,4.69,2.14C335.66,157.06,329.66,208.69,321.94,225.61Z"/><path class="cls-5" d="M322.14,222.93c3.53-7.73,6.69-22.69,9.29-38.57-18.83,10.37-39,22.82-46.06,31.85a48.86,48.86,0,0,0-10.48,28.13,16.33,16.33,0,0,0,7.13,6.52C294.54,256.57,312.5,244.07,322.14,222.93Z"/><path class="cls-6" d="M343.05,264c-13.54,17.39-36.59,22.08-51.48,10.48s-16-35.09-2.44-52.48,82.12-49.83,82.12-49.83S356.59,246.6,343.05,264Z"/><rect class="cls-7" x="385.47" y="225.38" width="13.91" height="109.5" transform="translate(856.44 411.12) rotate(160.24)"/><path class="cls-8" d="M397.22,380.91l-6.81-19a8.85,8.85,0,0,1,3-10.17,22.62,22.62,0,0,0,8-25.94l13.08-4.7a22.62,22.62,0,0,0,22.69,14.92A8.86,8.86,0,0,1,446,342l6.81,19s14.1,39.26-13.71,49.25S397.22,380.91,397.22,380.91Z"/><path class="cls-9" d="M367.61,231.62l3.87,10.78,13.09-4.7-3.87-10.78a24.43,24.43,0,0,0,8.48-27.81l-2.94-8.18a12.16,12.16,0,0,0-15.56-7.34l-22.91,8.23a12.16,12.16,0,0,0-7.33,15.56l2.93,8.18A24.43,24.43,0,0,0,367.61,231.62Zm-15.72-28.35,22.9-8.23,2.94,8.18a12.17,12.17,0,0,1-22.91,8.23Z"/><path class="cls-10" d="M414.53,321.13l10,27.81a7,7,0,0,1-4.19,8.89h0a7,7,0,0,1-8.89-4.19l-10-27.81Z"/><path class="cls-10" d="M439.13,410.18h0c27.81-10,13.71-49.25,13.71-49.25L446,342a8.87,8.87,0,0,0-8.82-5.91,22.62,22.62,0,0,1-22.68-14.92L408,323.48Z"/><rect class="cls-11" x="399.86" y="316.73" width="13.91" height="6.95" transform="translate(897.92 484.05) rotate(160.24)"/><rect class="cls-11" x="372.25" y="239.85" width="13.91" height="6.95" transform="translate(818.33 344.14) rotate(160.24)"/><path class="cls-12" d="M272.56,363.14a30.43,30.43,0,0,1-29-21.26l-20.75-65.7a30.43,30.43,0,0,0-29-21.26H170.52"/><path class="cls-13" d="M162.47,246.38h28a0,0,0,0,1,0,0v17.09a0,0,0,0,1,0,0h-28a6.19,6.19,0,0,1-6.19-6.19v-4.71A6.19,6.19,0,0,1,162.47,246.38Z"/><path class="cls-6" d="M201.85,294.79a79.74,79.74,0,0,1,159.48,0Z"/><path class="cls-14" d="M361.33,294.79a79.74,79.74,0,0,0-108.22-74.48,79.91,79.91,0,0,1,31.67,22.15,9.66,9.66,0,0,1-4.65,15.62l-76.9,22a80.42,80.42,0,0,0-1.38,14.74H361.33Z"/><path class="cls-15" d="M318.61,254.92,277.73,357.11l-4.68,11.72H196.38A36.14,36.14,0,0,1,179.66,362l-20.53-61.56,5.94-1.69Z"/><path class="cls-11" d="M374.18,249.39h-.26l10,27.82,3.38-8.46a14.12,14.12,0,0,0-13.11-19.36Z"/><path class="cls-16" d="M374.26,254.92a8.59,8.59,0,0,1,8,11.78l-18.07,45.18-22.78,57H273.05l45.56-113.92Z"/><path class="cls-17" d="M365.31,309H335c-24.77,0-44.85,26.78-44.85,59.8h51.26Z"/><path class="cls-16" d="M201.36,349.58a16.78,16.78,0,0,1-16.07-11.78l-13-41.08-7.24,2.07-5.94,1.7L179.66,362a36,36,0,0,0,16.72,6.79h90.9V349.58Z"/><path class="cls-12" d="M318.61,363.14H201.36a30.43,30.43,0,0,1-29-21.26l-20.74-65.7a30.43,30.43,0,0,0-29-21.26H99.33"/><polyline class="cls-12" points="164.83 317.57 193.31 408.7 247.41 363.14"/><path class="cls-13" d="M94.12,246.38h28a0,0,0,0,1,0,0v17.09a0,0,0,0,1,0,0h-28a6.19,6.19,0,0,1-6.19-6.19v-4.71a6.19,6.19,0,0,1,6.19-6.19Z"/><path class="cls-18" d="M224.63,300.49A28.48,28.48,0,0,1,253.11,272"/><path class="cls-19" d="M285.86,163.79h0a10,10,0,0,1-10-10v-8.54"/><path class="cls-6" d="M287.28,141a11.39,11.39,0,0,1-22.78,0c0-6.29,11.39-25.63,11.39-25.63S287.28,134.72,287.28,141Z"/><path class="cls-14" d="M275.89,115.38s11.39,19.34,11.39,25.63a11.39,11.39,0,0,1-11.39,11.39Z"/><path class="cls-19" d="M204.38,139.2h0a10,10,0,0,1,12.9-5.67l8,3.1"/><path class="cls-6" d="M225.09,148.79a11.39,11.39,0,0,1,8.27-21.23c5.86,2.29,19.75,19.92,19.75,19.92S231,151.08,225.09,148.79Z"/><path class="cls-14" d="M253.11,147.48s-22.15,3.6-28,1.31a11.39,11.39,0,0,1-6.48-14.74Z"/><path class="cls-19" d="M140.63,185.53h0a10,10,0,0,1,13.82,2.74l4.75,7.1"/><path class="cls-9" d="M152.11,205.26a11.39,11.39,0,0,1,18.94-12.67c3.5,5.23,4.78,27.64,4.78,27.64S155.61,210.49,152.11,205.26Z"/><path class="cls-13" d="M175.83,220.23s-20.22-9.74-23.72-15a11.39,11.39,0,0,1,3.14-15.8Z"/><path class="cls-6" d="M213.24,306.18a11.39,11.39,0,0,1,22.78,0c0,6.29-11.39,25.63-11.39,25.63S213.24,312.47,213.24,306.18Z"/><path class="cls-14" d="M224.63,331.81s-11.39-19.34-11.39-25.63a11.39,11.39,0,0,1,11.39-11.39Z"/><path class="cls-6" d="M240.79,301.11a11.39,11.39,0,1,1,19-12.64c3.49,5.24,4.74,27.65,4.74,27.65S244.27,306.35,240.79,301.11Z"/><path class="cls-14" d="M264.48,316.12s-20.21-9.77-23.69-15a11.4,11.4,0,0,1,3.15-15.8Z"/><path class="cls-20" d="M397,348.37a22.67,22.67,0,0,1-3.71,3.4,8.86,8.86,0,0,0-3,10.17l6.81,19s.48,1.32,1.42,3.41a63.91,63.91,0,0,0,1.89-15.48A62.81,62.81,0,0,0,397,348.37Z"/><path class="cls-21" d="M361.33,323.27H338.54V414.4h22.79c18.87,0,34.17-20.4,34.17-45.57S380.2,323.27,361.33,323.27Z"/><ellipse class="cls-21" cx="338.54" cy="368.83" rx="34.17" ry="45.57"/><ellipse class="cls-9" cx="338.54" cy="368.83" rx="19.22" ry="25.63"/><path class="cls-13" d="M337.83,394.47a14.81,14.81,0,0,0,5.34-1c-8-3.09-13.88-12.94-13.88-24.63s5.86-21.53,13.88-24.62a14.81,14.81,0,0,0-5.34-1c-10.61,0-19.22,11.48-19.22,25.63S327.22,394.47,337.83,394.47Z"/><polygon class="cls-2" points="295.83 138.16 312.91 178.03 292.98 163.79 307.22 192.27 281.59 175.18 295.83 138.16"/><polygon class="cls-2" points="142.04 297.64 127.81 323.27 144.89 309.03 150.59 320.42 142.04 340.36 156.28 326.12 150.59 306.18 142.04 297.64"/><path class="cls-4" d="M239.73,217.1h0a2.82,2.82,0,0,1-2.65-3l1.4-23.19a2.86,2.86,0,0,0-1.76-2.8q-2-.81-4-1.59a2.83,2.83,0,0,0-3.84,2.47l-.64,10.52a2.82,2.82,0,0,1-3,2.65h0a2.82,2.82,0,0,1-2.65-3l.83-13.79a2.81,2.81,0,0,0-1.93-2.85c-.9-.3-1.8-.6-2.69-.88a2.83,2.83,0,0,0-3.69,2.53l-.19,3.14a2.83,2.83,0,0,1-3,2.66h0a2.84,2.84,0,0,1-2.66-3l.36-5.85a2.84,2.84,0,0,0-2-2.9c-4.35-1.25-8.1-2.26-10.73-2.94a2.83,2.83,0,0,0-3.52,3.11c.36,2.7.91,6.54,1.63,11a2.83,2.83,0,0,0,2.63,2.38l5.85.35a2.85,2.85,0,0,1,2.66,3h0a2.82,2.82,0,0,1-3,2.65L200,197.6A2.83,2.83,0,0,0,197,201c.17.92.36,1.85.54,2.78a2.84,2.84,0,0,0,2.61,2.26l13.79.83a2.85,2.85,0,0,1,2.66,3h0a2.83,2.83,0,0,1-3,2.66l-10.52-.64a2.84,2.84,0,0,0-2.92,3.52c.36,1.41.72,2.79,1.1,4.15a2.87,2.87,0,0,0,2.57,2.09L227,223a2.84,2.84,0,0,1,2.66,3h0a2.85,2.85,0,0,1-3,2.66l-18.56-1.13a2.85,2.85,0,0,0-2.77,4,28.45,28.45,0,0,0,4.29,7.33c10.72,12.11,29.55,13,42.05,1.88s13.93-29.86,3.21-42a28,28,0,0,0-6.77-5.14,2.83,2.83,0,0,0-4.27,2.27l-1.13,18.56A2.82,2.82,0,0,1,239.73,217.1Z"/><path class="cls-5" d="M248.13,193.62a2.83,2.83,0,0,0-4.27,2.27l-1.13,18.56a2.83,2.83,0,0,1-5.65-.35l1.4-23.19a2.86,2.86,0,0,0-1.76-2.8q-2-.81-4-1.59a2.83,2.83,0,0,0-3.84,2.47l-.64,10.52a2.83,2.83,0,1,1-5.65-.35l.83-13.79a2.81,2.81,0,0,0-1.93-2.85c-.9-.3-1.8-.6-2.69-.88a2.83,2.83,0,0,0-3.69,2.53l-.19,3.14a2.84,2.84,0,1,1-5.66-.34l.36-5.85a2.84,2.84,0,0,0-2-2.9c-4.35-1.25-8.1-2.26-10.73-2.94a2.78,2.78,0,0,0-2.59.62l57.43,64.83c12.5-11.07,13.93-29.86,3.21-42A28,28,0,0,0,248.13,193.62Z"/></g></svg>