<svg xmlns="http://www.w3.org/2000/svg" viewBox="0 0 566.93 566.93"><defs><style>.cls-1{fill:#FFFCFB;}.cls-2{fill:#ffd1b8;}.cls-3{fill:#d8aa91;}.cls-11,.cls-4{fill:none;}.cls-4{stroke:#6e7832;stroke-miterlimit:10;stroke-width:4px;}.cls-5{fill:#6e7832;}.cls-6{fill:#324100;}.cls-7{fill:#af500e;}.cls-8{fill:#7c3200;}.cls-9{fill:#fff;}.cls-10{fill:#f5a03c;}.cls-12{fill:#eaeaea;}.cls-13{fill:#ad4e00;}.cls-14{fill:#1d1d1b;}</style></defs><g id="Tlo"><rect class="cls-1" width="566.93" height="566.93"/></g><g id="Ilustracja"><circle class="cls-2" cx="283.46" cy="283.46" r="206.6"/><rect class="cls-3" x="250.12" y="427.34" width="118.05" height="14.76" rx="5.67"/><path class="cls-4" d="M156.44,162.36a21.05,21.05,0,0,1,29.77,0"/><path class="cls-5" d="M219.54,196.44s-29.4,5.95-43.87-8.51c-6.89-6.89-7.52-17.42-1.42-23.52a14.45,14.45,0,0,1,9.12-4.14,14.46,14.46,0,0,1,4.13-9.12c6.1-6.1,16.63-5.46,23.52,1.43C225.48,167,219.54,196.44,219.54,196.44Z"/><path class="cls-6" d="M219.54,196.44h0l-36.17-36.17h0a14.45,14.45,0,0,0-9.12,4.14c-6.1,6.1-5.47,16.63,1.42,23.52C190.14,202.39,219.54,196.44,219.54,196.44Z"/><rect class="cls-7" x="298.08" y="298.22" width="22.14" height="136.5"/><path class="cls-7" d="M360.8,276.09V305.6a51.65,51.65,0,0,1-103.3,0V276.09H235.37v25.82a73.78,73.78,0,1,0,147.56,0V276.09Z"/><rect class="cls-8" x="298.08" y="298.22" width="22.14" height="14.76"/><path class="cls-8" d="M360.8,305.6a51.39,51.39,0,0,1-.54,7.38h21.83a74.93,74.93,0,0,0,.84-11.07V276.09H360.8Z"/><path class="cls-8" d="M257.5,305.6V276.09H235.37v25.82a73.59,73.59,0,0,0,.85,11.07H258A51.39,51.39,0,0,1,257.5,305.6Z"/><path class="cls-5" d="M382.94,206v95.92H235.36V206a73.8,73.8,0,0,1,145.9-15.59A72.16,72.16,0,0,1,382.94,206Z"/><path class="cls-5" d="M165.27,279.78a70.09,70.09,0,0,1,71-70.09c38.52.5,69.16,32.61,69.16,71.13v21.09h-118a22.13,22.13,0,0,1-22.14-22.13Z"/><path class="cls-6" d="M183.72,290.84a70.07,70.07,0,0,1,70.09-70.07v-3.71a74,74,0,0,1,73.78-73.79,73.12,73.12,0,0,1,28.17,5.64A73.69,73.69,0,0,0,235.36,206v3.71a70.08,70.08,0,0,0-70.09,70.08,22.1,22.1,0,0,0,21.41,22.09A22,22,0,0,1,183.72,290.84Z"/><path class="cls-5" d="M453,279.78a70.09,70.09,0,0,0-71-70.09c-38.52.5-69.16,32.61-69.16,71.13v21.09H430.89A22.13,22.13,0,0,0,453,279.78Z"/><path class="cls-6" d="M335,291.89c0-38.53,30.65-70.64,69.17-71.14a70.26,70.26,0,0,1,20.68,2.83A69.76,69.76,0,0,0,382,209.69c-38.52.5-69.16,32.61-69.16,71.13v21.09H335Z"/><path class="cls-6" d="M303.53,232.4l-35.88,26.3.08-.23-4.35,3.19,18-46.28a3.61,3.61,0,0,0-6.45-3.19l-45.26,74.2-6.75,4.94-.18.3-14,10.28h39.07l.36-.93,60.18-63.18h0a3.61,3.61,0,0,0-4.76-5.4Z"/><path class="cls-9" d="M298.37,234.22h0a1.66,1.66,0,0,1,0,2.24l-69,72.47-.81-.16c-8.48-1.59-25.32,6.49-25.49,6.57l-1.31.63-5-9.14L296.14,234A1.66,1.66,0,0,1,298.37,234.22Z"/><path class="cls-10" d="M130.29,322.81c-10.38,9.52-12.2,24.48-4.07,33.36s23.2,8.36,33.58-1.16c.48-.43.92-.87,1.32-1.29l.22-.23c.39-.41.83-.89,1.24-1.39,0,0,3.12-3.73,6.58-7.94,3.14-3.82,7.22-8.79,8.75-10.78,3.54-4.26,14.91-11.89,24.36-17.6l1.28-.77-6.35-11a1.52,1.52,0,0,0-2.19-.49h0c-13.26,9.2-23.82,9.64-34,10.08-6.22.26-12.65.53-19.45,2.79l-.06,0-1.27.42-.67.24-.1,0-1,.41-.08,0-.86.39-.22.06-.13.11a26.87,26.87,0,0,0-2.49,1.39l-.15.1-.58.37-.37.25-1.44,1.06-.57.45-.33.28C130.89,322.27,130.59,322.54,130.29,322.81Zm27.24,4.66c4.94,5.39,3.35,14.9-3.53,21.21s-16.51,7.07-21.44,1.68-3.35-14.9,3.54-21.21S152.6,322.08,157.53,327.47Z"/><path class="cls-11" d="M221.69,175.77a4.71,4.71,0,0,0-8.42-4.16"/><path class="cls-12" d="M228.38,308.69l.82.15L243.3,294,255,264l-39.17,28.7-3.48,5.71,1.07,2.24c1.12,2.33,1.48,6.05,1.45,9.95C219.58,309.1,224.75,308,228.38,308.69Z"/><path class="cls-9" d="M270.18,212.58h0a1.67,1.67,0,0,0-2.16.63l-52.11,85.44.35.74c3.73,7.78.3,26.14.26,26.32l-.27,1.43,10.12,2.43L271,214.68A1.67,1.67,0,0,0,270.18,212.58Z"/><path class="cls-10" d="M228.67,396.79l.18-.39.29-.66.65-1.67c.05-.14.1-.28.14-.42s.15-.43.22-.65c0-.07,0-.12,0-.17a27.32,27.32,0,0,0,.69-2.77l.08-.16v-.22c.06-.32.11-.63.16-.94v-.08c.05-.35.1-.72.14-1.07v-.11c0-.24.05-.47.06-.72l.08-1.33v-.06c.42-7.15-1-13.44-2.34-19.51-2.23-10-4.53-20.3.92-35.49h0a1.53,1.53,0,0,0-1-2L216.7,325.1l-.41,1.44c-3.07,10.6-7.5,23.56-10.69,28.08-1.53,2-5.28,7.22-8.15,11.25-3.17,4.43-6,8.4-6,8.4-.37.53-.72,1.08-1,1.56l-.17.28c-.29.49-.6,1-.9,1.6-6.5,12.49-3.1,27.17,7.58,32.73s24.67-.07,31.17-12.56C228.32,397.52,228.5,397.16,228.67,396.79Zm-8.15-2.88c-4.32,8.29-13.1,12.29-19.58,8.92S192.7,390,197,381.68s13.09-12.28,19.57-8.91S224.83,385.63,220.52,393.91Z"/><path class="cls-13" d="M216.58,372.77l.08.05a10.48,10.48,0,0,0-2.82-2.16c-6.48-3.37-15.26.63-19.58,8.91s-2.56,17.7,3.86,21.1c-4.07-4.33-4.71-12.08-1.11-19C201.32,373.39,210.1,369.4,216.58,372.77Z"/><path class="cls-13" d="M228.14,397.88c.18-.36.36-.72.53-1.09l.18-.39.29-.66.65-1.67c.05-.14.1-.28.14-.42s.15-.43.22-.65c0-.07,0-.12,0-.17a27.32,27.32,0,0,0,.69-2.77l.08-.16v-.22c.06-.32.11-.63.16-.94v-.08c.05-.35.1-.72.14-1.07v-.11c0-.24.05-.47.06-.72l.08-1.33v-.06c.42-7.15-1-13.44-2.34-19.51-2.23-10-4.53-20.3.92-35.49a1.53,1.53,0,0,0-1-2l-1.62-.44a1.67,1.67,0,0,1-.08.32c-5.45,15.19-3.14,25.51-.91,35.49,1.35,6.08,2.75,12.36,2.33,19.52v.05l-.07,1.34c0,.24,0,.48-.07.71v.11c0,.36-.08.72-.14,1.07v.08c0,.31-.09.63-.15.94v.22l-.08.17a27.24,27.24,0,0,1-.7,2.76,1.54,1.54,0,0,1,0,.17c-.07.22-.14.44-.22.65s-.08.28-.13.42l-.66,1.67c-.08.21-.19.44-.29.67l-.18.39c-.16.36-.34.72-.53,1.08-6.5,12.49-20.48,18.13-31.16,12.57-.47-.24-.91-.51-1.35-.78a18.83,18.83,0,0,0,4.09,2.88C207.66,416,221.64,410.37,228.14,397.88Z"/><path class="cls-13" d="M132.33,350.18c-4.94-5.38-3.35-14.9,3.53-21.21,5.75-5.26,13.39-6.66,18.63-3.85-5-5.31-14.51-4.54-21.37,1.74s-8.48,15.83-3.54,21.22a10.69,10.69,0,0,0,2.81,2.17Z"/><path class="cls-13" d="M197,303.84a1.51,1.51,0,0,0-1.9-.65l5.5,9.54-1.28.77c-9.45,5.71-20.82,13.34-24.36,17.59-1.52,2-5.6,7-8.75,10.79-3.46,4.2-6.57,7.94-6.57,7.94-.42.5-.86,1-1.25,1.39l-.22.23c-.4.41-.84.85-1.31,1.29-8.91,8.17-21.27,9.7-29.73,4.36,8.33,7.71,22.54,6.85,32.47-2.25.48-.44.92-.88,1.32-1.29l.22-.23c.39-.42.83-.9,1.24-1.39,0,0,3.11-3.74,6.57-7.95,3.15-3.81,7.23-8.78,8.76-10.78,3.54-4.26,14.91-11.89,24.36-17.59l1.28-.78Z"/><circle class="cls-14" cx="229.42" cy="295.07" r="5.19"/></g></svg>