<svg xmlns="http://www.w3.org/2000/svg" viewBox="0 0 566.93 566.93"><defs><style>.cls-1{fill:#fff;}.cls-2{fill:#ffd1b8;}.cls-3{fill:none;stroke:#6e7832;stroke-miterlimit:10;stroke-width:4px;}.cls-4{fill:#6e7832;}.cls-5{fill:#324100;}.cls-6{fill:#f5a03c;}.cls-7{fill:#af500e;}.cls-8{fill:#e6a073;}.cls-9{fill:#c7c7c7;}.cls-10{fill:#ff8764;}.cls-11{fill:#929292;}.cls-12{fill:#d37e44;}.cls-13{fill:#d25a3c;}</style></defs><g id="Tlo"><rect class="cls-1" width="566.93" height="566.93"/></g><g id="Ilustracja"><circle class="cls-2" cx="283.46" cy="283.46" r="206.6"/><line class="cls-3" x1="319.2" y1="238.93" x2="319.2" y2="427.34"/><path class="cls-3" d="M319,340.54a33.21,33.21,0,0,1,33.21-33.2"/><path class="cls-3" d="M319,340.54a33.2,33.2,0,0,0-33.2-33.2"/><path class="cls-4" d="M427.34,308.18s-26.15,39.43-58.41,39.43c-15.37,0-27.82-11-27.82-24.64a22.78,22.78,0,0,1,5.56-14.79,22.73,22.73,0,0,1-5.56-14.78c0-13.61,12.45-24.64,27.82-24.64C401.19,268.76,427.34,308.18,427.34,308.18Z"/><path class="cls-5" d="M427.34,308.19H346.67A22.73,22.73,0,0,0,341.11,323c0,13.61,12.45,24.64,27.82,24.64C401.19,347.61,427.34,308.19,427.34,308.19Z"/><path class="cls-4" d="M211.64,308.18s26.36,39.74,58.89,39.74c15.48,0,28-11.12,28-24.83A23,23,0,0,0,293,308.18a22.94,22.94,0,0,0,5.61-14.9c0-13.71-12.56-24.83-28-24.83C238,268.45,211.64,308.18,211.64,308.18Z"/><path class="cls-5" d="M211.64,308.19H293a22.94,22.94,0,0,1,5.61,14.9c0,13.71-12.56,24.83-28,24.83C238,347.92,211.64,308.19,211.64,308.19Z"/><path class="cls-6" d="M329,156l2.15,3.27a12.1,12.1,0,0,0,13.59,4.83l3.81-1.15c8.3-2.52,16.49,4.19,15.39,12.61l-.5,3.86a11.63,11.63,0,0,0,7.23,12.23l3.67,1.5a11.54,11.54,0,0,1,3.49,19.33l-2.93,2.64A11.49,11.49,0,0,0,372.41,229l1.83,3.46a11.66,11.66,0,0,1-10.05,17l-4,.19a11.88,11.88,0,0,0-11.08,9.07l-.87,3.8c-1.92,8.28-12,11.85-18.89,6.71l-3.17-2.36a12.18,12.18,0,0,0-14.46,0l-3.17,2.36c-6.92,5.14-17,1.57-18.88-6.71l-.88-3.8a11.86,11.86,0,0,0-11.08-9.07l-4-.19a11.66,11.66,0,0,1-10-17l1.82-3.46A11.47,11.47,0,0,0,263,215.13l-2.92-2.64a11.54,11.54,0,0,1,3.48-19.33l3.68-1.5a11.63,11.63,0,0,0,7.23-12.23l-.5-3.86c-1.1-8.42,7.09-15.13,15.39-12.61l3.8,1.15a12.09,12.09,0,0,0,13.59-4.83l2.16-3.27A12.1,12.1,0,0,1,329,156Z"/><circle class="cls-7" cx="318.97" cy="213.37" r="25.09"/><rect class="cls-8" x="175.09" y="209.42" width="22.14" height="92.23"/><path class="cls-9" d="M226.74,342.23l-15.53-8.12a26.06,26.06,0,0,1-14-23.09V298H175.09V311a26,26,0,0,1-14,23.09l-15.53,8.12V386.5a40.7,40.7,0,0,0,40.58,40.58h0a40.7,40.7,0,0,0,40.58-40.58Z"/><path class="cls-10" d="M204.39,168.84H167.93a15,15,0,0,0-15,15v6.49a34,34,0,0,0,22.13,31.95v16.68h22.14V222.27A33.34,33.34,0,0,0,219.36,191v-7.16A15,15,0,0,0,204.39,168.84Zm.22,22.13a18.49,18.49,0,0,1-20.7,18.31c-9.34-1.12-16.19-9.38-16.19-18.79v-6.9h36.89Z"/><path class="cls-11" d="M211.21,334.11a26.06,26.06,0,0,1-14-23.09V298H186.16V427.08h0a40.7,40.7,0,0,0,40.58-40.58V342.23Z"/><path class="cls-11" d="M197.23,298v44.27a11.1,11.1,0,0,1-11.07,11.07h0a11.1,11.1,0,0,1-11.07-11.07V298Z"/><rect class="cls-12" x="186.16" y="239.19" width="11.07" height="59.03"/><path class="cls-13" d="M204.39,168.84H186.16v14.75h18.45V191a18.49,18.49,0,0,1-18.45,18.44v29.52h11.07V222.27A33.34,33.34,0,0,0,219.36,191v-7.16A15,15,0,0,0,204.39,168.84Z"/><path class="cls-7" d="M274.7,427.34a44.27,44.27,0,1,1,88.54,0Z"/><path class="cls-8" d="M183.86,427.34a57.18,57.18,0,0,1,114.36,0Z"/><path class="cls-9" d="M276.09,427.34a22.14,22.14,0,0,1,44.27,0"/></g></svg>