<svg xmlns="http://www.w3.org/2000/svg" viewBox="0 0 566.93 566.93"><defs><style>.cls-1{fill:#FFFCFB;}.cls-2{fill:#ffd1b8;}.cls-3{fill:#006464;}.cls-4{fill:#002828;}.cls-5{fill:#008c85;}.cls-10,.cls-15,.cls-6{fill:none;stroke-linecap:round;}.cls-6{stroke:#002828;}.cls-15,.cls-6{stroke-miterlimit:10;stroke-width:3px;}.cls-7{fill:#f5a03c;}.cls-8{fill:#e57200;}.cls-9{fill:#e2cfbf;}.cls-10{stroke:#1d1d1b;stroke-linejoin:round;stroke-width:5px;}.cls-11{fill:#d25a3c;}.cls-12{fill:#d8aa91;}.cls-13{fill:#ff8764;}.cls-14{fill:#1d1d1b;}.cls-15{stroke:#ffd1b8;}</style></defs><g id="Tlo"><rect class="cls-1" width="566.93" height="566.93"/></g><g id="Ilustracja"><circle class="cls-2" cx="283.46" cy="309" r="206.6"/><path class="cls-3" d="M214.6,51.33l1.26.71c-.43-.22-.85-.46-1.27-.7A0,0,0,0,1,214.6,51.33Z"/><path class="cls-3" d="M388.17,186s-16.83,11.84-35.48,33.19l15.63,23.45L344.53,229a224.83,224.83,0,0,0-13.89,19.79l15.54,23.32-21.84-12.48a182.84,182.84,0,0,0-11.14,24.7c-22.26,61.29-24.77,116.6-5.62,123.56s52.72-37.09,75-98.37S388.17,186,388.17,186Z"/><path class="cls-4" d="M388.17,186s16.63,62.27-5.62,123.56-55.82,105.32-75,98.37Z"/><path class="cls-3" d="M369.76,313.16c-33.43,41.1-50.27,82.75-37.62,93s50-14.7,83.41-55.81,37.62-93,37.62-93S403.18,272.05,369.76,313.16Z"/><path class="cls-4" d="M453.17,257.35s-4.2,51.95-37.62,93-70.76,66.09-83.41,55.81Z"/><path class="cls-5" d="M379.39,327.45A22.13,22.13,0,0,1,346,346.53a286.38,286.38,0,0,1,23.53-33.37c.69-.85,1.39-1.69,2.1-2.51A22.1,22.1,0,0,1,379.39,327.45Z"/><path class="cls-5" d="M397.83,297.93a11.06,11.06,0,0,1-20.25,6.17,165.57,165.57,0,0,1,16.2-14.73A11,11,0,0,1,397.83,297.93Z"/><path class="cls-6" d="M302.92,327.45c17.22-40.86,6.92-127.28-31.66-109.32-4.79,2.23-9.25,8.7-8.15,18.48,1.06,9.5,10.16,18,22.28,19"/><path class="cls-7" d="M266.72,307.24c-5.13-10.07-25.42-32.5-45.77-53.73l-15,11.22,8.81-17.61C193.31,225,173.49,205.7,173.49,205.7S189.88,319,201,340.77s34.83,31.93,53,22.67S277.83,329,266.72,307.24Z"/><path class="cls-8" d="M173.49,205.7,254,363.44c-18.15,9.26-41.87-.89-53-22.67S173.49,205.7,173.49,205.7Z"/><path class="cls-1" d="M209.68,353.27l-103.3-95.92s-22.13,155,103.3,155Z"/><path class="cls-9" d="M192.69,337.5c-24,9.86-32.95,28-36.32,40.32a6.85,6.85,0,0,1-11.8,2.76c-30.16-35.74-29.62-91.72-28-113.8l-10.15-9.43s-16,112.35,56.67,145.7l.49.23c.87.39,1.76.78,2.65,1.15l.51.2q2.43,1,5,1.86l1,.34,2.34.73,1.67.48c.73.21,1.45.41,2.2.6,1.07.28,2.16.54,3.26.79l2.11.44c.89.18,1.79.36,2.69.52l1.84.31c1,.16,2.1.32,3.17.46.45.06.9.13,1.36.18,1.51.19,3.05.34,4.6.47l1.39.1c1.23.09,2.47.17,3.73.23l1.5.06c1.69.06,3.39.1,5.14.1h0v-59Z"/><polyline class="cls-10" points="209.68 353.27 106.38 257.35 143.28 257.35 246.57 353.27"/><rect class="cls-11" x="194.92" y="390.17" width="206.6" height="29.51"/><rect class="cls-12" x="135.9" y="427.06" width="295.14" height="14.76" rx="5.67"/><rect class="cls-11" x="209.68" y="345.89" width="132.81" height="44.27"/><path class="cls-13" d="M401.52,388.94c0-7.81-6.59-14.47-15.58-15.76L216.63,349c-11.36-1.63-21.71,5.88-21.71,15.76v24.18c0,8.83,8.35,16,18.64,16h188V390.17h-.07C401.48,389.76,401.52,389.36,401.52,388.94Z"/><path class="cls-11" d="M268.71,390.17a58.77,58.77,0,0,0-11.81-35.42L216.63,349c-11.36-1.63-21.71,5.88-21.71,15.76v24.18c0,.42,0,.82.08,1.23h-.08v29.51h65.87A58.71,58.71,0,0,0,268.71,390.17Z"/><circle class="cls-14" cx="209.68" cy="390.17" r="44.27"/><path class="cls-11" d="M401.45,390.17c0-.41.07-.81.07-1.23,0-7.81-6.59-14.47-15.58-15.76l-14.08-2A36.9,36.9,0,0,0,353,419.68h48.57V390.17h-.07Z"/><circle class="cls-14" cx="386.76" cy="404.92" r="29.51"/><circle class="cls-2" cx="209.68" cy="390.17" r="22.14"/><circle class="cls-2" cx="386.76" cy="404.92" r="14.76"/><path class="cls-13" d="M236.08,301.62h72.4a34,34,0,0,1,34,34v10.25a0,0,0,0,1,0,0H224.44a0,0,0,0,1,0,0V313.26A11.64,11.64,0,0,1,236.08,301.62Z"/><path class="cls-11" d="M254.34,301.62H239.59a15.15,15.15,0,0,0-15.15,15.15v29.12h14.75V316.77A15.16,15.16,0,0,1,254.34,301.62Z"/><rect class="cls-14" x="231.82" y="279.49" width="66.41" height="22.14" rx="8.5"/><circle class="cls-14" cx="209.68" cy="390.17" r="11.07"/><circle class="cls-14" cx="386.76" cy="404.92" r="7.38"/><path class="cls-15" d="M300.07,309a35.15,35.15,0,0,1,35,35.05h0"/><rect class="cls-14" x="242.88" y="264.73" width="44.27" height="25.82" rx="7.6"/><path class="cls-6" d="M321.42,197.66a39.51,39.51,0,0,0-16,23.25,46.79,46.79,0,0,0-.61,18"/><path class="cls-13" d="M280.16,205.7a14.76,14.76,0,0,0,21.36-20.37c-5.62-5.9-36.14-16.52-36.14-16.52S274.54,199.8,280.16,205.7Z"/><path class="cls-11" d="M265.38,168.81,301,206.19a14.77,14.77,0,0,1-20.87-.49C274.54,199.8,265.38,168.81,265.38,168.81Z"/><path class="cls-3" d="M333.9,208.66a12.94,12.94,0,1,1-8.59-24.41c6.74-2.37,34.81,1.47,34.81,1.47S340.64,206.29,333.9,208.66Z"/><path class="cls-4" d="M360.12,185.72l-42.72,15a12.94,12.94,0,0,0,16.5,7.91C340.64,206.29,360.12,185.72,360.12,185.72Z"/></g></svg>