<svg xmlns="http://www.w3.org/2000/svg" viewBox="0 0 566.93 566.93"><defs><style>.cls-1{fill:#FFFCFB;}.cls-2{fill:#ffd1b8;}.cls-3{fill:#d8aa91;}.cls-4,.cls-7{fill:none;}.cls-4{stroke:#002828;stroke-linecap:round;stroke-miterlimit:10;stroke-width:3px;}.cls-5{fill:#fff;}.cls-6{fill:#ff8764;}.cls-8{fill:#eaeaea;}.cls-9{fill:#ff5027;}.cls-10{fill:#1d1d1b;}.cls-11{fill:#006464;}.cls-12{fill:#002828;}.cls-13{fill:#059999;}</style></defs><g id="Tlo"><rect class="cls-1" width="566.93" height="566.93"/></g><g id="Ilustracja"><circle class="cls-2" cx="283.46" cy="292.69" r="206.6"/><ellipse class="cls-3" cx="252.11" cy="447.63" rx="38.74" ry="7.38"/><ellipse class="cls-3" cx="372.01" cy="383.07" rx="77.47" ry="12.91"/><path class="cls-4" d="M169.25,214.58s8.25-13.74,30.23-8.25"/><path class="cls-5" d="M326.56,134.17h0a2.62,2.62,0,0,1,.85,3.45L251.23,277.1l-1.31.1c-13.65,1-36.18,20.33-36.41,20.52l-1.75,1.51-11.36-12L323,134.71A2.63,2.63,0,0,1,326.56,134.17Z"/><path class="cls-6" d="M105,339c-12,18.85-8.69,42.55,7.43,52.83s39,3.31,51.05-15.53c.55-.87,1-1.73,1.49-2.52l.24-.45c.43-.79.91-1.71,1.34-2.64,0,0,3.24-7,6.82-14.88,3.27-7.15,7.49-16.45,9-20.13,3.69-8,18-24.35,30.16-37l1.64-1.71L200,282.73a2.42,2.42,0,0,0-3.56.14h0c-16.57,19.54-32.6,24.56-48.09,29.42-9.44,2.95-19.19,6-28.71,12.26l-.07.05-1.78,1.16-.93.66-.14.1c-.46.33-.92.69-1.37,1l-.1.08c-.38.31-.78.63-1.16,1l-.31.17-.16.24c-1.1,1-2.19,2-3.25,3.15a2.09,2.09,0,0,0-.19.21c-.25.26-.5.54-.73.81s-.31.34-.46.52l-1.79,2.23c-.22.29-.45.61-.68.93l-.39.55C105.73,337.93,105.37,338.47,105,339Zm43.7-4c9.78,6.24,11.25,21.49,3.28,34s-22.43,17.61-32.21,11.37-11.25-21.49-3.27-34S139,328.74,148.73,335Z"/><path class="cls-7" d="M185,76A7.48,7.48,0,0,0,170.33,73"/><path class="cls-8" d="M249.72,277.12,251,277l15.57-28.51,5.59-50.89-48.32,60.09-3,10.19,2.57,3c2.67,3.11,4.74,8.67,6.29,14.67C236.39,281.36,243.87,277.56,249.72,277.12Z"/><path class="cls-5" d="M274.44,112.54h0a2.63,2.63,0,0,0-3.05,1.84L226.46,266.83l.86,1c8.91,10.39,11.17,40,11.19,40.27l.17,2.3,16.51-.43,21.35-194.55A2.64,2.64,0,0,0,274.44,112.54Z"/><path class="cls-6" d="M286.29,412.16l.11-.67c.07-.39.13-.78.18-1.14l.31-2.83c0-.24,0-.46,0-.7s.06-.73.07-1.09c0-.1,0-.2,0-.28a45.22,45.22,0,0,0-.07-4.53l.06-.28-.1-.34c0-.51-.09-1-.14-1.5l0-.13c-.06-.56-.14-1.14-.22-1.7l0-.17c-.06-.37-.12-.75-.19-1.12l-.44-2.08s0-.06,0-.09c-2.29-11.15-7-20.22-11.59-29-7.51-14.4-15.28-29.29-13.15-54.82h0a2.42,2.42,0,0,0-2.41-2.63H238.53l-.05,2.38c-.35,17.52-1.83,39.22-4.88,47.46-1.53,3.69-5.13,13.24-7.89,20.6-3,8.1-5.71,15.34-5.71,15.34-.35,1-.66,1.95-.92,2.81l-.15.49c-.24.88-.5,1.83-.73,2.84-4.85,21.82,6.39,42.95,25.06,47.1s37.8-10.23,42.65-32.05C286.05,413.42,286.18,412.79,286.29,412.16Zm-13.69-1.07c-3.22,14.48-15.05,24.21-26.38,21.7S228.3,416.44,231.52,402s15-24.21,26.37-21.69S275.82,396.61,272.6,411.09Z"/><path class="cls-9" d="M257.89,380.26l.14,0a16.71,16.71,0,0,0-5.21-2.14c-11.33-2.52-23.16,7.21-26.38,21.69S229.77,428,241,430.64c-8-5-12.18-16.6-9.49-28.68C234.74,387.48,246.57,377.75,257.89,380.26Z"/><path class="cls-9" d="M285.91,414.05c.14-.63.27-1.26.38-1.89l.11-.67c.07-.39.13-.78.18-1.14l.31-2.83c0-.24,0-.46,0-.7s.06-.73.07-1.09c0-.1,0-.2,0-.28a45.22,45.22,0,0,0-.07-4.53l.06-.28-.1-.34c0-.51-.09-1-.14-1.5l0-.13c-.06-.56-.14-1.14-.22-1.7l0-.17c-.06-.37-.12-.75-.19-1.12l-.44-2.08s0-.06,0-.09c-2.29-11.15-7-20.22-11.59-29-7.51-14.4-15.28-29.29-13.15-54.82a2.42,2.42,0,0,0-2.41-2.63H256a3,3,0,0,1,0,.52c-2.13,25.54,5.63,40.43,13.15,54.82,4.57,8.77,9.29,17.83,11.58,29a.24.24,0,0,1,0,.08l.44,2.08c.07.38.13.75.19,1.12l0,.18c.09.55.16,1.13.23,1.7v.13q.09.74.15,1.5l.09.33-.05.29a45.11,45.11,0,0,1,.06,4.52c0,.08,0,.18,0,.28,0,.37,0,.74-.06,1.1s0,.46,0,.69l-.32,2.84c-.05.36-.11.75-.17,1.14l-.12.66c-.11.64-.23,1.26-.37,1.89-4.85,21.82-24,36.2-42.65,32.06-.82-.19-1.61-.41-2.39-.65a30.15,30.15,0,0,0,7.46,2.75C261.93,450.25,281.06,435.87,285.91,414.05Z"/><path class="cls-9" d="M119.37,380.16c-9.78-6.24-11.25-21.49-3.27-34,6.66-10.43,17.81-15.7,27-13.54-9.78-6.12-24.14-1-32.08,11.44s-6.51,27.76,3.27,34a16.82,16.82,0,0,0,5.2,2.18Z"/><path class="cls-9" d="M199.55,282.55a2.42,2.42,0,0,0-3.19-.21l12.35,12.37-1.65,1.72c-12.15,12.62-26.47,29-30.15,37-1.53,3.68-5.74,13-9,20.13-3.58,7.87-6.82,14.88-6.82,14.88-.44.93-.91,1.84-1.34,2.64l-.24.44c-.45.8-.94,1.66-1.49,2.52-10.32,16.18-28.65,23.59-43.83,18.87,15.95,8.42,37.4,1.27,48.9-16.76.55-.87,1-1.72,1.49-2.52l.25-.44c.42-.8.9-1.71,1.33-2.65,0,0,3.24-7,6.83-14.88,3.26-7.14,7.48-16.44,9-20.13,3.68-8,18-24.35,30.15-37l1.65-1.71Z"/><circle class="cls-10" cx="245.73" cy="255.8" r="8.24"/><path class="cls-11" d="M173.34,209.32a22,22,0,0,0-31.08.88C133.92,219,128,257.25,128,257.25s18.52-3.93,32.5-9.31l-2.27-18.17L167,245.14a25.88,25.88,0,0,0,7.17-4.74A22,22,0,0,0,173.34,209.32Z"/><path class="cls-12" d="M128,257.25l45.31-47.93a22,22,0,0,0-31.08.88C133.92,219,128,257.25,128,257.25Z"/><path class="cls-4" d="M246.19,178.89s8.86,17.29,28.75,7.54"/><path class="cls-11" d="M248.86,151.89A22,22,0,0,1,217.77,183c-8.59-8.58-15.54-46.63-15.54-46.63S240.27,143.3,248.86,151.89Z"/><path class="cls-12" d="M202.23,136.34,248.86,183a22,22,0,0,0,0-31.08C240.27,143.3,202.23,136.34,202.23,136.34Z"/><path class="cls-11" d="M460.54,322.2A59,59,0,0,1,372,373.31a58.7,58.7,0,0,1-29.51,7.92c-1.94,0-3.87-.09-5.77-.27A59,59,0,0,1,313,271.1V255.8a59,59,0,1,1,118.06,0v15.3A59,59,0,0,1,460.54,322.2Z"/><path class="cls-12" d="M431,255.8v15.3a59,59,0,1,1-59,102.21V196.77A59,59,0,0,1,431,255.8Z"/><rect class="cls-12" x="346.18" y="274.24" width="51.65" height="25.82" rx="9.92"/><rect class="cls-11" x="346.18" y="196.77" width="51.65" height="77.47" rx="19.84"/><path class="cls-13" d="M372,350.74h0l-9.8,5.7a39,39,0,0,1-19.7,5.28c-1.32,0-2.63-.06-3.88-.18A39.5,39.5,0,0,1,322.76,288h0a19.52,19.52,0,0,0,9.74-16.9h0V254.17c0-24.35,15.43-33.48,27-36.9A17.26,17.26,0,0,0,372,200.78v-4h0a59,59,0,0,0-59,59v15.3A59,59,0,0,0,336.72,381c1.9.18,3.83.27,5.77.27A58.7,58.7,0,0,0,372,373.31h0Z"/><circle class="cls-11" cx="372.01" cy="340.65" r="40.58"/><path class="cls-13" d="M372,300.06l-.39,0c-.81,0-1.62,0-2.43.09l-.94.08c-.86.07-1.72.18-2.57.31l-.88.16c-.67.12-1.33.25-2,.4l-.86.2c-.81.21-1.62.45-2.41.7l-.42.12v0a40.69,40.69,0,0,0-25.62,25.61h0a.43.43,0,0,0,0,.05q-.5,1.47-.87,3l-.06.22c-.22.91-.41,1.83-.57,2.77,0,.13,0,.26-.07.39-.15.95-.26,1.92-.35,2.9,0,.18,0,.37,0,.55-.08,1-.13,2-.13,3h0a40.22,40.22,0,0,0,2.08,12.87,13.06,13.06,0,0,0,11-12.87c0-.09,0-.19,0-.29a27.58,27.58,0,0,1,27.21-27.26H372a13,13,0,0,0,12.87-11A40.59,40.59,0,0,0,372,300.06Z"/><path class="cls-12" d="M358.65,379a58.57,58.57,0,0,1-16.16,2.25c-1.94,0-3.87-.09-5.77-.27a53.57,53.57,0,0,1-17.86-33.31,6.21,6.21,0,0,1,6.16-7h.61a6.25,6.25,0,0,1,6.16,5.51A40.63,40.63,0,0,0,358.65,379Z"/></g></svg>