<svg xmlns="http://www.w3.org/2000/svg" viewBox="0 0 566.93 566.93"><defs><style>.cls-1{isolation:isolate;}.cls-2{fill:#FFFCFB;}.cls-3{fill:#ffd1b8;}.cls-4{fill:#e2bbaa;}.cls-5{fill:#ff8764;}.cls-6{fill:none;stroke:#472300;stroke-linecap:round;stroke-linejoin:round;stroke-width:2px;}.cls-7{fill:#f5a03c;}.cls-8{fill:#a8b28e;}.cls-9{fill:#757b68;}.cls-10,.cls-15{fill:#1c2600;}.cls-11{fill:#006464;}.cls-12{fill:#0f373c;}.cls-13{fill:#2e5257;}.cls-14{fill:#f4a03e;}.cls-15{mix-blend-mode:soft-light;}</style></defs><g class="cls-1"><g id="Tlo"><rect class="cls-2" width="566.93" height="566.93"/></g><g id="Ilustracja"><circle class="cls-3" cx="297.48" cy="277.8" r="175.75"/><circle class="cls-4" cx="196.68" cy="147.49" r="14.68"/><path class="cls-2" d="M235,172.78a40.28,40.28,0,0,0-38-26.87,26.85,26.85,0,0,0-53.7,0v.15q-1.66-.15-3.36-.15a40.28,40.28,0,1,0,28.53,68.7,40.24,40.24,0,0,0,49,6.23A26.85,26.85,0,1,0,235,172.78Z"/><path class="cls-4" d="M135,161.42a41.06,41.06,0,0,0-6.35,6.36A28,28,0,0,1,135,161.42Z"/><path class="cls-4" d="M170.1,135A26.73,26.73,0,0,1,188,125.87a26.85,26.85,0,0,0-36.47.68h0l-.1.1c-.28.27-.57.55-.83.85s-.58.62-.85.95l-.06.06c-.27.32-.54.66-.8,1a25,25,0,0,0-2.08,3.1,26,26,0,0,0-1.32,2.64c-.18.41-.35.81-.49,1.21-.32.84-.59,1.71-.83,2.58-.08.3-.15.59-.21.9a17,17,0,0,0-.34,1.78,6.62,6.62,0,0,0-.11.74c0,.23-.06.47-.08.7a25.2,25.2,0,0,0-.14,2.75c0,.06,0,.09,0,.14h0c-1.12-.09-2.24-.15-3.37-.15a40.28,40.28,0,0,0-2.22,80.49,40.27,40.27,0,0,1-9.13-58.61,28,28,0,0,1,6.35-6.36,28.52,28.52,0,0,1,43.91,14.35,39.84,39.84,0,0,1,1.35,9.45c0,.32,0,.64,0,1a40.38,40.38,0,0,1-.72,7.6A43.64,43.64,0,0,0,170.1,135Z"/><circle class="cls-4" cx="192.8" cy="193.19" r="22.97"/><circle class="cls-2" cx="200.12" cy="197.16" r="22.83"/><circle class="cls-4" cx="186.13" cy="153.95" r="15.03"/><circle class="cls-2" cx="190.92" cy="156.54" r="14.93"/><circle class="cls-4" cx="135.73" cy="204.23" r="18.85"/><circle class="cls-2" cx="141.74" cy="207.48" r="18.73"/><circle class="cls-4" cx="225.58" cy="209.92" r="13.76"/><circle class="cls-2" cx="229.96" cy="212.29" r="13.67"/><circle class="cls-4" cx="236.78" cy="199.45" r="10.05"/><circle class="cls-2" cx="241.1" cy="202.31" r="9.98"/><circle class="cls-4" cx="210.86" cy="175.66" r="14.23"/><circle class="cls-2" cx="216.98" cy="179.71" r="14.14"/><circle class="cls-4" cx="308.41" cy="89.98" r="8.57"/><path class="cls-2" d="M330.78,104.74a23.5,23.5,0,0,0-22.17-15.68,15.67,15.67,0,1,0-31.34,0s0,0,0,.08c-.65,0-1.3-.08-2-.08A23.5,23.5,0,1,0,292,129.15a23.53,23.53,0,0,0,28.62,3.64,15.67,15.67,0,1,0,10.2-28Z"/><path class="cls-4" d="M272.39,98.11a24,24,0,0,0-3.7,3.71A16.28,16.28,0,0,1,272.39,98.11Z"/><path class="cls-4" d="M292.9,82.67a15.62,15.62,0,0,1,10.47-5.31,15.67,15.67,0,0,0-21.28.4h0l-.05.06c-.17.16-.33.32-.49.5a6.41,6.41,0,0,0-.49.55l0,0-.47.58a15.42,15.42,0,0,0-1.21,1.81,14.74,14.74,0,0,0-.77,1.54c-.11.24-.2.47-.29.71-.18.49-.34,1-.48,1.51a4.37,4.37,0,0,0-.12.52,7.08,7.08,0,0,0-.2,1c0,.14-.05.29-.07.43s0,.27,0,.41a14.17,14.17,0,0,0-.09,1.6s0,.06,0,.09h0c-.65,0-1.31-.09-2-.09a23.5,23.5,0,0,0-1.3,47,23.49,23.49,0,0,1-5.33-34.2,16.28,16.28,0,0,1,3.7-3.71A16.64,16.64,0,0,1,298,106.49a23.26,23.26,0,0,1,.79,5.51c0,.19,0,.37,0,.56a24,24,0,0,1-.42,4.44,25.47,25.47,0,0,0-5.5-34.33Z"/><circle class="cls-4" cx="306.15" cy="116.65" r="13.41"/><circle class="cls-2" cx="310.42" cy="118.97" r="13.32"/><circle class="cls-4" cx="302.26" cy="93.75" r="8.77"/><circle class="cls-2" cx="305.05" cy="95.26" r="8.71"/><circle class="cls-4" cx="272.85" cy="123.09" r="11"/><circle class="cls-2" cx="276.35" cy="124.99" r="10.93"/><circle class="cls-4" cx="325.28" cy="126.41" r="8.03"/><circle class="cls-2" cx="327.84" cy="127.8" r="7.98"/><circle class="cls-4" cx="331.82" cy="120.3" r="5.86"/><circle class="cls-2" cx="334.34" cy="121.97" r="5.83"/><circle class="cls-4" cx="316.69" cy="106.42" r="8.31"/><circle class="cls-2" cx="320.26" cy="108.78" r="8.25"/><circle class="cls-5" cx="348.5" cy="257.95" r="22.68"/><path class="cls-6" d="M391.38,354.33c1.43-16.87,11.83-30.45,25.51-34,10.34-2.68,19.35,1.19,22.68,2.84"/><path class="cls-7" d="M320.51,340.16h0a22.75,22.75,0,0,1,22.68-22.68h45.36a22.74,22.74,0,0,1,22.67,22.68h0"/><path class="cls-8" d="M274.8,476.22h0a68.23,68.23,0,0,1-68-68V226.77a68.23,68.23,0,0,1,68-68h22.68V476.22Z"/><path class="cls-9" d="M297.48,453.54h0a68.23,68.23,0,0,1-68-68V249.45a68.23,68.23,0,0,1,68-68h0"/><path class="cls-10" d="M206.77,351.5a34,34,0,0,1,34,34h11.34V340.16H206.77Z"/><path class="cls-10" d="M297.48,442.2h0a56.86,56.86,0,0,1-56.7-56.69V249.45a56.86,56.86,0,0,1,56.7-56.69h0"/><path class="cls-9" d="M365.51,294.8H342.83a45.35,45.35,0,0,1-45.35-45.35V204.09a45.49,45.49,0,0,0-45.36,45.36v5.67a39.68,39.68,0,0,1-39.68,39.68h-5.67l-90.71-45.35s-22.68,25.51-22.68,68,22.68,68,22.68,68l90.71-45.35h5.67a39.69,39.69,0,0,1,39.68,39.68v5.67a45.49,45.49,0,0,0,45.36,45.36V385.51a45.35,45.35,0,0,1,45.35-45.35h22.68a22,22,0,0,0,2.83-.19v.19h19.85V317.48h0A22.75,22.75,0,0,0,365.51,294.8Z"/><path class="cls-8" d="M138.38,317.48a114.18,114.18,0,0,1,11.83-51l-34.15-17.07s-22.68,25.51-22.68,68,22.68,68,22.68,68l34.15-17.07A114.18,114.18,0,0,1,138.38,317.48Z"/><path class="cls-8" d="M147.62,362.83c.85,2,1.72,3.86,2.59,5.6l-11.48,5.74-22.67,11.34a75.17,75.17,0,0,1-7.78-11.34,110.54,110.54,0,0,1-5.67-11.34,113.75,113.75,0,0,1-7-22.68c-.71-3.59-1.28-7.37-1.67-11.34-.35-3.62-.54-7.4-.54-11.33s.19-7.71.55-11.34c.38-4,.95-7.75,1.66-11.34a113.64,113.64,0,0,1,2.87-11.34,109.76,109.76,0,0,1,9.82-22.68,75.17,75.17,0,0,1,7.78-11.34l22.67,11.34,11.48,5.74c-.87,1.74-1.74,3.61-2.59,5.6a112.43,112.43,0,0,0-4.16,11.34,111,111,0,0,0-2.86,11.34,112.24,112.24,0,0,0-1.67,11.34c-.36,3.63-.55,7.41-.55,11.34s.19,7.7.55,11.33c.38,4,.95,7.75,1.66,11.34a111.63,111.63,0,0,0,2.87,11.34A110,110,0,0,0,147.62,362.83Z"/><path class="cls-8" d="M297.84,385.51V340.16h45.35A45.35,45.35,0,0,0,297.84,385.51Z"/><polygon class="cls-10" points="343.19 340.16 297.84 340.16 297.84 297.64 343.19 340.16"/><path class="cls-11" d="M405.55,374.17c0,12.53-14.17,22.68-14.17,22.68s-14.17-10.15-14.17-22.68,14.17-22.67,14.17-22.67S405.55,361.65,405.55,374.17Z"/><path class="cls-12" d="M377.21,374.17c0,12.53,14.17,22.68,14.17,22.68V351.5S377.21,361.65,377.21,374.17Z"/><path class="cls-13" d="M389.6,426.61c11.27,11.28,7.66,33.17,7.66,33.17s-21.9,3.62-33.17-7.65S356.44,419,356.44,419,378.33,415.34,389.6,426.61Z"/><path class="cls-12" d="M364.09,452.13c11.27,11.27,33.17,7.65,33.17,7.65L356.44,419S352.82,440.85,364.09,452.13Z"/><path class="cls-8" d="M138.73,260.78H108.28a75.17,75.17,0,0,1,7.78-11.34Z"/><path class="cls-10" d="M107.55,317.48a112.18,112.18,0,0,0,18.8,62.89l-10.29,5.14s-22.68-25.51-22.68-68,22.68-68,22.68-68l10.29,5.14A112.25,112.25,0,0,0,107.55,317.48Z"/><path class="cls-14" d="M447.45,201h0a11.9,11.9,0,0,1,11.86-11.86H483A11.9,11.9,0,0,1,494.89,201h0"/><path class="cls-8" d="M423.54,272.13h0A35.69,35.69,0,0,1,388,236.55V141.66a35.68,35.68,0,0,1,35.58-35.58H435.4V272.13Z"/><path class="cls-9" d="M435.4,260.27h0a35.69,35.69,0,0,1-35.58-35.58V153.52a35.68,35.68,0,0,1,35.58-35.58h0"/><path class="cls-10" d="M388,206.89a17.8,17.8,0,0,1,17.79,17.8h5.93V201H388Z"/><path class="cls-10" d="M435.4,254.34h0a29.74,29.74,0,0,1-29.65-29.65V153.52a29.74,29.74,0,0,1,29.65-29.65h0"/><path class="cls-9" d="M471,177.24H459.12a23.72,23.72,0,0,1-23.72-23.72V129.8a23.79,23.79,0,0,0-23.72,23.72v3a20.75,20.75,0,0,1-20.76,20.75h-3l-47.44-23.72s-11.86,13.35-11.86,35.58,11.86,35.59,11.86,35.59L388,201h3a20.76,20.76,0,0,1,20.76,20.76v3a23.79,23.79,0,0,0,23.72,23.72V224.69A23.72,23.72,0,0,1,459.12,201H471a12,12,0,0,0,1.48-.09V201h10.38V189.11h0A11.9,11.9,0,0,0,471,177.24Z"/><path class="cls-8" d="M352.19,189.1a59.71,59.71,0,0,1,6.19-26.65l-17.86-8.93s-11.86,13.35-11.86,35.58,11.86,35.59,11.86,35.59l17.86-8.94A59.63,59.63,0,0,1,352.19,189.1Z"/><path class="cls-8" d="M357,212.82c.44,1.05.89,2,1.35,2.93l-6,3-11.86,5.93a39.27,39.27,0,0,1-4.07-5.93,56.57,56.57,0,0,1-3-5.94,57.59,57.59,0,0,1-2.18-5.93,58.93,58.93,0,0,1-1.5-5.93c-.37-1.87-.67-3.85-.87-5.93-.18-1.89-.28-3.87-.28-5.92a59.33,59.33,0,0,1,.29-5.93,58.08,58.08,0,0,1,.86-5.94,60.33,60.33,0,0,1,1.5-5.93,58.47,58.47,0,0,1,2.18-5.93,57.33,57.33,0,0,1,3-5.93,39.27,39.27,0,0,1,4.07-5.93l11.86,5.93,6,3c-.46.91-.91,1.89-1.35,2.93a57.59,57.59,0,0,0-2.18,5.93,60.33,60.33,0,0,0-1.5,5.93c-.37,1.88-.67,3.86-.87,5.94a59.33,59.33,0,0,0-.29,5.93q0,3.07.29,5.92c.2,2.07.5,4.06.87,5.93A59.51,59.51,0,0,0,357,212.82Z"/><path class="cls-8" d="M435.59,224.69V201h23.72A23.72,23.72,0,0,0,435.59,224.69Z"/><circle class="cls-2" cx="471.17" cy="189.1" r="4.45"/><polygon class="cls-10" points="459.31 200.97 435.59 200.97 435.59 178.73 459.31 200.97"/><path class="cls-8" d="M352.38,159.45H336.45a39.27,39.27,0,0,1,4.07-5.93Z"/><path class="cls-10" d="M336.07,189.11A58.65,58.65,0,0,0,345.9,222l-5.38,2.69s-11.86-13.35-11.86-35.58,11.86-35.59,11.86-35.59l5.38,2.69A58.72,58.72,0,0,0,336.07,189.11Z"/><path class="cls-15" d="M297.83,255.23v62.25H93.38c0-.66,0-1.32,0-2,0-.32,0-.63,0-.94,0-.14,0-.28,0-.42a1.62,1.62,0,0,0,0-.22c0-.12,0-.23,0-.35l0-.61c0-.88.07-1.76.13-2.62,0-.33,0-.67.06-1,.06-.85.13-1.69.2-2.52.06-.67.13-1.35.2-2l0-.26c0-.28.07-.57.1-.86s.06-.57.1-.85c.06-.48.13-1,.19-1.42a.09.09,0,0,1,0-.05c.08-.62.17-1.25.27-1.86,0,0,0,0,0-.07,0-.3.09-.59.14-.88,0,0,0-.07,0-.11s0-.09,0-.13l.09-.51v0c0-.17.06-.36.1-.53s0-.11,0-.16l.06-.34c0-.12,0-.24.07-.36s.08-.45.13-.68l.09-.49,0-.14v0c0-.09,0-.18,0-.27l.09-.43c0-.1,0-.21.07-.31l.06-.31c.1-.5.21-1,.32-1.49,0-.09,0-.19.07-.29l.12-.54.21-.94,0-.11.24-.93.24-1c0-.1,0-.19.07-.29s.07-.27.1-.4l.45-1.64,0-.1c.12-.44.25-.87.38-1.3.06-.22.12-.43.19-.64s.13-.44.2-.66l.39-1.23.09-.3c.1-.33.21-.66.32-1,0,0,0-.09,0-.13s.07-.18.1-.28a2.25,2.25,0,0,1,.08-.24l.09-.28c.07-.2.14-.38.2-.57l.3-.84c.15-.43.3-.85.46-1.27l0-.06.21-.55.29-.78.21-.52c.22-.56.44-1.12.67-1.68l.66-1.59v0c.17-.39.34-.78.52-1.17l.33-.73c0-.11.1-.22.14-.33s.16-.32.23-.49l.78-1.65h0l.15-.29c.12-.26.25-.52.38-.78a1.63,1.63,0,0,0,.11-.23l.09-.16.29-.59a2.1,2.1,0,0,0,.15-.3L106,265c.1-.2.2-.4.31-.6l0-.07.08-.13.27-.51.09-.18c0-.07.07-.14.11-.2.17-.31.33-.62.5-.92l.51-.92c0-.08.09-.17.15-.25s.17-.32.26-.48.07-.11.1-.16l0-.05a1.74,1.74,0,0,1,.11-.18c.07-.13.15-.26.23-.39l.13-.24.07-.11.42-.7v0c.1-.17.21-.33.3-.49a1.91,1.91,0,0,0,.16-.27l.61-1,.34-.53,0-.05.13-.2.28-.43.07-.11.33-.49.11-.16c.09-.13.17-.25.24-.37l.13-.18h0l.13-.18.25-.36,0,0h0l.3-.43.08-.12.21-.29,0-.06h0l.26-.36a.59.59,0,0,0,.08-.11l.17-.23,0,0,.23-.31a.18.18,0,0,0,0-.07l.09-.12.21-.29h0l.29-.38c.08-.09.15-.19.21-.27l0,0,0,0h0l.08-.11,0,0,.11-.13v0l0,0,.15-.19.09-.11.15-.18.06-.08,0,0,.09-.12,0,0,0-.06,0,0,0,0,0,0a.6.6,0,0,1,.08-.08h0l0-.06a0,0,0,0,0,0,0v0l0,0h0l0,0h0l10.29,5.14h0l11.18,5.59,1.19.6h0l11.48,5.74,56.55,28.28h5.68a39.53,39.53,0,0,0,17-3.82V249.45a68.23,68.23,0,0,1,68-68v68.34c0,.34,0,.68,0,1s0,.67,0,1,0,.77.07,1.16.05.77.1,1.15S297.78,254.85,297.83,255.23Z"/><rect class="cls-10" x="342.83" y="308.98" width="31.18" height="17.01" rx="8.5"/><polyline class="cls-2" points="76.37 334.49 118.89 348.66 82.04 351.5"/><circle class="cls-2" cx="365.51" cy="317.48" r="8.5"/><path class="cls-6" d="M352.4,385.51c-1.38,7.4-2.26,19.08,2.84,31.18a48.32,48.32,0,0,0,2.83,5.67"/><path class="cls-6" d="M351.33,394s-17,17-11.33,36.85"/><polyline class="cls-2" points="79.21 272.13 118.89 291.97 82.04 291.97 79.21 274.96"/></g></g></svg>