<svg id="Ilustracja" xmlns="http://www.w3.org/2000/svg" viewBox="0 0 566.93 566.93"><defs><style>.cls-1{fill:#ffd1b8}.cls-2{fill:#006464}.cls-3{fill:#0f373c}.cls-4{fill:#6e7832}.cls-8{fill:#ff8764}.cls-9{fill:#919191}.cls-10{fill:#af500e}.cls-11,.cls-18{fill:none}.cls-11{stroke:#1d1d1b;stroke-width:18.42px}.cls-11,.cls-18{stroke-linecap:round;stroke-linejoin:round}.cls-12{fill:#d25a3c}.cls-13{fill:#324100}.cls-14{fill:#f5a03c}.cls-15{fill:#f27900}.cls-18{stroke:#324100;stroke-width:4.25px}.cls-20{fill:#1d1d1b}.cls-21{fill:#faebdc}</style></defs><circle class="cls-1" cx="305.82" cy="236.51" r="224.95"/><path class="cls-2" d="M362.74 259.44c-13.6 29.81-38.94 47.44-56.6 39.39s-20.95-38.75-7.35-68.56c10.89-23.87 60.34-78 79.63-98.66a3.84 3.84 0 016.62 3c-2.95 28.13-11.41 100.96-22.3 124.83z"/><path class="cls-3" d="M363 255.65c5-10.9 9.44-32 13.1-54.41-26.56 14.63-55 32.19-65 44.94a68.85 68.85 0 00-14.79 39.68 23.23 23.23 0 0010.06 9.19c17.72 8.05 43.06-9.59 56.63-39.4z"/><path class="cls-4" d="M392.52 313.56c-19.1 24.52-51.61 31.14-72.62 14.78s-22.54-49.5-3.44-74S432.3 184 432.3 184s-20.68 105-39.78 129.56z"/><ellipse cx="309.84" cy="525.73" rx="257.09" ry="12.05" fill="#d8aa91"/><path transform="rotate(160.24 462.155 336.35)" fill="#d37e44" d="M452.36 259.11h19.61v154.46h-19.61z"/><path d="M468.93 478.49l-9.61-26.76a12.51 12.51 0 014.28-14.35 31.86 31.86 0 0011.29-36.58l18.46-6.63a31.9 31.9 0 0032 21 12.48 12.48 0 0112.42 8.34l9.61 26.76s19.9 55.38-19.33 69.47-59.12-41.25-59.12-41.25z" fill="#b7b7b7"/><path class="cls-8" d="M427.17 267.91l5.46 15.21 18.46-6.63-5.46-15.21a34.48 34.48 0 0012-39.23l-4.15-11.54a17.16 17.16 0 00-21.95-10.35l-32.31 11.61a17.16 17.16 0 00-10.35 21.95l4.13 11.53a34.44 34.44 0 0034.17 22.66zm-22.19-40l32.31-11.61 4.15 11.54a16.86 16.86 0 011 4.84 17.17 17.17 0 01-31 11.12 16.85 16.85 0 01-2.32-4.36z"/><path class="cls-9" d="M493.35 394.17l14.09 39.23a9.84 9.84 0 01-5.91 12.54A9.84 9.84 0 01489 440l-14.11-39.2z"/><path class="cls-9" d="M528.05 519.78c39.22-14.09 19.33-69.47 19.33-69.47l-9.61-26.75a12.49 12.49 0 00-12.43-8.35 31.9 31.9 0 01-32-21l-9.23 3.31z"/><path class="cls-10" transform="rotate(160.24 482.456 392.882)" d="M472.66 387.97h19.61v9.81h-19.61z"/><path class="cls-10" transform="rotate(160.24 443.507 284.435)" d="M433.7 279.52h19.61v9.81H433.7z"/><path class="cls-11" d="M293.09 453.42a42.89 42.89 0 01-40.92-30l-29.27-92.65a42.9 42.9 0 00-40.92-30h-32.82"/><path class="cls-12" d="M141.13 288.73h36.15v24.1h-36.15a12.05 12.05 0 01-12.05-12.05 12.05 12.05 0 0112.05-12.05z"/><path class="cls-4" d="M193.35 357a112.48 112.48 0 11225 0z"/><path class="cls-13" d="M418.3 357a112.47 112.47 0 00-152.65-105 112.7 112.7 0 0144.67 31.24 13.62 13.62 0 01-6.55 22l-108.47 31a113.09 113.09 0 00-2 20.8h225z"/><path class="cls-14" d="M358 300.78l-57.62 144.15-6.6 16.52H185.64a51.07 51.07 0 01-23.6-9.58L133.09 365l8.38-2.39z"/><path class="cls-10" d="M436.44 293h-.38l14.09 39.24 4.78-11.93A19.93 19.93 0 00436.44 293z"/><path class="cls-15" d="M436.55 300.77a12.12 12.12 0 0111.25 16.62l-25.49 63.73-32.13 80.34h-96.4L358 300.77z"/><path d="M423.92 377.12h-42.78c-34.94 0-63.27 37.77-63.27 84.36h72.31z" fill="#b75300"/><path class="cls-15" d="M192.66 434.3A23.68 23.68 0 01170 417.68l-18.3-57.94-10.22 2.92-8.38 2.39 28.9 86.83a51.07 51.07 0 0023.6 9.58h128.26V434.3z"/><path class="cls-11" d="M358 453.42H192.66a42.91 42.91 0 01-40.92-30l-29.26-92.67a42.92 42.92 0 00-40.92-30H48.74"/><path class="cls-11" d="M141.13 389.15L181.3 517.7l76.32-64.27"/><path class="cls-12" d="M44.72 288.73h36.15v24.1H44.72a12.05 12.05 0 01-12.05-12.05 12.05 12.05 0 0112.05-12.05z"/><path d="M225.48 365.05a40.18 40.18 0 0140.17-40.17" stroke-miterlimit="10" stroke="#324100" stroke-width="4.25" fill="none"/><path class="cls-18" d="M311.85 172.23a14.1 14.1 0 01-14.06-14.06v-12"/><path class="cls-4" d="M313.86 140.1a16.07 16.07 0 01-32.14 0c0-8.88 16.07-36.15 16.07-36.15s16.07 27.27 16.07 36.15z"/><path class="cls-13" d="M297.79 104s16.07 27.27 16.07 36.15a16.08 16.08 0 01-16.07 16.07z"/><path class="cls-18" d="M196.92 137.55a14.09 14.09 0 0118.2-8l11.23 4.37"/><path class="cls-4" d="M226.13 151.08a16.07 16.07 0 0111.66-30c8.27 3.22 27.86 28.09 27.86 28.09s-31.25 5.13-39.52 1.91z"/><path class="cls-13" d="M265.65 149.22s-31.25 5.08-39.52 1.86a16.07 16.07 0 01-9.14-20.8z"/><path class="cls-18" d="M175.83 26a14.1 14.1 0 0119.5 3.86l6.7 10"/><path class="cls-8" d="M192 53.79a16.07 16.07 0 1126.71-17.86c4.93 7.37 6.74 39 6.74 39S197 61.17 192 53.79z"/><path class="cls-12" d="M225.48 74.91S197 61.17 192 53.79a16.06 16.06 0 014.42-22.29z"/><path class="cls-4" d="M209.42 373.08a16.07 16.07 0 0132.13 0c0 8.88-16.07 36.16-16.07 36.16s-16.06-27.24-16.06-36.16z"/><path class="cls-13" d="M225.48 409.24s-16.06-27.24-16.06-36.16A16.06 16.06 0 01225.48 357z"/><path class="cls-4" d="M248.27 365.93A16.07 16.07 0 11275 348.11c4.92 7.38 6.68 39 6.68 39s-28.49-13.8-33.41-21.18z"/><path class="cls-13" d="M281.69 387.1s-28.5-13.79-33.42-21.17a16.06 16.06 0 014.46-22.28z"/><path d="M468.61 432.59a31.43 31.43 0 01-5.24 4.79 12.5 12.5 0 00-4.28 14.35l9.61 26.76s.67 1.86 2 4.81a90.17 90.17 0 002.66-21.84 88.81 88.81 0 00-4.75-28.87z" fill="#727272"/><path class="cls-20" d="M418.3 397.19h-32.14v128.54h32.14c26.62 0 48.2-28.77 48.2-64.27s-21.58-64.27-48.2-64.27z"/><ellipse class="cls-20" cx="386.16" cy="461.46" rx="48.2" ry="64.27"/><ellipse class="cls-8" cx="386.16" cy="461.46" rx="27.11" ry="36.15"/><path class="cls-12" d="M385.16 497.61a20.89 20.89 0 007.53-1.42c-11.31-4.36-19.58-18.25-19.58-34.73s8.27-30.38 19.58-34.73a20.89 20.89 0 00-7.53-1.42c-15 0-27.12 16.18-27.12 36.15s12.14 36.15 27.12 36.15z"/><path class="cls-1" d="M325.91 136.08l24.1 56.24-28.12-20.09 20.09 40.17-36.16-24.1 20.09-52.22z"/><path class="cls-4" d="M143 426.35c27.87 45.37 38.21 89.68 23.09 99s-50-20-77.86-65.32-23.08-99-23.08-99S115.09 381 143 426.35z"/><path class="cls-13" d="M65.12 361l100.93 164.32c15.13-9.29 4.79-53.6-23.08-99S65.12 361 65.12 361z"/><path class="cls-18" d="M.53 421.91c17.61-10 31.49-9.13 38.3-8 32.27 5.51 59.81 43.81 66.14 95.72"/><path class="cls-18" d="M.53 373.08c64.27 0 87.13 56.74 92.39 92.4 1.88 12.68 11.8 21.85 16.07 32.13"/><path class="cls-14" d="M107.19 470c25 21.92 39.31 46.44 32 54.77s-33.48-2.7-58.46-24.62-32-54.77-32-54.77 33.49 2.71 58.46 24.62z"/><path class="cls-15" d="M48.74 445.39l90.45 79.39c7.31-8.33-7-32.85-32-54.77s-58.45-24.62-58.45-24.62z"/><path class="cls-21" d="M108.99 361.03l-20.08 36.16 24.1-20.09 8.03 16.07-12.05 28.12 20.09-20.09-8.04-28.12-12.05-12.05zM44.72 493.6l36.15-16.07-20.08 24.1 28.12-4.02-8.04 8.04-32.13 8.03-4.02-20.08z"/><path class="cls-2" d="M246.79 247.43a4 4 0 01-3.79-4.23l2-32.72a4 4 0 00-2.48-3.94q-2.76-1.14-5.63-2.25a4 4 0 00-5.42 3.49l-.9 14.83a4 4 0 01-4.23 3.75 4 4 0 01-3.75-4.23l1.18-19.45a4 4 0 00-2.72-4l-3.8-1.24a4 4 0 00-5.2 3.57l-.27 4.44a4 4 0 01-4.23 3.75 4 4 0 01-3.75-4.23l.5-8.26a4 4 0 00-2.88-4.08 634.52 634.52 0 00-15.14-4.16 4 4 0 00-5 4.4c.51 3.8 1.28 9.22 2.3 15.53a4 4 0 003.7 3.35l8.27.5a4 4 0 013.74 4.24 4 4 0 01-4.23 3.74l-4.44-.26a4 4 0 00-4.17 4.73c.25 1.3.51 2.61.77 3.92a4 4 0 003.68 3.19l19.5 1.19a4 4 0 013.75 4.23 4 4 0 01-4.23 3.75l-14.83-.9a4 4 0 00-4.12 5c.5 2 1 3.94 1.55 5.86a4 4 0 003.62 2.93l32.71 2a4 4 0 013.75 4.13 4 4 0 01-4.23 3.75l-26.18-1.59a4 4 0 00-3.9 5.6 39.72 39.72 0 006.05 10.35c15.13 17.08 41.68 18.26 59.31 2.65s19.66-42.13 4.53-59.2a39.77 39.77 0 00-9.54-7.25 4 4 0 00-6 3.2L251 243.68a4 4 0 01-4.21 3.75z"/><path class="cls-3" d="M258.64 214.31a4 4 0 00-6 3.2L251 243.68a4 4 0 01-8-.48l2-32.72a4 4 0 00-2.48-3.94q-2.76-1.14-5.63-2.25a4 4 0 00-5.42 3.49l-.9 14.83a4 4 0 01-8-.48l1.18-19.45a4 4 0 00-2.72-4l-3.8-1.24a4 4 0 00-5.2 3.57l-.27 4.44a4 4 0 01-8-.48l.5-8.26a4 4 0 00-2.88-4.08 634.52 634.52 0 00-15.14-4.16 4 4 0 00-3.66.88l81 91.45c17.63-15.62 19.66-42.13 4.53-59.2a39.77 39.77 0 00-9.47-7.29z"/></svg>