<svg xmlns="http://www.w3.org/2000/svg" viewBox="0 0 566.93 566.93"><defs><style>.cls-1{isolation:isolate;}.cls-2{fill:#ffd1b8;}.cls-3{fill:#e2bbaa;}.cls-4{fill:#faebdc;}.cls-5{fill:#ff8764;}.cls-6{fill:none;stroke:#472300;stroke-linecap:round;stroke-linejoin:round;stroke-width:2.69px;}.cls-7{fill:#f5a03c;}.cls-8{fill:#a8b28e;}.cls-9{fill:#757b68;}.cls-10,.cls-15{fill:#1c2600;}.cls-11{fill:#006464;}.cls-12{fill:#0f373c;}.cls-13{fill:#2e5257;}.cls-14{fill:#f4a03e;}.cls-15{mix-blend-mode:soft-light;}</style></defs><g class="cls-1"><g id="Ilustracja"><circle class="cls-2" cx="296.99" cy="297.57" r="236.07"/><circle class="cls-3" cx="161.59" cy="122.54" r="19.72"/><path class="cls-4" d="M213.07,156.51a54.12,54.12,0,0,0-51-36.1,36.07,36.07,0,0,0-72.13,0v.21c-1.48-.13-3-.21-4.51-.21a54.1,54.1,0,1,0,38.32,92.28,54.07,54.07,0,0,0,65.86,8.38,36.06,36.06,0,1,0,23.48-64.56Z"/><path class="cls-3" d="M78.69,141.26a55.11,55.11,0,0,0-8.53,8.54A37.37,37.37,0,0,1,78.69,141.26Z"/><path class="cls-3" d="M125.89,105.71A35.92,35.92,0,0,1,150,93.5a36,36,0,0,0-49,.92h0l-.13.13c-.38.36-.77.74-1.12,1.14S99,96.52,98.6,97l-.08.08c-.37.43-.73.89-1.08,1.34a31.49,31.49,0,0,0-2.78,4.17,32.6,32.6,0,0,0-1.79,3.54c-.23.54-.46,1.08-.65,1.63-.43,1.12-.79,2.29-1.11,3.46-.11.4-.21.8-.29,1.21a23.46,23.46,0,0,0-.46,2.39c-.06.33-.11.66-.14,1s-.08.62-.11.94a34.8,34.8,0,0,0-.19,3.69c0,.08,0,.12,0,.19h0c-1.49-.12-3-.2-4.51-.2a54.1,54.1,0,0,0-3,108.11A54.09,54.09,0,0,1,70.16,149.8a37.37,37.37,0,0,1,8.53-8.54,38.29,38.29,0,0,1,59,19.27,53.69,53.69,0,0,1,1.82,12.69c0,.43,0,.86,0,1.29a53.64,53.64,0,0,1-1,10.21,58.63,58.63,0,0,0-12.64-79Z"/><circle class="cls-3" cx="156.38" cy="183.93" r="30.86"/><circle class="cls-4" cx="166.21" cy="189.26" r="30.66"/><circle class="cls-3" cx="147.43" cy="131.21" r="20.19"/><circle class="cls-4" cx="153.86" cy="134.7" r="20.06"/><circle class="cls-3" cx="79.73" cy="198.75" r="25.32"/><circle class="cls-4" cx="87.8" cy="203.13" r="25.16"/><circle class="cls-3" cx="200.41" cy="206.39" r="18.49"/><circle class="cls-4" cx="206.3" cy="209.59" r="18.37"/><circle class="cls-3" cx="215.46" cy="192.34" r="13.5"/><circle class="cls-4" cx="221.26" cy="196.18" r="13.41"/><circle class="cls-3" cx="180.64" cy="160.38" r="19.12"/><circle class="cls-4" cx="188.86" cy="165.82" r="19"/><circle class="cls-3" cx="311.68" cy="45.29" r="11.51"/><path class="cls-4" d="M341.72,65.12a31.58,31.58,0,0,0-29.78-21.07,21,21,0,0,0-42.09,0v.12c-.87-.07-1.74-.12-2.63-.12a31.57,31.57,0,1,0,22.36,53.86A31.59,31.59,0,0,0,328,102.8a21,21,0,1,0,13.71-37.68Z"/><path class="cls-3" d="M263.3,56.22a31.7,31.7,0,0,0-5,5A21.6,21.6,0,0,1,263.3,56.22Z"/><path class="cls-3" d="M290.84,35.47a21,21,0,0,1,14.06-7.12,21,21,0,0,0-28.58.53h0l-.08.08c-.22.21-.44.43-.65.67s-.45.48-.66.74c0,0,0,0-.05.05-.21.25-.43.52-.63.78a20.94,20.94,0,0,0-2.67,4.5c-.13.31-.26.63-.38.94-.25.66-.46,1.34-.65,2-.06.23-.12.46-.16.7a13.12,13.12,0,0,0-.27,1.39c0,.2-.07.39-.09.59s0,.36-.06.55c-.07.71-.11,1.43-.11,2.15,0,.05,0,.07,0,.11h0c-.87-.07-1.76-.12-2.64-.12a31.57,31.57,0,0,0-1.74,63.09,31.56,31.56,0,0,1-7.16-45.94,21.6,21.6,0,0,1,5-5,22.35,22.35,0,0,1,34.42,11.25,31.62,31.62,0,0,1,1.06,7.4c0,.25,0,.5,0,.75a31.53,31.53,0,0,1-.57,6,34.21,34.21,0,0,0-7.38-46.11Z"/><circle class="cls-3" cx="308.64" cy="81.12" r="18.01"/><circle class="cls-4" cx="314.37" cy="84.23" r="17.89"/><circle class="cls-3" cx="303.41" cy="50.36" r="11.78"/><circle class="cls-4" cx="307.16" cy="52.39" r="11.71"/><circle class="cls-3" cx="263.91" cy="89.77" r="14.78"/><circle class="cls-4" cx="268.61" cy="92.32" r="14.68"/><circle class="cls-3" cx="334.33" cy="94.23" r="10.79"/><circle class="cls-4" cx="337.77" cy="96.09" r="10.72"/><circle class="cls-3" cx="343.12" cy="86.03" r="7.88"/><circle class="cls-4" cx="346.5" cy="88.27" r="7.83"/><circle class="cls-3" cx="322.79" cy="67.37" r="11.16"/><circle class="cls-4" cx="327.59" cy="70.55" r="11.09"/><circle class="cls-5" cx="365.52" cy="270.92" r="30.46"/><path class="cls-6" d="M423.12,400.37c1.92-22.66,15.89-40.91,34.27-45.69,13.88-3.61,26,1.59,30.46,3.81"/><path class="cls-7" d="M327.93,381.33h0a30.55,30.55,0,0,1,30.46-30.46h60.92a30.55,30.55,0,0,1,30.46,30.46h0"/><path class="cls-8" d="M266.53,564.09h0c-50.26,0-91.38-41.12-91.38-91.38V229c0-50.26,41.12-91.38,91.38-91.38H297V564.09Z"/><path class="cls-9" d="M297,533.63h0c-50.26,0-91.38-41.12-91.38-91.38V259.49c0-50.26,41.12-91.38,91.38-91.38h0"/><path class="cls-10" d="M175.15,396.56a45.69,45.69,0,0,1,45.69,45.69h15.23V381.33H175.15Z"/><path class="cls-10" d="M297,518.4h0a76.36,76.36,0,0,1-76.15-76.15V259.49A76.37,76.37,0,0,1,297,183.34h0"/><path class="cls-9" d="M388.37,320.41H357.91A60.91,60.91,0,0,1,297,259.49V198.57a61.1,61.1,0,0,0-60.92,60.92v7.62a53.3,53.3,0,0,1-53.31,53.3h-7.61L53.31,259.49s-30.47,34.27-30.47,91.38,30.47,91.38,30.47,91.38l121.84-60.92h7.61a53.31,53.31,0,0,1,53.31,53.31v7.61A61.09,61.09,0,0,0,297,503.17V442.25a60.92,60.92,0,0,1,60.92-60.92h30.46a31.77,31.77,0,0,0,3.8-.24v.24h26.66V350.88h0A30.55,30.55,0,0,0,388.37,320.41Z"/><path class="cls-8" d="M83.28,350.87a153.28,153.28,0,0,1,15.9-68.44L53.31,259.49s-30.46,34.27-30.46,91.38,30.46,91.38,30.46,91.38l45.87-22.93A153.36,153.36,0,0,1,83.28,350.87Z"/><path class="cls-8" d="M95.7,411.79c1.14,2.68,2.31,5.19,3.48,7.53L83.76,427,53.31,442.26A100.81,100.81,0,0,1,42.86,427a147.69,147.69,0,0,1-7.62-15.24,154.18,154.18,0,0,1-9.43-30.46c-.95-4.82-1.72-9.9-2.24-15.23-.47-4.86-.72-9.94-.72-15.22s.25-10.36.73-15.23c.51-5.34,1.28-10.41,2.23-15.23a153.23,153.23,0,0,1,3.86-15.24,146.8,146.8,0,0,1,13.19-30.46,100.13,100.13,0,0,1,10.45-15.23l30.45,15.23,15.42,7.71c-1.17,2.34-2.34,4.85-3.48,7.52a154.37,154.37,0,0,0-5.59,15.23A154.38,154.38,0,0,0,84,335.65a152.2,152.2,0,0,0-.74,15.23q0,7.89.74,15.22a152.58,152.58,0,0,0,2.23,15.23,153.34,153.34,0,0,0,9.44,30.46Z"/><path class="cls-8" d="M297.47,442.25V381.33h60.92A60.92,60.92,0,0,0,297.47,442.25Z"/><polygon class="cls-10" points="358.39 381.33 297.47 381.33 297.47 324.22 358.39 381.33"/><path class="cls-11" d="M442.16,427c0,16.82-19,30.46-19,30.46s-19-13.64-19-30.46,19-30.46,19-30.46S442.16,410.2,442.16,427Z"/><path class="cls-12" d="M404.08,427c0,16.82,19,30.46,19,30.46V396.57S404.08,410.2,404.08,427Z"/><path class="cls-13" d="M420.73,497.46C435.87,512.6,431,542,431,542s-29.41,4.86-44.55-10.28-10.28-44.55-10.28-44.55S405.59,482.32,420.73,497.46Z"/><path class="cls-12" d="M386.46,531.73C401.6,546.87,431,542,431,542l-54.83-54.83S371.32,516.59,386.46,531.73Z"/><path class="cls-8" d="M83.76,274.72H42.86a100.13,100.13,0,0,1,10.45-15.23Z"/><path class="cls-10" d="M41.88,350.88c0,42.1,16.55,71.78,25.25,84.47l-13.82,6.91S22.85,408,22.85,350.88s30.46-91.39,30.46-91.39l13.82,6.9C58.43,279.1,41.88,308.78,41.88,350.88Z"/><path class="cls-14" d="M498.43,194.37h0a16,16,0,0,1,15.93-15.93h31.86a16,16,0,0,1,15.93,15.93h0"/><path class="cls-8" d="M466.31,290h0a47.93,47.93,0,0,1-47.79-47.79V114.72a47.94,47.94,0,0,1,47.79-47.8h15.93V290Z"/><path class="cls-9" d="M482.24,274h0a47.93,47.93,0,0,1-47.79-47.79V130.65a47.94,47.94,0,0,1,47.79-47.8h0"/><path class="cls-10" d="M418.52,202.33a23.9,23.9,0,0,1,23.9,23.9h8V194.37H418.52Z"/><path class="cls-10" d="M482.24,266.06h0a39.94,39.94,0,0,1-39.82-39.83V130.65a39.94,39.94,0,0,1,39.82-39.83h0"/><path class="cls-9" d="M530,162.51H514.11a31.87,31.87,0,0,1-31.87-31.86V98.79a32,32,0,0,0-31.86,31.86v4a27.88,27.88,0,0,1-27.88,27.88h-4L354.8,130.65s-15.93,17.92-15.93,47.79,15.93,47.79,15.93,47.79l63.72-31.86h4a27.88,27.88,0,0,1,27.88,27.88v4a32,32,0,0,0,31.86,31.86V226.23a31.86,31.86,0,0,1,31.87-31.86H530a16.35,16.35,0,0,0,2-.13v.13H546V178.44h0A16,16,0,0,0,530,162.51Z"/><path class="cls-8" d="M370.48,178.44a80.15,80.15,0,0,1,8.31-35.8l-24-12s-15.93,17.92-15.93,47.79,15.93,47.79,15.93,47.79l24-12A80.15,80.15,0,0,1,370.48,178.44Z"/><path class="cls-8" d="M377,210.3c.6,1.4,1.21,2.71,1.82,3.93l-8.06,4-15.93,8a52.89,52.89,0,0,1-5.46-8,77.54,77.54,0,0,1-4-8,79.09,79.09,0,0,1-2.92-8,77.66,77.66,0,0,1-2-8c-.5-2.52-.9-5.18-1.17-8-.25-2.54-.38-5.2-.38-8s.13-5.41.38-8c.27-2.79.67-5.45,1.17-8a78.12,78.12,0,0,1,8.92-23.9,53.4,53.4,0,0,1,5.46-8l15.93,8,8.06,4c-.61,1.22-1.22,2.54-1.82,3.94a78.87,78.87,0,0,0-2.92,8,77.87,77.87,0,0,0-2,8,75.5,75.5,0,0,0-1.17,8A83,83,0,0,0,372,194.37a81,81,0,0,0,2,8A75.88,75.88,0,0,0,377,210.3Z"/><path class="cls-8" d="M482.5,226.23V194.37h31.86A31.85,31.85,0,0,0,482.5,226.23Z"/><circle class="cls-4" cx="530.29" cy="178.44" r="5.97"/><polygon class="cls-10" points="514.36 194.37 482.5 194.37 482.5 164.5 514.36 194.37"/><path class="cls-8" d="M370.73,138.61H349.34a53.4,53.4,0,0,1,5.46-8Z"/><path class="cls-10" d="M348.82,178.44A78.81,78.81,0,0,0,362,222.62l-7.23,3.61s-15.93-17.92-15.93-47.79,15.93-47.8,15.93-47.8l7.23,3.61A78.91,78.91,0,0,0,348.82,178.44Z"/><path class="cls-15" d="M297.46,267.26v83.61H22.85c0-.89,0-1.77,0-2.65,0-.43,0-.84,0-1.26,0-.19,0-.37,0-.56a1.51,1.51,0,0,0,0-.3c0-.16,0-.31,0-.47s0-.55,0-.82c0-1.18.09-2.36.17-3.52,0-.44,0-.9.08-1.33.08-1.14.18-2.27.27-3.38.08-.9.18-1.81.27-2.7,0-.12,0-.23,0-.35.06-.38.1-.77.14-1.16s.08-.76.13-1.14c.08-.64.18-1.27.26-1.9a.15.15,0,0,1,0-.07c.11-.83.23-1.68.36-2.5a.64.64,0,0,1,0-.09c.06-.41.12-.8.18-1.19,0-.05,0-.09,0-.14s0-.13,0-.18l.12-.68v0c0-.23.09-.48.14-.71a1.66,1.66,0,0,1,0-.22c0-.16.05-.31.08-.45s.06-.33.09-.49.11-.6.18-.91l.12-.66a1.06,1.06,0,0,1,0-.19v0l.06-.36.12-.58c0-.13.07-.28.1-.41s0-.29.08-.42c.13-.67.28-1.33.43-2,0-.12.05-.26.09-.39s.11-.49.16-.73c.1-.41.19-.84.29-1.26a1.13,1.13,0,0,1,0-.15c.1-.41.21-.83.32-1.25s.21-.86.32-1.29c0-.13.07-.25.1-.39L28,311l.6-2.21a.65.65,0,0,0,0-.13l.51-1.75.26-.86c.09-.29.17-.59.27-.88.17-.55.35-1.1.52-1.65l.12-.41c.14-.44.29-.88.43-1.33,0-.05,0-.12.07-.17s.09-.24.13-.38.07-.21.11-.32l.12-.38c.1-.26.19-.51.27-.76s.27-.75.4-1.13l.62-1.71s0-.05,0-.08c.09-.25.19-.49.28-.74s.26-.69.39-1l.28-.7c.3-.75.59-1.51.9-2.26s.59-1.44.89-2.13c0,0,0,0,0,0,.23-.53.46-1.05.7-1.58.15-.33.3-.65.44-1,.06-.14.14-.29.19-.44s.22-.43.31-.66c.35-.75.7-1.49,1-2.21v0l.2-.39c.16-.35.34-.7.51-1,0-.1.11-.21.15-.31l.12-.22.39-.79a3,3,0,0,0,.2-.4l.26-.47c.13-.27.26-.54.41-.81a.63.63,0,0,0,0-.09l.11-.18.36-.68.12-.25c.06-.09.1-.18.15-.26.23-.42.44-.84.67-1.24l.69-1.24c.07-.1.12-.22.2-.33s.23-.43.35-.65.09-.14.13-.21l0-.07c0-.08.1-.16.15-.24s.2-.35.31-.52.12-.22.17-.33a.61.61,0,0,0,.1-.14c.19-.33.37-.64.56-.94l0,0c.13-.23.28-.44.4-.66a2.24,2.24,0,0,0,.21-.36c.29-.45.55-.88.82-1.29l.46-.71s0,0,0-.07a2.53,2.53,0,0,1,.18-.27l.37-.58.1-.14c.16-.23.29-.45.44-.66a1.7,1.7,0,0,1,.15-.22c.12-.17.22-.33.32-.49s.11-.17.17-.25h0c.07-.08.12-.16.18-.24s.23-.32.33-.48l0-.06h0c.13-.2.27-.39.4-.58l.11-.16c.09-.14.19-.27.28-.39l0-.08h0c.12-.17.25-.33.35-.49a.63.63,0,0,0,.11-.15l.23-.3,0,0,.3-.42a.16.16,0,0,0,.07-.09l.12-.16.28-.39h0v0l.39-.51a4,4,0,0,0,.28-.36.15.15,0,0,0,0-.07l0,0v0l.11-.14,0,0a1.3,1.3,0,0,1,.15-.18v0l0-.06.2-.25.12-.15.2-.24a.76.76,0,0,0,.08-.11l0,0a1.33,1.33,0,0,0,.12-.16s0,0,0,0a.18.18,0,0,0,.07-.08l0-.06,0-.05a.07.07,0,0,0,0-.05l.11-.11h0l.07-.08h0s0,0,0,0l0,0h0s0,0,0,0h0v0l13.82,6.91h0l15,7.51,1.6.8h0l15.42,7.71,76,38h7.63a53.07,53.07,0,0,0,22.84-5.13V259.5c0-50.27,41.12-91.38,91.38-91.38v91.79c0,.46,0,.92,0,1.37s0,.9.05,1.34.06,1,.1,1.56.06,1,.13,1.55S297.4,266.75,297.46,267.26Z"/><rect class="cls-10" x="357.91" y="339.45" width="41.88" height="22.85" rx="11.42"/><polyline class="cls-4" points="0 373.72 57.11 392.76 7.62 396.56"/><circle class="cls-4" cx="388.37" cy="350.87" r="11.42"/><path class="cls-6" d="M370.76,442.25c-1.85,9.94-3,25.63,3.81,41.89a65,65,0,0,0,3.81,7.61"/><path class="cls-6" d="M369.33,453.68s-22.85,22.84-15.23,49.49"/><polyline class="cls-4" points="3.81 289.95 57.11 316.61 7.62 316.61 3.81 293.76"/></g></g></svg>