<svg xmlns="http://www.w3.org/2000/svg" viewBox="0 0 566.93 566.93"><defs><style>.cls-2{fill:#ffdfca}.cls-4{fill:#006464}.cls-6{fill:#002728}.cls-7{fill:#001919}.cls-8{fill:#c1391e}.cls-16,.cls-9{fill:none}.cls-9{stroke:#002828;stroke-linecap:round;stroke-linejoin:round;stroke-width:2.26px}.cls-10{fill:#003f3f}.cls-11{fill:#ff8764}.cls-12{fill:#e56445}.cls-13,.cls-17{fill:#4c1f00}.cls-14{fill:#e6a073}.cls-16{stroke:#4c1f00;stroke-miterlimit:10;stroke-width:1.13px}.cls-17{opacity:.5;mix-blend-mode:hard-light}.cls-20{fill:#872702}.cls-21{fill:#00bcb7}.cls-22,.cls-25{fill:#fff;mix-blend-mode:soft-light}.cls-25{fill:#faebdc}</style></defs><g style="isolation:isolate"><g id="Ilustracja"><circle class="cls-2" cx="306.98" cy="63.26" r="32.08"/><path d="M336.31 76.24a167.05 167.05 0 00-29.31-2.6c-3.26 0-6.49.1-9.71.29a5.5 5.5 0 01-5.72-4.41A32.07 32.07 0 01315 32.19a32.08 32.08 0 00-31 53.45c.52.55 1.08 1.08 1.65 1.58.53.47 1.08.92 1.64 1.36l.15.11c.58.45 1.17.87 1.77 1.27l.09.06c.56.37 1.14.72 1.72 1.06l.28.16c.62.34 1.25.67 1.89 1l.14.06c.59.28 1.18.53 1.79.77l.4.16q1 .38 2 .69h.17c.61.19 1.24.35 1.87.5l.49.12c.68.15 1.37.28 2.08.39h.12c.66.1 1.33.17 2 .23h.55c.72 0 1.44.08 2.17.08s1.51 0 2.26-.08l.72-.07c.51 0 1-.1 1.52-.17l.81-.13c.47-.08.93-.17 1.4-.27l.79-.17c.17 0 .35-.07.52-.12a32.11 32.11 0 0021.32-17.99z" fill="#e2bbaa"/><path class="cls-2" d="M467.38 239.7v301.56H146.57V239.7a158.9 158.9 0 0110.81-57.7c.39-1 .8-2 1.22-3 1.19-2.88 2.45-5.72 3.81-8.5 26-53.78 81.11-91.12 144.57-91.12s118.58 37.32 144.56 91.09c1.34 2.8 2.62 5.64 3.81 8.53.42 1 .83 2 1.22 3a158.9 158.9 0 0110.81 57.7z"/><path class="cls-4" d="M467.38 239.7v317.6H146.57V239.7a158.9 158.9 0 0110.81-57.7c.39-1 .8-2 1.22-3 1.19-2.88 2.45-5.72 3.81-8.5 4 1.85 5.91 5.11 12.63 5.11 9.43 0 9.43-6.4 18.85-6.4s9.42 6.4 18.84 6.4 9.43-6.4 18.84-6.4 9.43 6.4 18.85 6.4 9.42-6.4 18.84-6.4 9.43 6.4 18.85 6.4 9.42-6.4 18.85-6.4 9.42 6.4 18.84 6.4 9.43-6.4 18.85-6.4 9.42 6.4 18.85 6.4 9.43-6.4 18.84-6.4 9.43 6.4 18.86 6.4 9.42-6.4 18.85-6.4 9.42 6.4 18.84 6.4c6.74 0 8.66-3.27 12.65-5.14 1.34 2.8 2.62 5.64 3.81 8.53.42 1 .83 2 1.22 3a158.9 158.9 0 0110.81 57.7z"/><path d="M467.38 239.7v327.23H146.57V239.7a158.9 158.9 0 0110.81-57.7c.39-1 .8-2 1.22-3 7.09 1 7.9 6.24 16.44 6.24 9.43 0 9.43-6.4 18.85-6.4s9.42 6.4 18.84 6.4 9.43-6.4 18.84-6.4 9.43 6.4 18.85 6.4 9.42-6.4 18.84-6.4 9.43 6.4 18.85 6.4 9.42-6.4 18.85-6.4 9.42 6.4 18.84 6.4 9.43-6.4 18.85-6.4 9.42 6.4 18.85 6.4 9.43-6.4 18.84-6.4 9.43 6.4 18.86 6.4 9.42-6.4 18.85-6.4 9.42 6.4 18.84 6.4c8.56 0 9.35-5.27 16.46-6.24.42 1 .83 2 1.22 3a158.9 158.9 0 0110.81 57.7z" fill="#00a8a3"/><path class="cls-6" d="M146.57 502.77h320.81v38.5H146.57z"/><path class="cls-7" d="M146.57 528.43h320.81v12.83H146.57z"/><ellipse class="cls-6" cx="186.67" cy="386.83" rx="8.02" ry="41.7"/><ellipse class="cls-6" cx="452.94" cy="438.15" rx="8.02" ry="41.7"/><circle class="cls-8" cx="351.89" cy="431.74" r="28.87"/><ellipse class="cls-6" cx="260.46" cy="402.87" rx="11.23" ry="54.54"/><ellipse class="cls-6" cx="244.42" cy="373.99" rx="11.23" ry="54.54"/><ellipse class="cls-6" cx="231.59" cy="390.03" rx="11.23" ry="54.54"/><path class="cls-9" d="M207.34 374c-17.17-45.82 8.55-87.17-15.85-121.45M220.36 255.75c14.6 36.3-18.54 69.65-18.54 69.65M201.11 326.32c5.08-.2 33-16.49 44.91-48.12"/><path class="cls-4" d="M287.73 451a41.71 41.71 0 01-67.38 32.87 41.7 41.7 0 11-39.9-72.07 41.7 41.7 0 1179.82 0 41.73 41.73 0 0127.46 39.2z"/><path class="cls-10" d="M180.45 411.78A41.71 41.71 0 01220.36 358v125.9a41.71 41.71 0 11-39.91-72.07z"/><rect class="cls-4" x="178.65" y="444.57" width="83.41" height="38.5" rx="19.25"/><rect class="cls-10" x="169.03" y="422.11" width="60.95" height="22.46" rx="11.23"/><rect class="cls-4" x="201.11" y="406.07" width="41.7" height="16.04" rx="8.02"/><rect class="cls-10" x="201.11" y="377.2" width="38.5" height="28.87" rx="14.44"/><path class="cls-4" d="M239.6 362.65v.12a14.49 14.49 0 01-14.43 14.44h-9.63a14.48 14.48 0 01-14.43-14.44v-.13a41.87 41.87 0 0138.49 0z"/><rect class="cls-11" x="252.44" y="396.45" width="25.66" height="76.99" rx="12.83"/><path class="cls-12" d="M265.27 396.45a12.86 12.86 0 00-12.83 12.83v51.33a12.86 12.86 0 0012.83 12.83z"/><path class="cls-9" d="M384 441.36c21.18-14.78 27.38-28.4 28.87-38.49 1.1-7.44-.27-13.5 3.21-22.46 4.27-11 10.37-21.68 17-26"/><rect class="cls-11" x="422.47" y="415.7" width="25.66" height="76.99" rx="12.83"/><path class="cls-12" d="M435.3 415.7a12.86 12.86 0 00-12.83 12.83v51.33a12.86 12.86 0 0012.83 12.83z"/><path class="cls-13" d="M274.89 339.15l3.05-22.45 3.37 22.45h-6.42zM319.81 339.15l3.05-22.45 3.36 22.45h-6.41z"/><path class="cls-14" d="M242.81 448.23h12.83v57.75h-12.83z"/><path class="cls-13" d="M249.23 416.15l-6.42 32.08h12.84l-6.42-32.08z"/><path class="cls-14" d="M278.1 345.57h28.87v113.41H278.1z"/><path class="cls-13" d="M306.98 345.57h16.04v113.41h-16.04z"/><path class="cls-14" d="M274.89 339.15h6.42v28.87h-6.42z"/><path class="cls-13" d="M319.81 339.15h6.42v28.87h-6.42zM278.1 457.85h-35.29l19.1-25.66h16.19v25.66z"/><path fill="#260f00" d="M342.26 457.85h-35.28l12.19-25.66h29.51l-6.42 25.66z"/><path class="cls-14" d="M242.81 457.85h99.45v48.12h-99.45z"/><path class="cls-13" d="M278.1 368.03h32.08v6.42H278.1zM281.31 358.25h22.46v3.37h-22.46zM236.4 419.36l-6.42 32.08h12.83l-6.41-32.08zM348.68 419.36l-6.42 32.08h12.84l-6.42-32.08zM281.31 396.9v-16a3.21 3.21 0 013.21-3.21 3.22 3.22 0 013.21 3.21v16zM281.31 429v-12.85a3.21 3.21 0 013.21-3.21 3.22 3.22 0 013.21 3.21V429zM281.31 457.85V445a3.22 3.22 0 013.21-3.21 3.23 3.23 0 013.21 3.21v12.83zM281.31 480.31v-9.63a3.21 3.21 0 013.21-3.2 3.22 3.22 0 013.21 3.2v9.63zM294.14 480.31v-9.63a3.22 3.22 0 013.21-3.2 3.21 3.21 0 013.21 3.2v9.63zM313.39 480.31v-9.63a3.21 3.21 0 013.21-3.2 3.22 3.22 0 013.21 3.2v9.63zM326.22 480.31v-9.63a3.22 3.22 0 013.21-3.2 3.21 3.21 0 013.21 3.2v9.63zM313.39 499.56v-9.63a3.21 3.21 0 013.21-3.2 3.22 3.22 0 013.21 3.2v9.63zM326.22 499.56v-9.63a3.22 3.22 0 013.21-3.2 3.21 3.21 0 013.21 3.2v9.63zM252.44 480.31v-9.63a3.21 3.21 0 013.21-3.2 3.21 3.21 0 013.2 3.2v9.63zM265.27 480.31v-9.63a3.21 3.21 0 013.21-3.2 3.22 3.22 0 013.21 3.2v9.63zM252.44 499.56v-9.63a3.21 3.21 0 013.21-3.2 3.21 3.21 0 013.2 3.2v9.63zM265.27 499.56v-9.63a3.21 3.21 0 013.21-3.2 3.22 3.22 0 013.21 3.2v9.63zM294.14 429v-12.85a3.22 3.22 0 013.21-3.21 3.21 3.21 0 013.21 3.21V429zM294.14 457.85V445a3.23 3.23 0 013.21-3.21 3.22 3.22 0 013.21 3.21v12.83zM294.14 396.9v-16a3.22 3.22 0 013.21-3.21 3.21 3.21 0 013.21 3.21v16zM281.31 506v-9.62a9.65 9.65 0 019.62-9.62 9.65 9.65 0 019.63 9.62V506z"/><path class="cls-14" d="M303.77 339.15h6.42v28.87h-6.42z"/><path class="cls-13" d="M281.31 361.61v-11.23a1.6 1.6 0 011.6-1.6 1.61 1.61 0 011.61 1.6v11.23zM300.56 361.61v-11.23a1.6 1.6 0 011.6-1.6 1.61 1.61 0 011.61 1.6v11.23zM294.14 361.61v-11.23a1.61 1.61 0 011.61-1.6 1.6 1.6 0 011.6 1.6v11.23zM287.73 361.61v-11.23a1.6 1.6 0 011.6-1.6 1.6 1.6 0 011.6 1.6v11.23z"/><path class="cls-14" d="M229.98 451.44h12.83v54.54h-12.83zM342.26 451.44h12.83v54.54h-12.83z"/><rect class="cls-13" x="290.93" y="287.83" width="19.25" height="6.42" rx="3.21"/><path class="cls-13" d="M306.98 461.06h35.29v3.21h-35.29zM242.81 461.06h35.29v3.21h-35.29z"/><path class="cls-13" d="M306.98 461.06h3.21v44.91h-3.21z"/><path class="cls-16" d="M306.98 403.32H278.1M306.98 432.19H278.1"/><path class="cls-13" d="M315.8 345.57h-31.28l14.44-83.41h3.37l13.47 83.41z"/><path class="cls-14" d="M303.77 339.15l3.04-22.45 3.37 22.45h-6.41z"/><path class="cls-17" d="M278.1 402.87l28.88-28.88H278.1v28.88zM278.1 431.74l28.88-25.67H278.1v25.67zM278.1 460.61l28.88-25.66H278.1v25.66z"/><ellipse class="cls-11" cx="374.34" cy="439.76" rx="25.66" ry="62.56"/><path class="cls-12" d="M348.68 439.76c0 34.55 11.49 62.56 25.66 62.56V377.2c-14.17 0-25.66 28.01-25.66 62.56z"/><circle class="cls-11" cx="374.34" cy="406.07" r="12.83"/><circle class="cls-12" cx="374.34" cy="431.74" r="12.83"/><path class="cls-4" d="M371.14 454.64a25.67 25.67 0 0151.33 0 25.67 25.67 0 11-12.84 47.89 25.65 25.65 0 01-25.66 0 25.66 25.66 0 11-12.83-47.89z"/><path class="cls-10" d="M371.14 454.64a25.66 25.66 0 0138.49-22.22 25.65 25.65 0 00-12.83 22.22 25.66 25.66 0 00-12.8 47.89 25.66 25.66 0 11-12.83-47.89z"/><path class="cls-9" d="M409.63 358c-10.74 24.87-1.62 58.79-1.62 58.79M451.34 370.79c-12.28-.88-31.14 10.75-38.36 30.88"/><circle class="cls-4" cx="226.77" cy="486.28" r="16.04"/><rect class="cls-10" x="335.85" y="493.14" width="38.5" height="12.83" rx="6.42"/><path class="cls-9" d="M390.51 444c-24.45-56.59-26.42-79.73-22.61-89.85a34.51 34.51 0 002.84-18.43c-1-7.89-3.34-12.8-6-16.56M371.14 390c-28.88-35.28-20.1-69.72-20.1-69.72M386.25 320c0 10.37-5.49 38.44-18.32 48.07M379.63 417.09c-9.63-21.59-34.16-4.6-47-30.26"/><path class="cls-4" d="M355.1 506a12.87 12.87 0 0112.83-12.83h25.66A12.87 12.87 0 01406.42 506H355.1z"/><path class="cls-10" d="M384 506a19.25 19.25 0 0138.5 0"/><path class="cls-6" d="M194.63 414a13.93 13.93 0 00-1.45-4.88 12 12 0 00-.67-1.13 13.09 13.09 0 00-1.69-2.07c-5.16-5.16-28-9.35-28-9.35s4.19 22.89 9.35 28.05a13.23 13.23 0 0018.7 0 13.14 13.14 0 003.63-6.83 13.28 13.28 0 00.24-2.52c-.05-.38-.07-.81-.11-1.27z"/><path class="cls-12" d="M449.72 380.15a5.15 5.15 0 119.48-4c1.11 2.62-.7 11.49-.7 11.49s-7.66-4.88-8.78-7.49z"/><path class="cls-11" d="M458.5 387.6l-6.06-14.21a5.16 5.16 0 00-2.72 6.76c1.12 2.61 8.78 7.45 8.78 7.45z"/><path class="cls-12" d="M239.13 309.58a6.76 6.76 0 017.11-11.51c3.18 2 7.95 12.87 7.95 12.87s-11.88.6-15.06-1.36z"/><path class="cls-11" d="M254.19 310.94l-17.25-10.67a6.76 6.76 0 002.19 9.31c3.18 1.96 15.06 1.36 15.06 1.36z"/><path class="cls-12" d="M438.56 378.55a5.59 5.59 0 0111 2.06c-.56 3-7.54 9.95-7.54 9.95s-4.02-8.97-3.46-12.01z"/><path class="cls-11" d="M442 390.56l3.08-16.47a5.58 5.58 0 00-6.52 4.46c-.56 3.04 3.44 12.01 3.44 12.01z"/><path class="cls-4" d="M294.14 390a19.25 19.25 0 0138.5 0z"/><path class="cls-6" d="M313.39 390a22.46 22.46 0 0144.91 0z"/><path class="cls-4" d="M342.26 390a16 16 0 1132.08 0zM326.22 325.87a19.25 19.25 0 0138.5 0z"/><path class="cls-6" d="M345.47 325.87a32.08 32.08 0 0164.16 0z"/><path class="cls-4" d="M384 325.87a16 16 0 0132.08 0z"/><path class="cls-11" d="M380.76 361.16a19.25 19.25 0 0138.5 0z"/><path class="cls-8" d="M400 361.16a22.46 22.46 0 1144.91 0z"/><path class="cls-11" d="M428.88 361.16a16 16 0 1132.08 0z"/><path class="cls-4" d="M172.24 259a19.25 19.25 0 1138.49 0z"/><path class="cls-6" d="M191.49 259a22.46 22.46 0 0144.91 0z"/><path class="cls-4" d="M220.36 259a16 16 0 0132.08 0zM186.63 402.32a12.83 12.83 0 11-18.15 18.14c-5-5-9.08-27.22-9.08-27.22s22.21 4.06 27.23 9.08z"/><path class="cls-10" d="M159.4 393.24l27.23 27.22a12.83 12.83 0 000-18.14c-5.02-5.02-27.23-9.08-27.23-9.08z"/><path class="cls-6" d="M396.25 506a81.47 81.47 0 00.55-9.62c0-16-4.31-28.87-9.62-28.87s-9.63 12.92-9.63 28.87a83.66 83.66 0 00.55 9.62z"/><path class="cls-6" d="M383.42 506a28.69 28.69 0 00.55-5.61c0-9.3-4.31-16.84-9.63-16.84s-9.62 7.54-9.62 16.84a28.69 28.69 0 00.55 5.61zM406.42 506a16 16 0 0132.09 0z"/><path class="cls-9" d="M351.89 352c.08-4.07.87-17.92 9.56-26.93a31.89 31.89 0 017.17-5.56"/><path class="cls-6" d="M206.61 496.35a130.32 130.32 0 00.92-15.58c0-25.06-7.19-45.37-16-45.37s-16.05 20.31-16.05 45.37a130.32 130.32 0 00.92 15.58z"/><path class="cls-7" d="M191.49 435.4v61h-15.13a130.32 130.32 0 01-.92-15.58c0-25.11 7.19-45.42 16.05-45.42z"/><path class="cls-6" d="M430.49 214c-9.75 0-17.65 4.31-17.65 9.62s7.9 9.63 17.65 9.63 17.64-4.31 17.64-9.63-7.9-9.62-17.64-9.62zm8 12.83a3.21 3.21 0 113.21-3.21 3.21 3.21 0 01-3.2 3.25z"/><path class="cls-6" d="M403.21 214v19.25a9.63 9.63 0 100-19.25zM230 207.62a9.63 9.63 0 110 19.25z"/><ellipse class="cls-6" cx="347.08" cy="284.62" rx="11.23" ry="6.42"/><path class="cls-6" d="M329.43 278.2a6.42 6.42 0 110 12.83z"/><ellipse class="cls-6" cx="449.73" cy="291.03" rx="11.23" ry="6.42"/><path class="cls-6" d="M432.09 284.62a6.42 6.42 0 110 12.83z"/><ellipse class="cls-6" cx="181.86" cy="329.53" rx="9.62" ry="3.21"/><path class="cls-6" d="M165.82 323.11a6.42 6.42 0 110 12.84z"/><ellipse class="cls-6" cx="374.34" cy="252.54" rx="9.62" ry="3.21"/><path class="cls-6" d="M358.3 246.12a6.42 6.42 0 110 12.83z"/><path class="cls-10" d="M467.38 506h-51.33a51.33 51.33 0 0151.33-51.33z"/><path class="cls-12" d="M455.1 472.89a12.83 12.83 0 11-18.1-18.14c5-5 27.22-9.08 27.22-9.08s-4.11 22.21-9.12 27.22z"/><path class="cls-11" d="M464.17 445.67L437 472.89a12.84 12.84 0 0018.15 0c4.96-5.01 9.02-27.22 9.02-27.22z"/><path class="cls-7" d="M387.18 467.48V506h-9.08a83.66 83.66 0 01-.55-9.62c0-15.98 4.31-28.9 9.63-28.9zM374.34 483.52c-5.31 0-9.62 7.54-9.62 16.84a28.69 28.69 0 00.55 5.61h9.07z"/><path class="cls-12" d="M185.07 506a28.87 28.87 0 0157.74 0z"/><path class="cls-11" d="M191.49 506a22.46 22.46 0 0144.91 0z"/><path class="cls-12" d="M197.9 506a16 16 0 0132.1 0z"/><path class="cls-11" d="M204.32 506a9.63 9.63 0 0119.25 0z"/><path class="cls-6" d="M146.57 506a25.67 25.67 0 0151.33 0z"/><path class="cls-7" d="M172.24 480.31A25.66 25.66 0 00146.57 506h25.67z"/><path class="cls-12" d="M146.57 441.81V506h19.25v-44.94a19.3 19.3 0 00-19.25-19.25z"/><rect class="cls-14" x="127.32" y="541.26" width="359.3" height="25.66" rx="12.83"/><path d="M473.79 541.26H358.3a12.88 12.88 0 0112.84 12.83 12.88 12.88 0 01-12.84 12.84h115.49a12.88 12.88 0 0012.84-12.84 12.88 12.88 0 00-12.84-12.83z" fill="#d17846"/><path d="M473.79 541.26h-57.74a12.87 12.87 0 0112.83 12.83 12.87 12.87 0 01-12.83 12.84h57.74a12.88 12.88 0 0012.84-12.84 12.88 12.88 0 00-12.84-12.83z" fill="#af4617"/><path class="cls-20" d="M473.79 541.26h-16a12.88 12.88 0 0112.84 12.83 12.88 12.88 0 01-12.84 12.84h16a12.88 12.88 0 0012.84-12.84 12.88 12.88 0 00-12.84-12.83z"/><path class="cls-20" d="M473.79 560.51H140.16a12.87 12.87 0 01-12.41-9.62 12.54 12.54 0 00-.43 3.2 12.88 12.88 0 0012.84 12.84h333.63a12.88 12.88 0 0012.84-12.84 12.54 12.54 0 00-.43-3.2 12.87 12.87 0 01-12.41 9.62z"/><path class="cls-4" d="M392.68 175.54h-170a4.82 4.82 0 000 9.63h41.7a4.81 4.81 0 110 9.62h-35.32a4.82 4.82 0 000 9.63h61a4.81 4.81 0 010 9.62h-3.21a4.81 4.81 0 100 9.62h16a4.82 4.82 0 010 9.63 4.81 4.81 0 000 9.62h41.71a4.81 4.81 0 100-9.62h-9.63a4.82 4.82 0 010-9.63h38.5a4.81 4.81 0 000-9.62H351a4.81 4.81 0 010-9.62h6.42a4.82 4.82 0 000-9.63H351a4.81 4.81 0 010-9.62h41.71a4.82 4.82 0 000-9.63z"/><circle class="cls-21" cx="281.31" cy="258.95" r="12.83"/><path class="cls-22" d="M281.31 246.12a13.08 13.08 0 00-3.21.42 12.81 12.81 0 010 24.82 12.62 12.62 0 003.21.43 12.84 12.84 0 000-25.67z"/><ellipse class="cls-22" cx="275.78" cy="253.42" rx="4.81" ry="3.21" transform="rotate(-45 275.78 253.418)"/><circle class="cls-21" cx="289.33" cy="308.68" r="8.02"/><path class="cls-22" d="M289.33 300.66a8.24 8.24 0 00-2 .26 8 8 0 010 15.52 8.24 8.24 0 002 .26 8 8 0 100-16z"/><ellipse class="cls-22" cx="285.87" cy="305.22" rx="3.01" ry="2.01" transform="rotate(-45 285.875 305.217)"/><circle class="cls-21" cx="350.28" cy="420.96" r="8.02"/><path class="cls-22" d="M350.28 412.94a8.24 8.24 0 00-2 .26 8 8 0 010 15.52 8.24 8.24 0 002 .26 8 8 0 100-16z"/><ellipse class="cls-22" cx="346.82" cy="417.5" rx="3.01" ry="2.01" transform="rotate(-45 346.828 417.51)"/><circle class="cls-21" cx="180.69" cy="283.45" r="8.02"/><path class="cls-22" d="M180.69 275.43a8.24 8.24 0 00-2 .26 8 8 0 010 15.52 8.24 8.24 0 002 .26 8 8 0 000-16z"/><ellipse class="cls-22" cx="177.24" cy="279.99" rx="3.01" ry="2.01" transform="rotate(-45 177.234 279.987)"/><circle class="cls-21" cx="210.73" cy="412.94" r="12.83"/><path class="cls-22" d="M210.73 400.11a12.48 12.48 0 00-3.2.42 12.81 12.81 0 010 24.82 12.48 12.48 0 003.2.42 12.83 12.83 0 100-25.66z"/><ellipse class="cls-22" cx="205.2" cy="407.41" rx="4.81" ry="3.21" transform="rotate(-45 205.193 407.406)"/><path d="M311.62 79.39c-1.54 0-3.09-.09-4.64-.09-88.22 0-160.4 72.18-160.4 160.4v301.56h9.63V239.7C156.2 153.15 225.68 82 311.62 79.39z" style="mix-blend-mode:multiply" fill="#e2bbaa"/><path d="M318.2 79.7c-3.71-.26-7.45-.4-11.22-.4-88.22 0-160.4 72.18-160.4 160.4v301.56H169V239.7c0-84.44 66.17-154.18 149.2-160z" style="mix-blend-mode:darken" fill="#e2bbaa"/><circle class="cls-21" cx="396.8" cy="297.45" r="12.83"/><path class="cls-22" d="M396.8 284.62a12.61 12.61 0 00-3.21.42 12.81 12.81 0 010 24.82 12.61 12.61 0 003.21.42 12.83 12.83 0 000-25.66z"/><ellipse class="cls-22" cx="391.27" cy="291.92" rx="4.81" ry="3.21" transform="rotate(-45 391.268 291.922)"/><circle class="cls-21" cx="319.81" cy="220.46" r="12.83"/><path class="cls-22" d="M319.81 207.62a13.08 13.08 0 00-3.21.42 12.82 12.82 0 010 24.83 13.08 13.08 0 003.21.42 12.84 12.84 0 000-25.67z"/><ellipse class="cls-22" cx="314.27" cy="214.92" rx="4.81" ry="3.21" transform="rotate(-45 314.27 214.915)"/><path class="cls-6" d="M260.46 210.83c-11.52 0-20.85 6.42-20.85 6.42s9.33 6.41 20.85 6.41 20.85-2.87 20.85-6.41-9.31-6.42-20.85-6.42zm12.83 6.42a1.61 1.61 0 111.6-1.61 1.6 1.6 0 01-1.6 1.61z"/><path class="cls-12" d="M194.69 287.83a19.25 19.25 0 0138.5 0z"/><path class="cls-8" d="M213.94 287.83a22.46 22.46 0 1144.91 0z"/><path class="cls-12" d="M242.81 287.83a16 16 0 0132.08 0z"/><rect class="cls-25" x="229.98" y="233.29" width="25.66" height="76.99" rx="12.83"/><path class="cls-25" d="M230 541.26V348.78A12.87 12.87 0 01242.81 336a12.87 12.87 0 0112.84 12.83v192.43z"/><ellipse class="cls-25" cx="230.78" cy="142.66" rx="18.65" ry="10.8" transform="rotate(-45 230.78 142.658)"/><path class="cls-4" d="M213.94 178.75h186.07v6.42H213.94z"/><circle class="cls-21" cx="371.14" cy="194.79" r="12.83"/><path class="cls-22" d="M371.14 182a13.08 13.08 0 00-3.21.42 12.81 12.81 0 010 24.82 12.61 12.61 0 003.21.42 12.83 12.83 0 100-25.66z"/><ellipse class="cls-22" cx="365.6" cy="189.26" rx="4.81" ry="3.21" transform="rotate(-45 365.601 189.253)"/><rect class="cls-4" x="262.06" y="233.29" width="25.66" height="9.62" rx="4.81"/><rect class="cls-4" x="390.38" y="194.79" width="25.66" height="9.62" rx="4.81"/><rect class="cls-4" x="172.24" y="194.79" width="25.66" height="9.62" rx="4.81"/><ellipse class="cls-25" cx="202.09" cy="194.83" rx="30.48" ry="17.64" transform="rotate(-70.4 202.083 194.833)"/><path class="cls-25" d="M304.32 79.3a128.8 128.8 0 00-23 2.08c68.26 12.38 120.8 78.83 120.8 158.32v301.56h46V239.7c.01-88.22-64.7-160.4-143.8-160.4z"/></g></g></svg>