<svg id="Ilustracja" xmlns="http://www.w3.org/2000/svg" viewBox="0 0 566.93 566.93"><defs><style>.cls-1,.cls-19,.cls-4,.cls-9{fill:none}.cls-1,.cls-4,.cls-9{stroke:#333f00}.cls-1,.cls-4{stroke-linecap:round}.cls-1{stroke-linejoin:round}.cls-1,.cls-19{stroke-width:4.26px}.cls-2{fill:#6e7832}.cls-3{fill:#324100}.cls-19,.cls-4,.cls-9{stroke-miterlimit:10}.cls-4,.cls-9{stroke-width:5.68px}.cls-5{fill:#ff8764}.cls-6{fill:#d25a3c}.cls-7{fill:#e2ab93}.cls-10{fill:#006464}.cls-11{fill:#0f373c}.cls-12{fill:#001e1d}.cls-13{fill:#ffd1b8}.cls-15{fill:#a87462}.cls-16{fill:#8e503f}.cls-17{fill:#f5a03c}.cls-19{stroke:#001e1d}</style></defs><path class="cls-1" d="M407.54 327.39c10.62-20.12 31.88-44.28 53.13-36.22s14.17 28.17 14.17 28.17M192.29 317.7c-13.26-14.17-30.44-22.09-44.14-19.63a25.46 25.46 0 00-10.93 4.77"/><path class="cls-2" d="M126.44 283.35l-18 23c-4.62 5.92-1.46 13 6 13.46l29.2 1.9a13.46 13.46 0 0012.43-6.71l.84-1.61c2.57-4.94.28-10.07-5.12-11.44-5.4-1.37-7.7-6.49-5.13-11.44 2.57-4.94.28-10.06-5.12-11.44l-1.77-.45a13.45 13.45 0 00-13.33 4.73z"/><path class="cls-3" d="M151.77 301.92c5.4 1.37 7.7 6.49 5.13 11.44l-.84 1.61a13.44 13.44 0 01-12.43 6.78l-29.19-1.89c-3.75-.24-6.42-2.13-7.57-4.69l39.35-17.63a8 8 0 005.55 4.38z"/><path class="cls-4" d="M218.35 108.44v144.91"/><rect class="cls-5" x="186.14" y="40.01" width="64.41" height="128.81" rx="32.2"/><path class="cls-6" d="M218.35 40a31.88 31.88 0 00-8 1 32.34 32.34 0 0124.15 31.18v64.4a32.34 32.34 0 01-24.15 31.18 31.89 31.89 0 008 1 32.3 32.3 0 0032.2-32.21V72.21A32.29 32.29 0 00218.35 40z"/><path class="cls-6" d="M248 149.37c.41-1 .77-1.94 1.09-3a32.1 32.1 0 001.45-9.55V72.47a32 32 0 00-1.45-9.55c-.32-1-.68-2-1.09-3-.21-.48-.42-1-.65-1.42-.4-.84-.85-1.64-1.32-2.43a50.86 50.86 0 00-11.48 80.41 51 51 0 00-1.21 28.81 32.59 32.59 0 0014-14.53c.25-.43.46-.9.66-1.39z"/><path class="cls-4" d="M439.74 56.11c-44.28 48.3-4 84.53-44.28 140.88"/><path class="cls-7" d="M441.38 414.36l64.4-76.48s-28.17-8.05-56.35 20.13c-22.14 22.13-66 56.47-66 56.47z"/><path d="M500.94 336.92l-65.22 77.46h7.37l64.4-76.48a34.71 34.71 0 00-6.55-.98z" fill="#c6856d"/><path class="cls-4" d="M145.39 104.41c7.68 5.07 47.59 47 52.42 106.35.5 6.09.59 43.23 0 50.64"/><path class="cls-7" d="M421.19 389.31l38.68-79.61s-28.18-8.05-40.26 20.13L407.54 358l-52.75 49 44.27 8.86z"/><path class="cls-1" d="M230.42 337.88c-21.54-17.2-46.42-29.07-60.42-24.15-7.16 2.52-14.65 13.7-11.3 20.13"/><path class="cls-5" d="M411.56 152.72c0 35.57-14.41 64.4-32.2 64.4s-32.2-28.83-32.2-64.4 32.2-64.41 32.2-64.41 32.2 28.83 32.2 64.41z"/><path class="cls-6" d="M379.36 88.31a106.08 106.08 0 00-10.06 10.85c9.45 11.55 22.14 31.22 22.14 53.56 0 28.53-9.29 52.72-22.14 61.18a18.17 18.17 0 0010.06 3.22c17.79 0 32.2-28.83 32.2-64.4s-32.2-64.41-32.2-64.41z"/><rect class="cls-6" x="367.28" y="152.72" width="44.28" height="16.1" rx="8.05"/><rect class="cls-5" x="355.21" y="136.61" width="44.28" height="16.1" rx="8.05"/><rect class="cls-6" x="375.34" y="124.54" width="32.2" height="12.08" rx="6.04"/><path class="cls-9" d="M426.4 261.09c1.15 6.09 4.64 28.56-8.91 49.65a64.61 64.61 0 01-19.1 19.09"/><path class="cls-10" d="M473.89 187a48.31 48.31 0 00-92.45 0 48.31 48.31 0 1046.22 82.23A48.31 48.31 0 10473.89 187z"/><path class="cls-11" d="M473.89 187a48.32 48.32 0 00-64.34-30.75A48.44 48.44 0 01437.67 187a48.31 48.31 0 014.08 91 48.31 48.31 0 1032.14-91z"/><path class="cls-12" d="M422.21 246.82v26.61a48.29 48.29 0 01-67-67H402z"/><path class="cls-13" d="M282.75 249.32h96.61v67.21h-96.61z"/><path class="cls-7" d="M411.56 345.93h-32.2v-96.61l16.1-32.2 16.1 32.2v96.61z"/><path class="cls-6" d="M395.46 217.12h-96.61l-16.1 32.2h96.61l16.1-32.2z"/><path d="M379.36 301.12v15.41h-96.61v-44.61a122.51 122.51 0 0196.61 29.2z" fill="#e5ac93"/><path class="cls-11" d="M359.23 313.73h52.33v36.23h-52.33z"/><rect class="cls-10" x="137.84" y="329.83" width="144.91" height="124.79" rx="62.39"/><path class="cls-11" d="M158 392.22a62.57 62.57 0 0162.39-62.39h-20.16a62.58 62.58 0 00-62.39 62.39 62.58 62.58 0 0062.39 62.4h20.13a62.57 62.57 0 01-62.36-62.4z"/><path class="cls-2" d="M179.81 260.25C201 294.79 239.08 310 239.08 310s3.64-40.8-17.58-75.33-59.27-49.72-59.27-49.72-3.64 40.77 17.58 75.3z"/><path class="cls-3" d="M162.23 184.92s38.05 15.18 59.27 49.72S239.08 310 239.08 310z"/><path class="cls-15" d="M298.85 265.42h16.1v24.15h-16.1z"/><path class="cls-16" d="M298.85 265.42h8.05v24.15h-8.05z"/><path class="cls-10" d="M476 410.34A48.45 48.45 0 00427.66 362h-20.84c-13.94-46.42-57.16-80.5-108-80.5-62 0-112.71 50.71-112.71 112.71v28.17H476z"/><path class="cls-11" d="M427.66 362h-20.84c-13.94-46.42-57.16-80.5-108-80.5a113 113 0 00-14 .9 113.33 113.33 0 0193.82 79.6h20.85a48.45 48.45 0 0148.3 48.31v12.07H476v-12.04A48.45 48.45 0 00427.66 362z"/><path class="cls-2" d="M162 269.45L153.53 280a129 129 0 0016.28 13.69l16.33-8.17-8.08 13.48c30.67 17.89 64 17.82 64 17.82s-16-30.31-47-49-65.28-18.56-65.28-18.56a137.71 137.71 0 0019 25.8z"/><path class="cls-3" d="M129.79 249.32s34.27-.08 65.28 18.56 47 49 47 49z"/><path class="cls-10" d="M393.47 338.61c-16.9 20.64-18.13 47.57-18.13 47.57s26.15-6.53 43.05-27.18 18.14-47.57 18.14-47.57-26.16 6.57-43.06 27.18z"/><path class="cls-11" d="M436.53 311.43s-1.24 26.93-18.14 47.57-43.05 27.18-43.05 27.18z"/><path class="cls-15" d="M347.16 265.42h16.1v24.15h-16.1z"/><path class="cls-9" d="M210.3 156.74c9.44 4 58.46 37.34 64.4 84.53.61 4.84.72 34.37 0 40.26"/><path class="cls-9" d="M286.89 152.72a302.14 302.14 0 00-12.08 76.48c-.15 5.5-.14 10.87 0 16.1"/><path class="cls-2" d="M323 80.26a40.15 40.15 0 00-15.8 3.22 40.25 40.25 0 10-59.71 49.81 40.25 40.25 0 1074.7 27.46h.81a40.26 40.26 0 000-80.51z"/><path class="cls-3" d="M363.26 120.52A40.25 40.25 0 01323 160.76h-.8a40.28 40.28 0 01-55.55 28.87A40.37 40.37 0 00290 160.75h.81a40.25 40.25 0 10-12-78.68c-1.31.41-2.58.88-3.82 1.4a40.31 40.31 0 00-20.45-20 40.38 40.38 0 0133 .33A28.15 28.15 0 01335 82.06a40.29 40.29 0 0128.26 38.46z"/><rect class="cls-3" x="266.63" y="160.77" width="44.28" height="12.08" rx="6.04"/><path class="cls-2" d="M238.47 144.66a16.07 16.07 0 00-9 2.73A16.09 16.09 0 10206 166.5a16.1 16.1 0 1028.41 10.37v-.54a16.1 16.1 0 104.05-31.67z"/><path class="cls-3" d="M213.4 147.39a16.06 16.06 0 0115.58-1.3 16 16 0 00-22.71-7.3 16.15 16.15 0 017.13 8.6zM238.47 144.66a16 16 0 00-8.06 2.17 16.07 16.07 0 01-12.09 29.5v.54a16.11 16.11 0 01-8 13.93 16.08 16.08 0 0024.15-13.93v-.54a16.09 16.09 0 104.05-31.67z"/><path class="cls-1" d="M192.94 276.28c1.25-31-35.42-91.86-67.13-62.61-8.1 7.48-5.91 18.78 1.32 23.44 5.89 3.79 16.12 3.93 18.18-8.63"/><path class="cls-12" d="M339.11 358s-60.11 20.9 15.68 36.23l30.61 8.05 66.08-16.11 7.38 11.83-69.44 17.83-130.82-24.29L270.92 373z"/><rect class="cls-11" x="234.45" y="301.65" width="60.38" height="12.08" rx="6.04"/><path class="cls-10" d="M116.27 195.33a12.07 12.07 0 11-13 20.38c-5.63-3.57-13.91-23.14-13.91-23.14s21.28-.82 26.91 2.76z"/><path class="cls-11" d="M89.41 192.57s8.28 19.57 13.91 23.14A12.08 12.08 0 00120 212z"/><path class="cls-5" d="M125 151a12.08 12.08 0 0117.57 16.57c-4.58 4.85-25.36 9.29-25.36 9.29s3.24-21 7.79-25.86z"/><path class="cls-6" d="M117.24 176.87s20.78-4.44 25.36-9.29a12.07 12.07 0 00-.5-17.07z"/><path class="cls-10" d="M100.41 210.26A12.07 12.07 0 11110.86 232c-6 2.89-27-.43-27-.43s10.54-18.42 16.55-21.31z"/><path class="cls-11" d="M83.86 231.6s21 3.32 27 .43a12.07 12.07 0 005.66-16.11z"/><path class="cls-4" d="M137.84 140.64c3.86 0 34.75.44 49.73 28.18a63.28 63.28 0 016.62 20.12"/><circle class="cls-17" cx="379.36" cy="313.73" r="12.08"/><circle class="cls-17" cx="484.02" cy="293.6" r="12.08"/><path class="cls-4" d="M415.85 144.66c2.61-5.4 13.15-25.66 32.08-26.66a30.5 30.5 0 0111.8 1.82"/><path class="cls-16" d="M347.16 265.42h8.05v24.15h-8.05zM282.75 249.32h96.61v4.03h-96.61z"/><path class="cls-17" d="M266.37 253.48a31.71 31.71 0 00.28-4.16 32.2 32.2 0 00-64.4 0 33.54 33.54 0 00.27 4.16 32.2 32.2 0 1031.93 55.93 32.2 32.2 0 1031.92-55.93z"/><path d="M266.37 253.48a31.71 31.71 0 00.28-4.16 32.2 32.2 0 00-32.2-32.2v8h-6a6 6 0 100 12.08h14.05a8 8 0 110 16.1h-12.08a8.07 8.07 0 00-8 8 8.07 8.07 0 008 8.05h4v40a32.2 32.2 0 1031.92-55.93z" fill="#d17820"/><path class="cls-10" d="M238.07 311a24.15 24.15 0 10-47.68-5.58 23.65 23.65 0 00.54 5.22 24.14 24.14 0 1023.25 41.11A24.14 24.14 0 10238.07 311z"/><path class="cls-11" d="M238.07 311a24.12 24.12 0 00-33.43-27.41 24.14 24.14 0 0113.92 22 23.58 23.58 0 01-.62 5.21 24.13 24.13 0 012.27 44.9 23.86 23.86 0 0010 2.31 24.15 24.15 0 007.86-47.01z"/><rect class="cls-11" x="206.27" y="309.7" width="24.15" height="8.05" rx="4.03"/><path class="cls-13" d="M540.37 406.31L322.59 476.1l-119.52 10.72s-69.26 8.05-92.92 75.81c-30-21.72-60-41.23-81-71.79 76.48-48.3 102.83-121.79 173.91-138.7 35.51-8.45 115-27.48 128-30.36 36.22-8 43.48 23 8.05 36.23s-72.46 28.17-72.46 28.17l120.76 24.16s135.26-43.88 152.96-4.03z"/><path class="cls-7" d="M516.91 391.94l-214.45 68.72-119.52 10.72S113.69 479.43 90 547.2c-10-7.24 3 3.68 20.13 16.1 23.66-67.77 92.92-75.82 92.92-75.82l119.52-10.72L540.37 407c-3.62-8.17-12.16-12.82-23.46-15.06z"/><rect class="cls-11" x="415.59" y="176.87" width="40.25" height="12.08" rx="6.04"/><rect class="cls-11" x="443.77" y="201.02" width="40.25" height="12.08" rx="6.04"/><rect class="cls-10" x="423.64" y="188.94" width="40.25" height="12.08" rx="6.04"/><path class="cls-7" d="M371.31 269.45h20.13v8.05h-20.13zM367.28 281.53h16.1v8.05h-16.1z"/><path class="cls-10" d="M466.54 37a24.62 24.62 0 002.29-4.73 24.15 24.15 0 00-45.52-16.17 24.59 24.59 0 00-1.2 5.11 24.15 24.15 0 108.52 46.46A24.14 24.14 0 10466.54 37z"/><path class="cls-11" d="M466.54 37a24.62 24.62 0 002.29-4.73A24.11 24.11 0 00443.93.12a24.08 24.08 0 013.64 30.11A24.13 24.13 0 01435 73.4a24.1 24.1 0 0039.57-9.21A24.16 24.16 0 00466.54 37z"/><rect class="cls-11" x="435.72" y="27.93" width="24.15" height="8.05" rx="4.03"/><rect class="cls-11" x="443.77" y="44.03" width="24.15" height="8.05" rx="4.03"/><rect class="cls-10" x="435.72" y="35.98" width="24.15" height="8.05" rx="4.03"/><path class="cls-10" d="M492.07 92.33h-4.19a14.07 14.07 0 00-27.85 0h-.16a12.12 12.12 0 00-12.08 12.08v4a12.08 12.08 0 000 24.15H480a12.11 12.11 0 0012.08-12.08v-4a12.08 12.08 0 000-24.16z"/><path class="cls-11" d="M492.07 92.33h-4.19A14.12 14.12 0 00474 80.26a13.9 13.9 0 00-8 2.56 14.17 14.17 0 015.87 9.51H476a12.08 12.08 0 010 24.16v4a12.12 12.12 0 01-12.08 12.08H480a12.11 12.11 0 0012.08-12.08v-4a12.08 12.08 0 000-24.16z"/><rect class="cls-11" x="459.87" y="116.49" width="24.15" height="8.05" rx="4.03"/><rect class="cls-11" x="463.89" y="92.33" width="28.18" height="8.05" rx="4.03"/><path class="cls-10" d="M115.59 132.78a12.07 12.07 0 014.25 23.77c-6.57 1.18-25.9-7.63-25.9-7.63S109 134 115.59 132.78z"/><path class="cls-11" d="M93.94 148.92s19.33 8.81 25.9 7.63a12.07 12.07 0 009.76-14z"/><path class="cls-10" d="M440.39 308.39a12.08 12.08 0 0120-13.48c3.72 5.54 3.46 26.78 3.46 26.78s-19.74-7.76-23.46-13.3z"/><path class="cls-11" d="M463.89 321.69s.26-21.24-3.46-26.78a12.08 12.08 0 00-16.76-3.28z"/><circle class="cls-5" cx="323.01" cy="164.79" r="8.05"/><path class="cls-6" d="M323 156.74a8.41 8.41 0 00-2 .26 8 8 0 010 15.58 8.41 8.41 0 002 .26 8 8 0 100-16.1z"/><circle class="cls-5" cx="238.47" cy="184.92" r="8.05"/><path class="cls-6" d="M238.47 176.87a7.91 7.91 0 00-2 .26 8 8 0 010 15.57 7.92 7.92 0 002 .27 8 8 0 100-16.1z"/><circle class="cls-5" cx="294.83" cy="188.94" r="8.05"/><path class="cls-6" d="M294.83 180.89a7.8 7.8 0 00-2 .27 8 8 0 010 15.57 7.8 7.8 0 002 .26 8.05 8.05 0 000-16.1z"/><path class="cls-3" d="M274.7 120.52a12.09 12.09 0 01-12.07 12.07h-16.1c-.54-.4-1.07-.83-1.59-1.25s-.78-.67-1.17-1c-.41-.37-.81-.74-1.19-1.13s-.94-.93-1.39-1.42-.81-.89-1.2-1.34-.61-.73-.89-1.1c-.16-.2-.33-.41-.47-.61s-.5-.65-.72-1c-.12-.15-.22-.3-.33-.45-.29-.4-.55-.83-.82-1.24s-.64-1-1-1.56-.46-.84-.69-1.26c-.4-.76-.77-1.52-1.12-2.3-.2-.46-.4-.9-.59-1.37s-.45-1.13-.65-1.72-.4-1.16-.58-1.76-.34-1.19-.5-1.79c-.14-.59-.27-1.19-.4-1.8a40.23 40.23 0 011.25-20.82 32.22 32.22 0 0030.13 20.82 12.11 12.11 0 0112.09 12.03z"/><path class="cls-7" d="M363.37 457.68a53.77 53.77 0 00-32.87-21.91 54.66 54.66 0 00-15.91-1.12 53.25 53.25 0 00-10.15 1.77c-.83.23-1.65.47-2.47.74a54.65 54.65 0 00-7 2.87q-2.25 1.11-4.43 2.46a51.89 51.89 0 00-14.78 13.69 50.23 50.23 0 00-4.05 6.59c-.8 1.56-1.52 3.16-2.15 4.76a51.52 51.52 0 00-2.31 7.65 35.18 35.18 0 00-.56 3.66l42.6-3.84z"/><path class="cls-6" d="M367.28 217.12h-36.22v-20.13h20.12l16.1 20.13z"/><path class="cls-13" d="M347.16 217.12l-16.1-20.13-16.11 20.13v32.2h32.21v-32.2z"/><path class="cls-7" d="M367.28 217.12h-20.12v32.2l20.12-32.2z"/><path class="cls-16" d="M314.96 217.12h32.2v4.03h-32.2z"/><path class="cls-15" d="M323 249.32v-12.07a8.07 8.07 0 018.05-8.05 8.08 8.08 0 018.05 8.05v12.07z"/><path class="cls-16" d="M335.08 230.29a8 8 0 00-4-1.09 8.07 8.07 0 00-8.05 8.05v12.07h8.05v-12.07a8.06 8.06 0 014-6.96z"/><path class="cls-7" d="M314.96 221.15h36.23v4.03h-36.23zM282.75 253.35h100.63v4.03H282.75z"/><path class="cls-19" d="M298.85 390.21c14.24 3.07 46 12.06 72.46 40.25a133.68 133.68 0 0124.15 36.23"/><path class="cls-19" d="M318.94 390.21c4.54 4 23.2 21.4 24.15 48.3a62.38 62.38 0 01-4 24.16"/><path class="cls-2" d="M403.51 482.79l13.94-5.57c.54-3.56.95-7.12 1.15-10.53h-19.11l19.15-8.21a27.27 27.27 0 00-2.1-9.56 32.2 32.2 0 10-58.24 27.5c7.59 16.09 51.46 33.57 51.46 33.57a252.42 252.42 0 006.76-27.2z"/><path class="cls-3" d="M409.76 510l-36.09-76.44a32.21 32.21 0 00-15.37 42.87c7.59 16.08 51.46 33.57 51.46 33.57z"/><path class="cls-10" d="M324.49 480.58a4 4 0 01-1.21 5.54l-27.66 17.71a4 4 0 00-1.73 4.33c.47 1.94 1 3.91 1.5 5.89a4 4 0 006 2.33l12.54-8a4 4 0 015.53 1.21 4 4 0 01-1.21 5.54l-16.45 10.53a4 4 0 00-1.66 4.58c.41 1.28.83 2.55 1.24 3.81a4 4 0 006 2.1l3.75-2.4a4 4 0 015.53 1.21 4 4 0 01-1.21 5.54l-7 4.47a4 4 0 00-1.61 4.74c2.19 6 4.17 11.14 5.58 14.71a4 4 0 006.49 1.43c2.77-2.66 6.71-6.48 11.22-11a4 4 0 00.52-5l-4.47-7a4 4 0 011.21-5.53 4 4 0 015.61 1.18l2.4 3.76a4 4 0 006.3.58l2.72-2.94a4 4 0 00.41-4.86l-10.58-16.44a4 4 0 011.21-5.54 4 4 0 015.53 1.22l8 12.53a4 4 0 006.45.41q2-2.37 3.83-4.72a4 4 0 00.24-4.66l-17.71-27.66a4 4 0 011.21-5.53 4 4 0 015.53 1.21L362.75 508a4 4 0 006.84-.14 40 40 0 004.81-11c4.89-22.33-9.83-44.53-32.88-49.59s-45.71 9-50.61 31.29a40 40 0 00-.23 12 4 4 0 006.15 3L319 479.37a4 4 0 015.49 1.21z"/><path class="cls-11" d="M290.68 490.55a4 4 0 006.15 3L319 479.37a4 4 0 014.32 6.75l-27.66 17.71a4 4 0 00-1.73 4.33c.47 1.94 1 3.91 1.5 5.89a4 4 0 006 2.33l12.54-8a4 4 0 014.32 6.75l-16.45 10.53a4 4 0 00-1.66 4.58c.41 1.28.83 2.55 1.24 3.81a4 4 0 006 2.1l3.75-2.4a4 4 0 014.32 6.75l-7 4.47a4 4 0 00-1.61 4.74c2.19 6 4.17 11.14 5.58 14.71a4 4 0 002.86 2.45l26.22-119.59c-23-5.05-45.71 9-50.61 31.29a40 40 0 00-.25 11.98z"/></svg>