<svg xmlns="http://www.w3.org/2000/svg" viewBox="0 0 566.93 566.93"><defs><style>.cls-1{isolation:isolate;}.cls-2{fill:#faebdc;}.cls-3{fill:#324100;}.cls-4{fill:#202600;}.cls-5{fill:#006464;}.cls-6{fill:#0f373c;}.cls-7{fill:none;stroke:#472300;stroke-linecap:round;stroke-linejoin:round;stroke-width:2px;}.cls-8{fill:#6e7832;}.cls-9{fill:#f5a03c;}.cls-10{fill:#919191;}.cls-11{fill:#ff8764;}.cls-12{fill:#d25a3c;}.cls-13{fill:#b7b7b7;}.cls-14{fill:#fff;}.cls-15{fill:#444;mix-blend-mode:difference;}.cls-16{fill:#d8aa91;}.cls-17{fill:#e2bbaa;}</style></defs><g class="cls-1"><g id="Tlo"><rect class="cls-2" width="566.93" height="566.93"/></g><g id="Ilustracja"><path class="cls-3" d="M280,308.8a23.12,23.12,0,0,0,.67-5.49A22.68,22.68,0,1,0,236,308.8a22.68,22.68,0,0,0,10.66,42.7A22.44,22.44,0,0,0,258,348.45a22.68,22.68,0,1,0,22-39.65Z"/><path class="cls-4" d="M269.18,351.5h.26A22.68,22.68,0,0,0,280,308.81a23.14,23.14,0,0,0,.67-5.5,22.69,22.69,0,0,0-13.86-20.9l-3.56,68.26A22.59,22.59,0,0,0,269.18,351.5Z"/><path class="cls-4" d="M238.11,345.82a28.35,28.35,0,0,1,56.7,0Z"/><path class="cls-5" d="M521.58,422.35a22.53,22.53,0,0,1-.72,5.67c-.09.35-.19.69-.29,1a22.79,22.79,0,0,1-21.67,16h-85a5.67,5.67,0,1,0,0,11.34h79.37a5.67,5.67,0,0,1,0,11.34H345.83a5.67,5.67,0,1,0,0,11.34H425.2a5.67,5.67,0,1,1,0,11.34H303.31a5.67,5.67,0,1,0,0,11.33h31.18a5.67,5.67,0,1,1,0,11.34H164.41a5.67,5.67,0,0,1,0-11.34h36.85a5.67,5.67,0,1,0,0-11.33H187.09a5.67,5.67,0,0,1,0-11.34h56.69a5.67,5.67,0,0,0,0-11.34H119.06a5.67,5.67,0,0,1,0-11.34h34a5.67,5.67,0,0,0,0-11.34H68a22.75,22.75,0,0,1-21.66-16c-.1-.34-.2-.68-.29-1a22.53,22.53,0,0,1-.72-5.67Z"/><path class="cls-6" d="M521.58,422.35a22.53,22.53,0,0,1-.72,5.67H46.08a22.53,22.53,0,0,1-.72-5.67Z"/><path class="cls-7" d="M445.45,283.49c-6.23,13.33-14,24.18-23.38,25.38a13.54,13.54,0,0,1-2.54.08"/><path class="cls-7" d="M461.05,288.63c-10.38,10.44-21.41,18-30.6,16a14,14,0,0,1-2.42-.78"/><path class="cls-7" d="M424.67,281.21c4.26,14.09,5.69,27.39-.47,34.51a13.28,13.28,0,0,1-1.84,1.76"/><path class="cls-8" d="M470.55,266.43h-8.5a5.68,5.68,0,0,1-5.62-6.43,5.81,5.81,0,0,1,5.83-4.9h2.62a11.38,11.38,0,0,0,11.34-11.34h0a11.37,11.37,0,0,0-11.34-11.34h0a8.51,8.51,0,0,1-8.5-8.51,17,17,0,0,0-17-17h0a17,17,0,0,0-17,17,8.5,8.5,0,0,1-8.5,8.51h0a11.37,11.37,0,0,0-11.34,11.34h0a11.38,11.38,0,0,0,11.34,11.34h2.62a5.81,5.81,0,0,1,5.83,4.9,5.68,5.68,0,0,1-5.62,6.43h-8.5a11.38,11.38,0,0,0-11.34,11.34h0a11.37,11.37,0,0,0,11.34,11.34h62.36a11.37,11.37,0,0,0,11.34-11.34h0A11.38,11.38,0,0,0,470.55,266.43Z"/><path class="cls-3" d="M448.61,209.69a6.18,6.18,0,0,1,.53.36A6.18,6.18,0,0,0,448.61,209.69Z"/><path class="cls-3" d="M449.94,210.65c.21.16.4.33.6.5C450.34,211,450.15,210.81,449.94,210.65Z"/><path class="cls-3" d="M451.83,212.41c-.21-.23-.42-.45-.64-.66C451.41,212,451.62,212.18,451.83,212.41Z"/><path class="cls-3" d="M445.78,208.2l.29.12Z"/><path class="cls-3" d="M447.21,208.87l.44.23Z"/><path class="cls-3" d="M470.55,266.43h-8.5a5.68,5.68,0,0,1-5.62-6.43,5.81,5.81,0,0,1,5.83-4.9h2.62a11.38,11.38,0,0,0,11.34-11.34h0a11.37,11.37,0,0,0-11.34-11.34,8.51,8.51,0,0,1-8.5-8.51,16.86,16.86,0,0,0-4.16-11.07,14.16,14.16,0,0,1-12.85,8.22v0a5.67,5.67,0,0,0,0,11.34H445a11.37,11.37,0,0,1,11.34,11.34h0A11.38,11.38,0,0,1,445,255.1h-5.67a5.67,5.67,0,1,0,0,11.33H445a11.34,11.34,0,0,1,0,22.68h25.51a11.37,11.37,0,0,0,11.34-11.34h0A11.38,11.38,0,0,0,470.55,266.43Z"/><path class="cls-3" d="M444.36,207.68l.07,0Z"/><path class="cls-7" d="M188.87,267.91c0,10.41,1.37,47.21,29.69,72.21a81.45,81.45,0,0,0,10.22,7.67"/><path class="cls-4" d="M421.69,303.14a22.68,22.68,0,1,0-44,0,22.68,22.68,0,1,0,22,39.65,22.68,22.68,0,1,0,22-39.65Z"/><path class="cls-4" d="M129.72,379.67A22.68,22.68,0,1,0,85,374.17a23.14,23.14,0,0,0,.67,5.5,22.68,22.68,0,1,0,22,39.65,22.68,22.68,0,1,0,22-39.65Z"/><path class="cls-7" d="M186.45,311.81c2.88,7.05,5.22,17.62,0,29.48a43.4,43.4,0,0,1-4.18,7.37"/><path class="cls-7" d="M154.27,331.65c1.49,6.3,5.43,13.36,16.58,11.91a36.2,36.2,0,0,0,7.73-2"/><path class="cls-7" d="M164.41,312.42c3.47,12.57,11.15,32.09,29.07,46.33a75.17,75.17,0,0,0,10.38,6.92"/><path class="cls-8" d="M172.91,280.63a22.49,22.49,0,0,0-11.4,3.08,22.68,22.68,0,1,0-30.87,30.87A22.67,22.67,0,1,0,172.91,326a22.68,22.68,0,1,0,0-45.35Z"/><path class="cls-3" d="M172.91,280.63a22.62,22.62,0,0,0-7.07,1.14,22.67,22.67,0,0,1-7.1,44.21,22.7,22.7,0,0,1-15.59,21.55A22.69,22.69,0,0,0,172.91,326a22.68,22.68,0,1,0,0-45.35Z"/><polygon class="cls-3" points="153.07 325.98 172.91 325.98 175.75 320.31 153.07 320.31 153.07 325.98"/><rect class="cls-3" x="147.4" y="320.32" width="14.17" height="5.67" rx="2.83"/><path class="cls-3" d="M161.57,283.71a22.64,22.64,0,0,0-11.27,19.6c0-13.57-5.29-25.28-13-30.74a22.67,22.67,0,0,1,24.22,11.14Z"/><rect class="cls-3" x="147.4" y="280.63" width="2.83" height="25.51" rx="1.42"/><path class="cls-3" d="M158.74,320.32s19.84,2.83,22.68-17h2.83v14.17l-11.34,5.67-8.5,2.83Z"/><path class="cls-7" d="M198.43,275c1.07,3.44,4,11.55,10.63,15.46A15.1,15.1,0,0,0,212.6,292"/><path class="cls-7" d="M210.1,269.29c3.5,16.76,3.48,33.9-5.39,46.59a34,34,0,0,1-2.6,3.3"/><path class="cls-6" d="M492.55,371.17a22.68,22.68,0,1,0-44,0,22.68,22.68,0,1,0,22,39.65,22.68,22.68,0,1,0,22-39.65Z"/><circle class="cls-5" cx="481.89" cy="391.18" r="22.68"/><path class="cls-6" d="M481.89,368.5a22.94,22.94,0,0,0-4.25.41,22.67,22.67,0,0,1,0,44.54,22.11,22.11,0,0,0,4.25.41,22.68,22.68,0,1,0,0-45.36Z"/><path class="cls-5" d="M458.54,328.65a22.68,22.68,0,1,0-44,0,22.68,22.68,0,1,0,22,39.65,22.68,22.68,0,1,0,22-39.65Z"/><path class="cls-6" d="M458.54,328.65a22.68,22.68,0,0,0-27.67-27.46,22.72,22.72,0,0,1,16.29,16.29h-7.79a5.67,5.67,0,1,0,0,11.34h8.13a22.68,22.68,0,0,1-5.27,41.8,22.67,22.67,0,0,0,16.31-42Z"/><path class="cls-8" d="M416.08,357a15.68,15.68,0,0,1-24.44-19.64c5.43-6.75,39.23-23.79,39.23-23.79S421.51,350.23,416.08,357Z"/><path class="cls-3" d="M416.08,357c5.43-6.75,14.79-43.43,14.79-43.43l-36.82,45.83A15.67,15.67,0,0,0,416.08,357Z"/><circle class="cls-9" cx="306.14" cy="130.39" r="90.71"/><path class="cls-8" d="M119.23,352.07a9.68,9.68,0,1,1-13.65,13.72c-3.79-3.77-12-25.63-12-25.63S115.44,348.3,119.23,352.07Z"/><path class="cls-3" d="M119.23,352.07c-3.79-3.77-25.69-11.91-25.69-11.91l25.73,25.59A9.67,9.67,0,0,0,119.23,352.07Z"/><path class="cls-10" d="M204.09,411H90.71a45.49,45.49,0,0,1,45.35-45.35h22.68A45.48,45.48,0,0,1,204.09,411h0"/><path class="cls-11" d="M399.69,309a22.67,22.67,0,0,0-11.34-19.64V272.13a22.68,22.68,0,1,0-45.36,0v17.21a22.67,22.67,0,0,0,11.34,42.31H377A22.68,22.68,0,0,0,399.69,309Z"/><path class="cls-12" d="M388.35,289.34V272.13a22.68,22.68,0,0,0-22.68-22.68A11.37,11.37,0,0,1,377,260.79v17a11.37,11.37,0,0,1-11.34,11.33h-8.5a5.67,5.67,0,0,0,0,11.34h8.5a11.34,11.34,0,0,1,0,22.68h-1.42a4.25,4.25,0,0,0,0,8.5H377a22.67,22.67,0,0,0,11.34-42.31Z"/><path class="cls-8" d="M379.17,334.32a22.68,22.68,0,1,0-44,0,22.68,22.68,0,1,0,22,39.65,22.68,22.68,0,1,0,22-39.65Z"/><path class="cls-3" d="M379.17,334.32a22.68,22.68,0,0,0-27.67-27.46,22.71,22.71,0,0,1,16.33,27.46,22.68,22.68,0,0,1-5,42,22.67,22.67,0,0,0,16.31-42Z"/><rect class="cls-3" x="354.33" y="325.98" width="22.68" height="8.5" rx="4.25"/><path class="cls-13" d="M408.19,411V365.67A22.75,22.75,0,0,1,430.87,343h0a22.74,22.74,0,0,1,22.67,22.68V411Z"/><path class="cls-10" d="M430.87,343a22.46,22.46,0,0,0-7.09,1.15,22.76,22.76,0,0,1,15.59,21.53V411h14.17V365.67A22.74,22.74,0,0,0,430.87,343Z"/><rect class="cls-10" x="430.87" y="360" width="14.17" height="5.67"/><rect class="cls-13" x="430.87" y="365.67" width="14.17" height="5.67"/><path class="cls-13" d="M430.87,411h0a22.73,22.73,0,0,1,22.67-22.67h0A22.74,22.74,0,0,1,476.22,411H430.87Z"/><path class="cls-10" d="M430.87,411h45.35a22.65,22.65,0,0,0-.72-5.67H431.59A22.65,22.65,0,0,0,430.87,411Z"/><rect class="cls-8" x="158.74" y="365.67" width="68.03" height="45.35"/><path class="cls-8" d="M450.7,411h-289a91.57,91.57,0,0,1,39.28-53.85A89.88,89.88,0,0,1,249.47,343H362.88C405,343,440.57,372,450.7,411Z"/><polygon class="cls-14" points="329.53 138.9 282.76 138.9 272.13 342.99 340.16 342.99 329.53 138.9"/><rect class="cls-14" x="272.13" y="124.72" width="68.03" height="14.17" rx="7.09"/><path class="cls-15" d="M333.07,124.72H313.23a7.09,7.09,0,0,1,0,14.18h19.84a7.09,7.09,0,1,0,0-14.18Z"/><polygon class="cls-11" points="330.71 161.57 281.58 161.57 282.76 138.9 329.53 138.9 330.71 161.57"/><polygon class="cls-11" points="333.07 206.93 279.22 206.93 280.4 184.25 331.89 184.25 333.07 206.93"/><polygon class="cls-11" points="335.44 252.28 276.85 252.28 278.04 229.61 334.25 229.61 335.44 252.28"/><polygon class="cls-11" points="337.8 297.64 274.49 297.64 275.67 274.96 336.62 274.96 337.8 297.64"/><polygon class="cls-11" points="340.16 342.99 272.13 342.99 273.31 320.31 338.98 320.31 340.16 342.99"/><path class="cls-3" d="M362.89,343H303.36A90.65,90.65,0,0,1,374,377h10.07a4.25,4.25,0,1,1,0,8.5H361.42a4.26,4.26,0,0,0,0,8.51H401.1a4.25,4.25,0,0,1,0,8.5h-119a4.25,4.25,0,1,0,0,8.5H450.71C440.57,372,405,343,362.89,343Z"/><path class="cls-3" d="M232.44,361.42a4.27,4.27,0,0,1-4.26,4.25H189.64a90.83,90.83,0,0,1,11.29-8.5h27.25A4.27,4.27,0,0,1,232.44,361.42Z"/><path class="cls-3" d="M170.08,365.67h0a22.76,22.76,0,0,0-22.35,18.89v0c-.06.38-.11.76-.16,1.15,0,0,0,.07,0,.11,0,.35-.07.71-.09,1.06a1.5,1.5,0,0,0,0,.2c0,.42,0,.83,0,1.25V411h45.36V388.35A22.75,22.75,0,0,0,170.08,365.67Z"/><rect class="cls-14" x="283.46" y="96.38" width="45.35" height="28.35"/><path class="cls-14" d="M277.8,96.38a28.35,28.35,0,1,1,56.69,0Z"/><path class="cls-15" d="M306.14,68a28.4,28.4,0,0,0-8.5,1.3,28.36,28.36,0,0,1,19.84,27.05h17A28.35,28.35,0,0,0,306.14,68Z"/><rect class="cls-15" x="283.46" y="96.38" width="45.35" height="5.67"/><path class="cls-8" d="M140.24,353.1c3.1,5.44,1,12.5-4.76,15.78s-12.91,1.53-16-3.91-5.09-33-5.09-33S137.13,347.66,140.24,353.1Z"/><path class="cls-3" d="M140.24,353.1c-3.11-5.44-25.86-21.14-25.86-21.14l21.1,36.92C141.21,365.6,143.34,358.54,140.24,353.1Z"/><path class="cls-15" d="M340.16,343l-1.23-23.6h0l-9.4-180.49H282.76l-.45,8.49h23.21a13.81,13.81,0,0,1,13.79,13.1l8.07,154.82h-7.73a16.38,16.38,0,0,0-15.58,11.4,16.35,16.35,0,0,0-12.53,7.78h-19l-.44,8.5h68Z"/><rect class="cls-16" x="68.03" y="411.02" width="430.87" height="11.34" rx="5.67"/><path class="cls-3" d="M340.16,331.65h0a11.38,11.38,0,0,0-11.34-11.34h-8.51A11.37,11.37,0,0,0,309,331.65h-2.84A11.38,11.38,0,0,0,294.8,343h56.7A11.38,11.38,0,0,0,340.16,331.65Z"/><path class="cls-3" d="M297.64,377c-1,0-2,.05-3,.13a22.68,22.68,0,0,0-42.39,11.21H229.61a11.37,11.37,0,0,0-11.34,11.34h0A11.37,11.37,0,0,0,229.61,411H331.66A34,34,0,0,0,297.64,377Z"/><path class="cls-5" d="M198.43,229.61a22.54,22.54,0,0,0-11.34,3,22.67,22.67,0,0,0-31,31A22.68,22.68,0,1,0,198.43,275a22.68,22.68,0,0,0,0-45.35Z"/><path class="cls-6" d="M221.1,252.28a22.68,22.68,0,0,0-31.17-21,22.68,22.68,0,0,1,14,18.19h-1.22a4.25,4.25,0,0,0,0,8.5h2.83a4.26,4.26,0,0,1,0,8.51h-6.4a22.63,22.63,0,0,1-17.69,8.5H171.5a4.25,4.25,0,1,0,0,8.5h8.26A22.7,22.7,0,0,1,167.24,296a22.67,22.67,0,0,0,31.19-21A22.67,22.67,0,0,0,221,254.69a4.07,4.07,0,0,0,.13-1,2.4,2.4,0,0,0,0-.28Q221.1,252.85,221.1,252.28Z"/><rect class="cls-11" x="158.74" y="119.06" width="8.5" height="2.83" rx="1.42"/><path class="cls-14" d="M144.57,96.38v22.68h8.5V104.88A8.52,8.52,0,0,0,144.57,96.38Z"/><path class="cls-14" d="M144.57,141.73V119.06h8.5v14.17A8.52,8.52,0,0,1,144.57,141.73Z"/><path class="cls-14" d="M158.74,116.22H136.06a2.84,2.84,0,0,0,0,5.67h25.51v-2.83A2.84,2.84,0,0,0,158.74,116.22Z"/><polygon class="cls-14" points="141.73 116.22 130.39 110.55 130.39 127.56 141.73 121.89 141.73 116.22"/><rect class="cls-11" x="119.06" y="170.08" width="8.5" height="2.83" rx="1.42"/><path class="cls-14" d="M104.88,147.4v22.68h8.51V155.91A8.54,8.54,0,0,0,104.88,147.4Z"/><path class="cls-14" d="M104.88,192.76V170.08h8.51v14.17A8.54,8.54,0,0,1,104.88,192.76Z"/><path class="cls-14" d="M119.06,167.24H96.38a2.84,2.84,0,1,0,0,5.67h25.51v-2.83A2.85,2.85,0,0,0,119.06,167.24Z"/><polygon class="cls-14" points="102.05 167.24 90.71 161.57 90.71 178.58 102.05 172.91 102.05 167.24"/><rect class="cls-11" x="459.21" y="147.4" width="8.5" height="2.83" rx="1.42"/><path class="cls-14" d="M445,124.72V147.4h8.5V133.23A8.53,8.53,0,0,0,445,124.72Z"/><path class="cls-14" d="M445,170.08V147.4h8.5v14.17A8.53,8.53,0,0,1,445,170.08Z"/><path class="cls-14" d="M459.21,144.57H436.54a2.84,2.84,0,1,0,0,5.67h25.51V147.4A2.84,2.84,0,0,0,459.21,144.57Z"/><polygon class="cls-14" points="442.2 144.57 430.87 138.9 430.87 155.91 442.2 150.24 442.2 144.57"/><rect class="cls-15" x="283.46" y="119.06" width="45.35" height="5.67"/><rect class="cls-6" x="260.79" y="422.36" width="73.7" height="11.34" rx="5.67"/><path class="cls-13" d="M275,428h0a22.75,22.75,0,0,1,22.68-22.68h0A22.74,22.74,0,0,1,320.31,428H275Z"/><path class="cls-10" d="M275,428h45.36a22.65,22.65,0,0,0-.73-5.67H275.68A22.65,22.65,0,0,0,275,428Z"/><rect class="cls-6" x="167.24" y="445.04" width="73.7" height="11.34" rx="5.67"/><path class="cls-13" d="M181.42,450.71h0A22.74,22.74,0,0,1,204.09,428h0a22.75,22.75,0,0,1,22.68,22.68H181.42Z"/><path class="cls-10" d="M181.42,450.71h45.35a22.53,22.53,0,0,0-.72-5.67H182.14A22.53,22.53,0,0,0,181.42,450.71Z"/><path class="cls-13" d="M136.06,411V388.35a22.75,22.75,0,0,1,22.68-22.68h0a22.75,22.75,0,0,1,22.68,22.68V411Z"/><path class="cls-10" d="M136.63,383.36a22.19,22.19,0,0,0-.57,5V411h27.68A27.7,27.7,0,0,0,136.63,383.36Z"/><rect class="cls-10" x="158.74" y="402.52" width="22.68" height="8.5"/><rect class="cls-10" x="167.24" y="391.18" width="14.17" height="5.67"/><path class="cls-13" d="M113.39,411h0a22.73,22.73,0,0,1,22.67-22.67h0A22.74,22.74,0,0,1,158.74,411H113.39Z"/><path class="cls-10" d="M113.39,411h45.35a22.65,22.65,0,0,0-.72-5.67H114.11A22.65,22.65,0,0,0,113.39,411Z"/><path class="cls-4" d="M268.09,405.35H256.68c-.08-.42-.17-.84-.28-1.26a27.81,27.81,0,0,0-5-10.08h15.06a2.84,2.84,0,0,0,0-5.67h-5.67a22.69,22.69,0,0,1,18.41-22.27,22.67,22.67,0,0,0-26.91,22.27H229.61a11.34,11.34,0,0,0,0,22.68h44.15A5.68,5.68,0,0,0,268.09,405.35Z"/><path class="cls-13" d="M206.93,411h0a22.74,22.74,0,0,1,22.68-22.67h0A22.73,22.73,0,0,1,252.28,411H206.93Z"/><path class="cls-10" d="M206.93,411h45.35a22.65,22.65,0,0,0-.72-5.67H207.65A22.65,22.65,0,0,0,206.93,411Z"/><path class="cls-4" d="M340.16,331.65a11.37,11.37,0,0,0-11.34-11.34h-8.51a10.88,10.88,0,0,0-1.41.1,11.39,11.39,0,0,1,9.55,8.41h-6.72a1.42,1.42,0,0,0,0,2.83h7.09A11.37,11.37,0,0,1,340.16,343H351.5A11.38,11.38,0,0,0,340.16,331.65Z"/><path class="cls-2" d="M249.3,148.8a23.39,23.39,0,0,0-22.06-15.6,15.59,15.59,0,0,0-31.18,0v.08c-.64-.05-1.29-.08-1.95-.08a23.39,23.39,0,1,0,16.57,39.89,23.36,23.36,0,0,0,28.46,3.62A15.59,15.59,0,1,0,249.3,148.8Z"/><path class="cls-17" d="M191.2,142.21a23.78,23.78,0,0,0-3.68,3.69A16.11,16.11,0,0,1,191.2,142.21Z"/><path class="cls-17" d="M211.61,126.84A15.52,15.52,0,0,1,222,121.56a15.58,15.58,0,0,0-21.17.4h0l-.05.05c-.17.16-.33.33-.48.5s-.34.36-.5.55l0,0-.47.58a13.41,13.41,0,0,0-1.2,1.8,13,13,0,0,0-.77,1.54c-.11.23-.2.46-.29.7-.18.48-.34,1-.48,1.5,0,.17-.09.34-.12.52-.08.33-.15.68-.2,1a3.18,3.18,0,0,0-.06.43c0,.13,0,.27-.05.41,0,.53-.08,1.06-.08,1.59v.09h0c-.64-.05-1.29-.09-1.95-.09a23.39,23.39,0,0,0-1.29,46.74,23.39,23.39,0,0,1-5.3-34,16.11,16.11,0,0,1,3.68-3.69,16.55,16.55,0,0,1,25.5,8.33,23,23,0,0,1,.79,5.48v.56a23,23,0,0,1-.42,4.42,25.35,25.35,0,0,0-5.46-34.16Z"/><circle class="cls-17" cx="224.79" cy="160.65" r="13.34"/><circle class="cls-2" cx="229.04" cy="162.96" r="13.25"/><circle class="cls-17" cx="220.92" cy="137.86" r="8.73"/><circle class="cls-2" cx="223.7" cy="139.37" r="8.67"/><circle class="cls-17" cx="191.66" cy="167.06" r="10.95"/><circle class="cls-2" cx="195.14" cy="168.95" r="10.87"/><circle class="cls-17" cx="235.28" cy="150.47" r="8.27"/><circle class="cls-2" cx="238.83" cy="152.82" r="8.21"/><path class="cls-2" d="M421.57,87.89a23.4,23.4,0,0,0-22.06-15.61,15.59,15.59,0,1,0-31.18,0v.09q-1-.09-1.95-.09A23.39,23.39,0,1,0,383,112.17a23.38,23.38,0,0,0,28.47,3.62,15.58,15.58,0,1,0,10.15-27.9Z"/><path class="cls-17" d="M363.48,81.29A23.41,23.41,0,0,0,359.79,85,16.15,16.15,0,0,1,363.48,81.29Z"/><path class="cls-17" d="M383.88,65.92a15.6,15.6,0,0,1,10.42-5.28,15.6,15.6,0,0,0-21.18.4h0l-.05.06c-.17.16-.33.32-.48.49s-.34.36-.5.55l0,0c-.16.18-.32.38-.47.58a13.74,13.74,0,0,0-1.2,1.8,12.16,12.16,0,0,0-.77,1.53,6.81,6.81,0,0,0-.28.7,15.46,15.46,0,0,0-.49,1.5l-.12.52c-.08.34-.15.68-.2,1a3.32,3.32,0,0,0-.06.44c0,.13,0,.26,0,.4-.05.53-.08,1.06-.08,1.6,0,0,0,0,0,.08h0c-.65-.06-1.3-.09-2-.09A23.38,23.38,0,0,0,365.09,119a23.39,23.39,0,0,1-5.3-34,16.15,16.15,0,0,1,3.69-3.69A16.56,16.56,0,0,1,389,89.62a23.17,23.17,0,0,1,.79,5.49c0,.18,0,.37,0,.56a23.72,23.72,0,0,1-.42,4.41,25.37,25.37,0,0,0-5.47-34.16Z"/><circle class="cls-17" cx="397.06" cy="99.74" r="13.34"/><circle class="cls-2" cx="401.31" cy="102.04" r="13.25"/><circle class="cls-17" cx="393.19" cy="76.95" r="8.73"/><circle class="cls-2" cx="395.97" cy="78.46" r="8.67"/><circle class="cls-17" cx="363.93" cy="106.15" r="10.95"/><circle class="cls-2" cx="367.41" cy="108.04" r="10.87"/><circle class="cls-17" cx="407.55" cy="89.56" r="8.27"/><circle class="cls-2" cx="411.1" cy="91.91" r="8.21"/><path class="cls-8" d="M249.45,343a17,17,0,0,1,34,0Z"/><path class="cls-3" d="M266.46,326a17,17,0,0,0-4.25.56A17,17,0,0,1,275,343h8.51A17,17,0,0,0,266.46,326Z"/><rect class="cls-3" x="263.62" y="337.32" width="17.01" height="5.67" rx="2.83"/><rect class="cls-5" x="362.84" y="501.73" width="36.85" height="11.34" rx="5.67"/><rect class="cls-5" x="144.57" y="479.06" width="25.51" height="11.34" rx="5.67"/></g></g></svg>