<svg xmlns="http://www.w3.org/2000/svg" viewBox="0 0 566.93 566.93"><defs><style>.cls-1{fill:#faebdc;}.cls-2{fill:#324100;}.cls-3{fill:#6e7832;}.cls-4{fill:#d8aa91;}.cls-5{fill:#006464;}.cls-6{fill:#0f373c;}.cls-7{fill:#e6a073;}.cls-8{fill:#d37e44;}.cls-9{fill:#af500e;}.cls-10,.cls-14,.cls-18{fill:none;stroke-miterlimit:10;}.cls-10{stroke:#10373a;}.cls-11{fill:#059999;}.cls-12{fill:#d25a3c;}.cls-13{fill:#ff8764;}.cls-14{stroke:#333f00;}.cls-15{fill:#e8a272;}.cls-16{fill:#843500;}.cls-17{fill:#7c3200;}.cls-18{stroke:#af500e;stroke-width:20px;}</style></defs><g id="Tlo"><rect class="cls-1" width="566.93" height="566.93"/></g><g id="Ilustracja"><path class="cls-2" d="M70,339.81a10.26,10.26,0,1,0,10-17.92c-5-2.76-22.92-1.05-22.92-1.05S65.06,337,70,339.81Z"/><path class="cls-3" d="M166.91,367.34c19.87,46.84,20.41,91.42,20.41,91.42s-31.67-31.37-51.54-78.21-20.41-91.42-20.41-91.42S147.05,320.5,166.91,367.34Z"/><path class="cls-2" d="M135.78,380.55c19.87,46.84,51.54,78.21,51.54,78.21L115.37,289.13S115.91,333.71,135.78,380.55Z"/><path class="cls-3" d="M494.08,474.18c-25.39,18.53-55.93,19.89-55.93,19.89s10.61-28.68,36-47.21S530.08,427,530.08,427,519.47,455.66,494.08,474.18Z"/><path class="cls-2" d="M474.14,446.86c-25.38,18.53-36,47.21-36,47.21L530.08,427S499.53,428.34,474.14,446.86Z"/><path class="cls-3" d="M468.92,459.89c-10.9,29.48-35.59,47.51-35.59,47.51s-7-29.76,3.86-59.24,35.59-47.51,35.59-47.51S479.81,430.41,468.92,459.89Z"/><path class="cls-2" d="M437.19,448.16c-10.89,29.48-3.86,59.24-3.86,59.24l39.45-106.75S448.09,418.68,437.19,448.16Z"/><path class="cls-3" d="M481.28,461.9c-18.61,22-46.61,29-46.61,29s2.17-28.77,20.78-50.79,46.61-29,46.61-29S499.89,439.88,481.28,461.9Z"/><path class="cls-2" d="M455.45,440.08c-18.61,22-20.78,50.79-20.78,50.79l67.4-79.76S474.06,418.05,455.45,440.08Z"/><rect class="cls-4" x="68.26" y="490.39" width="269.29" height="14.17" rx="7.09"/><rect class="cls-4" x="317.71" y="498.9" width="170.08" height="11.34" rx="5.67"/><rect class="cls-4" x="124.96" y="515.91" width="93.54" height="11.34" rx="5.67"/><path class="cls-5" d="M184.09,433.18a45.35,45.35,0,0,1-84.28,33.54c-9.26-23.27,8.6-101.05,8.6-101.05S174.83,409.91,184.09,433.18Z"/><path class="cls-6" d="M108.41,365.67s-17.86,77.78-8.6,101.05a45.36,45.36,0,0,0,58.91,25.37Z"/><rect class="cls-7" x="175.98" y="340.16" width="226.77" height="90.71"/><path class="cls-7" d="M380.07,317.48H198.66A22.68,22.68,0,0,1,176,340.16H402.75A22.68,22.68,0,0,1,380.07,317.48Z"/><rect class="cls-7" x="164.64" y="340.16" width="249.45" height="11.34" rx="5.67"/><polygon class="cls-7" points="402.75 408.19 175.98 408.19 153.3 430.87 153.3 498.9 425.43 498.9 425.43 430.87 402.75 408.19"/><path class="cls-8" d="M246.85,408.19V351.5h-5.67a5.67,5.67,0,1,1,0-11.34h5.67a22.67,22.67,0,0,0,22.67-22.68H198.66A22.68,22.68,0,0,1,176,340.16h-5.67a5.67,5.67,0,0,0,0,11.34H176v56.69L153.3,430.87v68h70.87v-68Z"/><path class="cls-9" d="M193,408.19V351.5h-5.67a5.67,5.67,0,0,1,0-11.34H193a22.68,22.68,0,0,0,22.68-22.68h-17A22.68,22.68,0,0,1,176,340.16h-5.67a5.67,5.67,0,0,0,0,11.34H176v56.69L153.3,430.87v68h17v-68Z"/><path class="cls-5" d="M492.27,327.9a14.17,14.17,0,0,1-8.95-26.9c7.43-2.47,31.37,4.51,31.37,4.51S499.69,325.43,492.27,327.9Z"/><path class="cls-6" d="M514.69,305.51s-23.94-7-31.37-4.51a14.17,14.17,0,0,0-9,17.92Z"/><path class="cls-3" d="M75.44,334.39a10.17,10.17,0,0,0,4.91,4.26,7.78,7.78,0,0,0,2.48.54,7.14,7.14,0,0,0,4.73-1.51c3.78-2.95,4.5-9.19,1.6-14s-17.38-11.91-17.38-11.91S72.54,329.63,75.44,334.39Z"/><path class="cls-5" d="M465.26,391.66a14.18,14.18,0,1,1,22.39-17.39c4.8,6.19,6.19,31.08,6.19,31.08S470.06,397.84,465.26,391.66Z"/><path class="cls-6" d="M493.84,405.35s-1.39-24.89-6.19-31.08a14.18,14.18,0,0,0-19.89-2.5Z"/><polygon class="cls-8" points="153.3 430.87 425.43 430.87 402.75 408.19 175.98 408.19 153.3 430.87"/><rect class="cls-8" x="175.98" y="351.5" width="226.77" height="8.5"/><path class="cls-10" d="M456.61,462.05c-30-50-27.84-76.09-19.84-90.71,8.33-15.23,24.68-21.2,25.51-36.85.81-15.35-13.92-28.55-25.51-36.85"/><path class="cls-10" d="M433.93,411s9.22-53.85,36.85-36.85"/><path class="cls-10" d="M443.32,362.83c3-11.07.25-21.77-6.94-26.95a18.5,18.5,0,0,0-9.22-3.34"/><path class="cls-5" d="M433.78,320.42a12.18,12.18,0,1,1-12.73,20.78c-5.74-3.52-14.41-23.12-14.41-23.12S428,316.9,433.78,320.42Z"/><path class="cls-6" d="M406.64,318.08s8.67,19.6,14.41,23.12a12.2,12.2,0,0,0,16.76-4Z"/><path class="cls-10" d="M462.28,334.49c.42-2.28,2.05-9.51,8.5-14.18a20.06,20.06,0,0,1,5.67-2.83"/><path class="cls-6" d="M346.06,436.53a33.9,33.9,0,0,1,15.49,3.74,45.35,45.35,0,0,1,82.41,0,34,34,0,1,1,15.48,64.29H346.06a34,34,0,1,1,0-68Z"/><rect class="cls-9" x="175.98" y="351.5" width="70.87" height="8.5"/><polygon class="cls-9" points="246.85 408.19 175.98 408.19 153.3 430.87 224.17 430.87 246.85 408.19"/><path class="cls-9" d="M176,340.16h70.87a22.68,22.68,0,0,0,22.61-22.68H198.59A22.67,22.67,0,0,1,176,340.16Z"/><path class="cls-5" d="M129.91,463.15a21.74,21.74,0,0,1-33.24,28c-7.73-9.18-11.4-47.24-11.4-47.24S122.17,454,129.91,463.15Z"/><path class="cls-6" d="M85.27,443.93s3.67,38.06,11.4,47.24a21.73,21.73,0,0,0,30.63,2.61Z"/><rect class="cls-8" x="300.7" y="357.17" width="48.19" height="34.02"/><rect class="cls-9" x="300.7" y="360" width="48.19" height="5.67"/><rect class="cls-8" x="246.85" y="396.85" width="22.68" height="11.34"/><rect class="cls-8" x="224.17" y="487.56" width="22.68" height="11.34"/><rect class="cls-8" x="224.17" y="476.22" width="11.34" height="11.34"/><rect class="cls-8" x="246.85" y="385.51" width="11.34" height="11.34"/><rect class="cls-8" x="380.07" y="396.85" width="22.68" height="11.34" transform="translate(782.83 805.04) rotate(-180)"/><rect class="cls-8" x="391.41" y="385.51" width="11.34" height="11.34" transform="translate(794.17 782.36) rotate(-180)"/><rect class="cls-9" x="192.99" y="493.23" width="136.06" height="5.67"/><rect class="cls-9" x="175.98" y="402.52" width="226.77" height="5.67"/><path class="cls-5" d="M402.75,413.86a45.33,45.33,0,0,0-41.2,26.41,34,34,0,1,0-15.49,64.29h56.69Z"/><path class="cls-6" d="M331.89,470.55A34,34,0,0,1,356,438a34,34,0,1,0-9.91,66.55H365.9A34,34,0,0,1,331.89,470.55Z"/><path class="cls-11" d="M470.78,470.55a34,34,0,0,0-22.65-32.07,34,34,0,1,1,11.32,66.08H436.77A34,34,0,0,0,470.78,470.55Z"/><path class="cls-6" d="M352.65,487.56a48.73,48.73,0,0,0,3,17H448a49.19,49.19,0,1,0-95.34-17Z"/><path class="cls-5" d="M366.89,504.56a39.69,39.69,0,1,1,71.72,0Z"/><path class="cls-11" d="M394.25,448.79a40.32,40.32,0,0,1,8.5-.92,39.68,39.68,0,0,1,35.86,56.69h-17a39.68,39.68,0,0,0-27.35-55.77Z"/><path class="cls-12" d="M199.42,506.71a28.35,28.35,0,0,1-52.54-21.31c5.89-14.51,47.58-41.88,47.58-41.88S205.31,492.2,199.42,506.71Z"/><path class="cls-13" d="M194.46,443.52s-41.69,27.37-47.58,41.88a28.35,28.35,0,0,0,15.62,36.92Z"/><rect class="cls-8" x="374.41" y="360" width="28.35" height="14.17"/><path class="cls-14" d="M136.3,379.84c-5.67-22.74-18.87-39.49-34-41.73-1.57-.23-13.81-1.87-20.24,5.4-3.54,4-6.22,11.75-1.88,16.64,2.66,3,7.34,4.23,11.39,3.41a11.1,11.1,0,0,0,8.85-8.81"/><polygon class="cls-1" points="156.14 308.98 136.29 334.49 158.97 323.15 158.97 334.49 147.63 345.83 158.97 345.83 170.31 323.15 156.14 308.98"/><polyline class="cls-1" points="68.26 394.02 122.12 411.02 85.27 411.02 88.11 422.36 107.95 428.03 82.44 433.7 65.43 394.02"/><rect class="cls-9" x="201.49" y="334.49" width="192.76" height="5.67"/><path class="cls-3" d="M297.13,454.34l-1-33.5c-.24-8.61-8.19-12.52-15.16-7.47L253.87,433a15.43,15.43,0,0,0-6,15.08l.44,2c1.35,6.25,7.12,9.09,12.89,6.35h0c5.77-2.74,11.54.1,12.89,6.34h0c1.34,6.25,7.11,9.09,12.88,6.35l1.89-.9A15.41,15.41,0,0,0,297.13,454.34Z"/><path class="cls-2" d="M261.2,456.48c-5.77,2.74-11.54-.1-12.89-6.35l-.44-2a15.41,15.41,0,0,1,6-15.07L281,413.35c3.48-2.53,7.21-2.81,10.1-1.39L269.3,456.28A9.18,9.18,0,0,0,261.2,456.48Z"/><path class="cls-3" d="M252.55,464.47l-16.67-12.1c-4.28-3.11-9.17-.7-9.33,4.58L226,477.54a9.45,9.45,0,0,0,5.08,8.58l1.16.55a5.37,5.37,0,0,0,7.92-3.89h0a5.38,5.38,0,0,1,7.92-3.9h0A5.37,5.37,0,0,0,256,475l.27-1.26A9.46,9.46,0,0,0,252.55,464.47Z"/><path class="cls-2" d="M240.11,482.76a5.38,5.38,0,0,1-7.92,3.9l-1.15-.55a9.5,9.5,0,0,1-5.09-8.58l.6-20.59a6,6,0,0,1,3.11-5.44l13.4,27.25A5.64,5.64,0,0,0,240.11,482.76Z"/><path class="cls-15" d="M309.21,95.53h0c-18.79,0-31.18,15.23-31.18,34v48.18h31.18Z"/><path class="cls-9" d="M255.35,214.59v1.78a20.15,20.15,0,0,1,20.87,6.83l38.66,48.08v45.35h17V262.78l-17-19.85,14.55-19.53a36.88,36.88,0,0,0,5.17-8.62l.12-.19H255.35Z"/><path class="cls-16" d="M255.35,214.59v1.78a20.15,20.15,0,0,1,20.87,6.83l15.86,19.73h22.8l14.55-19.53a36.88,36.88,0,0,0,5.17-8.62l.12-.19H255.35Z"/><rect class="cls-9" x="207.16" y="191.91" width="17.01" height="124.72"/><rect class="cls-16" x="207.16" y="200.41" width="17.01" height="42.52"/><path class="cls-9" d="M416.84,211.75a51.19,51.19,0,0,0-50.94-48.19h-51v22.68h45.36a28.42,28.42,0,0,1,28.34,28.34v11.34a28.35,28.35,0,0,0,28.35,28.35V211.75Z"/><path class="cls-17" d="M416.84,211.75a51.18,51.18,0,0,0-50.94-48.19H354.56a51.18,51.18,0,0,1,50.94,48.19h.09V251.9a28.18,28.18,0,0,0,11.34,2.37V211.75Z"/><path class="cls-17" d="M362,163.56H314.88v22.68h45.35a28.25,28.25,0,0,1,19.94,8.25A46,46,0,0,0,362,163.56Z"/><rect class="cls-15" x="232.67" y="191.91" width="17.01" height="124.72"/><path class="cls-15" d="M371.56,200.81a36.84,36.84,0,0,0-34-37.15v-.12H244.18a20,20,0,0,1-20-20v-19.7a48.16,48.16,0,0,0-46.58-48.13,5.33,5.33,0,0,0-2.93.8l-43.8,26.75a5.45,5.45,0,0,0-1,8.5l7.55,7.54c4.59,4.6,11.26,4.43,17.56,2.86l14.25-3.57a5.45,5.45,0,0,1,6.77,5.28v53.59a54.12,54.12,0,0,0,54.13,54.13h18.55a5.55,5.55,0,0,0,2-.37l36.68-13.8c8.17-3.14,17.44-1.15,22.92,5.67l37.46,46.69a5.46,5.46,0,0,1,1.2,3.42v46.26h17V282.59h0v-18.1a5.5,5.5,0,0,0-1-3.16L353.8,245.81a5.44,5.44,0,0,1-.24-6l9.71-16.2a6.15,6.15,0,0,1,.37-.52,37.56,37.56,0,0,0,5-8.37l.11-.2h0A36.16,36.16,0,0,0,371.56,200.81Z"/><path class="cls-8" d="M371.57,200.81a36.84,36.84,0,0,0-34-37.15v-.12H326.65a42.83,42.83,0,0,1,27.91,40.64,42,42,0,0,1-3.33,16h0l-.13.24a43.37,43.37,0,0,1-5.79,9.73,5.08,5.08,0,0,0-.42.61l-11.3,18.83a6.2,6.2,0,0,0-.71,1.76l14.78,18.42a5.52,5.52,0,0,1,1.2,3.42v43.45h17v-34h0v-18.1a5.44,5.44,0,0,0-1-3.16l-11.08-15.52a5.44,5.44,0,0,1-.24-6l9.71-16.2a6.15,6.15,0,0,1,.37-.52,37.56,37.56,0,0,0,5-8.37l.11-.2h0A36.16,36.16,0,0,0,371.57,200.81Z"/><path class="cls-8" d="M192.73,177.47V123.88a5.44,5.44,0,0,0-6.76-5.29l-11.3,2.83a5.41,5.41,0,0,1,.59,2.46v53.59a54.12,54.12,0,0,0,54.12,54.12h17.47A54.13,54.13,0,0,1,192.73,177.47Z"/><rect class="cls-16" x="207.16" y="305.29" width="17.01" height="11.34"/><rect class="cls-8" x="232.67" y="305.29" width="17.01" height="11.34"/><rect class="cls-16" x="314.88" y="305.29" width="17.01" height="11.34"/><rect class="cls-16" x="348.89" y="305.29" width="17.01" height="11.34"/><circle class="cls-9" cx="175.98" cy="95.53" r="5.67"/><path class="cls-9" d="M309.25,140.88h0v22.68h22.68v0A24.11,24.11,0,0,1,309.25,140.88Z"/><rect class="cls-15" x="295.04" y="61.51" width="14.17" height="45.35"/><rect class="cls-15" x="269.52" y="61.51" width="51.02" height="5.67" rx="2.83"/><path class="cls-15" d="M280.86,61.51h22.68a0,0,0,0,1,0,0V92.7a0,0,0,0,1,0,0H291.91a11,11,0,0,1-11-11V61.51A0,0,0,0,1,280.86,61.51Z"/><path class="cls-15" d="M283.7,61.51,292.49,19a2.63,2.63,0,0,1,5.09,0l8.79,42.52Z"/><path class="cls-15" d="M255.35,163.56H278V140.88A22.68,22.68,0,0,1,255.35,163.56Z"/><polygon class="cls-9" points="309.21 163.56 275.19 191.91 275.19 223.09 286.53 217.42 286.53 194.74 326.22 163.54 309.21 163.56"/><rect class="cls-15" x="261.02" y="189.07" width="17.01" height="53.86"/><polygon class="cls-9" points="306.38 61.51 283.7 61.51 285.46 53.01 304.62 53.01 306.38 61.51"/><polygon class="cls-15" points="304.62 53.01 285.46 53.01 287.22 44.51 302.87 44.51 304.62 53.01"/><polygon class="cls-9" points="302.87 44.51 287.22 44.51 288.98 36 301.11 36 302.87 44.51"/><polygon class="cls-15" points="301.11 36 288.98 36 290.74 27.5 299.35 27.5 301.11 36"/><polygon class="cls-9" points="299.35 27.5 290.74 27.5 292.5 18.99 297.59 18.99 299.35 27.5"/><polygon class="cls-9" points="280.86 81.36 280.86 67.18 309.21 67.18 280.86 81.36"/><polygon class="cls-8" points="249.68 242.93 238.34 251.44 238.34 257.11 249.68 257.11 249.68 242.93"/><path class="cls-15" d="M261,240.1l-17,11.34v5.67h24.53a9.49,9.49,0,0,0,9.49-9.49V240.1Z"/><path class="cls-8" d="M295,112.54v25.51H266.69a14.17,14.17,0,0,0-14.17,14.17h56.69V98.36A14.17,14.17,0,0,0,295,112.54Z"/><path class="cls-8" d="M261,163.56H244.18a19.91,19.91,0,0,1-11.51-3.66v71.69h16a5.54,5.54,0,0,0,2-.36L261,227.31Z"/><path class="cls-18" d="M177.42,75.71A48.17,48.17,0,0,1,224,123.85v19.7a20,20,0,0,0,20,20h11.34"/><path class="cls-16" d="M201.49,71.64a57.8,57.8,0,0,0-23.75-5.92l-.64,20a38,38,0,0,1,24.39,9.81Z"/><path class="cls-15" d="M187.32,67.19V89.86H176v-34A11.34,11.34,0,0,1,187.32,67.19Z"/></g></svg>