<svg xmlns="http://www.w3.org/2000/svg" viewBox="0 0 566.93 566.93"><defs><style>.cls-1{isolation:isolate;}.cls-2{fill:#fff;}.cls-3{fill:#f5a03c;}.cls-4{fill:#e27c17;}.cls-5{fill:#e6a073;}.cls-6{fill:#059999;}.cls-10,.cls-16,.cls-7{fill:none;stroke-miterlimit:10;}.cls-7{stroke:#0f373c;stroke-width:3px;}.cls-8{fill:#006464;}.cls-9{fill:#0f373c;}.cls-10{stroke:#324100;stroke-width:5px;}.cls-11,.cls-20{fill:#1d1d1b;}.cls-11{mix-blend-mode:soft-light;}.cls-12{fill:#ce6f3a;}.cls-13{fill:#ff8764;}.cls-14{fill:#d25a3c;}.cls-15{fill:#fff;}.cls-16{stroke:#e2e2e2;stroke-linecap:round;stroke-width:10px;}.cls-17{fill:#00282b;}.cls-18{fill:#e2e2e2;}.cls-19{fill:#b5b5b5;}.cls-21{fill:#c1610a;}.cls-22{fill:#b73116;}.cls-23{fill:#6e7832;}.cls-24{fill:#324100;}.cls-25{fill:#ad4e00;}.cls-26{fill:#b7b7b7;}.cls-27{fill:#999;}</style></defs><g class="cls-1"><g id="Tlo"><rect class="cls-2" width="566.93" height="566.93"/></g><g id="Ilustracja"><path class="cls-3" d="M105.94,264.69C96,273.19,78.72,277.8,78.72,277.8S72.59,261,73.88,248A18.74,18.74,0,0,1,76,240c4.11-7.9,12.71-11.57,19.19-8.19a11.46,11.46,0,0,1,4.86,5A11.45,11.45,0,0,1,107,238c6.48,3.38,8.39,12.52,4.27,20.42A18.86,18.86,0,0,1,105.94,264.69Z"/><path class="cls-4" d="M78.72,277.8h0S72.59,261,73.88,248A18.74,18.74,0,0,1,76,240c4.11-7.9,12.71-11.57,19.19-8.19a11.46,11.46,0,0,1,4.86,5h0Z"/><ellipse class="cls-5" cx="134.65" cy="476.22" rx="35.43" ry="8.5"/><ellipse class="cls-5" cx="408.19" cy="428.03" rx="87.87" ry="8.5"/><rect class="cls-5" x="413.86" y="447.87" width="90.71" height="34.02"/><circle class="cls-6" cx="287.72" cy="214.02" r="154.49"/><path class="cls-7" d="M73.7,216.58C126.18,196.37,180.59,256,189,331.08q2.23,5.06,4.23,10.19"/><path class="cls-8" d="M167.76,332.88c41.07,17.21,69.7,42.29,64,56s-43.71,10.87-84.77-6.34-63.94-56-63.94-56S126.7,315.66,167.76,332.88Z"/><path class="cls-9" d="M146.94,382.55c41.06,17.21,79,20.05,84.77,6.34L83,326.54S105.87,365.33,146.94,382.55Z"/><path class="cls-10" d="M464.88,309s-17,17.21-19.84,48.19"/><path class="cls-10" d="M445,365.39c1.85-18.69,15.32-31.41,28.35-31.18,11,.2,18.44,9.53,19.84,11.34"/><path class="cls-8" d="M187.29,296.16c43.24,36.15,71.38,73.73,62.84,83.94s-50.5-10.82-93.74-47S93.54,249.2,93.54,249.2,144.05,260,187.29,296.16Z"/><path class="cls-9" d="M188.12,296.16a212.09,212.09,0,0,0-18.93-14.06,37.37,37.37,0,0,0,5.29,27.63l-12.91,27a382.71,382.71,0,0,0,34.36,25.07l16.27-34a36.92,36.92,0,0,0,8-1.73A398.41,398.41,0,0,0,188.12,296.16Z"/><path class="cls-8" d="M288.48,312h0a7,7,0,0,0,5.64-8.19l-10.4-56.71a7,7,0,0,1,3.49-7.42q4.57-2.58,9.35-5.12a7,7,0,0,1,10.2,4.95l4.72,25.7a7,7,0,0,0,8.19,5.65h0a7,7,0,0,0,5.65-8.19l-6.19-33.72A7,7,0,0,1,323,221.3l6.37-3a7,7,0,0,1,9.85,5.13l1.41,7.7a7,7,0,0,0,8.19,5.64h0a7,7,0,0,0,5.65-8.18l-2.63-14.32a7,7,0,0,1,4.17-7.75c10.34-4.39,19.27-8,25.55-10.46a7,7,0,0,1,9.6,6.62c-.08,6.75-.28,16.37-.71,27.61a7,7,0,0,1-5.76,6.64l-14.32,2.63a7,7,0,0,0-5.65,8.19h0a7,7,0,0,0,8.19,5.64l7.7-1.41a7,7,0,0,1,8.29,7.39c-.16,2.32-.34,4.66-.52,7a7,7,0,0,1-5.74,6.34l-33.72,6.19a7,7,0,0,0-5.65,8.19h0a7,7,0,0,0,8.19,5.64l25.7-4.71a7,7,0,0,1,8.26,7.78c-.46,3.57-.95,7.1-1.48,10.56a7,7,0,0,1-5.69,5.9l-56.71,10.41a7,7,0,0,0-5.65,8.18h0a7,7,0,0,0,8.19,5.65l45.38-8.33a7,7,0,0,1,8,9c-2.36,8-5.12,14.66-8.36,19.35-22.79,33-68.91,40.75-103,17.22s-43.27-69.38-20.48-102.42c3.24-4.69,8.49-9.64,15.13-14.68a7,7,0,0,1,11.21,4.3l8.33,45.38A7,7,0,0,0,288.48,312Z"/><path class="cls-9" d="M260.75,256.64a7,7,0,0,1,11.21,4.3l8.33,45.38a7,7,0,1,0,13.83-2.54l-10.4-56.71a7,7,0,0,1,3.49-7.42q4.57-2.58,9.35-5.12a7,7,0,0,1,10.2,4.95l4.72,25.7a7,7,0,1,0,13.84-2.54l-6.19-33.72A7,7,0,0,1,323,221.3l6.37-3a7,7,0,0,1,9.85,5.13l1.41,7.7a7,7,0,0,0,13.84-2.54l-2.63-14.32a7,7,0,0,1,4.17-7.75c10.34-4.39,19.27-8,25.55-10.46a7,7,0,0,1,6.57.75l-122,176.9c-34.1-23.53-43.27-69.38-20.48-102.42C248.86,266.63,254.11,261.68,260.75,256.64Z"/><path class="cls-11" d="M315.26,330.89h0a7,7,0,0,1,3-7.13,58.6,58.6,0,0,0-16.2-14.88,14.8,14.8,0,0,1-3.69-3.39c-2.8-3.43-5.15-8.16-7.14-13.74l2.21,12a6.85,6.85,0,0,1,.11,1.42,7,7,0,0,1-1.65,4.38,7.74,7.74,0,0,1-.91.9,5.65,5.65,0,0,1-.61.45,6.18,6.18,0,0,1-.88.48,7.3,7.3,0,0,1-1.71.56h0a7.62,7.62,0,0,1-1.42.11,6.93,6.93,0,0,1-3.27-.89,7,7,0,0,1-3.5-4.87l-8.32-45.38a7,7,0,0,0-7.83-5.7,6.69,6.69,0,0,0-1.45.36,6.07,6.07,0,0,0-.7.29,7,7,0,0,0-.84.48c-.13.09-.27.17-.4.27-6.63,5-11.88,10-15.12,14.68a73.46,73.46,0,0,0-3.9,6.34,70,70,0,0,0-4.47,9.95c-.41,1.13-.78,2.27-1.13,3.42a72,72,0,0,0-2.35,10.8c-.29,2.14-.49,4.3-.59,6.45-.06,1.26-.09,2.51-.09,3.76a75.63,75.63,0,0,0,33,61.7h0a75.86,75.86,0,0,0,61.38,11.42v-36.5a39.86,39.86,0,0,0-.74-7.6,41.64,41.64,0,0,0-1.26-4.77l-1.38.25A7,7,0,0,1,315.26,330.89Z"/><path class="cls-8" d="M212.35,236.2c31.33,46.85,46.72,91.53,34.35,99.8s-47.78-23-79.12-69.85-34.35-99.79-34.35-99.79S181,189.36,212.35,236.2Z"/><path class="cls-9" d="M167.58,266.15C198.92,313,234.34,344.27,246.7,336L133.23,166.36S136.25,219.3,167.58,266.15Z"/><rect class="cls-5" x="408.19" y="362.83" width="68.03" height="68.03"/><rect class="cls-5" x="402.52" y="354.33" width="79.37" height="31.18"/><rect class="cls-12" x="402.52" y="354.33" width="36.85" height="34.02"/><path class="cls-12" d="M476.22,385.51h-68v45.36h34V410.18a13.33,13.33,0,0,1,13.33-13.33h20.69Z"/><path class="cls-13" d="M272.13,430.87H430.87V272.13Zm136.06-22.68H328.82L408.19,326Z"/><polygon class="cls-14" points="328.82 408.19 348.66 387.64 348.66 354.33 272.13 430.87 348.66 430.87 348.66 408.19 328.82 408.19"/><path class="cls-7" d="M93.54,300.17c49.19-51,98.67-30.33,103.45,29.27q2.28,3.9,4.27,7.88"/><rect class="cls-15" x="408.19" y="442.2" width="90.71" height="34.02"/><path class="cls-16" d="M293.47,129.73S276.39,174.88,310,189.92"/><path class="cls-15" d="M317.48,113.38v31.19h-9.43a36.09,36.09,0,0,0-35.92,36v17.86H226.77V167.17a22.6,22.6,0,0,0-22.61-22.6h-5.73v-7.28q0-.61,0-1.23a23.91,23.91,0,0,1,23.87-22.68Z"/><path class="cls-8" d="M477.43,187.25a3.1,3.1,0,0,0,3.67-3.86c-.78-2.79-7.82-27.4-13.81-33.11a17.11,17.11,0,0,0-23.6,24.77C449.68,180.76,474.61,186.6,477.43,187.25Z"/><path class="cls-9" d="M480.36,186.36,443.21,151a17.06,17.06,0,0,0,.48,24.09c6,5.71,30.92,11.55,33.74,12.2A3.11,3.11,0,0,0,480.36,186.36Z"/><path class="cls-8" d="M413.91,102.31A3.11,3.11,0,0,0,410.85,98c-2.89.22-28.4,2.31-35.17,7.06a17.11,17.11,0,0,0,19.67,28C402.12,128.25,412.72,105,413.91,102.31Z"/><path class="cls-9" d="M413.61,99.26l-42,29.5A17.05,17.05,0,0,0,395.35,133c6.77-4.75,17.37-28,18.56-30.69A3.09,3.09,0,0,0,413.61,99.26Z"/><path class="cls-8" d="M420.7,201.53a3.11,3.11,0,0,0,4.95-2c.44-2.86,4.27-28.17,1.2-35.85a17.11,17.11,0,0,0-31.76,12.72C398.16,184.1,418.4,199.77,420.7,201.53Z"/><path class="cls-17" d="M423.73,201.94l-19.07-47.63a17,17,0,0,0-9.57,22.11c3.07,7.68,23.31,23.35,25.61,25.11A3.09,3.09,0,0,0,423.73,201.94Z"/><path class="cls-3" d="M317.48,348.66v68.88a36.11,36.11,0,0,1-36,36H217.42a36.11,36.11,0,0,1-36-36V348.66A29.63,29.63,0,0,1,182,343c3.21-16.32,19.29-25.51,19.29-25.51a24.37,24.37,0,0,0,6.34-5.67c21.56-26.46,19.17-107.72,19.17-107.72h45.36s-2.39,81.26,19.17,107.72a24.37,24.37,0,0,0,6.34,5.67s16.08,9.19,19.29,25.51A29.63,29.63,0,0,1,317.48,348.66Z"/><path class="cls-4" d="M204,417.54l.31-42.12A32.68,32.68,0,0,1,237,343h79.93c-3.21-16.32-19.29-25.51-19.29-25.51a24.37,24.37,0,0,1-6.34-5.67h-48a7.45,7.45,0,0,1-6.78-10.54c6.49-14.42,9.77-34.92,11.4-53.38a23.13,23.13,0,0,1,23-21.12h1.22V204.09H226.69s2.84,96.38-25.51,113.39c0,0-19.84,11.34-19.84,31.18v50.17h0v18.71a36.11,36.11,0,0,0,36,36H240A36.11,36.11,0,0,1,204,417.54Z"/><rect class="cls-15" x="221.1" y="181.42" width="56.69" height="34.02"/><path class="cls-18" d="M317.48,136.06v8.51h-9.43a36.09,36.09,0,0,0-35.92,36v.86H226.77V167.17a22.6,22.6,0,0,0-22.61-22.6h-5.73v-7.28q0-.61,0-1.23Z"/><path class="cls-19" d="M249.51,172.92a14.25,14.25,0,0,1-14.25-14.25h0a22.6,22.6,0,0,0-22.61-22.6H198.46q0,.62,0,1.23v7.28h5.73a22.6,22.6,0,0,1,22.61,22.6v14.25h45.36v-.86a35.63,35.63,0,0,1,.82-7.64Z"/><rect class="cls-18" x="317.48" y="116.22" width="11.34" height="19.84"/><rect class="cls-3" x="362.83" y="453.54" width="68.03" height="22.68"/><rect class="cls-13" x="340.16" y="453.54" width="22.68" height="22.68"/><polygon class="cls-20" points="462.04 464.88 445.04 471.06 445.04 458.7 462.04 464.88"/><polygon class="cls-5" points="445.04 458.7 445.04 471.06 430.86 476.22 430.86 453.54 445.04 458.7"/><rect class="cls-4" x="362.83" y="453.54" width="68.03" height="11.34"/><rect class="cls-4" x="354.33" y="453.54" width="8.5" height="22.68"/><rect class="cls-18" x="221.1" y="181.42" width="14.17" height="34.02"/><rect class="cls-21" x="226.77" y="215.43" width="45.35" height="5.67"/><rect class="cls-14" x="419.53" y="294.8" width="11.34" height="2.83"/><rect class="cls-14" x="419.53" y="317.48" width="11.34" height="2.83"/><rect class="cls-14" x="419.53" y="340.16" width="11.34" height="2.83"/><rect class="cls-14" x="419.53" y="362.83" width="11.34" height="2.83"/><rect class="cls-14" x="419.53" y="385.51" width="11.34" height="2.83"/><rect class="cls-14" x="419.53" y="408.19" width="11.34" height="2.83"/><rect class="cls-4" x="198.43" y="371.34" width="119.06" height="14.17"/><rect class="cls-3" x="181.42" y="371.34" width="136.06" height="5.67"/><rect class="cls-22" x="317.48" y="377.01" width="8.5" height="53.86"/><polygon class="cls-6" points="189.92 175.75 167.24 221.1 198.43 195.59 204.09 215.43 192.76 243.78 215.43 223.94 209.76 184.25 189.92 175.75"/><path class="cls-21" d="M317.48,417.54V371.76a38.53,38.53,0,0,0-3.9-3.29l-.76-.56-.07,0c-.45-.31-.93-.63-1.46-1l-.39-.24c-.78-.47-1.56-.91-2.31-1.31l-.34-.17c-.77-.39-1.55-.75-2.3-1.07l-.29-.13c-.79-.32-1.61-.63-2.54-.95l-.51-.16c-.93-.3-1.78-.55-2.61-.75l-.28-.07c-.81-.19-1.64-.36-2.53-.51l-.5-.08c-.88-.14-1.8-.25-2.69-.33l-.58,0c-1.05-.08-2-.12-2.87-.12-21.23,0-38.5,16.88-38.5,37.62v3.94a37.43,37.43,0,0,0-18.6,32.2,36.67,36.67,0,0,0,5.16,18.78h42.87A36.11,36.11,0,0,0,317.48,417.54Z"/><path class="cls-7" d="M445,151.89c-6.61-3.37-24.75-11.46-46.3-6.5-13.34,3.08-22.09,9.81-26.9,13.59-32.18,25.31-38,70-39.26,82"/><path class="cls-7" d="M377.34,128.47c-20.17,10.43-48.52,55.78-42.85,92.63"/><polygon class="cls-19" points="328.82 136.06 317.48 136.06 317.48 116.22 328.82 136.06"/><path class="cls-8" d="M321.56,407.16v-8.54c0-16.63-13.89-30.12-31-30.12s-31,13.49-31,30.12v8.54a30.11,30.11,0,0,0-18.61,27.6c0,16.64,13.89,30.12,31,30.12a31.46,31.46,0,0,0,18.6-6,31.46,31.46,0,0,0,18.6,6c17.13,0,31-13.48,31-30.12A30.11,30.11,0,0,0,321.56,407.16Z"/><path class="cls-23" d="M325,460.67l.52-.31Z"/><path class="cls-23" d="M323.77,461.33l.51-.28Z"/><path class="cls-23" d="M326.15,460l.5-.32Z"/><path class="cls-23" d="M322.55,461.93l.35-.17Z"/><path class="cls-23" d="M327.37,459.13l.39-.27Z"/><path class="cls-9" d="M278.15,434.76a30.1,30.1,0,0,1,18.6-27.6v-8.54a29.78,29.78,0,0,1,12.4-24.09,31.47,31.47,0,0,0-18.6-6c-17.12,0-31,13.49-31,30.12v8.54a30.1,30.1,0,0,0-18.6,27.6c0,16.64,13.88,30.12,31,30.12a31.46,31.46,0,0,0,18.6-6h0A29.8,29.8,0,0,1,278.15,434.76Z"/><path class="cls-23" d="M304.76,464.57c.31.05.63.09.94.12C305.39,464.66,305.07,464.62,304.76,464.57Z"/><path class="cls-23" d="M316.82,464l.41-.11Z"/><path class="cls-23" d="M318.17,463.58l.52-.16Z"/><path class="cls-23" d="M319.51,463.15,320,463Z"/><path class="cls-23" d="M320.86,462.65l.48-.19Z"/><path class="cls-23" d="M312.61,464.69l-.53.05Z"/><path class="cls-23" d="M315.12,464.32l.34-.06Z"/><path class="cls-23" d="M313.55,464.57l.5-.07Z"/><path class="cls-23" d="M290.94,459.13l.72.5Z"/><path class="cls-23" d="M293.34,460.67l.69.38Z"/><path class="cls-23" d="M292.16,460l.66.41Z"/><path class="cls-23" d="M307.69,464.85c.48,0,1,0,1.46,0h0C308.66,464.88,308.17,464.87,307.69,464.85Z"/><path class="cls-23" d="M307.22,464.82l-1-.08Z"/><path class="cls-23" d="M310.62,464.85l.46,0Z"/><path class="cls-23" d="M298.8,463.15c.27.1.54.19.82.27C299.34,463.34,299.07,463.25,298.8,463.15Z"/><path class="cls-23" d="M303.19,464.32c.35.07.71.13,1.07.18C303.9,464.45,303.54,464.39,303.19,464.32Z"/><path class="cls-23" d="M300.14,463.58c.31.1.62.18.94.26C300.76,463.76,300.45,463.68,300.14,463.58Z"/><path class="cls-23" d="M301.49,464c.45.11.9.22,1.36.31C302.39,464.17,301.94,464.06,301.49,464Z"/><path class="cls-23" d="M297,462.46c-.41-.17-.81-.34-1.21-.53C296.16,462.12,296.56,462.29,297,462.46Z"/><path class="cls-23" d="M297.45,462.65l.82.32Z"/><path class="cls-23" d="M294.53,461.33l.88.43Z"/><ellipse class="cls-8" cx="290.55" cy="434.76" rx="31" ry="30.12"/><path class="cls-9" d="M290.55,404.65a31.71,31.71,0,0,0-9.3,1.38,29.88,29.88,0,0,1,0,57.47,31.71,31.71,0,0,0,9.3,1.38c17.12,0,31-13.48,31-30.12S307.67,404.65,290.55,404.65Z"/><path class="cls-6" d="M287.84,405.07a23,23,0,0,0-7.82,1.37c10.58,3.81,18.25,15.15,18.25,28.54S290.6,459.7,280,463.51a23,23,0,0,0,7.82,1.37c14.4,0,26.08-13.39,26.08-29.9S302.24,405.07,287.84,405.07Z"/><path class="cls-23" d="M460.32,280.92c13.3-5,34.36-2.52,34.36-2.52s3.54,20.9-.71,34.44a17,17,0,0,1-32.77.85,17,17,0,0,1-.88-32.77Z"/><path class="cls-24" d="M494.68,278.4h0s3.54,20.9-.71,34.44a17,17,0,0,1-32.77.85h0Z"/><path class="cls-23" d="M517,334.36c5.72,13,4.48,34.16,4.48,34.16s-20.66,4.74-34.43,1.27a17,17,0,0,1-2.72-32.67A17,17,0,0,1,517,334.36Z"/><path class="cls-24" d="M521.46,368.52h0s-20.66,4.74-34.43,1.27a17,17,0,0,1-2.72-32.67h0Z"/><path class="cls-14" d="M430.87,306.94A24.27,24.27,0,0,0,421,308a24.54,24.54,0,0,0-8.49,4.76,24.86,24.86,0,0,0-2.15,2.08,52.32,52.32,0,0,0-4.61,5.2c-.71.91-1.43,1.88-2.14,2.9s-1.34,2-2,3a121.24,121.24,0,0,0-8.09,15.26L408.19,326v41.31c6.71,3.31,14.44,6.37,21.54,7.4l1.14.21Z"/><path class="cls-23" d="M430.6,369.77C414.22,367.44,394,353.22,394,353.22s8-23.37,19.89-34.87a19.78,19.78,0,0,1,34,17.37,19.78,19.78,0,0,1-17.34,34Z"/><path class="cls-24" d="M394,353.22h0s8-23.37,19.89-34.87a19.78,19.78,0,0,1,34,17.37h0Z"/><path class="cls-25" d="M227.35,314.52a24.86,24.86,0,0,0,14.2-12.74l3.84-8a12.47,12.47,0,0,0-5.87-16.62l-16.85-8.05c-2.8,17.09-7.43,33.35-15.07,42.73a24.37,24.37,0,0,1-6.34,5.67,48,48,0,0,0-11.34,9.75l-8.19,17.14a29.87,29.87,0,0,0-.31,4.29v37.68l29.47-61.7h0l4.3-9A25,25,0,0,0,227.35,314.52Z"/><rect class="cls-5" x="167.65" y="317.41" width="17.81" height="69.46" transform="translate(184.05 745.99) rotate(-154.46)"/><path class="cls-26" d="M118.59,473.47c35.35,16.89,52.8-19.63,52.8-19.63L179.45,437c1.57-3.29,0-7.69-4.1-10.76a34.35,34.35,0,0,1-9.3-10.34c-3.26-5.76-4.31-12.07-1.81-17.3l5.38-11.25-16.07-7.67-5.38,11.24c-2.5,5.23-8.06,8.38-14.59,9.47a34.13,34.13,0,0,1-13.88-.74c-4.94-1.23-9.38.28-11,3.57l-8.07,16.88S83.24,456.58,118.59,473.47Z"/><path class="cls-27" d="M118.59,473.47l43-90,8,3.83-5.38,11.25c-2.5,5.23-1.45,11.54,1.81,17.3a34.18,34.18,0,0,0,9.29,10.34c4.07,3.06,5.68,7.47,4.11,10.76l-8.06,16.88S153.94,490.35,118.59,473.47Z"/><path class="cls-13" d="M187.78,308l-5.06,10.59,16.07,7.68,5.06-10.59a25,25,0,0,0,26.37-13.88l3.84-8a12.47,12.47,0,0,0-5.88-16.62l-25.71-12.29a12.45,12.45,0,0,0-16.62,5.88l-3.84,8A25,25,0,0,0,187.78,308Zm13-4.47-1.6-.77A15.17,15.17,0,0,1,192,282.56l3.46-7.23,2.41,1.15,22.5,10.75,4,1.91L221,296.38A15.19,15.19,0,0,1,200.77,303.51Z"/><polygon class="cls-2" points="473.39 257.95 473.39 289.13 462.05 269.29 464.88 297.64 450.71 274.96 473.39 257.95"/><path class="cls-7" d="M141.73,301.51s8.16-27.38,32.62-23.3"/><path class="cls-13" d="M148.44,327.05c-9.91,8.5-27.22,13.11-27.22,13.11s-6.13-16.83-4.84-29.83a18.89,18.89,0,0,1,2.16-7.95c4.12-7.9,12.71-11.56,19.19-8.19a11.48,11.48,0,0,1,4.87,5,11.41,11.41,0,0,1,6.86,1.14c6.48,3.38,8.39,12.52,4.27,20.42A18.74,18.74,0,0,1,148.44,327.05Z"/><path class="cls-14" d="M121.22,340.16h0s-6.13-16.83-4.84-29.83a18.89,18.89,0,0,1,2.16-7.95c4.12-7.9,12.71-11.56,19.19-8.19a11.4,11.4,0,0,1,4.86,5h0Z"/><path class="cls-21" d="M195.41,417.54V398.83h0V385.51h-14v13.32h0v18.71a36.11,36.11,0,0,0,36,36h14A36.11,36.11,0,0,1,195.41,417.54Z"/><path class="cls-7" d="M102.05,230.47s19.84-11.33,42.52,5.67"/></g></g></svg>