<svg xmlns="http://www.w3.org/2000/svg" viewBox="0 0 566.93 566.93"><defs><style>.cls-2{fill:#fff}.cls-3{fill:#f5a03c}.cls-4{fill:#e27c17}.cls-5{fill:#e6a073}.cls-6{fill:#059999}.cls-10,.cls-7{fill:none;stroke-miterlimit:10}.cls-7{stroke:#0f373c;stroke-width:3px}.cls-8{fill:#006464}.cls-9{fill:#0f373c}.cls-10{stroke:#324100;stroke-width:5px}.cls-12{fill:#ce6f3a}.cls-13{fill:#ff8764}.cls-14{fill:#d25a3c}.cls-15{fill:#fff}.cls-18{fill:#e2e2e2}.cls-19{fill:#b5b5b5}.cls-21{fill:#c1610a}.cls-23{fill:#6e7832}.cls-24{fill:#324100}</style></defs><g style="isolation:isolate"><path class="cls-2" d="M0 0h566.93v566.93H0z" id="Tlo"/><g id="Ilustracja"><path class="cls-3" d="M105.94 264.69c-9.94 8.5-27.22 13.11-27.22 13.11S72.59 261 73.88 248a18.74 18.74 0 012.12-8c4.11-7.9 12.71-11.57 19.19-8.19a11.46 11.46 0 014.86 5A11.45 11.45 0 01107 238c6.48 3.38 8.39 12.52 4.27 20.42a18.86 18.86 0 01-5.33 6.27z"/><path class="cls-4" d="M78.72 277.8S72.59 261 73.88 248a18.74 18.74 0 012.12-8c4.11-7.9 12.71-11.57 19.19-8.19a11.46 11.46 0 014.86 5z"/><ellipse class="cls-5" cx="134.65" cy="476.22" rx="35.43" ry="8.5"/><ellipse class="cls-5" cx="408.19" cy="428.03" rx="87.87" ry="8.5"/><path class="cls-5" d="M413.86 447.87h90.71v34.02h-90.71z"/><circle class="cls-6" cx="287.72" cy="214.02" r="154.49"/><path class="cls-7" d="M73.7 216.58C126.18 196.37 180.59 256 189 331.08q2.23 5.06 4.23 10.19"/><path class="cls-8" d="M167.76 332.88c41.07 17.21 69.7 42.29 64 56s-43.71 10.87-84.77-6.34-63.94-56-63.94-56 43.65-10.88 84.71 6.34z"/><path class="cls-9" d="M146.94 382.55c41.06 17.21 79 20.05 84.77 6.34L83 326.54s22.87 38.79 63.94 56.01z"/><path class="cls-10" d="M464.88 309s-17 17.21-19.84 48.19M445 365.39c1.85-18.69 15.32-31.41 28.35-31.18 11 .2 18.44 9.53 19.84 11.34"/><path class="cls-8" d="M187.29 296.16c43.24 36.15 71.38 73.73 62.84 83.94s-50.5-10.82-93.74-47-62.85-83.9-62.85-83.9 50.51 10.8 93.75 46.96z"/><path class="cls-9" d="M188.12 296.16a212.09 212.09 0 00-18.93-14.06 37.37 37.37 0 005.29 27.63l-12.91 27a382.71 382.71 0 0034.36 25.07l16.27-34a36.92 36.92 0 008-1.73 398.41 398.41 0 00-32.08-29.91z"/><path class="cls-8" d="M288.48 312a7 7 0 005.64-8.19l-10.4-56.71a7 7 0 013.49-7.42q4.57-2.58 9.35-5.12a7 7 0 0110.2 4.95l4.72 25.7a7 7 0 008.19 5.65 7 7 0 005.65-8.19l-6.19-33.72a7 7 0 013.87-7.65l6.37-3a7 7 0 019.85 5.13l1.41 7.7a7 7 0 008.19 5.64 7 7 0 005.65-8.18l-2.63-14.32a7 7 0 014.17-7.75c10.34-4.39 19.27-8 25.55-10.46a7 7 0 019.6 6.62c-.08 6.75-.28 16.37-.71 27.61a7 7 0 01-5.76 6.64l-14.32 2.63a7 7 0 00-5.65 8.19 7 7 0 008.19 5.64l7.7-1.41a7 7 0 018.29 7.39c-.16 2.32-.34 4.66-.52 7a7 7 0 01-5.74 6.34l-33.72 6.19a7 7 0 00-5.65 8.19 7 7 0 008.19 5.64l25.7-4.71a7 7 0 018.26 7.78c-.46 3.57-.95 7.1-1.48 10.56a7 7 0 01-5.69 5.9l-56.71 10.41a7 7 0 00-5.65 8.18 7 7 0 008.19 5.65l45.38-8.33a7 7 0 018 9c-2.36 8-5.12 14.66-8.36 19.35-22.79 33-68.91 40.75-103 17.22s-43.27-69.38-20.48-102.42c3.24-4.69 8.49-9.64 15.13-14.68a7 7 0 0111.21 4.3l8.33 45.38a7 7 0 008.19 5.68z"/><path class="cls-9" d="M260.75 256.64a7 7 0 0111.21 4.3l8.33 45.38a7 7 0 1013.83-2.54l-10.4-56.71a7 7 0 013.49-7.42q4.57-2.58 9.35-5.12a7 7 0 0110.2 4.95l4.72 25.7a7 7 0 1013.84-2.54l-6.19-33.72a7 7 0 013.87-7.62l6.37-3a7 7 0 019.85 5.13l1.41 7.7a7 7 0 0013.84-2.54l-2.63-14.32a7 7 0 014.17-7.75c10.34-4.39 19.27-8 25.55-10.46a7 7 0 016.57.75l-122 176.9c-34.1-23.53-43.27-69.38-20.48-102.42 3.21-4.66 8.46-9.61 15.1-14.65z"/><path d="M315.26 330.89a7 7 0 013-7.13 58.6 58.6 0 00-16.2-14.88 14.8 14.8 0 01-3.69-3.39c-2.8-3.43-5.15-8.16-7.14-13.74l2.21 12a6.85 6.85 0 01.11 1.42 7 7 0 01-1.65 4.38 7.74 7.74 0 01-.91.9 5.65 5.65 0 01-.61.45 6.18 6.18 0 01-.88.48 7.3 7.3 0 01-1.71.56 7.62 7.62 0 01-1.42.11 6.93 6.93 0 01-3.27-.89 7 7 0 01-3.5-4.87l-8.32-45.38a7 7 0 00-7.83-5.7 6.69 6.69 0 00-1.45.36 6.07 6.07 0 00-.7.29 7 7 0 00-.84.48c-.13.09-.27.17-.4.27-6.63 5-11.88 10-15.12 14.68a73.46 73.46 0 00-3.9 6.34 70 70 0 00-4.47 9.95c-.41 1.13-.78 2.27-1.13 3.42a72 72 0 00-2.35 10.8c-.29 2.14-.49 4.3-.59 6.45-.06 1.26-.09 2.51-.09 3.76a75.63 75.63 0 0033 61.7 75.86 75.86 0 0061.38 11.42v-36.5a39.86 39.86 0 00-.74-7.6 41.64 41.64 0 00-1.26-4.77l-1.38.25a7 7 0 01-8.15-5.62z" style="mix-blend-mode:soft-light" fill="#1d1d1b"/><path class="cls-8" d="M212.35 236.2c31.33 46.85 46.72 91.53 34.35 99.8s-47.78-23-79.12-69.85-34.35-99.79-34.35-99.79 47.77 23 79.12 69.84z"/><path class="cls-9" d="M167.58 266.15C198.92 313 234.34 344.27 246.7 336L133.23 166.36s3.02 52.94 34.35 99.79z"/><path class="cls-5" d="M408.19 362.83h68.03v68.03h-68.03z"/><path class="cls-5" d="M402.52 354.33h79.37v31.18h-79.37z"/><path class="cls-12" d="M402.52 354.33h36.85v34.02h-36.85z"/><path class="cls-12" d="M476.22 385.51h-68v45.36h34v-20.69a13.33 13.33 0 0113.33-13.33h20.69z"/><path class="cls-13" d="M272.13 430.87h158.74V272.13zm136.06-22.68h-79.37L408.19 326z"/><path class="cls-14" d="M328.82 408.19l19.84-20.55v-33.31l-76.53 76.54h76.53v-22.68h-19.84z"/><path class="cls-7" d="M93.54 300.17c49.19-51 98.67-30.33 103.45 29.27q2.28 3.9 4.27 7.88"/><path class="cls-15" d="M408.19 442.2h90.71v34.02h-90.71z"/><path d="M293.47 129.73s-17.08 45.15 16.53 60.19" stroke="#e2e2e2" stroke-linecap="round" stroke-width="10" fill="none" stroke-miterlimit="10"/><path class="cls-15" d="M317.48 113.38v31.19h-9.43a36.09 36.09 0 00-35.92 36v17.86h-45.36v-31.26a22.6 22.6 0 00-22.61-22.6h-5.73v-7.28-1.23a23.91 23.91 0 0123.87-22.68z"/><path class="cls-8" d="M477.43 187.25a3.1 3.1 0 003.67-3.86c-.78-2.79-7.82-27.4-13.81-33.11a17.11 17.11 0 00-23.6 24.77c5.99 5.71 30.92 11.55 33.74 12.2z"/><path class="cls-9" d="M480.36 186.36L443.21 151a17.06 17.06 0 00.48 24.09c6 5.71 30.92 11.55 33.74 12.2a3.11 3.11 0 002.93-.93z"/><path class="cls-8" d="M413.91 102.31a3.11 3.11 0 00-3.06-4.31c-2.89.22-28.4 2.31-35.17 7.06a17.11 17.11 0 0019.67 28c6.77-4.81 17.37-28.06 18.56-30.75z"/><path class="cls-9" d="M413.61 99.26l-42 29.5a17.05 17.05 0 0023.74 4.24c6.77-4.75 17.37-28 18.56-30.69a3.09 3.09 0 00-.3-3.05z"/><path class="cls-8" d="M420.7 201.53a3.11 3.11 0 004.95-2c.44-2.86 4.27-28.17 1.2-35.85a17.11 17.11 0 00-31.76 12.72c3.07 7.7 23.31 23.37 25.61 25.13z"/><path d="M423.73 201.94l-19.07-47.63a17 17 0 00-9.57 22.11c3.07 7.68 23.31 23.35 25.61 25.11a3.09 3.09 0 003.03.41z" fill="#00282b"/><path class="cls-3" d="M317.48 348.66v68.88a36.11 36.11 0 01-36 36h-64.06a36.11 36.11 0 01-36-36v-68.88A29.63 29.63 0 01182 343c3.21-16.32 19.29-25.51 19.29-25.51a24.37 24.37 0 006.34-5.67c21.56-26.46 19.17-107.72 19.17-107.72h45.36s-2.39 81.26 19.17 107.72a24.37 24.37 0 006.34 5.67s16.08 9.19 19.29 25.51a29.63 29.63 0 01.52 5.66z"/><path class="cls-4" d="M204 417.54l.31-42.12A32.68 32.68 0 01237 343h79.93c-3.21-16.32-19.29-25.51-19.29-25.51a24.37 24.37 0 01-6.34-5.67h-48a7.45 7.45 0 01-6.78-10.54c6.49-14.42 9.77-34.92 11.4-53.38a23.13 23.13 0 0123-21.12h1.22v-22.69h-45.45s2.84 96.38-25.51 113.39c0 0-19.84 11.34-19.84 31.18v68.88a36.11 36.11 0 0036 36H240a36.11 36.11 0 01-36-36z"/><path class="cls-15" d="M221.1 181.42h56.69v34.02H221.1z"/><path class="cls-18" d="M317.48 136.06v8.51h-9.43a36.09 36.09 0 00-35.92 36v.86h-45.36v-14.26a22.6 22.6 0 00-22.61-22.6h-5.73v-7.28-1.23z"/><path class="cls-19" d="M249.51 172.92a14.25 14.25 0 01-14.25-14.25 22.6 22.6 0 00-22.61-22.6h-14.19v8.51h5.73a22.6 22.6 0 0122.61 22.6v14.25h45.36v-.86a35.63 35.63 0 01.82-7.64z"/><path class="cls-18" d="M317.48 116.22h11.34v19.84h-11.34z"/><path class="cls-3" d="M362.83 453.54h68.03v22.68h-68.03z"/><path class="cls-13" d="M340.16 453.54h22.68v22.68h-22.68z"/><path fill="#1d1d1b" d="M462.04 464.88l-17 6.18V458.7l17 6.18z"/><path class="cls-5" d="M445.04 458.7v12.36l-14.18 5.16v-22.68l14.18 5.16z"/><path class="cls-4" d="M362.83 453.54h68.03v11.34h-68.03zM354.33 453.54h8.5v22.68h-8.5z"/><path class="cls-18" d="M221.1 181.42h14.17v34.02H221.1z"/><path class="cls-21" d="M226.77 215.43h45.35v5.67h-45.35z"/><path class="cls-14" d="M419.53 294.8h11.34v2.83h-11.34zM419.53 317.48h11.34v2.83h-11.34zM419.53 340.16h11.34v2.83h-11.34zM419.53 362.83h11.34v2.83h-11.34zM419.53 385.51h11.34v2.83h-11.34zM419.53 408.19h11.34v2.83h-11.34z"/><path class="cls-4" d="M198.43 371.34h119.06v14.17H198.43z"/><path class="cls-3" d="M181.42 371.34h136.06v5.67H181.42z"/><path fill="#b73116" d="M317.48 377.01h8.5v53.86h-8.5z"/><path class="cls-6" d="M189.92 175.75l-22.68 45.35 31.19-25.51 5.66 19.84-11.33 28.35 22.67-19.84-5.67-39.69-19.84-8.5z"/><path class="cls-21" d="M317.48 417.54v-45.78a38.53 38.53 0 00-3.9-3.29l-.76-.56h-.07c-.45-.31-.93-.63-1.46-1l-.39-.24c-.78-.47-1.56-.91-2.31-1.31l-.34-.17c-.77-.39-1.55-.75-2.3-1.07l-.29-.13c-.79-.32-1.61-.63-2.54-.95l-.51-.16c-.93-.3-1.78-.55-2.61-.75l-.28-.07c-.81-.19-1.64-.36-2.53-.51l-.5-.08a40.3 40.3 0 00-2.69-.33h-.58c-1.05-.08-2-.12-2.87-.12-21.23 0-38.5 16.88-38.5 37.62v3.94a37.43 37.43 0 00-18.6 32.2 36.67 36.67 0 005.16 18.78h42.87a36.11 36.11 0 0036-36.02z"/><path class="cls-7" d="M445 151.89c-6.61-3.37-24.75-11.46-46.3-6.5-13.34 3.08-22.09 9.81-26.9 13.59-32.18 25.31-38 70-39.26 82M377.34 128.47c-20.17 10.43-48.52 55.78-42.85 92.63"/><path class="cls-19" d="M328.82 136.06h-11.34v-19.84l11.34 19.84z"/><path class="cls-8" d="M321.56 407.16v-8.54c0-16.63-13.89-30.12-31-30.12s-31 13.49-31 30.12v8.54a30.11 30.11 0 00-18.61 27.6c0 16.64 13.89 30.12 31 30.12a31.46 31.46 0 0018.6-6 31.46 31.46 0 0018.6 6c17.13 0 31-13.48 31-30.12a30.11 30.11 0 00-18.59-27.6z"/><path class="cls-23" d="M325 460.67l.52-.31zM323.77 461.33l.51-.28zM326.15 460l.5-.32zM322.55 461.93l.35-.17zM327.37 459.13l.39-.27z"/><path class="cls-9" d="M278.15 434.76a30.1 30.1 0 0118.6-27.6v-8.54a29.78 29.78 0 0112.4-24.09 31.47 31.47 0 00-18.6-6c-17.12 0-31 13.49-31 30.12v8.54a30.1 30.1 0 00-18.6 27.6c0 16.64 13.88 30.12 31 30.12a31.46 31.46 0 0018.6-6 29.8 29.8 0 01-12.4-24.15z"/><path class="cls-23" d="M304.76 464.57zM316.82 464l.41-.11zM318.17 463.58l.52-.16zM319.51 463.15l.49-.15zM320.86 462.65l.48-.19zM312.61 464.69l-.53.05zM315.12 464.32l.34-.06zM313.55 464.57l.5-.07zM290.94 459.13l.72.5zM293.34 460.67l.69.38zM292.16 460l.66.41zM307.69 464.85h1.46c-.49.03-.98.02-1.46 0zM307.22 464.82l-1-.08zM310.62 464.85h.46zM298.8 463.15zM303.19 464.32zM300.14 463.58zM301.49 464c.45.11.9.22 1.36.31-.46-.14-.91-.25-1.36-.31zM297 462.46c-.41-.17-.81-.34-1.21-.53.37.19.77.36 1.21.53zM297.45 462.65l.82.32zM294.53 461.33l.88.43z"/><ellipse class="cls-8" cx="290.55" cy="434.76" rx="31" ry="30.12"/><path class="cls-9" d="M290.55 404.65a31.71 31.71 0 00-9.3 1.38 29.88 29.88 0 010 57.47 31.71 31.71 0 009.3 1.38c17.12 0 31-13.48 31-30.12s-13.88-30.11-31-30.11z"/><path class="cls-6" d="M287.84 405.07a23 23 0 00-7.82 1.37c10.58 3.81 18.25 15.15 18.25 28.54S290.6 459.7 280 463.51a23 23 0 007.82 1.37c14.4 0 26.08-13.39 26.08-29.9s-11.66-29.91-26.06-29.91z"/><path class="cls-23" d="M460.32 280.92c13.3-5 34.36-2.52 34.36-2.52s3.54 20.9-.71 34.44a17 17 0 01-32.77.85 17 17 0 01-.88-32.77z"/><path class="cls-24" d="M494.68 278.4s3.54 20.9-.71 34.44a17 17 0 01-32.77.85z"/><path class="cls-23" d="M517 334.36c5.72 13 4.48 34.16 4.48 34.16s-20.66 4.74-34.43 1.27a17 17 0 01-2.72-32.67 17 17 0 0132.67-2.76z"/><path class="cls-24" d="M521.46 368.52s-20.66 4.74-34.43 1.27a17 17 0 01-2.72-32.67z"/><path class="cls-14" d="M430.87 306.94A24.27 24.27 0 00421 308a24.54 24.54 0 00-8.49 4.76 24.86 24.86 0 00-2.15 2.08 52.32 52.32 0 00-4.61 5.2c-.71.91-1.43 1.88-2.14 2.9s-1.34 2-2 3a121.24 121.24 0 00-8.09 15.26l14.67-15.2v41.31c6.71 3.31 14.44 6.37 21.54 7.4l1.14.21z"/><path class="cls-23" d="M430.6 369.77c-16.38-2.33-36.6-16.55-36.6-16.55s8-23.37 19.89-34.87a19.78 19.78 0 0134 17.37 19.78 19.78 0 01-17.34 34z"/><path class="cls-24" d="M394 353.22s8-23.37 19.89-34.87a19.78 19.78 0 0134 17.37z"/><path d="M227.35 314.52a24.86 24.86 0 0014.2-12.74l3.84-8a12.47 12.47 0 00-5.87-16.62l-16.85-8.05c-2.8 17.09-7.43 33.35-15.07 42.73a24.37 24.37 0 01-6.34 5.67 48 48 0 00-11.34 9.75l-8.19 17.14a29.87 29.87 0 00-.31 4.29v37.68l29.47-61.7 4.3-9a25 25 0 0012.16-1.15z" fill="#ad4e00"/><path class="cls-5" transform="rotate(-154.46 176.562 352.138)" d="M167.65 317.41h17.81v69.46h-17.81z"/><path d="M118.59 473.47c35.35 16.89 52.8-19.63 52.8-19.63l8.06-16.84c1.57-3.29 0-7.69-4.1-10.76a34.35 34.35 0 01-9.3-10.34c-3.26-5.76-4.31-12.07-1.81-17.3l5.38-11.25-16.07-7.67-5.38 11.24c-2.5 5.23-8.06 8.38-14.59 9.47a34.13 34.13 0 01-13.88-.74c-4.94-1.23-9.38.28-11 3.57l-8.07 16.88s-17.39 36.48 17.96 53.37z" fill="#b7b7b7"/><path d="M118.59 473.47l43-90 8 3.83-5.38 11.25c-2.5 5.23-1.45 11.54 1.81 17.3a34.18 34.18 0 009.29 10.34c4.07 3.06 5.68 7.47 4.11 10.76l-8.06 16.88s-17.42 36.52-52.77 19.64z" fill="#999"/><path class="cls-13" d="M187.78 308l-5.06 10.59 16.07 7.68 5.06-10.59a25 25 0 0026.37-13.88l3.84-8a12.47 12.47 0 00-5.88-16.62l-25.71-12.29a12.45 12.45 0 00-16.62 5.88l-3.84 8a25 25 0 005.77 29.23zm13-4.47l-1.6-.77a15.17 15.17 0 01-7.18-20.2l3.46-7.23 2.41 1.15 22.5 10.75 4 1.91-3.37 7.24a15.19 15.19 0 01-20.23 7.13z"/><path class="cls-2" d="M473.39 257.95v31.18l-11.34-19.84 2.83 28.35-14.17-22.68 22.68-17.01z"/><path class="cls-7" d="M141.73 301.51s8.16-27.38 32.62-23.3"/><path class="cls-13" d="M148.44 327.05c-9.91 8.5-27.22 13.11-27.22 13.11s-6.13-16.83-4.84-29.83a18.89 18.89 0 012.16-7.95c4.12-7.9 12.71-11.56 19.19-8.19a11.48 11.48 0 014.87 5 11.41 11.41 0 016.86 1.14c6.48 3.38 8.39 12.52 4.27 20.42a18.74 18.74 0 01-5.29 6.3z"/><path class="cls-14" d="M121.22 340.16s-6.13-16.83-4.84-29.83a18.89 18.89 0 012.16-7.95c4.12-7.9 12.71-11.56 19.19-8.19a11.4 11.4 0 014.86 5z"/><path class="cls-21" d="M195.41 417.54v-32.03h-14v32.03a36.11 36.11 0 0036 36h14a36.11 36.11 0 01-36-36z"/><path class="cls-7" d="M102.05 230.47s19.84-11.33 42.52 5.67"/></g></g></svg>