<svg id="Ilustracja" xmlns="http://www.w3.org/2000/svg" viewBox="0 0 566.93 566.93"><defs><style>.cls-1{fill:#324100}.cls-2{fill:#6e7832}.cls-3{fill:#d8aa91}.cls-4{fill:#006464}.cls-5{fill:#0f373c}.cls-6{fill:#e6a073}.cls-7{fill:#d37e44}.cls-8{fill:#af500e}.cls-9{fill:none;stroke-miterlimit:10;stroke:#10373a;stroke-width:1.08px}.cls-10{fill:#059999}.cls-14{fill:#faebdc}.cls-15{fill:#e8a272}.cls-16{fill:#843500}.cls-17{fill:#7c3200}</style></defs><path class="cls-1" d="M52.62 364.91a11 11 0 007.38 1.23 11.13 11.13 0 003-1 11.07 11.07 0 00.4-19.53c-5.33-3-24.7-1.13-24.7-1.13s8.58 17.45 13.92 20.43z"/><path class="cls-2" d="M157.06 394.59c21.41 50.49 22 98.53 22 98.53s-34.13-33.81-55.54-84.3-22-98.52-22-98.52 34.13 33.81 55.54 84.29z"/><path class="cls-1" d="M123.51 408.82c21.41 50.49 55.54 84.3 55.54 84.3L101.51 310.3s.58 48.04 22 98.52z"/><path class="cls-2" d="M509.68 509.74c-27.37 20-60.29 21.44-60.29 21.44s11.44-30.91 38.8-50.88 60.28-21.44 60.28-21.44-11.47 30.91-38.79 50.88z"/><path class="cls-1" d="M488.19 480.3c-27.36 20-38.8 50.88-38.8 50.88l99.08-72.32s-32.92 1.47-60.28 21.44z"/><path class="cls-2" d="M482.55 494.33c-11.74 31.77-38.35 51.21-38.35 51.21s-7.58-32.07 4.16-63.84 38.36-51.21 38.36-51.21 7.58 32.07-4.17 63.84z"/><path class="cls-1" d="M448.36 481.7c-11.74 31.77-4.16 63.84-4.16 63.84l42.52-115s-26.61 19.38-38.36 51.16z"/><path class="cls-2" d="M495.88 496.51c-20.06 23.74-50.24 31.22-50.24 31.22S448 496.72 468 473s50.24-31.22 50.24-31.22-2.3 30.99-22.36 54.73z"/><path class="cls-1" d="M468 473c-20.06 23.74-22.4 54.75-22.4 54.75l72.64-86S488.1 449.24 468 473z"/><rect class="cls-3" x="50.74" y="527.21" width="290.24" height="15.28" rx="7.64"/><rect class="cls-3" x="319.59" y="536.38" width="183.31" height="12.22" rx="6.11"/><rect class="cls-3" x="111.84" y="554.71" width="100.82" height="12.22" rx="6.11"/><path class="cls-4" d="M175.58 465.55a48.88 48.88 0 01-90.84 36.15C74.76 476.61 94 392.79 94 392.79s71.59 47.67 81.58 72.76z"/><path class="cls-5" d="M94 392.79s-19.24 83.82-9.26 108.91a48.88 48.88 0 0063.49 27.3z"/><path class="cls-6" d="M166.83 365.29h244.41v97.76H166.83zM386.8 340.85H191.27a24.44 24.44 0 01-24.44 24.44h244.41a24.44 24.44 0 01-24.44-24.44z"/><rect class="cls-6" x="154.61" y="365.29" width="268.85" height="12.22" rx="6.11"/><path class="cls-6" d="M411.24 438.62H166.83l-24.44 24.44v73.32h293.29v-73.32l-24.44-24.44z"/><path class="cls-7" d="M243.21 438.62v-61.11h-6.11a6.11 6.11 0 110-12.22h6.11a24.44 24.44 0 0024.44-24.44h-76.38a24.44 24.44 0 01-24.44 24.44h-6.11a6.11 6.11 0 100 12.22h6.11v61.11l-24.44 24.44v73.32h76.38v-73.32z"/><path class="cls-8" d="M185.16 438.62v-61.11h-6.11a6.11 6.11 0 010-12.22h6.11a24.45 24.45 0 0024.45-24.44h-18.34a24.44 24.44 0 01-24.44 24.44h-6.11a6.11 6.11 0 100 12.22h6.11v61.11l-24.44 24.44v73.32h18.33v-73.32z"/><path class="cls-4" d="M507.72 352.08a15.28 15.28 0 11-9.64-29c8-2.66 33.81 4.86 33.81 4.86s-16.17 21.48-24.17 24.14z"/><path class="cls-5" d="M531.89 328s-25.8-7.52-33.81-4.86a15.28 15.28 0 00-9.68 19.31z"/><path class="cls-2" d="M58.48 359.07a10.94 10.94 0 005.29 4.6 8.35 8.35 0 002.66.57 7.57 7.57 0 005.1-1.62c4.09-3.18 4.86-9.91 1.73-15s-18.73-12.84-18.73-12.84.82 19.16 3.95 24.29z"/><path class="cls-4" d="M478.61 420.8a15.28 15.28 0 1124.13-18.74c5.18 6.66 6.68 33.5 6.68 33.5s-25.63-8.1-30.81-14.76z"/><path class="cls-5" d="M509.42 435.56s-1.5-26.84-6.68-33.5a15.28 15.28 0 00-21.43-2.7z"/><path class="cls-7" d="M142.39 463.06h293.29l-24.44-24.45H166.83l-24.44 24.45zM166.83 377.51h244.41v9.17H166.83z"/><path class="cls-9" d="M469.29 496.66c-32.37-53.9-30-82-21.39-97.76 9-16.41 26.61-22.85 27.5-39.72.87-16.54-15-30.76-27.5-39.72M444.85 441.67s9.93-58.05 39.72-39.72"/><path class="cls-9" d="M455 389.73c3.23-11.93.27-23.46-7.48-29.05a20 20 0 00-9.95-3.6"/><path class="cls-4" d="M444.68 344A13.13 13.13 0 01431 366.41c-6.19-3.79-15.54-24.91-15.54-24.91s23.04-1.27 29.22 2.5z"/><path class="cls-5" d="M415.43 341.5s9.35 21.12 15.54 24.91a13.12 13.12 0 0018-4.34z"/><path class="cls-9" d="M475.4 359.18c.45-2.46 2.21-10.25 9.17-15.27a21.23 21.23 0 016.11-3.06"/><path class="cls-5" d="M350.14 469.16a36.46 36.46 0 0116.69 4 48.87 48.87 0 0188.82 0 36.66 36.66 0 1116.69 69.3h-122.2a36.67 36.67 0 010-73.33z"/><path class="cls-8" d="M166.83 377.51h76.38v9.17h-76.38zM243.21 438.61h-76.38l-24.44 24.45h76.38l24.44-24.45zM166.83 365.29h76.38a24.44 24.44 0 0024.37-24.44h-76.37a24.44 24.44 0 01-24.38 24.44z"/><path class="cls-4" d="M117.18 497.85a23.43 23.43 0 01-35.82 30.2c-8.34-9.89-12.29-50.92-12.29-50.92s39.77 10.87 48.11 20.72z"/><path class="cls-5" d="M69.07 477.13s4 41 12.29 50.92a23.43 23.43 0 0033 2.81z"/><path class="cls-7" d="M301.26 383.62h51.94v36.66h-51.94z"/><path class="cls-8" d="M301.26 386.68h51.94v6.11h-51.94z"/><path class="cls-7" d="M243.21 426.39h24.44v12.22h-24.44zM218.77 524.16h24.44v12.22h-24.44zM218.77 511.94h12.22v12.22h-12.22z"/><path class="cls-7" d="M243.21 414.17h12.22v12.22h-12.22z"/><path class="cls-7" transform="rotate(-180 399.02 432.505)" d="M386.8 426.39h24.44v12.22H386.8z"/><path class="cls-7" transform="rotate(-180 405.135 420.285)" d="M399.02 414.17h12.22v12.22h-12.22z"/><path class="cls-8" d="M185.16 530.27h146.65v6.11H185.16zM166.83 432.5h244.41v6.11H166.83z"/><path class="cls-4" d="M411.24 444.72a48.89 48.89 0 00-44.41 28.47 36.66 36.66 0 10-16.69 69.3h61.1z"/><path class="cls-5" d="M334.86 505.82a36.69 36.69 0 0126-35.07 36.66 36.66 0 10-10.68 71.74h21.39a36.67 36.67 0 01-36.71-36.67z"/><path class="cls-10" d="M484.57 505.82a36.68 36.68 0 00-24.42-34.56 36.66 36.66 0 1112.2 71.23H447.9a36.67 36.67 0 0036.67-36.67z"/><path class="cls-5" d="M357.24 524.16a52.45 52.45 0 003.26 18.33H460a52.49 52.49 0 003.26-18.33 53 53 0 00-106 0z"/><path class="cls-4" d="M372.59 542.49a42.77 42.77 0 1177.3 0z"/><path class="cls-10" d="M402.08 482.38a42.78 42.78 0 0147.81 60.11h-18.33a42.79 42.79 0 00-29.48-60.11z"/><path d="M192.1 544.8a30.56 30.56 0 11-56.63-23c6.35-15.63 51.28-45.14 51.28-45.14s11.69 52.5 5.35 68.14z" fill="#d25a3c"/><path d="M186.75 476.69s-44.93 29.51-51.28 45.14a30.57 30.57 0 0016.83 39.8z" fill="#ff8764"/><path class="cls-7" d="M380.69 386.68h30.55v15.28h-30.55z"/><path d="M124.06 408.06c-6.11-24.51-20.34-42.56-36.68-45-1.69-.25-14.88-2-21.81 5.82-3.82 4.32-6.71 12.66-2 17.93 2.87 3.23 7.91 4.56 12.27 3.68a12 12 0 009.54-9.5" stroke="#333f00" stroke-width="1.08" fill="none" stroke-miterlimit="10"/><path class="cls-14" d="M145.45 331.69l-21.39 27.49 24.44-12.22v12.22l-12.22 12.22h12.22l12.22-24.44-15.27-15.27zM50.74 423.34l58.05 18.33H69.07l3.06 12.22L93.51 460l-27.5 6.11-18.33-42.77"/><path class="cls-8" d="M194.33 359.18h207.75v6.11H194.33z"/><path class="cls-2" d="M297.4 488.36l-1-36.12c-.27-9.27-8.84-13.49-16.35-8l-29.25 21.2c-5 3.64-7.73 10.44-6.47 16.25l.47 2.19c1.45 6.73 7.67 9.79 13.89 6.84 6.22-2.95 12.44.11 13.89 6.84 1.45 6.73 7.67 9.79 13.89 6.84l2-1c5.37-2.55 9.11-8.85 8.93-15.04z"/><path class="cls-1" d="M258.68 490.66c-6.22 2.95-12.44-.11-13.89-6.84l-.47-2.19a16.63 16.63 0 016.47-16.25l29.21-21.2c3.76-2.73 7.78-3 10.89-1.5l-23.52 47.77a9.88 9.88 0 00-8.69.21z"/><path class="cls-2" d="M249.36 499.27l-18-13c-4.62-3.35-9.88-.76-10 4.94l-.64 22.19a10.22 10.22 0 005.48 9.25l1.24.59A5.79 5.79 0 00236 519a5.8 5.8 0 018.54-4.2 5.79 5.79 0 008.54-4.19l.29-1.35a10.23 10.23 0 00-4.01-9.99z"/><path class="cls-1" d="M236 519a5.79 5.79 0 01-8.53 4.2l-1.25-.6a10.19 10.19 0 01-5.48-9.24l.64-22.19a6.48 6.48 0 013.36-5.87l14.44 29.37A6.08 6.08 0 00236 519z"/><path class="cls-15" d="M310.42 101.64c-20.24 0-33.6 16.41-33.6 36.66v51.94h33.6z"/><path class="cls-8" d="M252.38 230v1.93a21.7 21.7 0 0122.49 7.36l41.66 51.82v48.88h18.33v-58.1l-18.33-21.38 15.69-21.06a39.51 39.51 0 005.57-9.29l.13-.21h-85.54z"/><path class="cls-16" d="M252.38 230v1.93a21.7 21.7 0 0122.49 7.36L292 260.5h24.57l15.68-21.05a39.51 39.51 0 005.57-9.29l.13-.21h-85.57z"/><path class="cls-8" d="M200.44 205.51h18.33v134.43h-18.33z"/><path class="cls-16" d="M200.44 214.68h18.33v45.83h-18.33z"/><path class="cls-8" d="M426.42 226.9a55.17 55.17 0 00-54.9-51.9h-55v24.4h48.88A30.64 30.64 0 01396 230v12.22a30.55 30.55 0 0030.55 30.55V226.9z"/><path class="cls-17" d="M426.43 226.9a55.17 55.17 0 00-54.9-51.9h-12.22a55.17 55.17 0 0154.9 51.94h.09v43.27a30.34 30.34 0 0012.22 2.55V226.9z"/><path class="cls-17" d="M367.26 175h-50.73v24.4h48.89a30.45 30.45 0 0121.49 8.9 49.54 49.54 0 00-19.65-33.3z"/><path class="cls-15" d="M227.94 205.51h18.33v134.43h-18.33z"/><path class="cls-15" d="M377.62 215.1a39.71 39.71 0 00-36.65-40v-.12H240.34a21.58 21.58 0 01-21.57-21.58v-21.27a51.91 51.91 0 00-50.2-51.88 5.71 5.71 0 00-3.16.87L118.2 110a5.88 5.88 0 00-1.09 9.16l8.14 8.13c4.95 5 12.13 4.77 18.92 3.07l15.37-3.84a5.87 5.87 0 017.29 5.69v57.76a58.34 58.34 0 0058.34 58.34h20a6 6 0 002.12-.4L286.82 233c8.81-3.38 18.8-1.24 24.7 6.11l40.38 50.33a5.93 5.93 0 011.29 3.68V334a.28.28 0 000 .09V343h18.33V283.74a5.89 5.89 0 00-1.09-3.41l-11.94-16.72a5.87 5.87 0 01-.26-6.43l10.46-17.45a5.81 5.81 0 01.4-.57 40.21 40.21 0 005.37-9l.11-.22a38.89 38.89 0 003.05-14.84z"/><path class="cls-7" d="M377.63 215.1a39.71 39.71 0 00-36.65-40v-.12h-11.76a46.16 46.16 0 0130.08 43.8 45.33 45.33 0 01-3.58 17.22l-.14.26a46.69 46.69 0 01-6.24 10.48 6 6 0 00-.46.66l-12.17 20.3a6.84 6.84 0 00-.77 1.89l15.93 19.86a5.93 5.93 0 011.29 3.68V334a.28.28 0 000 .09v5.81h18.33v-56.16a5.89 5.89 0 00-1.09-3.41l-11.9-16.72a5.87 5.87 0 01-.26-6.43l10.46-17.45a5.81 5.81 0 01.4-.57 40.59 40.59 0 005.37-9l.11-.22a38.89 38.89 0 003.05-14.84zM184.89 190v-57.81a5.86 5.86 0 00-7.29-5.69l-12.18 3a5.85 5.85 0 01.63 2.65V190a58.34 58.34 0 0058.34 58.33h18.82A58.33 58.33 0 01184.89 190z"/><path class="cls-16" d="M200.44 327.72h18.33v12.22h-18.33z"/><path class="cls-7" d="M227.94 327.72h18.33v12.22h-18.33z"/><path class="cls-16" d="M316.53 327.72h18.33v12.22h-18.33zM353.2 327.72h18.33v12.22H353.2z"/><circle class="cls-8" cx="166.83" cy="101.64" r="6.11"/><path class="cls-8" d="M310.47 150.52h-.05V175h24.44v-.05a26 26 0 01-24.39-24.43z"/><path class="cls-15" d="M295.15 64.98h15.28v48.88h-15.28z"/><rect class="cls-15" x="267.65" y="64.98" width="54.99" height="6.11" rx="3.06"/><path class="cls-15" d="M279.87 65h24.44v33.58h-12.53a11.91 11.91 0 01-11.91-11.91V65zM282.93 65l9.48-45.83a2.82 2.82 0 015.48 0L307.37 65zM252.38 175h24.44v-24.48A24.44 24.44 0 01252.38 175z"/><path class="cls-8" d="M310.42 174.96l-36.66 30.55v33.61l12.22-6.11v-24.44l42.77-33.63-18.33.02z"/><path class="cls-15" d="M258.49 202.46h18.33v58.05h-18.33z"/><path class="cls-8" d="M307.37 64.97h-24.44l1.89-9.16h20.66l1.89 9.16z"/><path class="cls-15" d="M305.48 55.81h-20.66l1.9-9.16h16.87l1.89 9.16z"/><path class="cls-8" d="M303.59 46.65h-16.87l1.9-9.17h13.07l1.9 9.17z"/><path class="cls-15" d="M301.11 36h-12.13l1.76-8.5h8.61l1.76 8.5z"/><path class="cls-8" d="M299.35 27.5h-8.61l1.76-8.51h5.09l1.76 8.51zM279.87 86.36V71.09h30.55l-30.55 15.27z"/><path class="cls-7" d="M246.27 260.5l-12.22 9.17v6.11h12.22V260.5z"/><path class="cls-15" d="M258.49 257.45l-18.33 12.22v6.11h26.43a10.23 10.23 0 0010.23-10.23v-8.1z"/><path class="cls-7" d="M295.15 120v27.49H264.6a15.28 15.28 0 00-15.28 15.28h61.1v-58.08A15.28 15.28 0 00295.15 120zM258.49 175h-18.15a21.47 21.47 0 01-12.4-3.94v77.26h17.23a5.94 5.94 0 002.12-.39l11.2-4.22z"/><path d="M168.38 80.28a51.9 51.9 0 0150.2 51.88v21.23A21.58 21.58 0 00240.16 175h12.22" stroke="#af500e" stroke-width="21.56" fill="none" stroke-miterlimit="10"/><path class="cls-16" d="M194.33 75.88a62.45 62.45 0 00-25.6-6.37L168 91.05a41 41 0 0126.3 10.57z"/><path class="cls-15" d="M179.05 71.09v24.43h-12.22V58.87a12.21 12.21 0 0112.22 12.22z"/></svg>