<svg xmlns="http://www.w3.org/2000/svg" viewBox="0 0 1366 667"><defs><style>.cls-2{fill:#faebdc}.cls-3{fill:#e2bbaa}.cls-33,.cls-4{fill:#fff}.cls-5{fill:#001c1e}.cls-7{fill:#006464}.cls-8{fill:#0f373c}.cls-9{fill:#f5a03c}.cls-10{fill:#ea7500}.cls-11,.cls-12,.cls-26{fill:none;stroke-miterlimit:10}.cls-11,.cls-26{stroke:#001819}.cls-11{stroke-width:15px}.cls-12{stroke:#301300;stroke-width:5px}.cls-13{fill:#009b97}.cls-15{fill:#ff8764}.cls-16{fill:#d25a3c}.cls-17{fill:#bf3116}.cls-18{fill:#001819}.cls-19{fill:#e6a073}.cls-20{fill:#4c1f00}.cls-21{fill:#c1754c}.cls-22{fill:#a35431}.cls-23{fill:#301300}.cls-24{fill:#994c29}.cls-25{fill:#00998e}.cls-26{stroke-width:20px}.cls-28{fill:#a8b28e}.cls-29{fill:#757b68}.cls-30{fill:#1c2600}.cls-31{fill:#dbd7af}.cls-33{mix-blend-mode:soft-light}.cls-35{fill:#f6b594}.cls-37{fill:#fbf9e0}</style></defs><g style="isolation:isolate"><path class="cls-2" d="M0 0h1366v667H0z" id="Tlo"/><g id="Ilustracja"><circle class="cls-3" cx="1071.93" cy="246.29" r="27.1"/><path class="cls-4" d="M1142.66 293a74.34 74.34 0 00-70.1-49.61 49.56 49.56 0 00-99.11 0v.28c-2-.17-4.11-.28-6.2-.28a74.34 74.34 0 1052.65 126.8 74.31 74.31 0 0090.5 11.51 49.54 49.54 0 1032.26-88.7z"/><path class="cls-3" d="M958 272a75.58 75.58 0 00-11.71 11.74A51.37 51.37 0 01958 272z"/><path class="cls-3" d="M1022.87 223.17a49.37 49.37 0 0133.13-16.78 49.52 49.52 0 00-67.31 1.27l-.17.17c-.53.5-1.05 1-1.53 1.57s-1.08 1.14-1.58 1.75c0 0-.06.07-.11.11-.5.59-1 1.23-1.48 1.84a46 46 0 00-3.83 5.72 43.55 43.55 0 00-2.44 4.88c-.33.74-.64 1.48-.9 2.22-.59 1.56-1.09 3.15-1.53 4.77-.15.54-.28 1.09-.39 1.66a31.69 31.69 0 00-.64 3.28c-.08.46-.15.92-.19 1.37s-.11.86-.16 1.29a50.48 50.48 0 00-.26 5.07v.27c-2.05-.18-4.13-.29-6.2-.29a74.34 74.34 0 00-4.11 148.56 74.32 74.32 0 01-16.87-108.15A51.37 51.37 0 01958 272a52.64 52.64 0 0181 26.49 74.22 74.22 0 012.5 17.44v1.77a73.75 73.75 0 01-1.34 14 80.55 80.55 0 00-17.37-108.57z"/><circle class="cls-3" cx="1064.77" cy="330.65" r="42.4"/><circle class="cls-4" cx="1078.28" cy="337.97" r="42.13"/><circle class="cls-3" cx="1052.47" cy="258.21" r="27.74"/><circle class="cls-4" cx="1061.3" cy="263" r="27.56"/><circle class="cls-3" cx="959.45" cy="351.02" r="34.79"/><circle class="cls-4" cx="970.53" cy="357.03" r="34.56"/><circle class="cls-3" cx="1125.27" cy="361.51" r="25.4"/><circle class="cls-4" cx="1133.36" cy="365.9" r="25.24"/><circle class="cls-3" cx="1145.95" cy="342.2" r="18.55"/><circle class="cls-4" cx="1153.92" cy="347.47" r="18.43"/><circle class="cls-3" cx="1098.11" cy="298.28" r="26.27"/><circle class="cls-4" cx="1109.39" cy="305.76" r="26.1"/><path class="cls-5" d="M1068.66 454.4h45.36v-79.37l-45.36 5.67v73.7z"/><circle cx="691.65" cy="329.68" r="192.76" fill="#ffd3ab"/><circle class="cls-3" cx="199.85" cy="328.73" r="30.25"/><path class="cls-4" d="M278.82 380.85a83 83 0 00-78.26-55.38 55.33 55.33 0 00-110.65 0v.31c-2.29-.18-4.59-.31-6.93-.31A83 83 0 10141.77 467a83 83 0 00101 12.85 55.32 55.32 0 1036-99z"/><path class="cls-3" d="M72.68 357.45a84.39 84.39 0 00-13.08 13.1 57.26 57.26 0 0113.08-13.1z"/><path class="cls-3" d="M145.09 302.92a55.16 55.16 0 0137-18.74 55.31 55.31 0 00-75.14 1.42l-.19.2c-.59.56-1.17 1.14-1.71 1.75s-1.2 1.27-1.76 1.95c0 0-.07.08-.12.13-.56.65-1.12 1.36-1.66 2a52 52 0 00-4.27 6.4 48.49 48.49 0 00-2.73 5.44c-.37.83-.71 1.66-1 2.49-.66 1.73-1.22 3.51-1.71 5.31-.17.61-.32 1.22-.44 1.86a38.82 38.82 0 00-.71 3.66c-.09.51-.17 1-.21 1.53s-.13 1-.18 1.44a56.16 56.16 0 00-.29 5.66v.3c-2.3-.19-4.62-.32-6.93-.32a83 83 0 00-4.59 165.85 83 83 0 01-18.85-120.7 57.26 57.26 0 0113.08-13.1A58.76 58.76 0 01163.16 387a82.72 82.72 0 012.84 19.49v2a82.34 82.34 0 01-1.49 15.66 89.95 89.95 0 00-19.39-121.2z"/><circle class="cls-3" cx="191.86" cy="422.91" r="47.34"/><circle class="cls-4" cx="206.94" cy="431.09" r="47.03"/><circle class="cls-3" cx="178.13" cy="342.04" r="30.97"/><circle class="cls-4" cx="187.99" cy="347.39" r="30.77"/><circle class="cls-3" cx="74.28" cy="445.65" r="38.84"/><circle class="cls-4" cx="86.65" cy="452.36" r="38.59"/><circle class="cls-3" cx="259.4" cy="457.37" r="28.36"/><circle class="cls-4" cx="268.43" cy="462.27" r="28.17"/><circle class="cls-3" cx="282.5" cy="435.8" r="20.71"/><circle class="cls-4" cx="291.39" cy="441.7" r="20.57"/><circle class="cls-3" cx="229.08" cy="386.78" r="29.33"/><circle class="cls-4" cx="241.68" cy="395.12" r="29.14"/><circle class="cls-3" cx="635.64" cy="95.2" r="21.99"/><path class="cls-4" d="M693 133.08a60.33 60.33 0 00-56.88-40.24 40.21 40.21 0 10-80.42 0v.22c-1.66-.14-3.34-.22-5-.22a60.31 60.31 0 1042.72 102.87 60.27 60.27 0 0073.42 9.34 40.2 40.2 0 1026.18-72z"/><path class="cls-3" d="M543.21 116.07a61.09 61.09 0 00-9.5 9.52 41.67 41.67 0 019.5-9.52z"/><path class="cls-3" d="M595.83 76.45a40.05 40.05 0 0126.87-13.62 40.17 40.17 0 00-54.61 1l-.14.14c-.43.41-.85.83-1.24 1.28s-.87.92-1.28 1.41c0 0 0 .06-.09.09-.41.48-.81 1-1.2 1.49a36.22 36.22 0 00-3.14 4.68 35.52 35.52 0 00-2 4c-.27.6-.52 1.21-.73 1.81a38.76 38.76 0 00-1.24 3.87c-.13.44-.23.88-.32 1.34a26 26 0 00-.51 2.66 8.63 8.63 0 00-.16 1.12c-.06.34-.09.69-.13 1a40.11 40.11 0 00-.21 4.11v.21c-1.67-.14-3.35-.23-5-.23a60.31 60.31 0 00-3.33 120.53 60.31 60.31 0 01-13.67-87.77 41.67 41.67 0 019.5-9.52 42.71 42.71 0 0165.8 21.51 59.44 59.44 0 012 14.15v1.44a60.07 60.07 0 01-1.08 11.38 65.37 65.37 0 00-14.1-88.08z"/><circle class="cls-3" cx="629.83" cy="163.65" r="34.4"/><circle class="cls-4" cx="640.79" cy="169.59" r="34.18"/><circle class="cls-3" cx="619.85" cy="104.88" r="22.51"/><circle class="cls-4" cx="627.02" cy="108.76" r="22.36"/><circle class="cls-3" cx="544.38" cy="180.17" r="28.23"/><circle class="cls-4" cx="553.37" cy="185.05" r="28.04"/><circle class="cls-3" cx="678.91" cy="188.69" r="20.61"/><circle class="cls-4" cx="685.48" cy="192.25" r="20.48"/><circle class="cls-3" cx="695.7" cy="173.02" r="15.05"/><circle class="cls-4" cx="702.16" cy="177.3" r="14.95"/><circle class="cls-3" cx="656.88" cy="137.39" r="21.32"/><circle class="cls-4" cx="666.03" cy="143.45" r="21.18"/><path class="cls-7" d="M251.49 370.77c31.55 31.55 49.95 64.3 41.09 73.16s-41.61-9.54-73.16-41.09-41.09-73.16-41.09-73.16 41.61 9.54 73.16 41.09z"/><path class="cls-8" d="M178.33 329.68l114.25 114.25c8.86-8.86-9.54-41.61-41.09-73.16s-73.16-41.09-73.16-41.09z"/><path class="cls-7" d="M291.93 365c20.85 39.44 28.79 76.16 17.72 82s-37-21.37-57.82-60.82-17.71-82-17.71-82 36.95 21.36 57.81 60.82z"/><path class="cls-8" d="M234.12 304.17L309.65 447c11.07-5.86 3.13-42.58-17.72-82s-57.81-60.83-57.81-60.83z"/><ellipse class="cls-9" cx="1213.23" cy="465.74" rx="22.68" ry="79.37"/><path class="cls-10" d="M1213.23 386.37c-12.53 0-22.68 35.54-22.68 79.37s10.15 79.37 22.68 79.37z"/><ellipse class="cls-9" cx="1281.26" cy="431.72" rx="34.02" ry="90.71"/><path class="cls-10" d="M1281.26 341c-18.79 0-34 40.61-34 90.7s15.23 90.71 34 90.71z"/><path class="cls-11" d="M1185 100.07c-20 187.09 45.2 147.4 48 280.63M1054.49 6.53c-17 147.4 42.52 198.42 65.2 306.14"/><path class="cls-7" d="M0 522.43h1366V667H0z"/><path class="cls-12" d="M450.71 290c-8.69 11.4-22.31 32.89-25.51 62.36a118.53 118.53 0 000 25.52"/><rect class="cls-8" x="907.09" y="545.11" width="218.27" height="8.5" rx="4.25"/><path class="cls-12" d="M402.52 307c5.67 76.54 45.35 76.54 45.35 136.06"/><path class="cls-11" d="M1349.29 111.41c16.71 178.58-82.2 209.76-87.87 311.81"/><path class="cls-7" d="M386.85 390.89a64.25 64.25 0 10-127.4 0 64.25 64.25 0 1063.7 111.59 64.25 64.25 0 1063.7-111.59z"/><path class="cls-8" d="M287 446.84a64.21 64.21 0 0132.68-55.95 63.11 63.11 0 01-.56-8.3 64.23 64.23 0 0134.14-56.76 64.26 64.26 0 00-94.37 56.76 64.88 64.88 0 00.55 8.3 64.23 64.23 0 0061.66 112.69 64.24 64.24 0 01-34.1-56.74z"/><path class="cls-13" d="M386.85 390.89a64.13 64.13 0 00-33.58-65.06 60.13 60.13 0 00-3.22-1.59l-.48-.22c-1-.43-1.94-.85-2.93-1.23l-.55-.22c-1.08-.42-2.18-.81-3.3-1.16l-.15-.06c-1.22-.38-2.44-.73-3.68-1.05h-.16c-1.1-.28-2.22-.53-3.35-.74-.33-.07-.67-.12-1-.18a54.6 54.6 0 00-2.61-.41l-1.2-.16c-.86-.1-1.73-.17-2.61-.24l-1.13-.09a64.74 64.74 0 00-3.7-.11 64.14 64.14 0 00-16.09 2c1.16.3 2.31.62 3.44 1l.16.06c1.11.35 2.21.74 3.3 1.16l.55.22c1 .38 2 .8 2.92 1.23l.49.22c1.09.5 2.16 1 3.22 1.59a64.23 64.23 0 0134.14 56.76 63.11 63.11 0 01-.56 8.3 64.25 64.25 0 01-15.45 118.16 64.24 64.24 0 0047.58-118.16z"/><path class="cls-5" d="M286.07 501.94l-1-.62a64.09 64.09 0 01-8.23-6.12c-.67-.58-1.32-1.18-2-1.78a66.177 66.177 0 01-3.22-3.27 64.23 64.23 0 0115.88-99.26 64.14 64.14 0 0149.61-71c-.58-.13-1.15-.27-1.73-.38-.33-.07-.67-.12-1-.18a54.6 54.6 0 00-2.61-.41l-1.2-.16c-.86-.1-1.73-.17-2.61-.24l-1.13-.09a64.74 64.74 0 00-3.7-.11 64.17 64.17 0 00-63.7 72.55 64.23 64.23 0 00-15.88 99.26c1 1.13 2.11 2.21 3.22 3.27.63.6 1.28 1.2 2 1.78a64.09 64.09 0 008.23 6.12l1 .62a63.93 63.93 0 0033 9.17h.09c1.38 0 2.74 0 4.1-.14.61 0 1.22-.11 1.83-.17s1.49-.13 2.23-.22 1.59-.25 2.38-.38c.52-.09 1.05-.16 1.57-.26s1.21-.27 1.81-.41a63.81 63.81 0 01-18.94-7.57z"/><path d="M932.6 624.48a11.37 11.37 0 01-11.34 11.34h-44.52a15.59 15.59 0 000 31.18H593.86a15.59 15.59 0 100-31.18H484.72a11.34 11.34 0 010-22.67h36.85a22.68 22.68 0 000-45.36h-45.35a22.68 22.68 0 010-45.35h385.51a22.68 22.68 0 010 45.35 22.68 22.68 0 000 45.36h59.53a11.37 11.37 0 0111.34 11.33z" fill="#00b5ac"/><path class="cls-15" d="M1068.07 435.36c-37.37 33.36-74.43 52.84-82.77 43.5s15.19-44 52.56-77.33 82.76-43.53 82.76-43.53-15.19 44-52.55 77.36z"/><path class="cls-16" d="M1068.07 435.36c37.36-33.36 52.55-77.36 52.55-77.36L985.3 478.86c8.34 9.34 45.4-10.14 82.77-43.5z"/><path class="cls-15" d="M1039 392.54c-18.77 46.44-43.4 80.29-55 75.6s-5.81-46.15 13-92.6 55-75.6 55-75.6 5.72 46.15-13 92.6z"/><path class="cls-16" d="M1039 392.54c18.77-46.45 13-92.6 13-92.6l-68 168.2c11.55 4.69 36.18-29.14 55-75.6z"/><path class="cls-17" d="M983.94 468.14a6 6 0 002.32.43c5.82 0 13.94-7.23 22.75-19.41a78 78 0 00-13.77-12.68c8-16.13 12.56-38.75 12.56-62.87 0-6.35-.33-12.6-.94-18.67a178.77 178.77 0 00-10 20.6c-18.73 46.46-24.54 87.91-12.92 92.6z"/><path class="cls-15" d="M367.71 427.46c31.55 31.55 50 64.3 41.09 73.16s-41.61-9.54-73.16-41.09-41.09-73.16-41.09-73.16 41.61 9.54 73.16 41.09z"/><path class="cls-18" d="M183.51 441c-18.67 18.67-38.06 29.56-43.3 24.32s5.65-24.63 24.32-43.3 43.29-24.31 43.29-24.31-5.64 24.62-24.31 43.29z"/><path class="cls-18" d="M163.44 419c-14.95 29.47-33.78 50-42 45.76s-2.86-31.49 12.09-61 42-45.76 42-45.76 2.86 31.51-12.09 61zM70.74 423.15c19 27.07 28.14 53.33 20.54 58.65s-29.12-12.32-48.06-39.39-20.54-58.65-20.54-58.65 29.12 12.32 48.06 39.39zM383.89 588.84c-18.81 7.45-35.76 9.21-37.85 3.93s11.46-15.6 30.27-23 37.85-3.94 37.85-3.94-11.46 15.55-30.27 23.01zM1313 534.12c-29.46 31.07-60.41 49.55-69.13 41.27s8.09-40.15 37.56-71.21 69.13-41.27 69.13-41.27-8.08 40.15-37.56 71.21z"/><path class="cls-16" d="M294.55 386.37L408.8 500.62c8.86-8.86-9.54-41.61-41.09-73.16s-73.16-41.09-73.16-41.09z"/><path class="cls-17" d="M337.32 461.13c31.05 30.56 62.84 48.2 71.54 39.49 8.86-8.86-9.54-41.61-41.09-73.16-1.62-1.62-3.26-3.17-4.93-4.68a55.39 55.39 0 00-9.84 28.76 77.6 77.6 0 00-15.68 9.59z"/><path class="cls-8" d="M1111.18 454.4a45.19 45.19 0 00-18.15 3.79 56.68 56.68 0 00-95.23 41.57h158.74a45.36 45.36 0 00-45.36-45.36z"/><ellipse class="cls-9" cx="963.78" cy="373.61" rx="34.02" ry="77.95"/><path class="cls-10" d="M959.94 341a52.81 52.81 0 00-13.15-34.92c-10.18 13.47-17 38.65-17 67.51 0 43.06 15.23 78 34 78 8.33 0 16-6.87 21.87-18.26a75.21 75.21 0 00-26-8.42 75.58 75.58 0 00-18.72-43.27 52.94 52.94 0 0019-40.64z"/><path class="cls-8" d="M952.44 431.8v-.08a68 68 0 10-70.86 68v.08h136.07a68 68 0 00-65.21-68z"/><path class="cls-8" d="M926.93 431.8v-.08a68 68 0 10-70.87 68v.08h136.07a68 68 0 00-65.2-68z"/><path class="cls-7" d="M952.44 431.8v-.08a68 68 0 00-68-68 68.83 68.83 0 00-12.76 1.21 68 68 0 0155.28 66.82v.08a68 68 0 0165.2 68h25.51a68 68 0 00-65.23-68.03zM475.83 414.91a45.36 45.36 0 10-89.93 0 45.35 45.35 0 1045 78.76 45.35 45.35 0 1045-78.76z"/><path class="cls-8" d="M405.35 454.4a45.32 45.32 0 0123.07-39.49A45.25 45.25 0 01452.13 369a45.32 45.32 0 00-66.23 45.93 45.34 45.34 0 0043.52 79.54 45.35 45.35 0 01-24.07-40.07z"/><path class="cls-13" d="M475.83 414.91a45.26 45.26 0 00-23.7-45.91c-.74-.39-1.5-.77-2.27-1.12l-.34-.16q-1-.45-2.07-.87l-.38-.15c-.77-.29-1.55-.57-2.33-.82h-.12c-.85-.27-1.72-.52-2.59-.74h-.11c-.78-.19-1.57-.36-2.37-.52l-.71-.13c-.61-.1-1.22-.2-1.84-.28l-.85-.11c-.61-.07-1.22-.13-1.84-.17l-.8-.07c-.86 0-1.74-.08-2.61-.08a45.22 45.22 0 00-11.36 1.44q1.23.31 2.43.69h.11c.78.25 1.56.53 2.33.82l.38.15 2.07.87.34.16c.77.35 1.53.73 2.28 1.12a45.26 45.26 0 0123.7 45.93 45.35 45.35 0 01-10.9 83.4 45.34 45.34 0 0033.58-83.4z"/><path class="cls-5" d="M404.69 493.29l-.7-.43a46.37 46.37 0 01-5.81-4.33c-.47-.41-.92-.83-1.37-1.25-.79-.75-1.55-1.51-2.28-2.31a45.35 45.35 0 0111.21-70.06 47.27 47.27 0 01-.39-5.86 45.37 45.37 0 0135.41-44.25c-.41-.09-.81-.19-1.22-.27l-.71-.13c-.61-.1-1.22-.2-1.84-.28l-.85-.11c-.61-.07-1.22-.13-1.84-.17l-.8-.07c-.86 0-1.74-.08-2.61-.08a45.29 45.29 0 00-45 51.22 45.33 45.33 0 00-11.2 70.09c.73.8 1.49 1.56 2.27 2.31.45.42.91.84 1.38 1.25a46.37 46.37 0 005.81 4.33l.7.43a45.15 45.15 0 0023.34 6.47h.06c1 0 1.93 0 2.89-.09.44 0 .86-.08 1.29-.13s1.06-.09 1.58-.15 1.12-.18 1.68-.27l1.11-.19c.43-.08.85-.18 1.27-.28a45 45 0 01-13.38-5.39z"/><path class="cls-5" d="M444.9 466.79a55.5 55.5 0 00-41.7 31.71 45.64 45.64 0 005 .29c1 0 2 0 2.92-.1.43 0 .86-.08 1.28-.12s1.07-.09 1.59-.16 1.12-.17 1.67-.26l1.12-.19c.64-.12 1.28-.27 1.92-.43.26-.06.52-.11.77-.18.71-.18 1.41-.39 2.11-.6l.5-.16c.76-.24 1.5-.51 2.24-.79l.28-.11c.79-.31 1.56-.63 2.33-1h.1c.81-.37 1.59-.76 2.37-1.17.48-.26 1-.51 1.45-.78a45.33 45.33 0 0062.47-61 55.18 55.18 0 00-3.54 11.72h-13.56a32.73 32.73 0 00-31.32 23.33z"/><path class="cls-12" d="M843.42 193.67c-51 51.51-71.13 117.13-50.52 163.17 4.14 9.25 11.38 21 24.82 32.33"/><path class="cls-7" d="M918.39 297.08v-1.42a45.36 45.36 0 00-90.71 0v1.42A45.36 45.36 0 10873.07 371a45.35 45.35 0 1045.32-73.92z"/><path class="cls-8" d="M839.06 341a45.37 45.37 0 0134.05-43.94v-1.42a45.33 45.33 0 0122.68-39.27 45.35 45.35 0 00-68 39.27v1.42a45.36 45.36 0 1034 83.2A45.31 45.31 0 01839.06 341z"/><path class="cls-5" d="M807.87 341a45.38 45.38 0 0134.06-43.94v-1.42a45.37 45.37 0 0138.21-44.79 45.28 45.28 0 00-52.38 44.79v1.42a45.34 45.34 0 0018.33 88.72A45.36 45.36 0 01807.87 341z"/><path class="cls-12" d="M581.1 312.67c-6.81 14.43-19 34.89-40 51.36a122.54 122.54 0 01-16.67 11"/><path class="cls-12" d="M515.91 326.36c2.89 60.18 29.27 106.54 65.3 115.67 7.23 1.84 17.41 2.82 30.52-.56"/><path class="cls-9" d="M677.26 368.15c.14-1.47.22-2.95.22-4.46a45.36 45.36 0 10-90.09 7.45A45.35 45.35 0 00635 448.32a45.36 45.36 0 1042.3-80.17z"/><path class="cls-10" d="M677.26 368.15c.14-1.47.22-2.95.22-4.46a45.37 45.37 0 00-31.18-43.08v77.1h-77.94A45.36 45.36 0 00635 448.32a45.36 45.36 0 1042.3-80.17z"/><path class="cls-7" d="M861.73 409.05a68 68 0 10-68 68A67.72 67.72 0 00811 522.43h101.43a68 68 0 00-50.7-113.38zM612.28 409.05h-68a45.49 45.49 0 00-45.38 45.35h-22.68a22.75 22.75 0 00-22.68 22.68 22.75 22.75 0 0022.68 22.68h137.23a45.49 45.49 0 0044.19-45.33 45.49 45.49 0 00-45.36-45.38z"/><path class="cls-8" d="M895.91 522.59a79.47 79.47 0 00-137-54.91 67.65 67.65 0 0034.77 9.56A67.72 67.72 0 00811 522.59z"/><path class="cls-8" d="M725.67 409.05a68 68 0 0068 68H805v-66.52a12.82 12.82 0 00-12.83-12.82h-65.54a68.32 68.32 0 00-.96 11.34zM771 182.28a45.36 45.36 0 1190.71 0z"/><path class="cls-5" d="M830.55 139.19A45.36 45.36 0 00771 182.28h28.35a45.38 45.38 0 0131.2-43.09z"/><path class="cls-8" d="M555.59 499.76h57.86a45.49 45.49 0 0044.19-45.33 45.49 45.49 0 00-45.36-45.35h-34l-22.69 36.82z"/><path class="cls-7" d="M793.7 205a45.36 45.36 0 0190.71 0z"/><path class="cls-13" d="M839.06 159.6a45.06 45.06 0 00-11.34 1.4 45.36 45.36 0 0134 43.92h22.68a45.35 45.35 0 00-45.34-45.32z"/><path class="cls-19" d="M657.64 295.66h45.35v226.77h-45.35z"/><path class="cls-20" d="M702.99 295.66h22.68v226.77h-22.68z"/><path class="cls-19" d="M651.97 255.98h56.69v39.69h-56.69z"/><path class="cls-20" d="M708.66 255.98h22.68v39.69h-22.68zM714.33 255.98h-45.35l19.84-136.07h5.67l19.84 136.07z"/><path class="cls-20" d="M657.64 295.66h68.03v8.5h-68.03zM660.47 287.16v-19.85a2.85 2.85 0 012.84-2.83 2.84 2.84 0 012.83 2.83v19.85zM671.81 287.16v-19.85a2.85 2.85 0 012.84-2.83 2.85 2.85 0 012.83 2.83v19.85zM683.15 287.16v-19.85a2.85 2.85 0 012.83-2.83 2.85 2.85 0 012.84 2.83v19.85zM694.49 287.16v-19.85a2.84 2.84 0 012.83-2.83 2.85 2.85 0 012.84 2.83v19.85z"/><path class="cls-20" d="M660.47 281.49h39.69v5.67h-39.69z"/><path class="cls-19" d="M651.97 247.47h11.34v11.34h-11.34zM697.32 247.47h11.34v11.34h-11.34z"/><path class="cls-20" d="M720 247.47h11.34v11.34H720zM657.64 213.46l-5.67 34.01h11.34l-5.67-34.01z"/><path class="cls-21" d="M702.99 341.02l-45.35-36.85h45.35v36.85zM702.99 383.54l-45.35-36.85h45.35v36.85zM702.99 426.06l-45.35-36.86h45.35v36.86z"/><path class="cls-20" d="M725.67 213.46L720 247.47h11.34l-5.67-34.01z"/><path class="cls-19" d="M702.99 213.46l-5.67 34.01h11.34l-5.67-34.01z"/><path class="cls-20" d="M657.64 341.02h48.19v5.67h-48.19zM657.64 440.23h48.19v5.67h-48.19zM657.64 383.54h48.19v5.67h-48.19z"/><path class="cls-19" d="M566.93 445.9H793.7v76.54H566.93z"/><path class="cls-20" d="M663.31 522.43v-14.17a17.06 17.06 0 0117-17 17.06 17.06 0 0117 17v14.17zM666.14 341v-24.1a4.27 4.27 0 014.25-4.25 4.27 4.27 0 014.26 4.25V341zM666.14 383.54v-24.1a4.27 4.27 0 014.25-4.25 4.27 4.27 0 014.26 4.25v24.1zM686 341v-24.1a4.27 4.27 0 014.26-4.25 4.27 4.27 0 014.25 4.25V341zM686 383.54v-24.1a4.27 4.27 0 014.26-4.25 4.27 4.27 0 014.25 4.25v24.1zM666.14 431.72v-24.09a4.27 4.27 0 014.25-4.25 4.27 4.27 0 014.26 4.25v24.09zM686 431.72v-24.09a4.27 4.27 0 014.26-4.25 4.27 4.27 0 014.25 4.25v24.09zM635 477.08v-15.59a4.26 4.26 0 014.25-4.25 4.26 4.26 0 014.25 4.25v15.59z"/><path class="cls-22" d="M793.7 522.43v-72a75.57 75.57 0 00-31.26 19.17h-14.09a52.91 52.91 0 00-52.86 52.85z"/><path class="cls-20" d="M612.28 477.08v-15.59a4.27 4.27 0 014.26-4.25 4.27 4.27 0 014.25 4.25v15.59zM589.61 477.08v-15.59a4.26 4.26 0 014.25-4.25 4.26 4.26 0 014.25 4.25v15.59zM635 511.09V495.5a4.27 4.27 0 014.25-4.25 4.27 4.27 0 014.25 4.25v15.59zM612.28 511.09V495.5a4.27 4.27 0 014.26-4.25 4.27 4.27 0 014.25 4.25v15.59zM589.61 511.09V495.5a4.27 4.27 0 014.25-4.25 4.27 4.27 0 014.25 4.25v15.59zM762.52 477.08v-15.59a4.26 4.26 0 014.25-4.25 4.26 4.26 0 014.25 4.25v15.59zM739.84 477.08v-15.59a4.27 4.27 0 014.25-4.25 4.27 4.27 0 014.26 4.25v15.59zM717.17 477.08v-15.59a4.26 4.26 0 014.25-4.25 4.26 4.26 0 014.25 4.25v15.59zM686 477.08v-15.59a4.27 4.27 0 014.26-4.25 4.27 4.27 0 014.25 4.25v15.59zM666.14 477.08v-15.59a4.27 4.27 0 014.25-4.25 4.27 4.27 0 014.26 4.25v15.59zM762.52 511.09V495.5a4.27 4.27 0 014.25-4.25 4.27 4.27 0 014.23 4.25v15.59zM739.84 511.09V495.5a4.27 4.27 0 014.25-4.25 4.27 4.27 0 014.26 4.25v15.59zM717.17 511.09V495.5a4.27 4.27 0 014.25-4.25 4.27 4.27 0 014.25 4.25v15.59z"/><path class="cls-23" d="M793.7 409.05h-68.03l-22.68 36.85h90.71v-36.85zM657.64 409.05h-68.03l-22.68 36.85h90.71v-36.85z"/><path class="cls-7" d="M861.73 522.43a45.49 45.49 0 00-45.35-45.35h-68A45.49 45.49 0 00703 522.43h158.73zM589.61 522.43a45.49 45.49 0 00-45.36-45.35h-90.71a45.49 45.49 0 00-45.35 45.35h181.42z"/><path class="cls-13" d="M544.25 477.08h-17a45.49 45.49 0 0145.36 45.35h17a45.49 45.49 0 00-45.36-45.35z"/><path class="cls-8" d="M521.57 454.4a45.49 45.49 0 0145.36-45.35h-22.68a45.49 45.49 0 00-45.35 45.35h22.67zM476.22 477.08a22.75 22.75 0 0122.68-22.68h-22.68a22.75 22.75 0 00-22.68 22.68 45.49 45.49 0 00-45.35 45.35h22.68a45.49 45.49 0 0145.35-45.35zM805 342a69.41 69.41 0 00-11.34-1 68 68 0 00-68 68h22.68A68 68 0 01805 342zM476.22 522.43a34 34 0 0168 0z"/><path class="cls-13" d="M510.24 488.42a34.52 34.52 0 00-7.09.74 34 34 0 0126.93 33.27h14.17a34 34 0 00-34.01-34.01z"/><rect class="cls-8" x="462.05" y="468.57" width="36.85" height="8.5" rx="4.25"/><rect class="cls-8" x="504.57" y="440.23" width="39.69" height="14.17" rx="7.09"/><path class="cls-8" d="M739.85 522.43h121.88a45.49 45.49 0 00-45.35-45.35h-61.6a76.09 76.09 0 00-14.93 45.35z"/><path class="cls-15" d="M748.35 522.43a68 68 0 01136.06 0z"/><path class="cls-9" d="M317.48 522.43a68 68 0 01136.06 0z"/><path class="cls-10" d="M408.19 458.29a68 68 0 00-90.71 64.14h45.35a68 68 0 0145.36-64.14z"/><path class="cls-16" d="M827.72 455.36a68 68 0 00-79.37 67.07H771a68 68 0 0156.72-67.07zM521.57 341a45.36 45.36 0 1190.71 0z"/><path class="cls-17" d="M574.43 340.43a75.12 75.12 0 00-14.75-44.77 45.37 45.37 0 00-38.11 44.77z"/><path class="cls-15" d="M430.87 341a68 68 0 11136.06 0z"/><path class="cls-16" d="M510.24 273.94A68 68 0 00430.87 341h22.67a68 68 0 0156.7-67.06z"/><path class="cls-22" d="M566.93 477.08h155.91v5.67H566.93z"/><path class="cls-17" d="M884.41 522.43a67.72 67.72 0 00-10-35.57 41.53 41.53 0 00-20.14 35.57z"/><path class="cls-10" d="M612.28 397.71h34v-34a34 34 0 01-34 34z"/><path class="cls-24" d="M691.65 119.91h-2.83l-19.84 136.07h22.67V119.91z"/><path class="cls-20" d="M670.22 247.47l-1.24 8.51h22.67v-8.51h-21.43z"/><circle class="cls-7" cx="805.04" cy="397.71" r="34.02"/><path class="cls-13" d="M861.73 409.05a68 68 0 00-68-68 69.5 69.5 0 00-11.34 1 68.05 68.05 0 0156.7 67.08 68 68 0 0150.69 113.38h22.68a68 68 0 00-50.7-113.38z"/><path class="cls-15" d="M861.73 522.43a34 34 0 0168 0z"/><rect class="cls-8" x="759.69" y="383.54" width="11.34" height="25.51" rx="5.67"/><rect class="cls-8" x="796.54" y="431.72" width="36.85" height="22.68" rx="11.34"/><circle class="cls-7" cx="907.09" cy="341.02" r="45.35"/><path class="cls-13" d="M922.32 298.29a48.16 48.16 0 01-48.76 73.23 45.34 45.34 0 1048.76-73.23z"/><circle class="cls-7" cx="873.07" cy="360.86" r="34.02"/><path class="cls-13" d="M873.07 326.84a34.25 34.25 0 00-5.67.48 34 34 0 010 67.07 34 34 0 105.67-67.55z"/><path class="cls-8" d="M918.69 360.86a34 34 0 01-11.5 25.51c-.77 0-1.55 0-2.31-.06h-.09l-.71-.06c-.53 0-1.06-.07-1.59-.13h-.16c-.26 0-.51-.07-.77-.1l-1.43-.19h-.22l-.74-.13c-.46-.09-.92-.17-1.37-.27l-.26-.05-.47-.11A34 34 0 00879 327.33a34 34 0 0139.68 33.53z"/><path class="cls-12" d="M759.4 151.09c13.27 20.25 28.87 51.36 31.18 90.71a172.85 172.85 0 010 19.85M762.52 247.47a177.92 177.92 0 0119.84 51c1.3 5.93 2.21 11.61 2.84 17"/><path class="cls-7" d="M603.78 522.43a34 34 0 0168 0z"/><path class="cls-8" d="M644.88 489.16a34 34 0 00-41.1 33.27H618a34 34 0 0126.88-33.27z"/><rect class="cls-25" x="731.34" y="522.43" width="104.88" height="11.34" rx="5.67"/><rect class="cls-8" x="606.61" y="513.93" width="39.69" height="8.5" rx="4.25"/><rect class="cls-8" x="725.67" y="511.09" width="19.84" height="11.34" rx="5.67"/><path class="cls-7" d="M725.67 182.28a45.36 45.36 0 1190.71 0z"/><path class="cls-8" d="M778.11 137.48a44.82 44.82 0 00-7.09-.56 45.36 45.36 0 00-45.35 45.36h14.17a45.36 45.36 0 0138.27-44.8zM844.72 160.15a45.91 45.91 0 00-7.08-.55 45.35 45.35 0 00-45.36 45.4h14.18a45.37 45.37 0 0138.26-44.85z"/><path class="cls-13" d="M771 136.92a45.5 45.5 0 00-11.33 1.43 45.37 45.37 0 0134 43.93h22.68A45.36 45.36 0 00771 136.92z"/><path class="cls-8" d="M748.35 273a34 34 0 0168 0z"/><path class="cls-5" d="M793.7 240.91A34 34 0 00748.35 273H771a34 34 0 0122.7-32.09z"/><path class="cls-12" d="M632.13 241.8c14.17 36.85-2.84 53.86 11.33 119.06"/><path class="cls-16" d="M762.52 522.43a34 34 0 0168 0"/><path class="cls-12" d="M654.8 409.05c-6.24-38.3-20.2-92.78-53.86-141.8a261.5 261.5 0 00-19.84-25.45"/><path class="cls-12" d="M558.43 247.47c5.44 13.23 18.93 40.24 48.18 56.7a101.62 101.62 0 0019.85 8.5"/><path class="cls-7" d="M657.64 216.29a34 34 0 00-24.14-32.55 34 34 0 00-65.11 0 34.08 34.08 0 00-22.68 22.67 34 34 0 1032.56 57.91 34 34 0 0055.23-15.47 34 34 0 0024.14-32.56z"/><path class="cls-13" d="M633.5 183.74a34.07 34.07 0 00-41.06-23.07 34.08 34.08 0 0124 23.07 34 34 0 010 65.11 34.09 34.09 0 01-24 23.06 34.47 34.47 0 008.49 1.07 34 34 0 0032.56-24.13 34 34 0 000-65.11z"/><path class="cls-8" d="M544.25 239a34 34 0 0124.14-32.56 34.08 34.08 0 0122.68-22.67 34.09 34.09 0 0121.21-22.2 34 34 0 00-43.89 22.2 34.08 34.08 0 00-22.68 22.67A34 34 0 10566.93 271a34 34 0 01-22.68-32z"/><circle class="cls-7" cx="600.94" cy="238.97" r="34.02"/><path class="cls-8" d="M586.77 239a34 34 0 0124.1-32.54 34 34 0 100 65.08 34 34 0 01-24.1-32.54zM1051.65 477.08a33.82 33.82 0 00-15.48 3.73 45.36 45.36 0 00-82.42 0 34 34 0 10-15.48 64.3h113.38a34 34 0 100-68z"/><path class="cls-7" d="M1051.65 477.08a33.82 33.82 0 00-15.48 3.73A45.37 45.37 0 00995 454.4v90.71h56.69a34 34 0 100-68z"/><path class="cls-13" d="M1051.65 477.08a33.81 33.81 0 00-9.91 1.48 34 34 0 01-9.93 66.55h19.84a34 34 0 100-68z"/><path class="cls-5" d="M995 481.33v63.78h-56.73a34 34 0 01-15.72-3.84A73.71 73.71 0 01995 481.33z"/><path class="cls-7" d="M941.1 545.11a53.86 53.86 0 11107.72 0z"/><path class="cls-13" d="M995 491.25a53.67 53.67 0 00-11.34 1.21 53.87 53.87 0 0142.52 52.65h22.68A53.86 53.86 0 00995 491.25z"/><path class="cls-9" d="M272.13 522.43a45.35 45.35 0 1190.7 0z"/><path class="cls-10" d="M328.82 478.51a45.39 45.39 0 00-56.69 43.92h22.67a45.37 45.37 0 0134.02-43.92z"/><path class="cls-7" d="M408.19 545.11a45.36 45.36 0 0190.71 0z"/><path class="cls-8" d="M453.54 499.76a45.19 45.19 0 0112.76 1.83 45.35 45.35 0 00-32.6 43.52h-25.51a45.35 45.35 0 0145.35-45.35z"/><rect class="cls-24" x="674.65" y="159.6" width="34.02" height="8.5" rx="4.25"/><path class="cls-20" d="M704.41 159.6h-11.34a4.25 4.25 0 010 8.5h11.34a4.25 4.25 0 000-8.5z"/><path class="cls-7" d="M1206.06 487.27a65 65 0 00.55-8.3 64.25 64.25 0 00-128.5 0 65 65 0 00.55 8.3 64.25 64.25 0 1063.7 111.59 64.25 64.25 0 1063.7-111.59z"/><path class="cls-8" d="M1106.22 543.22a64.2 64.2 0 0132.68-56 65 65 0 01-.55-8.3 64.24 64.24 0 0134.13-56.76 64.26 64.26 0 00-94.37 56.84 65 65 0 00.55 8.3 64.23 64.23 0 0061.65 112.7 64.25 64.25 0 01-34.09-56.78z"/><path class="cls-13" d="M1206.06 487.27a65 65 0 00.55-8.3 64.24 64.24 0 00-34.13-56.76c-1.06-.56-2.13-1.09-3.22-1.59l-.49-.22c-1-.44-1.94-.85-2.93-1.24l-.54-.21q-1.63-.63-3.3-1.17h-.16c-1.21-.38-2.44-.74-3.68-1.05h-.16c-1.1-.27-2.22-.52-3.35-.74l-1-.18c-.86-.15-1.73-.29-2.6-.4l-1.21-.16c-.86-.1-1.73-.18-2.6-.24l-1.14-.09c-1.22-.07-2.45-.11-3.7-.11a64.26 64.26 0 00-16.09 2c1.16.3 2.31.62 3.44 1h.16q1.67.54 3.3 1.17l.55.21c1 .39 2 .8 2.92 1.24l.49.22c1.09.5 2.16 1 3.22 1.59a64.23 64.23 0 0134.1 56.76 65 65 0 01-.55 8.3 64.26 64.26 0 01-15.45 118.16 64.24 64.24 0 0047.57-118.16z"/><path class="cls-5" d="M1105.29 598.32c-.34-.2-.67-.41-1-.62a63.24 63.24 0 01-8.23-6.13c-.66-.58-1.31-1.17-2-1.78-1.11-1-2.19-2.13-3.22-3.26a64.23 64.23 0 0115.88-99.26 65 65 0 01-.55-8.3 64.26 64.26 0 0150.16-62.68c-.58-.13-1.15-.27-1.73-.39l-1-.18c-.87-.15-1.74-.29-2.61-.4l-1.21-.16c-.86-.1-1.73-.18-2.6-.24l-1.14-.09c-1.22-.07-2.45-.11-3.7-.11a64.25 64.25 0 00-64.23 64.28 65 65 0 00.55 8.3 64.23 64.23 0 00-15.88 99.26c1 1.13 2.11 2.21 3.22 3.26.64.61 1.29 1.2 2 1.78a63.24 63.24 0 008.23 6.13c.33.21.66.42 1 .62a63.91 63.91 0 0033.06 9.15h.08c1.38 0 2.74-.05 4.1-.14.61 0 1.22-.11 1.83-.17s1.5-.13 2.24-.23 1.58-.24 2.37-.37c.53-.09 1.05-.17 1.57-.27s1.21-.26 1.81-.4a63.76 63.76 0 01-19-7.6z"/><path class="cls-18" d="M1111.18 0h45.24v667h-45.24zM1224.57 0h45.35v667h-45.35zM68.03 0h22.68v667H68.03z"/><path class="cls-18" d="M1093.87 576.3c32.64 0 63 5.63 88.21 15.29 27.85-26.16 78.22-43.64 135.73-43.64a269.43 269.43 0 0148.19 4.26V667H935.13c0-50.09 71.07-90.7 158.74-90.7zM365.69 0a84.94 84.94 0 01-84.92 83.3 84.76 84.76 0 01-29.1-5.13 62.21 62.21 0 01-86.34 47.11 85 85 0 01-118.14 23.93A84.59 84.59 0 010 163.51V0z"/><path class="cls-7" d="M0 158.35v5.16a85.5 85.5 0 0014.59-1.26A83.57 83.57 0 010 158.35zM300.49 0a84.94 84.94 0 01-84.92 83.3 84.81 84.81 0 01-29.1-5.13 62.21 62.21 0 01-86.34 47.11A85.21 85.21 0 0161.78 157a85 85 0 00103.55-31.74 62.21 62.21 0 0086.34-47.11 84.76 84.76 0 0029.1 5.13A84.94 84.94 0 00365.69 0z"/><path class="cls-18" d="M453.54 667H0V468.88c2.81-.19 5.65-.3 8.5-.3h187.09a122.25 122.25 0 01121.89 121.89H377A76.75 76.75 0 01453.54 667z"/><path class="cls-7" d="M430.87 227.63c-.65 0-1.29 0-1.93.05a34 34 0 10-57.44 34 34 34 0 0041.07 52.84 45.36 45.36 0 1018.3-86.86z"/><path class="cls-8" d="M394 284.32a33.89 33.89 0 018.66-22.67 34 34 0 019.76-52.91 34 34 0 00-40.94 52.91 34 34 0 0040.94 52.9A34 34 0 01394 284.32z"/><path class="cls-13" d="M406.24 227.63v.05c.64 0 1.28-.05 1.93-.05zM430.87 227.63c-.64 0-1.28 0-1.92.05v-.05h-20.76a45.36 45.36 0 0111.37 89.27 45.35 45.35 0 1011.31-89.27z"/><path class="cls-18" d="M311.81 170.94h-17a34.11 34.11 0 00-34-34h-45.38a34.11 34.11 0 00-34 34h-28.36a39.8 39.8 0 00-39.68 39.68 39.8 39.8 0 0039.68 39.69h119.06a22.74 22.74 0 0022.67-22.68h17a28.44 28.44 0 0028.35-28.35 28.43 28.43 0 00-28.34-28.34z"/><path class="cls-7" d="M311.81 170.94h-17a34.11 34.11 0 00-34-34h-34a34.12 34.12 0 0134 34h17a28.35 28.35 0 010 56.69h-17a22.75 22.75 0 01-22.68 22.68h34a22.74 22.74 0 0022.67-22.68h17a28.35 28.35 0 100-56.69z"/><path class="cls-26" d="M223.94 187.33c-22.44 82.58-68.37 131.44-107.33 124.73-7.93-1.37-21.84-6.12-37.24-25.52"/><circle class="cls-18" cx="110.55" cy="468.57" r="42.52"/><circle class="cls-18" cx="42.52" cy="473.69" r="42.52"/><circle class="cls-18" cx="161.57" cy="485.58" r="42.52"/><path class="cls-18" d="M371.91 571c-29.46 31.06-60.42 49.54-69.14 41.27s8.1-40.16 37.56-71.22 69.14-41.27 69.14-41.27-8.1 40.13-37.56 71.22z"/><path class="cls-18" d="M348.9 550c-14.6 40.25-35.6 69.55-46.9 65.45s-8.61-40 6-80.29 46.9-65.45 46.9-65.45 8.6 40.09-6 80.29zM1009.4 556.14c18.28 19.05 28.76 38.65 23.41 43.79s-24.5-6.16-42.78-25.21-23.42-43.78-23.42-43.78 24.51 6.15 42.79 25.2z"/><path class="cls-18" d="M984.64 575.13c24.23 10.49 41.49 24.5 38.54 31.3s-25 3.82-49.2-6.67-38.55-31.3-38.55-31.3 24.98-3.81 49.21 6.67z"/><path class="cls-25" d="M734.17 539.44a5.68 5.68 0 015.67-5.67H589.61a5.67 5.67 0 010 11.34h150.23a5.68 5.68 0 01-5.67-5.67z"/><path class="cls-25" d="M765.35 545.11H575.43a5.67 5.67 0 100 11.34h189.92a5.67 5.67 0 100-11.34z"/><path class="cls-25" d="M739.84 567.79h-31.18a5.67 5.67 0 010-11.34h-79.37a5.67 5.67 0 110 11.34h-14.17a5.67 5.67 0 000 11.34h14.17a5.67 5.67 0 110 11.33H686a5.67 5.67 0 010-11.33h53.86a5.67 5.67 0 000-11.34z"/><path class="cls-25" d="M697.32 590.46h-102a5.67 5.67 0 100 11.34h102a5.67 5.67 0 000-11.34z"/><path class="cls-25" d="M669 613.14h-8.51a5.67 5.67 0 010-11.34h-56.71a5.67 5.67 0 110 11.34h-14.17a5.67 5.67 0 100 11.34H669a5.67 5.67 0 100-11.34z"/><rect class="cls-25" x="561.26" y="567.79" width="34.02" height="11.34" rx="5.67"/><rect class="cls-25" x="759.69" y="567.79" width="28.35" height="11.34" rx="5.67"/><rect class="cls-25" x="793.7" y="545.11" width="45.35" height="11.34" rx="5.67"/><rect class="cls-25" x="666.14" y="630.15" width="28.35" height="11.34" rx="5.67"/><rect class="cls-7" x="470.55" y="522.43" width="289.13" height="22.68" rx="11.34"/><path class="cls-18" d="M487.62 0h22.68v667h-22.68z"/><path class="cls-26" d="M379.84 0c-11.34 174.25 79.43 128.48 116.28 256"/><path class="cls-4" d="M1017.64 318.34l17.01 22.68-19.85-14.18-5.67 11.34 17.01 25.51-22.67-19.84v-22.68l14.17-2.83z"/><path class="cls-26" d="M79.37 352.35C67.46 335.41 15 259.27 17 158.12a316.59 316.59 0 0111.35-77.89"/><path class="cls-11" d="M1082.83 202.12c-44.73-51-103.89-51-138.89-130.4"/><path class="cls-18" d="M976.54 46.21h-1.45a24.59 24.59 0 00-24.5-23.53h-42.68a24.59 24.59 0 00-24.5 23.53h-10.34a34.11 34.11 0 00-34 34 34.1 34.1 0 0034 34h45.36a34.15 34.15 0 0032.93-25.51h25.18a21.32 21.32 0 0021.26-21.23 21.33 21.33 0 00-21.26-21.26z"/><path class="cls-7" d="M856.06 80.23a34.12 34.12 0 0134-34h10.34a24.59 24.59 0 0124.49-23.53h-17a24.59 24.59 0 00-24.5 23.53h-10.32a34 34 0 000 68h17a34.11 34.11 0 01-34.01-34z"/><path class="cls-11" d="M1295.43 134.09s-2.83 68 42.52 107.71"/><path d="M958.94 185a6.58 6.58 0 016.57-6.57h13.15a6.59 6.59 0 016.58 6.57" fill="#f4a03e"/><path class="cls-28" d="M945.68 224.49A19.78 19.78 0 01926 204.77v-52.61a19.78 19.78 0 0119.73-19.72h6.58v92.05z"/><path class="cls-29" d="M952.26 217.92a19.79 19.79 0 01-19.73-19.73v-39.45A19.79 19.79 0 01952.26 139"/><path class="cls-30" d="M926 188.33a9.86 9.86 0 019.87 9.86h3.28V185H926z"/><path class="cls-30" d="M952.26 214.63a16.48 16.48 0 01-16.44-16.44v-39.45a16.48 16.48 0 0116.44-16.44"/><path class="cls-29" d="M972 171.89h-6.57a13.15 13.15 0 01-13.15-13.15v-13.15a13.19 13.19 0 00-13.16 13.15v1.64a11.5 11.5 0 01-11.5 11.51H926l-26.3-13.15a32.86 32.86 0 000 39.45L926 185h1.65a11.5 11.5 0 0111.5 11.51v1.64a13.19 13.19 0 0013.16 13.15v-13.11a13.15 13.15 0 0113.1-13.19H972a7.37 7.37 0 00.82 0h5.76v-6.57a6.6 6.6 0 00-6.58-6.54z"/><path class="cls-28" d="M906.12 178.47a33.12 33.12 0 013.43-14.78l-9.9-4.95a32.86 32.86 0 000 39.45l9.9-4.95a33.11 33.11 0 01-3.43-14.77z"/><path class="cls-28" d="M908.8 191.62c.25.57.5 1.12.75 1.62l-3.33 1.66-6.57 3.29a21 21 0 01-2.25-3.29 31.11 31.11 0 01-1.65-3.28 32.66 32.66 0 01-1.21-3.29c-.31-1-.59-2.12-.82-3.29a32 32 0 01-.49-3.29c-.1-1.05-.16-2.14-.16-3.28s.06-2.24.16-3.29a32 32 0 01.49-3.29 31.59 31.59 0 01.83-3.29 30.43 30.43 0 011.2-3.29 31.11 31.11 0 011.65-3.31 21 21 0 012.25-3.29l6.57 3.29 3.33 1.66c-.25.5-.5 1.05-.75 1.62a33.77 33.77 0 00-2.52 9.87 33.888 33.888 0 000 6.57c.1 1.05.28 2.25.48 3.29s.52 2.26.84 3.29a32.71 32.71 0 001.2 3.32zM952.36 198.19V185h13.15a13.15 13.15 0 00-13.15 13.19z"/><circle class="cls-2" cx="972.09" cy="178.47" r="2.47"/><path class="cls-30" d="M965.51 185.04h-13.15v-12.33l13.15 12.33z"/><path class="cls-28" d="M906.22 162h-8.82a21 21 0 012.25-3.29z"/><path class="cls-30" d="M897.18 178.47a32.6 32.6 0 005.45 18.23l-3 1.49a32.86 32.86 0 010-39.45l3 1.49a32.61 32.61 0 00-5.45 18.24z"/><path class="cls-7" d="M232.44 170.94h-22.68a28.43 28.43 0 0128.35 28.34 28.44 28.44 0 01-28.35 28.35h22.68a28.44 28.44 0 0028.35-28.35 28.43 28.43 0 00-28.35-28.34zM132.41 0h-22.68a28.44 28.44 0 0128.35 28.35 28.43 28.43 0 01-28.35 28.34h22.68a28.42 28.42 0 0028.34-28.34A28.43 28.43 0 00132.41 0zM37.8 0H0a47.38 47.38 0 0147.24 47.24A47.38 47.38 0 010 94.49h37.8A47.38 47.38 0 0085 47.24 47.38 47.38 0 0037.8 0z"/><path class="cls-7" d="M175.75 26.37h-22.68a28.44 28.44 0 0128.35 28.35 28.43 28.43 0 01-28.35 28.34h22.68a28.42 28.42 0 0028.34-28.34 28.43 28.43 0 00-28.34-28.35zM85 97.24H62.36a28.43 28.43 0 0128.35 28.34 28.44 28.44 0 01-28.35 28.35H85a28.44 28.44 0 0028.35-28.35A28.43 28.43 0 0085 97.24zM887.24 80.23h13.61a17.07 17.07 0 01-17-17 17.07 17.07 0 0117-17h-13.61a17.06 17.06 0 00-17 17 17.06 17.06 0 0017 17zM918.74 97.24h13.86a17.37 17.37 0 01-17.32-17.33 17.37 17.37 0 0117.32-17.32h-13.86a17.37 17.37 0 00-17.32 17.32 17.37 17.37 0 0017.32 17.33z"/><path class="cls-7" d="M935.12 74.56h8.82a11.06 11.06 0 01-11-11 11.06 11.06 0 0111-11h-8.82a11.06 11.06 0 00-11 11 11.06 11.06 0 0011 11zM898.9 114.24h13.86a17.37 17.37 0 01-17.33-17.32 17.37 17.37 0 0117.33-17.32H898.9a17.37 17.37 0 00-17.33 17.32 17.37 17.37 0 0017.33 17.32z"/><path class="cls-16" d="M423 627.91C388.09 662.78 335.77 667 335.77 667s4.22-52.32 39.09-87.19 87.19-39.09 87.19-39.09S457.83 593 423 627.91z"/><path class="cls-15" d="M462.05 540.72L335.77 667s52.32-4.22 87.19-39.09 39.09-87.19 39.09-87.19z"/><path class="cls-10" d="M151.42 635.15C97.82 656.24 45 649.51 45 649.51s34.08-40.93 87.68-62 106.43-14.36 106.43-14.36-34.11 40.9-87.69 62z"/><path class="cls-9" d="M239.09 573.12L45 649.51s52.84 6.73 106.44-14.36 87.65-62.03 87.65-62.03z"/><path class="cls-7" d="M329.52 628.58a4.24 4.24 0 000-6l-24.64-24.65a4.24 4.24 0 01-.81-4.88c.92-1.91 1.89-3.83 2.89-5.77a4.25 4.25 0 016.78-1l11.17 11.17a4.25 4.25 0 006 0 4.24 4.24 0 000-6l-14.65-14.65a4.25 4.25 0 01-.68-5.13c.72-1.23 1.43-2.45 2.15-3.66a4.24 4.24 0 016.66-.83l3.35 3.34a4.25 4.25 0 006 0 4.25 4.25 0 000-6l-6.22-6.23a4.25 4.25 0 01-.59-5.28c3.64-5.74 6.85-10.59 9.12-14a4.25 4.25 0 017.06 0c2.27 3.39 5.48 8.24 9.12 14a4.25 4.25 0 01-.58 5.28l-6.23 6.23a4.25 4.25 0 000 6 4.26 4.26 0 006 0l3.34-3.34a4.24 4.24 0 016.66.83c.72 1.21 1.43 2.43 2.15 3.66a4.24 4.24 0 01-.68 5.13l-14.65 14.65a4.26 4.26 0 000 6 4.25 4.25 0 006 0l11.17-11.17a4.25 4.25 0 016.78 1c1 1.94 2 3.86 2.89 5.77a4.26 4.26 0 01-.8 4.88l-24.65 24.65a4.26 4.26 0 000 6 4.25 4.25 0 006 0l19.72-19.73a4.27 4.27 0 017.06 1.71 42.24 42.24 0 012.48 12.5c0 24.27-20.3 43.94-45.35 43.94s-45.35-19.67-45.35-43.94a42.24 42.24 0 012.48-12.5 4.27 4.27 0 017.06-1.71l19.72 19.73a4.25 4.25 0 006.07 0z"/><path class="cls-8" d="M296.73 610.56a4.27 4.27 0 017.06-1.71l19.72 19.73a4.25 4.25 0 006-6l-24.64-24.64a4.26 4.26 0 01-.81-4.89c.92-1.91 1.89-3.83 2.89-5.77a4.25 4.25 0 016.78-1l11.17 11.17a4.25 4.25 0 006-6l-14.65-14.65a4.25 4.25 0 01-.68-5.13c.72-1.23 1.43-2.45 2.15-3.66a4.24 4.24 0 016.66-.83l3.35 3.34a4.25 4.25 0 006-6l-6.22-6.23a4.25 4.25 0 01-.59-5.28c3.64-5.74 6.85-10.59 9.12-14a4.22 4.22 0 013.53-1.88V667c-25.05 0-45.35-19.67-45.35-43.94a42.24 42.24 0 012.51-12.5z"/><path class="cls-7" d="M156.23 582.29c-47 47-103.15 66.93-103.15 66.93S73.05 593 120 546.07s103.15-66.93 103.15-66.93-19.95 56.18-66.92 103.15z"/><path class="cls-8" d="M223.16 479.14L53.08 649.22s56.18-20 103.15-66.93 66.93-103.15 66.93-103.15z"/><path class="cls-7" d="M112.67 578.29c-25.47 40.82-67.85 60.36-67.85 60.36s-1.08-46.65 24.4-87.47 67.84-60.37 67.84-60.37 1.08 46.65-24.39 87.48z"/><path class="cls-8" d="M137.06 490.81L44.82 638.65s42.38-19.54 67.85-60.36 24.39-87.48 24.39-87.48z"/><path class="cls-7" d="M153.07 635.82h-42.52V633A66.59 66.59 0 000 584.35V667h184.25a31.27 31.27 0 00-31.18-31.18z"/><path class="cls-13" d="M70.83 633v2.84h39.68V633a66.59 66.59 0 00-86.4-62.17A66.63 66.63 0 0170.83 633zM153.07 635.82h-39.68A31.27 31.27 0 01144.57 667h39.68a31.27 31.27 0 00-31.18-31.18z"/><path class="cls-18" d="M170.08 485.58l2.83 42.52-14.17-31.18-11.34 8.51 5.67 39.68-11.34-28.35 5.67-28.34 25.51-2.84M212.6 613.14l-31.18-17.01 17.01 31.19-45.36-19.85 28.35 31.18 31.18 11.34 2.83-36.85"/><path class="cls-8" d="M0 667h53.86A53.85 53.85 0 000 613.14z"/><path class="cls-7" d="M1366.3 621.65a45.36 45.36 0 10-90.71 0h-22.68a45.49 45.49 0 00-45.35 45.35h158.74z"/><path class="cls-13" d="M1293.87 621.65a45.36 45.36 0 0135.58-44.29 45.34 45.34 0 00-55.13 44.29h19.55zM1271.19 621.65h-19.55a45.49 45.49 0 00-45.35 45.35h19.55a45.49 45.49 0 0145.35-45.35z"/><path class="cls-2" d="M809.52 565.59a5.42 5.42 0 019.68-4.87l1.82 3.63a4.64 4.64 0 005.73 2.35 4.5 4.5 0 002.4-6.22l-1.91-3.8a14.42 14.42 0 00-25.76 13L812 590.46h-26.8a22.68 22.68 0 00-22.68 22.68h56.31a9 9 0 008-13z"/><path class="cls-31" d="M802.2 590.46h-17a22.68 22.68 0 00-22.68 22.68h17a22.68 22.68 0 0122.68-22.68z"/><path class="cls-15" d="M822.3 560.13a5.07 5.07 0 015.07 5.07v2.33a5.07 5.07 0 01-5.07 5.07v-12.47z" transform="rotate(-26.49 824.77 566.339)"/><path class="cls-9" d="M704.21 0a32 32 0 01-32 32h-36A27.2 27.2 0 01609 57.56h-18.85a104.72 104.72 0 01-93.09 56.69h-9.5V91.57h-19.84a45.36 45.36 0 01-45.36-45.35h-17A45.36 45.36 0 01360 .86V0z"/><path class="cls-10" d="M671 0a32 32 0 01-32 32h33.22a32 32 0 0032-32zM540.2 91.57h-19.84A45.35 45.35 0 01475 46.21h-17A45.35 45.35 0 01412.64.86V0H360v.86a45.35 45.35 0 0045.35 45.35h17a45.36 45.36 0 0045.36 45.36h19.84v22.67h9.5A104.4 104.4 0 00540.2 105z"/><rect class="cls-10" x="464.88" y="46.21" width="56.69" height="22.68" rx="11.34"/><path class="cls-10" d="M636.12 32A27.2 27.2 0 01609 57.56h-29.31a12.76 12.76 0 010-25.52z"/><path class="cls-2" d="M677.2 520.24a5.41 5.41 0 016.55-7.57 5.35 5.35 0 013.14 2.7l1.82 3.62a4.63 4.63 0 005.73 2.35 4.5 4.5 0 002.4-6.22l-1.91-3.8a14.42 14.42 0 00-25.76 13l10.47 20.82h-26.75a22.67 22.67 0 00-22.68 22.68h56.31a9 9 0 008-13z"/><path class="cls-31" d="M669.89 545.11h-17a22.67 22.67 0 00-22.68 22.68h17a22.67 22.67 0 0122.68-22.68z"/><path class="cls-15" d="M690 514.77a5.07 5.07 0 015.07 5.07v2.33a5.07 5.07 0 01-5.07 5.07v-12.47z" transform="rotate(-26.49 692.475 520.986)"/><rect class="cls-7" x="725.67" y="613.14" width="104.88" height="5.67" rx="2.83"/><rect class="cls-25" x="705.83" y="630.15" width="110.55" height="11.34" rx="5.67"/><path class="cls-7" d="M717.17 635.82a45.35 45.35 0 1190.7 0z"/><path class="cls-8" d="M762.52 590.46a45.19 45.19 0 0112.76 1.84 45.35 45.35 0 00-32.6 43.52h-25.51a45.35 45.35 0 0145.35-45.36z"/><rect class="cls-7" x="609.45" y="567.79" width="87.87" height="5.67" rx="2.83"/><path class="cls-2" d="M596.92 576.93a5.42 5.42 0 019.68-4.87l1.83 3.63a4.62 4.62 0 005.72 2.35 4.5 4.5 0 002.4-6.22l-1.91-3.8a14.42 14.42 0 00-25.76 13l10.47 20.82H572.6a22.68 22.68 0 00-22.68 22.68h56.31a9 9 0 008-13z"/><path class="cls-31" d="M589.61 601.8h-17a22.68 22.68 0 00-22.68 22.68h17a22.68 22.68 0 0122.68-22.68z"/><path class="cls-15" d="M609.7 571.47a5.07 5.07 0 015.07 5.07v2.33a5.07 5.07 0 01-5.07 5.07v-12.47z" transform="rotate(-26.49 612.19 577.665)"/><rect class="cls-7" x="521.57" y="624.48" width="93.54" height="5.67" rx="2.83"/><rect class="cls-8" x="858.9" y="581.96" width="39.69" height="8.5" rx="4.25"/><path class="cls-16" d="M879 561.44c7.11 10.31 8.7 21.55 3.54 25.11s-15.1-1.92-22.21-12.24-10-34.43-10-34.43 21.6 11.25 28.67 21.56z"/><path class="cls-15" d="M850.39 539.88l32.19 46.67c5.16-3.56 3.57-14.8-3.54-25.11s-28.65-21.56-28.65-21.56z"/><path class="cls-16" d="M891.28 565c0 12.53-5.08 22.68-11.34 22.68S868.6 577.48 868.6 565s11.34-34 11.34-34 11.34 21.43 11.34 34z"/><path class="cls-15" d="M879.94 530.94v56.69c6.26 0 11.34-10.15 11.34-22.68s-11.34-34.01-11.34-34.01z"/><path class="cls-8" d="M521.57 545.11a34 34 0 1168 0z"/><path class="cls-13" d="M545.67 512.57a34 34 0 0143.94 32.54h-19.85a34 34 0 00-24.09-32.54z"/><path class="cls-2" d="M1320.94 394.87l-39.68 14.18h39.68v28.34l-28.34 14.18h28.34l28.35-34.02-28.35-22.68z"/><path class="cls-13" d="M1366.3 618.9a65.19 65.19 0 00-109.2 48.1h109.2z"/><path class="cls-8" d="M1347.56 613.14a65.39 65.39 0 0113.07 1.33A65.17 65.17 0 001256.85 667h26.51a65.21 65.21 0 0164.2-53.86z"/><path d="M91.09 528.1A313.11 313.11 0 0085 667" stroke-width="5" stroke="#001819" fill="none" stroke-miterlimit="10"/><path class="cls-15" d="M102.05 499.76l-11.34-11.34-11.34 11.34L68 488.42v22.67a22.75 22.75 0 0022.68 22.68 22.75 22.75 0 0022.68-22.68v-22.67z"/><path class="cls-16" d="M79.37 511.09v-11.33L68 488.42v22.67a22.75 22.75 0 0022.68 22.68 22.65 22.65 0 005.67-.72 22.77 22.77 0 01-16.98-21.96z"/><path class="cls-11" d="M487.56 46.21c0 51.63-42.52 84.23-65.2 96.38"/><path class="cls-33" d="M824.88 681.17h-45.35L1233.86 0h45.36L824.88 681.17zM694.06 681.17H648.7L1103.04 0h45.35L694.06 681.17zM1366 258.23v68l-170.57 255.74h-45.36L1366 258.23z"/><path class="cls-18" d="M1369.13-4.81H998.85a78.81 78.81 0 00-1.05 12.75 78 78 0 0078 78 77.56 77.56 0 0036.82-9.24 65.19 65.19 0 0090.78 45.91 70.86 70.86 0 00104.89 26.67 66.49 66.49 0 0053.81 27.37 69 69 0 007.08-.38z"/><path class="cls-7" d="M1068.66 7.94a77.7 77.7 0 011.06-12.75h-70.87a78.81 78.81 0 00-1.05 12.75 78 78 0 0078 78 77.62 77.62 0 0035.44-8.52 77.94 77.94 0 01-42.58-69.48zM1274.22 122.57a65.19 65.19 0 01-90.78-45.91 78 78 0 01-70.44 1.61 65.17 65.17 0 0090.4 44.3 70.85 70.85 0 0099.15 30.36 71.18 71.18 0 01-28.33-30.36z"/><path class="cls-7" d="M1207.74 66.89A36.85 36.85 0 011170.89 30c0-1.24.06-2.46.18-3.67a36.85 36.85 0 1059.17 32.85 36.75 36.75 0 01-22.5 7.71zM1291.1 113.48a25.66 25.66 0 01-25.66-25.66c0-.87 0-1.72.12-2.56a25.67 25.67 0 1041.21 22.88 25.52 25.52 0 01-15.67 5.34z"/><path class="cls-7" d="M1270 65.59A41.61 41.61 0 011228.42 24a40.55 40.55 0 01.21-4.14 41.61 41.61 0 1066.8 37.09 41.39 41.39 0 01-25.43 8.64zM1160.12 591.44a4.26 4.26 0 004-4.47l-1.84-34.82A4.29 4.29 0 011165 548c2-.79 4-1.58 6-2.35a4.25 4.25 0 015.73 3.77l.83 15.77a4.25 4.25 0 004.47 4 4.25 4.25 0 004-4.46L1185 544a4.25 4.25 0 012.92-4.27l4-1.28a4.25 4.25 0 015.51 3.84l.25 4.72a4.24 4.24 0 004.47 4 4.25 4.25 0 004-4.47l-.46-8.79a4.23 4.23 0 013.1-4.31c6.54-1.84 12.17-3.3 16.13-4.29a4.24 4.24 0 015.24 4.71c-.57 4-1.44 9.8-2.57 16.5a4.26 4.26 0 01-4 3.54l-8.79.46a4.25 4.25 0 00-4 4.47 4.25 4.25 0 004.47 4l4.72-.25a4.25 4.25 0 014.4 5.07c-.28 1.38-.56 2.77-.86 4.17a4.23 4.23 0 01-3.93 3.35l-20.7 1.09a4.26 4.26 0 00-4 4.47 4.26 4.26 0 004.47 4l15.78-.84a4.25 4.25 0 014.34 5.31c-.55 2.11-1.12 4.19-1.7 6.22a4.26 4.26 0 01-3.87 3.09l-34.82 1.84a4.25 4.25 0 00-4 4.47 4.26 4.26 0 004.47 4l27.86-1.47a4.26 4.26 0 014.1 6 42.21 42.21 0 01-6.52 11c-16.23 18-44.48 19.07-63.1 2.31s-20.55-45-4.32-63a41.87 41.87 0 0110.21-7.63 4.26 4.26 0 016.39 3.45l1.46 27.85a4.26 4.26 0 004.47 4.11z"/><path class="cls-8" d="M1147.8 556.11a4.26 4.26 0 016.39 3.45l1.46 27.85a4.26 4.26 0 008.5-.44l-1.84-34.82A4.29 4.29 0 011165 548q3-1.2 6-2.35a4.25 4.25 0 015.73 3.77l.83 15.77a4.26 4.26 0 008.5-.44L1185 544a4.25 4.25 0 012.92-4.27l4-1.28a4.25 4.25 0 015.51 3.84l.25 4.72a4.25 4.25 0 008.49-.45l-.46-8.79a4.23 4.23 0 013.1-4.31c6.54-1.84 12.17-3.3 16.13-4.29a4.21 4.21 0 013.88 1l-86.92 96.57c-18.62-16.75-20.55-45-4.32-63a41.87 41.87 0 0110.22-7.63z"/></g><g id="Kobieta"><path fill="#ec8e62" d="M1091.01 642.67l-7.43 4.15-38.23-90.19 19.8-11.06 25.86 97.1z"/><path class="cls-35" d="M1051.65 648.65h-9.5l1-100.7h22.68l-14.18 100.7z"/><path fill="#dd9980" d="M1042.78 584.79l-.05 5.58 16.94 1.31 1.28-9.08-18.17 2.19z"/><path class="cls-37" d="M1091.34 460.07l-11.76 25.49c-3.34 7.22-5.68 15.45-2.41 22.7l39.68 76.54h-85l28.35-124.73z"/><path class="cls-7" d="M1058.74 667v-1.42a29.84 29.84 0 0129.76-29.76h32.6a29.85 29.85 0 0129.77 29.76V667z"/><path class="cls-35" d="M1077.17 443.06l-36.86 34-30.73-14-8.71-8.71a4.51 4.51 0 000 6.36l2.15 2.15h-16.56a8.5 8.5 0 008.5 8.5h14.17l31.18 19.84 34-28.34 19.84-2.84z"/><path class="cls-31" d="M1076.68 573.52h-42.47l-2.4 11.27h44.87v-11.27zM1082.3 457.48l-7.97 5.43-18.28 15.23-3.51 15.43 29.76-36.09z"/><path class="cls-35" d="M1057.32 411v9.4l-3.46 5.19a2.13 2.13 0 001.77 3.31h1.69v1.1a9.35 9.35 0 009.35 9.34 2.14 2.14 0 012.14 2.15v12.91H1083V411z"/><path class="cls-31" d="M1057.05 551.43l-2.56-17.87s37.43 9 49.43 26.3l12.93 24.94-23.63 4.13z"/><path class="cls-16" d="M1060.16 417.55s0 11.34 10.34 15c9.63 3.42 9.5 21.84 9.5 30.35 0 14.17 8.76 23.44 17 25.51 11.34 2.83 25.51-11.34 11.34-31.18-9.61-13.45-22.68-42.52-22.68-42.52z"/><path class="cls-16" d="M1057.05 410s0 11.34 10.34 15c9.63 3.42 9.5 21.84 9.5 30.34 0 14.18 8.76 23.45 17 25.52 11.34 2.83 25.51-11.34 11.34-31.19-9.61-13.45-22.68-42.52-22.68-42.52z"/><path class="cls-17" d="M1110.55 460.67c3.36 13.76-7.55 22.44-16.64 20.17-4.76-1.19-9.68-4.79-13-10.33 2.44 9.86 9.43 16.24 16.09 17.91 10.69 2.67 23.87-9.74 13.55-27.75zM1060.43 420.06s13.37 10.23 30.74 6.33l-4.6-9.45z"/><path class="cls-37" d="M1088.37 407a17 17 0 00-33.75 0c-11.86 1.18-20 3.56-20 6.3 0 3.91 16.49 7.09 36.85 7.09s36.85-3.18 36.85-7.09c.03-2.74-8.09-5.12-19.95-6.3z"/><path fill="#d86a3f" d="M1060.14 584.79l-.05 5.58 17.26-.91.65-4.67h-17.86z"/><path class="cls-8" d="M1104.8 570.35c24.28 25.3 38.2 51.34 31.1 58.15s-32.54-8.17-56.82-33.47-31.1-58.15-31.1-58.15 32.54 8.17 56.82 33.47zM1023.31 667a18.48 18.48 0 0118.42-18.43h45.36a18.48 18.48 0 0118.42 18.43"/><path class="cls-9" d="M994.63 449.35a5.67 5.67 0 01-9.43 6.29c-1.74-2.6-1.57-12.58-1.57-12.58s9.27 3.69 11 6.29z"/><path class="cls-16" d="M967.58 449.48a5.67 5.67 0 115.54 9.89c-2.73 1.53-12.66.59-12.66.59s4.39-8.96 7.12-10.48z"/><path class="cls-7" d="M976 412.55a5.67 5.67 0 11-7.67 8.35c-2.31-2.12-4.51-11.85-4.51-11.85s9.84 1.38 12.18 3.5z"/><path d="M1088.37 407s-14.61 8.59-33.75 0" stroke="#c6c29e" stroke-linecap="round" stroke-width="5" fill="none" stroke-miterlimit="10"/><path class="cls-7" d="M1149.19 601.13c6.94 34.37 4.75 63.82-4.9 65.77s-23.1-24.34-30-58.71 4.89-65.77 4.89-65.77 23.06 24.34 30.01 58.71z"/></g></g></svg>