<svg id="Ilustracja" xmlns="http://www.w3.org/2000/svg" viewBox="0 0 566.93 566.93"><defs><style>.cls-1{fill:#faebdc}.cls-2,.cls-3{fill:none;stroke-linecap:round;stroke-linejoin:round;stroke-width:2.54px}.cls-2{stroke:#001e1d}.cls-3{stroke:#472300}.cls-4{fill:#ff8764}.cls-5{fill:#d25a3c}.cls-6{fill:#d8aa91}.cls-7{fill:#0f373c}.cls-8{fill:#001e1d}.cls-9{fill:#006464}.cls-12{fill:#cc661b}.cls-13{fill:#db832a}.cls-14{fill:#059999}</style></defs><circle class="cls-1" cx="281.42" cy="298.43" r="268.5"/><path class="cls-2" d="M422.91 98.21s-28.8 31.5-32.4 72"/><path class="cls-3" d="M120.47 413.4c-2-3.85-32.2-59.23-83.89-60a77.8 77.8 0 00-33.4 7.15"/><path class="cls-4" d="M151.74 357.72c33.75 33.75 40.74 81.47 40.74 81.47s-47.72-7-81.47-40.73S70.27 317 70.27 317s47.73 7 81.47 40.72z"/><path class="cls-5" d="M111 398.46c33.75 33.74 81.47 40.73 81.47 40.73L70.27 317s6.99 47.71 40.73 81.46z"/><path class="cls-3" d="M134 422.54c-2.09-2.76-43.76-56.59-74-42.08A31.84 31.84 0 0041.57 405c-1.75 11.95 4.17 23.81 13 27.89 6.12 2.86 24.43 3.11 24.35-13.41"/><rect class="cls-6" x="199.68" y="497.86" width="230.43" height="14.4" rx="7.2"/><rect class="cls-6" x="124.07" y="497.87" width="64.81" height="14.4" rx="7.2"/><path class="cls-4" d="M440.4 398.76C389.78 449.38 308 449.67 308 449.67s.3-81.76 50.92-132.38 132.39-50.92 132.39-50.92-.31 81.77-50.91 132.39z"/><path class="cls-5" d="M358.93 317.29C308.31 367.91 308 449.67 308 449.67l183.31-183.3s-81.76.3-132.38 50.92z"/><path class="cls-5" d="M328.31 361.92a199.01 199.01 0 00-6.78 16.59 229.36 229.36 0 00-7.62 26.27c-.38 1.64-.73 3.26-1.06 4.86-4.78 23.07-4.85 39.86-4.85 39.86s72.32-.27 123-42.41a71.15 71.15 0 00-46.82-30.51c-.15-.91-.31-1.79-.49-2.65-.05-.21-.09-.42-.14-.62-.26-1.16-.55-2.36-.88-3.56-.1-.39-.22-.79-.33-1.19-.32-1.09-.66-2.16-1-3.23v-.12c-.08-.25-.17-.49-.25-.73-.47-1.31-1-2.63-1.55-3.93l-.3-.66v-.11c-.46-1-1-2.08-1.47-3.11-.17-.34-.34-.67-.52-1-.59-1.13-1.17-2.17-1.78-3.21-.08-.15-.17-.29-.26-.45-.7-1.16-1.45-2.32-2.3-3.55l-.43-.6-.1-.14c-.65-.93-1.33-1.84-2.05-2.77l-.59-.74A72.84 72.84 0 00364 338l-.66-.62c-.85-.82-1.73-1.61-2.61-2.37l-.6-.51c-1.13-1-2.26-1.85-3.37-2.67l-.24-.18c-1-.74-2.06-1.47-3.2-2.21l-.84-.54c-.89-.56-1.79-1.1-2.68-1.61a155.46 155.46 0 00-15.9 23.6q-3.02 5.47-5.59 11.03z"/><path class="cls-7" d="M413.2 289.13c-67.47 67.48-162.91 81.45-162.91 81.45s14-95.44 81.44-162.92 162.92-81.44 162.92-81.44-13.97 95.43-81.45 162.91z"/><path class="cls-8" d="M439.63 250.57q0 4.08-.25 8.11c-3.58 5-7.39 9.89-11.44 14.71q-6.68 8-14.24 15.65l-.5.5a250.69 250.69 0 01-19.93 17.86 101 101 0 00-18.21-134c2.89-1.85 5.79-3.65 8.69-5.37s5.8-3.39 8.7-5 5.87-3.18 8.79-4.67a129.77 129.77 0 0138.39 92.21z"/><path class="cls-1" d="M466.12 129.55l-14.41 36.01v-36.01h14.41zM448.11 125.95l-14.4 36v-36h14.4z"/><path class="cls-8" d="M332 207.66c-67.48 67.48-81.45 162.92-81.45 162.92s1.32-.19 3.73-.64l7.68-3.29c3.71-1.6 91.26-39.92 129.66-122.26 14.43-30.94 19.63-63.19 20.45-91.62-26.32 12.32-55.07 29.95-80.07 54.89z"/><path class="cls-3" d="M76 151.15c-2.68-18-23.93-43.2-45.11-29.65-6.44 4.12-10.47 15.25-5.45 22.37 4.13 5.86 13.88 8.3 19.74 4 3.44-2.52 4.41-6.54 4.71-8.23"/><path class="cls-9" d="M257.58 182c-33.61 72.09-8.65 154.87-8.65 154.87S328.39 302.79 362 230.7s8.66-154.87 8.66-154.87S291.2 109.92 257.58 182z"/><path class="cls-7" d="M370.79 75.54s25 82.79-8.65 154.87-113.08 106.18-113.08 106.18z"/><path d="M430.11 247.3A120.62 120.62 0 00189 241.9h-.12l-9.83 68.8c-17.94-40.42-58.51-68.8-105.39-68.8h-14.4v28.8h14.4a86.66 86.66 0 0186.41 86.41v86.42H343.7l-11.12-77.83a120.64 120.64 0 0097.53-118.4zM328.5 337.13l-13.6-95.23h-97a91.81 91.81 0 11110.6 95.23z" fill="#f5a03c"/><path d="M287.1 241.9h-69.25a91.81 91.81 0 0191.64-86.41c1.66 0 3.3 0 4.93.13q2.28-14.13 3.3-28.65-4.08-.28-8.23-.29A120.62 120.62 0 00189 241.9h-.12l-9.83 68.8c-17.94-40.42-58.51-68.8-105.39-68.8h-14.4v28.8h14.4a86.66 86.66 0 0186.41 86.41v20.32A314.51 314.51 0 00287.1 241.9z" fill="#ffbd76"/><path class="cls-12" d="M309.49 155.49a91.7 91.7 0 0176.62 41.23 229.68 229.68 0 005.62-37.64 120.7 120.7 0 00-119.38-26.56 194.22 194.22 0 00-26.27 41.26q-2.88 6.16-5.33 12.69a91.54 91.54 0 0168.74-30.98z"/><path class="cls-8" d="M372.5 219.56l-46.8 21.6h46.8v-21.6z"/><path class="cls-12" d="M412.11 249.09a97.27 97.27 0 01-82.46 96.12l-1.16-8.08a91.82 91.82 0 10-92-145.56 97.22 97.22 0 01175.58 57.52z"/><path class="cls-9" d="M368 216H245.86a178.49 178.49 0 0111.73-34c33.34-71.52 111.82-105.63 113.06-106.15S392.35 147.79 368 216z"/><path class="cls-7" d="M368.07 216h-62.75l65.33-140.15.13-.29s21.78 72.15-2.71 140.44z"/><path class="cls-8" d="M376.1 190.76l-46.8 21.6h46.8v-21.6z"/><path class="cls-2" d="M401.31 446.39c0-18 25.2-144 126-122.41"/><path class="cls-12" d="M332.58 366a119.22 119.22 0 0013.42-3.41c-.38-.86-.78-1.7-1.2-2.54-.14-.27-.28-.55-.43-.82-.47-.91-1-1.81-1.5-2.69l-.17-.31q-.9-1.48-1.89-2.91l-.43-.61c-.54-.76-1.09-1.51-1.67-2.24l-.49-.63a56.47 56.47 0 00-4.66-5.12l-.54-.52c-.7-.66-1.41-1.3-2.14-1.93l-.49-.43q-1.35-1.14-2.76-2.19a.71.71 0 01-.14-.1c-.88-.64-1.78-1.26-2.69-1.86l-.68-.43q-1.24-.8-2.55-1.53l-.33-.2-.14-.07c-1-.53-1.94-1-2.94-1.51l-.19-.1-.44-.19c-.76-.35-1.54-.69-2.32-1l-.6-.24-.63-.24c-.62-.24-1.24-.46-1.86-.68l-1-.34-.43-.14c-.67-.21-1.34-.39-2-.58l-.87-.25-.46-.11h-.16l-.59-.13c-.63-.15-1.26-.3-1.89-.42-.21-.05-.41-.09-.62-.12s-.68-.12-1-.18l-1.63-.26-.85-.12-.79-.09-1.79-.16c-.34 0-.67-.07-1-.09h-.46c-.79-.05-1.58-.06-2.37-.08h-.84c-1.22 0-2.43 0-3.64.12-.63 0-1.25.11-1.87.17s-1.12.09-1.68.16c-.72.09-1.43.22-2.14.33l-1.36.22-1.92.42c-.41.09-.84.17-1.25.27l-.31.09c-.81.2-1.6.44-2.39.67l-1.18.35c-.84.28-1.66.58-2.48.89l-1 .37c-.88.35-1.75.74-2.62 1.13l-.76.34c-1.11.52-2.2 1.08-3.27 1.67s-2 1.16-3 1.77c-.32.2-.62.41-.93.62-.66.44-1.31.88-1.95 1.35-.34.24-.67.49-1 .74-.63.48-1.25 1-1.86 1.48-.29.23-.57.45-.85.69q-1.29 1.11-2.52 2.28l-.35.36c-.7.68-1.38 1.39-2.05 2.11l-.78.87q-.76.87-1.5 1.77l-.78 1c-.49.64-1 1.28-1.45 1.94-.2.29-.41.56-.61.85-.64.94-1.26 1.89-1.85 2.86l-.35.63c-.47.78-.91 1.58-1.34 2.39-.19.36-.37.73-.55 1.09-.34.69-.67 1.39-1 2.09-.17.39-.35.77-.51 1.16-.32.77-.63 1.55-.92 2.34l-.36.94c-.38 1.08-.73 2.18-1.05 3.29-.08.31-.15.62-.23.92-.17.63-.35 1.27-.5 1.91l-.12.61c-.1.44-.18.9-.27 1.35a57.607 57.607 0 00-.59 3.63c-.11.83-.19 1.67-.26 2.51 0 .39-.08.78-.1 1.17a57.28 57.28 0 00-.13 3.72c-1.06 0-2.11 0-3.16.09l-1.06.08c-.68.05-1.37.11-2.05.18l-1.25.16c-.61.08-1.21.16-1.81.26l-1.3.23c-.59.11-1.16.22-1.74.35l-.64.13c-.28.06-.55.14-.83.21l-1 .24-1.71.49-.85.26c-.69.21-1.36.44-2 .68l-.48.17c-.84.31-1.67.63-2.5 1l-.32.15c-.7.3-1.4.61-2.08.94l-.69.34c-.56.27-1.12.56-1.67.85l-.76.42-1.56.9c-.25.14-.49.29-.73.44l-1.58 1-.62.41c-.62.42-1.23.86-1.83 1.3l-.29.21c-.73.54-1.44 1.1-2.13 1.67-.66.55-1.31 1.11-2 1.69l-.47.44c-.48.44-1 .89-1.42 1.36l-.56.56c-.43.44-.86.88-1.28 1.33l-.55.61c-.42.47-.83.94-1.23 1.42l-.48.57c-.45.56-.9 1.13-1.33 1.7l-.28.36c-1.05 1.41-2 2.88-3 4.39l-.34.59c-.33.55-.66 1.11-1 1.67-.14.25-.27.51-.4.76-.28.53-.55 1-.82 1.59l-.39.82c-.26.53-.5 1.08-.74 1.62l-.34.81c-.26.6-.49 1.21-.73 1.83l-.24.64c-.31.84-.6 1.68-.86 2.54-.26.84-.5 1.68-.72 2.53-.07.27-.13.54-.19.81-.15.6-.29 1.19-.42 1.8-.07.32-.13.65-.19 1-.11.56-.21 1.12-.31 1.69l-.15 1c-.09.56-.16 1.13-.22 1.7 0 .34-.08.69-.11 1-.06.62-.11 1.24-.14 1.86 0 .3-.05.59-.06.89-.05.92-.07 1.85-.07 2.78v.32H343.7z"/><path class="cls-13" d="M324 305.37a97.35 97.35 0 01-75.54-63.47h66.47zM217.85 242.22a91.53 91.53 0 015.09-25.2h-30.13a120.9 120.9 0 00-3.81 25.2h28.85z"/><path class="cls-3" d="M287 468c-53.89-246.46-134.18-235.72-179.69-267.88-33.65-23.76-37.25-59.77-26.45-85 1.84-4.28 17.84-31.05 40.63-30.43 60.19 1.62 20.58 80.83-11.82 50.4"/><path class="cls-9" d="M430.1 447.45a57.58 57.58 0 01-86.41 49.88 57.45 57.45 0 01-57.6 0 57.6 57.6 0 11-28.81-107.48 57.61 57.61 0 11115.22 0 57.6 57.6 0 0157.6 57.6z"/><path class="cls-7" d="M372.5 389.85a57.61 57.61 0 00-57.61-57.61v172.82a57.33 57.33 0 0028.8-7.72 57.61 57.61 0 1028.81-107.49z"/><rect class="cls-7" x="286.09" y="361.05" width="57.61" height="28.8" rx="14.4"/><path class="cls-8" d="M300.46 503.23c1.27.33 2.56.61 3.87.85-1.33-.22-2.6-.52-3.87-.85zM304.33 504.08c.93.18 1.87.33 2.82.46-.95-.13-1.89-.27-2.82-.46zM312.93 505c-1.44 0-2.84-.14-4.24-.29 1.4.16 2.8.29 4.24.29zM320.55 504.76c.9-.09 1.79-.2 2.68-.33-.89.13-1.78.25-2.68.33zM323.23 504.43zM317.63 505c1-.05 1.95-.13 2.92-.23-.97.09-1.94.17-2.92.23z"/><path class="cls-8" d="M428.71 434.85a57.4 57.4 0 01-10.7 22.7l-.15.19c-.54.7-1.11 1.37-1.68 2-11.12 12.4-18.53-.15-19.77-5.11a.87.87 0 00-.07-.17 84.59 84.59 0 00-81.45-64.63v115.2H317.95c.81 0 1.61-.11 2.4-.18h.22a1.46 1.46 0 00.22 0 57.11 57.11 0 007.81-1.34h.18c.82-.2 1.62-.42 2.42-.65l.6-.19c1.21-.37 2.41-.78 3.59-1.23l1.22-.47 1.47-.63c.55-.24 1.1-.49 1.65-.76l1.22-.59c.83-.42 1.65-.86 2.45-1.32l.32-.17c1 .58 2 1.12 3.06 1.64l.3.15c1 .49 2 .95 3 1.38l.49.2c1 .42 2.05.82 3.11 1.19l.32.1c1.82.62 3.67 1.16 5.56 1.6l1 .2 1.11.22c.77.14 1.55.27 2.33.39l1.33.19c.76.09 1.54.17 2.31.23.44 0 .87.09 1.31.11 1 .07 2.07.1 3.12.11h.48a57.61 57.61 0 0057.61-57.6 58.22 58.22 0 00-1.45-12.76z"/><circle class="cls-9" cx="314.89" cy="447.46" r="57.61"/><path class="cls-14" d="M314.9 389.84a57.62 57.62 0 00-54.81 75.4 18 18 0 0015.2-17.78 39.61 39.61 0 0139.61-39.6 18 18 0 0017.78-15.21 57.16 57.16 0 00-17.78-2.81z"/><path class="cls-9" d="M342.79 339.44a28.82 28.82 0 01-55.8 0 57.61 57.61 0 0155.8 0z"/><path class="cls-14" d="M314.9 332.24c-1.23 0-2.44 0-3.64.11-.63 0-1.25.12-1.88.18s-1.12.09-1.67.16c-.72.09-1.44.21-2.15.33l-1.36.22c-.65.12-1.29.27-1.93.42-.42.09-.84.16-1.26.27a57.58 57.58 0 00-43.74 55.91 57.61 57.61 0 1028.8 107.5 57.84 57.84 0 01-12.26-9.5 43.64 43.64 0 11-16.88-84h1.69A13.52 13.52 0 00271.25 391v-1.39a43.6 43.6 0 0143.32-43.42h.33a14 14 0 0013.87-12.3 57.21 57.21 0 00-13.87-1.65z"/><path class="cls-7" d="M257.28 447.46v-3.6a7.2 7.2 0 10-14.4 0v3.6a71.84 71.84 0 0027 56.22 57.73 57.73 0 0016.19-6.34 57.56 57.56 0 01-28.79-49.88z"/><path class="cls-3" d="M221.28 288S156 183.56 195.58 147.55"/><ellipse class="cls-14" cx="183.18" cy="418.3" rx="46.81" ry="14.4" transform="rotate(-65 183.18 418.307)"/><path class="cls-9" d="M203 375.88l-39.6 84.84c-7.21-3.36-4.2-25.07 6.73-48.5s25.62-39.7 32.87-36.34z"/><path class="cls-7" d="M153.43 448.66c0-.49-.05-1-.09-1.49a62.73 62.73 0 00-.92-6.58 97.54 97.54 0 00-2.92-11.38 142.25 142.25 0 00-6.68-17 144.86 144.86 0 00-7.59-14.21c-.38-.61-.75-1.22-1.13-1.82q-1.14-1.79-2.28-3.45c-1.36-2-2.71-3.79-4.06-5.48-.54-.68-1.09-1.34-1.63-2-.75-.88-1.49-1.7-2.23-2.47a40.61 40.61 0 00-4.28-3.94 14.92 14.92 0 00-6.6-3.35 5.7 5.7 0 00-1.59 0 4.67 4.67 0 00-1.44.4c-7.21 3.36-4.2 25.08 6.73 48.51s25.62 39.7 32.83 36.33c2.93-1.37 4.17-5.73 3.88-12.07z"/><ellipse class="cls-7" cx="156.47" cy="407.85" rx="14.4" ry="72.01"/><path class="cls-8" d="M142.07 407.85c0 39.77 6.45 72 14.4 72v-144c-7.95-.01-14.4 32.23-14.4 72z"/><path class="cls-4" d="M120.47 447.45h72.01v21.6h-72.01z"/><path class="cls-4" d="M178.08 505.07h-43.21l-7.2-57.62h57.61l-7.2 57.62z"/><path class="cls-5" d="M130.22 469.06l.84 7.2h28.17a10.4 10.4 0 0110.4 10.39v.25l-.22 1.84a.17.17 0 010 .07l-2.34 16.26h11l4.66-36z"/><path class="cls-2" d="M422.91 378s28.8-28.8 61.21-10.8"/><path class="cls-9" d="M520.18 392.25a3.27 3.27 0 002.69-4.92c-1.55-2.62-15.39-25.74-23-29.92a18 18 0 00-17.3 31.59c7.64 4.18 34.57 3.36 37.61 3.25z"/><path class="cls-7" d="M522.92 390.55l-47.38-25.91a18 18 0 007 24.37c7.64 4.17 34.57 3.35 37.61 3.24a3.25 3.25 0 002.77-1.7z"/><path class="cls-9" d="M564.66 331.46a3.94 3.94 0 00.68-6.73c-3-2.19-29.2-21.39-39.65-22.44a21.73 21.73 0 00-4.37 43.23c10.46 1.06 40.01-12.52 43.34-14.06z"/><path class="cls-7" d="M566.91 328.29l-64.85-6.55a21.66 21.66 0 0019.26 23.78c10.46 1.06 40-12.51 43.34-14.06a3.92 3.92 0 002.25-3.17z"/><path class="cls-2" d="M422.91 378s21.6-10.8 32.4 10.8"/><path class="cls-9" d="M466.2 437a3.25 3.25 0 003.14.72 3.29 3.29 0 002.23-2.33c.73-3 7.08-29.14 4.57-37.48a18 18 0 00-34.47 10.39c2.51 8.29 22.33 26.59 24.53 28.7z"/><path class="cls-7" d="M469.34 437.67L453.75 386a17.94 17.94 0 00-12.08 22.29c2.51 8.34 22.28 26.64 24.53 28.7a3.25 3.25 0 003.14.68z"/><circle class="cls-4" cx="59.26" cy="155.81" r="10.8"/><path class="cls-5" d="M59.26 145a10.77 10.77 0 00-3.6.63 10.79 10.79 0 010 20.35 10.8 10.8 0 103.6-21z"/><circle class="cls-4" cx="113.27" cy="141.41" r="10.8"/><path class="cls-5" d="M113.27 130.61a10.72 10.72 0 00-3.6.63 10.79 10.79 0 010 20.35 11 11 0 003.6.62 10.8 10.8 0 000-21.6z"/><circle class="cls-4" cx="170.88" cy="134.21" r="10.8"/><path class="cls-5" d="M170.88 123.41a10.68 10.68 0 00-3.6.63 10.78 10.78 0 010 20.34 10.68 10.68 0 003.6.63 10.8 10.8 0 100-21.6z"/><circle class="cls-4" cx="44.86" cy="145.01" r="10.8"/><path class="cls-5" d="M44.86 134.21a10.72 10.72 0 00-3.6.63 10.79 10.79 0 010 20.35 11 11 0 003.6.62 10.8 10.8 0 000-21.6z"/><circle class="cls-4" cx="167.28" cy="271.03" r="10.8"/><path class="cls-5" d="M167.28 260.23a10.68 10.68 0 00-3.6.63 10.78 10.78 0 010 20.34 10.68 10.68 0 003.6.63 10.8 10.8 0 100-21.6z"/><circle class="cls-4" cx="152.87" cy="271.03" r="10.8"/><path class="cls-5" d="M152.87 260.23a10.77 10.77 0 00-3.6.63 10.78 10.78 0 010 20.34 10.8 10.8 0 103.6-21z"/><circle class="cls-4" cx="160.07" cy="285.43" r="10.8"/><path class="cls-5" d="M160.07 274.63a10.77 10.77 0 00-3.6.63 10.78 10.78 0 010 20.34 10.8 10.8 0 103.6-21z"/><circle class="cls-4" cx="41.26" cy="163.01" r="10.8"/><path class="cls-5" d="M41.26 152.21a10.72 10.72 0 00-3.6.63 10.79 10.79 0 010 20.35 10.8 10.8 0 103.6-21z"/><path d="M73.66 241.9h-14.4v28.8h14.4a85.54 85.54 0 0140.14 10 144.41 144.41 0 0025.72-17.94 114.39 114.39 0 00-65.86-20.86z" fill="#f4a03e"/><circle class="cls-4" cx="152.87" cy="127.01" r="10.8"/><path class="cls-5" d="M152.87 116.21a10.77 10.77 0 00-3.6.63 10.78 10.78 0 010 20.34 10.8 10.8 0 103.6-21z"/><path class="cls-9" d="M189.34 123.27a3.26 3.26 0 002.69-4.92c-1.56-2.62-15.39-25.73-23-29.91A18 18 0 00151.72 120c7.65 4.21 34.57 3.38 37.62 3.27z"/><path class="cls-7" d="M192.08 121.58l-47.39-25.91a18 18 0 007 24.36c7.65 4.18 34.57 3.35 37.62 3.24a3.27 3.27 0 002.77-1.69z"/><path class="cls-9" d="M118.08 184.35a3.26 3.26 0 004.2 3.71c2.9-.93 28.51-9.27 34.29-15.79a18 18 0 00-27-23.87c-5.73 6.52-10.92 32.96-11.49 35.95z"/><path class="cls-7" d="M119.12 187.4l35.81-40.4a18 18 0 00-25.32 1.44c-5.77 6.52-11 33-11.53 35.95a3.26 3.26 0 001.04 3.01z"/><path class="cls-9" d="M19.92 417.32a3.26 3.26 0 004.2 3.71c2.9-.93 28.51-9.27 34.29-15.79a18 18 0 00-27-23.87c-5.73 6.52-10.92 32.96-11.49 35.95z"/><path class="cls-7" d="M21 420.37l35.8-40.44a18 18 0 00-25.32 1.44c-5.77 6.52-11 33-11.53 35.95a3.27 3.27 0 001.05 3.05z"/><path class="cls-3" d="M173.41 236.23c-33.6-20.55-57.92-25.48-77.72 2.39"/><path class="cls-9" d="M80.91 257.05a2.69 2.69 0 003.45 3.05c2.38-.76 23.42-7.62 28.16-13a14.79 14.79 0 00-22.14-19.61c-4.74 5.39-9 27.1-9.47 29.56z"/><path class="cls-7" d="M81.77 259.55l29.41-33.21a14.76 14.76 0 00-20.8 1.18c-4.74 5.36-9 27.07-9.47 29.53a2.66 2.66 0 00.86 2.5z"/><path class="cls-9" d="M229.63 170.21A2.65 2.65 0 00232 169a2.68 2.68 0 00.18-2.64c-1.1-2.25-10.88-22.1-16.86-26A14.78 14.78 0 00199.05 165c5.95 4 28.08 5.1 30.58 5.21z"/><path class="cls-7" d="M232 169l-37.06-24.38a14.75 14.75 0 004.11 20.38c6 3.93 28.08 5.06 30.58 5.17A2.65 2.65 0 00232 169z"/><path class="cls-3" d="M160.07 262.77s14.41-25.21 39.61-3.6"/><path class="cls-1" d="M246.49 187.16l43.2 14.4h-46.8l3.6-14.4zM232.08 212.36l43.21 14.4h-46.81l3.6-14.4z"/><path class="cls-12" d="M48.46 241.9h21.6v28.8h-21.6z"/><path class="cls-9" d="M411.52 99.39a3.57 3.57 0 002.88-4.17l-5.3-28.89a3.59 3.59 0 011.78-3.78q2.33-1.32 4.76-2.61a3.58 3.58 0 015.2 2.52l2.4 13.1a3.58 3.58 0 004.17 2.87 3.57 3.57 0 002.88-4.17l-3.15-17.18a3.58 3.58 0 012-3.88c1.09-.51 2.17-1 3.25-1.51a3.58 3.58 0 015 2.61l.71 3.92a3.59 3.59 0 004.18 2.88 3.58 3.58 0 002.87-4.17l-1.33-7.3a3.56 3.56 0 012.12-3.94c5.27-2.24 9.82-4.07 13-5.34a3.58 3.58 0 014.89 3.38c0 3.44-.14 8.34-.36 14.06a3.59 3.59 0 01-2.94 3.39l-7.29 1.34a3.58 3.58 0 00-2.88 4.17 3.59 3.59 0 004.17 2.88l3.92-.72a3.59 3.59 0 014.23 3.76c-.09 1.18-.17 2.37-.27 3.57a3.56 3.56 0 01-2.92 3.23l-17.18 3.16a3.57 3.57 0 00-2.88 4.17 3.59 3.59 0 004.17 2.88l13.1-2.41a3.58 3.58 0 014.2 4c-.23 1.82-.48 3.62-.75 5.38a3.58 3.58 0 01-2.9 3l-28.89 5.31a3.57 3.57 0 00-2.86 4.1 3.59 3.59 0 004.17 2.88l23.12-4.25a3.59 3.59 0 014.08 4.57 35.51 35.51 0 01-4.26 9.86c-11.61 16.83-35.11 20.76-52.49 8.77s-22-35.35-10.43-52.18a35.59 35.59 0 017.7-7.49 3.6 3.6 0 015.72 2.2l4.24 23.12a3.58 3.58 0 004.17 2.91z"/><path class="cls-7" d="M397.39 71.2a3.6 3.6 0 015.72 2.2l4.24 23.12a3.58 3.58 0 007-1.3l-5.3-28.89a3.59 3.59 0 011.78-3.78q2.33-1.32 4.76-2.61a3.58 3.58 0 015.2 2.52l2.4 13.1a3.58 3.58 0 007.05-1.3l-3.15-17.18a3.58 3.58 0 012-3.88c1.09-.51 2.17-1 3.25-1.51a3.58 3.58 0 015 2.61l.71 3.92a3.58 3.58 0 107-1.29l-1.33-7.3a3.56 3.56 0 012.12-3.94c5.27-2.24 9.82-4.07 13-5.34a3.57 3.57 0 013.34.39L400 130.87c-17.37-12-22-35.35-10.43-52.18a35.59 35.59 0 017.82-7.49z"/></svg>