<svg xmlns="http://www.w3.org/2000/svg" viewBox="0 0 566.93 566.93"><defs><style>.cls-1{isolation:isolate;}.cls-2{fill:#ffdfca;}.cls-23,.cls-24,.cls-3{fill:#e2bbaa;}.cls-4{fill:#006464;}.cls-5{fill:#00a8a3;}.cls-6{fill:#002728;}.cls-7{fill:#001919;}.cls-8{fill:#c1391e;}.cls-16,.cls-9{fill:none;}.cls-9{stroke:#002828;stroke-linecap:round;stroke-linejoin:round;stroke-width:2.26px;}.cls-10{fill:#003f3f;}.cls-11{fill:#ff8764;}.cls-12{fill:#e56445;}.cls-13,.cls-17{fill:#4c1f00;}.cls-14{fill:#e6a073;}.cls-15{fill:#260f00;}.cls-16{stroke:#4c1f00;stroke-miterlimit:10;stroke-width:1.13px;}.cls-17{opacity:0.5;mix-blend-mode:hard-light;}.cls-18{fill:#d17846;}.cls-19{fill:#af4617;}.cls-20{fill:#872702;}.cls-21{fill:#00bcb7;}.cls-22{fill:#fff;}.cls-22,.cls-25{mix-blend-mode:soft-light;}.cls-23{mix-blend-mode:multiply;}.cls-24{mix-blend-mode:darken;}.cls-25{fill:#faebdc;}</style></defs><g class="cls-1"><g id="Ilustracja"><circle class="cls-2" cx="306.98" cy="63.26" r="32.08"/><path class="cls-3" d="M336.31,76.24A167.05,167.05,0,0,0,307,73.64c-3.26,0-6.49.1-9.71.29a5.5,5.5,0,0,1-5.72-4.41A32.07,32.07,0,0,1,315,32.19a32.08,32.08,0,0,0-31,53.45l0,0c.52.55,1.08,1.08,1.65,1.58h0c.53.47,1.08.92,1.64,1.36l.15.11c.58.45,1.17.87,1.77,1.27l.09.06c.56.37,1.14.72,1.72,1.06l.28.16c.62.34,1.25.67,1.89,1l.14.06c.59.28,1.18.53,1.79.77l.4.16q1,.38,2,.69l.17,0c.61.19,1.24.35,1.87.5l.49.12c.68.15,1.37.28,2.08.39h.12c.66.1,1.33.17,2,.23l.55,0c.72,0,1.44.08,2.17.08s1.51,0,2.26-.08l.72-.07c.51,0,1-.1,1.52-.17l.81-.13c.47-.08.93-.17,1.4-.27l.79-.17c.17,0,.35-.07.52-.12h0A32.11,32.11,0,0,0,336.31,76.24Z"/><path class="cls-2" d="M467.38,239.7V541.26H146.57V239.7A158.9,158.9,0,0,1,157.38,182c.39-1,.8-2,1.22-3,1.19-2.88,2.45-5.72,3.81-8.5,26-53.78,81.11-91.12,144.57-91.12s118.58,37.32,144.56,91.09c1.34,2.8,2.62,5.64,3.81,8.53.42,1,.83,2,1.22,3A158.9,158.9,0,0,1,467.38,239.7Z"/><path class="cls-4" d="M467.38,239.7V557.3H146.57V239.7A158.9,158.9,0,0,1,157.38,182c.39-1,.8-2,1.22-3,1.19-2.88,2.45-5.72,3.81-8.5,4,1.85,5.91,5.11,12.63,5.11,9.43,0,9.43-6.4,18.85-6.4s9.42,6.4,18.84,6.4,9.43-6.4,18.84-6.4,9.43,6.4,18.85,6.4,9.42-6.4,18.84-6.4,9.43,6.4,18.85,6.4,9.42-6.4,18.85-6.4,9.42,6.4,18.84,6.4,9.43-6.4,18.85-6.4,9.42,6.4,18.85,6.4,9.43-6.4,18.84-6.4,9.43,6.4,18.86,6.4,9.42-6.4,18.85-6.4,9.42,6.4,18.84,6.4c6.74,0,8.66-3.27,12.65-5.14,1.34,2.8,2.62,5.64,3.81,8.53.42,1,.83,2,1.22,3A158.9,158.9,0,0,1,467.38,239.7Z"/><path class="cls-5" d="M467.38,239.7V566.93H146.57V239.7A158.9,158.9,0,0,1,157.38,182c.39-1,.8-2,1.22-3,7.09,1,7.9,6.24,16.44,6.24,9.43,0,9.43-6.4,18.85-6.4s9.42,6.4,18.84,6.4,9.43-6.4,18.84-6.4,9.43,6.4,18.85,6.4,9.42-6.4,18.84-6.4,9.43,6.4,18.85,6.4,9.42-6.4,18.85-6.4,9.42,6.4,18.84,6.4,9.43-6.4,18.85-6.4,9.42,6.4,18.85,6.4,9.43-6.4,18.84-6.4,9.43,6.4,18.86,6.4,9.42-6.4,18.85-6.4,9.42,6.4,18.84,6.4c8.56,0,9.35-5.27,16.46-6.24.42,1,.83,2,1.22,3A158.9,158.9,0,0,1,467.38,239.7Z"/><rect class="cls-6" x="146.57" y="502.77" width="320.81" height="38.5"/><rect class="cls-7" x="146.57" y="528.43" width="320.81" height="12.83"/><ellipse class="cls-6" cx="186.67" cy="386.83" rx="8.02" ry="41.7"/><ellipse class="cls-6" cx="452.94" cy="438.15" rx="8.02" ry="41.7"/><circle class="cls-8" cx="351.89" cy="431.74" r="28.87"/><ellipse class="cls-6" cx="260.46" cy="402.87" rx="11.23" ry="54.54"/><ellipse class="cls-6" cx="244.42" cy="373.99" rx="11.23" ry="54.54"/><ellipse class="cls-6" cx="231.59" cy="390.03" rx="11.23" ry="54.54"/><path class="cls-9" d="M207.34,374c-17.17-45.82,8.55-87.17-15.85-121.45"/><path class="cls-9" d="M220.36,255.75c14.6,36.3-18.54,69.65-18.54,69.65"/><path class="cls-9" d="M201.11,326.32c5.08-.2,33-16.49,44.91-48.12"/><path class="cls-4" d="M287.73,451a41.71,41.71,0,0,1-67.38,32.87,41.7,41.7,0,1,1-39.9-72.07,41.7,41.7,0,1,1,79.82,0A41.73,41.73,0,0,1,287.73,451Z"/><path class="cls-10" d="M180.45,411.78A41.71,41.71,0,0,1,220.36,358v125.9a41.71,41.71,0,1,1-39.91-72.07Z"/><rect class="cls-4" x="178.65" y="444.57" width="83.41" height="38.5" rx="19.25"/><rect class="cls-10" x="169.03" y="422.11" width="60.95" height="22.46" rx="11.23"/><rect class="cls-4" x="201.11" y="406.07" width="41.7" height="16.04" rx="8.02"/><rect class="cls-10" x="201.11" y="377.2" width="38.5" height="28.87" rx="14.44"/><path class="cls-4" d="M239.6,362.65v.12a14.49,14.49,0,0,1-14.43,14.44h-9.63a14.48,14.48,0,0,1-14.43-14.44v-.13a41.87,41.87,0,0,1,38.49,0Z"/><rect class="cls-11" x="252.44" y="396.45" width="25.66" height="76.99" rx="12.83"/><path class="cls-12" d="M265.27,396.45a12.86,12.86,0,0,0-12.83,12.83v51.33a12.86,12.86,0,0,0,12.83,12.83Z"/><path class="cls-9" d="M384,441.36c21.18-14.78,27.38-28.4,28.87-38.49,1.1-7.44-.27-13.5,3.21-22.46,4.27-11,10.37-21.68,17-26"/><rect class="cls-11" x="422.47" y="415.7" width="25.66" height="76.99" rx="12.83"/><path class="cls-12" d="M435.3,415.7a12.86,12.86,0,0,0-12.83,12.83v51.33a12.86,12.86,0,0,0,12.83,12.83Z"/><polygon class="cls-13" points="274.89 339.15 277.94 316.7 281.31 339.15 274.89 339.15"/><polygon class="cls-13" points="319.81 339.15 322.86 316.7 326.22 339.15 319.81 339.15"/><rect class="cls-14" x="242.81" y="448.23" width="12.83" height="57.75"/><polygon class="cls-13" points="249.23 416.15 242.81 448.23 255.65 448.23 249.23 416.15"/><rect class="cls-14" x="278.1" y="345.57" width="28.87" height="113.41"/><rect class="cls-13" x="306.98" y="345.57" width="16.04" height="113.41"/><rect class="cls-14" x="274.89" y="339.15" width="6.42" height="28.87"/><rect class="cls-13" x="319.81" y="339.15" width="6.42" height="28.87"/><polygon class="cls-13" points="278.1 457.85 242.81 457.85 261.91 432.19 278.1 432.19 278.1 457.85"/><polygon class="cls-15" points="342.26 457.85 306.98 457.85 319.17 432.19 348.68 432.19 342.26 457.85"/><rect class="cls-14" x="242.81" y="457.85" width="99.45" height="48.12"/><rect class="cls-13" x="278.1" y="368.03" width="32.08" height="6.42"/><rect class="cls-13" x="281.31" y="358.25" width="22.46" height="3.37"/><polygon class="cls-13" points="236.4 419.36 229.98 451.44 242.81 451.44 236.4 419.36"/><polygon class="cls-13" points="348.68 419.36 342.26 451.44 355.1 451.44 348.68 419.36"/><path class="cls-13" d="M281.31,396.9v-16a3.21,3.21,0,0,1,3.21-3.21h0a3.22,3.22,0,0,1,3.21,3.21v16Z"/><path class="cls-13" d="M281.31,429V416.15a3.21,3.21,0,0,1,3.21-3.21h0a3.22,3.22,0,0,1,3.21,3.21V429Z"/><path class="cls-13" d="M281.31,457.85V445a3.22,3.22,0,0,1,3.21-3.21h0a3.23,3.23,0,0,1,3.21,3.21v12.83Z"/><path class="cls-13" d="M281.31,480.31v-9.63a3.21,3.21,0,0,1,3.21-3.2h0a3.22,3.22,0,0,1,3.21,3.2v9.63Z"/><path class="cls-13" d="M294.14,480.31v-9.63a3.22,3.22,0,0,1,3.21-3.2h0a3.21,3.21,0,0,1,3.21,3.2v9.63Z"/><path class="cls-13" d="M313.39,480.31v-9.63a3.21,3.21,0,0,1,3.21-3.2h0a3.22,3.22,0,0,1,3.21,3.2v9.63Z"/><path class="cls-13" d="M326.22,480.31v-9.63a3.22,3.22,0,0,1,3.21-3.2h0a3.21,3.21,0,0,1,3.21,3.2v9.63Z"/><path class="cls-13" d="M313.39,499.56v-9.63a3.21,3.21,0,0,1,3.21-3.2h0a3.22,3.22,0,0,1,3.21,3.2v9.63Z"/><path class="cls-13" d="M326.22,499.56v-9.63a3.22,3.22,0,0,1,3.21-3.2h0a3.21,3.21,0,0,1,3.21,3.2v9.63Z"/><path class="cls-13" d="M252.44,480.31v-9.63a3.21,3.21,0,0,1,3.21-3.2h0a3.21,3.21,0,0,1,3.2,3.2v9.63Z"/><path class="cls-13" d="M265.27,480.31v-9.63a3.21,3.21,0,0,1,3.21-3.2h0a3.22,3.22,0,0,1,3.21,3.2v9.63Z"/><path class="cls-13" d="M252.44,499.56v-9.63a3.21,3.21,0,0,1,3.21-3.2h0a3.21,3.21,0,0,1,3.2,3.2v9.63Z"/><path class="cls-13" d="M265.27,499.56v-9.63a3.21,3.21,0,0,1,3.21-3.2h0a3.22,3.22,0,0,1,3.21,3.2v9.63Z"/><path class="cls-13" d="M294.14,429V416.15a3.22,3.22,0,0,1,3.21-3.21h0a3.21,3.21,0,0,1,3.21,3.21V429Z"/><path class="cls-13" d="M294.14,457.85V445a3.23,3.23,0,0,1,3.21-3.21h0a3.22,3.22,0,0,1,3.21,3.21v12.83Z"/><path class="cls-13" d="M294.14,396.9v-16a3.22,3.22,0,0,1,3.21-3.21h0a3.21,3.21,0,0,1,3.21,3.21v16Z"/><path class="cls-13" d="M281.31,506v-9.62a9.65,9.65,0,0,1,9.62-9.62h0a9.65,9.65,0,0,1,9.63,9.62V506Z"/><rect class="cls-14" x="303.77" y="339.15" width="6.42" height="28.87"/><path class="cls-13" d="M281.31,361.61V350.38a1.6,1.6,0,0,1,1.6-1.6h0a1.61,1.61,0,0,1,1.61,1.6v11.23Z"/><path class="cls-13" d="M300.56,361.61V350.38a1.6,1.6,0,0,1,1.6-1.6h0a1.61,1.61,0,0,1,1.61,1.6v11.23Z"/><path class="cls-13" d="M294.14,361.61V350.38a1.61,1.61,0,0,1,1.61-1.6h0a1.6,1.6,0,0,1,1.6,1.6v11.23Z"/><path class="cls-13" d="M287.73,361.61V350.38a1.6,1.6,0,0,1,1.6-1.6h0a1.6,1.6,0,0,1,1.6,1.6v11.23Z"/><rect class="cls-14" x="229.98" y="451.44" width="12.83" height="54.54"/><rect class="cls-14" x="342.26" y="451.44" width="12.83" height="54.54"/><rect class="cls-13" x="290.93" y="287.83" width="19.25" height="6.42" rx="3.21"/><rect class="cls-13" x="306.98" y="461.06" width="35.29" height="3.21"/><rect class="cls-13" x="242.81" y="461.06" width="35.29" height="3.21"/><rect class="cls-13" x="306.98" y="461.06" width="3.21" height="44.91"/><line class="cls-16" x1="306.98" y1="403.32" x2="278.1" y2="403.32"/><line class="cls-16" x1="306.98" y1="432.19" x2="278.1" y2="432.19"/><polygon class="cls-13" points="315.8 345.57 284.52 345.57 298.96 262.16 302.33 262.16 315.8 345.57"/><polygon class="cls-14" points="303.77 339.15 306.81 316.7 310.18 339.15 303.77 339.15"/><polygon class="cls-17" points="278.1 402.87 306.98 373.99 278.1 373.99 278.1 402.87"/><polygon class="cls-17" points="278.1 431.74 306.98 406.07 278.1 406.07 278.1 431.74"/><polygon class="cls-17" points="278.1 460.61 306.98 434.95 278.1 434.95 278.1 460.61"/><ellipse class="cls-11" cx="374.34" cy="439.76" rx="25.66" ry="62.56"/><path class="cls-12" d="M348.68,439.76c0,34.55,11.49,62.56,25.66,62.56V377.2C360.17,377.2,348.68,405.21,348.68,439.76Z"/><circle class="cls-11" cx="374.34" cy="406.07" r="12.83"/><circle class="cls-12" cx="374.34" cy="431.74" r="12.83"/><path class="cls-4" d="M371.14,454.64a25.67,25.67,0,0,1,51.33,0,25.67,25.67,0,1,1-12.84,47.89,25.65,25.65,0,0,1-25.66,0,25.66,25.66,0,1,1-12.83-47.89Z"/><path class="cls-10" d="M371.14,454.64a25.66,25.66,0,0,1,38.49-22.22,25.65,25.65,0,0,0-12.83,22.22A25.66,25.66,0,0,0,384,502.53h0a25.66,25.66,0,1,1-12.83-47.89Z"/><path class="cls-9" d="M409.63,358c-10.74,24.87-1.62,58.79-1.62,58.79"/><path class="cls-9" d="M451.34,370.79c-12.28-.88-31.14,10.75-38.36,30.88"/><circle class="cls-4" cx="226.77" cy="486.28" r="16.04"/><rect class="cls-10" x="335.85" y="493.14" width="38.5" height="12.83" rx="6.42"/><path class="cls-9" d="M390.51,444c-24.45-56.59-26.42-79.73-22.61-89.85a34.51,34.51,0,0,0,2.84-18.43c-1-7.89-3.34-12.8-6-16.56"/><path class="cls-9" d="M371.14,390c-28.88-35.28-20.1-69.72-20.1-69.72"/><path class="cls-9" d="M386.25,320c0,10.37-5.49,38.44-18.32,48.07"/><path class="cls-9" d="M379.63,417.09c-9.63-21.59-34.16-4.6-47-30.26"/><path class="cls-4" d="M355.1,506h0a12.87,12.87,0,0,1,12.83-12.83h25.66A12.87,12.87,0,0,1,406.42,506H355.1Z"/><path class="cls-10" d="M384,506a19.25,19.25,0,0,1,38.5,0"/><path class="cls-6" d="M194.63,414a13.93,13.93,0,0,0-1.45-4.88,12,12,0,0,0-.67-1.13,13.09,13.09,0,0,0-1.69-2.07c-5.16-5.16-28-9.35-28-9.35h0s4.19,22.89,9.35,28.05a13.23,13.23,0,0,0,18.7,0h0a13.14,13.14,0,0,0,3.63-6.83,13.28,13.28,0,0,0,.24-2.52C194.69,414.89,194.67,414.46,194.63,414Z"/><path class="cls-12" d="M449.72,380.15a5.15,5.15,0,1,1,9.48-4c1.11,2.62-.7,11.49-.7,11.49S450.84,382.76,449.72,380.15Z"/><path class="cls-11" d="M458.5,387.6h0l-6.06-14.21h0a5.16,5.16,0,0,0-2.72,6.76C450.84,382.76,458.5,387.6,458.5,387.6Z"/><path class="cls-12" d="M239.13,309.58a6.76,6.76,0,0,1,7.11-11.51c3.18,2,7.95,12.87,7.95,12.87S242.31,311.54,239.13,309.58Z"/><path class="cls-11" d="M254.19,310.94h0l-17.25-10.67h0a6.76,6.76,0,0,0,2.19,9.31C242.31,311.54,254.19,310.94,254.19,310.94Z"/><path class="cls-12" d="M438.56,378.55a5.59,5.59,0,0,1,11,2.06c-.56,3-7.54,9.95-7.54,9.95S438,381.59,438.56,378.55Z"/><path class="cls-11" d="M442,390.56h0l3.08-16.47h0a5.58,5.58,0,0,0-6.52,4.46C438,381.59,442,390.56,442,390.56Z"/><path class="cls-4" d="M294.14,390a19.25,19.25,0,0,1,38.5,0Z"/><path class="cls-6" d="M313.39,390a22.46,22.46,0,0,1,44.91,0Z"/><path class="cls-4" d="M342.26,390a16,16,0,1,1,32.08,0Z"/><path class="cls-4" d="M326.22,325.87a19.25,19.25,0,0,1,38.5,0Z"/><path class="cls-6" d="M345.47,325.87a32.08,32.08,0,0,1,64.16,0Z"/><path class="cls-4" d="M384,325.87a16,16,0,0,1,32.08,0Z"/><path class="cls-11" d="M380.76,361.16a19.25,19.25,0,0,1,38.5,0Z"/><path class="cls-8" d="M400,361.16a22.46,22.46,0,1,1,44.91,0Z"/><path class="cls-11" d="M428.88,361.16a16,16,0,1,1,32.08,0Z"/><path class="cls-4" d="M172.24,259a19.25,19.25,0,1,1,38.49,0Z"/><path class="cls-6" d="M191.49,259a22.46,22.46,0,0,1,44.91,0Z"/><path class="cls-4" d="M220.36,259a16,16,0,0,1,32.08,0Z"/><path class="cls-4" d="M186.63,402.32a12.83,12.83,0,1,1-18.15,18.14c-5-5-9.08-27.22-9.08-27.22S181.61,397.3,186.63,402.32Z"/><path class="cls-10" d="M159.4,393.24h0l27.23,27.22h0a12.83,12.83,0,0,0,0-18.14C181.61,397.3,159.4,393.24,159.4,393.24Z"/><path class="cls-6" d="M396.25,506a81.47,81.47,0,0,0,.55-9.62c0-16-4.31-28.87-9.62-28.87s-9.63,12.92-9.63,28.87a83.66,83.66,0,0,0,.55,9.62Z"/><path class="cls-6" d="M383.42,506a28.69,28.69,0,0,0,.55-5.61c0-9.3-4.31-16.84-9.63-16.84s-9.62,7.54-9.62,16.84a28.69,28.69,0,0,0,.55,5.61Z"/><path class="cls-6" d="M406.42,506a16,16,0,0,1,32.09,0Z"/><path class="cls-9" d="M351.89,352c.08-4.07.87-17.92,9.56-26.93a31.89,31.89,0,0,1,7.17-5.56"/><path class="cls-6" d="M206.61,496.35a130.32,130.32,0,0,0,.92-15.58c0-25.06-7.19-45.37-16-45.37s-16.05,20.31-16.05,45.37a130.32,130.32,0,0,0,.92,15.58Z"/><path class="cls-7" d="M191.49,435.4v61H176.36a130.32,130.32,0,0,1-.92-15.58C175.44,455.71,182.63,435.4,191.49,435.4Z"/><path class="cls-6" d="M430.49,214c-9.75,0-17.65,4.31-17.65,9.62s7.9,9.63,17.65,9.63,17.64-4.31,17.64-9.63S440.23,214,430.49,214Zm8,12.83a3.21,3.21,0,1,1,3.21-3.21A3.21,3.21,0,0,1,438.5,226.87Z"/><path class="cls-6" d="M403.21,214v19.25a9.63,9.63,0,1,0,0-19.25Z"/><path class="cls-6" d="M230,207.62a9.63,9.63,0,1,1,0,19.25Z"/><ellipse class="cls-6" cx="347.08" cy="284.62" rx="11.23" ry="6.42"/><path class="cls-6" d="M329.43,278.2a6.42,6.42,0,1,1,0,12.83Z"/><ellipse class="cls-6" cx="449.73" cy="291.03" rx="11.23" ry="6.42"/><path class="cls-6" d="M432.09,284.62a6.42,6.42,0,1,1,0,12.83Z"/><ellipse class="cls-6" cx="181.86" cy="329.53" rx="9.62" ry="3.21"/><path class="cls-6" d="M165.82,323.11a6.42,6.42,0,1,1,0,12.84Z"/><ellipse class="cls-6" cx="374.34" cy="252.54" rx="9.62" ry="3.21"/><path class="cls-6" d="M358.3,246.12a6.42,6.42,0,1,1,0,12.83Z"/><path class="cls-10" d="M467.38,506H416.05a51.33,51.33,0,0,1,51.33-51.33Z"/><path class="cls-12" d="M455.1,472.89A12.83,12.83,0,1,1,437,454.75c5-5,27.22-9.08,27.22-9.08S460.11,467.88,455.1,472.89Z"/><path class="cls-11" d="M464.17,445.67h0L437,472.89h0a12.84,12.84,0,0,0,18.15,0C460.11,467.88,464.17,445.67,464.17,445.67Z"/><path class="cls-7" d="M387.18,467.48V506H378.1a83.66,83.66,0,0,1-.55-9.62C377.55,480.4,381.86,467.48,387.18,467.48Z"/><path class="cls-7" d="M374.34,483.52c-5.31,0-9.62,7.54-9.62,16.84a28.69,28.69,0,0,0,.55,5.61h9.07Z"/><path class="cls-12" d="M185.07,506a28.87,28.87,0,0,1,57.74,0Z"/><path class="cls-11" d="M191.49,506a22.46,22.46,0,0,1,44.91,0Z"/><path class="cls-12" d="M197.9,506A16,16,0,0,1,230,506Z"/><path class="cls-11" d="M204.32,506a9.63,9.63,0,0,1,19.25,0Z"/><path class="cls-6" d="M146.57,506a25.67,25.67,0,0,1,51.33,0Z"/><path class="cls-7" d="M172.24,480.31A25.66,25.66,0,0,0,146.57,506h25.67Z"/><path class="cls-12" d="M146.57,441.81V506h19.25V461.06A19.3,19.3,0,0,0,146.57,441.81Z"/><rect class="cls-14" x="127.32" y="541.26" width="359.3" height="25.66" rx="12.83"/><path class="cls-18" d="M473.79,541.26H358.3a12.88,12.88,0,0,1,12.84,12.83h0a12.88,12.88,0,0,1-12.84,12.84H473.79a12.88,12.88,0,0,0,12.84-12.84h0A12.88,12.88,0,0,0,473.79,541.26Z"/><path class="cls-19" d="M473.79,541.26H416.05a12.87,12.87,0,0,1,12.83,12.83h0a12.87,12.87,0,0,1-12.83,12.84h57.74a12.88,12.88,0,0,0,12.84-12.84h0A12.88,12.88,0,0,0,473.79,541.26Z"/><path class="cls-20" d="M473.79,541.26h-16a12.88,12.88,0,0,1,12.84,12.83h0a12.88,12.88,0,0,1-12.84,12.84h16a12.88,12.88,0,0,0,12.84-12.84h0A12.88,12.88,0,0,0,473.79,541.26Z"/><path class="cls-20" d="M473.79,560.51H140.16a12.87,12.87,0,0,1-12.41-9.62,12.54,12.54,0,0,0-.43,3.2,12.88,12.88,0,0,0,12.84,12.84H473.79a12.88,12.88,0,0,0,12.84-12.84,12.54,12.54,0,0,0-.43-3.2A12.87,12.87,0,0,1,473.79,560.51Z"/><path class="cls-4" d="M392.68,175.54h-170a4.82,4.82,0,0,0,0,9.63h41.7a4.81,4.81,0,1,1,0,9.62H229.06a4.82,4.82,0,0,0,0,9.63h61a4.81,4.81,0,0,1,0,9.62h-3.21a4.81,4.81,0,1,0,0,9.62h16a4.82,4.82,0,0,1,0,9.63,4.81,4.81,0,0,0,0,9.62h41.71a4.81,4.81,0,1,0,0-9.62h-9.63a4.82,4.82,0,0,1,0-9.63h38.5a4.81,4.81,0,0,0,0-9.62H351a4.81,4.81,0,0,1,0-9.62h6.42a4.82,4.82,0,0,0,0-9.63H351a4.81,4.81,0,0,1,0-9.62h41.71a4.82,4.82,0,0,0,0-9.63Z"/><circle class="cls-21" cx="281.31" cy="258.95" r="12.83"/><path class="cls-22" d="M281.31,246.12a13.08,13.08,0,0,0-3.21.42,12.81,12.81,0,0,1,0,24.82,12.62,12.62,0,0,0,3.21.43,12.84,12.84,0,0,0,0-25.67Z"/><ellipse class="cls-22" cx="275.78" cy="253.42" rx="4.81" ry="3.21" transform="translate(-98.42 269.23) rotate(-45)"/><circle class="cls-21" cx="289.33" cy="308.68" r="8.02"/><path class="cls-22" d="M289.33,300.66a8.24,8.24,0,0,0-2,.26,8,8,0,0,1,0,15.52,8.24,8.24,0,0,0,2,.26,8,8,0,1,0,0-16Z"/><ellipse class="cls-22" cx="285.87" cy="305.22" rx="3.01" ry="2.01" transform="translate(-132.09 291.54) rotate(-45)"/><circle class="cls-21" cx="350.28" cy="420.96" r="8.02"/><path class="cls-22" d="M350.28,412.94a8.24,8.24,0,0,0-2,.26,8,8,0,0,1,0,15.52,8.24,8.24,0,0,0,2,.26,8,8,0,1,0,0-16Z"/><ellipse class="cls-22" cx="346.82" cy="417.5" rx="3.01" ry="2.01" transform="translate(-193.64 367.53) rotate(-45)"/><circle class="cls-21" cx="180.69" cy="283.45" r="8.02"/><path class="cls-22" d="M180.69,275.43a8.24,8.24,0,0,0-2,.26,8,8,0,0,1,0,15.52,8.24,8.24,0,0,0,2,.26,8,8,0,0,0,0-16Z"/><ellipse class="cls-22" cx="177.24" cy="279.99" rx="3.01" ry="2.01" transform="translate(-146.07 207.33) rotate(-45)"/><circle class="cls-21" cx="210.73" cy="412.94" r="12.83"/><path class="cls-22" d="M210.73,400.11a12.48,12.48,0,0,0-3.2.42,12.81,12.81,0,0,1,0,24.82,12.48,12.48,0,0,0,3.2.42,12.83,12.83,0,1,0,0-25.66Z"/><ellipse class="cls-22" cx="205.2" cy="407.41" rx="4.81" ry="3.21" transform="translate(-227.98 264.42) rotate(-45)"/><path class="cls-23" d="M311.62,79.39c-1.54,0-3.09-.09-4.64-.09h0c-88.22,0-160.4,72.18-160.4,160.4V541.26h9.63V239.7C156.2,153.15,225.68,82,311.62,79.39Z"/><path class="cls-24" d="M318.2,79.7c-3.71-.26-7.45-.4-11.22-.4h0c-88.22,0-160.4,72.18-160.4,160.4V541.26H169V239.7C169,155.26,235.17,85.52,318.2,79.7Z"/><circle class="cls-21" cx="396.8" cy="297.45" r="12.83"/><path class="cls-22" d="M396.8,284.62a12.61,12.61,0,0,0-3.21.42,12.81,12.81,0,0,1,0,24.82,12.61,12.61,0,0,0,3.21.42,12.83,12.83,0,0,0,0-25.66Z"/><ellipse class="cls-22" cx="391.27" cy="291.92" rx="4.81" ry="3.21" transform="translate(-91.82 362.17) rotate(-45)"/><circle class="cls-21" cx="319.81" cy="220.46" r="12.83"/><path class="cls-22" d="M319.81,207.62a13.08,13.08,0,0,0-3.21.42,12.82,12.82,0,0,1,0,24.83,13.08,13.08,0,0,0,3.21.42,12.84,12.84,0,0,0,0-25.67Z"/><ellipse class="cls-22" cx="314.27" cy="214.92" rx="4.81" ry="3.21" transform="translate(-59.92 285.17) rotate(-45)"/><path class="cls-6" d="M260.46,210.83c-11.52,0-20.85,6.42-20.85,6.42s9.33,6.41,20.85,6.41,20.85-2.87,20.85-6.41S272,210.83,260.46,210.83Zm12.83,6.42a1.61,1.61,0,1,1,1.6-1.61A1.6,1.6,0,0,1,273.29,217.25Z"/><path class="cls-12" d="M194.69,287.83a19.25,19.25,0,0,1,38.5,0Z"/><path class="cls-8" d="M213.94,287.83a22.46,22.46,0,1,1,44.91,0Z"/><path class="cls-12" d="M242.81,287.83a16,16,0,0,1,32.08,0Z"/><rect class="cls-25" x="229.98" y="233.29" width="25.66" height="76.99" rx="12.83"/><path class="cls-25" d="M230,541.26V348.78A12.87,12.87,0,0,1,242.81,336h0a12.87,12.87,0,0,1,12.84,12.83V541.26Z"/><ellipse class="cls-25" cx="230.78" cy="142.66" rx="18.65" ry="10.8" transform="translate(-33.28 204.97) rotate(-45)"/><rect class="cls-4" x="213.94" y="178.75" width="186.07" height="6.42"/><circle class="cls-21" cx="371.14" cy="194.79" r="12.83"/><path class="cls-22" d="M371.14,182a13.08,13.08,0,0,0-3.21.42,12.81,12.81,0,0,1,0,24.82,12.61,12.61,0,0,0,3.21.42,12.83,12.83,0,1,0,0-25.66Z"/><ellipse class="cls-22" cx="365.6" cy="189.26" rx="4.81" ry="3.21" transform="translate(-26.74 313.95) rotate(-45)"/><rect class="cls-4" x="262.06" y="233.29" width="25.66" height="9.62" rx="4.81"/><rect class="cls-4" x="390.38" y="194.79" width="25.66" height="9.62" rx="4.81"/><rect class="cls-4" x="172.24" y="194.79" width="25.66" height="9.62" rx="4.81"/><ellipse class="cls-25" cx="202.09" cy="194.83" rx="30.48" ry="17.64" transform="translate(-49.25 319.85) rotate(-70.4)"/><path class="cls-25" d="M304.32,79.3h0a128.8,128.8,0,0,0-23,2.08c68.26,12.38,120.8,78.83,120.8,158.32V541.26h46V239.7C448.13,151.48,383.42,79.3,304.32,79.3Z"/></g></g></svg>