<svg xmlns="http://www.w3.org/2000/svg" viewBox="0 0 566.93 566.93"><defs><style>.cls-2{fill:#fffcfb}.cls-4{fill:#e2bbaa}.cls-6{fill:none;stroke:#472300;stroke-linecap:round;stroke-linejoin:round;stroke-width:2px}.cls-8{fill:#a8b28e}.cls-9{fill:#757b68}.cls-10{fill:#1c2600}.cls-12{fill:#0f373c}</style></defs><g style="isolation:isolate"><path class="cls-2" d="M0 0h566.93v566.93H0z" id="Tlo"/><g id="Ilustracja"><circle cx="297.48" cy="277.8" r="175.75" fill="#ffd1b8"/><circle class="cls-4" cx="196.68" cy="147.49" r="14.68"/><path class="cls-2" d="M235 172.78a40.28 40.28 0 00-38-26.87 26.85 26.85 0 00-53.7 0v.15q-1.66-.15-3.36-.15a40.28 40.28 0 1028.53 68.7 40.24 40.24 0 0049 6.23A26.85 26.85 0 10235 172.78z"/><path class="cls-4" d="M135 161.42a41.06 41.06 0 00-6.35 6.36 28 28 0 016.35-6.36z"/><path class="cls-4" d="M170.1 135a26.73 26.73 0 0117.9-9.13 26.85 26.85 0 00-36.47.68l-.1.1c-.28.27-.57.55-.83.85s-.58.62-.85.95l-.06.06c-.27.32-.54.66-.8 1a25 25 0 00-2.08 3.1 26 26 0 00-1.32 2.64c-.18.41-.35.81-.49 1.21-.32.84-.59 1.71-.83 2.58-.08.3-.15.59-.21.9a17 17 0 00-.34 1.78 6.62 6.62 0 00-.11.74c0 .23-.06.47-.08.7a25.2 25.2 0 00-.14 2.75v.14c-1.12-.09-2.24-.15-3.37-.15a40.28 40.28 0 00-2.22 80.49 40.27 40.27 0 01-9.13-58.61 28 28 0 016.35-6.36 28.52 28.52 0 0143.91 14.35 39.84 39.84 0 011.35 9.45v1a40.38 40.38 0 01-.72 7.6A43.64 43.64 0 00170.1 135z"/><circle class="cls-4" cx="192.8" cy="193.19" r="22.97"/><circle class="cls-2" cx="200.12" cy="197.16" r="22.83"/><circle class="cls-4" cx="186.13" cy="153.95" r="15.03"/><circle class="cls-2" cx="190.92" cy="156.54" r="14.93"/><circle class="cls-4" cx="135.73" cy="204.23" r="18.85"/><circle class="cls-2" cx="141.74" cy="207.48" r="18.73"/><circle class="cls-4" cx="225.58" cy="209.92" r="13.76"/><circle class="cls-2" cx="229.96" cy="212.29" r="13.67"/><circle class="cls-4" cx="236.78" cy="199.45" r="10.05"/><circle class="cls-2" cx="241.1" cy="202.31" r="9.98"/><circle class="cls-4" cx="210.86" cy="175.66" r="14.23"/><circle class="cls-2" cx="216.98" cy="179.71" r="14.14"/><circle class="cls-4" cx="308.41" cy="89.98" r="8.57"/><path class="cls-2" d="M330.78 104.74a23.5 23.5 0 00-22.17-15.68 15.67 15.67 0 10-31.34 0v.08c-.65 0-1.3-.08-2-.08A23.5 23.5 0 10292 129.15a23.53 23.53 0 0028.62 3.64 15.67 15.67 0 1010.2-28z"/><path class="cls-4" d="M272.39 98.11a24 24 0 00-3.7 3.71 16.28 16.28 0 013.7-3.71z"/><path class="cls-4" d="M292.9 82.67a15.62 15.62 0 0110.47-5.31 15.67 15.67 0 00-21.28.4l-.05.06c-.17.16-.33.32-.49.5a6.41 6.41 0 00-.49.55l-.47.58a15.42 15.42 0 00-1.21 1.81 14.74 14.74 0 00-.77 1.54c-.11.24-.2.47-.29.71-.18.49-.34 1-.48 1.51a4.37 4.37 0 00-.12.52 7.08 7.08 0 00-.2 1c0 .14-.05.29-.07.43s0 .27 0 .41a14.17 14.17 0 00-.09 1.6v.09c-.65 0-1.31-.09-2-.09a23.5 23.5 0 00-1.3 47 23.49 23.49 0 01-5.33-34.2 16.28 16.28 0 013.7-3.71 16.64 16.64 0 0125.57 8.42 23.26 23.26 0 01.79 5.51v.56a24 24 0 01-.42 4.44 25.47 25.47 0 00-5.5-34.33z"/><circle class="cls-4" cx="306.15" cy="116.65" r="13.41"/><circle class="cls-2" cx="310.42" cy="118.97" r="13.32"/><circle class="cls-4" cx="302.26" cy="93.75" r="8.77"/><circle class="cls-2" cx="305.05" cy="95.26" r="8.71"/><circle class="cls-4" cx="272.85" cy="123.09" r="11"/><circle class="cls-2" cx="276.35" cy="124.99" r="10.93"/><circle class="cls-4" cx="325.28" cy="126.41" r="8.03"/><circle class="cls-2" cx="327.84" cy="127.8" r="7.98"/><circle class="cls-4" cx="331.82" cy="120.3" r="5.86"/><circle class="cls-2" cx="334.34" cy="121.97" r="5.83"/><circle class="cls-4" cx="316.69" cy="106.42" r="8.31"/><circle class="cls-2" cx="320.26" cy="108.78" r="8.25"/><circle cx="348.5" cy="257.95" r="22.68" fill="#ff8764"/><path class="cls-6" d="M391.38 354.33c1.43-16.87 11.83-30.45 25.51-34 10.34-2.68 19.35 1.19 22.68 2.84"/><path d="M320.51 340.16a22.75 22.75 0 0122.68-22.68h45.36a22.74 22.74 0 0122.67 22.68" fill="#f5a03c"/><path class="cls-8" d="M274.8 476.22a68.23 68.23 0 01-68-68V226.77a68.23 68.23 0 0168-68h22.68v317.45z"/><path class="cls-9" d="M297.48 453.54a68.23 68.23 0 01-68-68V249.45a68.23 68.23 0 0168-68"/><path class="cls-10" d="M206.77 351.5a34 34 0 0134 34h11.34v-45.34h-45.34z"/><path class="cls-10" d="M297.48 442.2a56.86 56.86 0 01-56.7-56.69V249.45a56.86 56.86 0 0156.7-56.69"/><path class="cls-9" d="M365.51 294.8h-22.68a45.35 45.35 0 01-45.35-45.35v-45.36a45.49 45.49 0 00-45.36 45.36v5.67a39.68 39.68 0 01-39.68 39.68h-5.67l-90.71-45.35s-22.68 25.51-22.68 68 22.68 68 22.68 68l90.71-45.35h5.67a39.69 39.69 0 0139.68 39.68v5.67a45.49 45.49 0 0045.36 45.36v-45.3a45.35 45.35 0 0145.35-45.35h22.68a22 22 0 002.83-.19v.19h19.85v-22.68a22.75 22.75 0 00-22.68-22.68z"/><path class="cls-8" d="M138.38 317.48a114.18 114.18 0 0111.83-51l-34.15-17.07s-22.68 25.51-22.68 68 22.68 68 22.68 68l34.15-17.07a114.18 114.18 0 01-11.83-50.86z"/><path class="cls-8" d="M147.62 362.83c.85 2 1.72 3.86 2.59 5.6l-11.48 5.74-22.67 11.34a75.17 75.17 0 01-7.78-11.34 110.54 110.54 0 01-5.67-11.34 113.75 113.75 0 01-7-22.68c-.71-3.59-1.28-7.37-1.67-11.34-.35-3.62-.54-7.4-.54-11.33s.19-7.71.55-11.34c.38-4 .95-7.75 1.66-11.34a113.64 113.64 0 012.87-11.34 109.76 109.76 0 019.82-22.68 75.17 75.17 0 017.78-11.34l22.67 11.34 11.48 5.74c-.87 1.74-1.74 3.61-2.59 5.6a112.43 112.43 0 00-4.16 11.34 111 111 0 00-2.86 11.34 112.24 112.24 0 00-1.67 11.34c-.36 3.63-.55 7.41-.55 11.34s.19 7.7.55 11.33c.38 4 .95 7.75 1.66 11.34a111.63 111.63 0 002.87 11.34 110 110 0 004.14 11.34zM297.84 385.51v-45.35h45.35a45.35 45.35 0 00-45.35 45.35z"/><path class="cls-10" d="M343.19 340.16h-45.35v-42.52l45.35 42.52z"/><path d="M405.55 374.17c0 12.53-14.17 22.68-14.17 22.68s-14.17-10.15-14.17-22.68 14.17-22.67 14.17-22.67 14.17 10.15 14.17 22.67z" fill="#006464"/><path class="cls-12" d="M377.21 374.17c0 12.53 14.17 22.68 14.17 22.68V351.5s-14.17 10.15-14.17 22.67z"/><path d="M389.6 426.61c11.27 11.28 7.66 33.17 7.66 33.17s-21.9 3.62-33.17-7.65-7.65-33.13-7.65-33.13 21.89-3.66 33.16 7.61z" fill="#2e5257"/><path class="cls-12" d="M364.09 452.13c11.27 11.27 33.17 7.65 33.17 7.65L356.44 419s-3.62 21.85 7.65 33.13z"/><path class="cls-8" d="M138.73 260.78h-30.45a75.17 75.17 0 017.78-11.34z"/><path class="cls-10" d="M107.55 317.48a112.18 112.18 0 0018.8 62.89l-10.29 5.14s-22.68-25.51-22.68-68 22.68-68 22.68-68l10.29 5.14a112.25 112.25 0 00-18.8 62.83z"/><path d="M447.45 201a11.9 11.9 0 0111.86-11.86H483A11.9 11.9 0 01494.89 201" fill="#f4a03e"/><path class="cls-8" d="M423.54 272.13A35.69 35.69 0 01388 236.55v-94.89a35.68 35.68 0 0135.58-35.58h11.82v166.05z"/><path class="cls-9" d="M435.4 260.27a35.69 35.69 0 01-35.58-35.58v-71.17a35.68 35.68 0 0135.58-35.58"/><path class="cls-10" d="M388 206.89a17.8 17.8 0 0117.79 17.8h5.93V201H388z"/><path class="cls-10" d="M435.4 254.34a29.74 29.74 0 01-29.65-29.65v-71.17a29.74 29.74 0 0129.65-29.65"/><path class="cls-9" d="M471 177.24h-11.88a23.72 23.72 0 01-23.72-23.72V129.8a23.79 23.79 0 00-23.72 23.72v3a20.75 20.75 0 01-20.76 20.75h-3l-47.44-23.72s-11.86 13.35-11.86 35.58 11.86 35.59 11.86 35.59L388 201h3a20.76 20.76 0 0120.76 20.76v3a23.79 23.79 0 0023.72 23.72v-23.79A23.72 23.72 0 01459.12 201H471a12 12 0 001.48-.09v.09h10.38v-11.89A11.9 11.9 0 00471 177.24z"/><path class="cls-8" d="M352.19 189.1a59.71 59.71 0 016.19-26.65l-17.86-8.93s-11.86 13.35-11.86 35.58 11.86 35.59 11.86 35.59l17.86-8.94a59.63 59.63 0 01-6.19-26.65z"/><path class="cls-8" d="M357 212.82c.44 1.05.89 2 1.35 2.93l-6 3-11.86 5.93a39.27 39.27 0 01-4.07-5.93 56.57 56.57 0 01-3-5.94 57.59 57.59 0 01-2.18-5.93 58.93 58.93 0 01-1.5-5.93c-.37-1.87-.67-3.85-.87-5.93-.18-1.89-.28-3.87-.28-5.92a59.33 59.33 0 01.29-5.93 58.08 58.08 0 01.86-5.94 60.33 60.33 0 011.5-5.93 58.47 58.47 0 012.18-5.93 57.33 57.33 0 013-5.93 39.27 39.27 0 014.07-5.93l11.86 5.93 6 3c-.46.91-.91 1.89-1.35 2.93a57.59 57.59 0 00-2.18 5.93 60.33 60.33 0 00-1.5 5.93c-.37 1.88-.67 3.86-.87 5.94a59.33 59.33 0 00-.29 5.93q0 3.07.29 5.92c.2 2.07.5 4.06.87 5.93a59.51 59.51 0 003.68 11.87zM435.59 224.69V201h23.72a23.72 23.72 0 00-23.72 23.69z"/><circle class="cls-2" cx="471.17" cy="189.1" r="4.45"/><path class="cls-10" d="M459.31 200.97h-23.72v-22.24l23.72 22.24z"/><path class="cls-8" d="M352.38 159.45h-15.93a39.27 39.27 0 014.07-5.93z"/><path class="cls-10" d="M336.07 189.11A58.65 58.65 0 00345.9 222l-5.38 2.69s-11.86-13.35-11.86-35.58 11.86-35.59 11.86-35.59l5.38 2.69a58.72 58.72 0 00-9.83 32.9z"/><path d="M297.83 255.23v62.25H93.38v-2-.94-.42a1.62 1.62 0 000-.22v-.96c0-.88.07-1.76.13-2.62 0-.33 0-.67.06-1 .06-.85.13-1.69.2-2.52.06-.67.13-1.35.2-2v-.26c0-.28.07-.57.1-.86s.06-.57.1-.85c.06-.48.13-1 .19-1.42a.09.09 0 010-.05c.08-.62.17-1.25.27-1.86v-.07c0-.3.09-.59.14-.88v-.11-.13l.09-.51c0-.17.06-.36.1-.53s0-.11 0-.16l.06-.34c0-.12 0-.24.07-.36s.08-.45.13-.68l.09-.49v-.14-.27l.09-.43c0-.1 0-.21.07-.31l.06-.31c.1-.5.21-1 .32-1.49 0-.09 0-.19.07-.29l.12-.54.21-.94v-.11l.24-.93.24-1c0-.1 0-.19.07-.29s.07-.27.1-.4l.45-1.64v-.1c.12-.44.25-.87.38-1.3.06-.22.12-.43.19-.64s.13-.44.2-.66l.39-1.23.09-.3c.1-.33.21-.66.32-1v-.13c0-.04.07-.18.1-.28a2.25 2.25 0 01.08-.24l.09-.28c.07-.2.14-.38.2-.57l.3-.84c.15-.43.3-.85.46-1.27v-.06l.21-.55.29-.78.21-.52c.22-.56.44-1.12.67-1.68l.66-1.59c.17-.39.34-.78.52-1.17l.33-.73c0-.11.1-.22.14-.33s.16-.32.23-.49l.78-1.65.15-.29c.12-.26.25-.52.38-.78a1.63 1.63 0 00.11-.23l.09-.16.29-.59a2.1 2.1 0 00.15-.3l.64-.41c.1-.2.2-.4.31-.6v-.07l.08-.13.27-.51.09-.18c0-.07.07-.14.11-.2.17-.31.33-.62.5-.92l.51-.92c0-.08.09-.17.15-.25s.17-.32.26-.48.07-.11.1-.16v-.05a1.74 1.74 0 01.11-.18c.07-.13.15-.26.23-.39l.13-.24.07-.11.42-.7c.1-.17.21-.33.3-.49a1.91 1.91 0 00.16-.27l.61-1 .34-.53v-.05l.13-.2.28-.43.07-.11.33-.49.11-.16c.09-.13.17-.25.24-.37l.13-.18.13-.18.25-.36.3-.43.08-.12.21-.29v-.06l.26-.36a.59.59 0 00.08-.11l.17-.23.23-.31a.18.18 0 000-.07l.09-.12.21-.29.29-.38c.08-.09.15-.19.21-.27l.08-.11.11-.13.15-.19.09-.11.15-.18.06-.08.09-.12v-.06a.6.6 0 01.08-.08v-.06l10.29 5.14 11.18 5.59 1.19.6L149.5 267l56.55 28.28h5.68a39.53 39.53 0 0017-3.82v-42.01a68.23 68.23 0 0168-68v70.34c0 .33 0 .77.07 1.16s.05.77.1 1.15.88.75.93 1.13z" style="mix-blend-mode:soft-light" fill="#1c2600"/><rect class="cls-10" x="342.83" y="308.98" width="31.18" height="17.01" rx="8.5"/><path class="cls-2" d="M76.37 334.49l42.52 14.17-36.85 2.84"/><circle class="cls-2" cx="365.51" cy="317.48" r="8.5"/><path class="cls-6" d="M352.4 385.51c-1.38 7.4-2.26 19.08 2.84 31.18a48.32 48.32 0 002.83 5.67M351.33 394s-17 17-11.33 36.85"/><path class="cls-2" d="M79.21 272.13l39.68 19.84H82.04l-2.83-17.01"/></g></g></svg>