<svg xmlns="http://www.w3.org/2000/svg" viewBox="0 0 566.93 566.93"><defs><style>.cls-1{fill:#fff;}.cls-2{fill:#ffd1b8;}.cls-3{fill:#006464;}.cls-4{fill:#0f373c;}.cls-5{fill:#6e7832;}.cls-6{fill:#d8aa91;}.cls-7{fill:#d37e44;}.cls-8{fill:#b7b7b7;}.cls-9{fill:#ff8764;}.cls-10{fill:#919191;}.cls-11{fill:#af500e;}.cls-12,.cls-18,.cls-19{fill:none;}.cls-12{stroke:#1d1d1b;stroke-width:13px;}.cls-12,.cls-19{stroke-linecap:round;stroke-linejoin:round;}.cls-13{fill:#d25a3c;}.cls-14{fill:#324100;}.cls-15{fill:#f5a03c;}.cls-16{fill:#f27900;}.cls-17{fill:#b75300;}.cls-18,.cls-19{stroke:#324100;stroke-width:3px;}.cls-18{stroke-miterlimit:10;}.cls-20{fill:#727272;}.cls-21{fill:#1d1d1b;}</style></defs><g id="Tlo"><rect class="cls-1" width="566.93" height="566.93"/></g><g id="Ilustracja"><circle class="cls-2" cx="297.48" cy="249.45" r="158.74"/><path class="cls-3" d="M337.64,265.63c-9.59,21-27.47,33.48-39.93,27.8s-14.79-27.35-5.19-48.39c7.68-16.84,42.57-55,56.19-69.61a2.71,2.71,0,0,1,4.67,2.13C351.3,197.39,345.33,248.79,337.64,265.63Z"/><path class="cls-4" d="M337.85,263c3.51-7.69,6.66-22.59,9.24-38.4-18.74,10.33-38.84,22.72-45.85,31.71a48.63,48.63,0,0,0-10.43,28,16.3,16.3,0,0,0,7.1,6.49C310.37,296.44,328.25,284,337.85,263Z"/><path class="cls-5" d="M358.66,303.82c-13.48,17.31-36.42,22-51.24,10.43S291.51,279.32,305,262s81.75-49.6,81.75-49.6S372.14,286.52,358.66,303.82Z"/><ellipse class="cls-6" cx="300.31" cy="453.54" rx="181.42" ry="8.5"/><rect class="cls-7" x="400.88" y="265.4" width="13.84" height="109" transform="translate(899.73 483.11) rotate(160.24)"/><path class="cls-8" d="M412.58,420.21l-6.78-18.88a8.82,8.82,0,0,1,3-10.13,22.5,22.5,0,0,0,8-25.82l13-4.68a22.48,22.48,0,0,0,22.58,14.85,8.83,8.83,0,0,1,8.77,5.89l6.78,18.88s14,39.08-13.64,49S412.58,420.21,412.58,420.21Z"/><path class="cls-9" d="M383.11,271.61,387,282.34l13-4.68-3.86-10.73a24.3,24.3,0,0,0,8.44-27.68l-2.92-8.14a12.11,12.11,0,0,0-15.49-7.31L363.36,232a12.11,12.11,0,0,0-7.3,15.49l2.92,8.14A24.32,24.32,0,0,0,383.11,271.61Zm-15.66-28.22,22.8-8.19,2.93,8.14a11.74,11.74,0,0,1,.68,3.42A12.11,12.11,0,0,1,372,254.6a11.74,11.74,0,0,1-1.64-3.07Z"/><path class="cls-10" d="M429.81,360.71l9.94,27.68a6.94,6.94,0,0,1-4.17,8.85h0a6.94,6.94,0,0,1-8.85-4.18l-10-27.68Z"/><path class="cls-10" d="M454.29,449.34h0c27.68-9.94,13.64-49,13.64-49l-6.78-18.88a8.83,8.83,0,0,0-8.77-5.89,22.46,22.46,0,0,1-22.58-14.85L423.3,363Z"/><rect class="cls-11" x="415.21" y="356.33" width="13.84" height="6.92" transform="translate(941.03 555.7) rotate(160.24)"/><rect class="cls-11" x="387.72" y="279.8" width="13.84" height="6.92" transform="translate(861.8 416.44) rotate(160.24)"/><path class="cls-12" d="M288.49,402.52a30.26,30.26,0,0,1-28.87-21.16L239,316a30.29,30.29,0,0,0-28.88-21.17H186.93"/><path class="cls-13" d="M181.26,286.3h25.51a0,0,0,0,1,0,0v17a0,0,0,0,1,0,0H181.26a8.5,8.5,0,0,1-8.5-8.5v0A8.5,8.5,0,0,1,181.26,286.3Z"/><path class="cls-5" d="M218.11,334.49a79.37,79.37,0,0,1,158.74,0Z"/><path class="cls-14" d="M376.85,334.49a79.38,79.38,0,0,0-107.72-74.14,79.47,79.47,0,0,1,31.52,22A9.61,9.61,0,0,1,296,297.94l-76.54,21.87a79.76,79.76,0,0,0-1.38,14.68H376.85Z"/><path class="cls-15" d="M334.33,294.8,293.64,396.52,289,408.18H212.67A36,36,0,0,1,196,401.42l-20.43-61.27,5.91-1.69Z"/><path class="cls-11" d="M389.65,289.3h-.27L399.33,317l3.37-8.42a14.06,14.06,0,0,0-13.05-19.27Z"/><path class="cls-16" d="M389.73,294.8a8.55,8.55,0,0,1,7.94,11.73l-18,45L357,408.19H289L334.33,294.8Z"/><path class="cls-17" d="M380.81,348.68l-.42,0H350.63C326,348.66,306,375.31,306,408.19h51Z"/><path class="cls-16" d="M217.63,389a16.74,16.74,0,0,1-16-11.73l-12.91-40.89-7.21,2.06-5.91,1.69L196,401.43a36,36,0,0,0,16.65,6.76h90.48V389Z"/><path class="cls-12" d="M334.33,402.52H217.63a30.27,30.27,0,0,1-28.88-21.16L168.1,316a30.28,30.28,0,0,0-28.87-21.17H116.06"/><polyline class="cls-12" points="181.26 357.17 209.61 447.87 263.46 402.52"/><path class="cls-13" d="M113.23,286.3h25.51a0,0,0,0,1,0,0v17a0,0,0,0,1,0,0H113.23a8.5,8.5,0,0,1-8.5-8.5v0A8.5,8.5,0,0,1,113.23,286.3Z"/><path class="cls-18" d="M240.79,340.16a28.34,28.34,0,0,1,28.34-28.35"/><path class="cls-19" d="M301.73,204.09h0a10,10,0,0,1-9.92-9.92v-8.5"/><path class="cls-5" d="M303.15,181.42a11.34,11.34,0,0,1-22.68,0c0-6.26,11.34-25.51,11.34-25.51S303.15,175.16,303.15,181.42Z"/><path class="cls-14" d="M291.81,155.91s11.34,19.25,11.34,25.51a11.34,11.34,0,0,1-11.34,11.34Z"/><path class="cls-19" d="M220.63,179.62h0A9.94,9.94,0,0,1,233.47,174l7.93,3.09"/><path class="cls-5" d="M241.25,189.17A11.34,11.34,0,1,1,249.47,168c5.84,2.28,19.66,19.83,19.66,19.83S247.08,191.44,241.25,189.17Z"/><path class="cls-14" d="M269.13,187.86s-22,3.58-27.88,1.31a11.35,11.35,0,0,1-6.46-14.68Z"/><path class="cls-19" d="M205.75,100.88h0a9.94,9.94,0,0,1,13.76,2.73l4.73,7.07"/><path class="cls-9" d="M217.18,120.52A11.34,11.34,0,1,1,236,107.91c3.48,5.2,4.76,27.51,4.76,27.51S220.66,125.72,217.18,120.52Z"/><path class="cls-13" d="M240.79,135.42s-20.13-9.7-23.61-14.9a11.34,11.34,0,0,1,3.12-15.73Z"/><path class="cls-5" d="M229.45,345.83a11.34,11.34,0,0,1,22.68,0c0,6.26-11.34,25.51-11.34,25.51S229.45,352.09,229.45,345.83Z"/><path class="cls-14" d="M240.79,371.34s-11.34-19.25-11.34-25.51a11.34,11.34,0,0,1,11.34-11.34Z"/><path class="cls-5" d="M256.87,340.78a11.34,11.34,0,1,1,18.86-12.58c3.48,5.21,4.72,27.52,4.72,27.52S260.34,346,256.87,340.78Z"/><path class="cls-14" d="M280.45,355.72s-20.11-9.73-23.58-14.94A11.33,11.33,0,0,1,260,325.06Z"/><path class="cls-20" d="M412.35,387.82a21.67,21.67,0,0,1-3.7,3.38,8.82,8.82,0,0,0-3,10.13l6.78,18.88s.48,1.31,1.41,3.39a63.34,63.34,0,0,0,1.88-15.41A62.51,62.51,0,0,0,412.35,387.82Z"/><path class="cls-21" d="M376.85,362.83H354.17v90.71h22.68c18.79,0,34-20.3,34-45.35S395.64,362.83,376.85,362.83Z"/><ellipse class="cls-21" cx="354.17" cy="408.19" rx="34.02" ry="45.35"/><ellipse class="cls-9" cx="354.17" cy="408.19" rx="19.13" ry="25.51"/><path class="cls-13" d="M353.46,433.7a14.74,14.74,0,0,0,5.32-1c-8-3.08-13.82-12.88-13.82-24.51s5.84-21.44,13.82-24.51a14.74,14.74,0,0,0-5.32-1c-10.56,0-19.13,11.42-19.13,25.51S342.9,433.7,353.46,433.7Z"/><polygon class="cls-2" points="311.65 178.58 328.66 218.27 308.82 204.09 322.99 232.44 297.48 215.43 311.65 178.58"/><path class="cls-5" d="M182.56,383.42c19.67,32,27,63.28,16.29,69.83s-35.27-14.08-54.94-46.09-16.29-69.84-16.29-69.84S162.89,351.4,182.56,383.42Z"/><path class="cls-14" d="M127.62,337.32l71.23,115.93c10.67-6.55,3.38-37.82-16.29-69.83S127.62,337.32,127.62,337.32Z"/><path class="cls-19" d="M82.05,380.28c12.43-7.06,22.22-6.45,27-5.63,22.77,3.89,42.21,30.92,46.68,67.55"/><path class="cls-19" d="M82.05,345.83c45.35,0,61.48,40,65.19,65.19,1.33,9,8.33,15.42,11.34,22.68"/><path class="cls-15" d="M157.31,414.22c17.63,15.47,27.74,32.78,22.58,38.65s-23.62-1.9-41.25-17.37-22.58-38.65-22.58-38.65S139.69,398.75,157.31,414.22Z"/><path class="cls-16" d="M116.06,396.85l63.83,56c5.16-5.87-4.95-23.18-22.58-38.65S116.06,396.85,116.06,396.85Z"/><polygon class="cls-1" points="158.58 337.32 144.41 362.83 161.42 348.66 167.09 360 158.58 379.84 172.76 365.67 167.09 345.83 158.58 337.32"/><polygon class="cls-1" points="113.23 430.87 138.74 419.53 124.57 436.54 144.41 433.7 138.74 439.37 116.06 445.04 113.23 430.87"/><path class="cls-3" d="M255.82,257.16h0a2.83,2.83,0,0,1-2.65-3l1.4-23.08a2.83,2.83,0,0,0-1.75-2.79c-1.29-.54-2.62-1.07-4-1.59a2.82,2.82,0,0,0-3.82,2.47l-.64,10.46a2.82,2.82,0,0,1-3,2.65h0a2.83,2.83,0,0,1-2.65-3l.83-13.72a2.81,2.81,0,0,0-1.92-2.85c-.89-.3-1.79-.59-2.68-.87a2.81,2.81,0,0,0-3.67,2.51l-.19,3.14a2.81,2.81,0,0,1-3,2.64h0a2.81,2.81,0,0,1-2.64-3l.35-5.83a2.81,2.81,0,0,0-2-2.88c-4.34-1.25-8.07-2.25-10.69-2.93a2.81,2.81,0,0,0-3.5,3.1c.36,2.68.91,6.5,1.62,11a2.82,2.82,0,0,0,2.62,2.36l5.83.36a2.81,2.81,0,0,1,2.64,3h0a2.82,2.82,0,0,1-3,2.65l-3.14-.19a2.82,2.82,0,0,0-2.94,3.34l.54,2.77a2.83,2.83,0,0,0,2.6,2.25l13.72.83a2.82,2.82,0,0,1,2.65,3h0a2.83,2.83,0,0,1-3,2.65l-10.46-.64a2.83,2.83,0,0,0-2.91,3.5c.35,1.4.72,2.79,1.1,4.14a2.82,2.82,0,0,0,2.55,2.07l23.09,1.4a2.81,2.81,0,0,1,2.64,3h0a2.82,2.82,0,0,1-3,2.65l-18.48-1.12a2.83,2.83,0,0,0-2.75,4,28.39,28.39,0,0,0,4.26,7.3c10.68,12.05,29.42,12.88,41.86,1.86s13.87-29.72,3.2-41.77a28.18,28.18,0,0,0-6.74-5.12,2.83,2.83,0,0,0-4.26,2.26l-1.11,18.47A2.83,2.83,0,0,1,255.82,257.16Z"/><path class="cls-4" d="M264.18,233.78a2.82,2.82,0,0,0-4.25,2.26l-1.12,18.47a2.83,2.83,0,1,1-5.64-.34l1.4-23.08a2.83,2.83,0,0,0-1.75-2.79c-1.29-.54-2.62-1.07-4-1.59a2.82,2.82,0,0,0-3.82,2.47l-.64,10.46a2.82,2.82,0,1,1-5.63-.34l.83-13.72a2.81,2.81,0,0,0-1.92-2.85c-.89-.3-1.79-.59-2.68-.87a2.81,2.81,0,0,0-3.67,2.51l-.19,3.14a2.82,2.82,0,0,1-5.63-.34l.35-5.83a2.81,2.81,0,0,0-2-2.88c-4.34-1.25-8.07-2.25-10.69-2.93a2.75,2.75,0,0,0-2.57.61l57.16,64.53c12.44-11,13.87-29.72,3.2-41.77A28.18,28.18,0,0,0,264.18,233.78Z"/></g></svg>