<svg id="Ilustracja" xmlns="http://www.w3.org/2000/svg" viewBox="0 0 566.93 566.93"><defs><style>.cls-1,.cls-19,.cls-4,.cls-9{fill:none;}.cls-1,.cls-4,.cls-9{stroke:#333f00;}.cls-1,.cls-4{stroke-linecap:round;}.cls-1{stroke-linejoin:round;}.cls-1,.cls-19{stroke-width:4.26px;}.cls-2{fill:#6e7832;}.cls-3{fill:#324100;}.cls-19,.cls-4,.cls-9{stroke-miterlimit:10;}.cls-4,.cls-9{stroke-width:5.68px;}.cls-5{fill:#ff8764;}.cls-6{fill:#d25a3c;}.cls-7{fill:#e2ab93;}.cls-8{fill:#c6856d;}.cls-10{fill:#006464;}.cls-11{fill:#0f373c;}.cls-12{fill:#001e1d;}.cls-13{fill:#ffd1b8;}.cls-14{fill:#e5ac93;}.cls-15{fill:#a87462;}.cls-16{fill:#8e503f;}.cls-17{fill:#f5a03c;}.cls-18{fill:#d17820;}.cls-19{stroke:#001e1d;}</style></defs><path class="cls-1" d="M407.54,327.39c10.62-20.12,31.88-44.28,53.13-36.22s14.17,28.17,14.17,28.17"/><path class="cls-1" d="M192.29,317.7c-13.26-14.17-30.44-22.09-44.14-19.63a25.46,25.46,0,0,0-10.93,4.77"/><path class="cls-2" d="M126.44,283.35l-18,23c-4.62,5.92-1.46,13,6,13.46l29.2,1.9A13.46,13.46,0,0,0,156.07,315l.84-1.61c2.57-4.94.28-10.07-5.12-11.44h0c-5.4-1.37-7.7-6.49-5.13-11.44h0c2.57-4.94.28-10.06-5.12-11.44l-1.77-.45A13.45,13.45,0,0,0,126.44,283.35Z"/><path class="cls-3" d="M151.77,301.92c5.4,1.37,7.7,6.49,5.13,11.44l-.84,1.61a13.44,13.44,0,0,1-12.43,6.78l-29.19-1.89c-3.75-.24-6.42-2.13-7.57-4.69l39.35-17.63A8,8,0,0,0,151.77,301.92Z"/><line class="cls-4" x1="218.35" y1="108.44" x2="218.35" y2="253.35"/><rect class="cls-5" x="186.14" y="40.01" width="64.41" height="128.81" rx="32.2"/><path class="cls-6" d="M218.35,40h0a31.88,31.88,0,0,0-8,1,32.34,32.34,0,0,1,24.15,31.18v64.4a32.34,32.34,0,0,1-24.15,31.18,31.89,31.89,0,0,0,8,1h0a32.3,32.3,0,0,0,32.2-32.21V72.21A32.29,32.29,0,0,0,218.35,40Z"/><path class="cls-6" d="M248,149.37c.41-1,.77-1.94,1.09-3a32.1,32.1,0,0,0,1.45-9.55V72.47a32,32,0,0,0-1.45-9.55c-.32-1-.68-2-1.09-3-.21-.48-.42-1-.65-1.42-.4-.84-.85-1.64-1.32-2.43a50.86,50.86,0,0,0-11.48,80.41,51,51,0,0,0-1.21,28.81,32.59,32.59,0,0,0,14-14.53C247.59,150.33,247.8,149.86,248,149.37Z"/><path class="cls-4" d="M439.74,56.11c-44.28,48.3-4,84.53-44.28,140.88"/><path class="cls-7" d="M441.38,414.36l64.4-76.48s-28.17-8.05-56.35,20.13c-22.14,22.13-66,56.47-66,56.47Z"/><path class="cls-8" d="M500.94,336.92l-65.22,77.46,7.37,0,64.4-76.48A34.71,34.71,0,0,0,500.94,336.92Z"/><path class="cls-4" d="M145.39,104.41c7.68,5.07,47.59,47,52.42,106.35.5,6.09.59,43.23,0,50.64"/><path class="cls-7" d="M421.19,389.31l38.68-79.61s-28.18-8.05-40.26,20.13L407.54,358l-52.75,49,44.27,8.86Z"/><path class="cls-1" d="M230.42,337.88C208.88,320.68,184,308.81,170,313.73c-7.16,2.52-14.65,13.7-11.3,20.13"/><path class="cls-5" d="M411.56,152.72c0,35.57-14.41,64.4-32.2,64.4s-32.2-28.83-32.2-64.4,32.2-64.41,32.2-64.41S411.56,117.14,411.56,152.72Z"/><path class="cls-6" d="M379.36,88.31A106.08,106.08,0,0,0,369.3,99.16c9.45,11.55,22.14,31.22,22.14,53.56,0,28.53-9.29,52.72-22.14,61.18a18.17,18.17,0,0,0,10.06,3.22c17.79,0,32.2-28.83,32.2-64.4S379.36,88.31,379.36,88.31Z"/><rect class="cls-6" x="367.28" y="152.72" width="44.28" height="16.1" rx="8.05"/><rect class="cls-5" x="355.21" y="136.61" width="44.28" height="16.1" rx="8.05"/><rect class="cls-6" x="375.34" y="124.54" width="32.2" height="12.08" rx="6.04"/><path class="cls-9" d="M426.4,261.09c1.15,6.09,4.64,28.56-8.91,49.65a64.61,64.61,0,0,1-19.1,19.09"/><path class="cls-10" d="M473.89,187a48.31,48.31,0,0,0-92.45,0,48.31,48.31,0,1,0,46.22,82.23A48.31,48.31,0,1,0,473.89,187Z"/><path class="cls-11" d="M473.89,187a48.32,48.32,0,0,0-64.34-30.75A48.44,48.44,0,0,1,437.67,187a48.31,48.31,0,0,1,4.08,91,48.31,48.31,0,1,0,32.14-91Z"/><path class="cls-12" d="M422.21,246.82v26.61a48.29,48.29,0,0,1-67-67H402Z"/><rect class="cls-13" x="282.75" y="249.32" width="96.61" height="67.21"/><polygon class="cls-7" points="411.56 345.93 379.36 345.93 379.36 249.32 395.46 217.12 411.56 249.32 411.56 345.93"/><polygon class="cls-6" points="395.46 217.12 298.85 217.12 282.75 249.32 379.36 249.32 395.46 217.12"/><path class="cls-14" d="M379.36,301.12v15.41H282.75V271.92a122.51,122.51,0,0,1,96.61,29.2Z"/><rect class="cls-11" x="359.23" y="313.73" width="52.33" height="36.23"/><rect class="cls-10" x="137.84" y="329.83" width="144.91" height="124.79" rx="62.39"/><path class="cls-11" d="M158,392.22h0a62.57,62.57,0,0,1,62.39-62.39H200.23a62.58,62.58,0,0,0-62.39,62.39h0a62.58,62.58,0,0,0,62.39,62.4h20.13A62.57,62.57,0,0,1,158,392.22Z"/><path class="cls-2" d="M179.81,260.25C201,294.79,239.08,310,239.08,310s3.64-40.8-17.58-75.33-59.27-49.72-59.27-49.72S158.59,225.72,179.81,260.25Z"/><path class="cls-3" d="M162.23,184.92s38.05,15.18,59.27,49.72S239.08,310,239.08,310Z"/><rect class="cls-15" x="298.85" y="265.42" width="16.1" height="24.15"/><rect class="cls-16" x="298.85" y="265.42" width="8.05" height="24.15"/><path class="cls-10" d="M476,410.34A48.45,48.45,0,0,0,427.66,362H406.82c-13.94-46.42-57.16-80.5-108-80.5h0c-62,0-112.71,50.71-112.71,112.71v28.17H476Z"/><path class="cls-11" d="M427.66,362H406.82c-13.94-46.42-57.16-80.5-108-80.5a113,113,0,0,0-14,.9A113.33,113.33,0,0,1,378.64,362h20.85a48.45,48.45,0,0,1,48.3,48.31v12.07H476V410.34A48.45,48.45,0,0,0,427.66,362Z"/><path class="cls-2" d="M162,269.45,153.53,280a129,129,0,0,0,16.28,13.69l16.33-8.17L178.06,299c30.67,17.89,64,17.82,64,17.82s-16-30.31-47-49-65.28-18.56-65.28-18.56a137.71,137.71,0,0,0,19,25.8Z"/><path class="cls-3" d="M129.79,249.32s34.27-.08,65.28,18.56,47,49,47,49Z"/><path class="cls-10" d="M393.47,338.61c-16.9,20.64-18.13,47.57-18.13,47.57s26.15-6.53,43.05-27.18,18.14-47.57,18.14-47.57S410.37,318,393.47,338.61Z"/><path class="cls-11" d="M436.53,311.43s-1.24,26.93-18.14,47.57-43.05,27.18-43.05,27.18Z"/><rect class="cls-15" x="347.16" y="265.42" width="16.1" height="24.15"/><path class="cls-9" d="M210.3,156.74c9.44,4,58.46,37.34,64.4,84.53.61,4.84.72,34.37,0,40.26"/><path class="cls-9" d="M286.89,152.72a302.14,302.14,0,0,0-12.08,76.48c-.15,5.5-.14,10.87,0,16.1"/><path class="cls-2" d="M323,80.26a40.15,40.15,0,0,0-15.8,3.22,40.25,40.25,0,1,0-59.71,49.81,40.25,40.25,0,1,0,74.7,27.46l.81,0a40.26,40.26,0,0,0,0-80.51Z"/><path class="cls-3" d="M363.26,120.52A40.25,40.25,0,0,1,323,160.76h-.8a40.28,40.28,0,0,1-55.55,28.87A40.37,40.37,0,0,0,290,160.75h.81a40.25,40.25,0,1,0-12-78.68c-1.31.41-2.58.88-3.82,1.4a40.31,40.31,0,0,0-20.45-20,40.38,40.38,0,0,1,33,.33A28.15,28.15,0,0,1,335,82.06,40.29,40.29,0,0,1,363.26,120.52Z"/><rect class="cls-3" x="266.63" y="160.77" width="44.28" height="12.08" rx="6.04"/><path class="cls-2" d="M238.47,144.66a16.07,16.07,0,0,0-9,2.73A16.09,16.09,0,1,0,206,166.5a16.1,16.1,0,1,0,28.41,10.37c0-.18,0-.36,0-.54a16.1,16.1,0,1,0,4.05-31.67Z"/><path class="cls-3" d="M213.4,147.39a16.06,16.06,0,0,1,15.58-1.3,16,16,0,0,0-22.71-7.3A16.15,16.15,0,0,1,213.4,147.39Z"/><path class="cls-3" d="M238.47,144.66a16,16,0,0,0-8.06,2.17,16.07,16.07,0,0,1-12.09,29.5c0,.18,0,.36,0,.54a16.11,16.11,0,0,1-8,13.93,16.08,16.08,0,0,0,24.15-13.93c0-.18,0-.36,0-.54a16.09,16.09,0,1,0,4.05-31.67Z"/><path class="cls-1" d="M192.94,276.28c1.25-31-35.42-91.86-67.13-62.61-8.1,7.48-5.91,18.78,1.32,23.44,5.89,3.79,16.12,3.93,18.18-8.63"/><path class="cls-12" d="M339.11,358s-60.11,20.9,15.68,36.23l30.61,8.05,66.08-16.11L458.86,398l-69.44,17.83L258.6,391.54,270.92,373Z"/><rect class="cls-11" x="234.45" y="301.65" width="60.38" height="12.08" rx="6.04"/><path class="cls-10" d="M116.27,195.33a12.07,12.07,0,1,1-13,20.38c-5.63-3.57-13.91-23.14-13.91-23.14S110.64,191.75,116.27,195.33Z"/><path class="cls-11" d="M89.41,192.57s8.28,19.57,13.91,23.14A12.08,12.08,0,0,0,120,212Z"/><path class="cls-5" d="M125,151a12.08,12.08,0,0,1,17.57,16.57c-4.58,4.85-25.36,9.29-25.36,9.29S120.45,155.86,125,151Z"/><path class="cls-6" d="M117.24,176.87s20.78-4.44,25.36-9.29a12.07,12.07,0,0,0-.5-17.07Z"/><path class="cls-10" d="M100.41,210.26A12.07,12.07,0,1,1,110.86,232c-6,2.89-27-.43-27-.43S94.4,213.15,100.41,210.26Z"/><path class="cls-11" d="M83.86,231.6s21,3.32,27,.43a12.07,12.07,0,0,0,5.66-16.11Z"/><path class="cls-4" d="M137.84,140.64c3.86,0,34.75.44,49.73,28.18a63.28,63.28,0,0,1,6.62,20.12"/><circle class="cls-17" cx="379.36" cy="313.73" r="12.08"/><circle class="cls-17" cx="484.02" cy="293.6" r="12.08"/><path class="cls-4" d="M415.85,144.66C418.46,139.26,429,119,447.93,118a30.5,30.5,0,0,1,11.8,1.82"/><rect class="cls-16" x="347.16" y="265.42" width="8.05" height="24.15"/><rect class="cls-16" x="282.75" y="249.32" width="96.61" height="4.03"/><path class="cls-17" d="M266.37,253.48a31.71,31.71,0,0,0,.28-4.16,32.2,32.2,0,0,0-64.4,0,33.54,33.54,0,0,0,.27,4.16,32.2,32.2,0,1,0,31.93,55.93,32.2,32.2,0,1,0,31.92-55.93Z"/><path class="cls-18" d="M266.37,253.48a31.71,31.71,0,0,0,.28-4.16,32.2,32.2,0,0,0-32.2-32.2v8h-6a6,6,0,1,0,0,12.08H242.5a8,8,0,1,1,0,16.1H230.42a8.07,8.07,0,0,0-8,8h0a8.07,8.07,0,0,0,8,8.05h4v40a32.2,32.2,0,1,0,31.92-55.93Z"/><path class="cls-10" d="M238.07,311a24.15,24.15,0,1,0-47.68-5.58,23.65,23.65,0,0,0,.54,5.22,24.14,24.14,0,1,0,23.25,41.11A24.14,24.14,0,1,0,238.07,311Z"/><path class="cls-11" d="M238.07,311a24.12,24.12,0,0,0-33.43-27.41,24.14,24.14,0,0,1,13.92,22,23.58,23.58,0,0,1-.62,5.21,24.13,24.13,0,0,1,2.27,44.9,23.86,23.86,0,0,0,10,2.31A24.15,24.15,0,0,0,238.07,311Z"/><rect class="cls-11" x="206.27" y="309.7" width="24.15" height="8.05" rx="4.03"/><path class="cls-13" d="M540.37,406.31,322.59,476.1,203.07,486.82s-69.26,8.05-92.92,75.81c-30-21.72-60-41.23-81-71.79,76.48-48.3,102.83-121.79,173.91-138.7,35.51-8.45,115-27.48,128-30.36,36.22-8,43.48,23,8.05,36.23s-72.46,28.17-72.46,28.17l120.76,24.16S522.67,366.46,540.37,406.31Z"/><path class="cls-7" d="M516.91,391.94,302.46,460.66,182.94,471.38S113.69,479.43,90,547.2c-10-7.24,3,3.68,20.13,16.1,23.66-67.77,92.92-75.82,92.92-75.82l119.52-10.72L540.37,407C536.75,398.83,528.21,394.18,516.91,391.94Z"/><rect class="cls-11" x="415.59" y="176.87" width="40.25" height="12.08" rx="6.04"/><rect class="cls-11" x="443.77" y="201.02" width="40.25" height="12.08" rx="6.04"/><rect class="cls-10" x="423.64" y="188.94" width="40.25" height="12.08" rx="6.04"/><rect class="cls-7" x="371.31" y="269.45" width="20.13" height="8.05"/><rect class="cls-7" x="367.28" y="281.53" width="16.1" height="8.05"/><path class="cls-10" d="M466.54,37a24.62,24.62,0,0,0,2.29-4.73,24.15,24.15,0,0,0-45.52-16.17,24.59,24.59,0,0,0-1.2,5.11,24.15,24.15,0,1,0,8.52,46.46A24.14,24.14,0,1,0,466.54,37Z"/><path class="cls-11" d="M466.54,37a24.62,24.62,0,0,0,2.29-4.73A24.11,24.11,0,0,0,443.93.12a24.08,24.08,0,0,1,3.64,30.11A24.13,24.13,0,0,1,435,73.4a24.1,24.1,0,0,0,39.57-9.21A24.16,24.16,0,0,0,466.54,37Z"/><rect class="cls-11" x="435.72" y="27.93" width="24.15" height="8.05" rx="4.03"/><rect class="cls-11" x="443.77" y="44.03" width="24.15" height="8.05" rx="4.03"/><rect class="cls-10" x="435.72" y="35.98" width="24.15" height="8.05" rx="4.03"/><path class="cls-10" d="M492.07,92.33h-4.19a14.07,14.07,0,0,0-27.85,0h-.16a12.12,12.12,0,0,0-12.08,12.08v4a12.08,12.08,0,0,0,0,24.15H480a12.11,12.11,0,0,0,12.08-12.08v-4a12.08,12.08,0,0,0,0-24.16Z"/><path class="cls-11" d="M492.07,92.33h-4.19A14.12,14.12,0,0,0,474,80.26a13.9,13.9,0,0,0-8,2.56,14.17,14.17,0,0,1,5.87,9.51H476a12.08,12.08,0,0,1,0,24.16v4a12.12,12.12,0,0,1-12.08,12.08H480a12.11,12.11,0,0,0,12.08-12.08v-4a12.08,12.08,0,0,0,0-24.16Z"/><rect class="cls-11" x="459.87" y="116.49" width="24.15" height="8.05" rx="4.03"/><rect class="cls-11" x="463.89" y="92.33" width="28.18" height="8.05" rx="4.03"/><path class="cls-10" d="M115.59,132.78a12.07,12.07,0,0,1,4.25,23.77c-6.57,1.18-25.9-7.63-25.9-7.63S109,134,115.59,132.78Z"/><path class="cls-11" d="M93.94,148.92s19.33,8.81,25.9,7.63a12.07,12.07,0,0,0,9.76-14Z"/><path class="cls-10" d="M440.39,308.39a12.08,12.08,0,0,1,20-13.48c3.72,5.54,3.46,26.78,3.46,26.78S444.11,313.93,440.39,308.39Z"/><path class="cls-11" d="M463.89,321.69s.26-21.24-3.46-26.78a12.08,12.08,0,0,0-16.76-3.28Z"/><circle class="cls-5" cx="323.01" cy="164.79" r="8.05"/><path class="cls-6" d="M323,156.74a8.41,8.41,0,0,0-2,.26,8,8,0,0,1,0,15.58,8.41,8.41,0,0,0,2,.26,8,8,0,1,0,0-16.1Z"/><circle class="cls-5" cx="238.47" cy="184.92" r="8.05"/><path class="cls-6" d="M238.47,176.87a7.91,7.91,0,0,0-2,.26,8,8,0,0,1,0,15.57,7.92,7.92,0,0,0,2,.27,8,8,0,1,0,0-16.1Z"/><circle class="cls-5" cx="294.83" cy="188.94" r="8.05"/><path class="cls-6" d="M294.83,180.89a7.8,7.8,0,0,0-2,.27,8,8,0,0,1,0,15.57,7.8,7.8,0,0,0,2,.26,8.05,8.05,0,0,0,0-16.1Z"/><path class="cls-3" d="M274.7,120.52a12.09,12.09,0,0,1-12.07,12.07h-16.1c-.54-.4-1.07-.83-1.59-1.25s-.78-.67-1.17-1l0,0c-.41-.37-.81-.74-1.19-1.13s-.94-.93-1.39-1.42-.81-.89-1.2-1.34-.61-.73-.89-1.1c-.16-.2-.33-.41-.47-.61s-.5-.65-.72-1c-.12-.15-.22-.3-.33-.45-.29-.4-.55-.83-.82-1.24s-.64-1-1-1.56-.46-.84-.69-1.26c-.4-.76-.77-1.52-1.12-2.3-.2-.46-.4-.9-.59-1.37s-.45-1.13-.65-1.72-.4-1.16-.58-1.76-.34-1.19-.5-1.79a.1.1,0,0,0,0,0c-.14-.59-.27-1.19-.4-1.8h0a40.23,40.23,0,0,1,1.25-20.82,32.22,32.22,0,0,0,30.13,20.82h0A12.11,12.11,0,0,1,274.7,120.52Z"/><path class="cls-7" d="M363.37,457.68a53.77,53.77,0,0,0-32.87-21.91,54.66,54.66,0,0,0-15.91-1.12,53.25,53.25,0,0,0-10.15,1.77c-.83.23-1.65.47-2.47.74a54.65,54.65,0,0,0-7,2.87q-2.25,1.11-4.43,2.46a51.89,51.89,0,0,0-14.78,13.69,50.23,50.23,0,0,0-4.05,6.59c-.8,1.56-1.52,3.16-2.15,4.76a51.52,51.52,0,0,0-2.31,7.65,35.18,35.18,0,0,0-.56,3.66L309.29,475Z"/><polygon class="cls-6" points="367.28 217.12 331.06 217.12 331.06 196.99 351.18 196.99 367.28 217.12"/><polygon class="cls-13" points="347.16 217.12 331.06 196.99 314.95 217.12 314.95 249.32 347.16 249.32 347.16 217.12"/><polygon class="cls-7" points="367.28 217.12 347.16 217.12 347.16 249.32 367.28 217.12"/><rect class="cls-16" x="314.96" y="217.12" width="32.2" height="4.03"/><path class="cls-15" d="M323,249.32V237.25a8.07,8.07,0,0,1,8.05-8.05h0a8.08,8.08,0,0,1,8.05,8.05v12.07Z"/><path class="cls-16" d="M335.08,230.29a8,8,0,0,0-4-1.09,8.07,8.07,0,0,0-8.05,8.05v12.07h8.05V237.25A8.06,8.06,0,0,1,335.08,230.29Z"/><rect class="cls-7" x="314.96" y="221.15" width="36.23" height="4.03"/><rect class="cls-7" x="282.75" y="253.35" width="100.63" height="4.03"/><path class="cls-19" d="M298.85,390.21c14.24,3.07,46,12.06,72.46,40.25a133.68,133.68,0,0,1,24.15,36.23"/><path class="cls-19" d="M318.94,390.21c4.54,4,23.2,21.4,24.15,48.3a62.38,62.38,0,0,1-4,24.16"/><path class="cls-2" d="M403.51,482.79l13.94-5.57c.54-3.56.95-7.12,1.15-10.53H399.49l19.15-8.21a27.27,27.27,0,0,0-2.1-9.56,32.2,32.2,0,1,0-58.24,27.5c7.59,16.09,51.46,33.57,51.46,33.57a252.42,252.42,0,0,0,6.76-27.2Z"/><path class="cls-3" d="M409.76,510l-36.09-76.44a32.21,32.21,0,0,0-15.37,42.87C365.89,492.51,409.76,510,409.76,510Z"/><path class="cls-10" d="M324.49,480.58h0a4,4,0,0,1-1.21,5.54l-27.66,17.71a4,4,0,0,0-1.73,4.33c.47,1.94,1,3.91,1.5,5.89a4,4,0,0,0,6,2.33l12.54-8a4,4,0,0,1,5.53,1.21h0a4,4,0,0,1-1.21,5.54l-16.45,10.53a4,4,0,0,0-1.66,4.58c.41,1.28.83,2.55,1.24,3.81a4,4,0,0,0,6,2.1l3.75-2.4a4,4,0,0,1,5.53,1.21h0a4,4,0,0,1-1.21,5.54l-7,4.47a4,4,0,0,0-1.61,4.74c2.19,6,4.17,11.14,5.58,14.71a4,4,0,0,0,6.49,1.43c2.77-2.66,6.71-6.48,11.22-11a4,4,0,0,0,.52-5l-4.47-7a4,4,0,0,1,1.21-5.53h0A4,4,0,0,1,333,538.5l2.4,3.76a4,4,0,0,0,6.3.58l2.72-2.94a4,4,0,0,0,.41-4.86L334.25,518.6a4,4,0,0,1,1.21-5.54h0a4,4,0,0,1,5.53,1.22l8,12.53a4,4,0,0,0,6.45.41q2-2.37,3.83-4.72a4,4,0,0,0,.24-4.66l-17.71-27.66a4,4,0,0,1,1.21-5.53h0a4,4,0,0,1,5.53,1.21L362.75,508a4,4,0,0,0,6.84-.14,40,40,0,0,0,4.81-11c4.89-22.33-9.83-44.53-32.88-49.59s-45.71,9-50.61,31.29a40,40,0,0,0-.23,12,4,4,0,0,0,6.15,3L319,479.37A4,4,0,0,1,324.49,480.58Z"/><path class="cls-11" d="M290.68,490.55a4,4,0,0,0,6.15,3L319,479.37a4,4,0,0,1,4.32,6.75l-27.66,17.71a4,4,0,0,0-1.73,4.33c.47,1.94,1,3.91,1.5,5.89a4,4,0,0,0,6,2.33l12.54-8a4,4,0,0,1,4.32,6.75l-16.45,10.53a4,4,0,0,0-1.66,4.58c.41,1.28.83,2.55,1.24,3.81a4,4,0,0,0,6,2.1l3.75-2.4a4,4,0,0,1,4.32,6.75l-7,4.47a4,4,0,0,0-1.61,4.74c2.19,6,4.17,11.14,5.58,14.71a4,4,0,0,0,2.86,2.45l26.22-119.59c-23-5.05-45.71,9-50.61,31.29A40,40,0,0,0,290.68,490.55Z"/></svg>