<svg xmlns="http://www.w3.org/2000/svg" viewBox="0 0 566.93 566.93"><defs><style>.cls-1{isolation:isolate;}.cls-2{fill:#f5a03c;}.cls-3{fill:#e27c17;}.cls-4{fill:#e6a073;}.cls-5{fill:#059999;}.cls-15,.cls-6,.cls-9{fill:none;stroke-miterlimit:10;}.cls-6{stroke:#0f373c;stroke-width:3.6px;}.cls-7{fill:#006464;}.cls-8{fill:#0f373c;}.cls-9{stroke:#324100;stroke-width:6px;}.cls-10,.cls-19{fill:#1d1d1b;}.cls-10{mix-blend-mode:soft-light;}.cls-11{fill:#ce6f3a;}.cls-12{fill:#ff8764;}.cls-13{fill:#d25a3c;}.cls-14{fill:#fff;}.cls-15{stroke:#e2e2e2;stroke-linecap:round;stroke-width:12px;}.cls-16{fill:#00282b;}.cls-17{fill:#e2e2e2;}.cls-18{fill:#b5b5b5;}.cls-20{fill:#c1610a;}.cls-21{fill:#b73116;}.cls-22{fill:#6e7832;}.cls-23{fill:#324100;}.cls-24{fill:#ad4e00;}.cls-25{fill:#b7b7b7;}.cls-26{fill:#999;}.cls-27{fill:#faebdc;}</style></defs><g class="cls-1"><g id="Ilustracja"><path class="cls-2" d="M60.8,269.61c-11.9,10.2-32.68,15.73-32.68,15.73s-7.35-20.2-5.8-35.8A22.57,22.57,0,0,1,24.91,240c4.94-9.48,15.25-13.87,23-9.82a13.69,13.69,0,0,1,5.84,6A13.76,13.76,0,0,1,62,237.51c7.78,4.06,10.07,15,5.13,24.51A22.65,22.65,0,0,1,60.8,269.61Z"/><path class="cls-3" d="M28.12,285.34h0s-7.35-20.2-5.8-35.8A22.57,22.57,0,0,1,24.91,240c4.94-9.48,15.25-13.87,23-9.82a13.69,13.69,0,0,1,5.84,6h0Z"/><ellipse class="cls-4" cx="95.26" cy="523.5" rx="42.53" ry="10.21"/><ellipse class="cls-4" cx="423.58" cy="465.66" rx="105.47" ry="10.21"/><rect class="cls-4" x="430.38" y="489.48" width="108.87" height="40.83"/><circle class="cls-5" cx="278.98" cy="208.79" r="185.43"/><path class="cls-6" d="M22.11,211.86c63-24.26,128.29,47.33,138.37,137.43q2.69,6.07,5.08,12.23"/><path class="cls-7" d="M135,351.45c49.29,20.67,83.66,50.76,76.75,67.23S159.3,431.73,110,411.07s-76.75-67.23-76.75-67.23S85.72,330.79,135,351.45Z"/><path class="cls-8" d="M110,411.07c49.29,20.66,94.84,24.07,101.74,7.61L33.26,343.84S60.72,390.4,110,411.07Z"/><path class="cls-9" d="M491.62,322.76s-20.41,20.66-23.81,57.84"/><path class="cls-9" d="M467.81,390.48c2.22-22.44,18.38-37.71,34-37.43,13.17.24,22.14,11.44,23.82,13.61"/><path class="cls-7" d="M158.44,307.39c51.9,43.38,85.67,88.49,75.43,100.74s-60.62-13-112.52-56.37S45.92,251,45.92,251,106.54,264,158.44,307.39Z"/><path class="cls-8" d="M159.44,307.39a250.6,250.6,0,0,0-22.73-16.88,45,45,0,0,0,6.35,33.16l-15.48,32.41a460.55,460.55,0,0,0,41.24,30.09l19.52-40.86a44.26,44.26,0,0,0,9.63-2.08A476,476,0,0,0,159.44,307.39Z"/><path class="cls-7" d="M279.89,326.35h0a8.44,8.44,0,0,0,6.78-9.82l-12.49-68.07a8.47,8.47,0,0,1,4.19-8.9c3.66-2.07,7.41-4.12,11.22-6.16a8.44,8.44,0,0,1,12.25,5.95l5.66,30.85a8.46,8.46,0,0,0,9.83,6.78h0a8.45,8.45,0,0,0,6.78-9.83l-7.43-40.47a8.42,8.42,0,0,1,4.68-9.15c2.55-1.2,5.11-2.39,7.64-3.56a8.43,8.43,0,0,1,11.82,6.15l1.7,9.24a8.44,8.44,0,0,0,9.82,6.78h0a8.44,8.44,0,0,0,6.78-9.83L356,209.12a8.43,8.43,0,0,1,5-9.29c12.42-5.27,23.13-9.59,30.67-12.56a8.42,8.42,0,0,1,11.52,7.95c-.1,8.1-.33,19.65-.85,33.13a8.45,8.45,0,0,1-6.91,8l-17.19,3.15a8.45,8.45,0,0,0-6.78,9.83h0a8.45,8.45,0,0,0,9.83,6.78l9.24-1.7a8.44,8.44,0,0,1,9.95,8.87c-.2,2.78-.4,5.59-.62,8.41a8.42,8.42,0,0,1-6.89,7.61l-40.47,7.43a8.44,8.44,0,0,0-6.78,9.83h0a8.44,8.44,0,0,0,9.82,6.78l30.85-5.66a8.44,8.44,0,0,1,9.91,9.34c-.55,4.28-1.14,8.52-1.77,12.68a8.46,8.46,0,0,1-6.83,7.07L319.6,339.24a8.46,8.46,0,0,0-6.78,9.83h0a8.44,8.44,0,0,0,9.83,6.78l54.46-10a8.46,8.46,0,0,1,9.61,10.75c-2.83,9.59-6.15,17.6-10,23.23C349.33,419.49,294,428.74,253,400.5s-51.94-83.28-24.58-122.93c3.88-5.63,10.19-11.58,18.15-17.63a8.46,8.46,0,0,1,13.46,5.17l10,54.46A8.45,8.45,0,0,0,279.89,326.35Z"/><path class="cls-8" d="M246.61,259.94a8.46,8.46,0,0,1,13.46,5.17l10,54.46a8.44,8.44,0,0,0,16.61-3l-12.49-68.07a8.46,8.46,0,0,1,4.19-8.9c3.66-2.07,7.41-4.12,11.22-6.16a8.44,8.44,0,0,1,12.25,5.95l5.66,30.85a8.44,8.44,0,0,0,16.61-3.05l-7.43-40.47a8.43,8.43,0,0,1,4.68-9.15q3.83-1.8,7.64-3.56a8.43,8.43,0,0,1,11.82,6.15l1.7,9.24a8.44,8.44,0,1,0,16.6-3.05L356,209.12a8.43,8.43,0,0,1,5-9.29c12.42-5.27,23.13-9.59,30.67-12.56a8.37,8.37,0,0,1,7.88.9L253,400.5c-40.93-28.24-51.94-83.28-24.58-122.93C232.34,271.94,238.65,266,246.61,259.94Z"/><path class="cls-10" d="M312,349.07h0a8.44,8.44,0,0,1,3.64-8.56,70.47,70.47,0,0,0-19.44-17.86,17.7,17.7,0,0,1-4.44-4.07c-3.36-4.12-6.18-9.8-8.56-16.49l2.65,14.44a8.17,8.17,0,0,1,.13,1.7,8.35,8.35,0,0,1-3.07,6.33c-.24.2-.48.38-.73.55a8.9,8.9,0,0,1-3.11,1.24h0a8.34,8.34,0,0,1-1.71.14,8.43,8.43,0,0,1-8.12-6.92l-10-54.46a8.36,8.36,0,0,0-6.26-6.66,8.64,8.64,0,0,0-3.13-.19,8.22,8.22,0,0,0-1.74.44,8.76,8.76,0,0,0-.84.35,9.36,9.36,0,0,0-1,.58,4.76,4.76,0,0,0-.47.31c-8,6.05-14.27,12-18.16,17.63a86.3,86.3,0,0,0-4.68,7.6,84.72,84.72,0,0,0-5.36,11.95c-.49,1.36-.94,2.73-1.35,4.1a85.53,85.53,0,0,0-2.83,13q-.52,3.85-.71,7.74c-.07,1.51-.11,3-.1,4.51a90.74,90.74,0,0,0,39.62,74.06h0a91,91,0,0,0,73.66,13.7V370.4a47.78,47.78,0,0,0-.88-9.13,46.53,46.53,0,0,0-1.52-5.72l-1.66.3A8.44,8.44,0,0,1,312,349.07Z"/><path class="cls-7" d="M188.52,235.42c37.61,56.22,56.07,109.85,41.23,119.78s-57.35-27.61-95-83.84S93.55,151.58,93.55,151.58,150.91,179.19,188.52,235.42Z"/><path class="cls-8" d="M134.79,271.36c37.61,56.23,80.13,93.76,95,83.84L93.55,151.58S97.18,215.13,134.79,271.36Z"/><rect class="cls-4" x="423.58" y="387.41" width="81.66" height="81.66"/><rect class="cls-4" x="416.77" y="377.2" width="95.26" height="37.43"/><rect class="cls-11" x="416.77" y="377.2" width="44.23" height="40.83"/><path class="cls-11" d="M505.23,414.63H423.58v54.43h40.83V444.23a16,16,0,0,1,16-16h24.83Z"/><path class="cls-12" d="M260.27,469.06H450.8V278.53Zm163.31-27.22H328.31l95.27-98.66Z"/><polygon class="cls-13" points="328.31 441.85 352.13 417.18 352.13 377.2 260.27 469.06 352.13 469.06 352.13 441.85 328.31 441.85"/><path class="cls-6" d="M45.92,312.19c59-61.24,118.43-36.4,124.16,35.14,1.83,3.12,3.53,6.27,5.13,9.46"/><rect class="cls-14" x="423.58" y="482.67" width="108.87" height="40.83"/><path class="cls-15" d="M285.88,107.62s-20.49,54.2,19.89,72.25"/><path class="cls-14" d="M314.7,88v37.43H303.39a43.34,43.34,0,0,0-43.12,43.2v21.44H205.83V152.56a27.14,27.14,0,0,0-27.14-27.13h-6.88V116.7c0-.5,0-1,0-1.48A28.69,28.69,0,0,1,200.5,88Z"/><path class="cls-7" d="M506.68,176.66a3.73,3.73,0,0,0,3.52-1.07,3.68,3.68,0,0,0,.89-3.56c-.94-3.35-9.38-32.89-16.57-39.74A20.53,20.53,0,0,0,466.19,162C473.38,168.87,503.3,175.88,506.68,176.66Z"/><path class="cls-8" d="M510.2,175.59l-44.59-42.48a20.47,20.47,0,0,0,.58,28.91c7.19,6.85,37.11,13.86,40.49,14.64A3.73,3.73,0,0,0,510.2,175.59Z"/><path class="cls-7" d="M430.44,74.71a3.72,3.72,0,0,0-3.67-5.23c-3.47.27-34.09,2.77-42.21,8.48a20.53,20.53,0,0,0,23.6,33.59C416.29,105.84,429,77.88,430.44,74.71Z"/><path class="cls-8" d="M430.09,71.05,379.7,106.46a20.46,20.46,0,0,0,28.46,5.09c8.13-5.71,20.86-33.67,22.28-36.84A3.72,3.72,0,0,0,430.09,71.05Z"/><path class="cls-7" d="M438.6,193.8a3.72,3.72,0,0,0,5.93-2.37c.54-3.44,5.13-33.81,1.44-43a20.53,20.53,0,0,0-38.12,15.27C411.55,172.88,435.84,191.69,438.6,193.8Z"/><path class="cls-16" d="M442.24,194.3l-22.9-57.18a20.48,20.48,0,0,0-11.49,26.54c3.7,9.22,28,28,30.75,30.14A3.72,3.72,0,0,0,442.24,194.3Z"/><path class="cls-2" d="M314.7,370.4v82.67a43.34,43.34,0,0,1-43.21,43.21H194.61a43.34,43.34,0,0,1-43.21-43.21V370.4a35.59,35.59,0,0,1,.66-6.81C155.91,344,175.21,333,175.21,333a29.34,29.34,0,0,0,7.61-6.8c25.88-31.76,23-129.3,23-129.3h54.44s-2.87,97.54,23,129.3a29.34,29.34,0,0,0,7.61,6.8s19.3,11,23.15,30.62A35.59,35.59,0,0,1,314.7,370.4Z"/><path class="cls-3" d="M178.52,453.07l.38-50.56a39.21,39.21,0,0,1,39.21-38.92H314C310.19,344,290.89,333,290.89,333a29.34,29.34,0,0,1-7.61-6.8H225.62a9,9,0,0,1-8.14-12.66c7.8-17.3,11.73-41.91,13.69-64.07a27.74,27.74,0,0,1,27.64-25.34h1.46V196.88H205.74s3.4,115.68-30.62,136.09c0,0-23.82,13.61-23.82,37.43v60.21h0v22.45a43.33,43.33,0,0,0,43.21,43.21h27.22A43.33,43.33,0,0,1,178.52,453.07Z"/><rect class="cls-14" x="199.03" y="169.66" width="68.05" height="40.83"/><path class="cls-17" d="M314.7,115.22v10.21H303.39a43.34,43.34,0,0,0-43.12,43.2v1H205.83v-17.1a27.14,27.14,0,0,0-27.14-27.13h-6.88V116.7c0-.5,0-1,0-1.48Z"/><path class="cls-18" d="M233.13,159.46A17.11,17.11,0,0,1,216,142.36h0a27.13,27.13,0,0,0-27.13-27.13h-17c0,.49,0,1,0,1.48v8.73h6.87a27.13,27.13,0,0,1,27.14,27.13v17.1h54.45v-1a42.73,42.73,0,0,1,1-9.17Z"/><rect class="cls-17" x="314.7" y="91.41" width="13.61" height="23.82"/><rect class="cls-2" x="369.14" y="496.28" width="81.66" height="27.22"/><rect class="cls-12" x="341.92" y="496.28" width="27.22" height="27.22"/><polygon class="cls-19" points="488.22 509.89 467.81 517.31 467.81 502.47 488.22 509.89"/><polygon class="cls-4" points="467.81 502.47 467.81 517.31 450.8 523.5 450.8 496.28 467.81 502.47"/><rect class="cls-3" x="369.14" y="496.28" width="81.66" height="13.61"/><rect class="cls-3" x="358.93" y="496.28" width="10.21" height="27.22"/><rect class="cls-17" x="199.03" y="169.66" width="17.01" height="40.83"/><rect class="cls-20" x="205.83" y="210.49" width="54.44" height="6.8"/><rect class="cls-13" x="437.19" y="305.75" width="13.61" height="3.4"/><rect class="cls-13" x="437.19" y="332.97" width="13.61" height="3.4"/><rect class="cls-13" x="437.19" y="360.19" width="13.61" height="3.4"/><rect class="cls-13" x="437.19" y="387.41" width="13.61" height="3.4"/><rect class="cls-13" x="437.19" y="414.63" width="13.61" height="3.4"/><rect class="cls-13" x="437.19" y="441.84" width="13.61" height="3.4"/><rect class="cls-3" x="171.81" y="397.61" width="142.9" height="17.01"/><rect class="cls-2" x="151.39" y="397.61" width="163.31" height="6.8"/><rect class="cls-21" x="314.7" y="404.42" width="10.21" height="64.64"/><polygon class="cls-5" points="161.6 162.85 134.38 217.29 171.81 186.67 178.61 210.49 165 244.51 192.22 220.69 185.42 173.06 161.6 162.85"/><path class="cls-20" d="M314.7,453.07V398.12a44.41,44.41,0,0,0-4.68-3.95l-.92-.67-.07,0c-.54-.37-1.12-.75-1.76-1.15l-.46-.28c-.93-.57-1.87-1.1-2.78-1.57l-.41-.21c-.92-.46-1.86-.9-2.75-1.28l-.36-.16c-.94-.39-1.93-.76-3-1.14l-.62-.2c-1.11-.36-2.14-.65-3.13-.9l-.33-.07c-1-.23-2-.44-3-.62l-.6-.1c-1.06-.17-2.16-.3-3.22-.39l-.71,0c-1.25-.09-2.37-.14-3.44-.14-25.48,0-46.21,20.26-46.21,45.15v4.73a44.93,44.93,0,0,0-22.33,38.65,44,44,0,0,0,6.2,22.54H271.5A43.34,43.34,0,0,0,314.7,453.07Z"/><path class="cls-6" d="M467.81,134.22c-7.93-4-29.7-13.76-55.57-7.8-16,3.7-26.51,11.77-32.28,16.31-38.64,30.38-45.65,84-47.13,98.38"/><path class="cls-6" d="M386.55,106.1c-24.21,12.53-58.24,67-51.43,111.19"/><polygon class="cls-18" points="328.31 115.22 314.7 115.22 314.7 91.41 328.31 115.22"/><path class="cls-7" d="M319.6,440.61V430.36c0-20-16.67-36.15-37.22-36.15s-37.21,16.19-37.21,36.15v10.25a36.14,36.14,0,0,0-22.33,33.13c0,20,16.66,36.15,37.21,36.15a37.76,37.76,0,0,0,22.33-7.23,37.76,37.76,0,0,0,22.33,7.23c20.55,0,37.21-16.18,37.21-36.15A36.13,36.13,0,0,0,319.6,440.61Z"/><path class="cls-22" d="M323.69,504.83l.63-.37Z"/><path class="cls-22" d="M322.26,505.62l.61-.33Z"/><path class="cls-22" d="M325.11,504l.6-.38Z"/><path class="cls-22" d="M320.79,506.35l.42-.21Z"/><path class="cls-22" d="M326.58,503l.46-.33Z"/><path class="cls-8" d="M267.5,473.74a36.14,36.14,0,0,1,22.33-33.13V430.36a35.77,35.77,0,0,1,14.88-28.92,37.76,37.76,0,0,0-22.33-7.23c-20.55,0-37.21,16.19-37.21,36.15v10.25a36.14,36.14,0,0,0-22.33,33.13c0,20,16.66,36.15,37.22,36.15a37.75,37.75,0,0,0,22.32-7.23h0A35.77,35.77,0,0,1,267.5,473.74Z"/><path class="cls-22" d="M299.43,509.52l1.14.14Z"/><path class="cls-22" d="M313.91,508.77l.49-.13Z"/><path class="cls-22" d="M315.54,508.33l.62-.19Z"/><path class="cls-22" d="M317.14,507.82l.64-.23Z"/><path class="cls-22" d="M318.77,507.22l.57-.23Z"/><path class="cls-22" d="M308.85,509.66l-.62.07Z"/><path class="cls-22" d="M311.87,509.22l.41-.08Z"/><path class="cls-22" d="M310,509.52l.6-.08Z"/><path class="cls-22" d="M282.85,503l.87.6Z"/><path class="cls-22" d="M285.73,504.83c.27.16.55.31.83.46C286.28,505.14,286,505,285.73,504.83Z"/><path class="cls-22" d="M284.31,504l.79.49Z"/><path class="cls-22" d="M303,509.85c.58,0,1.17,0,1.76,0h0C304.12,509.89,303.53,509.87,303,509.85Z"/><path class="cls-22" d="M302.39,509.81l-1.19-.08Z"/><path class="cls-22" d="M306.47,509.85l.56,0Z"/><path class="cls-22" d="M292.28,507.82l1,.32Z"/><path class="cls-22" d="M297.55,509.22l1.28.22Z"/><path class="cls-22" d="M293.89,508.33c.37.11.75.22,1.13.31C294.64,508.55,294.26,508.44,293.89,508.33Z"/><path class="cls-22" d="M295.51,508.77c.54.14,1.08.26,1.63.37C296.59,509,296.05,508.91,295.51,508.77Z"/><path class="cls-22" d="M290.09,507c-.49-.2-1-.42-1.46-.64Z"/><path class="cls-22" d="M290.66,507.22l1,.37Z"/><path class="cls-22" d="M287.16,505.62l1,.52Z"/><ellipse class="cls-7" cx="282.38" cy="473.74" rx="37.21" ry="36.15"/><path class="cls-8" d="M282.38,437.59a38,38,0,0,0-11.16,1.66c15.1,4.61,26,18.31,26,34.49s-10.95,29.89-26,34.49a38,38,0,0,0,11.16,1.66c20.55,0,37.22-16.18,37.22-36.15S302.93,437.59,282.38,437.59Z"/><path class="cls-5" d="M279.13,438.1a27.51,27.51,0,0,0-9.38,1.65c12.69,4.57,21.9,18.18,21.9,34.25s-9.21,29.67-21.9,34.25a27.74,27.74,0,0,0,9.38,1.64c17.29,0,31.3-16.07,31.3-35.89S296.42,438.1,279.13,438.1Z"/><path class="cls-22" d="M486.14,289.08c16-5.95,41.25-3,41.25-3s4.25,25.09-.85,41.34a20.37,20.37,0,0,1-39.34,1,20.38,20.38,0,0,1-1.06-39.34Z"/><path class="cls-23" d="M527.39,286.06h0s4.25,25.09-.85,41.34a20.37,20.37,0,0,1-39.34,1h0Z"/><path class="cls-22" d="M554.16,353.24c6.86,15.59,5.38,41,5.38,41s-24.81,5.68-41.33,1.52a20.38,20.38,0,0,1-3.27-39.22,20.37,20.37,0,0,1,39.22-3.3Z"/><path class="cls-23" d="M559.54,394.24h0s-24.81,5.68-41.33,1.52a20.38,20.38,0,0,1-3.27-39.22h0Z"/><path class="cls-13" d="M450.8,320.32a28.94,28.94,0,0,0-6,0,30,30,0,0,0-5.88,1.27,29.65,29.65,0,0,0-10.19,5.72,30.33,30.33,0,0,0-2.57,2.5,61.87,61.87,0,0,0-5.54,6.24c-.85,1.09-1.71,2.26-2.57,3.48s-1.6,2.36-2.39,3.59a146.84,146.84,0,0,0-9.71,18.32l17.66-18.29v49.58c8.05,4,17.33,7.64,25.85,8.88.46.09.91.17,1.37.24Z"/><path class="cls-22" d="M450.48,395.73c-19.66-2.79-43.91-19.86-43.91-19.86s9.6-28.06,23.88-41.86a23.73,23.73,0,0,1,40.84,20.85,23.74,23.74,0,0,1-20.81,40.87Z"/><path class="cls-23" d="M406.57,375.87h0s9.6-28.06,23.88-41.86a23.73,23.73,0,0,1,40.84,20.85h0Z"/><path class="cls-24" d="M206.53,329.41a29.81,29.81,0,0,0,17-15.28l4.61-9.64a15,15,0,0,0-7.05-19.95l-20.23-9.66c-3.35,20.51-8.91,40-18.08,51.29a29.5,29.5,0,0,1-7.61,6.8,57.57,57.57,0,0,0-13.61,11.7l-9.83,20.57a36,36,0,0,0-.38,5.16v45.22l35.38-74.05h0l5.15-10.79A30,30,0,0,0,206.53,329.41Z"/><rect class="cls-4" x="134.87" y="332.89" width="21.38" height="83.37" transform="translate(115.42 775.3) rotate(-154.46)"/><path class="cls-25" d="M76,520.2c42.44,20.27,63.38-23.56,63.38-23.56L149,476.37c1.88-3.94,0-9.23-4.93-12.91A41.13,41.13,0,0,1,133,451.06c-3.91-6.92-5.17-14.5-2.17-20.77l6.45-13.5-19.29-9.22-6.45,13.5c-3,6.28-9.68,10.06-17.52,11.37a41.07,41.07,0,0,1-16.65-.89c-5.93-1.48-11.27.34-13.15,4.28l-9.68,20.26S33.55,499.92,76,520.2Z"/><path class="cls-26" d="M76,520.19l51.61-108,9.64,4.61-6.45,13.5c-3,6.27-1.74,13.85,2.17,20.77a41.19,41.19,0,0,0,11.15,12.4c4.88,3.68,6.82,9,4.94,12.91l-9.69,20.27S118.41,540.46,76,520.19Z"/><path class="cls-12" d="M159,321.57,153,334.28l19.29,9.21,6.07-12.71A30.06,30.06,0,0,0,210,314.13l4.6-9.64a15,15,0,0,0-7-19.95l-30.86-14.75a15,15,0,0,0-19.95,7l-4.61,9.64A30.05,30.05,0,0,0,159,321.57Zm15.59-5.37-1.92-.92a18.23,18.23,0,0,1-8.57-24.23l4.15-8.68,2.89,1.39,27,12.9L203,299l-4.15,8.68A18.22,18.22,0,0,1,174.62,316.2Z"/><polygon class="cls-27" points="501.83 261.52 501.83 298.95 488.22 275.13 491.63 309.15 474.61 281.94 501.83 261.52"/><path class="cls-6" d="M103.76,313.8s9.79-32.86,39.15-28"/><path class="cls-12" d="M111.82,344.46c-11.9,10.2-32.68,15.73-32.68,15.73s-7.36-20.2-5.8-35.8a22.74,22.74,0,0,1,2.58-9.55c5-9.48,15.26-13.87,23-9.82a13.71,13.71,0,0,1,5.84,6,13.69,13.69,0,0,1,8.24,1.36c7.77,4.06,10.07,15,5.13,24.51A22.55,22.55,0,0,1,111.82,344.46Z"/><path class="cls-13" d="M79.14,360.19h0s-7.36-20.2-5.8-35.8a22.74,22.74,0,0,1,2.58-9.55c5-9.48,15.26-13.87,23-9.82a13.71,13.71,0,0,1,5.84,6h0Z"/><path class="cls-20" d="M168.19,453.07V430.62h0v-16H151.44v16h0v22.45a43.33,43.33,0,0,0,43.2,43.21H211.4A43.33,43.33,0,0,1,168.19,453.07Z"/><path class="cls-6" d="M56.13,228.54s23.81-13.61,51,6.81"/></g></g></svg>