<svg xmlns="http://www.w3.org/2000/svg" viewBox="0 0 566.93 566.93"><defs><style>.cls-1{fill:#fffcfb}.cls-2,.cls-3{fill:none;stroke-linecap:round;stroke-linejoin:round;stroke-width:2px}.cls-2{stroke:#001e1d}.cls-3{stroke:#472300}.cls-4{fill:#ff8764}.cls-5{fill:#d25a3c}.cls-6{fill:#d8aa91}.cls-7{fill:#0f373c}.cls-8{fill:#001e1d}.cls-9{fill:#006464}.cls-12{fill:#cc661b}.cls-13{fill:#db832a}.cls-14{fill:#059999}</style></defs><path class="cls-1" d="M0 0h566.93v566.93H0z" id="Tlo"/><g id="Ilustracja"><path class="cls-2" d="M419.53 136.06s-22.68 24.81-25.51 56.7"/><path class="cls-3" d="M181.42 384.21c-1.6-3-25.35-46.63-66-47.27a61.13 61.13 0 00-26.29 5.63"/><path class="cls-4" d="M206 340.38c26.57 26.57 32.07 64.14 32.07 64.14S200.54 399 174 372.45s-32.07-64.14-32.07-64.14 37.54 5.5 64.07 32.07z"/><path class="cls-5" d="M174 372.45c26.57 26.57 64.14 32.07 64.14 32.07l-96.24-96.21s5.5 37.57 32.1 64.14z"/><path class="cls-3" d="M192.08 391.41c-1.65-2.18-34.45-44.55-58.26-33.13a25.07 25.07 0 00-14.52 19.33c-1.38 9.41 3.28 18.74 10.22 22 4.83 2.24 19.26 2.41 19.18-10.57"/><rect class="cls-6" x="243.78" y="450.71" width="181.42" height="11.34" rx="5.67"/><rect class="cls-6" x="184.25" y="450.72" width="51.02" height="11.34" rx="5.67"/><path class="cls-4" d="M433.3 372.69c-39.85 39.85-104.23 40.08-104.23 40.08s.24-64.37 40.09-104.23 104.23-40.08 104.23-40.08-.24 64.37-40.09 104.23z"/><path class="cls-5" d="M369.16 308.54c-39.85 39.86-40.09 104.23-40.09 104.23l144.32-144.31s-64.39.23-104.23 40.08z"/><path class="cls-5" d="M345.05 343.69c-2 4.37-3.79 8.74-5.34 13.06a181.26 181.26 0 00-6 20.67c-.3 1.3-.57 2.58-.83 3.83a174.79 174.79 0 00-3.81 31.38s56.93-.21 96.86-33.38a56 56 0 00-36.86-24c-.12-.72-.25-1.41-.39-2.09 0-.17-.07-.33-.11-.49-.2-.91-.43-1.85-.69-2.8-.08-.31-.17-.62-.26-.94-.25-.85-.52-1.7-.81-2.54v-.1l-.19-.57c-.37-1-.78-2.07-1.22-3.1l-.24-.51v-.09c-.36-.83-.75-1.64-1.16-2.45-.13-.27-.26-.53-.4-.79-.47-.89-.92-1.71-1.41-2.53l-.2-.35a54.18 54.18 0 00-1.81-2.79l-.34-.48-.07-.1a53.35 53.35 0 00-1.62-2.18l-.47-.59a54.56 54.56 0 00-4.46-4.91l-.52-.49c-.67-.64-1.36-1.27-2.05-1.86l-.48-.41c-.88-.75-1.78-1.46-2.65-2.1l-.19-.14c-.79-.58-1.62-1.16-2.51-1.74l-.67-.42c-.7-.45-1.41-.87-2.11-1.27A121.7 121.7 0 00349.45 335q-2.38 4.3-4.4 8.69z"/><path class="cls-7" d="M411.89 286.38c-53.13 53.13-128.27 64.12-128.27 64.12s11-75.13 64.13-128.26S476 158.12 476 158.12s-11 75.13-64.11 128.26z"/><path class="cls-8" d="M432.69 256q0 3.21-.2 6.39-4.23 5.86-9 11.58c-3.5 4.21-7.24 8.33-11.21 12.32l-.39.39a195.32 195.32 0 01-15.69 14.06 79.49 79.49 0 00-14.34-105.51q3.42-2.19 6.84-4.23t6.85-3.93c2.32-1.28 4.62-2.5 6.92-3.67a102.16 102.16 0 0130.22 72.6z"/><path class="cls-1" d="M453.54 160.74l-11.34 28.35v-28.35h11.34zM439.37 157.91l-11.34 28.34v-28.34h11.34z"/><path class="cls-8" d="M348 222.24c-53.13 53.13-64.13 128.26-64.13 128.26s1-.15 2.93-.5l6.06-2.59c2.91-1.26 71.85-31.43 102.08-96.26C406.28 226.8 410.38 201.4 411 179c-20.73 9.72-43.37 23.6-63 43.24z"/><path class="cls-3" d="M146.4 177.75c-2.11-14.18-18.84-34-35.51-23.35-5.08 3.25-8.25 12-4.3 17.61 3.25 4.62 10.93 6.54 15.54 3.16a10.19 10.19 0 003.71-6.48"/><path class="cls-9" d="M289.37 202c-26.47 56.79-6.82 122-6.82 122s62.56-26.84 89-83.59 6.81-121.93 6.81-121.93-62.53 26.81-88.99 83.52z"/><path class="cls-7" d="M378.49 118.22s19.66 65.18-6.81 121.93-89 83.6-89 83.6z"/><path d="M425.2 253.44a95 95 0 00-189.82-4.25h-.1l-7.74 54.17a91 91 0 00-83-54.17h-11.31v22.68h11.34a68.23 68.23 0 0168 68v68h144.6l-8.76-61.27a95 95 0 0076.79-93.16zm-80 70.73l-10.71-75h-76.4a72.28 72.28 0 1187.11 75z" fill="#f5a03c"/><path d="M312.61 249.19h-54.52a72.27 72.27 0 0172.15-68c1.3 0 2.59 0 3.87.11q1.8-11.13 2.6-22.56-3.21-.22-6.47-.23a95 95 0 00-94.86 90.71h-.1l-7.74 54.17a91 91 0 00-83-54.17h-11.31v22.68h11.34a68.23 68.23 0 0168 68v16a247.76 247.76 0 00100.04-106.71z" fill="#ffbd76"/><path class="cls-12" d="M330.24 181.16a72.2 72.2 0 0160.31 32.46A178.89 178.89 0 00395 184a95.05 95.05 0 00-94-20.92 152.7 152.7 0 00-20.69 32.49c-1.51 3.24-2.91 6.58-4.2 10a72.08 72.08 0 0154.13-24.41z"/><path class="cls-8" d="M379.84 231.61l-36.85 17h36.85v-17z"/><path class="cls-12" d="M411 254.86a76.57 76.57 0 01-64.92 75.67l-.91-6.36a72.29 72.29 0 10-72.4-114.6A76.54 76.54 0 01411 254.86z"/><path class="cls-9" d="M376.33 228.77h-96.19a140.29 140.29 0 019.23-26.77c26.25-56.31 88-83.17 89-83.58s17.1 56.68-2.04 110.35z"/><path class="cls-7" d="M376.35 228.77H327l51.43-110.31.1-.23s17.1 56.77-2.18 110.54z"/><path class="cls-8" d="M382.68 208.93l-36.85 17.01h36.85v-17.01z"/><path class="cls-2" d="M402.52 410.19c0-14.17 19.84-113.39 99.21-96.38"/><path class="cls-12" d="M348.41 346.92a95.19 95.19 0 0010.59-2.71c-.3-.68-.62-1.34-.95-2l-.33-.65c-.38-.72-.77-1.43-1.18-2.12l-.14-.24c-.47-.78-1-1.54-1.48-2.29l-.35-.48c-.42-.6-.86-1.19-1.31-1.77l-.39-.49a45.09 45.09 0 00-3.66-4l-.43-.41c-.55-.52-1.11-1-1.69-1.52l-.38-.34c-.71-.59-1.43-1.17-2.18-1.72l-.11-.08c-.69-.51-1.4-1-2.11-1.47l-.54-.34c-.65-.41-1.32-.81-2-1.2l-.27-.16-.1-.05c-.76-.42-1.53-.82-2.32-1.2l-.15-.07-.34-.15c-.61-.28-1.22-.55-1.83-.8l-.47-.2-.5-.18c-.49-.19-1-.37-1.47-.53-.25-.09-.51-.19-.77-.27l-.34-.11c-.52-.17-1-.31-1.58-.46-.23-.06-.45-.14-.68-.19l-.36-.09h-.13l-.47-.1c-.49-.12-1-.23-1.49-.33l-.5-.2-.81-.13-1.29-.21-.66-.09-.63-.07-1.4-.13c-.27 0-.54-.06-.81-.07h-.36q-.93 0-1.86-.06h-.66c-1 0-1.92 0-2.86.1-.5 0-1 .09-1.48.13l-1.32.13c-.57.07-1.13.17-1.69.26l-1.07.17c-.51.1-1 .22-1.52.33l-1 .21-.24.07c-.64.16-1.26.35-1.88.54-.31.09-.63.17-.93.27-.66.22-1.31.46-2 .7-.26.1-.53.18-.79.29-.7.28-1.38.58-2.06.89l-.6.26q-1.32.63-2.58 1.32c-.79.44-1.57.91-2.33 1.4l-.73.48c-.52.35-1 .7-1.54 1.07l-.78.58c-.5.37-1 .76-1.47 1.16l-.67.55c-.67.58-1.34 1.17-2 1.79l-.28.28c-.55.54-1.08 1.1-1.61 1.66l-.61.69c-.4.46-.8.92-1.18 1.39-.21.26-.42.51-.62.77q-.58.75-1.14 1.53l-.48.67c-.5.73-1 1.48-1.45 2.25l-.29.49q-.54.93-1.05 1.89c-.15.28-.29.57-.43.85q-.4.83-.78 1.65l-.4.91c-.26.61-.5 1.22-.73 1.84-.09.25-.19.49-.28.74-.3.86-.57 1.72-.82 2.6-.07.24-.12.48-.19.72-.13.5-.27 1-.39 1.5l-.09.48c-.08.35-.15.71-.22 1.06-.11.6-.22 1.2-.31 1.81q-.09.53-.15 1.05c-.09.66-.15 1.32-.21 2 0 .31-.06.61-.08.92-.06 1-.1 2-.1 2.93-.83 0-1.66 0-2.48.07l-.84.07-1.61.13-1 .13-1.43.2-1 .19c-.46.08-.91.17-1.37.27l-.5.1-.65.17-.77.19-1.35.39-.67.2c-.53.17-1.07.35-1.59.54l-.38.13c-.66.24-1.32.5-2 .77l-.25.12c-.55.23-1.1.48-1.64.74l-.54.26c-.44.22-.88.44-1.32.68l-.59.32c-.42.23-.83.47-1.23.71l-.58.35c-.42.26-.83.53-1.24.8l-.49.32q-.74.49-1.44 1l-.23.17c-.57.43-1.13.86-1.68 1.32-.52.43-1 .87-1.53 1.33l-.37.34-1.13 1.07-.44.45c-.34.34-.67.69-1 1.05l-.43.47c-.33.37-.66.75-1 1.12l-.38.45c-.36.44-.71.89-1 1.34-.07.09-.15.18-.22.28-.83 1.11-1.61 2.27-2.33 3.46-.1.15-.19.31-.28.46-.26.44-.51.87-.76 1.32l-.32.6c-.22.41-.43.83-.64 1.25l-.31.64c-.2.42-.39.85-.58 1.28l-.27.63q-.3.72-.57 1.44l-.19.51c-.24.66-.47 1.33-.68 2-.2.65-.39 1.32-.56 2-.06.22-.1.43-.16.64-.11.47-.22.94-.32 1.42-.06.26-.1.51-.15.77-.09.44-.17.89-.24 1.33-.05.27-.09.55-.13.82-.06.44-.12.89-.17 1.34l-.09.81c0 .49-.08 1-.11 1.47v.7c0 .72-.06 1.45-.06 2.18v.26h130.37z"/><path class="cls-13" d="M341.62 299.16a76.63 76.63 0 01-59.47-50h52.33zM258.08 249.45a72.41 72.41 0 014-19.84h-23.71a95.21 95.21 0 00-3 19.84h22.71z"/><path class="cls-3" d="M312.5 427.2c-42.4-194-105.62-185.58-141.45-210.9-26.48-18.71-29.32-47.06-20.81-66.9 1.44-3.37 14-24.44 32-24 47.39 1.28 16.21 63.65-9.31 39.69"/><path class="cls-9" d="M425.19 411a45.33 45.33 0 01-68 39.27 45.26 45.26 0 01-45.35 0 45.35 45.35 0 11-22.68-84.62 45.36 45.36 0 1190.71 0A45.35 45.35 0 01425.19 411z"/><path class="cls-7" d="M379.84 365.67a45.35 45.35 0 00-45.36-45.35v136.06a45.13 45.13 0 0022.68-6.08 45.35 45.35 0 1022.68-84.63z"/><rect class="cls-7" x="311.81" y="343" width="45.35" height="22.68" rx="11.34"/><path class="cls-8" d="M323.12 454.94zM326.17 455.61q1.09.21 2.22.36c-.75-.1-1.49-.21-2.22-.36zM332.94 456.35c-1.13 0-2.24-.11-3.34-.23 1.1.11 2.21.19 3.34.23zM338.94 456.14c.71-.07 1.41-.16 2.11-.26-.7.12-1.4.2-2.11.26zM341.05 455.88zM336.64 456.32c.77 0 1.54-.1 2.3-.18-.76.08-1.53.14-2.3.18z"/><path class="cls-8" d="M424.09 401.11a45.24 45.24 0 01-8.42 17.89l-.12.16c-.43.54-.87 1.07-1.32 1.6-8.76 9.76-14.59-.12-15.56-4a.81.81 0 00-.06-.13 66.6 66.6 0 00-64.13-50.89v90.69h2.39c.64 0 1.26-.08 1.89-.14h.35a44.63 44.63 0 006.15-1.06h.14c.64-.16 1.27-.33 1.9-.51l.47-.15c1-.29 1.9-.62 2.83-1l1-.37 1.15-.49c.44-.2.87-.39 1.3-.6l1-.47c.65-.33 1.29-.67 1.93-1l.25-.13c.79.46 1.59.88 2.41 1.29l.23.12c.78.38 1.57.74 2.38 1.08l.38.16c.8.34 1.62.65 2.44.94l.26.08q2.14.73 4.38 1.26c.25.06.51.1.76.15l.87.18 1.84.31 1 .14c.61.08 1.22.14 1.83.19l1 .09c.82 0 1.64.07 2.46.08h.38a45.34 45.34 0 0044.25-55.27z"/><circle class="cls-9" cx="334.48" cy="411.03" r="45.35"/><path class="cls-14" d="M334.49 365.67A45.37 45.37 0 00291.34 425a14.17 14.17 0 0012-14 31.18 31.18 0 0131.18-31.18 14.17 14.17 0 0014-12 45 45 0 00-14.03-2.15z"/><path class="cls-9" d="M356.45 326a22.69 22.69 0 01-43.93 0 45.25 45.25 0 0111-4.34 45.76 45.76 0 0110.93-1.33 45.24 45.24 0 0122 5.67z"/><path class="cls-14" d="M334.49 320.31c-1 0-1.92 0-2.87.1-.49 0-1 .09-1.47.13l-1.32.13c-.57.07-1.13.17-1.69.26l-1.08.18c-.51.09-1 .21-1.51.32l-1 .21a45 45 0 00-11 4.32 45.29 45.29 0 00-23.39 39.69 45.36 45.36 0 1022.64 84.65 45.28 45.28 0 01-9.65-7.48 34.36 34.36 0 11-13.29-66.15h1.33a10.65 10.65 0 009.94-10.07v-1.1a34.32 34.32 0 0134.1-34.18h.26a11 11 0 0010.92-9.69 45.17 45.17 0 00-10.92-1.32z"/><path class="cls-7" d="M289.13 411v-2.84a5.67 5.67 0 10-11.34 0V411a56.56 56.56 0 0021.27 44.26 45.21 45.21 0 0012.75-5A45.3 45.3 0 01289.13 411z"/><path class="cls-3" d="M260.79 285.46s-51.42-82.2-20.24-110.55"/><ellipse class="cls-14" cx="230.79" cy="388.07" rx="36.85" ry="11.34" transform="rotate(-65 230.787 388.072)"/><path class="cls-9" d="M246.36 354.68l-31.15 66.79c-5.67-2.64-3.3-19.74 5.3-38.19s20.18-31.28 25.85-28.6z"/><path class="cls-7" d="M207.37 412c0-.38 0-.77-.08-1.17a47 47 0 00-.71-5.18 78.67 78.67 0 00-2.31-9 111.26 111.26 0 00-5.27-13.37 116.54 116.54 0 00-6-11.19l-.89-1.43c-.6-.94-1.2-1.85-1.8-2.72-1.06-1.55-2.13-3-3.19-4.31q-.65-.81-1.29-1.56c-.59-.69-1.17-1.33-1.75-1.94a33.11 33.11 0 00-3.37-3.1 11.83 11.83 0 00-5.2-2.64 4.4 4.4 0 00-1.25 0 3.59 3.59 0 00-1.13.32c-5.68 2.64-3.31 19.74 5.29 38.19s20.18 31.25 25.85 28.6c2.35-1.1 3.33-4.56 3.1-9.5z"/><ellipse class="cls-7" cx="209.76" cy="379.84" rx="11.34" ry="56.69"/><path class="cls-8" d="M198.43 379.84c0 31.31 5.07 56.7 11.33 56.7V323.15c-6.26 0-11.33 25.38-11.33 56.69z"/><path class="cls-4" d="M181.42 411.02h56.69v17.01h-56.69z"/><path class="cls-4" d="M226.77 456.39h-34.01l-5.67-45.37h45.35l-5.67 45.37z"/><path class="cls-5" d="M189.09 428l.66 5.67h22.18a8.19 8.19 0 018.19 8.18v.2l-.17 1.45a.09.09 0 010 .05l-1.84 12.81h8.67l3.66-28.36z"/><path class="cls-2" d="M419.53 356.33s22.67-22.68 48.19-8.5"/><path class="cls-9" d="M496.11 367.56a2.57 2.57 0 002.12-3.87c-1.22-2.06-12.12-20.26-18.13-23.55A14.17 14.17 0 00466.5 365c6.01 3.3 27.21 2.65 29.61 2.56z"/><path class="cls-7" d="M498.27 366.23L461 345.83a14.13 14.13 0 005.5 19.17c6 3.29 27.21 2.64 29.61 2.55a2.58 2.58 0 002.16-1.32z"/><path class="cls-9" d="M531.13 319.7a3.1 3.1 0 00.53-5.3c-2.33-1.72-23-16.83-31.22-17.66a17.1 17.1 0 00-3.43 34c8.23.86 31.49-9.82 34.12-11.04z"/><path class="cls-7" d="M532.9 317.2l-51.06-5.15A17.06 17.06 0 00497 330.77c8.23.83 31.49-9.85 34.12-11.07a3.09 3.09 0 001.78-2.5z"/><path class="cls-2" d="M419.53 356.33s17-8.5 25.51 8.5"/><path class="cls-9" d="M453.61 402.76a2.57 2.57 0 004.22-1.28c.58-2.32 5.59-22.94 3.61-29.5a14.17 14.17 0 00-27.14 8.18c1.98 6.57 17.54 20.98 19.31 22.6z"/><path class="cls-7" d="M456.08 403.32l-12.27-40.71a14.12 14.12 0 00-9.51 17.55c2 6.57 17.54 21 19.31 22.6a2.56 2.56 0 002.47.56z"/><circle class="cls-4" cx="133.23" cy="181.42" r="8.5"/><path class="cls-5" d="M133.23 172.91a8.35 8.35 0 00-2.84.5 8.49 8.49 0 010 16 8.6 8.6 0 002.84.49 8.51 8.51 0 000-17z"/><circle class="cls-4" cx="175.75" cy="170.08" r="8.5"/><path class="cls-5" d="M175.75 161.57a8.35 8.35 0 00-2.84.5 8.49 8.49 0 010 16 8.6 8.6 0 002.84.49 8.51 8.51 0 000-17z"/><circle class="cls-4" cx="221.1" cy="164.41" r="8.5"/><path class="cls-5" d="M221.1 155.91a8.58 8.58 0 00-2.83.49 8.49 8.49 0 010 16 8.5 8.5 0 102.83-16.51z"/><circle class="cls-4" cx="121.89" cy="172.91" r="8.5"/><path class="cls-5" d="M121.89 164.41a8.5 8.5 0 00-2.83.49 8.5 8.5 0 010 16 8.25 8.25 0 002.83.5 8.51 8.51 0 000-17z"/><circle class="cls-4" cx="218.27" cy="272.13" r="8.5"/><path class="cls-5" d="M218.27 263.62a8.35 8.35 0 00-2.84.5 8.49 8.49 0 010 16 8.6 8.6 0 002.84.49 8.51 8.51 0 000-17z"/><circle class="cls-4" cx="206.93" cy="272.13" r="8.5"/><path class="cls-5" d="M206.93 263.62a8.35 8.35 0 00-2.84.5 8.49 8.49 0 010 16 8.6 8.6 0 002.84.49 8.51 8.51 0 000-17z"/><circle class="cls-4" cx="212.6" cy="283.46" r="8.5"/><path class="cls-5" d="M212.6 275a8.6 8.6 0 00-2.84.49 8.49 8.49 0 010 16 8.35 8.35 0 002.84.5 8.51 8.51 0 000-17z"/><circle class="cls-4" cx="119.06" cy="187.09" r="8.5"/><path class="cls-5" d="M119.06 178.58a8.35 8.35 0 00-2.84.5 8.49 8.49 0 010 16 8.6 8.6 0 002.84.49 8.51 8.51 0 000-17z"/><path d="M144.57 249.19h-11.34v22.68h11.34a67.44 67.44 0 0131.6 7.85 113.62 113.62 0 0020.25-14.12 90.08 90.08 0 00-51.85-16.41z" fill="#f4a03e"/><circle class="cls-4" cx="206.93" cy="158.74" r="8.5"/><path class="cls-5" d="M206.93 150.24a8.6 8.6 0 00-2.84.49 8.49 8.49 0 010 16 8.6 8.6 0 002.84.49 8.5 8.5 0 000-17z"/><path class="cls-9" d="M235.64 155.8a2.57 2.57 0 002.11-3.87c-1.22-2.07-12.11-20.27-18.13-23.56A14.17 14.17 0 00206 153.24c6 3.29 27.24 2.64 29.64 2.56z"/><path class="cls-7" d="M237.79 154.46l-37.3-20.4a14.13 14.13 0 005.51 19.18c6 3.29 27.22 2.64 29.62 2.56a2.54 2.54 0 002.17-1.34z"/><path class="cls-9" d="M179.54 203.88a2.57 2.57 0 003.3 2.93c2.28-.74 22.45-7.31 27-12.44a14.18 14.18 0 00-21.23-18.79c-4.54 5.13-8.61 25.95-9.07 28.3z"/><path class="cls-7" d="M180.36 206.28l28.19-31.83a14.14 14.14 0 00-19.94 1.13c-4.54 5.13-8.62 25.95-9.07 28.3a2.56 2.56 0 00.82 2.4z"/><path class="cls-9" d="M102.26 387.3a2.57 2.57 0 003.3 2.93c2.28-.74 22.45-7.31 27-12.44A14.18 14.18 0 00111.33 359c-4.54 5.13-8.62 25.94-9.07 28.3z"/><path class="cls-7" d="M103.08 389.7l28.19-31.84a14.14 14.14 0 00-19.94 1.14c-4.54 5.13-8.62 25.94-9.07 28.3a2.56 2.56 0 00.82 2.4z"/><path class="cls-3" d="M223.1 244.73c-26.46-16.18-45.6-20.06-61.19 1.88"/><path class="cls-9" d="M150.27 261.12a2.11 2.11 0 002.72 2.4c1.87-.6 18.44-6 22.17-10.21a11.64 11.64 0 00-17.43-15.44c-3.73 4.22-7.09 21.31-7.46 23.25z"/><path class="cls-7" d="M151 263.09l23.15-26.15a11.62 11.62 0 00-16.37.93c-3.73 4.22-7.09 21.31-7.46 23.25a2.1 2.1 0 00.68 1.97z"/><path class="cls-9" d="M267.36 192.75a2.07 2.07 0 001.85-.95 2.1 2.1 0 00.14-2.07c-.86-1.78-8.56-17.4-13.27-20.5a11.64 11.64 0 00-12.79 19.45c4.71 3.1 22.1 3.98 24.07 4.07z"/><path class="cls-7" d="M269.21 191.8L240 172.61a11.6 11.6 0 003.25 16.07c4.7 3.1 22.1 4 24.07 4.07a2.07 2.07 0 001.89-.95z"/><path class="cls-3" d="M212.6 265.62s11.34-19.84 31.18-2.83"/><path class="cls-1" d="M280.63 206.09l34.02 11.34H277.8l2.83-11.34zM269.29 225.94l34.02 11.34h-36.85l2.83-11.34z"/><path class="cls-12" d="M124.72 249.19h17.01v22.68h-17.01z"/><path class="cls-9" d="M410.56 137a2.83 2.83 0 002.27-3.29L408.65 111a2.84 2.84 0 011.4-3c1.23-.69 2.48-1.38 3.75-2a2.82 2.82 0 014.1 2l1.89 10.31a2.82 2.82 0 003.28 2.27 2.82 2.82 0 002.27-3.29l-2.48-13.52a2.82 2.82 0 011.56-3.06l2.58-1.27a2.82 2.82 0 013.95 2.06l.57 3.08a2.82 2.82 0 003.28 2.27 2.82 2.82 0 002.27-3.29L436 97.82a2.8 2.8 0 011.67-3.1c4.15-1.77 7.73-3.21 10.25-4.2a2.81 2.81 0 013.85 2.65c0 2.71-.11 6.57-.29 11.08a2.81 2.81 0 01-2.31 2.66l-5.75 1.09a2.82 2.82 0 00-2.27 3.28 2.84 2.84 0 003.29 2.27l3.09-.57a2.82 2.82 0 013.32 3c-.06.93-.13 1.87-.21 2.81a2.81 2.81 0 01-2.3 2.55l-13.52 2.48a2.82 2.82 0 00-2.27 3.28 2.82 2.82 0 003.28 2.27l10.31-1.89a2.81 2.81 0 013.31 3.12c-.18 1.43-.37 2.85-.59 4.24a2.83 2.83 0 01-2.28 2.36l-22.75 4.18a2.82 2.82 0 00-2.26 3.28 2.82 2.82 0 003.28 2.27l18.2-3.34a2.82 2.82 0 013.21 3.59 27.81 27.81 0 01-3.35 7.76c-9.14 13.25-27.64 16.35-41.32 6.91s-17.36-27.85-8.22-41.15a28.09 28.09 0 016.07-5.9 2.83 2.83 0 014.5 1.73l3.34 18.2a2.82 2.82 0 003.28 2.27z"/><path class="cls-7" d="M399.44 114.8a2.83 2.83 0 014.5 1.73l3.34 18.2a2.82 2.82 0 105.55-1L408.65 111a2.84 2.84 0 011.4-3c1.23-.69 2.48-1.38 3.75-2a2.82 2.82 0 014.1 2l1.89 10.31a2.82 2.82 0 105.55-1l-2.48-13.52a2.82 2.82 0 011.56-3.06l2.58-1.29a2.82 2.82 0 013.95 2.06l.57 3.08a2.82 2.82 0 105.55-1L436 97.82a2.8 2.8 0 011.67-3.1c4.15-1.77 7.73-3.21 10.25-4.2a2.77 2.77 0 012.63.3l-49 71c-13.68-9.44-17.36-27.83-8.22-41.08a28.09 28.09 0 016.11-5.94z"/></g></svg>