<svg xmlns="http://www.w3.org/2000/svg" viewBox="0 0 566.93 566.93"><defs><style>.cls-10,.cls-2,.cls-20,.cls-5{fill:none}.cls-10,.cls-2,.cls-5{stroke:#333f00}.cls-2,.cls-5{stroke-linecap:round}.cls-2{stroke-linejoin:round}.cls-2,.cls-20{stroke-width:3px}.cls-3{fill:#6e7832}.cls-4{fill:#324100}.cls-10,.cls-20,.cls-5{stroke-miterlimit:10}.cls-10,.cls-5{stroke-width:4px}.cls-6{fill:#ff8764}.cls-7{fill:#d25a3c}.cls-8{fill:#e2ab93}.cls-11{fill:#006464}.cls-12{fill:#0f373c}.cls-13{fill:#001e1d}.cls-14{fill:#ffd1b8}.cls-16{fill:#a87462}.cls-17{fill:#8e503f}.cls-18{fill:#f5a03c}.cls-20{stroke:#001e1d}</style></defs><path fill="#fff" d="M0 0h566.93v566.93H0z" id="Tlo"/><g id="Ilustracja"><path class="cls-2" d="M382.68 327.1c7.48-14.17 22.45-31.18 37.41-25.51s10 19.84 10 19.84M231.1 320.28c-9.34-10-21.43-15.56-31.08-13.83a18 18 0 00-7.7 3.37"/><path class="cls-3" d="M184.73 296.08L172 312.31c-3.26 4.17-1 9.14 4.25 9.48l20.55 1.34a9.48 9.48 0 008.76-4.78l.59-1.14a5.37 5.37 0 00-3.61-8 5.38 5.38 0 01-3.54-8.11 5.37 5.37 0 00-3.61-8.05l-1.24-.32a9.48 9.48 0 00-9.42 3.35z"/><path class="cls-4" d="M202.57 309.16a5.37 5.37 0 013.6 8.06l-.59 1.14a9.47 9.47 0 01-8.75 4.77l-20.56-1.33a6 6 0 01-5.32-3.31l27.71-12.41a5.6 5.6 0 003.91 3.08z"/><path class="cls-5" d="M249.45 172.91v102.05"/><rect class="cls-6" x="226.77" y="124.72" width="45.35" height="90.71" rx="22.68"/><path class="cls-7" d="M249.45 124.72a22.54 22.54 0 00-5.67.73 22.76 22.76 0 0117 22v45.36a22.77 22.77 0 01-17 22 22.53 22.53 0 005.67.72 22.74 22.74 0 0022.68-22.67V147.4a22.75 22.75 0 00-22.68-22.68z"/><path class="cls-7" d="M270.34 201.74c.28-.68.54-1.37.76-2.08a22.32 22.32 0 001-6.72v-45.36a22.32 22.32 0 00-1-6.72c-.22-.71-.48-1.4-.76-2.08-.15-.34-.3-.68-.46-1-.28-.58-.6-1.15-.93-1.71a35.82 35.82 0 00-8.08 56.63A35.82 35.82 0 00260 213a22.92 22.92 0 009.87-10.23c.13-.35.32-.69.47-1.03z"/><path class="cls-5" d="M405.35 136.06c-31.18 34-2.83 59.53-31.18 99.22"/><path class="cls-8" d="M406.51 388.35l45.35-53.86s-19.84-5.67-39.68 14.17c-15.59 15.59-46.51 39.77-46.51 39.77z"/><path d="M448.45 333.82l-45.93 54.54h5.19l45.36-53.86a24 24 0 00-4.62-.68z" fill="#c6856d"/><path class="cls-5" d="M198.07 170.08c5.41 3.57 33.51 33.08 36.92 74.89.35 4.29.41 30.44 0 35.66"/><path class="cls-8" d="M392.29 370.7l27.24-56.05s-19.84-5.67-28.35 14.17l-8.5 19.84-37.15 34.51 31.17 6.24z"/><path class="cls-2" d="M258 334.49c-15.17-12.12-32.67-20.47-42.52-17-5 1.78-10.31 9.65-8 14.17"/><path class="cls-6" d="M385.51 204.09c0 25-10.15 45.36-22.68 45.36s-22.67-20.31-22.67-45.36 22.67-45.35 22.67-45.35 22.68 20.31 22.68 45.35z"/><path class="cls-7" d="M362.83 158.74a75 75 0 00-7.08 7.64c6.65 8.14 15.59 22 15.59 37.71 0 20.1-6.54 37.13-15.59 43.09a12.86 12.86 0 007.08 2.27c12.53 0 22.68-20.31 22.68-45.36s-22.68-45.35-22.68-45.35z"/><rect class="cls-7" x="354.33" y="204.09" width="31.18" height="11.34" rx="5.67"/><rect class="cls-6" x="345.83" y="192.76" width="31.18" height="11.34" rx="5.67"/><rect class="cls-7" x="360" y="184.25" width="22.68" height="8.5" rx="4.25"/><path class="cls-10" d="M396 280.41c.81 4.29 3.27 20.12-6.28 35a45.5 45.5 0 01-13.44 13.45"/><path class="cls-11" d="M429.4 228.23a34 34 0 00-65.1 0 34 34 0 1032.55 57.9 34 34 0 1032.55-57.9z"/><path class="cls-12" d="M429.4 228.23a34 34 0 00-45.31-21.65 34.08 34.08 0 0119.8 21.65 34 34 0 012.88 64.09 34 34 0 1022.63-64.09z"/><path class="cls-13" d="M393 270.36v18.74a34 34 0 01-47.14-47.1h32.95z"/><path class="cls-14" d="M294.8 272.13h68.03v47.33H294.8z"/><path class="cls-8" d="M385.51 340.16h-22.68v-68.03l11.34-22.68 11.34 22.68v68.03z"/><path class="cls-7" d="M374.17 249.45h-68.03l-11.34 22.68h68.03l11.34-22.68z"/><path d="M362.83 308.6v10.85h-68V288a86.26 86.26 0 0168 20.56z" fill="#e5ac93"/><path class="cls-12" d="M348.66 317.48h36.85v25.51h-36.85z"/><rect class="cls-11" x="192.76" y="328.82" width="102.05" height="87.87" rx="43.94"/><path class="cls-12" d="M206.93 372.76a44.07 44.07 0 0143.94-43.94h-14.18a44.06 44.06 0 00-43.93 43.94 44.06 44.06 0 0043.93 43.93h14.18a44.06 44.06 0 01-43.94-43.93z"/><path class="cls-3" d="M222.31 279.82c14.95 24.32 41.74 35 41.74 35s2.56-28.73-12.38-53.05-41.74-35-41.74-35-2.56 28.73 12.38 53.05z"/><path class="cls-4" d="M209.93 226.77s26.79 10.7 41.74 35 12.38 53.05 12.38 53.05z"/><path class="cls-16" d="M306.14 283.46h11.34v17.01h-11.34z"/><path class="cls-17" d="M306.14 283.46h5.67v17.01h-5.67z"/><path class="cls-11" d="M430.87 385.51a34.11 34.11 0 00-34-34h-14.7a79.67 79.67 0 00-76-56.7 79.61 79.61 0 00-79.37 79.37V394h204.1z"/><path class="cls-12" d="M396.85 351.5h-14.68a79 79 0 00-85.86-56.06 79.8 79.8 0 0166 56.06H377a34.1 34.1 0 0134 34v8.5h19.85v-8.51a34.11 34.11 0 00-34-33.99z"/><path class="cls-3" d="M209.76 286.3l-6 7.45a91.84 91.84 0 0011.47 9.64l11.5-5.75-5.69 9.48c21.59 12.6 45.07 12.55 45.07 12.55s-11.26-21.34-33.09-34.47-46-13.07-46-13.07a96.87 96.87 0 0013.37 18.16z"/><path class="cls-4" d="M187.09 272.13s24.13-.06 46 13.07 33.09 34.47 33.09 34.47z"/><path class="cls-11" d="M372.77 335c-11.9 14.54-12.77 33.5-12.77 33.5s18.42-4.6 30.32-19.14 12.77-33.5 12.77-33.5-18.42 4.6-30.32 19.14z"/><path class="cls-12" d="M403.09 315.86s-.87 19-12.77 33.5S360 368.5 360 368.5z"/><path class="cls-16" d="M340.16 283.46h11.34v17.01h-11.34z"/><path class="cls-10" d="M243.78 206.93c6.65 2.83 41.17 26.29 45.35 59.53.43 3.4.51 24.2 0 28.34"/><path class="cls-10" d="M297.71 204.09a213.25 213.25 0 00-8.5 53.86q-.15 5.82 0 11.34"/><path class="cls-3" d="M323.14 153.07a28.27 28.27 0 00-11.14 2.27 28.34 28.34 0 10-42 35.07 28.35 28.35 0 1052.61 19.34h.57a28.35 28.35 0 000-56.69z"/><path class="cls-4" d="M351.49 181.42a28.34 28.34 0 01-28.35 28.34h-.56a28.37 28.37 0 01-39.12 20.33 28.4 28.4 0 0016.44-20.33h.57a28.35 28.35 0 10-8.47-55.41c-.92.29-1.82.62-2.69 1a28.41 28.41 0 00-14.4-14.07 28.4 28.4 0 0123.23.23 19.83 19.83 0 0133.41 12.84 28.37 28.37 0 0119.94 27.07z"/><rect class="cls-4" x="283.45" y="209.76" width="31.18" height="8.5" rx="4.25"/><path class="cls-3" d="M263.62 198.43a11.19 11.19 0 00-6.31 1.92 11.33 11.33 0 10-16.53 13.45 11.34 11.34 0 1020 7.3v-.37a11.59 11.59 0 002.85.37 11.34 11.34 0 100-22.67z"/><path class="cls-4" d="M246 200.35a11.32 11.32 0 0111-.92 11.3 11.3 0 00-16-5.14 11.36 11.36 0 015 6.06zM263.62 198.43A11.23 11.23 0 00258 200a11.33 11.33 0 01-5.67 21.15 11.66 11.66 0 01-2.85-.37v.37a11.31 11.31 0 01-5.67 9.81 11.33 11.33 0 0017-9.81v-.37a11.59 11.59 0 002.85.37 11.34 11.34 0 100-22.67z"/><path class="cls-2" d="M231.56 291.11c.88-21.82-24.95-64.69-47.27-44.09a10.38 10.38 0 00.92 16.5c4.15 2.68 11.36 2.77 12.81-6.07"/><path class="cls-13" d="M334.49 348.66s-42.33 14.72 11 25.51l21.56 5.67 46.53-11.34 5.2 8.35-48.9 12.56-92.08-17.14 8.67-13z"/><rect class="cls-12" x="260.79" y="308.98" width="42.52" height="8.5" rx="4.25"/><path class="cls-11" d="M177.56 234.1a8.5 8.5 0 01-9.11 14.36c-4-2.52-9.8-16.3-9.8-16.3s14.95-.58 18.91 1.94z"/><path class="cls-12" d="M158.65 232.16s5.83 13.78 9.8 16.3a8.5 8.5 0 0011.73-2.62z"/><path class="cls-6" d="M183.73 202.89a8.51 8.51 0 0112.38 11.67c-3.22 3.42-17.86 6.54-17.86 6.54s2.26-14.79 5.48-18.21z"/><path class="cls-7" d="M178.25 221.1s14.64-3.12 17.86-6.54a8.51 8.51 0 00-.35-12z"/><path class="cls-11" d="M166.4 244.62a8.5 8.5 0 017.36 15.38c-4.24 2-19-.3-19-.3s7.4-13.05 11.64-15.08z"/><path class="cls-12" d="M154.74 259.65s14.78 2.33 19 .3a8.5 8.5 0 004-11.35z"/><path class="cls-5" d="M192.76 195.59c2.71 0 24.47.31 35 19.84a44.44 44.44 0 014.67 14.18"/><circle class="cls-18" cx="362.83" cy="317.48" r="8.5"/><circle class="cls-18" cx="436.54" cy="303.31" r="8.5"/><path class="cls-5" d="M388.53 198.43c1.84-3.81 9.27-18.09 22.59-18.79a21.42 21.42 0 018.31 1.28"/><path class="cls-17" d="M340.16 283.46h5.67v17.01h-5.67zM294.8 272.13h68.03v2.83H294.8z"/><path class="cls-18" d="M283.27 275.06a23.64 23.64 0 00.19-2.93 22.68 22.68 0 10-45.35 0 21.85 21.85 0 00.2 2.93 22.67 22.67 0 1022.48 39.38 22.67 22.67 0 1022.48-39.38z"/><path d="M283.27 275.06a23.64 23.64 0 00.19-2.93 22.67 22.67 0 00-22.67-22.68v5.67h-4.25a4.25 4.25 0 100 8.5h9.92a5.67 5.67 0 010 11.34H258a5.68 5.68 0 00-5.67 5.67 5.68 5.68 0 005.67 5.67h2.84v28.14a22.67 22.67 0 1022.48-39.38z" fill="#d17820"/><path class="cls-11" d="M263.34 315.53a17 17 0 10-33.2-.26 17 17 0 1016.38 29 17 17 0 1016.82-28.69z"/><path class="cls-12" d="M263.34 315.53a17 17 0 00-23.54-19.31 16.94 16.94 0 019.36 19.2 17 17 0 011.6 31.62 17 17 0 1012.58-31.51z"/><rect class="cls-12" x="240.94" y="314.65" width="17.01" height="5.67" rx="2.83"/><path class="cls-14" d="M476.22 382.68l-153.36 49.14-84.17 7.55s-48.77 5.67-65.43 53.39c-21.12-15.3-42.28-29-57-50.56 53.86-34 72.42-85.76 122.47-97.67 25-5.95 81-19.35 90.13-21.38 25.51-5.67 30.62 16.16 5.67 25.51s-51 19.84-51 19.84l85 17s95.22-30.88 107.69-2.82z"/><path class="cls-8" d="M459.7 372.56L308.68 421l-84.17 7.55s-48.76 5.67-65.43 53.39c-7-5.1 2.1 2.59 14.18 11.34 16.66-47.72 65.43-53.39 65.43-53.39l84.17-7.55 153.36-49.14c-2.55-5.79-8.57-9.07-16.52-10.64z"/><rect class="cls-12" x="388.35" y="221.1" width="28.35" height="8.5" rx="4.25"/><rect class="cls-12" x="408.19" y="238.11" width="28.35" height="8.5" rx="4.25"/><rect class="cls-11" x="394.02" y="229.61" width="28.35" height="8.5" rx="4.25"/><path class="cls-8" d="M357.17 286.3h14.17v5.67h-14.17zM354.33 294.8h11.34v5.67h-11.34z"/><path class="cls-11" d="M424.22 122.58a16.48 16.48 0 001.62-3.32 17 17 0 00-32-11.39 16.65 16.65 0 00-.85 3.6 17 17 0 106 32.71 17 17 0 1025.28-21.6z"/><path class="cls-12" d="M424.22 122.58a16.48 16.48 0 001.62-3.32 17 17 0 00-10.33-21.72 16.78 16.78 0 00-7.2-.9 17 17 0 012.56 21.2 17 17 0 01-8.85 30.4 16.75 16.75 0 006.14 3.84 17 17 0 0016.06-29.5z"/><rect class="cls-12" x="402.52" y="116.22" width="17.01" height="5.67" rx="2.83"/><rect class="cls-12" x="408.19" y="127.56" width="17.01" height="5.67" rx="2.83"/><rect class="cls-11" x="402.52" y="121.89" width="17.01" height="5.67" rx="2.83"/><path class="cls-11" d="M442.2 161.57h-2.94a9.91 9.91 0 00-19.62 0h-.11a8.54 8.54 0 00-8.51 8.51v2.83a8.51 8.51 0 000 17h22.68a8.52 8.52 0 008.5-8.5v-2.84a8.51 8.51 0 100-17z"/><path class="cls-12" d="M442.2 161.57h-2.94a10 10 0 00-9.81-8.5 9.83 9.83 0 00-5.67 1.8 10 10 0 014.14 6.7h2.95a8.51 8.51 0 010 17v2.84a8.53 8.53 0 01-8.51 8.5h11.34a8.52 8.52 0 008.5-8.5v-2.84a8.51 8.51 0 100-17z"/><rect class="cls-12" x="419.53" y="178.58" width="17.01" height="5.67" rx="2.83"/><rect class="cls-12" x="422.36" y="161.57" width="19.84" height="5.67" rx="2.83"/><path class="cls-11" d="M177.08 190.06a8.5 8.5 0 013 16.74c-4.62.82-18.24-5.38-18.24-5.38s10.62-10.54 15.24-11.36z"/><path class="cls-12" d="M161.84 201.42s13.62 6.2 18.24 5.38a8.51 8.51 0 006.87-9.87z"/><path class="cls-11" d="M405.81 313.72a8.5 8.5 0 1114.11-9.49c2.62 3.9 2.44 18.86 2.44 18.86s-13.93-5.47-16.55-9.37z"/><path class="cls-12" d="M422.36 323.09s.18-15-2.44-18.86a8.5 8.5 0 00-11.8-2.31z"/><circle class="cls-6" cx="323.15" cy="212.6" r="5.67"/><path class="cls-7" d="M323.15 206.93a6.07 6.07 0 00-1.42.18 5.66 5.66 0 010 11 5.59 5.59 0 001.42.19 5.67 5.67 0 100-11.34z"/><circle class="cls-6" cx="263.62" cy="226.77" r="5.67"/><path class="cls-7" d="M263.62 221.1a5.59 5.59 0 00-1.42.19 5.66 5.66 0 010 11 6.07 6.07 0 001.42.18 5.67 5.67 0 000-11.34z"/><circle class="cls-6" cx="303.31" cy="229.61" r="5.67"/><path class="cls-7" d="M303.31 223.94a6 6 0 00-1.42.18 5.66 5.66 0 010 11 5.53 5.53 0 001.42.19 5.67 5.67 0 100-11.34z"/><path class="cls-4" d="M289.13 181.42a8.52 8.52 0 01-8.5 8.5h-11.34c-.38-.28-.75-.58-1.12-.88s-.55-.47-.82-.71c-.29-.26-.57-.52-.84-.79l-1-1c-.34-.34-.57-.63-.84-.95s-.43-.51-.63-.77l-.33-.43q-.27-.35-.51-.69l-.23-.32c-.2-.28-.39-.58-.58-.87s-.45-.73-.67-1.1-.33-.59-.49-.89c-.28-.53-.54-1.07-.79-1.62-.14-.32-.28-.63-.41-1s-.32-.8-.46-1.21-.28-.82-.41-1.24-.24-.84-.35-1.26c-.1-.42-.19-.84-.28-1.27a28.54 28.54 0 01-.58-5.67 28.18 28.18 0 011.46-9 22.69 22.69 0 0021.22 14.66 8.53 8.53 0 018.5 8.51z"/><path class="cls-8" d="M351.58 418.85a37.92 37.92 0 00-23.15-15.43 38.1 38.1 0 00-18.36.46c-.58.16-1.16.33-1.73.52a39 39 0 00-5 2c-1.06.52-2.1 1.1-3.12 1.73a37.21 37.21 0 00-6.94 5.54 36.79 36.79 0 00-3.47 4.11 34.58 34.58 0 00-2.85 4.64 35.88 35.88 0 00-1.52 3.35 36.67 36.67 0 00-1.62 5.38 24.48 24.48 0 00-.4 2.58l30-2.69z"/><path class="cls-7" d="M354.33 249.45h-25.51v-14.17h14.17l11.34 14.17z"/><path class="cls-14" d="M340.16 249.45l-11.34-14.17-11.34 14.17v22.68h22.68v-22.68z"/><path class="cls-8" d="M354.33 249.45h-14.17v22.68l14.17-22.68z"/><path class="cls-17" d="M317.48 249.45h22.68v2.83h-22.68z"/><path class="cls-16" d="M323.15 272.13v-8.51a5.68 5.68 0 015.67-5.67 5.68 5.68 0 015.67 5.67v8.51z"/><path class="cls-17" d="M331.65 258.72a5.65 5.65 0 00-8.5 4.9v8.51h5.67v-8.51a5.69 5.69 0 012.83-4.9z"/><path class="cls-8" d="M317.48 252.28h25.51v2.83h-25.51zM294.8 274.96h70.87v2.83H294.8z"/><path class="cls-20" d="M306.14 371.34c10 2.16 32.42 8.49 51 28.35a93.81 93.81 0 0117 25.51"/><path class="cls-20" d="M320.29 371.34c3.19 2.82 16.34 15.07 17 34a44.16 44.16 0 01-2.84 17"/><path class="cls-3" d="M379.84 436.54l9.82-3.93c.38-2.51.66-5 .81-7.41H377l13.48-5.78a19.19 19.19 0 00-1.47-6.74 22.68 22.68 0 00-41 19.37c5.35 11.33 36.24 23.64 36.24 23.64a177.77 177.77 0 004.75-19.15z"/><path class="cls-4" d="M384.24 455.69l-25.41-53.83A22.69 22.69 0 00348 432.05c5.35 11.33 36.24 23.64 36.24 23.64z"/><path class="cls-11" d="M324.2 435a2.82 2.82 0 01-.86 3.9l-19.47 12.47a2.82 2.82 0 00-1.22 3c.33 1.37.68 2.75 1.05 4.15a2.82 2.82 0 004.25 1.63l8.83-5.65a2.81 2.81 0 013.89.86 2.81 2.81 0 01-.85 3.89l-11.58 7.42a2.82 2.82 0 00-1.17 3.23l.87 2.68a2.82 2.82 0 004.2 1.48l2.65-1.69a2.81 2.81 0 013.89.85 2.83 2.83 0 01-.85 3.9l-4.92 3.15a2.82 2.82 0 00-1.13 3.34c1.55 4.24 2.93 7.84 3.93 10.36a2.82 2.82 0 004.57 1c2-1.87 4.72-4.56 7.9-7.77a2.81 2.81 0 00.37-3.5l-3.15-4.92a2.83 2.83 0 01.85-3.9 2.83 2.83 0 013.9.86l1.69 2.64a2.83 2.83 0 004.44.41c.64-.68 1.27-1.37 1.91-2.07a2.82 2.82 0 00.29-3.42l-7.41-11.58a2.83 2.83 0 01.85-3.9 2.82 2.82 0 013.9.86l5.65 8.82a2.81 2.81 0 004.54.29q1.38-1.67 2.7-3.32a2.85 2.85 0 00.17-3.28l-12.48-19.45a2.83 2.83 0 01.86-3.9 2.82 2.82 0 013.9.86l10 15.58a2.82 2.82 0 004.81-.1 28 28 0 003.39-7.75c3.45-15.73-6.92-31.36-23.15-34.92s-32.19 6.3-35.64 22a28.25 28.25 0 00-.17 8.46 2.83 2.83 0 004.34 2.1l15.58-10a2.83 2.83 0 013.88.93z"/><path class="cls-12" d="M300.38 442a2.83 2.83 0 004.34 2.1l15.58-10a2.82 2.82 0 013 4.76l-19.47 12.47a2.82 2.82 0 00-1.22 3c.33 1.37.68 2.75 1.05 4.15a2.82 2.82 0 004.25 1.63l8.83-5.65a2.82 2.82 0 013 4.75l-11.58 7.42a2.82 2.82 0 00-1.17 3.23l.87 2.68a2.82 2.82 0 004.2 1.48l2.65-1.69a2.82 2.82 0 013 4.75l-4.92 3.15a2.82 2.82 0 00-1.13 3.34c1.55 4.24 2.93 7.84 3.93 10.36a2.81 2.81 0 002 1.72l18.46-84.21c-16.24-3.56-32.19 6.3-35.64 22a28.25 28.25 0 00-.03 8.56z"/></g></svg>