<svg xmlns="http://www.w3.org/2000/svg" viewBox="0 0 566.93 566.93"><defs><style>.cls-26{fill:#faebdc}.cls-3{fill:#ffdfca}.cls-5{fill:#006464}.cls-7{fill:#002728}.cls-8{fill:#001919}.cls-9{fill:#c1391e}.cls-10,.cls-17{fill:none}.cls-10{stroke:#002828;stroke-linecap:round;stroke-linejoin:round;stroke-width:2px}.cls-11{fill:#003f3f}.cls-12{fill:#ff8764}.cls-13{fill:#e56445}.cls-14,.cls-18{fill:#4c1f00}.cls-15{fill:#e6a073}.cls-17{stroke:#4c1f00;stroke-miterlimit:10}.cls-18{opacity:.5;mix-blend-mode:hard-light}.cls-21{fill:#872702}.cls-22{fill:#00bcb7}.cls-23{fill:#fff}.cls-23,.cls-26{mix-blend-mode:soft-light}</style></defs><g style="isolation:isolate"><path fill="#faebdc" d="M0 0h566.93v566.93H0z" id="Tlo"/><g id="Ilustracja"><circle class="cls-3" cx="272.13" cy="53.86" r="28.35"/><path d="M298.05 65.33A146.8 146.8 0 00272.13 63q-4.32 0-8.58.26a4.86 4.86 0 01-5.05-3.91 27.85 27.85 0 01-.55-5.52 28.37 28.37 0 0121.26-27.43 28.39 28.39 0 00-35.33 25 28.3 28.3 0 007.94 22.24 19.18 19.18 0 001.46 1.39c.47.42.95.82 1.45 1.2l.13.11c.51.39 1 .76 1.57 1.12h.08c.49.33 1 .64 1.52.93l.24.14c.55.31 1.1.6 1.67.87l.13.06c.51.24 1 .47 1.58.68l.35.14c.57.22 1.16.42 1.75.6h.15c.54.16 1.09.3 1.65.44l.43.1c.61.13 1.22.25 1.84.34h.11c.58.08 1.17.15 1.77.2h.48c.63.05 1.27.07 1.92.07s1.34 0 2-.07c.21 0 .42 0 .63-.06.45 0 .9-.09 1.34-.15l.72-.12c.41-.06.83-.14 1.24-.23l.7-.16.45-.1a28.43 28.43 0 0018.87-15.81z" fill="#e2bbaa"/><path class="cls-3" d="M413.86 209.76v266.46H130.39V209.76a140.57 140.57 0 019.55-51c.35-.9.71-1.8 1.08-2.69 1-2.54 2.17-5.05 3.37-7.51C167.33 101 216.06 68 272.13 68s104.78 33 127.73 80.49c1.19 2.47 2.32 5 3.37 7.53.37.89.73 1.79 1.08 2.69a140.36 140.36 0 019.55 51.05z"/><path class="cls-5" d="M413.86 209.76v280.63H130.39V209.76a140.57 140.57 0 019.55-51c.35-.9.71-1.8 1.08-2.69 1-2.54 2.17-5.05 3.37-7.51 3.51 1.64 5.22 4.52 11.16 4.52 8.33 0 8.33-5.66 16.65-5.66s8.33 5.66 16.65 5.66 8.33-5.66 16.65-5.66 8.33 5.66 16.65 5.66 8.33-5.66 16.65-5.66 8.33 5.66 16.66 5.66 8.32-5.66 16.65-5.66 8.33 5.66 16.65 5.66 8.33-5.66 16.66-5.66 8.32 5.66 16.65 5.66 8.33-5.66 16.65-5.66 8.33 5.66 16.66 5.66 8.33-5.66 16.66-5.66 8.32 5.66 16.65 5.66c5.95 0 7.65-2.89 11.17-4.54 1.19 2.47 2.32 5 3.37 7.53.37.89.73 1.79 1.08 2.69a140.36 140.36 0 019.55 51z"/><path d="M413.86 209.76V498.9H130.39V209.76a140.57 140.57 0 019.55-51c.35-.9.71-1.8 1.08-2.69 6.27.87 7 5.52 14.53 5.52 8.33 0 8.33-5.66 16.65-5.66s8.33 5.66 16.65 5.66 8.33-5.66 16.65-5.66 8.33 5.66 16.65 5.66 8.33-5.66 16.65-5.66 8.33 5.66 16.66 5.66 8.32-5.66 16.65-5.66 8.33 5.66 16.65 5.66 8.33-5.66 16.66-5.66 8.32 5.66 16.65 5.66 8.33-5.66 16.65-5.66 8.33 5.66 16.66 5.66 8.33-5.66 16.66-5.66 8.32 5.66 16.65 5.66c7.56 0 8.26-4.66 14.54-5.52.37.89.73 1.79 1.08 2.69a140.36 140.36 0 019.55 51z" fill="#00a8a3"/><path class="cls-7" d="M130.39 442.2h283.46v34.02H130.39z"/><path class="cls-8" d="M130.39 464.88h283.46v11.34H130.39z"/><ellipse class="cls-7" cx="165.83" cy="339.76" rx="7.09" ry="36.85"/><ellipse class="cls-7" cx="401.1" cy="385.11" rx="7.09" ry="36.85"/><circle class="cls-9" cx="311.81" cy="379.45" r="25.51"/><ellipse class="cls-7" cx="231.02" cy="353.93" rx="9.92" ry="48.19"/><ellipse class="cls-7" cx="216.85" cy="328.42" rx="9.92" ry="48.19"/><ellipse class="cls-7" cx="205.51" cy="342.59" rx="9.92" ry="48.19"/><path class="cls-10" d="M184.09 328.42c-15.17-40.49 7.55-77-14-107.32M195.59 223.94c12.9 32.08-16.38 61.54-16.38 61.54M178.58 286.3c4.5-.18 29.15-14.57 39.69-42.52"/><path class="cls-5" d="M255.12 396.45a36.85 36.85 0 01-59.53 29 36.85 36.85 0 11-35.26-63.68 36.85 36.85 0 1170.53 0 36.86 36.86 0 0124.26 34.68z"/><path class="cls-11" d="M160.33 361.81a36.85 36.85 0 0135.26-47.56v111.24a36.85 36.85 0 11-35.26-63.68z"/><rect class="cls-5" x="158.74" y="390.78" width="73.7" height="34.02" rx="17.01"/><rect class="cls-11" x="150.24" y="370.94" width="53.86" height="19.84" rx="9.92"/><rect class="cls-5" x="178.58" y="356.77" width="36.85" height="14.17" rx="7.09"/><rect class="cls-11" x="178.58" y="331.26" width="34.02" height="25.51" rx="12.76"/><path class="cls-5" d="M212.6 318.4v.1a12.8 12.8 0 01-12.75 12.76h-8.51a12.79 12.79 0 01-12.75-12.76v-.11a37 37 0 0134 0z"/><rect class="cls-12" x="223.94" y="348.26" width="22.68" height="68.03" rx="11.34"/><path class="cls-13" d="M235.28 348.26a11.38 11.38 0 00-11.34 11.34V405a11.38 11.38 0 0011.34 11.34z"/><path class="cls-10" d="M340.16 388c18.72-13.06 24.19-25.1 25.51-34 1-6.56-.24-11.92 2.83-19.84 3.78-9.71 9.17-19.15 15-23"/><rect class="cls-12" x="374.17" y="365.27" width="22.68" height="68.03" rx="11.34"/><path class="cls-13" d="M385.51 365.27a11.38 11.38 0 00-11.34 11.34V422a11.38 11.38 0 0011.34 11.34z"/><path class="cls-14" d="M243.78 297.64l2.69-19.84 2.98 19.84h-5.67zM283.46 297.64l2.7-19.84 2.97 19.84h-5.67z"/><path class="cls-15" d="M215.43 394.02h11.34v51.02h-11.34z"/><path class="cls-14" d="M221.1 365.67l-5.67 28.35h11.34l-5.67-28.35z"/><path class="cls-15" d="M246.61 303.31h25.51v100.21h-25.51z"/><path class="cls-14" d="M272.13 303.31h14.17v100.21h-14.17z"/><path class="cls-15" d="M243.78 297.64h5.67v25.51h-5.67z"/><path class="cls-14" d="M283.46 297.64h5.67v25.51h-5.67zM246.61 402.52h-31.18l16.88-22.68h14.3v22.68z"/><path fill="#260f00" d="M303.31 402.52h-31.18l10.77-22.68h26.08l-5.67 22.68z"/><path class="cls-15" d="M215.43 402.52h87.87v42.52h-87.87z"/><path class="cls-14" d="M246.61 323.15h28.35v5.67h-28.35zM249.45 314.51h19.84v2.98h-19.84zM209.76 368.5l-5.67 28.35h11.34l-5.67-28.35zM308.98 368.5l-5.67 28.35h11.34l-5.67-28.35zM249.45 348.66v-14.17a2.84 2.84 0 012.83-2.84 2.85 2.85 0 012.84 2.84v14.17zM249.45 377v-11.33a2.84 2.84 0 012.83-2.84 2.85 2.85 0 012.84 2.84V377zM249.45 402.52v-11.34a2.83 2.83 0 012.83-2.83 2.84 2.84 0 012.84 2.83v11.34zM249.45 422.36v-8.5a2.84 2.84 0 012.83-2.84 2.85 2.85 0 012.84 2.84v8.5zM260.79 422.36v-8.5a2.84 2.84 0 012.83-2.84 2.85 2.85 0 012.84 2.84v8.5zM277.8 422.36v-8.5a2.84 2.84 0 012.83-2.84 2.84 2.84 0 012.83 2.84v8.5zM289.13 422.36v-8.5A2.85 2.85 0 01292 411a2.84 2.84 0 012.83 2.84v8.5zM277.8 439.37v-8.5a2.84 2.84 0 012.83-2.84 2.84 2.84 0 012.83 2.84v8.5zM289.13 439.37v-8.5A2.85 2.85 0 01292 428a2.84 2.84 0 012.83 2.84v8.5zM223.94 422.36v-8.5a2.84 2.84 0 012.83-2.84 2.85 2.85 0 012.84 2.84v8.5zM235.28 422.36v-8.5a2.84 2.84 0 012.83-2.84 2.84 2.84 0 012.83 2.84v8.5zM223.94 439.37v-8.5a2.84 2.84 0 012.83-2.84 2.85 2.85 0 012.84 2.84v8.5zM235.28 439.37v-8.5a2.84 2.84 0 012.83-2.84 2.84 2.84 0 012.83 2.84v8.5zM260.79 377v-11.33a2.84 2.84 0 012.83-2.84 2.85 2.85 0 012.84 2.84V377zM260.79 402.52v-11.34a2.83 2.83 0 012.83-2.83 2.84 2.84 0 012.84 2.83v11.34zM260.79 348.66v-14.17a2.84 2.84 0 012.83-2.84 2.85 2.85 0 012.84 2.84v14.17zM249.45 445v-8.5A8.53 8.53 0 01258 428a8.54 8.54 0 018.51 8.51V445z"/><path class="cls-15" d="M269.29 297.64h5.67v25.51h-5.67z"/><path class="cls-14" d="M249.45 317.48v-9.92a1.43 1.43 0 011.42-1.42 1.42 1.42 0 011.41 1.42v9.92zM266.46 317.48v-9.92a1.42 1.42 0 011.41-1.42 1.43 1.43 0 011.42 1.42v9.92zM260.79 317.48v-9.92a1.42 1.42 0 011.41-1.42 1.43 1.43 0 011.42 1.42v9.92zM255.12 317.48v-9.92a1.43 1.43 0 011.42-1.42 1.42 1.42 0 011.41 1.42v9.92z"/><path class="cls-15" d="M204.09 396.85h11.34v48.19h-11.34zM303.31 396.85h11.34v48.19h-11.34z"/><rect class="cls-14" x="257.95" y="252.28" width="17.01" height="5.67" rx="2.83"/><path class="cls-14" d="M272.13 405.35h31.18v2.83h-31.18zM215.43 405.35h31.18v2.83h-31.18z"/><path class="cls-14" d="M272.13 405.35h2.83v39.69h-2.83z"/><path class="cls-17" d="M272.13 354.33h-25.52M272.13 379.84h-25.52"/><path class="cls-14" d="M279.93 303.31h-27.65l12.76-73.7h2.98l11.91 73.7z"/><path class="cls-15" d="M269.29 297.64l2.69-19.84 2.98 19.84h-5.67z"/><path class="cls-18" d="M246.61 353.93l25.52-25.51h-25.52v25.51zM246.61 379.44l25.52-22.67h-25.52v22.67zM246.61 404.96l25.52-22.68h-25.52v22.68z"/><ellipse class="cls-12" cx="331.65" cy="386.53" rx="22.68" ry="55.28"/><path class="cls-13" d="M309 386.53c0 30.53 10.15 55.28 22.67 55.28V331.26c-12.54 0-22.67 24.74-22.67 55.27z"/><circle class="cls-12" cx="331.65" cy="356.77" r="11.34"/><circle class="cls-13" cx="331.65" cy="379.45" r="11.34"/><path class="cls-5" d="M328.82 399.69a22.68 22.68 0 1145.35 0A22.68 22.68 0 11362.83 442a22.65 22.65 0 01-22.67 0 22.68 22.68 0 11-11.34-42.31z"/><path class="cls-11" d="M328.82 399.69a22.67 22.67 0 0134-19.64 22.66 22.66 0 00-11.33 19.64A22.67 22.67 0 00340.16 442a22.68 22.68 0 11-11.34-42.31z"/><path class="cls-10" d="M362.83 314.25c-9.49 22-1.43 51.94-1.43 51.94M399.69 325.59c-10.86-.78-27.51 9.5-33.9 27.29"/><circle class="cls-5" cx="201.26" cy="427.63" r="14.17"/><rect class="cls-11" x="297.64" y="433.7" width="34.02" height="11.34" rx="5.67"/><path class="cls-10" d="M345.93 390.24c-21.6-50-23.34-70.45-20-79.39a30.41 30.41 0 002.51-16.28c-.86-7-3-11.31-5.32-14.63M328.82 342.59C303.31 311.41 311.06 281 311.06 281M342.17 280.68c0 9.16-4.85 34-16.19 42.47M336.32 366.5c-8.5-19.07-30.18-4.06-41.52-26.74"/><path class="cls-5" d="M314.65 445A11.37 11.37 0 01326 433.7h22.68A11.37 11.37 0 01360 445h-45.35z"/><path class="cls-11" d="M340.16 445a17 17 0 1134 0"/><path class="cls-7" d="M172.86 363.81a11.43 11.43 0 00-.56-2.58 12.39 12.39 0 00-.72-1.73c-.18-.34-.38-.68-.59-1a11.77 11.77 0 00-1.5-1.83c-4.56-4.56-24.78-8.26-24.78-8.26s3.7 20.22 8.26 24.78a11.68 11.68 0 0016.52 0 11.65 11.65 0 003.21-6 11.94 11.94 0 00.21-2.23 10.38 10.38 0 00-.05-1.15z"/><path class="cls-13" d="M398.26 333.86a4.55 4.55 0 118.37-3.57c1 2.31-.62 10.16-.62 10.16s-6.77-4.28-7.75-6.59z"/><path class="cls-12" d="M406 340.45l-5.35-12.56a4.55 4.55 0 00-2.4 6c.99 2.28 7.75 6.56 7.75 6.56z"/><path class="cls-13" d="M212.18 271.51a6 6 0 016.28-10.17c2.81 1.73 7 11.36 7 11.36s-10.46.54-13.28-1.19z"/><path class="cls-12" d="M225.49 272.7l-15.25-9.42a6 6 0 001.94 8.23c2.82 1.73 13.31 1.19 13.31 1.19z"/><path class="cls-13" d="M388.39 332.45a4.94 4.94 0 019.71 1.81c-.5 2.68-6.67 8.8-6.67 8.8s-3.54-7.93-3.04-10.61z"/><path class="cls-12" d="M391.43 343.06l2.72-14.55a4.94 4.94 0 00-5.76 3.94c-.5 2.68 3.04 10.61 3.04 10.61z"/><path class="cls-5" d="M260.79 342.59a17 17 0 0134 0z"/><path class="cls-7" d="M277.8 342.59a19.84 19.84 0 0139.68 0z"/><path class="cls-5" d="M303.31 342.59a14.17 14.17 0 1128.34 0zM289.13 285.9a17 17 0 0134 0z"/><path class="cls-7" d="M306.14 285.9a28.35 28.35 0 0156.69 0z"/><path class="cls-5" d="M340.16 285.9a14.17 14.17 0 0128.34 0z"/><path class="cls-12" d="M337.32 317.08a17 17 0 0134 0z"/><path class="cls-9" d="M354.33 317.08a19.85 19.85 0 0139.69 0z"/><path class="cls-12" d="M379.84 317.08a14.18 14.18 0 0128.35 0z"/><path class="cls-5" d="M153.07 226.77a17 17 0 1134 0z"/><path class="cls-7" d="M170.08 226.77a19.84 19.84 0 0139.68 0z"/><path class="cls-5" d="M195.59 226.77a14.18 14.18 0 0128.35 0zM165.79 353.45a11.34 11.34 0 11-16 16c-4.43-4.43-8-24.05-8-24.05s19.57 3.6 24 8.05z"/><path class="cls-11" d="M141.73 345.43l24.06 24.05a11.35 11.35 0 000-16c-4.43-4.48-24.06-8.05-24.06-8.05z"/><path class="cls-7" d="M351 445a73.7 73.7 0 00.49-8.5c0-14.09-3.81-25.52-8.51-25.52s-8.5 11.43-8.5 25.52a73.77 73.77 0 00.52 8.5z"/><path class="cls-7" d="M339.67 445a24.61 24.61 0 00.49-5c0-8.22-3.81-14.88-8.51-14.88s-8.5 6.66-8.5 14.88a24.61 24.61 0 00.49 5zM360 445a14.18 14.18 0 0128.35 0z"/><path class="cls-10" d="M311.81 308.94c.07-3.59.77-15.83 8.45-23.79a28.7 28.7 0 016.34-4.92"/><path class="cls-7" d="M183.44 436.54a115.67 115.67 0 00.81-13.77c0-22.14-6.34-40.09-14.17-40.09s-14.17 17.95-14.17 40.09a113.6 113.6 0 00.81 13.77z"/><path class="cls-8" d="M170.08 382.68v53.86h-13.36a113.6 113.6 0 01-.81-13.77c0-22.14 6.34-40.09 14.17-40.09z"/><path class="cls-7" d="M381.26 187.08c-8.61 0-15.59 3.81-15.59 8.5s7 8.51 15.59 8.51 15.59-3.81 15.59-8.51-6.98-8.5-15.59-8.5zm7.08 11.34a2.84 2.84 0 112.84-2.84 2.84 2.84 0 01-2.84 2.84z"/><path class="cls-7" d="M357.16 187.08v17a8.51 8.51 0 100-17zM204.09 181.42a8.51 8.51 0 110 17z"/><ellipse class="cls-7" cx="307.56" cy="249.45" rx="9.92" ry="5.67"/><path class="cls-7" d="M292 243.78a5.67 5.67 0 010 11.34z"/><ellipse class="cls-7" cx="398.27" cy="255.12" rx="9.92" ry="5.67"/><path class="cls-7" d="M382.68 249.45a5.67 5.67 0 010 11.34z"/><ellipse class="cls-7" cx="161.57" cy="289.13" rx="8.5" ry="2.83"/><path class="cls-7" d="M147.4 283.46a5.67 5.67 0 010 11.34z"/><ellipse class="cls-7" cx="331.65" cy="221.1" rx="8.5" ry="2.83"/><path class="cls-7" d="M317.48 215.43a5.67 5.67 0 010 11.34z"/><path class="cls-11" d="M413.86 445H368.5a45.35 45.35 0 0145.36-45.35z"/><path class="cls-13" d="M403 415.81a11.34 11.34 0 01-16-16c4.43-4.42 24-8 24-8s-3.57 19.57-8 24z"/><path class="cls-12" d="M411 391.76l-24 24.05a11.34 11.34 0 0016 0c4.43-4.43 8-24.05 8-24.05z"/><path class="cls-8" d="M343 411v34h-8a73.77 73.77 0 01-.48-8.5c-.03-14.05 3.78-25.5 8.48-25.5zM331.65 425.2c-4.69 0-8.5 6.66-8.5 14.88a24.61 24.61 0 00.49 5h8z"/><path class="cls-13" d="M164.41 445a25.51 25.51 0 1151 0z"/><path class="cls-12" d="M170.08 445a19.84 19.84 0 0139.68 0z"/><path class="cls-13" d="M175.75 445a14.17 14.17 0 1128.34 0z"/><path class="cls-12" d="M181.42 445a8.51 8.51 0 0117 0z"/><path class="cls-7" d="M130.39 445a22.68 22.68 0 0145.36 0z"/><path class="cls-8" d="M153.07 422.36A22.69 22.69 0 00130.39 445h22.68z"/><path class="cls-13" d="M130.39 388.35V445h17v-39.65a17.05 17.05 0 00-17-17z"/><rect class="cls-15" x="113.39" y="476.22" width="317.48" height="22.68" rx="11.34"/><path d="M419.53 476.22h-102a11.37 11.37 0 0111.34 11.34 11.37 11.37 0 01-11.34 11.34h102a11.38 11.38 0 0011.34-11.34 11.38 11.38 0 00-11.34-11.34z" fill="#d17846"/><path d="M419.53 476.22h-51a11.37 11.37 0 0111.34 11.34 11.37 11.37 0 01-11.37 11.34h51a11.38 11.38 0 0011.34-11.34 11.38 11.38 0 00-11.31-11.34z" fill="#af4617"/><path class="cls-21" d="M419.53 476.22h-14.18a11.37 11.37 0 0111.34 11.34 11.37 11.37 0 01-11.34 11.34h14.18a11.38 11.38 0 0011.34-11.34 11.38 11.38 0 00-11.34-11.34z"/><path class="cls-21" d="M419.53 493.23H124.72a11.37 11.37 0 01-11-8.51 11.11 11.11 0 00-.37 2.84 11.37 11.37 0 0011.33 11.34h294.85a11.38 11.38 0 0011.34-11.34 11.12 11.12 0 00-.38-2.84 11.37 11.37 0 01-10.96 8.51z"/><path class="cls-5" d="M347.85 153.07H197.62a4.25 4.25 0 100 8.5h36.85a4.26 4.26 0 010 8.51h-31.19a4.25 4.25 0 000 8.5h53.86a4.26 4.26 0 010 8.51h-2.83a4.25 4.25 0 000 8.5h14.17a4.25 4.25 0 010 8.5 4.26 4.26 0 000 8.51h36.85a4.26 4.26 0 000-8.51h-8.5a4.25 4.25 0 010-8.5h34a4.25 4.25 0 100-8.5H311a4.26 4.26 0 010-8.51h5.67a4.25 4.25 0 000-8.5H311a4.26 4.26 0 010-8.51h36.85a4.25 4.25 0 000-8.5z"/><circle class="cls-22" cx="249.45" cy="226.77" r="11.34"/><path class="cls-23" d="M249.45 215.43a11.57 11.57 0 00-2.84.37 11.33 11.33 0 010 21.94 11.57 11.57 0 002.84.37 11.34 11.34 0 100-22.68z"/><ellipse class="cls-23" cx="244.56" cy="221.88" rx="4.25" ry="2.83" transform="rotate(-45 244.565 221.878)"/><circle class="cls-22" cx="256.54" cy="270.71" r="7.09"/><path class="cls-23" d="M256.54 263.62a7.42 7.42 0 00-1.78.23 7.08 7.08 0 010 13.71 7 7 0 001.78.24 7.09 7.09 0 000-14.18z"/><ellipse class="cls-23" cx="253.48" cy="267.65" rx="2.66" ry="1.77" transform="rotate(-45 253.477 267.656)"/><circle class="cls-22" cx="310.39" cy="369.92" r="7.09"/><path class="cls-23" d="M310.39 362.83a6.93 6.93 0 00-1.77.24 7.08 7.08 0 010 13.71 7.4 7.4 0 001.77.23 7.09 7.09 0 100-14.18z"/><ellipse class="cls-23" cx="307.34" cy="366.86" rx="2.66" ry="1.77" transform="rotate(-45 307.332 366.869)"/><circle class="cls-22" cx="160.54" cy="248.42" r="7.09"/><path class="cls-23" d="M160.54 241.33a7.4 7.4 0 00-1.77.23 7.08 7.08 0 010 13.71 6.93 6.93 0 001.77.23 7.09 7.09 0 100-14.17z"/><ellipse class="cls-23" cx="157.49" cy="245.36" rx="2.66" ry="1.77" transform="rotate(-45 157.493 245.364)"/><circle class="cls-22" cx="187.09" cy="362.83" r="11.34"/><path class="cls-23" d="M187.09 351.5a11.11 11.11 0 00-2.84.37 11.32 11.32 0 010 21.93 11.11 11.11 0 002.84.37 11.34 11.34 0 100-22.67z"/><ellipse class="cls-23" cx="182.2" cy="357.94" rx="4.25" ry="2.83" transform="rotate(-45 182.195 357.943)"/><path d="M276.23 68.11c-1.36 0-2.73-.08-4.1-.08-78 0-141.74 63.78-141.74 141.73v266.46h8.51V209.76c0-76.48 61.39-139.31 137.33-141.65z" style="mix-blend-mode:multiply" fill="#e2bbaa"/><path d="M282.05 68.39c-3.28-.23-6.59-.36-9.92-.36-78 0-141.74 63.78-141.74 141.73v266.46h19.85V209.76c0-74.61 58.44-136.24 131.81-141.37z" style="mix-blend-mode:darken" fill="#e2bbaa"/><circle class="cls-22" cx="351.5" cy="260.79" r="11.34"/><path class="cls-23" d="M351.5 249.45a11.57 11.57 0 00-2.84.37 11.32 11.32 0 010 21.93 11.12 11.12 0 002.84.38 11.34 11.34 0 000-22.68z"/><ellipse class="cls-23" cx="346.61" cy="255.9" rx="4.25" ry="2.83" transform="rotate(-45 346.607 255.9)"/><circle class="cls-22" cx="283.46" cy="192.76" r="11.34"/><path class="cls-23" d="M283.46 181.42a11 11 0 00-2.83.37 11.32 11.32 0 010 21.93 11 11 0 002.83.37 11.34 11.34 0 100-22.67z"/><ellipse class="cls-23" cx="278.57" cy="187.87" rx="4.25" ry="2.83" transform="rotate(-45 278.578 187.87)"/><path class="cls-7" d="M231 184.25c-10.17 0-18.42 5.67-18.42 5.67s8.25 5.67 18.42 5.67 18.43-2.54 18.43-5.67-8.23-5.67-18.43-5.67zm11.34 5.67a1.42 1.42 0 111.42-1.42 1.42 1.42 0 01-1.4 1.42z"/><path class="cls-13" d="M172.91 252.28a17 17 0 0134 0z"/><path class="cls-9" d="M189.92 252.28a19.85 19.85 0 0139.69 0z"/><path class="cls-13" d="M215.43 252.28a14.18 14.18 0 0128.35 0z"/><rect class="cls-26" x="204.09" y="204.09" width="22.68" height="68.03" rx="11.34"/><path class="cls-26" d="M204.09 476.22V306.14a11.38 11.38 0 0111.34-11.34 11.38 11.38 0 0111.34 11.34v170.08z"/><ellipse class="cls-26" cx="204.8" cy="124.02" rx="16.48" ry="9.54" transform="rotate(-45 204.8 124.019)"/><path class="cls-5" d="M189.92 155.91h164.41v5.67H189.92z"/><circle class="cls-22" cx="328.82" cy="170.08" r="11.34"/><path class="cls-23" d="M328.82 158.74a11.57 11.57 0 00-2.84.37 11.33 11.33 0 010 21.94 11.57 11.57 0 002.84.37 11.34 11.34 0 100-22.68z"/><ellipse class="cls-23" cx="323.93" cy="165.19" rx="4.25" ry="2.83" transform="rotate(-45 323.923 165.187)"/><rect class="cls-5" x="232.44" y="204.09" width="22.68" height="8.5" rx="4.25"/><rect class="cls-5" x="345.83" y="170.08" width="22.68" height="8.5" rx="4.25"/><rect class="cls-5" x="153.07" y="170.08" width="22.68" height="8.5" rx="4.25"/><ellipse class="cls-26" cx="179.45" cy="170.11" rx="26.93" ry="15.59" transform="rotate(-70.4 179.439 170.113)"/><path class="cls-26" d="M269.78 68a113.87 113.87 0 00-20.33 1.84c60.31 10.93 106.74 69.66 106.74 139.89v266.49h40.66V209.76C396.85 131.81 339.67 68 269.78 68z"/></g></g></svg>