<svg xmlns="http://www.w3.org/2000/svg" viewBox="0 0 566.93 566.93"><defs><style>.cls-1{fill:#faebdc}.cls-2{fill:#324100}.cls-3{fill:#6e7832}.cls-4{fill:#d8aa91}.cls-5{fill:#006464}.cls-6{fill:#0f373c}.cls-7{fill:#e6a073}.cls-8{fill:#d37e44}.cls-9{fill:#af500e}.cls-10{fill:none;stroke-miterlimit:10;stroke:#10373a}.cls-11{fill:#059999}.cls-15{fill:#e8a272}.cls-16{fill:#843500}.cls-17{fill:#7c3200}</style></defs><path class="cls-1" d="M0 0h566.93v566.93H0z" id="Tlo"/><g id="Ilustracja"><path class="cls-2" d="M70 339.81a10.26 10.26 0 1010-17.92c-5-2.76-22.92-1.05-22.92-1.05S65.06 337 70 339.81z"/><path class="cls-3" d="M166.91 367.34c19.87 46.84 20.41 91.42 20.41 91.42s-31.67-31.37-51.54-78.21-20.41-91.42-20.41-91.42 31.68 31.37 51.54 78.21z"/><path class="cls-2" d="M135.78 380.55c19.87 46.84 51.54 78.21 51.54 78.21l-71.95-169.63s.54 44.58 20.41 91.42z"/><path class="cls-3" d="M494.08 474.18c-25.39 18.53-55.93 19.89-55.93 19.89s10.61-28.68 36-47.21S530.08 427 530.08 427s-10.61 28.66-36 47.18z"/><path class="cls-2" d="M474.14 446.86c-25.38 18.53-36 47.21-36 47.21L530.08 427s-30.55 1.34-55.94 19.86z"/><path class="cls-3" d="M468.92 459.89c-10.9 29.48-35.59 47.51-35.59 47.51s-7-29.76 3.86-59.24 35.59-47.51 35.59-47.51 7.03 29.76-3.86 59.24z"/><path class="cls-2" d="M437.19 448.16c-10.89 29.48-3.86 59.24-3.86 59.24l39.45-106.75s-24.69 18.03-35.59 47.51z"/><path class="cls-3" d="M481.28 461.9c-18.61 22-46.61 29-46.61 29s2.17-28.77 20.78-50.79 46.61-29 46.61-29-2.17 28.77-20.78 50.79z"/><path class="cls-2" d="M455.45 440.08c-18.61 22-20.78 50.79-20.78 50.79l67.4-79.76s-28.01 6.94-46.62 28.97z"/><rect class="cls-4" x="68.26" y="490.39" width="269.29" height="14.17" rx="7.09"/><rect class="cls-4" x="317.71" y="498.9" width="170.08" height="11.34" rx="5.67"/><rect class="cls-4" x="124.96" y="515.91" width="93.54" height="11.34" rx="5.67"/><path class="cls-5" d="M184.09 433.18a45.35 45.35 0 01-84.28 33.54c-9.26-23.27 8.6-101.05 8.6-101.05s66.42 44.24 75.68 67.51z"/><path class="cls-6" d="M108.41 365.67s-17.86 77.78-8.6 101.05a45.36 45.36 0 0058.91 25.37z"/><path class="cls-7" d="M175.98 340.16h226.77v90.71H175.98zM380.07 317.48H198.66A22.68 22.68 0 01176 340.16h226.75a22.68 22.68 0 01-22.68-22.68z"/><rect class="cls-7" x="164.64" y="340.16" width="249.45" height="11.34" rx="5.67"/><path class="cls-7" d="M402.75 408.19H175.98l-22.68 22.68v68.03h272.13v-68.03l-22.68-22.68z"/><path class="cls-8" d="M246.85 408.19V351.5h-5.67a5.67 5.67 0 110-11.34h5.67a22.67 22.67 0 0022.67-22.68h-70.86A22.68 22.68 0 01176 340.16h-5.67a5.67 5.67 0 000 11.34H176v56.69l-22.7 22.68v68h70.87v-68z"/><path class="cls-9" d="M193 408.19V351.5h-5.67a5.67 5.67 0 010-11.34H193a22.68 22.68 0 0022.68-22.68h-17A22.68 22.68 0 01176 340.16h-5.67a5.67 5.67 0 000 11.34H176v56.69l-22.7 22.68v68h17v-68z"/><path class="cls-5" d="M492.27 327.9a14.17 14.17 0 01-8.95-26.9c7.43-2.47 31.37 4.51 31.37 4.51s-15 19.92-22.42 22.39z"/><path class="cls-6" d="M514.69 305.51s-23.94-7-31.37-4.51a14.17 14.17 0 00-9 17.92z"/><path class="cls-3" d="M75.44 334.39a10.17 10.17 0 004.91 4.26 7.78 7.78 0 002.48.54 7.14 7.14 0 004.73-1.51c3.78-2.95 4.5-9.19 1.6-14s-17.38-11.91-17.38-11.91.76 17.86 3.66 22.62z"/><path class="cls-5" d="M465.26 391.66a14.18 14.18 0 1122.39-17.39c4.8 6.19 6.19 31.08 6.19 31.08s-23.78-7.51-28.58-13.69z"/><path class="cls-6" d="M493.84 405.35s-1.39-24.89-6.19-31.08a14.18 14.18 0 00-19.89-2.5z"/><path class="cls-8" d="M153.3 430.87h272.13l-22.68-22.68H175.98l-22.68 22.68zM175.98 351.5h226.77v8.5H175.98z"/><path class="cls-10" d="M456.61 462.05c-30-50-27.84-76.09-19.84-90.71 8.33-15.23 24.68-21.2 25.51-36.85.81-15.35-13.92-28.55-25.51-36.85M433.93 411s9.22-53.85 36.85-36.85"/><path class="cls-10" d="M443.32 362.83c3-11.07.25-21.77-6.94-26.95a18.5 18.5 0 00-9.22-3.34"/><path class="cls-5" d="M433.78 320.42a12.18 12.18 0 11-12.73 20.78c-5.74-3.52-14.41-23.12-14.41-23.12s21.36-1.18 27.14 2.34z"/><path class="cls-6" d="M406.64 318.08s8.67 19.6 14.41 23.12a12.2 12.2 0 0016.76-4z"/><path class="cls-10" d="M462.28 334.49c.42-2.28 2.05-9.51 8.5-14.18a20.06 20.06 0 015.67-2.83"/><path class="cls-6" d="M346.06 436.53a33.9 33.9 0 0115.49 3.74 45.35 45.35 0 0182.41 0 34 34 0 1115.48 64.29H346.06a34 34 0 110-68z"/><path class="cls-9" d="M175.98 351.5h70.87v8.5h-70.87zM246.85 408.19h-70.87l-22.68 22.68h70.87l22.68-22.68zM176 340.16h70.87a22.68 22.68 0 0022.61-22.68h-70.89A22.67 22.67 0 01176 340.16z"/><path class="cls-5" d="M129.91 463.15a21.74 21.74 0 01-33.24 28c-7.73-9.18-11.4-47.24-11.4-47.24s36.9 10.09 44.64 19.24z"/><path class="cls-6" d="M85.27 443.93s3.67 38.06 11.4 47.24a21.73 21.73 0 0030.63 2.61z"/><path class="cls-8" d="M300.7 357.17h48.19v34.02H300.7z"/><path class="cls-9" d="M300.7 360h48.19v5.67H300.7z"/><path class="cls-8" d="M246.85 396.85h22.68v11.34h-22.68zM224.17 487.56h22.68v11.34h-22.68zM224.17 476.22h11.34v11.34h-11.34zM246.85 385.51h11.34v11.34h-11.34z"/><path class="cls-8" transform="rotate(-180 391.415 402.52)" d="M380.07 396.85h22.68v11.34h-22.68z"/><path class="cls-8" transform="rotate(-180 397.085 391.18)" d="M391.41 385.51h11.34v11.34h-11.34z"/><path class="cls-9" d="M192.99 493.23h136.06v5.67H192.99zM175.98 402.52h226.77v5.67H175.98z"/><path class="cls-5" d="M402.75 413.86a45.33 45.33 0 00-41.2 26.41 34 34 0 10-15.49 64.29h56.69z"/><path class="cls-6" d="M331.89 470.55A34 34 0 01356 438a34 34 0 10-9.91 66.55h19.81a34 34 0 01-34.01-34z"/><path class="cls-11" d="M470.78 470.55a34 34 0 00-22.65-32.07 34 34 0 1111.32 66.08h-22.68a34 34 0 0034.01-34.01z"/><path class="cls-6" d="M352.65 487.56a48.73 48.73 0 003 17H448a49.19 49.19 0 10-95.34-17z"/><path class="cls-5" d="M366.89 504.56a39.69 39.69 0 1171.72 0z"/><path class="cls-11" d="M394.25 448.79a40.32 40.32 0 018.5-.92 39.68 39.68 0 0135.86 56.69h-17a39.68 39.68 0 00-27.35-55.77z"/><path d="M199.42 506.71a28.35 28.35 0 01-52.54-21.31c5.89-14.51 47.58-41.88 47.58-41.88s10.85 48.68 4.96 63.19z" fill="#d25a3c"/><path d="M194.46 443.52s-41.69 27.37-47.58 41.88a28.35 28.35 0 0015.62 36.92z" fill="#ff8764"/><path class="cls-8" d="M374.41 360h28.35v14.17h-28.35z"/><path d="M136.3 379.84c-5.67-22.74-18.87-39.49-34-41.73-1.57-.23-13.81-1.87-20.24 5.4-3.54 4-6.22 11.75-1.88 16.64 2.66 3 7.34 4.23 11.39 3.41a11.1 11.1 0 008.85-8.81" stroke="#333f00" fill="none" stroke-miterlimit="10"/><path class="cls-1" d="M156.14 308.98l-19.85 25.51 22.68-11.34v11.34l-11.34 11.34h11.34l11.34-22.68-14.17-14.17zM68.26 394.02l53.86 17H85.27l2.84 11.34 19.84 5.67-25.51 5.67-17.01-39.68"/><path class="cls-9" d="M201.49 334.49h192.76v5.67H201.49z"/><path class="cls-3" d="M297.13 454.34l-1-33.5c-.24-8.61-8.19-12.52-15.16-7.47L253.87 433a15.43 15.43 0 00-6 15.08l.44 2c1.35 6.25 7.12 9.09 12.89 6.35 5.77-2.74 11.54.1 12.89 6.34 1.34 6.25 7.11 9.09 12.88 6.35l1.89-.9a15.41 15.41 0 008.27-13.88z"/><path class="cls-2" d="M261.2 456.48c-5.77 2.74-11.54-.1-12.89-6.35l-.44-2a15.41 15.41 0 016-15.07L281 413.35c3.48-2.53 7.21-2.81 10.1-1.39l-21.8 44.32a9.18 9.18 0 00-8.1.2z"/><path class="cls-3" d="M252.55 464.47l-16.67-12.1c-4.28-3.11-9.17-.7-9.33 4.58l-.55 20.59a9.45 9.45 0 005.08 8.58l1.16.55a5.37 5.37 0 007.92-3.89 5.38 5.38 0 017.92-3.9A5.37 5.37 0 00256 475l.27-1.26a9.46 9.46 0 00-3.72-9.27z"/><path class="cls-2" d="M240.11 482.76a5.38 5.38 0 01-7.92 3.9l-1.15-.55a9.5 9.5 0 01-5.09-8.58l.6-20.59a6 6 0 013.11-5.44l13.4 27.25a5.64 5.64 0 00-2.95 4.01z"/><path class="cls-15" d="M309.21 95.53c-18.79 0-31.18 15.23-31.18 34v48.18h31.18z"/><path class="cls-9" d="M255.35 214.59v1.78a20.15 20.15 0 0120.87 6.83l38.66 48.08v45.35h17v-53.85l-17-19.85 14.55-19.53a36.88 36.88 0 005.17-8.62l.12-.19h-79.37z"/><path class="cls-16" d="M255.35 214.59v1.78a20.15 20.15 0 0120.87 6.83l15.86 19.73h22.8l14.55-19.53a36.88 36.88 0 005.17-8.62l.12-.19h-79.37z"/><path class="cls-9" d="M207.16 191.91h17.01v124.72h-17.01z"/><path class="cls-16" d="M207.16 200.41h17.01v42.52h-17.01z"/><path class="cls-9" d="M416.84 211.75a51.19 51.19 0 00-50.94-48.19h-51v22.68h45.36a28.42 28.42 0 0128.34 28.34v11.34a28.35 28.35 0 0028.35 28.35v-42.52z"/><path class="cls-17" d="M416.84 211.75a51.18 51.18 0 00-50.94-48.19h-11.34a51.18 51.18 0 0150.94 48.19h.09v40.15a28.18 28.18 0 0011.34 2.37v-42.52z"/><path class="cls-17" d="M362 163.56h-47.12v22.68h45.35a28.25 28.25 0 0119.94 8.25A46 46 0 00362 163.56z"/><path class="cls-15" d="M232.67 191.91h17.01v124.72h-17.01z"/><path class="cls-15" d="M371.56 200.81a36.84 36.84 0 00-34-37.15v-.12h-93.38a20 20 0 01-20-20v-19.7a48.16 48.16 0 00-46.58-48.13 5.33 5.33 0 00-2.93.8l-43.8 26.75a5.45 5.45 0 00-1 8.5l7.55 7.54c4.59 4.6 11.26 4.43 17.56 2.86l14.25-3.57a5.45 5.45 0 016.77 5.28v53.59a54.12 54.12 0 0054.13 54.13h18.55a5.55 5.55 0 002-.37l36.68-13.8c8.17-3.14 17.44-1.15 22.92 5.67l37.46 46.69a5.46 5.46 0 011.2 3.42v46.26h17v-54.97a5.5 5.5 0 00-1-3.16l-11.14-15.52a5.44 5.44 0 01-.24-6l9.71-16.2a6.15 6.15 0 01.37-.52 37.56 37.56 0 005-8.37l.11-.2a36.16 36.16 0 002.81-13.71z"/><path class="cls-8" d="M371.57 200.81a36.84 36.84 0 00-34-37.15v-.12h-10.92a42.83 42.83 0 0127.91 40.64 42 42 0 01-3.33 16l-.13.24a43.37 43.37 0 01-5.79 9.73 5.08 5.08 0 00-.42.61l-11.3 18.83a6.2 6.2 0 00-.71 1.76l14.78 18.42a5.52 5.52 0 011.2 3.42v43.45h17v-52.1a5.44 5.44 0 00-1-3.16l-11.08-15.52a5.44 5.44 0 01-.24-6l9.71-16.2a6.15 6.15 0 01.37-.52 37.56 37.56 0 005-8.37l.11-.2a36.16 36.16 0 002.84-13.76zM192.73 177.47v-53.59a5.44 5.44 0 00-6.76-5.29l-11.3 2.83a5.41 5.41 0 01.59 2.46v53.59a54.12 54.12 0 0054.12 54.12h17.47a54.13 54.13 0 01-54.12-54.12z"/><path class="cls-16" d="M207.16 305.29h17.01v11.34h-17.01z"/><path class="cls-8" d="M232.67 305.29h17.01v11.34h-17.01z"/><path class="cls-16" d="M314.88 305.29h17.01v11.34h-17.01zM348.89 305.29h17.01v11.34h-17.01z"/><circle class="cls-9" cx="175.98" cy="95.53" r="5.67"/><path class="cls-9" d="M309.25 140.88v22.68h22.68a24.11 24.11 0 01-22.68-22.68z"/><path class="cls-15" d="M295.04 61.51h14.17v45.35h-14.17z"/><rect class="cls-15" x="269.52" y="61.51" width="51.02" height="5.67" rx="2.83"/><path class="cls-15" d="M280.86 61.51h22.68V92.7h-11.63a11 11 0 01-11-11V61.51h-.05z"/><path class="cls-15" d="M283.7 61.51L292.49 19a2.63 2.63 0 015.09 0l8.79 42.52zM255.35 163.56H278v-22.68a22.68 22.68 0 01-22.65 22.68z"/><path class="cls-9" d="M309.21 163.56l-34.02 28.35v31.18l11.34-5.67v-22.68l39.69-31.2-17.01.02z"/><path class="cls-15" d="M261.02 189.07h17.01v53.86h-17.01z"/><path class="cls-9" d="M306.38 61.51H283.7l1.76-8.5h19.16l1.76 8.5z"/><path class="cls-15" d="M304.62 53.01h-19.16l1.76-8.5h15.65l1.75 8.5z"/><path class="cls-9" d="M302.87 44.51h-15.65l1.76-8.51h12.13l1.76 8.51z"/><path class="cls-15" d="M301.11 36h-12.13l1.76-8.5h8.61l1.76 8.5z"/><path class="cls-9" d="M299.35 27.5h-8.61l1.76-8.51h5.09l1.76 8.51zM280.86 81.36V67.18h28.35l-28.35 14.18z"/><path class="cls-8" d="M249.68 242.93l-11.34 8.51v5.67h11.34v-14.18z"/><path class="cls-15" d="M261 240.1l-17 11.34v5.67h24.53a9.49 9.49 0 009.49-9.49v-7.52z"/><path class="cls-8" d="M295 112.54v25.51h-28.31a14.17 14.17 0 00-14.17 14.17h56.69V98.36A14.17 14.17 0 00295 112.54zM261 163.56h-16.82a19.91 19.91 0 01-11.51-3.66v71.69h16a5.54 5.54 0 002-.36l10.33-3.92z"/><path d="M177.42 75.71A48.17 48.17 0 01224 123.85v19.7a20 20 0 0020 20h11.34" stroke="#af500e" stroke-width="20" fill="none" stroke-miterlimit="10"/><path class="cls-16" d="M201.49 71.64a57.8 57.8 0 00-23.75-5.92l-.64 20a38 38 0 0124.39 9.81z"/><path class="cls-15" d="M187.32 67.19v22.67H176v-34a11.34 11.34 0 0111.32 11.33z"/></g></svg>