<svg xmlns="http://www.w3.org/2000/svg" viewBox="0 0 566.93 566.93"><defs><style>.cls-1{fill:#FFFCFB;}.cls-2,.cls-3{fill:none;stroke-linecap:round;stroke-linejoin:round;stroke-width:2px;}.cls-2{stroke:#001e1d;}.cls-3{stroke:#472300;}.cls-4{fill:#ff8764;}.cls-5{fill:#d25a3c;}.cls-6{fill:#d8aa91;}.cls-7{fill:#0f373c;}.cls-8{fill:#001e1d;}.cls-9{fill:#006464;}.cls-10{fill:#f5a03c;}.cls-11{fill:#ffbd76;}.cls-12{fill:#cc661b;}.cls-13{fill:#db832a;}.cls-14{fill:#059999;}.cls-15{fill:#f4a03e;}</style></defs><g id="Tlo"><rect class="cls-1" width="566.93" height="566.93"/></g><g id="Ilustracja"><path class="cls-2" d="M419.53,136.06s-22.68,24.81-25.51,56.7"/><path class="cls-3" d="M181.42,384.21c-1.6-3-25.35-46.63-66-47.27a61.13,61.13,0,0,0-26.29,5.63"/><path class="cls-4" d="M206,340.38c26.57,26.57,32.07,64.14,32.07,64.14S200.54,399,174,372.45s-32.07-64.14-32.07-64.14S179.47,313.81,206,340.38Z"/><path class="cls-5" d="M174,372.45c26.57,26.57,64.14,32.07,64.14,32.07L141.9,308.31S147.4,345.88,174,372.45Z"/><path class="cls-3" d="M192.08,391.41c-1.65-2.18-34.45-44.55-58.26-33.13a25.07,25.07,0,0,0-14.52,19.33c-1.38,9.41,3.28,18.74,10.22,22,4.83,2.24,19.26,2.41,19.18-10.57"/><rect class="cls-6" x="243.78" y="450.71" width="181.42" height="11.34" rx="5.67"/><rect class="cls-6" x="184.25" y="450.72" width="51.02" height="11.34" rx="5.67"/><path class="cls-4" d="M433.3,372.69c-39.85,39.85-104.23,40.08-104.23,40.08s.24-64.37,40.09-104.23,104.23-40.08,104.23-40.08S473.15,332.83,433.3,372.69Z"/><path class="cls-5" d="M369.16,308.54c-39.85,39.86-40.09,104.23-40.09,104.23L473.39,268.46S409,268.69,369.16,308.54Z"/><path class="cls-5" d="M345.05,343.69c-2,4.37-3.79,8.74-5.34,13.06a181.26,181.26,0,0,0-6,20.67c-.3,1.3-.57,2.58-.83,3.83a174.79,174.79,0,0,0-3.81,31.38s56.93-.21,96.86-33.38a56,56,0,0,0-36.86-24c-.12-.72-.25-1.41-.39-2.09,0-.17-.07-.33-.11-.49-.2-.91-.43-1.85-.69-2.8-.08-.31-.17-.62-.26-.94-.25-.85-.52-1.7-.81-2.54l0-.1-.19-.57c-.37-1-.78-2.07-1.22-3.1l-.24-.51,0-.09c-.36-.83-.75-1.64-1.16-2.45-.13-.27-.26-.53-.4-.79-.47-.89-.92-1.71-1.41-2.53l-.2-.35c-.55-.91-1.14-1.82-1.81-2.79l-.34-.48-.07-.1c-.52-.74-1.05-1.45-1.62-2.18l-.47-.59a54.56,54.56,0,0,0-4.46-4.91l-.52-.49c-.67-.64-1.36-1.27-2.05-1.86l-.48-.41c-.88-.75-1.78-1.46-2.65-2.1l-.19-.14c-.79-.58-1.62-1.16-2.51-1.74l-.67-.42c-.7-.45-1.41-.87-2.11-1.27A121.7,121.7,0,0,0,349.45,335Q347.07,339.3,345.05,343.69Z"/><path class="cls-7" d="M411.89,286.38c-53.13,53.13-128.27,64.12-128.27,64.12s11-75.13,64.13-128.26S476,158.12,476,158.12,465,233.25,411.89,286.38Z"/><path class="cls-8" d="M432.69,256q0,3.21-.2,6.39-4.23,5.86-9,11.58c-3.5,4.21-7.24,8.33-11.21,12.32l-.39.39a195.32,195.32,0,0,1-15.69,14.06,79.49,79.49,0,0,0-14.34-105.51q3.42-2.19,6.84-4.23t6.85-3.93c2.32-1.28,4.62-2.5,6.92-3.67A102.16,102.16,0,0,1,432.69,256Z"/><polygon class="cls-1" points="453.54 160.74 442.2 189.09 442.2 160.74 453.54 160.74"/><polygon class="cls-1" points="439.37 157.91 428.03 186.25 428.03 157.91 439.37 157.91"/><path class="cls-8" d="M348,222.24c-53.13,53.13-64.13,128.26-64.13,128.26s1-.15,2.93-.5l6.06-2.59c2.91-1.26,71.85-31.43,102.08-96.26C406.28,226.8,410.38,201.4,411,179,390.27,188.72,367.63,202.6,348,222.24Z"/><path class="cls-3" d="M146.4,177.75c-2.11-14.18-18.84-34-35.51-23.35-5.08,3.25-8.25,12-4.3,17.61,3.25,4.62,10.93,6.54,15.54,3.16a10.19,10.19,0,0,0,3.71-6.48"/><path class="cls-9" d="M289.37,202C262.9,258.79,282.55,324,282.55,324s62.56-26.84,89-83.59,6.81-121.93,6.81-121.93S315.83,145.29,289.37,202Z"/><path class="cls-7" d="M378.49,118.22s19.66,65.18-6.81,121.93-89,83.6-89,83.6Z"/><path class="cls-10" d="M425.2,253.44a95,95,0,0,0-189.82-4.25h-.1l-7.74,54.17a91,91,0,0,0-83-54.17H133.23v22.68h11.34a68.23,68.23,0,0,1,68,68v68H357.17l-8.76-61.27A95,95,0,0,0,425.2,253.44Zm-80,70.73-10.71-75h-76.4a72.28,72.28,0,1,1,87.11,75Z"/><path class="cls-11" d="M312.61,249.19H258.09a72.27,72.27,0,0,1,72.15-68c1.3,0,2.59,0,3.87.11q1.8-11.13,2.6-22.56-3.21-.22-6.47-.23a95,95,0,0,0-94.86,90.71h-.1l-7.74,54.17a91,91,0,0,0-83-54.17H133.23v22.68h11.34a68.23,68.23,0,0,1,68,68v16A247.76,247.76,0,0,0,312.61,249.19Z"/><path class="cls-12" d="M330.24,181.16a72.2,72.2,0,0,1,60.31,32.46A178.89,178.89,0,0,0,395,184a95.05,95.05,0,0,0-94-20.92,152.7,152.7,0,0,0-20.69,32.49c-1.51,3.24-2.91,6.58-4.2,10A72.08,72.08,0,0,1,330.24,181.16Z"/><polygon class="cls-8" points="379.84 231.61 342.99 248.61 379.84 248.61 379.84 231.61"/><path class="cls-12" d="M411,254.86a76.57,76.57,0,0,1-64.92,75.67l-.91-6.36a72.29,72.29,0,1,0-72.4-114.6A76.54,76.54,0,0,1,411,254.86Z"/><path class="cls-9" d="M376.33,228.77H280.14A140.29,140.29,0,0,1,289.37,202c26.25-56.31,88-83.17,89-83.58h0S395.47,175.1,376.33,228.77Z"/><path class="cls-7" d="M376.35,228.77H327l51.43-110.31h0l.1-.23S395.63,175,376.35,228.77Z"/><polygon class="cls-8" points="382.68 208.93 345.83 225.94 382.68 225.94 382.68 208.93"/><path class="cls-2" d="M402.52,410.19c0-14.17,19.84-113.39,99.21-96.38"/><path class="cls-12" d="M348.41,346.92A95.19,95.19,0,0,0,359,344.21h0c-.3-.68-.62-1.34-.95-2l-.33-.65c-.38-.72-.77-1.43-1.18-2.12l-.14-.24c-.47-.78-1-1.54-1.48-2.29l-.35-.48c-.42-.6-.86-1.19-1.31-1.77l-.39-.49a45.09,45.09,0,0,0-3.66-4l-.43-.41c-.55-.52-1.11-1-1.69-1.52l-.38-.34c-.71-.59-1.43-1.17-2.18-1.72l-.11-.08c-.69-.51-1.4-1-2.11-1.47l-.54-.34c-.65-.41-1.32-.81-2-1.2l-.27-.16-.1-.05c-.76-.42-1.53-.82-2.32-1.2l-.15-.07-.34-.15c-.61-.28-1.22-.55-1.83-.8l-.47-.2-.5-.18c-.49-.19-1-.37-1.47-.53-.25-.09-.51-.19-.77-.27l-.34-.11c-.52-.17-1-.31-1.58-.46-.23-.06-.45-.14-.68-.19l-.36-.09-.13,0-.47-.1c-.49-.12-1-.23-1.49-.33L326,318l-.81-.13-1.29-.21-.66-.09-.63-.07-1.4-.13c-.27,0-.54-.06-.81-.07l-.36,0q-.93,0-1.86-.06l-.66,0c-1,0-1.92,0-2.86.1h0c-.5,0-1,.09-1.48.13l-1.32.13c-.57.07-1.13.17-1.69.26h0l-1.07.17h0c-.51.1-1,.22-1.52.33h0l-1,.21-.24.07c-.64.16-1.26.35-1.88.54-.31.09-.63.17-.93.27-.66.22-1.31.46-2,.7-.26.1-.53.18-.79.29-.7.28-1.38.58-2.06.89l-.6.26q-1.32.63-2.58,1.32c-.79.44-1.57.91-2.33,1.4l-.73.48c-.52.35-1,.7-1.54,1.07l-.78.58c-.5.37-1,.76-1.47,1.16l-.67.55c-.67.58-1.34,1.17-2,1.79l-.28.28c-.55.54-1.08,1.1-1.61,1.66l-.61.69c-.4.46-.8.92-1.18,1.39-.21.26-.42.51-.62.77q-.58.75-1.14,1.53l-.48.67c-.5.73-1,1.48-1.45,2.25l-.29.49q-.54.93-1.05,1.89c-.15.28-.29.57-.43.85q-.4.83-.78,1.65l-.4.91c-.26.61-.5,1.22-.73,1.84-.09.25-.19.49-.28.74-.3.86-.57,1.72-.82,2.6-.07.24-.12.48-.19.72-.13.5-.27,1-.39,1.5l-.09.48c-.08.35-.15.71-.22,1.06-.11.6-.22,1.2-.31,1.81q-.09.53-.15,1.05c-.09.66-.15,1.32-.21,2,0,.31-.06.61-.08.92-.06,1-.1,2-.1,2.93-.83,0-1.66,0-2.48.07l-.84.07-1.61.13-1,.13-1.43.2-1,.19c-.46.08-.91.17-1.37.27l-.5.1-.65.17-.77.19-1.35.39-.67.2c-.53.17-1.07.35-1.59.54l-.38.13c-.66.24-1.32.5-2,.77l-.25.12c-.55.23-1.1.48-1.64.74l-.54.26c-.44.22-.88.44-1.32.68l-.59.32c-.42.23-.83.47-1.23.71l-.58.35c-.42.26-.83.53-1.24.8l-.49.32q-.74.49-1.44,1l-.23.17c-.57.43-1.13.86-1.68,1.32h0c-.52.43-1,.87-1.53,1.33l-.37.34-1.13,1.07-.44.45c-.34.34-.67.69-1,1.05l-.43.47c-.33.37-.66.75-1,1.12l-.38.45c-.36.44-.71.89-1,1.34-.07.09-.15.18-.22.28-.83,1.11-1.61,2.27-2.33,3.46-.1.15-.19.31-.28.46-.26.44-.51.87-.76,1.32l-.32.6c-.22.41-.43.83-.64,1.25l-.31.64c-.2.42-.39.85-.58,1.28l-.27.63q-.3.72-.57,1.44l-.19.51c-.24.66-.47,1.33-.68,2v0c-.2.65-.39,1.32-.56,2-.06.22-.1.43-.16.64-.11.47-.22.94-.32,1.42-.06.26-.1.51-.15.77-.09.44-.17.89-.24,1.33-.05.27-.09.55-.13.82-.06.44-.12.89-.17,1.34l-.09.81c0,.49-.08,1-.11,1.47,0,.23,0,.46,0,.7,0,.72-.06,1.45-.06,2.18,0,.09,0,.17,0,.26H357.17Z"/><path class="cls-13" d="M341.62,299.16a76.63,76.63,0,0,1-59.47-50h52.33Z"/><path class="cls-13" d="M258.08,249.45a72.41,72.41,0,0,1,4-19.84H238.37a95.21,95.21,0,0,0-3,19.84h22.71Z"/><path class="cls-3" d="M312.5,427.2c-42.4-194-105.62-185.58-141.45-210.9-26.48-18.71-29.32-47.06-20.81-66.9,1.44-3.37,14-24.44,32-24,47.39,1.28,16.21,63.65-9.31,39.69"/><path class="cls-9" d="M425.19,411a45.33,45.33,0,0,1-68,39.27,45.26,45.26,0,0,1-45.35,0,45.35,45.35,0,1,1-22.68-84.62,45.36,45.36,0,1,1,90.71,0A45.35,45.35,0,0,1,425.19,411Z"/><path class="cls-7" d="M379.84,365.67a45.35,45.35,0,0,0-45.36-45.35V456.38a45.13,45.13,0,0,0,22.68-6.08,45.35,45.35,0,1,0,22.68-84.63Z"/><rect class="cls-7" x="311.81" y="343" width="45.35" height="22.68" rx="11.34"/><path class="cls-8" d="M323.12,454.94c1,.26,2,.48,3.05.67C325.14,455.43,324.12,455.2,323.12,454.94Z"/><path class="cls-8" d="M326.17,455.61q1.09.21,2.22.36C327.64,455.87,326.9,455.76,326.17,455.61Z"/><path class="cls-8" d="M332.94,456.35c-1.13,0-2.24-.11-3.34-.23C330.7,456.23,331.81,456.31,332.94,456.35Z"/><path class="cls-8" d="M338.94,456.14c.71-.07,1.41-.16,2.11-.26C340.35,456,339.65,456.08,338.94,456.14Z"/><path class="cls-8" d="M341.05,455.88h0Z"/><path class="cls-8" d="M336.64,456.32c.77,0,1.54-.1,2.3-.18C338.18,456.22,337.41,456.28,336.64,456.32Z"/><path class="cls-8" d="M424.09,401.11A45.24,45.24,0,0,1,415.67,419l-.12.16c-.43.54-.87,1.07-1.32,1.6-8.76,9.76-14.59-.12-15.56-4a.81.81,0,0,0-.06-.13,66.6,66.6,0,0,0-64.13-50.89v70.85h0v19.84h.13l1.26,0,.77,0,.23,0c.64,0,1.26-.08,1.89-.14l.17,0,.18,0a44.63,44.63,0,0,0,6.15-1.06l.14,0c.64-.16,1.27-.33,1.9-.51l.47-.15c1-.29,1.9-.62,2.83-1l1-.37,1.15-.49c.44-.2.87-.39,1.3-.6l1-.47c.65-.33,1.29-.67,1.93-1l.25-.13c.79.46,1.59.88,2.41,1.29l.23.12c.78.38,1.57.74,2.38,1.08l.38.16c.8.34,1.62.65,2.44.94l.26.08q2.14.73,4.38,1.26c.25.06.51.1.76.15l.87.18,1.84.31,1,.14c.61.08,1.22.14,1.83.19l1,.09c.82,0,1.64.07,2.46.08h.38a45.34,45.34,0,0,0,44.25-55.27Z"/><circle class="cls-9" cx="334.48" cy="411.03" r="45.35"/><path class="cls-14" d="M334.49,365.67A45.37,45.37,0,0,0,291.34,425a14.17,14.17,0,0,0,12-14,31.18,31.18,0,0,1,31.18-31.18,14.17,14.17,0,0,0,14-12A45,45,0,0,0,334.49,365.67Z"/><path class="cls-9" d="M356.45,326a22.69,22.69,0,0,1-43.93,0,45.25,45.25,0,0,1,11-4.34,45.76,45.76,0,0,1,10.93-1.33,45.24,45.24,0,0,1,22,5.67Z"/><path class="cls-14" d="M334.49,320.31c-1,0-1.92,0-2.87.1-.49,0-1,.09-1.47.13l-1.32.13c-.57.07-1.13.17-1.69.26l-1.08.18c-.51.09-1,.21-1.51.32l-1,.21v0a45,45,0,0,0-11,4.32,45.29,45.29,0,0,0-23.39,39.69A45.36,45.36,0,1,0,311.8,450.3a45.28,45.28,0,0,1-9.65-7.48,34.36,34.36,0,1,1-13.29-66.15h1.33a10.65,10.65,0,0,0,9.94-10.07v-1.1a34.32,34.32,0,0,1,34.1-34.18h.26a11,11,0,0,0,10.92-9.69A45.17,45.17,0,0,0,334.49,320.31Z"/><path class="cls-7" d="M289.13,411v-2.84a5.67,5.67,0,1,0-11.34,0V411a56.56,56.56,0,0,0,21.27,44.26,45.21,45.21,0,0,0,12.75-5A45.3,45.3,0,0,1,289.13,411Z"/><path class="cls-3" d="M260.79,285.46s-51.42-82.2-20.24-110.55"/><ellipse class="cls-14" cx="230.79" cy="388.07" rx="36.85" ry="11.34" transform="translate(-218.46 433.23) rotate(-65)"/><path class="cls-9" d="M246.36,354.68l-31.15,66.79c-5.67-2.64-3.3-19.74,5.3-38.19S240.69,352,246.36,354.68Z"/><path class="cls-7" d="M207.37,412c0-.38,0-.77-.08-1.17a47,47,0,0,0-.71-5.18,78.67,78.67,0,0,0-2.31-9A111.26,111.26,0,0,0,199,383.28a116.54,116.54,0,0,0-6-11.19l-.89-1.43c-.6-.94-1.2-1.85-1.8-2.72-1.06-1.55-2.13-3-3.19-4.31q-.65-.81-1.29-1.56c-.59-.69-1.17-1.33-1.75-1.94a33.11,33.11,0,0,0-3.37-3.1,11.83,11.83,0,0,0-5.2-2.64,4.4,4.4,0,0,0-1.25,0,3.59,3.59,0,0,0-1.13.32c-5.68,2.64-3.31,19.74,5.29,38.19s20.18,31.25,25.85,28.6C206.62,420.4,207.6,416.94,207.37,412Z"/><ellipse class="cls-7" cx="209.76" cy="379.84" rx="11.34" ry="56.69"/><path class="cls-8" d="M198.43,379.84c0,31.31,5.07,56.7,11.33,56.7V323.15C203.5,323.15,198.43,348.53,198.43,379.84Z"/><rect class="cls-4" x="181.42" y="411.02" width="56.69" height="17.01"/><polygon class="cls-4" points="226.77 456.39 192.76 456.39 187.09 411.02 232.44 411.02 226.77 456.39"/><path class="cls-5" d="M189.09,428l.66,5.67h22.18a8.19,8.19,0,0,1,8.19,8.18v.2l-.17,1.45a.09.09,0,0,1,0,.05l-1.84,12.81h8.67L230.44,428Z"/><path class="cls-2" d="M419.53,356.33s22.67-22.68,48.19-8.5"/><path class="cls-9" d="M496.11,367.56a2.57,2.57,0,0,0,2.12-3.87c-1.22-2.06-12.12-20.26-18.13-23.55A14.17,14.17,0,0,0,466.5,365C472.51,368.3,493.71,367.65,496.11,367.56Z"/><path class="cls-7" d="M498.27,366.23,461,345.83A14.13,14.13,0,0,0,466.5,365c6,3.29,27.21,2.64,29.61,2.55A2.58,2.58,0,0,0,498.27,366.23Z"/><path class="cls-9" d="M531.13,319.7a3.1,3.1,0,0,0,.53-5.3c-2.33-1.72-23-16.83-31.22-17.66a17.1,17.1,0,0,0-3.43,34C505.24,331.6,528.5,320.92,531.13,319.7Z"/><path class="cls-7" d="M532.9,317.2l-51.06-5.15A17.06,17.06,0,0,0,497,330.77c8.23.83,31.49-9.85,34.12-11.07A3.09,3.09,0,0,0,532.9,317.2Z"/><path class="cls-2" d="M419.53,356.33s17-8.5,25.51,8.5"/><path class="cls-9" d="M453.61,402.76a2.57,2.57,0,0,0,4.22-1.28c.58-2.32,5.59-22.94,3.61-29.5a14.17,14.17,0,0,0-27.14,8.18C436.28,386.73,451.84,401.14,453.61,402.76Z"/><path class="cls-7" d="M456.08,403.32l-12.27-40.71a14.12,14.12,0,0,0-9.51,17.55c2,6.57,17.54,21,19.31,22.6A2.56,2.56,0,0,0,456.08,403.32Z"/><circle class="cls-4" cx="133.23" cy="181.42" r="8.5"/><path class="cls-5" d="M133.23,172.91a8.35,8.35,0,0,0-2.84.5,8.49,8.49,0,0,1,0,16,8.6,8.6,0,0,0,2.84.49,8.51,8.51,0,0,0,0-17Z"/><circle class="cls-4" cx="175.75" cy="170.08" r="8.5"/><path class="cls-5" d="M175.75,161.57a8.35,8.35,0,0,0-2.84.5,8.49,8.49,0,0,1,0,16,8.6,8.6,0,0,0,2.84.49,8.51,8.51,0,0,0,0-17Z"/><circle class="cls-4" cx="221.1" cy="164.41" r="8.5"/><path class="cls-5" d="M221.1,155.91a8.58,8.58,0,0,0-2.83.49,8.49,8.49,0,0,1,0,16,8.5,8.5,0,1,0,2.83-16.51Z"/><circle class="cls-4" cx="121.89" cy="172.91" r="8.5"/><path class="cls-5" d="M121.89,164.41a8.5,8.5,0,0,0-2.83.49,8.5,8.5,0,0,1,0,16,8.25,8.25,0,0,0,2.83.5,8.51,8.51,0,0,0,0-17Z"/><circle class="cls-4" cx="218.27" cy="272.13" r="8.5"/><path class="cls-5" d="M218.27,263.62a8.35,8.35,0,0,0-2.84.5,8.49,8.49,0,0,1,0,16,8.6,8.6,0,0,0,2.84.49,8.51,8.51,0,0,0,0-17Z"/><circle class="cls-4" cx="206.93" cy="272.13" r="8.5"/><path class="cls-5" d="M206.93,263.62a8.35,8.35,0,0,0-2.84.5,8.49,8.49,0,0,1,0,16,8.6,8.6,0,0,0,2.84.49,8.51,8.51,0,0,0,0-17Z"/><circle class="cls-4" cx="212.6" cy="283.46" r="8.5"/><path class="cls-5" d="M212.6,275a8.6,8.6,0,0,0-2.84.49,8.49,8.49,0,0,1,0,16,8.35,8.35,0,0,0,2.84.5,8.51,8.51,0,0,0,0-17Z"/><circle class="cls-4" cx="119.06" cy="187.09" r="8.5"/><path class="cls-5" d="M119.06,178.58a8.35,8.35,0,0,0-2.84.5,8.49,8.49,0,0,1,0,16,8.6,8.6,0,0,0,2.84.49,8.51,8.51,0,0,0,0-17Z"/><path class="cls-15" d="M144.57,249.19H133.23v22.68h11.34a67.44,67.44,0,0,1,31.6,7.85,113.62,113.62,0,0,0,20.25-14.12A90.08,90.08,0,0,0,144.57,249.19Z"/><circle class="cls-4" cx="206.93" cy="158.74" r="8.5"/><path class="cls-5" d="M206.93,150.24a8.6,8.6,0,0,0-2.84.49,8.49,8.49,0,0,1,0,16,8.6,8.6,0,0,0,2.84.49,8.5,8.5,0,0,0,0-17Z"/><path class="cls-9" d="M235.64,155.8a2.57,2.57,0,0,0,2.11-3.87c-1.22-2.07-12.11-20.27-18.13-23.56A14.17,14.17,0,0,0,206,153.24C212,156.53,233.24,155.88,235.64,155.8Z"/><path class="cls-7" d="M237.79,154.46l-37.3-20.4A14.13,14.13,0,0,0,206,153.24c6,3.29,27.22,2.64,29.62,2.56A2.54,2.54,0,0,0,237.79,154.46Z"/><path class="cls-9" d="M179.54,203.88a2.57,2.57,0,0,0,3.3,2.93c2.28-.74,22.45-7.31,27-12.44a14.18,14.18,0,0,0-21.23-18.79C184.07,180.71,180,201.53,179.54,203.88Z"/><path class="cls-7" d="M180.36,206.28l28.19-31.83a14.14,14.14,0,0,0-19.94,1.13c-4.54,5.13-8.62,25.95-9.07,28.3A2.56,2.56,0,0,0,180.36,206.28Z"/><path class="cls-9" d="M102.26,387.3a2.57,2.57,0,0,0,3.3,2.93c2.28-.74,22.45-7.31,27-12.44A14.18,14.18,0,0,0,111.33,359C106.79,364.13,102.71,384.94,102.26,387.3Z"/><path class="cls-7" d="M103.08,389.7l28.19-31.84A14.14,14.14,0,0,0,111.33,359c-4.54,5.13-8.62,25.94-9.07,28.3A2.56,2.56,0,0,0,103.08,389.7Z"/><path class="cls-3" d="M223.1,244.73c-26.46-16.18-45.6-20.06-61.19,1.88"/><path class="cls-9" d="M150.27,261.12a2.11,2.11,0,0,0,2.72,2.4c1.87-.6,18.44-6,22.17-10.21a11.64,11.64,0,0,0-17.43-15.44C154,242.09,150.64,259.18,150.27,261.12Z"/><path class="cls-7" d="M151,263.09l23.15-26.15a11.62,11.62,0,0,0-16.37.93c-3.73,4.22-7.09,21.31-7.46,23.25A2.1,2.1,0,0,0,151,263.09Z"/><path class="cls-9" d="M267.36,192.75a2.07,2.07,0,0,0,1.85-.95,2.1,2.1,0,0,0,.14-2.07c-.86-1.78-8.56-17.4-13.27-20.5a11.64,11.64,0,0,0-12.79,19.45C248,191.78,265.39,192.66,267.36,192.75Z"/><path class="cls-7" d="M269.21,191.8,240,172.61a11.6,11.6,0,0,0,3.25,16.07c4.7,3.1,22.1,4,24.07,4.07A2.07,2.07,0,0,0,269.21,191.8Z"/><path class="cls-3" d="M212.6,265.62s11.34-19.84,31.18-2.83"/><polygon class="cls-1" points="280.63 206.09 314.65 217.43 277.8 217.43 280.63 206.09"/><polygon class="cls-1" points="269.29 225.94 303.31 237.28 266.46 237.28 269.29 225.94"/><rect class="cls-12" x="124.72" y="249.19" width="17.01" height="22.68"/><path class="cls-9" d="M410.56,137h0a2.83,2.83,0,0,0,2.27-3.29L408.65,111a2.84,2.84,0,0,1,1.4-3c1.23-.69,2.48-1.38,3.75-2a2.82,2.82,0,0,1,4.1,2l1.89,10.31a2.82,2.82,0,0,0,3.28,2.27h0a2.82,2.82,0,0,0,2.27-3.29l-2.48-13.52a2.82,2.82,0,0,1,1.56-3.06L427,99.44a2.82,2.82,0,0,1,3.95,2.06l.57,3.08a2.82,2.82,0,0,0,3.28,2.27h0a2.82,2.82,0,0,0,2.27-3.29L436,97.82a2.8,2.8,0,0,1,1.67-3.1c4.15-1.77,7.73-3.21,10.25-4.2a2.81,2.81,0,0,1,3.85,2.65c0,2.71-.11,6.57-.29,11.08a2.81,2.81,0,0,1-2.31,2.66L443.42,108a2.82,2.82,0,0,0-2.27,3.28h0a2.84,2.84,0,0,0,3.29,2.27l3.09-.57a2.82,2.82,0,0,1,3.32,3c-.06.93-.13,1.87-.21,2.81a2.81,2.81,0,0,1-2.3,2.55l-13.52,2.48a2.82,2.82,0,0,0-2.27,3.28h0a2.82,2.82,0,0,0,3.28,2.27l10.31-1.89a2.81,2.81,0,0,1,3.31,3.12c-.18,1.43-.37,2.85-.59,4.24a2.83,2.83,0,0,1-2.28,2.36l-22.75,4.18a2.82,2.82,0,0,0-2.26,3.28h0a2.82,2.82,0,0,0,3.28,2.27l18.2-3.34a2.82,2.82,0,0,1,3.21,3.59,27.81,27.81,0,0,1-3.35,7.76c-9.14,13.25-27.64,16.35-41.32,6.91S384.23,134,393.37,120.7a28.09,28.09,0,0,1,6.07-5.9,2.83,2.83,0,0,1,4.5,1.73l3.34,18.2A2.82,2.82,0,0,0,410.56,137Z"/><path class="cls-7" d="M399.44,114.8a2.83,2.83,0,0,1,4.5,1.73l3.34,18.2a2.82,2.82,0,1,0,5.55-1L408.65,111a2.84,2.84,0,0,1,1.4-3c1.23-.69,2.48-1.38,3.75-2a2.82,2.82,0,0,1,4.1,2l1.89,10.31a2.82,2.82,0,1,0,5.55-1l-2.48-13.52a2.82,2.82,0,0,1,1.56-3.06L427,99.44a2.82,2.82,0,0,1,3.95,2.06l.57,3.08a2.82,2.82,0,1,0,5.55-1L436,97.82a2.8,2.8,0,0,1,1.67-3.1c4.15-1.77,7.73-3.21,10.25-4.2a2.77,2.77,0,0,1,2.63.3l-49,71c-13.68-9.44-17.36-27.83-8.22-41.08A28.09,28.09,0,0,1,399.44,114.8Z"/></g></svg>