<svg id="Ilustracja" xmlns="http://www.w3.org/2000/svg" viewBox="0 0 566.93 566.93"><defs><style>.cls-1{fill:#324100;}.cls-2{fill:#6e7832;}.cls-3{fill:#d8aa91;}.cls-4{fill:#006464;}.cls-5{fill:#0f373c;}.cls-6{fill:#e6a073;}.cls-7{fill:#d37e44;}.cls-8{fill:#af500e;}.cls-13,.cls-18,.cls-9{fill:none;stroke-miterlimit:10;}.cls-9{stroke:#10373a;}.cls-13,.cls-9{stroke-width:1.08px;}.cls-10{fill:#059999;}.cls-11{fill:#d25a3c;}.cls-12{fill:#ff8764;}.cls-13{stroke:#333f00;}.cls-14{fill:#faebdc;}.cls-15{fill:#e8a272;}.cls-16{fill:#843500;}.cls-17{fill:#7c3200;}.cls-18{stroke:#af500e;stroke-width:21.56px;}</style></defs><path class="cls-1" d="M52.62,364.91A11,11,0,0,0,60,366.14a11.13,11.13,0,0,0,3-1,11.07,11.07,0,0,0,.4-19.53c-5.33-3-24.7-1.13-24.7-1.13S47.28,361.93,52.62,364.91Z"/><path class="cls-2" d="M157.06,394.59c21.41,50.49,22,98.53,22,98.53s-34.13-33.81-55.54-84.3-22-98.52-22-98.52S135.65,344.11,157.06,394.59Z"/><path class="cls-1" d="M123.51,408.82c21.41,50.49,55.54,84.3,55.54,84.3L101.51,310.3S102.09,358.34,123.51,408.82Z"/><path class="cls-2" d="M509.68,509.74c-27.37,20-60.29,21.44-60.29,21.44s11.44-30.91,38.8-50.88,60.28-21.44,60.28-21.44S537,489.77,509.68,509.74Z"/><path class="cls-1" d="M488.19,480.3c-27.36,20-38.8,50.88-38.8,50.88l99.08-72.32S515.55,460.33,488.19,480.3Z"/><path class="cls-2" d="M482.55,494.33c-11.74,31.77-38.35,51.21-38.35,51.21s-7.58-32.07,4.16-63.84,38.36-51.21,38.36-51.21S494.3,462.56,482.55,494.33Z"/><path class="cls-1" d="M448.36,481.7c-11.74,31.77-4.16,63.84-4.16,63.84l42.52-115S460.11,449.92,448.36,481.7Z"/><path class="cls-2" d="M495.88,496.51c-20.06,23.74-50.24,31.22-50.24,31.22S448,496.72,468,473s50.24-31.22,50.24-31.22S515.94,472.77,495.88,496.51Z"/><path class="cls-1" d="M468,473c-20.06,23.74-22.4,54.75-22.4,54.75l72.64-86S488.1,449.24,468,473Z"/><rect class="cls-3" x="50.74" y="527.21" width="290.24" height="15.28" rx="7.64"/><rect class="cls-3" x="319.59" y="536.38" width="183.31" height="12.22" rx="6.11"/><rect class="cls-3" x="111.84" y="554.71" width="100.82" height="12.22" rx="6.11"/><path class="cls-4" d="M175.58,465.55A48.88,48.88,0,0,1,84.74,501.7C74.76,476.61,94,392.79,94,392.79S165.59,440.46,175.58,465.55Z"/><path class="cls-5" d="M94,392.79S74.76,476.61,84.74,501.7A48.88,48.88,0,0,0,148.23,529Z"/><rect class="cls-6" x="166.83" y="365.29" width="244.41" height="97.76"/><path class="cls-6" d="M386.8,340.85H191.27a24.44,24.44,0,0,1-24.44,24.44H411.24A24.44,24.44,0,0,1,386.8,340.85Z"/><rect class="cls-6" x="154.61" y="365.29" width="268.85" height="12.22" rx="6.11"/><polygon class="cls-6" points="411.24 438.62 166.83 438.62 142.39 463.06 142.39 536.38 435.68 536.38 435.68 463.06 411.24 438.62"/><path class="cls-7" d="M243.21,438.62V377.51H237.1a6.11,6.11,0,1,1,0-12.22h6.11a24.44,24.44,0,0,0,24.44-24.44H191.27a24.44,24.44,0,0,1-24.44,24.44h-6.11a6.11,6.11,0,1,0,0,12.22h6.11v61.11l-24.44,24.44v73.32h76.38V463.06Z"/><path class="cls-8" d="M185.16,438.62V377.51h-6.11a6.11,6.11,0,0,1,0-12.22h6.11a24.45,24.45,0,0,0,24.45-24.44H191.27a24.44,24.44,0,0,1-24.44,24.44h-6.11a6.11,6.11,0,1,0,0,12.22h6.11v61.11l-24.44,24.44v73.32h18.33V463.06Z"/><path class="cls-4" d="M507.72,352.08a15.28,15.28,0,1,1-9.64-29c8-2.66,33.81,4.86,33.81,4.86S515.72,349.42,507.72,352.08Z"/><path class="cls-5" d="M531.89,328s-25.8-7.52-33.81-4.86a15.28,15.28,0,0,0-9.68,19.31Z"/><path class="cls-2" d="M58.48,359.07a10.94,10.94,0,0,0,5.29,4.6,8.35,8.35,0,0,0,2.66.57,7.57,7.57,0,0,0,5.1-1.62c4.09-3.18,4.86-9.91,1.73-15s-18.73-12.84-18.73-12.84S55.35,353.94,58.48,359.07Z"/><path class="cls-4" d="M478.61,420.8a15.28,15.28,0,1,1,24.13-18.74c5.18,6.66,6.68,33.5,6.68,33.5S483.79,427.46,478.61,420.8Z"/><path class="cls-5" d="M509.42,435.56s-1.5-26.84-6.68-33.5a15.28,15.28,0,0,0-21.43-2.7Z"/><polygon class="cls-7" points="142.39 463.06 435.68 463.06 411.24 438.61 166.83 438.61 142.39 463.06"/><rect class="cls-7" x="166.83" y="377.51" width="244.41" height="9.17"/><path class="cls-9" d="M469.29,496.66c-32.37-53.9-30-82-21.39-97.76,9-16.41,26.61-22.85,27.5-39.72.87-16.54-15-30.76-27.5-39.72"/><path class="cls-9" d="M444.85,441.67s9.93-58.05,39.72-39.72"/><path class="cls-9" d="M455,389.73c3.23-11.93.27-23.46-7.48-29.05a20,20,0,0,0-9.95-3.6"/><path class="cls-4" d="M444.68,344A13.13,13.13,0,0,1,431,366.41c-6.19-3.79-15.54-24.91-15.54-24.91S438.5,340.23,444.68,344Z"/><path class="cls-5" d="M415.43,341.5s9.35,21.12,15.54,24.91a13.12,13.12,0,0,0,18-4.34Z"/><path class="cls-9" d="M475.4,359.18c.45-2.46,2.21-10.25,9.17-15.27a21.23,21.23,0,0,1,6.11-3.06"/><path class="cls-5" d="M350.14,469.16a36.46,36.46,0,0,1,16.69,4,48.87,48.87,0,0,1,88.82,0,36.66,36.66,0,1,1,16.69,69.3H350.14a36.67,36.67,0,0,1,0-73.33Z"/><rect class="cls-8" x="166.83" y="377.51" width="76.38" height="9.17"/><polygon class="cls-8" points="243.21 438.61 166.83 438.61 142.39 463.06 218.77 463.06 243.21 438.61"/><path class="cls-8" d="M166.83,365.29h76.38a24.44,24.44,0,0,0,24.37-24.44H191.21A24.44,24.44,0,0,1,166.83,365.29Z"/><path class="cls-4" d="M117.18,497.85a23.43,23.43,0,0,1-35.82,30.2c-8.34-9.89-12.29-50.92-12.29-50.92S108.84,488,117.18,497.85Z"/><path class="cls-5" d="M69.07,477.13s4,41,12.29,50.92a23.43,23.43,0,0,0,33,2.81Z"/><rect class="cls-7" x="301.26" y="383.62" width="51.94" height="36.66"/><rect class="cls-8" x="301.26" y="386.68" width="51.94" height="6.11"/><rect class="cls-7" x="243.21" y="426.39" width="24.44" height="12.22"/><rect class="cls-7" x="218.77" y="524.16" width="24.44" height="12.22"/><rect class="cls-7" x="218.77" y="511.94" width="12.22" height="12.22"/><rect class="cls-7" x="243.21" y="414.17" width="12.22" height="12.22"/><rect class="cls-7" x="386.8" y="426.39" width="24.44" height="12.22" transform="translate(798.04 865.01) rotate(-180)"/><rect class="cls-7" x="399.02" y="414.17" width="12.22" height="12.22" transform="translate(810.27 840.57) rotate(-180)"/><rect class="cls-8" x="185.16" y="530.27" width="146.65" height="6.11"/><rect class="cls-8" x="166.83" y="432.5" width="244.41" height="6.11"/><path class="cls-4" d="M411.24,444.72a48.89,48.89,0,0,0-44.41,28.47,36.66,36.66,0,1,0-16.69,69.3h61.1Z"/><path class="cls-5" d="M334.86,505.82a36.69,36.69,0,0,1,26-35.07,36.66,36.66,0,1,0-10.68,71.74h21.39A36.67,36.67,0,0,1,334.86,505.82Z"/><path class="cls-10" d="M484.57,505.82a36.68,36.68,0,0,0-24.42-34.56,36.66,36.66,0,1,1,12.2,71.23H447.9A36.67,36.67,0,0,0,484.57,505.82Z"/><path class="cls-5" d="M357.24,524.16a52.45,52.45,0,0,0,3.26,18.33H460a52.49,52.49,0,0,0,3.26-18.33,53,53,0,0,0-106,0Z"/><path class="cls-4" d="M372.59,542.49a42.77,42.77,0,1,1,77.3,0Z"/><path class="cls-10" d="M402.08,482.38a42.78,42.78,0,0,1,47.81,60.11H431.56a42.79,42.79,0,0,0-29.48-60.11Z"/><path class="cls-11" d="M192.1,544.8a30.56,30.56,0,1,1-56.63-23c6.35-15.63,51.28-45.14,51.28-45.14S198.44,529.16,192.1,544.8Z"/><path class="cls-12" d="M186.75,476.69s-44.93,29.51-51.28,45.14a30.57,30.57,0,0,0,16.83,39.8Z"/><rect class="cls-7" x="380.69" y="386.68" width="30.55" height="15.28"/><path class="cls-13" d="M124.06,408.06c-6.11-24.51-20.34-42.56-36.68-45-1.69-.25-14.88-2-21.81,5.82-3.82,4.32-6.71,12.66-2,17.93,2.87,3.23,7.91,4.56,12.27,3.68a12,12,0,0,0,9.54-9.5"/><polygon class="cls-14" points="145.45 331.69 124.06 359.18 148.5 346.96 148.5 359.18 136.28 371.4 148.5 371.4 160.72 346.96 145.45 331.69"/><polyline class="cls-14" points="50.74 423.34 108.79 441.67 69.07 441.67 72.13 453.89 93.51 460 66.01 466.11 47.68 423.34"/><rect class="cls-8" x="194.33" y="359.18" width="207.75" height="6.11"/><path class="cls-2" d="M297.4,488.36l-1-36.12c-.27-9.27-8.84-13.49-16.35-8l-29.25,21.2c-5,3.64-7.73,10.44-6.47,16.25l.47,2.19c1.45,6.73,7.67,9.79,13.89,6.84h0c6.22-2.95,12.44.11,13.89,6.84h0c1.45,6.73,7.67,9.79,13.89,6.84l2-1C293.84,500.85,297.58,494.55,297.4,488.36Z"/><path class="cls-1" d="M258.68,490.66c-6.22,2.95-12.44-.11-13.89-6.84l-.47-2.19a16.63,16.63,0,0,1,6.47-16.25L280,444.18c3.76-2.73,7.78-3,10.89-1.5l-23.52,47.77A9.88,9.88,0,0,0,258.68,490.66Z"/><path class="cls-2" d="M249.36,499.27l-18-13c-4.62-3.35-9.88-.76-10,4.94l-.64,22.19a10.22,10.22,0,0,0,5.48,9.25l1.24.59A5.79,5.79,0,0,0,236,519h0a5.8,5.8,0,0,1,8.54-4.2h0a5.79,5.79,0,0,0,8.54-4.19l.29-1.35A10.23,10.23,0,0,0,249.36,499.27Z"/><path class="cls-1" d="M236,519a5.79,5.79,0,0,1-8.53,4.2l-1.25-.6a10.19,10.19,0,0,1-5.48-9.24l.64-22.19a6.48,6.48,0,0,1,3.36-5.87l14.44,29.37A6.08,6.08,0,0,0,236,519Z"/><path class="cls-15" d="M310.42,101.64h0c-20.24,0-33.6,16.41-33.6,36.66v51.94h33.6Z"/><path class="cls-8" d="M252.38,230v1.93a21.7,21.7,0,0,1,22.49,7.36l41.66,51.82v48.88h18.33V281.89l-18.33-21.38,15.69-21.06a39.51,39.51,0,0,0,5.57-9.29l.13-.21H252.38Z"/><path class="cls-16" d="M252.38,230v1.93a21.7,21.7,0,0,1,22.49,7.36L292,260.5h24.57l15.68-21.05a39.51,39.51,0,0,0,5.57-9.29l.13-.21H252.38Z"/><rect class="cls-8" x="200.44" y="205.51" width="18.33" height="134.43"/><rect class="cls-16" x="200.44" y="214.68" width="18.33" height="45.83"/><path class="cls-8" d="M426.42,226.9A55.17,55.17,0,0,0,371.52,175h-55V199.4h48.88A30.64,30.64,0,0,1,396,230v12.22a30.55,30.55,0,0,0,30.55,30.55V226.9Z"/><path class="cls-17" d="M426.43,226.9A55.17,55.17,0,0,0,371.53,175H359.31a55.17,55.17,0,0,1,54.9,51.94h.09v43.27a30.34,30.34,0,0,0,12.22,2.55V226.9Z"/><path class="cls-17" d="M367.26,175H316.53V199.4h48.89a30.45,30.45,0,0,1,21.49,8.9A49.54,49.54,0,0,0,367.26,175Z"/><rect class="cls-15" x="227.94" y="205.51" width="18.33" height="134.43"/><path class="cls-15" d="M377.62,215.1a39.71,39.71,0,0,0-36.65-40v-.12H240.34a21.58,21.58,0,0,1-21.57-21.58V132.13a51.91,51.91,0,0,0-50.2-51.88,5.71,5.71,0,0,0-3.16.87L118.2,110a5.88,5.88,0,0,0-1.09,9.16l8.14,8.13c4.95,5,12.13,4.77,18.92,3.07l15.37-3.84a5.87,5.87,0,0,1,7.29,5.69v57.76a58.34,58.34,0,0,0,58.34,58.34h20a6,6,0,0,0,2.12-.4L286.82,233c8.81-3.38,18.8-1.24,24.7,6.11l40.38,50.33a5.93,5.93,0,0,1,1.29,3.68V334a.28.28,0,0,0,0,.09V343h18.33V303.25h0V283.74a5.89,5.89,0,0,0-1.09-3.41l-11.94-16.72a5.87,5.87,0,0,1-.26-6.43l10.46-17.45a5.81,5.81,0,0,1,.4-.57,40.21,40.21,0,0,0,5.37-9l.11-.22h0A38.89,38.89,0,0,0,377.62,215.1Z"/><path class="cls-7" d="M377.63,215.1a39.71,39.71,0,0,0-36.65-40v-.12H329.22a46.16,46.16,0,0,1,30.08,43.8A45.33,45.33,0,0,1,355.72,236h0l-.14.26a46.69,46.69,0,0,1-6.24,10.48,6,6,0,0,0-.46.66l-12.17,20.3a6.84,6.84,0,0,0-.77,1.89l15.93,19.86a5.93,5.93,0,0,1,1.29,3.68V334a.28.28,0,0,0,0,.09v5.81h18.33V303.25h0V283.74a5.89,5.89,0,0,0-1.09-3.41L358.5,263.61a5.87,5.87,0,0,1-.26-6.43l10.46-17.45a5.81,5.81,0,0,1,.4-.57,40.59,40.59,0,0,0,5.37-9l.11-.22h0A38.89,38.89,0,0,0,377.63,215.1Z"/><path class="cls-7" d="M184.89,190V132.19a5.86,5.86,0,0,0-7.29-5.69l-12.18,3a5.85,5.85,0,0,1,.63,2.65V190a58.34,58.34,0,0,0,58.34,58.33h18.82A58.33,58.33,0,0,1,184.89,190Z"/><rect class="cls-16" x="200.44" y="327.72" width="18.33" height="12.22"/><rect class="cls-7" x="227.94" y="327.72" width="18.33" height="12.22"/><rect class="cls-16" x="316.53" y="327.72" width="18.33" height="12.22"/><rect class="cls-16" x="353.2" y="327.72" width="18.33" height="12.22"/><circle class="cls-8" cx="166.83" cy="101.64" r="6.11"/><path class="cls-8" d="M310.47,150.52h-.05V175h24.44v-.05A26,26,0,0,1,310.47,150.52Z"/><rect class="cls-15" x="295.15" y="64.98" width="15.28" height="48.88"/><rect class="cls-15" x="267.65" y="64.98" width="54.99" height="6.11" rx="3.06"/><path class="cls-15" d="M279.87,65h24.44a0,0,0,0,1,0,0V98.58a0,0,0,0,1,0,0H291.78a11.91,11.91,0,0,1-11.91-11.91V65A0,0,0,0,1,279.87,65Z"/><path class="cls-15" d="M282.93,65l9.48-45.83a2.82,2.82,0,0,1,5.48,0L307.37,65Z"/><path class="cls-15" d="M252.38,175h24.44V150.52A24.44,24.44,0,0,1,252.38,175Z"/><polygon class="cls-8" points="310.42 174.96 273.76 205.51 273.76 239.12 285.98 233.01 285.98 208.57 328.75 174.94 310.42 174.96"/><rect class="cls-15" x="258.49" y="202.46" width="18.33" height="58.05"/><polygon class="cls-8" points="307.37 64.97 282.93 64.97 284.82 55.81 305.48 55.81 307.37 64.97"/><polygon class="cls-15" points="305.48 55.81 284.82 55.81 286.72 46.65 303.59 46.65 305.48 55.81"/><polygon class="cls-8" points="303.59 46.65 286.72 46.65 288.62 37.48 301.69 37.48 303.59 46.65"/><polygon class="cls-15" points="301.11 36 288.98 36 290.74 27.5 299.35 27.5 301.11 36"/><polygon class="cls-8" points="299.35 27.5 290.74 27.5 292.5 18.99 297.59 18.99 299.35 27.5"/><polygon class="cls-8" points="279.87 86.36 279.87 71.09 310.42 71.09 279.87 86.36"/><polygon class="cls-7" points="246.27 260.5 234.05 269.67 234.05 275.78 246.27 275.78 246.27 260.5"/><path class="cls-15" d="M258.49,257.45l-18.33,12.22v6.11h26.43a10.23,10.23,0,0,0,10.23-10.23v-8.1Z"/><path class="cls-7" d="M295.15,120v27.49H264.6a15.28,15.28,0,0,0-15.28,15.28h61.1V104.69A15.28,15.28,0,0,0,295.15,120Z"/><path class="cls-7" d="M258.49,175H240.34a21.47,21.47,0,0,1-12.4-3.94v77.26h17.23a5.94,5.94,0,0,0,2.12-.39l11.2-4.22Z"/><path class="cls-18" d="M168.38,80.28a51.9,51.9,0,0,1,50.2,51.88v21.23A21.58,21.58,0,0,0,240.16,175h12.22"/><path class="cls-16" d="M194.33,75.88a62.45,62.45,0,0,0-25.6-6.37L168,91.05a41,41,0,0,1,26.3,10.57Z"/><path class="cls-15" d="M179.05,71.09V95.52H166.83V58.87A12.21,12.21,0,0,1,179.05,71.09Z"/></svg>