<svg id="Layer_1" data-name="Layer 1" xmlns="http://www.w3.org/2000/svg" viewBox="0 0 63.51 63.51"><defs><style>.cls-1{fill:none;}.cls-2{fill:#faebdc;}</style></defs><path class="cls-1" d="M31.84,48.07c-.24.58-.6,1.35-1.07,2.32-.35-1-.63-1.84-.83-2.44a19.08,19.08,0,0,1-.66-9,20.46,20.46,0,0,1,2.38-5.85,21,21,0,0,1,1.78,6.09A18.58,18.58,0,0,1,31.84,48.07Z"/><path class="cls-1" d="M34.22,24.52a20.93,20.93,0,0,1-2.38,5.86,20.91,20.91,0,0,1-1.78-6.09,18.62,18.62,0,0,1,1.6-8.86c.24-.57.6-1.35,1.06-2.31.36,1,.64,1.83.84,2.44A19,19,0,0,1,34.22,24.52Z"/><path class="cls-1" d="M30.37,31.66a20.45,20.45,0,0,1-6.08,1.78,18.62,18.62,0,0,1-8.86-1.6c-.57-.24-1.35-.6-2.32-1.06,1-.36,1.84-.64,2.45-.83a18.9,18.9,0,0,1,9-.67A20.75,20.75,0,0,1,30.37,31.66Z"/><path class="cls-1" d="M50.39,32.73c-1,.36-1.84.64-2.45.83a18.9,18.9,0,0,1-9,.66,20.61,20.61,0,0,1-5.86-2.37,20.92,20.92,0,0,1,6.09-1.79,18.62,18.62,0,0,1,8.86,1.6C48.64,31.9,49.42,32.26,50.39,32.73Z"/><path class="cls-2" d="M63.47,28.56A5.51,5.51,0,0,0,62,24.18c-1.58-1.75-3.8-2.49-6.66-2.24s-7.11,1.62-12.75,4.11L35.3,29.33s-.84.4-1,.15.27-1,.27-1l4-6.87q4.57-7.94,5.4-12.22c.56-2.85.06-5.13-1.5-6.86a5.52,5.52,0,0,0-4.24-2,7,7,0,0,0-4.66,2c-.1.1-.18.21-.28.31-.09-.11-.16-.23-.25-.33A6.86,6.86,0,0,0,28.56,0a5.49,5.49,0,0,0-4.38,1.51Q21.56,3.91,21.93,8.2T26.05,21l3.27,7.24s.41.84.16,1-1-.27-1-.27L21.6,25q-8-4.56-12.22-5.4t-6.86,1.5a5.49,5.49,0,0,0-2,4.24,6.93,6.93,0,0,0,2,4.66,4.12,4.12,0,0,0,.31.28c-.11.09-.23.16-.34.26A6.9,6.9,0,0,0,0,34.94a5.5,5.5,0,0,0,1.52,4.38c1.58,1.75,3.79,2.5,6.65,2.25S15.31,40,21,37.45l7.25-3.27s.84-.4,1-.16S29,35,29,35L25,41.9q-4.56,8-5.39,12.22T21.06,61a5.52,5.52,0,0,0,4.25,2A6.91,6.91,0,0,0,30,61a2.87,2.87,0,0,0,.29-.31c.09.11.16.23.25.34a6.91,6.91,0,0,0,4.44,2.48A5.5,5.5,0,0,0,39.32,62q2.63-2.35,2.24-6.65T37.45,42.55L34.18,35.3s-.41-.84-.16-1,1,.26,1,.26l6.87,4q7.93,4.56,12.22,5.4c2.85.55,5.13.05,6.86-1.5a5.54,5.54,0,0,0,2-4.25,6.91,6.91,0,0,0-2-4.65c-.1-.11-.21-.19-.31-.29L61,33A6.89,6.89,0,0,0,63.47,28.56Zm-15.53,5a18.9,18.9,0,0,1-9,.66,20.61,20.61,0,0,1-5.86-2.37L32.7,32l.57.93s.31.49.16.63-.6-.23-.6-.23c-.29-.24-.59-.47-.9-.7-.1.15-.18.31-.27.46a21,21,0,0,1,1.78,6.09,18.58,18.58,0,0,1-1.6,8.85c-.24.58-.6,1.35-1.07,2.32-.35-1-.63-1.84-.83-2.44a19.08,19.08,0,0,1-.66-9,20.46,20.46,0,0,1,2.38-5.85l-.2-.42q-.47.27-.93.57s-.49.31-.63.15.23-.59.23-.59c.24-.3.47-.6.7-.91l-.46-.27a20.45,20.45,0,0,1-6.08,1.78,18.62,18.62,0,0,1-8.86-1.6c-.57-.24-1.35-.6-2.32-1.06,1-.36,1.84-.64,2.45-.83a18.9,18.9,0,0,1,9-.67,20.75,20.75,0,0,1,5.85,2.38l.42-.2c-.18-.31-.37-.62-.57-.92,0,0-.31-.5-.15-.64s.59.24.59.24c.3.24.6.47.91.69l.27-.45a20.91,20.91,0,0,1-1.78-6.09,18.62,18.62,0,0,1,1.6-8.86c.24-.57.6-1.35,1.06-2.31.36,1,.64,1.83.84,2.44a19,19,0,0,1,.66,9,20.93,20.93,0,0,1-2.38,5.86l.2.42.93-.57s.49-.31.63-.16-.24.6-.24.6c-.24.29-.47.6-.69.9l.45.28a20.92,20.92,0,0,1,6.09-1.79,18.62,18.62,0,0,1,8.86,1.6c.57.24,1.35.6,2.32,1.07C49.37,33.09,48.55,33.37,47.94,33.56Z"/><path class="cls-2" d="M32,30.8l-.29.16-.18-.13.27-.45Z"/><path class="cls-2" d="M31.57,30.83c-.07.12-.15.23-.23.35l-.55.28c-.18-.31-.37-.62-.57-.92,0,0-.31-.5-.15-.64s.59.24.59.24C31,30.38,31.26,30.61,31.57,30.83Z"/><path class="cls-2" d="M33.43,33.6c-.16.14-.6-.23-.6-.23-.29-.24-.59-.47-.9-.7l.23-.34L32.7,32l.57.93S33.58,33.46,33.43,33.6Z"/><path class="cls-2" d="M33.12,31.85,32.7,32l-.16-.29.13-.18Z"/><path class="cls-2" d="M32.16,32.33c.18-.1.36-.2.55-.29-.06-.09-.11-.19-.16-.28Z"/><path class="cls-2" d="M31.76,31l-.19-.13-.22.35Z"/><path class="cls-2" d="M31,31.75l-.12.18-.46-.27.42-.2Z"/><path class="cls-2" d="M31.46,32.71q-.47.27-.93.57s-.49.31-.63.15.23-.59.23-.59c.24-.3.47-.6.7-.91l.34.23C31.27,32.34,31.37,32.52,31.46,32.71Z"/><path class="cls-2" d="M33.36,30.67c-.24.29-.47.6-.69.9l-.34-.22L32,30.8l.93-.57s.49-.31.63-.16S33.36,30.67,33.36,30.67Z"/><path class="cls-2" d="M32.33,31.35,32,30.8l-.28.16Z"/><path class="cls-2" d="M31,31.75l-.13.18.35.23Z"/><path class="cls-2" d="M31.93,32.67c-.1.15-.18.31-.27.46l-.2-.42a2.69,2.69,0,0,1,.29-.16Z"/><path class="cls-2" d="M31.75,32.55l.18.13c.08-.12.15-.24.23-.35Z"/><path class="cls-2" d="M31.35,31.18l-.55.28a2.69,2.69,0,0,0,.16.29Z"/><path class="cls-2" d="M31.18,32.16c.09.18.19.36.28.55l.29-.16Z"/><path class="cls-2" d="M32.55,31.76l.12-.18-.34-.23Z"/><path class="cls-2" d="M31,31.75l.22.41.57.39.41-.22.39-.57-.22-.41L31.76,31l-.41.22Z"/></svg>