<svg id="Layer_1" data-name="Layer 1" xmlns="http://www.w3.org/2000/svg" viewBox="0 0 63.51 63.51"><defs><style>.cls-1{fill:none}.cls-2{fill:#faebdc}</style></defs><path class="cls-1" d="M31.84 48.07c-.24.58-.6 1.35-1.07 2.32-.35-1-.63-1.84-.83-2.44a19.08 19.08 0 01-.66-9 20.46 20.46 0 012.38-5.85 21 21 0 011.78 6.09 18.58 18.58 0 01-1.6 8.88zM34.22 24.52a20.93 20.93 0 01-2.38 5.86 20.91 20.91 0 01-1.78-6.09 18.62 18.62 0 011.6-8.86c.24-.57.6-1.35 1.06-2.31.36 1 .64 1.83.84 2.44a19 19 0 01.66 8.96zM30.37 31.66a20.45 20.45 0 01-6.08 1.78 18.62 18.62 0 01-8.86-1.6c-.57-.24-1.35-.6-2.32-1.06 1-.36 1.84-.64 2.45-.83a18.9 18.9 0 019-.67 20.75 20.75 0 015.81 2.38zM50.39 32.73c-1 .36-1.84.64-2.45.83a18.9 18.9 0 01-9 .66 20.61 20.61 0 01-5.86-2.37 20.92 20.92 0 016.09-1.79 18.62 18.62 0 018.86 1.6c.61.24 1.39.6 2.36 1.07z"/><path class="cls-2" d="M63.47 28.56A5.51 5.51 0 0062 24.18c-1.58-1.75-3.8-2.49-6.66-2.24s-7.11 1.62-12.75 4.11l-7.29 3.28s-.84.4-1 .15.27-1 .27-1l4-6.87q4.57-7.94 5.4-12.22c.56-2.85.06-5.13-1.5-6.86a5.52 5.52 0 00-4.24-2 7 7 0 00-4.66 2c-.1.1-.18.21-.28.31-.09-.11-.16-.23-.25-.33A6.86 6.86 0 0028.56 0a5.49 5.49 0 00-4.38 1.51q-2.62 2.4-2.25 6.69T26.05 21l3.27 7.24s.41.84.16 1-1-.27-1-.27L21.6 25q-8-4.56-12.22-5.4t-6.86 1.5a5.49 5.49 0 00-2 4.24 6.93 6.93 0 002 4.66 4.12 4.12 0 00.31.28c-.11.09-.23.16-.34.26A6.9 6.9 0 000 34.94a5.5 5.5 0 001.52 4.38c1.58 1.75 3.79 2.5 6.65 2.25S15.31 40 21 37.45l7.25-3.27s.84-.4 1-.16S29 35 29 35l-4 6.9q-4.56 8-5.39 12.22T21.06 61a5.52 5.52 0 004.25 2A6.91 6.91 0 0030 61a2.87 2.87 0 00.29-.31c.09.11.16.23.25.34a6.91 6.91 0 004.44 2.48A5.5 5.5 0 0039.32 62q2.63-2.35 2.24-6.65t-4.11-12.8l-3.27-7.25s-.41-.84-.16-1 1 .26 1 .26l6.87 4q7.93 4.56 12.22 5.4c2.85.55 5.13.05 6.86-1.5a5.54 5.54 0 002-4.25 6.91 6.91 0 00-2-4.65c-.1-.11-.21-.19-.31-.29L61 33a6.89 6.89 0 002.47-4.44zm-15.53 5a18.9 18.9 0 01-9 .66 20.61 20.61 0 01-5.86-2.37l-.38.15.57.93s.31.49.16.63-.6-.23-.6-.23c-.29-.24-.59-.47-.9-.7-.1.15-.18.31-.27.46a21 21 0 011.78 6.09 18.58 18.58 0 01-1.6 8.85c-.24.58-.6 1.35-1.07 2.32-.35-1-.63-1.84-.83-2.44a19.08 19.08 0 01-.66-9 20.46 20.46 0 012.38-5.85l-.2-.42q-.47.27-.93.57s-.49.31-.63.15.23-.59.23-.59c.24-.3.47-.6.7-.91l-.46-.27a20.45 20.45 0 01-6.08 1.78 18.62 18.62 0 01-8.86-1.6c-.57-.24-1.35-.6-2.32-1.06 1-.36 1.84-.64 2.45-.83a18.9 18.9 0 019-.67 20.75 20.75 0 015.85 2.38l.42-.2c-.18-.31-.37-.62-.57-.92 0 0-.31-.5-.15-.64s.59.24.59.24c.3.24.6.47.91.69l.27-.45a20.91 20.91 0 01-1.78-6.09 18.62 18.62 0 011.6-8.86c.24-.57.6-1.35 1.06-2.31.36 1 .64 1.83.84 2.44a19 19 0 01.66 9 20.93 20.93 0 01-2.38 5.86l.2.42.93-.57s.49-.31.63-.16-.24.6-.24.6c-.24.29-.47.6-.69.9l.45.28a20.92 20.92 0 016.09-1.79 18.62 18.62 0 018.86 1.6c.57.24 1.35.6 2.32 1.07-1.06.39-1.88.67-2.49.86z"/><path class="cls-2" d="M32 30.8l-.29.16-.18-.13.27-.45z"/><path class="cls-2" d="M31.57 30.83c-.07.12-.15.23-.23.35l-.55.28c-.18-.31-.37-.62-.57-.92 0 0-.31-.5-.15-.64s.59.24.59.24c.34.24.6.47.91.69zM33.43 33.6c-.16.14-.6-.23-.6-.23-.29-.24-.59-.47-.9-.7l.23-.34.54-.33.57.93s.31.53.16.67zM33.12 31.85l-.42.15-.16-.29.13-.18z"/><path class="cls-2" d="M32.16 32.33c.18-.1.36-.2.55-.29-.06-.09-.11-.19-.16-.28zM31.76 31l-.19-.13-.22.35zM31 31.75l-.12.18-.46-.27.42-.2zM31.46 32.71q-.47.27-.93.57s-.49.31-.63.15.23-.59.23-.59c.24-.3.47-.6.7-.91l.34.23c.1.18.2.36.29.55zM33.36 30.67c-.24.29-.47.6-.69.9l-.34-.22-.33-.55.93-.57s.49-.31.63-.16-.2.6-.2.6z"/><path class="cls-2" d="M32.33 31.35L32 30.8l-.28.16zM31 31.75l-.13.18.35.23zM31.93 32.67c-.1.15-.18.31-.27.46l-.2-.42a2.69 2.69 0 01.29-.16z"/><path class="cls-2" d="M31.75 32.55l.18.13c.08-.12.15-.24.23-.35zM31.35 31.18l-.55.28a2.69 2.69 0 00.16.29zM31.18 32.16c.09.18.19.36.28.55l.29-.16zM32.55 31.76l.12-.18-.34-.23z"/><path class="cls-2" d="M31 31.75l.22.41.57.39.41-.22.39-.57-.22-.41-.61-.35-.41.22z"/></svg>