<svg version="1.1" id="Layer_1" xmlns="http://www.w3.org/2000/svg" x="0" y="0" viewBox="0 0 621.5 629.1" xml:space="preserve"><style>.st1{fill:#e56445}.st2{fill:#c1391e}.st3{fill:#006464}.st4{fill:#003f3f}.st5{fill:none;stroke:#002728;stroke-width:9.59;stroke-linecap:round;stroke-miterlimit:10}.st6{fill:#4c1f00}.st7{fill:#e6a073}.st8{fill:#ffbf9c}.st10{fill:none;stroke:#4c1f00;stroke-width:4.11;stroke-miterlimit:10}.st11{opacity:.5;fill:#4c1f00;enable-background:new}.st12{fill:#002728}.st13{fill:#ff8764}.st14{fill:#001919}.st15{fill:#d17846}.st16{fill:#872702}.st17{fill:#00bcb7}.st18{fill:#fff}.st19{fill:#e2bbaa}.st20{fill:#faebdc}</style><path d="M575.3 178.6c-3.3-5.3-6.7-10.5-10.3-15.5-18.8-26.7-41.7-50.3-67.8-69.9H124.4c-26.1 19.6-49 43.2-67.8 69.9-3.6 5.1-7 10.2-10.3 15.5-67 108.7-60.7 247.3 15.9 349.5 3 4 6 7.8 9.2 11.6 12.9 15.6 27.3 29.9 43 42.7l4.8 3.9c1.6 1.3 3.3 2.6 5 3.9H497c1.7-1.3 3.4-2.6 5-3.9 1.7-1.3 3.2-2.6 4.8-3.9 15.7-12.8 30.1-27.1 43.1-42.7 3.2-3.8 6.2-7.7 9.2-11.6C636 426 642.3 287.4 575.3 178.6z" fill="#00a8a3"/><path class="st1" d="M225.4 431.1v-81.6c0-15 12.2-27.1 27.2-27.2 15 0 27.1 12.2 27.2 27.2v81.6h-54.4z"/><path class="st2" d="M252.6 322.3c-15 0-27.1 12.2-27.2 27.2v81.6h27.2V322.3z"/><path class="st1" d="M435 356c0-25.7-20.9-46.6-46.6-46.6s-46.6 20.9-46.6 46.6c-24.3 8.5-37.1 35-28.6 59.3 6.5 18.8 24.3 31.3 44.1 31.2h62.2c25.7.1 46.6-20.7 46.7-46.4.1-19.8-12.4-37.5-31.2-44.1z"/><path class="st2" d="M380.7 311.3c-22 3.7-38.2 22.4-38.8 44.7-24.3 8.5-37.1 35-28.6 59.3 6.5 18.8 24.3 31.3 44.1 31.2h23.3V311.3z"/><path class="st3" d="M452.5 93.2H246.7c-3.2 0-5.8 2.6-5.8 5.8 0 3.2 2.6 5.8 5.8 5.8h19.4c3.2 0 5.8 2.6 5.8 5.8s-2.6 5.8-5.8 5.8h-38.8c-3.2 0-5.8 2.6-5.8 5.8 0 3.2 2.6 5.8 5.8 5.8h69.9c3.2 0 5.8 2.6 5.8 5.8s-2.6 5.8-5.8 5.8h-15.5c-3.2 0-5.8 2.6-5.8 5.8 0 3.2 2.6 5.8 5.8 5.8h108.7c3.2 0 5.8-2.6 5.8-5.8 0-3.2-2.6-5.8-5.8-5.8H371c-3.2 0-5.8-2.6-5.8-5.8s2.6-5.8 5.8-5.8h50.5c3.2 0 5.8-2.6 5.8-5.8 0-3.2-2.6-5.8-5.8-5.8h-19.4c-3.2 0-5.8-2.6-5.8-5.8s2.6-5.8 5.8-5.8h50.5c3.2 0 5.8-2.6 5.8-5.8 0-3.2-2.6-5.8-5.9-5.8z"/><path class="st4" d="M484.7 463.5c-14 63.2-39.9 111.1-58 107.1s-21.4-58.4-7.4-121.6c14-63.1 58-107 58-107s21.4 58.4 7.4 121.5z"/><path class="st5" d="M555.5 233v62.1c-.1 25.7-20.9 46.5-46.6 46.6-25.7-.1-46.5-20.9-46.6-46.6V233M508.9 233v170.9"/><path class="st5" d="M485.6 248.5v42.8c0 12.8-10.4 23.2-23.3 23.3-12.8 0-23.3-10.4-23.3-23.3v-42.8M578.8 248.5v42.8c0 12.8-10.4 23.2-23.3 23.3-12.8 0-23.3-10.4-23.3-23.3v-42.8M105 466c-36 0-46.6-21-46.6-46.6v-62.2M105 357.3v170.9"/><path class="st5" d="M81.7 372.8v42.7c0 12.8-10.4 23.3-23.3 23.3-12.8 0-23.3-10.4-23.3-23.3v-42.7M159.3 372.8c-25.7-.1-46.5-20.9-46.6-46.6v-46.6M159.3 256.3v178.6"/><path class="st5" d="M136 256.3V299c0 12.8-10.4 23.2-23.3 23.3-12.8 0-23.3-10.4-23.3-23.3v-42.7M193.6 236.9v62.8c-.1 18.9-15.4 34.2-34.2 34.2"/><circle class="st2" cx="357.4" cy="438.3" r="34.9"/><path class="st3" d="M275.8 461.6c0 27.9-22.7 50.5-50.5 50.4-11.2 0-22.2-3.8-31-10.7-22 17.2-53.7 13.3-70.9-8.7s-13.3-53.7 8.7-70.9c4.2-3.3 8.9-5.9 13.8-7.7-8.1-26.7 7-54.9 33.7-63s54.9 7 63 33.7c2.9 9.6 2.9 19.7 0 29.3 20 7.3 33.3 26.3 33.2 47.6z"/><path class="st4" d="M146 414.1c-8.1-26.7 7-54.9 33.7-63 4.7-1.4 9.6-2.2 14.6-2.2v152.4c-22 17.2-53.7 13.2-70.9-8.7-17.2-22-13.2-53.7 8.7-70.9 4.3-3.2 8.9-5.8 13.9-7.6z"/><path class="st3" d="M167.1 453.8h54.4c12.9 0 23.3 10.4 23.3 23.3s-10.4 23.3-23.3 23.3h-54.4c-12.9 0-23.3-10.4-23.3-23.3 0-12.8 10.4-23.3 23.3-23.3z"/><path class="st4" d="M145.7 426.6h46.6c7.5 0 13.6 6.1 13.6 13.6s-6.1 13.6-13.6 13.6h-46.6c-7.5 0-13.6-6.1-13.6-13.6.1-7.5 6.1-13.6 13.6-13.6z"/><path class="st3" d="M180.7 407.2h31.1c5.4 0 9.7 4.3 9.7 9.7 0 5.4-4.3 9.7-9.7 9.7h-31.1c-5.4 0-9.7-4.3-9.7-9.7 0-5.3 4.3-9.7 9.7-9.7z"/><path class="st4" d="M188.5 372.3h11.6c9.7 0 17.5 7.8 17.5 17.5s-7.8 17.5-17.5 17.5h-11.6c-9.7 0-17.5-7.8-17.5-17.5s7.8-17.5 17.5-17.5z"/><path class="st3" d="M217.6 354.7v.1c0 9.6-7.8 17.4-17.5 17.5h-11.7c-9.6 0-17.4-7.8-17.5-17.5v-.2c14.7-7.5 32.1-7.5 46.7.1z"/><path class="st6" d="M362.9 243.8l5.2-38.2 5.8 38.2z"/><path class="st7" d="M231.7 429.7h21.9v98.4h-21.9z"/><path class="st6" d="M242.6 375.1l-10.9 54.6h21.9z"/><path class="st8" d="M291.8 254.8H341v193.3h-49.2z"/><path class="st6" d="M341.1 254.8h27.3v193.3h-27.3z"/><path class="st8" d="M286.4 243.8h10.9V293h-10.9z"/><path class="st6" d="M362.9 243.8h10.9V293h-10.9zM291.8 446.1h-60.1l32.5-43.7h27.6z"/><path fill="#260f00" d="M401.2 446.1h-60.1l20.7-43.7h50.3z"/><path class="st8" d="M231.7 446.1h169.5v82H231.7z"/><path class="st6" d="M291.8 293.1h54.7V304h-54.7zM297.3 276.4h38.3v5.7h-38.3zM220.8 380.5l-11 54.7h21.9zM412.1 380.5l-10.9 54.7h21.9zM297.3 342.3v-27.4c0-3 2.5-5.5 5.5-5.5s5.5 2.5 5.5 5.5v27.4h-11zM297.3 396.9V375c0-3 2.5-5.5 5.5-5.5s5.5 2.5 5.5 5.5v21.9h-11zM297.3 446.1v-21.9c0-3 2.5-5.5 5.5-5.5s5.5 2.5 5.5 5.5v21.9h-11zM297.3 484.4V468c0-3 2.5-5.5 5.5-5.5s5.5 2.5 5.5 5.5v16.4h-11zM319.2 484.4V468c0-3 2.5-5.5 5.5-5.5s5.5 2.5 5.5 5.5v16.4h-11zM352 484.4V468c0-3 2.5-5.5 5.5-5.5s5.5 2.5 5.5 5.5v16.4h-11zM373.9 484.4V468c0-3 2.5-5.5 5.5-5.5s5.5 2.5 5.5 5.5v16.4h-11zM352 517.2v-16.4c0-3 2.5-5.5 5.5-5.5s5.5 2.5 5.5 5.5v16.4h-11zM373.9 517.2v-16.4c0-3 2.5-5.5 5.5-5.5s5.5 2.5 5.5 5.5v16.4h-11zM248.1 484.4V468c0-3 2.5-5.5 5.5-5.5s5.5 2.5 5.5 5.5v16.4h-11zM270 484.4V468c0-3 2.5-5.5 5.5-5.5s5.5 2.5 5.5 5.5v16.4h-11zM248.1 517.2v-16.4c0-3 2.5-5.5 5.5-5.5s5.5 2.5 5.5 5.5v16.4h-11zM270 517.2v-16.4c0-3 2.5-5.5 5.5-5.5s5.5 2.5 5.5 5.5v16.4h-11zM319.2 396.9V375c0-3 2.5-5.5 5.5-5.5s5.5 2.5 5.5 5.5v21.9h-11zM319.2 446.1v-21.9c0-3 2.5-5.5 5.5-5.5s5.5 2.5 5.5 5.5v21.9h-11zM319.2 342.3v-27.4c0-3 2.5-5.5 5.5-5.5s5.5 2.5 5.5 5.5v27.4h-11zM297.3 528.2v-16.4c0-9.1 7.4-16.4 16.4-16.4 9.1 0 16.4 7.4 16.4 16.4v16.4h-32.8z"/><path class="st8" d="M335.6 243.8h10.9V293h-10.9z"/><path class="st6" d="M297.3 282.1v-19.2c0-1.5 1.2-2.7 2.7-2.7 1.5 0 2.7 1.2 2.7 2.7v19.2h-5.4zM330.1 282.1v-19.2c0-1.5 1.2-2.7 2.7-2.7 1.5 0 2.7 1.2 2.7 2.7v19.2h-5.4zM319.2 282.1v-19.2c0-1.5 1.2-2.7 2.7-2.7 1.5 0 2.7 1.2 2.7 2.7v19.2h-5.4zM308.2 282.1v-19.2c0-1.5 1.2-2.7 2.7-2.7 1.5 0 2.7 1.2 2.7 2.7v19.2h-5.4z"/><path class="st8" d="M209.8 435.2h21.9v93h-21.9zM401.2 435.2h21.9v93h-21.9z"/><path class="st6" d="M317.6 156.4h25.1c2.1 0 3.9 1.7 3.9 3.9v3.2c0 2.1-1.7 3.9-3.9 3.9h-25.1c-2.1 0-3.9-1.7-3.9-3.9v-3.2c0-2.2 1.7-3.9 3.9-3.9zM341.1 451.6h60.1v5.5h-60.1zM231.7 451.6h60.1v5.5h-60.1z"/><path class="st6" d="M341.1 451.6h5.5v76.5h-5.5z"/><path class="st10" d="M341.1 349.5h-49.3M341.1 396.1h-49.3"/><path class="st6" d="M356.1 254.8h-53.3l24.6-142.2h5.7z"/><path class="st11" d="M291.8 352.4l49.3-49.2h-49.3zM291.8 401.6l49.3-43.7h-49.3zM291.8 450.9l49.3-43.8h-49.3z"/><path class="st4" d="M396.2 528.2c0-12.9 10.4-23.3 23.3-23.3s23.3 10.4 23.3 23.3"/><path class="st12" d="M167 416.9c-.1-1.2-.4-2.4-.8-3.5-.3-.8-.6-1.6-1-2.4-.2-.5-.5-.9-.8-1.4-.6-.9-1.3-1.8-2.1-2.5-6.2-6.2-33.9-11.3-33.9-11.3s5.1 27.7 11.3 34c6.2 6.2 16.4 6.3 22.6 0 2.2-2.2 3.8-5.1 4.4-8.2.2-1 .3-2 .3-3.1.1-.6.1-1.1 0-1.6z"/><path class="st3" d="M157.4 402.7c5.6 6.5 5 16.3-1.5 21.9-5.9 5.1-14.6 5.1-20.4 0-6.1-6.1-11-32.9-11-32.9s26.8 4.9 32.9 11z"/><path class="st4" d="M124.4 391.7l33 32.9c6-6.1 6-15.9 0-21.9-6.1-6.1-33-11-33-11z"/><path class="st1" d="M155.5 528.2c-.5-19.3 14.7-35.4 34-35.9s35.4 14.7 35.9 34v2h-69.9v-.1z"/><path class="st13" d="M163.2 528.2c0-15 12.2-27.2 27.2-27.2s27.2 12.2 27.2 27.2h-54.4z"/><path class="st1" d="M171 528.2c-.3-10.7 8.2-19.7 18.9-19.9 10.7-.3 19.7 8.2 19.9 18.9v1H171z"/><path class="st13" d="M178.8 528.2c-.3-6.4 4.6-11.9 11.1-12.2 6.4-.3 11.9 4.6 12.2 11.1v1.1h-23.3z"/><path class="st12" d="M487.5 388.4c-5.4 7.3-10.5 14.8-15.2 22.6-45.1 75.2-64.3 146.6-42.8 159.5l1.8.9c17.7-3.9 40.6-49 53.4-107 6.1-27.8 5.4-54.7 2.8-76z"/><path class="st11" d="M272 524.2c-.1-21.5-17.5-39-39.1-39.1h-69.4c-21.5.1-39 17.5-39.1 39.1v3.9H272v-3.9zM415.7 466c0-11.1-5.9-21.4-15.5-26.9-1.7-1-3.5-1.8-5.4-2.5h-.2c-.5-.2-1.1-.4-1.7-.5h-.2c-1.2-.3-2.5-.6-3.7-.8h-.5c-.5 0-.9-.1-1.4-.2h-.5c-.6 0-1.3-.1-1.9-.1-17.2 0-31.1 13.9-31.1 31.1-17.2 0-31.1 13.9-31.1 31v7.8c-12.8 0-23.2 10.4-23.3 23.3h147.5v-31.3c0-17-13.9-30.9-31-30.9z"/><path class="st3" d="M431.2 466c.4-17.2-13.3-31.4-30.4-31.7-17.2-.4-31.4 13.3-31.7 30.4v1.3c-17.1 0-31 13.9-31 31.1v7.8c-12.8 0-23.3 10.4-23.3 23.3h147.5v-31.1c0-17.2-14-31.1-31.1-31.1z"/><path class="st4" d="M369.1 504.9v-7.8c0-17.2 13.9-31.1 31-31.1 0-11.1 5.9-21.3 15.5-26.9-14.8-8.6-33.8-3.5-42.4 11.3-2.7 4.7-4.2 10.1-4.2 15.6-17.2 0-31.1 13.9-31 31.1v7.8c-12.8 0-23.3 10.4-23.3 23.3h31.1c0-12.9 10.4-23.3 23.3-23.3z"/><path class="st7" d="M559.4 528.2c-3 4-6 7.8-9.2 11.6-12.9 15.6-27.4 29.9-43.1 42.7H114.5c-15.7-12.8-30.1-27.1-43-42.7-3.2-3.8-6.2-7.7-9.2-11.6h497.1z"/><path class="st3" d="M256.4 528.2c-.1-19.3-15.7-34.9-34.9-35h-62.1c-19.3.1-34.9 15.7-34.9 35h131.9z"/><path class="st12" d="M177.7 528.2c.7-7.3 1.1-14.5 1.1-21.8 0-35.1-8.7-63.6-19.4-63.6S140 471.3 140 506.4c0 7.3.4 14.6 1.1 21.8h36.6z"/><path class="st14" d="M159.3 442.7v85.4H141c-.7-7.3-1.1-14.5-1.1-21.8 0-35.1 8.7-63.6 19.4-63.6z"/><path class="st12" d="M105 528.2c-.4-17.2 13.3-31.4 30.4-31.7 17.2-.4 31.4 13.3 31.7 30.4v1.3H105z"/><path class="st14" d="M136 497.1c-17.2 0-31.1 13.9-31.1 31H136v-31z"/><path class="st12" d="M415 528.2c.4-3.9.7-7.8.7-11.7 0-19.3-5.2-34.9-11.6-34.9s-11.7 15.6-11.7 34.9c0 3.9.2 7.8.7 11.7H415z"/><path class="st14" d="M404 481.6v46.6h-11c-.4-3.9-.7-7.8-.7-11.7 0-19.3 5.3-34.9 11.7-34.9z"/><path class="st12" d="M395.6 528.2c.5-2.3.7-4.5.7-6.9 0-11.3-5.2-20.4-11.7-20.4-6.4 0-11.6 9.1-11.6 20.4 0 2.3.2 4.6.7 6.9h21.9z"/><path class="st14" d="M384.6 500.9c-6.4 0-11.6 9.1-11.6 20.4 0 2.3.2 4.6.7 6.8h11l-.1-27.2z"/><path class="st15" d="M559.4 528.2c-3 4-6 7.8-9.2 11.6-2.2 2.6-4.4 5.2-6.7 7.8H78.1c-2.3-2.5-4.5-5.1-6.7-7.8-3.2-3.8-6.2-7.7-9.2-11.6h497.2z"/><path class="st16" d="M68.3 535.9h485c2-2.6 4.1-5.1 6-7.8h-497c1.9 2.7 3.9 5.3 6 7.8z"/><path class="st3" d="M211.8 520.4c3.2 0 5.8 2.6 5.8 5.8v42.7c0 3.2-2.6 5.8-5.8 5.8-3.2 0-5.8-2.6-5.8-5.8v-42.7c-.1-3.2 2.6-5.8 5.8-5.8zM235.1 501c3.2 0 5.8 2.6 5.8 5.8v42.7c0 3.2-2.6 5.8-5.8 5.8-3.2 0-5.8-2.6-5.8-5.8v-42.7c-.1-3.2 2.6-5.8 5.8-5.8z"/><path class="st3" d="M223.4 512.6c-3.2 0-5.8 2.6-5.8 5.8v23.3c.2-3.2 2.9-5.7 6.1-5.5 3 .1 5.4 2.5 5.5 5.5v-23.3c0-3.2-2.6-5.8-5.8-5.8z"/><path class="st14" d="M132.2 516.5c2.2 0 3.9 1.7 3.9 3.9V567c0 2.1-1.7 3.9-3.9 3.9-2.1 0-3.9-1.7-3.9-3.9v-46.6c0-2.2 1.7-3.9 3.9-3.9zM116.6 508.7c2.2 0 3.9 1.7 3.9 3.9v46.6c0 2.1-1.7 3.9-3.9 3.9-2.1 0-3.9-1.7-3.9-3.9v-46.6c0-2.1 1.8-3.9 3.9-3.9z"/><path class="st14" d="M124.4 524.2c-2.1 0-3.9 1.7-3.9 3.9v19.4c-.1-2.1 1.5-4 3.7-4.1 2.1-.1 4 1.5 4.1 3.7v.5-19.4c0-2.2-1.7-4-3.9-4z"/><path class="st3" d="M537.8 449.5c-30.9 51.5-67.9 86.1-82.6 77.3s-1.6-57.7 29.3-109.2 82.6-77.3 82.6-77.3 1.6 57.7-29.3 109.2z"/><path class="st1" d="M423.4 528.2c-.5-34.3 26.9-62.5 61.2-63.1 34.3-.5 62.5 26.9 63.1 61.2v1.8H423.4v.1zM215.7 213.6h-48.8c-2-17.7-17-31-34.7-31.1-19.3.1-34.9 15.7-34.9 34.9v6.5c0 9.2-7.5 16.7-16.7 16.8H66.1C51.1 240.8 39 253 39 268s12.2 27.1 27.2 27.2H140c15 0 27.1-12.2 27.2-27.2 0-1.3-.1-2.6-.3-3.9h48.9c13.9 0 25.2-11.3 25.2-25.2-.1-14-11.4-25.3-25.3-25.3z"/><path class="st2" d="M126.3 221.4h-9.7v-3.9c.1-15.5 10.3-29.2 25.3-33.6-3.2-.9-6.4-1.4-9.7-1.4-19.3.1-34.9 15.7-34.9 34.9v6.5c0 9.2-7.5 16.7-16.7 16.7H66.1C51.1 240.8 39 253 39 268c0 15 12.2 27.1 27.2 27.2h19.4c-15 0-27.1-12.2-27.2-27.2 0-15 12.2-27.1 27.2-27.2h40.8c5.4.2 9.9-4 10.1-9.3.2-5.4-4-9.9-9.3-10.1h-.9z"/><circle class="st17" cx="400.1" cy="202" r="15.5"/><path class="st18" d="M400.1 186.4c-1.3 0-2.6.2-3.9.5 8.3 2.1 13.3 10.6 11.2 18.9-1.4 5.5-5.7 9.8-11.2 11.2 1.3.3 2.6.5 3.9.5 8.6.3 15.7-6.5 16-15.1s-6.5-15.7-15.1-16h-.9z"/><ellipse transform="rotate(-45.001 393.402 195.335)" class="st18" cx="393.4" cy="195.3" rx="5.8" ry="3.9"/><circle class="st17" cx="563.2" cy="454.4" r="15.5"/><path class="st18" d="M563.2 438.8c-1.3 0-2.6.2-3.9.5 8.3 2.1 13.3 10.6 11.2 18.9-1.4 5.5-5.7 9.8-11.2 11.2 1.3.3 2.6.5 3.9.5 8.6 0 15.5-6.9 15.5-15.5.1-8.6-6.9-15.6-15.5-15.6z"/><ellipse transform="rotate(-45.001 556.489 447.729)" class="st18" cx="556.5" cy="447.7" rx="5.8" ry="3.9"/><circle class="st17" cx="489.4" cy="403.9" r="15.5"/><path class="st18" d="M489.4 388.4c-1.3 0-2.6.2-3.9.5 8.3 2.1 13.3 10.6 11.2 18.9-1.4 5.5-5.7 9.8-11.2 11.2 1.3.3 2.6.5 3.9.5 8.6 0 15.5-7 15.5-15.5.1-8.7-6.9-15.6-15.5-15.6z"/><ellipse transform="rotate(-45.001 482.68 397.227)" class="st18" cx="482.7" cy="397.2" rx="5.8" ry="3.9"/><circle class="st17" cx="252.6" cy="287.4" r="15.5"/><path class="st18" d="M252.6 271.8c-1.3 0-2.6.2-3.9.5 8.3 2.1 13.3 10.6 11.1 18.9-1.4 5.5-5.7 9.7-11.1 11.1 1.3.3 2.6.5 3.9.5 8.6 0 15.5-7 15.5-15.5s-7-15.4-15.5-15.5z"/><ellipse transform="rotate(-45.001 245.92 280.69)" class="st18" cx="245.9" cy="280.7" rx="5.8" ry="3.9"/><circle class="st17" cx="217.6" cy="186.4" r="15.5"/><path class="st18" d="M217.6 170.9c-1.3 0-2.6.2-3.9.5 8.3 2.1 13.3 10.6 11.2 18.9-1.4 5.5-5.7 9.8-11.2 11.2 1.3.3 2.6.5 3.9.5 8.6 0 15.5-6.9 15.5-15.5 0-8.7-6.9-15.6-15.5-15.6z"/><ellipse transform="rotate(-45.001 210.892 179.692)" class="st18" cx="210.9" cy="179.7" rx="5.8" ry="3.9"/><circle class="st17" cx="70" cy="334" r="15.5"/><path class="st18" d="M70 318.5c-1.3 0-2.6.2-3.9.5 8.3 2.1 13.3 10.6 11.2 18.9-1.4 5.5-5.7 9.8-11.2 11.2 1.3.3 2.6.5 3.9.5 8.6.3 15.7-6.5 16-15.1s-6.5-15.7-15.1-16c-.3-.1-.6-.1-.9 0z"/><ellipse transform="rotate(-45.001 63.293 327.322)" class="st18" cx="63.3" cy="327.3" rx="5.8" ry="3.9"/><path class="st3" d="M258.4 163.1h27.2c3.2 0 5.8 2.6 5.8 5.8 0 3.2-2.6 5.8-5.8 5.8h-27.2c-3.2 0-5.8-2.6-5.8-5.8 0-3.2 2.6-5.8 5.8-5.8zM409.8 139.8h58.3c3.2 0 5.8 2.6 5.8 5.8 0 3.2-2.6 5.8-5.8 5.8h-58.3c-3.2 0-5.8-2.6-5.8-5.8 0-3.2 2.6-5.8 5.8-5.8z"/><path class="st19" d="M161.1 582.5c-15.7-12.8-30.1-27.1-43-42.7-3.2-3.8-6.2-7.7-9.2-11.6C5.9 390.9 33.7 196.1 171 93.1c19.2-14.4 40.1-26.6 62.1-36.2V35.1c0-10.8 8.7-19.6 19.5-19.6H206c-10.8 0-19.6 8.7-19.6 19.5v21.9C29.2 125.7-42.6 308.8 26 466.1c9.6 22.1 21.8 42.9 36.2 62.2 3 4 6 7.8 9.2 11.6 12.9 15.6 27.3 29.9 43 42.7l4.8 3.9c1.6 1.3 3.3 2.6 5 3.9H171c-1.7-1.3-3.4-2.6-5-3.9-1.7-1.2-3.4-2.6-4.9-4z"/><path class="st2" d="M437 493.2c-1 0-1.9 0-2.9.1-7 10.3-10.7 22.4-10.7 34.9h81.5c-15.6-22-40.9-35-67.9-35z"/><path class="st6" d="M286.4 243.8l5.2-38.2 5.7 38.2z"/><path class="st8" d="M335.6 243.8l5.2-38.2 5.7 38.2z"/><ellipse class="st3" cx="174.9" cy="151.5" rx="34.9" ry="11.6"/><path class="st3" d="M124.4 135.9c8.6-.3 15.7 6.5 16 15.1.3 8.6-6.5 15.7-15.1 16h-.9v-31.1z"/><ellipse class="st1" cx="454.5" cy="279.6" rx="27.2" ry="11.6"/><path class="st1" d="M407.9 260.2c10.7 0 19.4 8.7 19.4 19.4s-8.7 19.4-19.4 19.4"/><ellipse transform="rotate(-25.371 559.002 222.397)" class="st20" cx="559" cy="222.4" rx="25.9" ry="48.8"/><path class="st20" d="M246.4 582.5c-15.7-12.8-30.1-27.1-43-42.7-3.2-3.8-6.2-7.7-9.2-11.6-76.6-102.2-82.9-240.8-15.9-349.5 3.3-5.3 6.7-10.5 10.3-15.5 18.8-26.7 41.7-50.3 67.8-69.9H171c-26.1 19.6-49 43.2-67.8 69.9-3.6 5.1-7 10.3-10.3 15.5-67 108.7-60.7 247.3 15.9 349.5 3 4 6 7.8 9.2 11.6 12.9 15.6 27.3 29.9 43 42.7l4.8 3.9c1.6 1.3 3.3 2.6 5 3.9h85.4c-1.7-1.3-3.4-2.6-5-3.9s-3.3-2.6-4.8-3.9z"/><path d="M186.5 0H435c12.9 0 23.3 10.4 23.3 23.3S447.9 46.6 435 46.6H186.5c-12.9 0-23.3-10.4-23.3-23.3S173.7 0 186.5 0z" fill="#ffdfca"/><path class="st19" d="M209.8 23.3c0-12.8 10.4-23.2 23.3-23.3h-46.6c-12.8 0-23.2 10.4-23.3 23.3 0 12.8 10.4 23.3 23.3 23.3h46.6c-12.8 0-23.2-10.4-23.3-23.3z"/><path class="st3" d="M376.8 565.1c0-33.2 27-60.2 60.2-60.2s60.2 27 60.2 60.2H376.8z"/><path class="st15" d="M371 559.2h135.9c3.2 0 5.8 2.6 5.8 5.8 0 3.2-2.6 5.8-5.8 5.8H371c-3.2 0-5.8-2.6-5.8-5.8 0-3.2 2.6-5.8 5.8-5.8z"/><path d="M116.6 582.5h392.2c12.9 0 23.3 10.4 23.3 23.3s-10.4 23.3-23.3 23.3H116.6c-12.9 0-23.3-10.4-23.3-23.3 0-12.8 10.5-23.3 23.3-23.3z" fill="#af4617"/><path class="st16" d="M508.9 582.5H474c12.8 0 23.3 10.4 23.3 23.3 0 12.8-10.4 23.2-23.3 23.3h34.9c12.8 0 23.2-10.4 23.3-23.3-.1-12.8-10.5-23.2-23.3-23.3z"/></svg>