<?xml version="1.0" encoding="utf-8"?>
<!-- Generator: Adobe Illustrator 24.3.0, SVG Export Plug-In . SVG Version: 6.00 Build 0)  -->
<svg version="1.1" id="Layer_1" xmlns="http://www.w3.org/2000/svg" xmlns:xlink="http://www.w3.org/1999/xlink" x="0px" y="0px"
	 viewBox="0 0 621.5 629.1" style="enable-background:new 0 0 621.5 629.1;" xml:space="preserve">
<style type="text/css">
	.st0{fill:#00A8A3;}
	.st1{fill:#E56445;}
	.st2{fill:#C1391E;}
	.st3{fill:#006464;}
	.st4{fill:#003F3F;}
	.st5{fill:none;stroke:#002728;stroke-width:9.59;stroke-linecap:round;stroke-miterlimit:10;}
	.st6{fill:#4C1F00;}
	.st7{fill:#E6A073;}
	.st8{fill:#FFBF9C;}
	.st9{fill:#260F00;}
	.st10{fill:none;stroke:#4C1F00;stroke-width:4.11;stroke-miterlimit:10;}
	.st11{opacity:0.5;fill:#4C1F00;enable-background:new    ;}
	.st12{fill:#002728;}
	.st13{fill:#FF8764;}
	.st14{fill:#001919;}
	.st15{fill:#D17846;}
	.st16{fill:#872702;}
	.st17{fill:#00BCB7;}
	.st18{fill:#FFFFFF;}
	.st19{fill:#E2BBAA;}
	.st20{fill:#FAEBDC;}
	.st21{fill:#FFDFCA;}
	.st22{fill:#AF4617;}
</style>
<path class="st0" d="M575.3,178.6c-3.3-5.3-6.7-10.5-10.3-15.5c-18.8-26.7-41.7-50.3-67.8-69.9H124.4c-26.1,19.6-49,43.2-67.8,69.9
	c-3.6,5.1-7,10.2-10.3,15.5c-67,108.7-60.7,247.3,15.9,349.5c3,4,6,7.8,9.2,11.6c12.9,15.6,27.3,29.9,43,42.7
	c1.6,1.3,3.2,2.6,4.8,3.9c1.6,1.3,3.3,2.6,5,3.9H497c1.7-1.3,3.4-2.6,5-3.9c1.7-1.3,3.2-2.6,4.8-3.9c15.7-12.8,30.1-27.1,43.1-42.7
	c3.2-3.8,6.2-7.7,9.2-11.6C636,426,642.3,287.4,575.3,178.6z"/>
<path class="st1" d="M225.4,431.1v-81.6c0-15,12.2-27.1,27.2-27.2l0,0c15,0,27.1,12.2,27.2,27.2v81.6H225.4z"/>
<path class="st2" d="M252.6,322.3c-15,0-27.1,12.2-27.2,27.2v81.6h27.2V322.3z"/>
<path class="st1" d="M435,356c0-25.7-20.9-46.6-46.6-46.6s-46.6,20.9-46.6,46.6c-24.3,8.5-37.1,35-28.6,59.3
	c6.5,18.8,24.3,31.3,44.1,31.2h62.2c25.7,0.1,46.6-20.7,46.7-46.4C466.3,380.3,453.8,362.6,435,356z"/>
<path class="st2" d="M380.7,311.3c-22,3.7-38.2,22.4-38.8,44.7c-24.3,8.5-37.1,35-28.6,59.3c6.5,18.8,24.3,31.3,44.1,31.2h23.3
	V311.3z"/>
<path class="st3" d="M452.5,93.2H246.7c-3.2,0-5.8,2.6-5.8,5.8l0,0c0,3.2,2.6,5.8,5.8,5.8h19.4c3.2,0,5.8,2.6,5.8,5.8
	s-2.6,5.8-5.8,5.8h-38.8c-3.2,0-5.8,2.6-5.8,5.8l0,0c0,3.2,2.6,5.8,5.8,5.8h69.9c3.2,0,5.8,2.6,5.8,5.8s-2.6,5.8-5.8,5.8h-15.5
	c-3.2,0-5.8,2.6-5.8,5.8l0,0c0,3.2,2.6,5.8,5.8,5.8h108.7c3.2,0,5.8-2.6,5.8-5.8l0,0c0-3.2-2.6-5.8-5.8-5.8H371
	c-3.2,0-5.8-2.6-5.8-5.8s2.6-5.8,5.8-5.8h50.5c3.2,0,5.8-2.6,5.8-5.8l0,0c0-3.2-2.6-5.8-5.8-5.8h-19.4c-3.2,0-5.8-2.6-5.8-5.8
	s2.6-5.8,5.8-5.8h50.5c3.2,0,5.8-2.6,5.8-5.8l0,0C458.4,95.8,455.8,93.2,452.5,93.2z"/>
<path class="st4" d="M484.7,463.5c-14,63.2-39.9,111.1-58,107.1s-21.4-58.4-7.4-121.6c14-63.1,58-107,58-107
	S498.7,400.4,484.7,463.5z"/>
<path class="st5" d="M555.5,233v62.1c-0.1,25.7-20.9,46.5-46.6,46.6l0,0c-25.7-0.1-46.5-20.9-46.6-46.6V233"/>
<line class="st5" x1="508.9" y1="233" x2="508.9" y2="403.9"/>
<path class="st5" d="M485.6,248.5v42.8c0,12.8-10.4,23.2-23.3,23.3l0,0c-12.8,0-23.3-10.4-23.3-23.3v-42.8"/>
<path class="st5" d="M578.8,248.5v42.8c0,12.8-10.4,23.2-23.3,23.3l0,0c-12.8,0-23.3-10.4-23.3-23.3v-42.8"/>
<path class="st5" d="M105,466L105,466c-36,0-46.6-21-46.6-46.6v-62.2"/>
<line class="st5" x1="105" y1="357.3" x2="105" y2="528.2"/>
<path class="st5" d="M81.7,372.8v42.7c0,12.8-10.4,23.3-23.3,23.3l0,0c-12.8,0-23.3-10.4-23.3-23.3v-42.7"/>
<path class="st5" d="M159.3,372.8L159.3,372.8c-25.7-0.1-46.5-20.9-46.6-46.6v-46.6"/>
<line class="st5" x1="159.3" y1="256.3" x2="159.3" y2="434.9"/>
<path class="st5" d="M136,256.3V299c0,12.8-10.4,23.2-23.3,23.3l0,0c-12.8,0-23.3-10.4-23.3-23.3v-42.7"/>
<path class="st5" d="M193.6,236.9v62.8c-0.1,18.9-15.4,34.2-34.2,34.2l0,0"/>
<circle class="st2" cx="357.4" cy="438.3" r="34.9"/>
<path class="st3" d="M275.8,461.6c0,27.9-22.7,50.5-50.5,50.4c-11.2,0-22.2-3.8-31-10.7c-22,17.2-53.7,13.3-70.9-8.7
	s-13.3-53.7,8.7-70.9c4.2-3.3,8.9-5.9,13.8-7.7c-8.1-26.7,7-54.9,33.7-63s54.9,7,63,33.7c2.9,9.6,2.9,19.7,0,29.3
	C262.6,421.3,275.9,440.3,275.8,461.6z"/>
<path class="st4" d="M146,414.1c-8.1-26.7,7-54.9,33.7-63c4.7-1.4,9.6-2.2,14.6-2.2v152.4c-22,17.2-53.7,13.2-70.9-8.7
	c-17.2-22-13.2-53.7,8.7-70.9C136.4,418.5,141,415.9,146,414.1z"/>
<path class="st3" d="M167.1,453.8h54.4c12.9,0,23.3,10.4,23.3,23.3l0,0c0,12.9-10.4,23.3-23.3,23.3h-54.4
	c-12.9,0-23.3-10.4-23.3-23.3l0,0C143.8,464.3,154.2,453.8,167.1,453.8z"/>
<path class="st4" d="M145.7,426.6h46.6c7.5,0,13.6,6.1,13.6,13.6l0,0c0,7.5-6.1,13.6-13.6,13.6h-46.6c-7.5,0-13.6-6.1-13.6-13.6l0,0
	C132.2,432.7,138.2,426.6,145.7,426.6z"/>
<path class="st3" d="M180.7,407.2h31.1c5.4,0,9.7,4.3,9.7,9.7l0,0c0,5.4-4.3,9.7-9.7,9.7h-31.1c-5.4,0-9.7-4.3-9.7-9.7l0,0
	C171,411.6,175.3,407.2,180.7,407.2z"/>
<path class="st4" d="M188.5,372.3h11.6c9.7,0,17.5,7.8,17.5,17.5l0,0c0,9.7-7.8,17.5-17.5,17.5h-11.6c-9.7,0-17.5-7.8-17.5-17.5l0,0
	C171,380.1,178.8,372.3,188.5,372.3z"/>
<path class="st3" d="M217.6,354.7v0.1c0,9.6-7.8,17.4-17.5,17.5h-11.7c-9.6,0-17.4-7.8-17.5-17.5v-0.2
	C185.6,347.1,203,347.1,217.6,354.7L217.6,354.7z"/>
<polygon class="st6" points="362.9,243.8 368.1,205.6 373.9,243.8 "/>
<rect x="231.7" y="429.7" class="st7" width="21.9" height="98.4"/>
<polygon class="st6" points="242.6,375.1 231.7,429.7 253.6,429.7 "/>
<rect x="291.8" y="254.8" class="st8" width="49.2" height="193.3"/>
<rect x="341.1" y="254.8" class="st6" width="27.3" height="193.3"/>
<rect x="286.4" y="243.8" class="st8" width="10.9" height="49.2"/>
<rect x="362.9" y="243.8" class="st6" width="10.9" height="49.2"/>
<polygon class="st6" points="291.8,446.1 231.7,446.1 264.2,402.4 291.8,402.4 "/>
<polygon class="st9" points="401.2,446.1 341.1,446.1 361.8,402.4 412.1,402.4 "/>
<rect x="231.7" y="446.1" class="st8" width="169.5" height="82"/>
<rect x="291.8" y="293.1" class="st6" width="54.7" height="10.9"/>
<rect x="297.3" y="276.4" class="st6" width="38.3" height="5.7"/>
<polygon class="st6" points="220.8,380.5 209.8,435.2 231.7,435.2 "/>
<polygon class="st6" points="412.1,380.5 401.2,435.2 423.1,435.2 "/>
<path class="st6" d="M297.3,342.3v-27.4c0-3,2.5-5.5,5.5-5.5l0,0c3,0,5.5,2.5,5.5,5.5v27.4H297.3z"/>
<path class="st6" d="M297.3,396.9V375c0-3,2.5-5.5,5.5-5.5l0,0c3,0,5.5,2.5,5.5,5.5v21.9H297.3z"/>
<path class="st6" d="M297.3,446.1v-21.9c0-3,2.5-5.5,5.5-5.5l0,0c3,0,5.5,2.5,5.5,5.5v21.9H297.3z"/>
<path class="st6" d="M297.3,484.4V468c0-3,2.5-5.5,5.5-5.5l0,0c3,0,5.5,2.5,5.5,5.5v16.4H297.3z"/>
<path class="st6" d="M319.2,484.4V468c0-3,2.5-5.5,5.5-5.5l0,0c3,0,5.5,2.5,5.5,5.5v16.4H319.2z"/>
<path class="st6" d="M352,484.4V468c0-3,2.5-5.5,5.5-5.5l0,0c3,0,5.5,2.5,5.5,5.5v16.4H352z"/>
<path class="st6" d="M373.9,484.4V468c0-3,2.5-5.5,5.5-5.5l0,0c3,0,5.5,2.5,5.5,5.5v16.4H373.9z"/>
<path class="st6" d="M352,517.2v-16.4c0-3,2.5-5.5,5.5-5.5l0,0c3,0,5.5,2.5,5.5,5.5v16.4H352z"/>
<path class="st6" d="M373.9,517.2v-16.4c0-3,2.5-5.5,5.5-5.5l0,0c3,0,5.5,2.5,5.5,5.5v16.4H373.9z"/>
<path class="st6" d="M248.1,484.4V468c0-3,2.5-5.5,5.5-5.5l0,0c3,0,5.5,2.5,5.5,5.5v16.4H248.1z"/>
<path class="st6" d="M270,484.4V468c0-3,2.5-5.5,5.5-5.5l0,0c3,0,5.5,2.5,5.5,5.5v16.4H270z"/>
<path class="st6" d="M248.1,517.2v-16.4c0-3,2.5-5.5,5.5-5.5l0,0c3,0,5.5,2.5,5.5,5.5v16.4H248.1z"/>
<path class="st6" d="M270,517.2v-16.4c0-3,2.5-5.5,5.5-5.5l0,0c3,0,5.5,2.5,5.5,5.5v16.4H270z"/>
<path class="st6" d="M319.2,396.9V375c0-3,2.5-5.5,5.5-5.5l0,0c3,0,5.5,2.5,5.5,5.5v21.9H319.2z"/>
<path class="st6" d="M319.2,446.1v-21.9c0-3,2.5-5.5,5.5-5.5l0,0c3,0,5.5,2.5,5.5,5.5v21.9H319.2z"/>
<path class="st6" d="M319.2,342.3v-27.4c0-3,2.5-5.5,5.5-5.5l0,0c3,0,5.5,2.5,5.5,5.5v27.4H319.2z"/>
<path class="st6" d="M297.3,528.2v-16.4c0-9.1,7.4-16.4,16.4-16.4l0,0c9.1,0,16.4,7.4,16.4,16.4v16.4H297.3z"/>
<rect x="335.6" y="243.8" class="st8" width="10.9" height="49.2"/>
<path class="st6" d="M297.3,282.1v-19.2c0-1.5,1.2-2.7,2.7-2.7l0,0c1.5,0,2.7,1.2,2.7,2.7v19.2H297.3z"/>
<path class="st6" d="M330.1,282.1v-19.2c0-1.5,1.2-2.7,2.7-2.7l0,0c1.5,0,2.7,1.2,2.7,2.7v19.2H330.1z"/>
<path class="st6" d="M319.2,282.1v-19.2c0-1.5,1.2-2.7,2.7-2.7l0,0c1.5,0,2.7,1.2,2.7,2.7v19.2H319.2z"/>
<path class="st6" d="M308.2,282.1v-19.2c0-1.5,1.2-2.7,2.7-2.7l0,0c1.5,0,2.7,1.2,2.7,2.7v19.2H308.2z"/>
<rect x="209.8" y="435.2" class="st8" width="21.9" height="93"/>
<rect x="401.2" y="435.2" class="st8" width="21.9" height="93"/>
<path class="st6" d="M317.6,156.4h25.1c2.1,0,3.9,1.7,3.9,3.9v3.2c0,2.1-1.7,3.9-3.9,3.9h-25.1c-2.1,0-3.9-1.7-3.9-3.9v-3.2
	C313.7,158.1,315.4,156.4,317.6,156.4z"/>
<rect x="341.1" y="451.6" class="st6" width="60.1" height="5.5"/>
<rect x="231.7" y="451.6" class="st6" width="60.1" height="5.5"/>
<rect x="341.1" y="451.6" class="st6" width="5.5" height="76.5"/>
<line class="st10" x1="341.1" y1="349.5" x2="291.8" y2="349.5"/>
<line class="st10" x1="341.1" y1="396.1" x2="291.8" y2="396.1"/>
<polygon class="st6" points="356.1,254.8 302.8,254.8 327.4,112.6 333.1,112.6 "/>
<polygon class="st11" points="291.8,352.4 341.1,303.2 291.8,303.2 "/>
<polygon class="st11" points="291.8,401.6 341.1,357.9 291.8,357.9 "/>
<polygon class="st11" points="291.8,450.9 341.1,407.1 291.8,407.1 "/>
<path class="st4" d="M396.2,528.2c0-12.9,10.4-23.3,23.3-23.3s23.3,10.4,23.3,23.3l0,0"/>
<path class="st12" d="M167,416.9c-0.1-1.2-0.4-2.4-0.8-3.5c-0.3-0.8-0.6-1.6-1-2.4c-0.2-0.5-0.5-0.9-0.8-1.4
	c-0.6-0.9-1.3-1.8-2.1-2.5c-6.2-6.2-33.9-11.3-33.9-11.3l0,0c0,0,5.1,27.7,11.3,34c6.2,6.2,16.4,6.3,22.6,0l0,0l0,0
	c2.2-2.2,3.8-5.1,4.4-8.2c0.2-1,0.3-2,0.3-3.1C167.1,417.9,167.1,417.4,167,416.9z"/>
<path class="st3" d="M157.4,402.7c5.6,6.5,5,16.3-1.5,21.9c-5.9,5.1-14.6,5.1-20.4,0c-6.1-6.1-11-32.9-11-32.9
	S151.3,396.6,157.4,402.7z"/>
<path class="st4" d="M124.4,391.7L124.4,391.7l33,32.9l0,0c6-6.1,6-15.9,0-21.9C151.3,396.6,124.4,391.7,124.4,391.7z"/>
<path class="st1" d="M155.5,528.2c-0.5-19.3,14.7-35.4,34-35.9s35.4,14.7,35.9,34c0,0.7,0,1.3,0,2h-69.9V528.2z"/>
<path class="st13" d="M163.2,528.2c0-15,12.2-27.2,27.2-27.2s27.2,12.2,27.2,27.2l0,0H163.2z"/>
<path class="st1" d="M171,528.2c-0.3-10.7,8.2-19.7,18.9-19.9c10.7-0.3,19.7,8.2,19.9,18.9c0,0.3,0,0.7,0,1H171z"/>
<path class="st13" d="M178.8,528.2c-0.3-6.4,4.6-11.9,11.1-12.2c6.4-0.3,11.9,4.6,12.2,11.1c0,0.4,0,0.8,0,1.1L178.8,528.2
	L178.8,528.2z"/>
<path class="st12" d="M487.5,388.4c-5.4,7.3-10.5,14.8-15.2,22.6c-45.1,75.2-64.3,146.6-42.8,159.5c0.6,0.3,1.2,0.6,1.8,0.9
	c17.7-3.9,40.6-49,53.4-107C490.8,436.6,490.1,409.7,487.5,388.4z"/>
<path class="st11" d="M272,524.2c-0.1-21.5-17.5-39-39.1-39.1h-69.4c-21.5,0.1-39,17.5-39.1,39.1l0,0v3.9H272V524.2z"/>
<path class="st11" d="M415.7,466c0-11.1-5.9-21.4-15.5-26.9l0,0c-1.7-1-3.5-1.8-5.4-2.5h-0.2c-0.5-0.2-1.1-0.4-1.7-0.5h-0.2
	c-1.2-0.3-2.5-0.6-3.7-0.8h-0.5c-0.5,0-0.9-0.1-1.4-0.2h-0.5c-0.6,0-1.3-0.1-1.9-0.1c-17.2,0-31.1,13.9-31.1,31.1
	c-17.2,0-31.1,13.9-31.1,31l0,0l0,0v7.8c-12.8,0-23.2,10.4-23.3,23.3h147.5v-31.3C446.7,479.9,432.8,466,415.7,466L415.7,466z"/>
<path class="st3" d="M431.2,466c0.4-17.2-13.3-31.4-30.4-31.7c-17.2-0.4-31.4,13.3-31.7,30.4c0,0.4,0,0.9,0,1.3
	c-17.1,0-31,13.9-31,31.1l0,0v7.8c-12.8,0-23.3,10.4-23.3,23.3h147.5v-31.1C462.3,479.9,448.3,466,431.2,466z"/>
<path class="st4" d="M369.1,504.9v-7.8l0,0c0-17.2,13.9-31.1,31-31.1l0,0c0-11.1,5.9-21.3,15.5-26.9c-14.8-8.6-33.8-3.5-42.4,11.3
	c-2.7,4.7-4.2,10.1-4.2,15.6c-17.2,0-31.1,13.9-31,31.1l0,0l0,0v7.8c-12.8,0-23.3,10.4-23.3,23.3h31.1
	C345.8,515.3,356.2,504.9,369.1,504.9z"/>
<path class="st7" d="M559.4,528.2c-3,4-6,7.8-9.2,11.6c-12.9,15.6-27.4,29.9-43.1,42.7H114.5c-15.7-12.8-30.1-27.1-43-42.7
	c-3.2-3.8-6.2-7.7-9.2-11.6H559.4z"/>
<path class="st3" d="M256.4,528.2c-0.1-19.3-15.7-34.9-34.9-35h-62.1c-19.3,0.1-34.9,15.7-34.9,35H256.4z"/>
<path class="st12" d="M177.7,528.2c0.7-7.3,1.1-14.5,1.1-21.8c0-35.1-8.7-63.6-19.4-63.6S140,471.3,140,506.4
	c0,7.3,0.4,14.6,1.1,21.8H177.7z"/>
<path class="st14" d="M159.3,442.7v85.4H141c-0.7-7.3-1.1-14.5-1.1-21.8C139.9,471.2,148.6,442.7,159.3,442.7z"/>
<path class="st12" d="M105,528.2c-0.4-17.2,13.3-31.4,30.4-31.7c17.2-0.4,31.4,13.3,31.7,30.4c0,0.4,0,0.9,0,1.3H105z"/>
<path class="st14" d="M136,497.1c-17.2,0-31.1,13.9-31.1,31l0,0H136V497.1z"/>
<path class="st12" d="M415,528.2c0.4-3.9,0.7-7.8,0.7-11.7c0-19.3-5.2-34.9-11.6-34.9s-11.7,15.6-11.7,34.9c0,3.9,0.2,7.8,0.7,11.7
	H415z"/>
<path class="st14" d="M404,481.6v46.6h-11c-0.4-3.9-0.7-7.8-0.7-11.7C392.3,497.2,397.6,481.6,404,481.6z"/>
<path class="st12" d="M395.6,528.2c0.5-2.3,0.7-4.5,0.7-6.9c0-11.3-5.2-20.4-11.7-20.4c-6.4,0-11.6,9.1-11.6,20.4
	c0,2.3,0.2,4.6,0.7,6.9H395.6z"/>
<path class="st14" d="M384.6,500.9c-6.4,0-11.6,9.1-11.6,20.4c0,2.3,0.2,4.6,0.7,6.8h11L384.6,500.9z"/>
<path class="st15" d="M559.4,528.2c-3,4-6,7.8-9.2,11.6c-2.2,2.6-4.4,5.2-6.7,7.8H78.1c-2.3-2.5-4.5-5.1-6.7-7.8
	c-3.2-3.8-6.2-7.7-9.2-11.6H559.4z"/>
<path class="st16" d="M68.3,535.9h485c2-2.6,4.1-5.1,6-7.8h-497C64.2,530.8,66.2,533.4,68.3,535.9z"/>
<path class="st3" d="M211.8,520.4L211.8,520.4c3.2,0,5.8,2.6,5.8,5.8v42.7c0,3.2-2.6,5.8-5.8,5.8l0,0c-3.2,0-5.8-2.6-5.8-5.8v-42.7
	C205.9,523,208.6,520.4,211.8,520.4z"/>
<path class="st3" d="M235.1,501L235.1,501c3.2,0,5.8,2.6,5.8,5.8v42.7c0,3.2-2.6,5.8-5.8,5.8l0,0c-3.2,0-5.8-2.6-5.8-5.8v-42.7
	C229.2,503.6,231.9,501,235.1,501z"/>
<path class="st3" d="M223.4,512.6c-3.2,0-5.8,2.6-5.8,5.8v23.3c0.2-3.2,2.9-5.7,6.1-5.5c3,0.1,5.4,2.5,5.5,5.5v-23.3
	C229.2,515.2,226.6,512.6,223.4,512.6z"/>
<path class="st14" d="M132.2,516.5L132.2,516.5c2.2,0,3.9,1.7,3.9,3.9V567c0,2.1-1.7,3.9-3.9,3.9l0,0c-2.1,0-3.9-1.7-3.9-3.9v-46.6
	C128.3,518.2,130,516.5,132.2,516.5z"/>
<path class="st14" d="M116.6,508.7L116.6,508.7c2.2,0,3.9,1.7,3.9,3.9v46.6c0,2.1-1.7,3.9-3.9,3.9l0,0c-2.1,0-3.9-1.7-3.9-3.9v-46.6
	C112.7,510.5,114.5,508.7,116.6,508.7z"/>
<path class="st14" d="M124.4,524.2c-2.1,0-3.9,1.7-3.9,3.9v19.4c-0.1-2.1,1.5-4,3.7-4.1c2.1-0.1,4,1.5,4.1,3.7c0,0.2,0,0.3,0,0.5
	v-19.4C128.3,526,126.6,524.2,124.4,524.2L124.4,524.2z"/>
<path class="st3" d="M537.8,449.5c-30.9,51.5-67.9,86.1-82.6,77.3s-1.6-57.7,29.3-109.2s82.6-77.3,82.6-77.3S568.7,398,537.8,449.5z
	"/>
<path class="st1" d="M423.4,528.2c-0.5-34.3,26.9-62.5,61.2-63.1c34.3-0.5,62.5,26.9,63.1,61.2c0,0.6,0,1.2,0,1.8H423.4V528.2z"/>
<path class="st1" d="M215.7,213.6h-48.8c-2-17.7-17-31-34.7-31.1l0,0c-19.3,0.1-34.9,15.7-34.9,34.9v6.5c0,9.2-7.5,16.7-16.7,16.8
	H66.1C51.1,240.8,39,253,39,268l0,0c0,15,12.2,27.1,27.2,27.2H140c15,0,27.1-12.2,27.2-27.2l0,0c0-1.3-0.1-2.6-0.3-3.9h48.9
	c13.9,0,25.2-11.3,25.2-25.2l0,0C240.9,224.9,229.6,213.6,215.7,213.6z"/>
<path class="st2" d="M126.3,221.4h-9.7v-3.9c0.1-15.5,10.3-29.2,25.3-33.6c-3.2-0.9-6.4-1.4-9.7-1.4l0,0
	c-19.3,0.1-34.9,15.7-34.9,34.9v6.5c0,9.2-7.5,16.7-16.7,16.7H66.1C51.1,240.8,39,253,39,268l0,0c0,15,12.2,27.1,27.2,27.2h19.4
	c-15,0-27.1-12.2-27.2-27.2l0,0c0-15,12.2-27.1,27.2-27.2h40.8c5.4,0.2,9.9-4,10.1-9.3c0.2-5.4-4-9.9-9.3-10.1
	C126.8,221.4,126.6,221.4,126.3,221.4L126.3,221.4z"/>
<circle class="st17" cx="400.1" cy="202" r="15.5"/>
<path class="st18" d="M400.1,186.4c-1.3,0-2.6,0.2-3.9,0.5c8.3,2.1,13.3,10.6,11.2,18.9c-1.4,5.5-5.7,9.8-11.2,11.2
	c1.3,0.3,2.6,0.5,3.9,0.5c8.6,0.3,15.7-6.5,16-15.1s-6.5-15.7-15.1-16C400.7,186.4,400.4,186.4,400.1,186.4z"/>
<ellipse transform="matrix(0.7071 -0.7071 0.7071 0.7071 -22.8938 335.388)" class="st18" cx="393.4" cy="195.3" rx="5.8" ry="3.9"/>
<circle class="st17" cx="563.2" cy="454.4" r="15.5"/>
<path class="st18" d="M563.2,438.8c-1.3,0-2.6,0.2-3.9,0.5c8.3,2.1,13.3,10.6,11.2,18.9c-1.4,5.5-5.7,9.8-11.2,11.2
	c1.3,0.3,2.6,0.5,3.9,0.5c8.6,0,15.5-6.9,15.5-15.5C578.8,445.8,571.8,438.8,563.2,438.8L563.2,438.8z"/>
<ellipse transform="matrix(0.7071 -0.7071 0.7071 0.7071 -153.5935 524.6328)" class="st18" cx="556.5" cy="447.7" rx="5.8" ry="3.9"/>
<circle class="st17" cx="489.4" cy="403.9" r="15.5"/>
<path class="st18" d="M489.4,388.4c-1.3,0-2.6,0.2-3.9,0.5c8.3,2.1,13.3,10.6,11.2,18.9c-1.4,5.5-5.7,9.8-11.2,11.2
	c1.3,0.3,2.6,0.5,3.9,0.5c8.6,0,15.5-7,15.5-15.5C505,395.3,498,388.4,489.4,388.4z"/>
<ellipse transform="matrix(0.7071 -0.7071 0.7071 0.7071 -139.5018 457.6512)" class="st18" cx="482.7" cy="397.2" rx="5.8" ry="3.9"/>
<circle class="st17" cx="252.6" cy="287.4" r="15.5"/>
<path class="st18" d="M252.6,271.8c-1.3,0-2.6,0.2-3.9,0.5c8.3,2.1,13.3,10.6,11.1,18.9c-1.4,5.5-5.7,9.7-11.1,11.1
	c1.3,0.3,2.6,0.5,3.9,0.5c8.6,0,15.5-7,15.5-15.5S261.1,271.9,252.6,271.8z"/>
<ellipse transform="matrix(0.7071 -0.7071 0.7071 0.7071 -126.4455 256.1035)" class="st18" cx="245.9" cy="280.7" rx="5.8" ry="3.9"/>
<circle class="st17" cx="217.6" cy="186.4" r="15.5"/>
<path class="st18" d="M217.6,170.9c-1.3,0-2.6,0.2-3.9,0.5c8.3,2.1,13.3,10.6,11.2,18.9c-1.4,5.5-5.7,9.8-11.2,11.2
	c1.3,0.3,2.6,0.5,3.9,0.5c8.6,0,15.5-6.9,15.5-15.5C233.1,177.8,226.2,170.9,217.6,170.9L217.6,170.9L217.6,170.9z"/>
<ellipse transform="matrix(0.7071 -0.7071 0.7071 0.7071 -65.29 201.7532)" class="st18" cx="210.9" cy="179.7" rx="5.8" ry="3.9"/>
<circle class="st17" cx="70" cy="334" r="15.5"/>
<path class="st18" d="M70,318.5c-1.3,0-2.6,0.2-3.9,0.5c8.3,2.1,13.3,10.6,11.2,18.9c-1.4,5.5-5.7,9.8-11.2,11.2
	c1.3,0.3,2.6,0.5,3.9,0.5c8.6,0.3,15.7-6.5,16-15.1s-6.5-15.7-15.1-16C70.6,318.4,70.3,318.4,70,318.5L70,318.5z"/>
<ellipse transform="matrix(0.7071 -0.7071 0.7071 0.7071 -212.9107 140.6274)" class="st18" cx="63.3" cy="327.3" rx="5.8" ry="3.9"/>
<path class="st3" d="M258.4,163.1h27.2c3.2,0,5.8,2.6,5.8,5.8l0,0c0,3.2-2.6,5.8-5.8,5.8h-27.2c-3.2,0-5.8-2.6-5.8-5.8l0,0
	C252.6,165.7,255.2,163.1,258.4,163.1z"/>
<path class="st3" d="M409.8,139.8h58.3c3.2,0,5.8,2.6,5.8,5.8l0,0c0,3.2-2.6,5.8-5.8,5.8h-58.3c-3.2,0-5.8-2.6-5.8-5.8l0,0
	C404,142.4,406.6,139.8,409.8,139.8z"/>
<path class="st19" d="M161.1,582.5c-15.7-12.8-30.1-27.1-43-42.7c-3.2-3.8-6.2-7.7-9.2-11.6C5.9,390.9,33.7,196.1,171,93.1
	c19.2-14.4,40.1-26.6,62.1-36.2V35.1c0-10.8,8.7-19.6,19.5-19.6l0,0H206c-10.8,0-19.6,8.7-19.6,19.5l0,0v21.9
	C29.2,125.7-42.6,308.8,26,466.1c9.6,22.1,21.8,42.9,36.2,62.2c3,4,6,7.8,9.2,11.6c12.9,15.6,27.3,29.9,43,42.7
	c1.6,1.3,3.2,2.6,4.8,3.9c1.6,1.3,3.3,2.6,5,3.9H171c-1.7-1.3-3.4-2.6-5-3.9C164.3,585.3,162.6,583.9,161.1,582.5z"/>
<path class="st2" d="M437,493.2c-1,0-1.9,0-2.9,0.1c-7,10.3-10.7,22.4-10.7,34.9h81.5C489.3,506.2,464,493.2,437,493.2z"/>
<polygon class="st6" points="286.4,243.8 291.6,205.6 297.3,243.8 "/>
<polygon class="st8" points="335.6,243.8 340.8,205.6 346.5,243.8 "/>
<ellipse class="st3" cx="174.9" cy="151.5" rx="34.9" ry="11.6"/>
<path class="st3" d="M124.4,135.9c8.6-0.3,15.7,6.5,16,15.1c0.3,8.6-6.5,15.7-15.1,16c-0.3,0-0.6,0-0.9,0
	C124.4,167,124.4,135.9,124.4,135.9z"/>
<ellipse class="st1" cx="454.5" cy="279.6" rx="27.2" ry="11.6"/>
<path class="st1" d="M407.9,260.2c10.7,0,19.4,8.7,19.4,19.4c0,10.7-8.7,19.4-19.4,19.4l0,0"/>
<ellipse transform="matrix(0.9036 -0.4285 0.4285 0.9036 -41.3798 260.9831)" class="st20" cx="559" cy="222.4" rx="25.9" ry="48.8"/>
<path class="st20" d="M246.4,582.5c-15.7-12.8-30.1-27.1-43-42.7c-3.2-3.8-6.2-7.7-9.2-11.6c-76.6-102.2-82.9-240.8-15.9-349.5
	c3.3-5.3,6.7-10.5,10.3-15.5c18.8-26.7,41.7-50.3,67.8-69.9H171c-26.1,19.6-49,43.2-67.8,69.9c-3.6,5.1-7,10.3-10.3,15.5
	c-67,108.7-60.7,247.3,15.9,349.5c3,4,6,7.8,9.2,11.6c12.9,15.6,27.3,29.9,43,42.7c1.6,1.3,3.2,2.6,4.8,3.9s3.3,2.6,5,3.9h85.4
	c-1.7-1.3-3.4-2.6-5-3.9S247.9,583.8,246.4,582.5z"/>
<path class="st21" d="M186.5,0H435c12.9,0,23.3,10.4,23.3,23.3l0,0c0,12.9-10.4,23.3-23.3,23.3H186.5c-12.9,0-23.3-10.4-23.3-23.3
	l0,0C163.2,10.4,173.7,0,186.5,0z"/>
<path class="st19" d="M209.8,23.3L209.8,23.3c0-12.8,10.4-23.2,23.3-23.3h-46.6c-12.8,0-23.2,10.4-23.3,23.3l0,0
	c0,12.8,10.4,23.3,23.3,23.3h46.6C220.3,46.6,209.9,36.2,209.8,23.3z"/>
<path class="st3" d="M376.8,565.1c0-33.2,27-60.2,60.2-60.2s60.2,27,60.2,60.2H376.8z"/>
<path class="st15" d="M371,559.2h135.9c3.2,0,5.8,2.6,5.8,5.8l0,0c0,3.2-2.6,5.8-5.8,5.8H371c-3.2,0-5.8-2.6-5.8-5.8l0,0
	C365.2,561.8,367.8,559.2,371,559.2z"/>
<path class="st22" d="M116.6,582.5h392.2c12.9,0,23.3,10.4,23.3,23.3l0,0c0,12.9-10.4,23.3-23.3,23.3H116.6
	c-12.9,0-23.3-10.4-23.3-23.3l0,0C93.3,593,103.8,582.5,116.6,582.5z"/>
<path class="st16" d="M508.9,582.5H474c12.8,0,23.3,10.4,23.3,23.3l0,0c0,12.8-10.4,23.2-23.3,23.3h34.9c12.8,0,23.2-10.4,23.3-23.3
	l0,0C532.1,593,521.7,582.6,508.9,582.5z"/>
</svg>
