<svg xmlns="http://www.w3.org/2000/svg" viewBox="0 0 566.93 566.93"><defs><style>.cls-23{fill:#faebdc}.cls-4{fill:#e56445}.cls-5{fill:#c1391e}.cls-6{fill:#006464}.cls-7{fill:#003f3f}.cls-13,.cls-8{fill:none;stroke-miterlimit:10}.cls-8{stroke:#002728;stroke-linecap:round;stroke-width:7px}.cls-14,.cls-9{fill:#4c1f00}.cls-10{fill:#e6a073}.cls-11{fill:#ffbf9c}.cls-13{stroke:#4c1f00;stroke-width:3px}.cls-14{opacity:.5;mix-blend-mode:hard-light}.cls-15{fill:#002728}.cls-16{fill:#ff8764}.cls-17{fill:#001919}.cls-18{fill:#d17846}.cls-19{fill:#872702}.cls-20{fill:#00bcb7}.cls-21{fill:#fff}.cls-21,.cls-23{mix-blend-mode:soft-light}.cls-22{fill:#e2bbaa;mix-blend-mode:multiply}</style></defs><g style="isolation:isolate"><path fill="#faebdc" d="M0 0h566.93v566.93H0z" id="Tlo"/><g id="Ilustracja"><path d="M465.16 175.75q-3.57-5.79-7.49-11.34a228 228 0 00-49.5-51H136.08a228.25 228.25 0 00-49.5 51q-3.92 5.55-7.49 11.34a226.83 226.83 0 0011.62 255.12q3.24 4.33 6.7 8.5a226.93 226.93 0 0031.42 31.18q1.75 1.44 3.54 2.84t3.68 2.83H408.2a219.43 219.43 0 007.22-5.67 227.55 227.55 0 0031.43-31.18q3.45-4.17 6.7-8.5a226.85 226.85 0 0011.61-255.12z" fill="#00a8a3"/><path class="cls-4" d="M209.76 360v-59.53a19.9 19.9 0 0119.85-19.84 19.9 19.9 0 0119.84 19.84V360z"/><path class="cls-5" d="M229.61 280.63a19.9 19.9 0 00-19.85 19.84V360h19.85z"/><path class="cls-4" d="M362.81 305.24a34 34 0 00-68 0 34 34 0 0011.31 66.1h45.38a34 34 0 0011.31-66.1z"/><path class="cls-5" d="M323.15 272.61a34 34 0 00-28.32 32.63 34 34 0 0011.31 66.1h17z"/><path class="cls-6" d="M375.59 113.39H225.35a4.27 4.27 0 00-4.25 4.25 4.27 4.27 0 004.25 4.25h14.18a4.25 4.25 0 110 8.5h-28.35a4.27 4.27 0 00-4.25 4.26 4.27 4.27 0 004.25 4.25h51a4.25 4.25 0 110 8.5h-11.31a4.27 4.27 0 00-4.26 4.25 4.28 4.28 0 004.26 4.26h79.37a4.27 4.27 0 004.25-4.26 4.27 4.27 0 00-4.25-4.25h-14.18a4.25 4.25 0 010-8.5h36.85a4.27 4.27 0 004.26-4.25 4.28 4.28 0 00-4.26-4.26h-14.17a4.25 4.25 0 010-8.5h36.85a4.26 4.26 0 004.25-4.25 4.26 4.26 0 00-4.25-4.25z"/><path class="cls-7" d="M399.06 383.7c-10.2 46.1-29.16 81.1-42.36 78.18s-15.62-42.66-5.41-88.75S393.65 295 393.65 295s15.61 42.61 5.41 88.7z"/><path class="cls-8" d="M450.71 215.43v45.36a34.11 34.11 0 01-34 34 34.1 34.1 0 01-34-34v-45.36M416.69 215.43v124.73"/><path class="cls-8" d="M399.69 226.77V258a17.06 17.06 0 01-17 17 17.05 17.05 0 01-17-17v-31.23M467.72 226.77V258a17.06 17.06 0 01-17 17 17.05 17.05 0 01-17-17v-31.23M121.89 385.51c-26.27 0-34-15.31-34-34v-45.37M121.89 306.14v124.73"/><path class="cls-8" d="M104.88 317.48v31.18a17.05 17.05 0 01-17 17 17.05 17.05 0 01-17-17v-31.18M161.57 317.48a34.12 34.12 0 01-34-34v-34M161.57 232.44v130.39"/><path class="cls-8" d="M144.57 232.44v31.18a17.06 17.06 0 01-17 17 17.05 17.05 0 01-17-17v-31.18M186.59 218.27v45.85a25.09 25.09 0 01-25 25"/><circle class="cls-5" cx="306.14" cy="365.27" r="25.51"/><path class="cls-6" d="M246.61 382.28a36.85 36.85 0 01-59.53 29 36.85 36.85 0 11-35.26-63.68 36.85 36.85 0 1170.53 0 36.86 36.86 0 0124.26 34.68z"/><path class="cls-7" d="M151.82 347.64a36.88 36.88 0 0135.27-47.56v111.24a36.85 36.85 0 11-35.27-63.68z"/><rect class="cls-6" x="150.24" y="376.61" width="73.7" height="34.02" rx="17.01"/><rect class="cls-7" x="141.73" y="356.77" width="53.86" height="19.84" rx="9.92"/><rect class="cls-6" x="170.08" y="342.59" width="36.85" height="14.17" rx="7.09"/><rect class="cls-7" x="170.08" y="317.08" width="34.02" height="25.51" rx="12.76"/><path class="cls-6" d="M204.09 304.23v.1a12.8 12.8 0 01-12.75 12.76h-8.51a12.79 12.79 0 01-12.75-12.76v-.11a37 37 0 0134 0z"/><path class="cls-9" d="M310.17 223.34l3.79-27.94 4.19 27.94h-7.98z"/><path class="cls-10" d="M214.39 359.03h15.96v71.84h-15.96z"/><path class="cls-9" d="M222.37 319.12l-7.98 39.91h15.96l-7.98-39.91z"/><path class="cls-11" d="M258.29 231.32h35.92V372.4h-35.92z"/><path class="cls-9" d="M294.21 231.32h19.95V372.4h-19.95z"/><path class="cls-11" d="M254.3 223.34h7.98v35.92h-7.98z"/><path class="cls-9" d="M310.17 223.34h7.98v35.92h-7.98zM258.29 371h-43.9l23.75-31.92h20.15V371z"/><path fill="#260f00" d="M338.11 371h-43.9l15.17-31.92h36.71L338.11 371z"/><path class="cls-11" d="M214.39 371h123.72v59.86H214.39z"/><path class="cls-9" d="M258.29 259.26h39.91v7.98h-39.91zM262.28 247.1h27.94v4.19h-27.94zM206.41 323.11l-7.98 39.91h15.96l-7.98-39.91zM346.09 323.11l-7.98 39.91h15.96l-7.98-39.91zM262.28 295.18v-20a4 4 0 014-4 4 4 0 014 4v20zM262.28 335.08v-16a4 4 0 014-4 4 4 0 014 4v16zM262.28 371v-16a4 4 0 014-4 4 4 0 014 4v16zM262.28 398.94V387a4 4 0 014-4 4 4 0 014 4v12zM278.24 398.94V387a4 4 0 014-4 4 4 0 014 4v12zM302.19 398.94V387a4 4 0 014-4 4 4 0 014 4v12zM318.15 398.94V387a4 4 0 014-4 4 4 0 014 4v12zM302.19 422.88v-12a4 4 0 014-4 4 4 0 014 4v12zM318.15 422.88v-12a4 4 0 014-4 4 4 0 014 4v12zM226.36 398.94V387a4 4 0 014-4 4 4 0 014 4v12zM242.32 398.94V387a4 4 0 014-4 4 4 0 014 4v12zM226.36 422.88v-12a4 4 0 014-4 4 4 0 014 4v12zM242.32 422.88v-12a4 4 0 014-4 4 4 0 014 4v12zM278.24 335.08v-16a4 4 0 014-4 4 4 0 014 4v16zM278.24 371v-16a4 4 0 014-4 4 4 0 014 4v16zM278.24 295.18v-20a4 4 0 014-4 4 4 0 014 4v20zM262.28 430.87v-12a12 12 0 0112-12 12 12 0 0112 12v12z"/><path class="cls-11" d="M290.22 223.34h7.98v35.92h-7.98z"/><path class="cls-9" d="M262.28 251.28v-14a2 2 0 012-2 2 2 0 012 2v14zM286.22 251.28v-14a2 2 0 012-2 2 2 0 012 2v14zM278.24 251.28v-14a2 2 0 012-2 2 2 0 012 2v14zM270.26 251.28v-14a2 2 0 012-2 2 2 0 012 2v14z"/><path class="cls-11" d="M198.43 363.02h15.96v67.85h-15.96zM338.11 363.02h15.96v67.85h-15.96z"/><rect class="cls-9" x="274.25" y="159.49" width="23.95" height="7.98" rx="2.83"/><path class="cls-9" d="M294.21 374.99h43.9v3.99h-43.9zM214.39 374.99h43.9v3.99h-43.9z"/><path class="cls-9" d="M294.21 374.99h3.99v55.87h-3.99z"/><path class="cls-13" d="M294.21 300.47h-35.92M294.21 334.49h-35.92"/><path class="cls-9" d="M305.19 231.32h-38.92l17.97-103.76h4.19l16.76 103.76z"/><path class="cls-14" d="M258.29 302.6l35.92-35.92h-35.92v35.92zM258.29 338.52l35.92-31.93h-35.92v31.93zM258.29 374.44l35.92-31.93h-35.92v31.93z"/><path class="cls-7" d="M334.49 430.87a17 17 0 1134 0"/><path class="cls-15" d="M167.19 349.64a11.63 11.63 0 00-.56-2.59 12.39 12.39 0 00-.72-1.73c-.18-.34-.38-.67-.59-1a11.84 11.84 0 00-1.5-1.84c-4.56-4.56-24.78-8.26-24.78-8.26s3.7 20.22 8.26 24.79a11.68 11.68 0 0016.52 0 11.69 11.69 0 003.21-6 12 12 0 00.21-2.23 10.38 10.38 0 00-.05-1.14z"/><path class="cls-6" d="M160.12 339.27a11.34 11.34 0 01-16 16c-4.43-4.43-8-24.05-8-24.05s19.57 3.63 24 8.05z"/><path class="cls-7" d="M136.06 331.26l24.06 24.05a11.36 11.36 0 000-16c-4.43-4.46-24.06-8.05-24.06-8.05z"/><path class="cls-4" d="M158.74 430.87a25.51 25.51 0 1151 0z"/><path class="cls-16" d="M164.41 430.87a19.84 19.84 0 1139.68 0z"/><path class="cls-4" d="M170.08 430.87a14.18 14.18 0 1128.35 0z"/><path class="cls-16" d="M175.75 430.87a8.51 8.51 0 1117 0z"/><path class="cls-15" d="M401.07 328.82A195.78 195.78 0 00390 345.3c-32.93 54.89-46.91 107-31.23 116.42a9.73 9.73 0 001.29.65c12.89-2.82 29.66-35.78 39-78.13 4.48-20.24 3.94-39.83 2.01-55.42z"/><path class="cls-14" d="M243.78 428a28.59 28.59 0 00-28.51-28.51h-50.69A28.6 28.6 0 00136.06 428v2.84h107.72zM348.66 385.51a22.65 22.65 0 00-11.34-19.63 21.64 21.64 0 00-3.91-1.79h-.13c-.4-.14-.81-.26-1.22-.38h-.16a22.38 22.38 0 00-2.73-.56h-.36c-.35 0-.69-.08-1-.11h-.39c-.46 0-.93-.05-1.4-.05a22.68 22.68 0 00-22.67 22.68 22.67 22.67 0 00-22.68 22.68v5.67a17.06 17.06 0 00-17 17h107.67v-22.83a22.67 22.67 0 00-22.68-22.68z"/><path class="cls-6" d="M360 385.51a22.68 22.68 0 10-45.35 0A22.67 22.67 0 00292 408.19v5.67a17.05 17.05 0 00-17 17h107.68v-22.67A22.68 22.68 0 00360 385.51z"/><path class="cls-7" d="M314.65 413.86v-5.67a22.67 22.67 0 0122.67-22.68 22.67 22.67 0 0111.34-19.63 22.66 22.66 0 00-34 19.63A22.67 22.67 0 00292 408.19v5.67a17.05 17.05 0 00-17 17h22.68a17.05 17.05 0 0116.97-17z"/><path class="cls-10" d="M453.55 430.87q-3.26 4.33-6.7 8.5a227.55 227.55 0 01-31.43 31.18H128.83a226.93 226.93 0 01-31.42-31.18q-3.45-4.17-6.7-8.5z"/><path class="cls-6" d="M232.44 430.87a25.59 25.59 0 00-25.51-25.52h-45.36a25.59 25.59 0 00-25.51 25.52h96.38z"/><path class="cls-15" d="M174.94 430.87a154.73 154.73 0 00.81-15.94c0-25.64-6.35-46.43-14.18-46.43s-14.17 20.79-14.17 46.43a154.73 154.73 0 00.81 15.94z"/><path class="cls-17" d="M161.57 368.5v62.37h-13.36a154.73 154.73 0 01-.81-15.94c0-25.64 6.35-46.43 14.17-46.43z"/><path class="cls-15" d="M121.89 430.87a22.68 22.68 0 1145.35 0z"/><path class="cls-17" d="M144.57 408.19a22.67 22.67 0 00-22.68 22.68h22.68z"/><path class="cls-15" d="M348.18 430.87a74 74 0 00.48-8.51c0-14.09-3.81-25.51-8.5-25.51s-8.51 11.42-8.51 25.51a73.88 73.88 0 00.49 8.51z"/><path class="cls-17" d="M340.16 396.85v34h-8a73.88 73.88 0 01-.49-8.51c-.02-14.07 3.79-25.49 8.49-25.49z"/><path class="cls-15" d="M334 430.87a24.68 24.68 0 00.49-5c0-8.22-3.81-14.89-8.51-14.89s-8.5 6.67-8.5 14.89a24.68 24.68 0 00.49 5z"/><path class="cls-17" d="M326 411c-4.69 0-8.5 6.67-8.5 14.89a24.68 24.68 0 00.49 5h8z"/><path class="cls-18" d="M453.55 430.87q-3.26 4.33-6.7 8.5-2.39 2.88-4.87 5.67h-339.7q-2.49-2.79-4.87-5.67-3.45-4.17-6.7-8.5z"/><path class="cls-19" d="M95.12 436.54h354c1.49-1.87 3-3.75 4.41-5.67H90.71c1.43 1.92 2.91 3.8 4.41 5.67z"/><rect class="cls-6" x="195.59" y="425.2" width="8.5" height="39.69" rx="4.25"/><rect class="cls-6" x="212.6" y="411.02" width="8.5" height="39.69" rx="4.25"/><path class="cls-6" d="M208.35 419.53a4.27 4.27 0 00-4.26 4.25v17a4.26 4.26 0 018.51 0v-17a4.26 4.26 0 00-4.25-4.25z"/><rect class="cls-17" x="138.9" y="422.36" width="5.67" height="39.69" rx="2.83"/><rect class="cls-17" x="127.56" y="416.69" width="5.67" height="39.69" rx="2.83"/><path class="cls-17" d="M136.06 428a2.84 2.84 0 00-2.83 2.84V445a2.84 2.84 0 115.67 0v-14.13a2.85 2.85 0 00-2.84-2.87z"/><path class="cls-6" d="M437.81 373.47c-22.55 37.59-49.54 62.84-60.28 56.39s-1.16-42.14 21.39-79.72 60.28-56.4 60.28-56.4 1.17 42.14-21.39 79.73z"/><path class="cls-4" d="M354.33 430.87a45.36 45.36 0 1190.71 0zM202.68 201.26h-35.6a25.6 25.6 0 00-25.35-22.68 25.59 25.59 0 00-25.51 25.51v4.78A12.24 12.24 0 01104 221.1H93.54a19.9 19.9 0 00-19.84 19.84 19.9 19.9 0 0019.84 19.85h53.86a19.9 19.9 0 0019.84-19.85 20.38 20.38 0 00-.22-2.83h35.66a18.48 18.48 0 0018.42-18.42 18.48 18.48 0 00-18.42-18.43z"/><path class="cls-5" d="M137.48 206.93h-7.09v-2.84a25.62 25.62 0 0118.44-24.5 25.59 25.59 0 00-7.1-1 25.59 25.59 0 00-25.51 25.51v4.78A12.24 12.24 0 01104 221.1H93.54a19.9 19.9 0 00-19.84 19.84 19.9 19.9 0 0019.84 19.85h14.18a19.91 19.91 0 01-19.85-19.85 19.9 19.9 0 0119.85-19.84h29.76a7.09 7.09 0 100-14.17z"/><circle class="cls-20" cx="337.32" cy="192.76" r="11.34"/><path class="cls-21" d="M337.32 181.42a11 11 0 00-2.83.37 11.32 11.32 0 010 21.93 11 11 0 002.83.37 11.34 11.34 0 100-22.67z"/><ellipse class="cls-21" cx="332.43" cy="187.87" rx="4.25" ry="2.83" transform="rotate(-45 332.435 187.861)"/><circle class="cls-20" cx="456.38" cy="377.01" r="11.34"/><path class="cls-21" d="M456.38 365.67a11.57 11.57 0 00-2.84.37 11.32 11.32 0 010 21.93 11.12 11.12 0 002.84.38 11.34 11.34 0 100-22.68z"/><ellipse class="cls-21" cx="451.49" cy="372.12" rx="4.25" ry="2.83" transform="rotate(-45 451.486 372.118)"/><circle class="cls-20" cx="402.52" cy="340.16" r="11.34"/><path class="cls-21" d="M402.52 328.82a11.43 11.43 0 00-2.83.37 11.32 11.32 0 010 21.93 11 11 0 002.83.38 11.34 11.34 0 000-22.68z"/><ellipse class="cls-21" cx="397.63" cy="335.27" rx="4.25" ry="2.83" transform="rotate(-45 397.623 335.27)"/><circle class="cls-20" cx="229.61" cy="255.12" r="11.34"/><path class="cls-21" d="M229.61 243.78a11.57 11.57 0 00-2.84.37 11.33 11.33 0 010 21.94 11.57 11.57 0 002.84.37 11.34 11.34 0 000-22.68z"/><ellipse class="cls-21" cx="224.72" cy="250.23" rx="4.25" ry="2.83" transform="rotate(-45 224.718 250.229)"/><circle class="cls-20" cx="204.09" cy="181.42" r="11.34"/><path class="cls-21" d="M204.09 170.08a11.49 11.49 0 00-2.83.37 11.32 11.32 0 010 21.93 11 11 0 002.83.38 11.34 11.34 0 100-22.68z"/><ellipse class="cls-21" cx="199.2" cy="176.53" rx="4.25" ry="2.83" transform="rotate(-45 199.2 176.528)"/><circle class="cls-20" cx="96.38" cy="289.13" r="11.34"/><path class="cls-21" d="M96.38 277.8a11.11 11.11 0 00-2.84.37 11.32 11.32 0 010 21.93 11.57 11.57 0 002.84.37 11.34 11.34 0 100-22.67z"/><ellipse class="cls-21" cx="91.49" cy="284.24" rx="4.25" ry="2.83" transform="rotate(-45 91.484 284.236)"/><rect class="cls-6" x="229.61" y="164.41" width="28.35" height="8.5" rx="4.25"/><rect class="cls-6" x="340.16" y="147.4" width="51.02" height="8.5" rx="4.25"/><path class="cls-22" d="M162.85 470.55a226.93 226.93 0 01-31.42-31.18q-3.45-4.17-6.7-8.5a226.81 226.81 0 0190.71-343.95V71a14.27 14.27 0 0114.27-14.28h-34A14.27 14.27 0 00181.42 71v16a226.81 226.81 0 00-90.71 344q3.24 4.33 6.7 8.5a226.93 226.93 0 0031.42 31.18q1.75 1.44 3.54 2.84t3.68 2.83h34q-1.86-1.39-3.68-2.83t-3.52-2.97z"/><path class="cls-5" d="M364.25 405.35c-.7 0-1.4 0-2.1.06a45.16 45.16 0 00-7.82 25.46h59.49a60.85 60.85 0 00-49.57-25.52z"/><path class="cls-9" d="M254.3 223.34l3.79-27.94 4.19 27.94h-7.98z"/><path class="cls-11" d="M290.22 223.34l3.79-27.94 4.19 27.94h-7.98z"/><ellipse class="cls-6" cx="172.91" cy="155.91" rx="25.51" ry="8.5"/><path class="cls-6" d="M136.06 144.57a11.34 11.34 0 110 22.67z"/><ellipse class="cls-4" cx="377.01" cy="249.45" rx="19.84" ry="8.5"/><path class="cls-4" d="M343 235.28a14.17 14.17 0 110 28.34"/><ellipse class="cls-23" cx="453.32" cy="207.74" rx="18.9" ry="35.62" transform="rotate(-25.37 453.243 207.722)"/><path class="cls-23" d="M225.11 470.55a226.93 226.93 0 01-31.42-31.18q-3.45-4.17-6.7-8.5a226.83 226.83 0 01-11.62-255.12q3.57-5.79 7.49-11.34a227.81 227.81 0 0149.5-51H170a227.81 227.81 0 00-49.5 51q-3.91 5.59-7.5 11.34a226.83 226.83 0 0011.62 255.12q3.24 4.33 6.7 8.5a226.93 226.93 0 0031.42 31.18q1.75 1.44 3.54 2.84t3.68 2.83h62.36q-1.86-1.39-3.68-2.83t-3.53-2.84z"/><rect x="164.41" y="45.35" width="215.43" height="34.02" rx="17.01" fill="#ffdfca"/><path class="cls-22" d="M198.43 62.36a17.06 17.06 0 0117-17h-34a17.06 17.06 0 00-17 17 17.05 17.05 0 0017 17h34a17.05 17.05 0 01-17-17z"/><path class="cls-6" d="M320.31 457.8a43.94 43.94 0 0187.88 0z"/><rect class="cls-18" x="311.81" y="453.54" width="107.72" height="8.5" rx="4.25"/><rect x="113.39" y="470.55" width="320.31" height="34.02" rx="17.01" fill="#af4617"/><path class="cls-19" d="M416.69 470.55h-25.51a17.05 17.05 0 0117 17 17.06 17.06 0 01-17 17h25.51a17.06 17.06 0 0017-17 17.05 17.05 0 00-17-17z"/></g></g></svg>