<svg xmlns="http://www.w3.org/2000/svg" viewBox="0 0 566.93 566.93"><defs><style>.cls-1{isolation:isolate;}.cls-2,.cls-23{fill:#faebdc;}.cls-3{fill:#00a8a3;}.cls-4{fill:#e56445;}.cls-5{fill:#c1391e;}.cls-6{fill:#006464;}.cls-7{fill:#003f3f;}.cls-13,.cls-8{fill:none;stroke-miterlimit:10;}.cls-8{stroke:#002728;stroke-linecap:round;stroke-width:7px;}.cls-14,.cls-9{fill:#4c1f00;}.cls-10{fill:#e6a073;}.cls-11{fill:#ffbf9c;}.cls-12{fill:#260f00;}.cls-13{stroke:#4c1f00;stroke-width:3px;}.cls-14{opacity:0.5;mix-blend-mode:hard-light;}.cls-15{fill:#002728;}.cls-16{fill:#ff8764;}.cls-17{fill:#001919;}.cls-18{fill:#d17846;}.cls-19{fill:#872702;}.cls-20{fill:#00bcb7;}.cls-21{fill:#fff;}.cls-21,.cls-23{mix-blend-mode:soft-light;}.cls-22{fill:#e2bbaa;mix-blend-mode:multiply;}.cls-24{fill:#ffdfca;}.cls-25{fill:#af4617;}</style></defs><g class="cls-1"><g id="Tlo"><rect class="cls-2" width="566.93" height="566.93"/></g><g id="Ilustracja"><path class="cls-3" d="M465.16,175.75q-3.57-5.79-7.49-11.34a228,228,0,0,0-49.5-51H136.08a228.25,228.25,0,0,0-49.5,51q-3.92,5.55-7.49,11.34A226.83,226.83,0,0,0,90.71,430.87q3.24,4.33,6.7,8.5a226.93,226.93,0,0,0,31.42,31.18q1.75,1.44,3.54,2.84t3.68,2.83H408.2c1.24-.93,2.46-1.87,3.68-2.83s2.37-1.88,3.54-2.84a227.55,227.55,0,0,0,31.43-31.18q3.45-4.17,6.7-8.5a226.85,226.85,0,0,0,11.61-255.12Z"/><path class="cls-4" d="M209.76,360V300.47a19.9,19.9,0,0,1,19.85-19.84h0a19.9,19.9,0,0,1,19.84,19.84V360Z"/><path class="cls-5" d="M229.61,280.63a19.9,19.9,0,0,0-19.85,19.84V360h19.85Z"/><path class="cls-4" d="M362.81,305.24a34,34,0,0,0-68,0,34,34,0,0,0,11.31,66.1H351.5a34,34,0,0,0,11.31-66.1Z"/><path class="cls-5" d="M323.15,272.61a34,34,0,0,0-28.32,32.63,34,34,0,0,0,11.31,66.1h17Z"/><path class="cls-6" d="M375.59,113.39H225.35a4.27,4.27,0,0,0-4.25,4.25h0a4.27,4.27,0,0,0,4.25,4.25h14.18a4.25,4.25,0,1,1,0,8.5H211.18a4.27,4.27,0,0,0-4.25,4.26h0a4.27,4.27,0,0,0,4.25,4.25h51a4.25,4.25,0,1,1,0,8.5H250.87a4.27,4.27,0,0,0-4.26,4.25h0a4.28,4.28,0,0,0,4.26,4.26h79.37a4.27,4.27,0,0,0,4.25-4.26h0a4.27,4.27,0,0,0-4.25-4.25H316.06a4.25,4.25,0,0,1,0-8.5h36.85a4.27,4.27,0,0,0,4.26-4.25h0a4.28,4.28,0,0,0-4.26-4.26H338.74a4.25,4.25,0,0,1,0-8.5h36.85a4.26,4.26,0,0,0,4.25-4.25h0A4.26,4.26,0,0,0,375.59,113.39Z"/><path class="cls-7" d="M399.06,383.7c-10.2,46.1-29.16,81.1-42.36,78.18s-15.62-42.66-5.41-88.75S393.65,295,393.65,295,409.26,337.61,399.06,383.7Z"/><path class="cls-8" d="M450.71,215.43v45.36a34.11,34.11,0,0,1-34,34h0a34.1,34.1,0,0,1-34-34V215.43"/><line class="cls-8" x1="416.69" y1="215.43" x2="416.69" y2="340.16"/><path class="cls-8" d="M399.69,226.77V258a17.06,17.06,0,0,1-17,17h0a17.05,17.05,0,0,1-17-17V226.77"/><path class="cls-8" d="M467.72,226.77V258a17.06,17.06,0,0,1-17,17h0a17.05,17.05,0,0,1-17-17V226.77"/><path class="cls-8" d="M121.89,385.51h0c-26.27,0-34-15.31-34-34V306.14"/><line class="cls-8" x1="121.89" y1="306.14" x2="121.89" y2="430.87"/><path class="cls-8" d="M104.88,317.48v31.18a17.05,17.05,0,0,1-17,17h0a17.05,17.05,0,0,1-17-17V317.48"/><path class="cls-8" d="M161.57,317.48h0a34.12,34.12,0,0,1-34-34v-34"/><line class="cls-8" x1="161.57" y1="232.44" x2="161.57" y2="362.83"/><path class="cls-8" d="M144.57,232.44v31.18a17.06,17.06,0,0,1-17,17h0a17.05,17.05,0,0,1-17-17V232.44"/><path class="cls-8" d="M186.59,218.27v45.85a25.09,25.09,0,0,1-25,25h0"/><circle class="cls-5" cx="306.14" cy="365.27" r="25.51"/><path class="cls-6" d="M246.61,382.28a36.85,36.85,0,0,1-59.53,29,36.85,36.85,0,1,1-35.26-63.68,36.85,36.85,0,1,1,70.53,0A36.86,36.86,0,0,1,246.61,382.28Z"/><path class="cls-7" d="M151.82,347.64a36.88,36.88,0,0,1,35.27-47.56V411.32a36.85,36.85,0,1,1-35.27-63.68Z"/><rect class="cls-6" x="150.24" y="376.61" width="73.7" height="34.02" rx="17.01"/><rect class="cls-7" x="141.73" y="356.77" width="53.86" height="19.84" rx="9.92"/><rect class="cls-6" x="170.08" y="342.59" width="36.85" height="14.17" rx="7.09"/><rect class="cls-7" x="170.08" y="317.08" width="34.02" height="25.51" rx="12.76"/><path class="cls-6" d="M204.09,304.23v.1a12.8,12.8,0,0,1-12.75,12.76h-8.51a12.79,12.79,0,0,1-12.75-12.76v-.11a37,37,0,0,1,34,0Z"/><polygon class="cls-9" points="310.17 223.34 313.96 195.4 318.15 223.34 310.17 223.34"/><rect class="cls-10" x="214.39" y="359.03" width="15.96" height="71.84"/><polygon class="cls-9" points="222.37 319.12 214.39 359.03 230.35 359.03 222.37 319.12"/><rect class="cls-11" x="258.29" y="231.32" width="35.92" height="141.08"/><rect class="cls-9" x="294.21" y="231.32" width="19.95" height="141.08"/><rect class="cls-11" x="254.3" y="223.34" width="7.98" height="35.92"/><rect class="cls-9" x="310.17" y="223.34" width="7.98" height="35.92"/><polygon class="cls-9" points="258.29 371 214.39 371 238.14 339.08 258.29 339.08 258.29 371"/><polygon class="cls-12" points="338.11 371 294.21 371 309.38 339.08 346.09 339.08 338.11 371"/><rect class="cls-11" x="214.39" y="371" width="123.72" height="59.86"/><rect class="cls-9" x="258.29" y="259.26" width="39.91" height="7.98"/><rect class="cls-9" x="262.28" y="247.1" width="27.94" height="4.19"/><polygon class="cls-9" points="206.41 323.11 198.43 363.02 214.39 363.02 206.41 323.11"/><polygon class="cls-9" points="346.09 323.11 338.11 363.02 354.07 363.02 346.09 323.11"/><path class="cls-9" d="M262.28,295.18v-20a4,4,0,0,1,4-4h0a4,4,0,0,1,4,4v20Z"/><path class="cls-9" d="M262.28,335.08v-16a4,4,0,0,1,4-4h0a4,4,0,0,1,4,4v16Z"/><path class="cls-9" d="M262.28,371V355a4,4,0,0,1,4-4h0a4,4,0,0,1,4,4v16Z"/><path class="cls-9" d="M262.28,398.94V387a4,4,0,0,1,4-4h0a4,4,0,0,1,4,4v12Z"/><path class="cls-9" d="M278.24,398.94V387a4,4,0,0,1,4-4h0a4,4,0,0,1,4,4v12Z"/><path class="cls-9" d="M302.19,398.94V387a4,4,0,0,1,4-4h0a4,4,0,0,1,4,4v12Z"/><path class="cls-9" d="M318.15,398.94V387a4,4,0,0,1,4-4h0a4,4,0,0,1,4,4v12Z"/><path class="cls-9" d="M302.19,422.88v-12a4,4,0,0,1,4-4h0a4,4,0,0,1,4,4v12Z"/><path class="cls-9" d="M318.15,422.88v-12a4,4,0,0,1,4-4h0a4,4,0,0,1,4,4v12Z"/><path class="cls-9" d="M226.36,398.94V387a4,4,0,0,1,4-4h0a4,4,0,0,1,4,4v12Z"/><path class="cls-9" d="M242.32,398.94V387a4,4,0,0,1,4-4h0a4,4,0,0,1,4,4v12Z"/><path class="cls-9" d="M226.36,422.88v-12a4,4,0,0,1,4-4h0a4,4,0,0,1,4,4v12Z"/><path class="cls-9" d="M242.32,422.88v-12a4,4,0,0,1,4-4h0a4,4,0,0,1,4,4v12Z"/><path class="cls-9" d="M278.24,335.08v-16a4,4,0,0,1,4-4h0a4,4,0,0,1,4,4v16Z"/><path class="cls-9" d="M278.24,371V355a4,4,0,0,1,4-4h0a4,4,0,0,1,4,4v16Z"/><path class="cls-9" d="M278.24,295.18v-20a4,4,0,0,1,4-4h0a4,4,0,0,1,4,4v20Z"/><path class="cls-9" d="M262.28,430.87v-12a12,12,0,0,1,12-12h0a12,12,0,0,1,12,12v12Z"/><rect class="cls-11" x="290.22" y="223.34" width="7.98" height="35.92"/><path class="cls-9" d="M262.28,251.28v-14a2,2,0,0,1,2-2h0a2,2,0,0,1,2,2v14Z"/><path class="cls-9" d="M286.22,251.28v-14a2,2,0,0,1,2-2h0a2,2,0,0,1,2,2v14Z"/><path class="cls-9" d="M278.24,251.28v-14a2,2,0,0,1,2-2h0a2,2,0,0,1,2,2v14Z"/><path class="cls-9" d="M270.26,251.28v-14a2,2,0,0,1,2-2h0a2,2,0,0,1,2,2v14Z"/><rect class="cls-11" x="198.43" y="363.02" width="15.96" height="67.85"/><rect class="cls-11" x="338.11" y="363.02" width="15.96" height="67.85"/><rect class="cls-9" x="274.25" y="159.49" width="23.95" height="7.98" rx="2.83"/><rect class="cls-9" x="294.21" y="374.99" width="43.9" height="3.99"/><rect class="cls-9" x="214.39" y="374.99" width="43.9" height="3.99"/><rect class="cls-9" x="294.21" y="374.99" width="3.99" height="55.87"/><line class="cls-13" x1="294.21" y1="300.47" x2="258.29" y2="300.47"/><line class="cls-13" x1="294.21" y1="334.49" x2="258.29" y2="334.49"/><polygon class="cls-9" points="305.19 231.32 266.27 231.32 284.24 127.56 288.43 127.56 305.19 231.32"/><polygon class="cls-14" points="258.29 302.6 294.21 266.68 258.29 266.68 258.29 302.6"/><polygon class="cls-14" points="258.29 338.52 294.21 306.59 258.29 306.59 258.29 338.52"/><polygon class="cls-14" points="258.29 374.44 294.21 342.51 258.29 342.51 258.29 374.44"/><path class="cls-7" d="M334.49,430.87a17,17,0,1,1,34,0"/><path class="cls-15" d="M167.19,349.64a11.63,11.63,0,0,0-.56-2.59,12.39,12.39,0,0,0-.72-1.73c-.18-.34-.38-.67-.59-1a11.84,11.84,0,0,0-1.5-1.84c-4.56-4.56-24.78-8.26-24.78-8.26h0s3.7,20.22,8.26,24.79a11.68,11.68,0,0,0,16.52,0h0a11.69,11.69,0,0,0,3.21-6,12,12,0,0,0,.21-2.23A10.38,10.38,0,0,0,167.19,349.64Z"/><path class="cls-6" d="M160.12,339.27a11.34,11.34,0,0,1-16,16c-4.43-4.43-8-24.05-8-24.05S155.69,334.85,160.12,339.27Z"/><path class="cls-7" d="M136.06,331.26h0l24.06,24.05h0a11.36,11.36,0,0,0,0-16C155.69,334.85,136.06,331.26,136.06,331.26Z"/><path class="cls-4" d="M158.74,430.87a25.51,25.51,0,1,1,51,0Z"/><path class="cls-16" d="M164.41,430.87a19.84,19.84,0,1,1,39.68,0Z"/><path class="cls-4" d="M170.08,430.87a14.18,14.18,0,1,1,28.35,0Z"/><path class="cls-16" d="M175.75,430.87a8.51,8.51,0,1,1,17,0Z"/><path class="cls-15" d="M401.07,328.82A195.78,195.78,0,0,0,390,345.3c-32.93,54.89-46.91,107-31.23,116.42a9.73,9.73,0,0,0,1.29.65c12.89-2.82,29.66-35.78,39-78.13C403.54,364,403,344.41,401.07,328.82Z"/><path class="cls-14" d="M243.78,428a28.59,28.59,0,0,0-28.51-28.51H164.58A28.6,28.6,0,0,0,136.06,428h0v2.84H243.78Z"/><path class="cls-14" d="M348.66,385.51a22.65,22.65,0,0,0-11.34-19.63h0a21.64,21.64,0,0,0-3.91-1.79l-.13,0c-.4-.14-.81-.26-1.22-.38l-.16,0a22.38,22.38,0,0,0-2.73-.56l-.36,0c-.35,0-.69-.08-1-.11l-.39,0c-.46,0-.93-.05-1.4-.05a22.68,22.68,0,0,0-22.67,22.68,22.67,22.67,0,0,0-22.68,22.68h0v5.67a17.06,17.06,0,0,0-17,17H371.34V408.19A22.67,22.67,0,0,0,348.66,385.51Z"/><path class="cls-6" d="M360,385.51a22.68,22.68,0,1,0-45.35,0A22.67,22.67,0,0,0,292,408.19h0v5.67a17.05,17.05,0,0,0-17,17H382.68V408.19A22.68,22.68,0,0,0,360,385.51Z"/><path class="cls-7" d="M314.65,413.86v-5.67h0a22.67,22.67,0,0,1,22.67-22.68,22.67,22.67,0,0,1,11.34-19.63,22.66,22.66,0,0,0-34,19.63A22.67,22.67,0,0,0,292,408.19h0v5.67a17.05,17.05,0,0,0-17,17h22.68A17.05,17.05,0,0,1,314.65,413.86Z"/><path class="cls-10" d="M453.55,430.87q-3.26,4.33-6.7,8.5a227.55,227.55,0,0,1-31.43,31.18H128.83a226.93,226.93,0,0,1-31.42-31.18q-3.45-4.17-6.7-8.5Z"/><path class="cls-6" d="M232.44,430.87a25.59,25.59,0,0,0-25.51-25.52H161.57a25.59,25.59,0,0,0-25.51,25.52h96.38Z"/><path class="cls-15" d="M174.94,430.87a154.73,154.73,0,0,0,.81-15.94c0-25.64-6.35-46.43-14.18-46.43s-14.17,20.79-14.17,46.43a154.73,154.73,0,0,0,.81,15.94Z"/><path class="cls-17" d="M161.57,368.5v62.37H148.21a154.73,154.73,0,0,1-.81-15.94C147.4,389.29,153.75,368.5,161.57,368.5Z"/><path class="cls-15" d="M121.89,430.87a22.68,22.68,0,1,1,45.35,0Z"/><path class="cls-17" d="M144.57,408.19a22.67,22.67,0,0,0-22.68,22.68h22.68Z"/><path class="cls-15" d="M348.18,430.87a74,74,0,0,0,.48-8.51c0-14.09-3.81-25.51-8.5-25.51s-8.51,11.42-8.51,25.51a73.88,73.88,0,0,0,.49,8.51Z"/><path class="cls-17" d="M340.16,396.85v34h-8a73.88,73.88,0,0,1-.49-8.51C331.65,408.27,335.46,396.85,340.16,396.85Z"/><path class="cls-15" d="M334,430.87a24.68,24.68,0,0,0,.49-5c0-8.22-3.81-14.89-8.51-14.89s-8.5,6.67-8.5,14.89a24.68,24.68,0,0,0,.49,5Z"/><path class="cls-17" d="M326,411c-4.69,0-8.5,6.67-8.5,14.89a24.68,24.68,0,0,0,.49,5h8Z"/><path class="cls-18" d="M453.55,430.87q-3.26,4.33-6.7,8.5-2.39,2.88-4.87,5.67H102.28q-2.49-2.79-4.87-5.67-3.45-4.17-6.7-8.5Z"/><path class="cls-19" d="M95.12,436.54h354c1.49-1.87,3-3.75,4.41-5.67H90.71C92.14,432.79,93.62,434.67,95.12,436.54Z"/><rect class="cls-6" x="195.59" y="425.2" width="8.5" height="39.69" rx="4.25"/><rect class="cls-6" x="212.6" y="411.02" width="8.5" height="39.69" rx="4.25"/><path class="cls-6" d="M208.35,419.53a4.27,4.27,0,0,0-4.26,4.25v17a4.26,4.26,0,0,1,8.51,0v-17A4.26,4.26,0,0,0,208.35,419.53Z"/><rect class="cls-17" x="138.9" y="422.36" width="5.67" height="39.69" rx="2.83"/><rect class="cls-17" x="127.56" y="416.69" width="5.67" height="39.69" rx="2.83"/><path class="cls-17" d="M136.06,428a2.84,2.84,0,0,0-2.83,2.84V445a2.84,2.84,0,1,1,5.67,0V430.87A2.85,2.85,0,0,0,136.06,428Z"/><path class="cls-6" d="M437.81,373.47c-22.55,37.59-49.54,62.84-60.28,56.39s-1.16-42.14,21.39-79.72,60.28-56.4,60.28-56.4S460.37,335.88,437.81,373.47Z"/><path class="cls-4" d="M354.33,430.87a45.36,45.36,0,1,1,90.71,0Z"/><path class="cls-4" d="M202.68,201.26h-35.6a25.6,25.6,0,0,0-25.35-22.68h0a25.59,25.59,0,0,0-25.51,25.51v4.78A12.24,12.24,0,0,1,104,221.1H93.54A19.9,19.9,0,0,0,73.7,240.94h0a19.9,19.9,0,0,0,19.84,19.85H147.4a19.9,19.9,0,0,0,19.84-19.85h0a20.38,20.38,0,0,0-.22-2.83h35.66a18.48,18.48,0,0,0,18.42-18.42h0A18.48,18.48,0,0,0,202.68,201.26Z"/><path class="cls-5" d="M137.48,206.93h-7.09v-2.84a25.62,25.62,0,0,1,18.44-24.5,25.59,25.59,0,0,0-7.1-1h0a25.59,25.59,0,0,0-25.51,25.51v4.78A12.24,12.24,0,0,1,104,221.1H93.54A19.9,19.9,0,0,0,73.7,240.94h0a19.9,19.9,0,0,0,19.84,19.85h14.18a19.91,19.91,0,0,1-19.85-19.85h0a19.9,19.9,0,0,1,19.85-19.84h29.76a7.09,7.09,0,1,0,0-14.17Z"/><circle class="cls-20" cx="337.32" cy="192.76" r="11.34"/><path class="cls-21" d="M337.32,181.42a11,11,0,0,0-2.83.37,11.32,11.32,0,0,1,0,21.93,11,11,0,0,0,2.83.37,11.34,11.34,0,1,0,0-22.67Z"/><ellipse class="cls-21" cx="332.43" cy="187.87" rx="4.25" ry="2.83" transform="translate(-35.47 290.09) rotate(-45)"/><circle class="cls-20" cx="456.38" cy="377.01" r="11.34"/><path class="cls-21" d="M456.38,365.67a11.57,11.57,0,0,0-2.84.37,11.32,11.32,0,0,1,0,21.93,11.12,11.12,0,0,0,2.84.38,11.34,11.34,0,1,0,0-22.68Z"/><ellipse class="cls-21" cx="451.49" cy="372.12" rx="4.25" ry="2.83" transform="translate(-130.89 428.24) rotate(-45)"/><circle class="cls-20" cx="402.52" cy="340.16" r="11.34"/><path class="cls-21" d="M402.52,328.82a11.43,11.43,0,0,0-2.83.37,11.32,11.32,0,0,1,0,21.93,11,11,0,0,0,2.83.38,11.34,11.34,0,0,0,0-22.68Z"/><ellipse class="cls-21" cx="397.63" cy="335.27" rx="4.25" ry="2.83" transform="translate(-120.61 379.36) rotate(-45)"/><circle class="cls-20" cx="229.61" cy="255.12" r="11.34"/><path class="cls-21" d="M229.61,243.78a11.57,11.57,0,0,0-2.84.37,11.33,11.33,0,0,1,0,21.94,11.57,11.57,0,0,0,2.84.37,11.34,11.34,0,0,0,0-22.68Z"/><ellipse class="cls-21" cx="224.72" cy="250.23" rx="4.25" ry="2.83" transform="translate(-111.12 232.19) rotate(-45)"/><circle class="cls-20" cx="204.09" cy="181.42" r="11.34"/><path class="cls-21" d="M204.09,170.08a11.49,11.49,0,0,0-2.83.37,11.32,11.32,0,0,1,0,21.93,11,11,0,0,0,2.83.38,11.34,11.34,0,1,0,0-22.68Z"/><ellipse class="cls-21" cx="199.2" cy="176.53" rx="4.25" ry="2.83" transform="translate(-66.48 192.56) rotate(-45)"/><circle class="cls-20" cx="96.38" cy="289.13" r="11.34"/><path class="cls-21" d="M96.38,277.8a11.11,11.11,0,0,0-2.84.37,11.32,11.32,0,0,1,0,21.93,11.57,11.57,0,0,0,2.84.37,11.34,11.34,0,1,0,0-22.67Z"/><ellipse class="cls-21" cx="91.49" cy="284.24" rx="4.25" ry="2.83" transform="translate(-174.19 147.94) rotate(-45)"/><rect class="cls-6" x="229.61" y="164.41" width="28.35" height="8.5" rx="4.25"/><rect class="cls-6" x="340.16" y="147.4" width="51.02" height="8.5" rx="4.25"/><path class="cls-22" d="M162.85,470.55a226.93,226.93,0,0,1-31.42-31.18q-3.45-4.17-6.7-8.5A226.81,226.81,0,0,1,215.44,86.92V71a14.27,14.27,0,0,1,14.27-14.28h-34A14.27,14.27,0,0,0,181.42,71v16a226.81,226.81,0,0,0-90.71,344q3.24,4.33,6.7,8.5a226.93,226.93,0,0,0,31.42,31.18q1.75,1.44,3.54,2.84t3.68,2.83h34q-1.86-1.39-3.68-2.83T162.85,470.55Z"/><path class="cls-5" d="M364.25,405.35c-.7,0-1.4,0-2.1.06a45.16,45.16,0,0,0-7.82,25.46h59.49A60.85,60.85,0,0,0,364.25,405.35Z"/><polygon class="cls-9" points="254.3 223.34 258.09 195.4 262.28 223.34 254.3 223.34"/><polygon class="cls-11" points="290.22 223.34 294.01 195.4 298.2 223.34 290.22 223.34"/><ellipse class="cls-6" cx="172.91" cy="155.91" rx="25.51" ry="8.5"/><path class="cls-6" d="M136.06,144.57a11.34,11.34,0,1,1,0,22.67Z"/><ellipse class="cls-4" cx="377.01" cy="249.45" rx="19.84" ry="8.5"/><path class="cls-4" d="M343,235.28a14.17,14.17,0,1,1,0,28.34"/><ellipse class="cls-23" cx="453.32" cy="207.74" rx="18.9" ry="35.62" transform="translate(-45.29 214.23) rotate(-25.37)"/><path class="cls-23" d="M225.11,470.55a226.93,226.93,0,0,1-31.42-31.18q-3.45-4.17-6.7-8.5a226.83,226.83,0,0,1-11.62-255.12q3.57-5.79,7.49-11.34a227.81,227.81,0,0,1,49.5-51H170a227.81,227.81,0,0,0-49.5,51Q116.59,170,113,175.75a226.83,226.83,0,0,0,11.62,255.12q3.24,4.33,6.7,8.5a226.93,226.93,0,0,0,31.42,31.18q1.75,1.44,3.54,2.84t3.68,2.83h62.36q-1.86-1.39-3.68-2.83T225.11,470.55Z"/><rect class="cls-24" x="164.41" y="45.35" width="215.43" height="34.02" rx="17.01"/><path class="cls-22" d="M198.43,62.36h0a17.06,17.06,0,0,1,17-17h-34a17.06,17.06,0,0,0-17,17h0a17.05,17.05,0,0,0,17,17h34A17.05,17.05,0,0,1,198.43,62.36Z"/><path class="cls-6" d="M320.31,457.8a43.94,43.94,0,0,1,87.88,0Z"/><rect class="cls-18" x="311.81" y="453.54" width="107.72" height="8.5" rx="4.25"/><rect class="cls-25" x="113.39" y="470.55" width="320.31" height="34.02" rx="17.01"/><path class="cls-19" d="M416.69,470.55H391.18a17.05,17.05,0,0,1,17,17h0a17.06,17.06,0,0,1-17,17h25.51a17.06,17.06,0,0,0,17-17h0A17.05,17.05,0,0,0,416.69,470.55Z"/></g></g></svg>