<svg id="Layer_1" data-name="Layer 1" xmlns="http://www.w3.org/2000/svg" viewBox="0 0 30.01 41.03"><defs><style>.cls-1{fill:#0d3236;}</style></defs><g id="back_arrow" data-name="back arrow"><path id="Path_531" data-name="Path 531" class="cls-1" d="M29.43,20.79a20.69,20.69,0,0,0-8.6,3.44,19,19,0,0,0-5.51,7.1c-.32.71-.75,1.73-1.3,3.06Q11.37,41,6.62,41a7,7,0,0,1-4.81-1.61A5.5,5.5,0,0,1,0,35.07c0-2.32,1.16-4.36,3.48-6.1s6.38-3.56,12.19-5.46l7.57-2.42s.86-.27.88-.58-.88-.57-.88-.57l-7.57-2.42C9.81,15.59,5.74,13.76,3.44,12S0,8.27,0,5.92a5.51,5.51,0,0,1,1.8-4.28A6.92,6.92,0,0,1,6.62,0q4.71,0,7.45,6.67c.52,1.3.94,2.3,1.26,3a18.62,18.62,0,0,0,5.5,7.11,20.9,20.9,0,0,0,8.6,3.42s.58.1.58.31S29.43,20.79,29.43,20.79Z"/></g></svg>