<svg xmlns="http://www.w3.org/2000/svg" viewBox="0 0 41.03 30.01"><g data-name="front arrow"><path data-name="Path 531" d="M20.24 29.44a20.63 20.63 0 00-3.44-8.6 19 19 0 00-7.1-5.51C9 15 8 14.57 6.64 14Q0 11.37 0 6.62a7 7 0 011.62-4.81A5.5 5.5 0 016 0q3.48 0 6.1 3.48t5.46 12.19l2.42 7.57s.26.86.58.87.57-.87.57-.87l2.42-7.57C25.44 9.81 27.26 5.74 29 3.44S32.76 0 35.11 0a5.52 5.52 0 014.27 1.81A6.88 6.88 0 0141 6.62c0 3.13-2.22 5.62-6.67 7.44-1.3.53-2.3.95-3 1.27a18.52 18.52 0 00-7.11 5.5 21.05 21.05 0 00-3.43 8.6s-.1.58-.3.58-.25-.57-.25-.57z" fill="#faebdc"/></g></svg>