<svg data-name="Layer 1" xmlns="http://www.w3.org/2000/svg" viewBox="0 0 30.01 41.03"><g data-name="front arrow"><path data-name="Path 531-2" d="M.57 20.24a20.69 20.69 0 008.6-3.44 19 19 0 005.51-7.1C15 9 15.43 8 16 6.64Q18.65 0 23.39 0a7 7 0 014.81 1.62A5.57 5.57 0 0130 6q0 3.48-3.48 6.1t-12.19 5.42l-7.57 2.42s-.86.26-.88.58.88.57.88.57l7.57 2.42q8.79 2.9 12.23 5.49c2.3 1.73 3.44 3.77 3.44 6.12a5.48 5.48 0 01-1.8 4.27A6.88 6.88 0 0123.39 41q-4.71 0-7.45-6.67c-.52-1.3-.94-2.3-1.26-3a18.65 18.65 0 00-5.51-7.11 20.94 20.94 0 00-8.6-3.43s-.57-.1-.57-.3.57-.25.57-.25z" fill="#0d3236"/></g></svg>