<svg id="Ilustracja" xmlns="http://www.w3.org/2000/svg" viewBox="0 0 41.03 30.01"><defs><style>.cls-1{fill:#faebdc;}</style></defs><g id="front_arrow" data-name="front arrow"><path id="Path_531" data-name="Path 531" class="cls-1" d="M20.24,29.44a20.63,20.63,0,0,0-3.44-8.6,19,19,0,0,0-7.1-5.51C9,15,8,14.57,6.64,14Q0,11.37,0,6.62A7,7,0,0,1,1.62,1.81,5.5,5.5,0,0,1,6,0q3.48,0,6.1,3.48t5.46,12.19l2.42,7.57s.26.86.58.87.57-.87.57-.87l2.42-7.57C25.44,9.81,27.26,5.74,29,3.44S32.76,0,35.11,0a5.52,5.52,0,0,1,4.27,1.81A6.88,6.88,0,0,1,41,6.62c0,3.13-2.22,5.62-6.67,7.44-1.3.53-2.3.95-3,1.27a18.52,18.52,0,0,0-7.11,5.5,21.05,21.05,0,0,0-3.43,8.6s-.1.58-.3.58S20.24,29.44,20.24,29.44Z"/></g></svg>