<svg id="Layer_1" data-name="Layer 1" xmlns="http://www.w3.org/2000/svg" viewBox="0 0 30.01 41.03"><defs><style>.cls-1{fill:#0d3236;}</style></defs><g id="front_arrow" data-name="front arrow"><path id="Path_531-2" data-name="Path 531-2" class="cls-1" d="M.57,20.24a20.69,20.69,0,0,0,8.6-3.44,19,19,0,0,0,5.51-7.1C15,9,15.43,8,16,6.64Q18.65,0,23.39,0A7,7,0,0,1,28.2,1.62,5.57,5.57,0,0,1,30,6q0,3.48-3.48,6.1T14.33,17.52L6.76,19.94s-.86.26-.88.58.88.57.88.57l7.57,2.42Q23.12,26.41,26.56,29c2.3,1.73,3.44,3.77,3.44,6.12a5.48,5.48,0,0,1-1.8,4.27A6.88,6.88,0,0,1,23.39,41q-4.71,0-7.45-6.67c-.52-1.3-.94-2.3-1.26-3a18.65,18.65,0,0,0-5.51-7.11,20.94,20.94,0,0,0-8.6-3.43s-.57-.1-.57-.3S.57,20.24.57,20.24Z"/></g></svg>