<svg width="650" height="650" viewBox="0 0 650 650" fill="none" xmlns="http://www.w3.org/2000/svg">
<g id="about-us-image-2">
<g id="Group">
<g id="Group_2">
<g id="Group_3">
<g id="Group_4">
<g id="Group_5">
<path id="Vector" d="M93.8 313.2C81.8 323.5 60.9 329 60.9 329C60.9 329 53.5 308.7 55.1 293C55.2 289.6 56.2 286.4 57.8 283.3C62.8 273.7 73.2 269.3 81 273.4C83.5 274.7 85.6 276.9 86.9 279.4C89.7 279 92.6 279.5 95.2 280.7C103.1 284.8 105.4 295.8 100.4 305.4C98.6 308.6 96.5 311.1 93.8 313.2Z" fill="#F5A03C"/>
</g>
<path id="Vector_2" d="M60.9 329C60.9 329 53.5 308.7 55.1 293C55.2 289.6 56.2 286.4 57.8 283.3C62.8 273.7 73.2 269.3 81 273.4C83.5 274.7 85.6 276.9 86.9 279.4L60.9 329Z" fill="#E27C17"/>
</g>
<path id="Vector_3" d="M130.2 582C153.838 582 173 577.389 173 571.7C173 566.011 153.838 561.4 130.2 561.4C106.562 561.4 87.4 566.011 87.4 571.7C87.4 577.389 106.562 582 130.2 582Z" fill="#E6A073"/>
<path id="Vector_4" d="M460.8 523.8C519.508 523.8 567.1 519.189 567.1 513.5C567.1 507.811 519.508 503.2 460.8 503.2C402.092 503.2 354.5 507.811 354.5 513.5C354.5 519.189 402.092 523.8 460.8 523.8Z" fill="#E6A073"/>
<path id="Vector_5" d="M577.3 537.5H467.7V578.6H577.3V537.5Z" fill="#E6A073"/>
<path id="Vector_6" d="M315.3 441.6C418.467 441.6 502.1 357.967 502.1 254.8C502.1 151.633 418.467 68 315.3 68C212.133 68 128.5 151.633 128.5 254.8C128.5 357.967 212.133 441.6 315.3 441.6Z" fill="#059999"/>
<path id="Vector_7" d="M56.4 257.9C119.9 233.5 185.6 305.5 195.8 396.3C197.6 400.4 199.3 404.5 200.9 408.6" stroke="#0F373C" stroke-width="3.6268" stroke-miterlimit="10"/>
<path id="Vector_8" d="M170.2 398.5C219.9 419.3 254.5 449.6 247.5 466.2C240.5 482.8 194.7 479.4 145 458.6C95.3 437.8 67.7 390.9 67.7 390.9C67.7 390.9 120.5 377.6 170.2 398.5Z" fill="#006464"/>
<path id="Vector_9" d="M145.1 458.5C194.8 479.3 240.6 482.8 247.6 466.1L67.7 390.8C67.7 390.8 95.4 437.7 145.1 458.5Z" fill="#0F373C"/>
<path id="Vector_10" d="M193.8 354C246 397.6 280.1 443.1 269.7 455.4C259.3 467.7 208.6 442.3 156.3 398.6C104 354.9 80.5 297.2 80.5 297.2C80.5 297.2 141.6 310.4 193.8 354Z" fill="#006464"/>
<path id="Vector_11" d="M194.9 354C187.6 348 179.9 342.3 172.1 337C169.8 348.5 172.1 360.6 178.5 370.4L162.8 403C176.1 413.9 190 424 204.4 433.3L224.1 392.2C227.4 391.8 230.6 391.1 233.8 390.1C221.3 377.5 208.4 365.4 194.9 354Z" fill="#0F373C"/>
<path id="Vector_12" d="M316.1 373.1C320.7 372.3 323.7 367.9 323 363.3C323 363.3 323 363.3 323 363.2L310.4 294.7C309.8 291.1 311.5 287.6 314.6 285.8C318.2 283.7 322.1 281.7 326 279.6C330.1 277.4 335.3 279 337.5 283.1C338 283.9 338.2 284.8 338.3 285.6L344 316.7C344.8 321.3 349.2 324.3 353.8 323.6C353.8 323.6 353.8 323.6 353.9 323.6C358.5 322.8 361.5 318.4 360.8 313.8C360.8 313.8 360.8 313.8 360.8 313.7L353.3 273C352.6 269.3 354.5 265.4 358 263.8C360.5 262.6 363.2 261.4 365.7 260.2C369.9 258.3 375 260.1 376.9 264.3C377.3 265 377.4 265.6 377.5 266.4L379.2 275.7C380 280.3 384.4 283.3 389 282.6C389 282.6 389 282.6 389.1 282.6C393.7 281.8 396.7 277.4 396 272.8C396 272.8 396 272.8 396 272.7L392.9 255.4C392.2 251.5 394.2 247.5 398 246.1C410.6 240.8 421.3 236.4 428.9 233.4C433.3 231.7 438.2 233.8 439.9 238.1C440.3 239.2 440.5 240.3 440.5 241.4C440.4 249.6 440.1 261.2 439.7 274.8C439.6 278.8 436.7 282.2 432.7 282.8L415.4 285.9C410.8 286.7 407.8 291.1 408.5 295.7C408.5 295.7 408.5 295.7 408.5 295.8C409.3 300.4 413.7 303.4 418.3 302.7C418.3 302.7 418.3 302.7 418.4 302.7L427.7 301C432.3 300.2 436.8 303.2 437.6 307.8C437.7 308.5 437.8 309.3 437.7 310C437.5 312.8 437.3 315.7 437.1 318.5C436.9 322.4 434 325.5 430.2 326.2L389.5 333.7C384.9 334.5 381.9 338.9 382.6 343.5C382.6 343.5 382.6 343.5 382.6 343.6C383.4 348.2 387.8 351.2 392.4 350.5C392.4 350.5 392.4 350.5 392.5 350.5L423.6 344.8C428.2 344 432.7 347 433.5 351.6C433.6 352.4 433.7 353.4 433.6 354.3C433.1 358.7 432.5 362.9 431.8 367.1C431.3 370.7 428.5 373.6 424.9 374.2L356 386.4C351.4 387.2 348.4 391.6 349.1 396.2C349.1 396.2 349.1 396.2 349.1 396.3C349.9 400.9 354.3 403.9 358.9 403.2C358.9 403.2 358.9 403.2 359 403.2L413.9 393.2C418.5 392.4 423 395.4 423.8 400C424 401.3 424 402.8 423.6 404.1C420.7 413.8 417.4 421.9 413.4 427.6C385.8 467.5 330.1 476.8 288.9 448.4C247.7 420 236.6 364.5 264.1 324.6C268 318.9 274.4 313 282.4 306.8C286 303.9 291.3 304.6 294.2 308.3C295 309.4 295.7 310.7 295.9 312L305.9 366.9C307.2 370.9 311.5 374 316.1 373.1Z" fill="#006464"/>
<path id="Vector_13" d="M281.9 306.3C285.5 303.4 290.8 304.1 293.7 307.8C294.5 308.9 295.2 310.2 295.4 311.5L305.4 366.4C306.2 371 310.7 374 315.3 373.2C319.9 372.4 322.9 367.9 322.1 363.3L309.5 294.8C308.9 291.2 310.6 287.7 313.7 285.9C317.3 283.8 321.2 281.8 325.1 279.7C329.2 277.5 334.4 279.1 336.6 283.2C337.1 284 337.3 284.9 337.4 285.7L343.1 316.8C343.9 321.4 348.4 324.5 353 323.7C357.6 322.9 360.7 318.4 359.9 313.8L352.4 273.1C351.7 269.4 353.6 265.5 357.1 263.9C359.6 262.7 362.3 261.5 364.8 260.3C369 258.4 374.1 260.2 376 264.4C376.4 265.1 376.5 265.7 376.6 266.5L378.3 275.8C379.1 280.4 383.6 283.5 388.2 282.7C392.8 281.9 395.9 277.4 395 272.8L391.9 255.5C391.2 251.6 393.2 247.6 397 246.2C409.6 240.9 420.3 236.5 427.9 233.5C430.6 232.4 433.5 232.8 435.9 234.5L288.4 447.8C247.2 419.4 236.1 363.9 263.6 324C267.5 318.4 273.8 312.3 281.9 306.3Z" fill="#0F373C"/>
<path id="Vector_14" d="M348.5 396.1C347.9 392.7 349.3 389.3 352.1 387.5C346.8 380.4 340.1 374.2 332.5 369.5C330.8 368.4 329.2 367 328 365.4C324.3 360.3 321.4 354.8 319.4 348.8L322.1 363.3C322.6 365.8 321.9 368.4 320.3 370.3C319.9 370.7 319.6 371 319.2 371.4C318.6 371.9 318 372.2 317.4 372.5C316.8 372.9 316.1 373 315.3 373.1C314.7 373.2 314.2 373.2 313.6 373.2C309.6 373.1 306.1 370.2 305.4 366.2L295.4 311.3C294.8 308 292.4 305.4 289.1 304.7C288 304.5 287 304.3 286 304.5C285.4 304.6 284.8 304.7 284.2 305L283.4 305.4C283 305.5 282.7 305.8 282.4 306C282.3 306.1 282 306.2 281.9 306.4C273.9 312.4 267.5 318.5 263.6 324.2C261.9 326.6 260.3 329.3 258.9 331.8C256.8 335.7 255 339.8 253.5 343.9C253 345.2 252.5 346.7 252.2 348C250.9 352.2 250 356.6 249.3 361.1C248.9 363.8 248.7 366.3 248.6 369C248.5 370.5 248.5 372 248.5 373.6C248.7 403.5 263.7 431.4 288.4 448.2C310 463.2 337 468.3 362.6 462V417.9C362.6 414.9 362.4 411.7 361.8 408.7C361.4 406.8 361 404.8 360.2 402.9L358.5 403.3C353.7 403.7 349.4 400.7 348.5 396.1Z" fill="#1D1D1B"/>
<path id="Vector_15" d="M224.1 281.6C261.9 338.2 280.6 392.2 265.6 402.3C250.6 412.3 207.8 374.5 170 317.8C132.2 261.1 128.5 197.1 128.5 197.1C128.5 197.1 186.3 224.9 224.1 281.6Z" fill="#006464"/>
<path id="Vector_16" d="M170 317.7C207.8 374.4 250.8 412.1 265.6 402.2L128.5 197.1C128.5 197.1 132.1 261.2 170 317.7Z" fill="#0F373C"/>
<path id="Vector_17" d="M543 434.6H460.8V516.8H543V434.6Z" fill="#E6A073"/>
<path id="Vector_18" d="M550.1 424.4H454.1V462.1H550.1V424.4Z" fill="#E6A073"/>
<path id="Vector_19" d="M498.7 424.4H454.1V465.5H498.7V424.4Z" fill="#CE6F3A"/>
<path id="Vector_20" d="M543.2 462.1H461V517H502.1V492C502.1 483.1 509.4 475.9 518.2 475.9H543.2V462.1Z" fill="#CE6F3A"/>
<path id="Vector_21" d="M296.4 516.9H488.3V325L296.4 516.9ZM460.8 489.5H364.8L460.8 390.1V489.5Z" fill="#FF8764"/>
<path id="Vector_22" d="M365 489.5L388.9 464.6V424.4L296.4 516.9H388.9V489.5H365Z" fill="#D25A3C"/>
<path id="Vector_23" d="M80.5 358.8C140 297.1 199.8 322.2 205.5 394.2C207.3 397.3 209 400.5 210.7 403.8" stroke="#0F373C" stroke-width="3.6268" stroke-miterlimit="10"/>
<path id="Vector_24" d="M570.4 530.6H460.8V571.7H570.4V530.6Z" fill="white"/>
<path id="Vector_25" d="M322.2 152.8C322.2 152.8 301.5 207.4 342.3 225.6" stroke="#E2E2E2" stroke-width="12.0892" stroke-miterlimit="10" stroke-linecap="round"/>
<path id="Vector_26" d="M351.2 133V170.7H339.8C315.9 170.8 296.4 190.3 296.4 214.2V235.8H241.5V198C241.5 182.9 229.3 170.7 214.2 170.7H207.3V161.9C207.3 161.4 207.3 160.9 207.3 160.4C208.1 145 220.7 133 236.2 133C236.2 133 351.2 133 351.2 133Z" fill="white"/>
<path id="Vector_27" d="M351.2 417.5V500.8C351.1 524.9 331.7 544.2 307.7 544.3H230.2C206.1 544.2 186.8 524.8 186.7 500.8V417.6C186.7 415.3 186.9 413 187.4 410.7C191.3 391 210.7 379.9 210.7 379.9C213.6 378.1 216.3 375.8 218.3 373C244.4 341 241.5 242.8 241.5 242.8H296.4C296.4 242.8 293.5 341.1 319.6 373C321.8 375.7 324.3 378.1 327.3 379.9C327.3 379.9 346.8 391 350.6 410.7C351.1 412.9 351.2 415.2 351.2 417.5Z" fill="#F5A03C"/>
<path id="Vector_28" d="M214.1 500.8L214.5 449.9C214.6 428.3 232.3 410.7 254 410.7H350.6C346.7 391 327.3 379.9 327.3 379.9C324.4 378.1 321.7 375.8 319.7 373H261.7C256.7 373 252.6 369 252.6 364.1C252.6 362.8 252.8 361.6 253.4 360.4C261.3 343 265.2 318.2 267.2 295.8C268.4 281.4 280.5 270.3 295 270.3H296.5V242.9H241.5C241.5 242.9 245 359.4 210.7 380C210.7 380 186.8 393.7 186.8 417.7V478.4V500.9C186.9 525 206.3 544.3 230.3 544.4H257.7C233.6 544.3 214.1 524.8 214.1 500.8Z" fill="#E27C17"/>
<path id="Vector_29" d="M303.3 215.4H234.8V256.5H303.3V215.4Z" fill="white"/>
<path id="Vector_30" d="M351.2 160.5V170.8H339.8C315.9 170.9 296.4 190.4 296.4 214.3V215.4H241.5V198.1C241.5 183 229.3 170.8 214.2 170.8H207.3V162C207.3 161.5 207.3 161 207.3 160.5H351.2V160.5Z" fill="#E2E2E2"/>
<path id="Vector_31" d="M269.1 205.1C259.5 205.1 251.9 197.4 251.9 187.9C251.9 172.8 239.7 160.6 224.6 160.6H207.4C207.4 161.1 207.4 161.6 207.4 162.1V170.9H214.3C229.4 170.9 241.6 183.1 241.6 198.2V215.4H296.5V214.3C296.5 211.2 296.9 208.1 297.5 205.1H269.1V205.1Z" fill="#B5B5B5"/>
<path id="Vector_32" d="M364.9 136.5H351.2V160.4H364.9V136.5Z" fill="#E2E2E2"/>
<path id="Vector_33" d="M488.3 544.3H406.1V571.7H488.3V544.3Z" fill="#F5A03C"/>
<path id="Vector_34" d="M406 544.3H378.6V571.7H406V544.3Z" fill="#FF8764"/>
<path id="Vector_35" d="M526 558.1L505.4 565.5V550.6L526 558.1Z" fill="#1D1D1B"/>
<path id="Vector_36" d="M505.4 550.6V565.5L488.3 571.7V544.3L505.4 550.6Z" fill="#E6A073"/>
<path id="Vector_37" d="M488.3 544.3H406.1V558H488.3V544.3Z" fill="#E27C17"/>
<path id="Vector_38" d="M406.1 544.3H395.8V571.7H406.1V544.3Z" fill="#E27C17"/>
<path id="Vector_39" d="M252 215.4H234.8V256.5H252V215.4Z" fill="#E2E2E2"/>
<path id="Vector_40" d="M296.3 256.5H241.5V263.4H296.3V256.5Z" fill="#C1610A"/>
<path id="Vector_41" d="M488.3 352.4H474.6V355.8H488.3V352.4Z" fill="#D25A3C"/>
<path id="Vector_42" d="M488.3 379.9H474.6V383.3H488.3V379.9Z" fill="#D25A3C"/>
<path id="Vector_43" d="M488.3 407.2H474.6V410.6H488.3V407.2Z" fill="#D25A3C"/>
<path id="Vector_44" d="M488.3 434.6H474.6V438H488.3V434.6Z" fill="#D25A3C"/>
<path id="Vector_45" d="M488.3 462.1H474.6V465.5H488.3V462.1Z" fill="#D25A3C"/>
<path id="Vector_46" d="M488.3 489.5H474.6V492.9H488.3V489.5Z" fill="#D25A3C"/>
<path id="Vector_47" d="M351.3 444.9H207.3V462.1H351.3V444.9Z" fill="#E27C17"/>
<path id="Vector_48" d="M351.3 444.9H186.8V451.8H351.3V444.9Z" fill="#F5A03C"/>
<path id="Vector_49" d="M361.5 451.8H351.2V517H361.5V451.8Z" fill="#B73116"/>
<path id="Vector_50" d="M199.2 205.1L171.8 260L209.5 229.1L216.4 253.1L202.6 287.3L230 263.3L223.3 215.4L199.2 205.1Z" fill="#059999"/>
<path id="Vector_51" d="M351.2 500.8V445.6C349.7 444.1 348.2 442.8 346.5 441.6L345.5 441H345.4C344.8 440.6 344.3 440.3 343.6 439.8L343.1 439.6C342.1 439 341.2 438.5 340.3 438L339.9 437.8C338.9 437.3 338 436.8 337.1 436.5L336.7 436.4C335.7 436 334.8 435.7 333.7 435.2L333.1 435C332 434.6 330.9 434.4 330 434L329.6 433.9C328.6 433.7 327.7 433.4 326.6 433.3L326 433C324.9 432.9 323.8 432.8 322.7 432.6H322C320.8 432.5 319.6 432.5 318.5 432.5C292.9 432.5 272 452.9 272 478V482.7C258.1 490.8 249.5 505.5 249.5 521.6C249.5 529.6 251.8 537.3 255.8 544.2H307.8C331.7 544.2 351.2 524.7 351.2 500.8Z" fill="#C1610A"/>
<path id="Vector_52" d="M365 160.5H351.2V136.5L365 160.5Z" fill="#B5B5B5"/>
<path id="Vector_53" d="M356.1 488.2V477.9C356.1 457.8 339.3 441.5 318.6 441.5C297.9 441.5 281.1 457.8 281.1 477.9V488.2C267.6 493.8 258.7 506.9 258.6 521.6C258.6 541.7 275.4 558 296.1 558C304.2 558 312.1 555.5 318.6 550.7C325.1 555.4 333 558 341.1 558C361.8 558 378.6 541.7 378.6 521.6C378.5 506.9 369.7 493.9 356.1 488.2Z" fill="#006464"/>
<path id="Vector_54" d="M360.2 552.9L360.8 552.5L360.2 552.9Z" fill="#6E7832"/>
<path id="Vector_55" d="M358.8 553.7L359.4 553.3L358.8 553.7Z" fill="#6E7832"/>
<path id="Vector_56" d="M361.7 552L362.3 551.6L361.7 552Z" fill="#6E7832"/>
<path id="Vector_57" d="M357.3 554.5L357.8 554.3L357.3 554.5Z" fill="#6E7832"/>
<path id="Vector_58" d="M363.1 551.1C363.2 551 363.5 550.9 363.6 550.7C363.5 550.8 363.4 550.9 363.1 551.1Z" fill="#6E7832"/>
<path id="Vector_59" d="M303.7 521.6C303.8 507 312.6 493.8 326.2 488.2V477.9C326.2 466.3 331.8 455.5 341.2 448.8C334.7 444.1 326.8 441.5 318.7 441.5C298 441.5 281.2 457.8 281.2 477.9V488.2C267.7 493.8 258.8 506.9 258.7 521.6C258.7 541.7 275.5 558 296.2 558C304.3 558 312.2 555.5 318.7 550.7C309.2 544.1 303.7 533.2 303.7 521.6Z" fill="#0F373C"/>
<path id="Vector_60" d="M335.8 557.6L337 557.7L335.8 557.6Z" fill="#6E7832"/>
<path id="Vector_61" d="M350.5 556.9L351 556.8L350.5 556.9Z" fill="#6E7832"/>
<path id="Vector_62" d="M352 556.5L352.6 556.3L352 556.5Z" fill="#6E7832"/>
<path id="Vector_63" d="M353.7 555.9L354.3 555.7L353.7 555.9Z" fill="#6E7832"/>
<path id="Vector_64" d="M355.3 555.3L355.9 555.1L355.3 555.3Z" fill="#6E7832"/>
<path id="Vector_65" d="M348.4 557.4L348.8 557.3L348.4 557.4Z" fill="#6E7832"/>
<path id="Vector_66" d="M346.5 557.6L347.1 557.5L346.5 557.6Z" fill="#6E7832"/>
<path id="Vector_67" d="M319.1 551.1L319.9 551.7L319.1 551.1Z" fill="#6E7832"/>
<path id="Vector_68" d="M322 552.9L322.8 553.4L322 552.9Z" fill="#6E7832"/>
<path id="Vector_69" d="M320.6 552C320.8 552.1 321.1 552.4 321.4 552.5C321.1 552.4 320.8 552.3 320.6 552Z" fill="#6E7832"/>
<path id="Vector_70" d="M339.3 558C339.9 558 340.5 558 341.1 558C340.5 558.1 339.9 558 339.3 558Z" fill="#6E7832"/>
<path id="Vector_71" d="M338.8 558L337.6 557.9L338.8 558Z" fill="#6E7832"/>
<path id="Vector_72" d="M328.6 555.9L329.6 556.3L328.6 555.9Z" fill="#6E7832"/>
<path id="Vector_73" d="M333.9 557.4L335.2 557.6L333.9 557.4Z" fill="#6E7832"/>
<path id="Vector_74" d="M330.3 556.5L331.5 556.9L330.3 556.5Z" fill="#6E7832"/>
<path id="Vector_75" d="M331.8 556.9C332.4 557 332.9 557.1 333.5 557.3C332.9 557.1 332.4 557 331.8 556.9Z" fill="#6E7832"/>
<path id="Vector_76" d="M326.4 555.2L324.9 554.6L326.4 555.2Z" fill="#6E7832"/>
<path id="Vector_77" d="M327 555.3L328 555.7L327 555.3Z" fill="#6E7832"/>
<path id="Vector_78" d="M323.5 553.7L324.6 554.2L323.5 553.7Z" fill="#6E7832"/>
<path id="Vector_79" d="M318.7 558C339.411 558 356.2 541.703 356.2 521.6C356.2 501.497 339.411 485.2 318.7 485.2C297.989 485.2 281.2 501.497 281.2 521.6C281.2 541.703 297.989 558 318.7 558Z" fill="#006464"/>
<path id="Vector_80" d="M318.7 485.2C314.8 485.2 311.1 485.8 307.5 486.9C326.7 492.3 337.8 512.4 332.3 531.5C328.9 543.5 319.5 552.9 307.5 556.3C311.1 557.4 314.9 558 318.7 558C339.4 558 356.2 541.7 356.2 521.6C356.1 501.5 339.3 485.2 318.7 485.2Z" fill="#0F373C"/>
<path id="Vector_81" d="M315.4 485.7C312.1 485.7 309 486.3 306 487.4C318.8 492 328 505.7 328 521.9C328 538.1 318.7 551.8 306 556.4C309 557.5 312.3 558.1 315.4 558.1C332.8 558.1 347 541.9 347 522C347 502.1 332.8 485.7 315.4 485.7Z" fill="#059999"/>
<path id="Vector_82" d="M488.3 367.1C486.2 366.9 484.3 366.9 482.3 367.1C476.4 367.8 470.7 370.2 466.1 374.1C465.1 374.8 464.3 375.7 463.6 376.6C461.5 378.5 459.7 380.7 458 382.9C457.2 384 456.3 385.2 455.5 386.4C454.7 387.6 453.9 388.8 453.1 390C449.4 395.9 446.1 402.1 443.3 408.5L461.1 390.1V440C469.2 444 478.5 447.7 487.1 448.9L488.4 449.1V367.1H488.3Z" fill="#D25A3C"/>
<path id="Vector_83" d="M242.3 376.3C249.8 373.6 256 368.1 259.5 360.9L264.1 351.2C267.7 343.7 264.5 334.8 257 331.1L236.6 321.3C233.2 342 227.7 361.7 218.3 372.9C216.1 375.7 213.6 378 210.7 379.8C205.5 382.9 200.9 386.9 197 391.6L187.1 412.3C186.9 414 186.7 415.8 186.7 417.5V463.1L222.4 388.5L227.6 377.6C232.5 378.4 237.5 378 242.3 376.3Z" fill="#AD4E00"/>
<path id="Vector_84" d="M189.265 379.106L153.052 454.899L172.452 464.168L208.664 388.374L189.265 379.106Z" fill="#E6A073"/>
<path id="Vector_85" d="M110.7 568.5C153.4 588.9 174.5 544.8 174.5 544.8L184.3 524.4C186.2 520.4 184.3 515.1 179.3 511.3C174.7 507.9 171 503.7 168.1 498.8C164.1 491.8 162.9 484.2 165.9 477.9L172.4 464.2L153 455L146.5 468.5C143.5 474.8 136.7 478.7 128.8 480C123.2 480.8 117.4 480.6 112 479.2C106.1 477.7 100.6 479.6 98.7 483.6L89 503.9C89.1 503.8 68.1 547.9 110.7 568.5Z" fill="#B7B7B7"/>
<path id="Vector_86" d="M110.7 568.5L162.7 459.7L172.4 464.3L166 477.8C163 484.1 164.3 491.7 168.2 498.7C171.1 503.5 174.8 507.9 179.4 511.2C184.4 514.9 186.3 520.3 184.4 524.3L174.6 544.7C174.6 544.7 153.5 588.8 110.7 568.5Z" fill="#999999"/>
<path id="Vector_87" d="M194.4 368.4L188.2 381.2L207.7 390.5L213.9 377.7C227.1 379.8 240 373 245.8 360.9L250.4 351.2C254 343.7 250.8 334.8 243.3 331.1L212.2 316.2C204.7 312.6 195.6 315.8 192.1 323.3L187.5 333C181.7 345.1 184.6 359.5 194.4 368.4ZM210.1 363L208.2 362C199.1 357.6 195.3 346.8 199.6 337.6L203.8 328.9L206.7 330.2L233.9 343.3L238.7 345.6L234.6 354.3C230.2 363.4 219.3 367.2 210.1 363Z" fill="#FF8764"/>
<path id="Vector_88" d="M138.8 360.5C138.8 360.5 148.7 327.4 178.2 332.3" stroke="#0F373C" stroke-width="3.6268" stroke-miterlimit="10"/>
<g id="Group_6">
<path id="Vector_89" d="M146.9 391.4C134.9 401.7 114 407.2 114 407.2C114 407.2 106.6 386.9 108.2 371.2C108.3 367.8 109.3 364.6 110.9 361.5C115.9 351.9 126.3 347.5 134.1 351.6C136.6 352.9 138.7 355.1 140 357.6C142.9 357.2 145.8 357.7 148.3 358.9C156.2 363 158.5 374 153.5 383.6C151.7 386.8 149.5 389.3 146.9 391.4Z" fill="#FF8764"/>
</g>
<path id="Vector_90" d="M114 407.2C114 407.2 106.6 386.9 108.2 371.2C108.3 367.8 109.3 364.6 110.9 361.5C115.9 351.9 126.3 347.5 134.1 351.6C136.6 352.9 138.7 355.1 140 357.6L114 407.2Z" fill="#D25A3C"/>
<path id="Vector_91" d="M203.7 500.8V478.2V462.1H186.8V478.2V500.8C186.9 524.9 206.3 544.2 230.3 544.3H247.2C223.2 544.2 203.7 524.8 203.7 500.8Z" fill="#C1610A"/>
<path id="Vector_92" d="M90.8 273.5C90.8 273.5 114.7 259.8 142.2 280.4" stroke="#0F373C" stroke-width="3.6268" stroke-miterlimit="10"/>
</g>
<g id="listki-gorne">
<path id="Vector_93" d="M544.6 222.4C546.7 222.9 548.6 221.6 549.1 219.6C549.2 219 549.2 218.4 549.1 217.8C548.1 214.4 539.7 184.7 532.4 177.8C524.2 169.9 511 170.2 503.1 178.5C495.2 186.7 495.5 199.9 503.8 207.8C511 214.5 541.2 221.6 544.6 222.4Z" fill="#006464"/>
<path id="Vector_94" d="M548.1 221.3L503.2 178.5C495.3 186.7 495.6 199.8 503.8 207.6C511.1 214.5 541.2 221.5 544.5 222.3C545.8 222.7 547.3 222.2 548.1 221.3Z" fill="#0F373C"/>
<path id="Vector_95" d="M467.8 119.7C468.6 117.8 467.8 115.6 465.9 114.7C465.3 114.5 464.7 114.3 464.1 114.3C460.6 114.5 429.8 117.1 421.5 122.9C412.2 129.4 409.9 142.4 416.4 151.7C422.9 161 435.9 163.3 445.2 156.8C453.6 151 466.4 122.9 467.8 119.7Z" fill="#006464"/>
<path id="Vector_96" d="M467.5 116L416.7 151.7C423.2 161 435.9 163.3 445.4 156.9C445.4 156.9 445.4 156.9 445.5 156.9C453.7 151.1 466.5 122.9 468 119.8C468.3 118.5 468.2 117.1 467.5 116Z" fill="#0F373C"/>
<path id="Vector_97" d="M475.9 239.7C477.6 240.9 479.9 240.7 481.1 239C481.5 238.5 481.7 237.9 481.8 237.3C482.4 233.8 487 203.2 483.3 193.9C479.1 183.3 467 178.2 456.5 182.4C445.9 186.6 440.8 198.7 445 209.2C448.7 218.6 473.3 237.5 475.9 239.7Z" fill="#006464"/>
<path id="Vector_98" d="M479.7 240.1L456.6 182.6C446.1 186.7 440.9 198.7 445 209.2C445 209.2 445 209.2 445 209.3C448.7 218.6 473.2 237.6 475.9 239.6C477 240.5 478.5 240.6 479.7 240.1Z" fill="#00282B"/>
<path id="Vector_99" d="M505.4 179.7C497.4 175.6 475.4 165.8 449.4 171.8C433.3 175.5 422.7 183.6 416.9 188.2C378 218.8 371 272.8 369.4 287.3" stroke="#0F373C" stroke-width="3.6268" stroke-miterlimit="10"/>
<path id="Vector_100" d="M423.6 151.4C399.2 164 365 218.9 371.7 263.3" stroke="#0F373C" stroke-width="3.6268" stroke-miterlimit="10"/>
</g>
<g id="listki-dolne">
<path id="Vector_101" d="M529.4 369.6C529.4 369.6 508.8 390.4 505.5 427.9" stroke="#324100" stroke-width="6.0446" stroke-miterlimit="10"/>
<path id="Vector_102" d="M505.4 437.8C507.7 415.2 523.9 399.8 539.6 400.1C552.9 400.3 562 411.6 563.7 413.8" stroke="#324100" stroke-width="6.0446" stroke-miterlimit="10"/>
<path id="Vector_103" d="M523.9 335.6C540 329.6 565.5 332.6 565.5 332.6C565.5 332.6 569.7 357.9 564.7 374.3C562 385.3 550.8 392.1 539.8 389.3C532.8 387.6 527.1 382.3 525.1 375.3C514.1 372.6 507.3 361.4 510.1 350.4C511.6 343.4 516.9 337.7 523.9 335.6Z" fill="#6E7832"/>
<path id="Vector_104" d="M565.4 332.6C565.4 332.6 569.6 357.9 564.6 374.3C561.9 385.3 550.7 392.1 539.7 389.3C532.7 387.6 527 382.3 525 375.3L565.4 332.6Z" fill="#324100"/>
<path id="Vector_105" d="M592.4 400.2C599.3 415.9 597.8 441.5 597.8 441.5C597.8 441.5 572.8 447.2 556.2 443.1C545.1 441 537.7 430.3 539.8 419.2C541.1 412.1 546.1 406.1 553 403.7C555.1 392.6 565.8 385.2 576.9 387.3C584 388.5 589.9 393.4 592.4 400.2Z" fill="#6E7832"/>
<path id="Vector_106" d="M597.8 441.5C597.8 441.5 572.8 447.2 556.2 443.1C545.1 441 537.7 430.3 539.8 419.2C541.1 412.1 546.1 406.1 553 403.7L597.8 441.5Z" fill="#324100"/>
<path id="Vector_107" d="M488 443C468.2 440.2 443.8 423.1 443.8 423.1C443.8 423.1 453.5 394.8 467.9 380.9C476.7 371.1 492 370.4 501.6 379.3C507.9 385 510.7 393.6 509 401.9C518.8 410.7 519.5 426 510.6 435.6C504.8 441.9 496.3 444.7 488 443Z" fill="#6E7832"/>
<path id="Vector_108" d="M443.8 423C443.8 423 453.5 394.7 467.9 380.8C476.7 371 492 370.3 501.6 379.2C507.9 384.9 510.7 393.5 509 401.8L443.8 423Z" fill="#324100"/>
</g>
</g>
</g>
</g>
</svg>
