<svg width="650" height="650" viewBox="0 0 650 650" fill="none" xmlns="http://www.w3.org/2000/svg">
<g id="Ilustracje_4_gardenm_group (1) 1">
<g id="Group">
<g id="Group_2">
<g id="galazka-srodkowa">
<path id="Vector" d="M233.3 317.8C234.6 286.9 198 226.1 166.2 255.3C160 260.5 159.3 269.9 164.5 276C165.4 277 166.3 277.8 167.5 278.7C173.3 282.5 183.7 282.7 185.6 270.1" stroke="#333F00" stroke-width="2.8358" stroke-linecap="round" stroke-linejoin="round"/>
<g id="Group_3">
<path id="Vector_2" d="M147.5 247.9C154 249 158.6 255.1 157.4 261.7C156.3 268.2 150.2 272.8 143.5 271.6C136.8 270.6 121.7 255.9 121.7 255.9C121.7 255.9 140.8 246.8 147.5 247.9Z" fill="#006464"/>
<path id="Vector_3" d="M121.7 255.8C121.7 255.8 137 270.5 143.5 271.5C150 272.6 156.3 268.1 157.4 261.6L121.7 255.8Z" fill="#0F373C"/>
<path id="Vector_4" d="M138.7 267.7C143.1 262.7 150.8 262.2 155.7 266.6C160.7 271 161.2 278.7 156.8 283.6C152.4 288.6 131.8 293.8 131.8 293.8C131.8 293.8 134.3 272.9 138.7 267.7Z" fill="#006464"/>
<path id="Vector_5" d="M131.9 293.8C131.9 293.8 152.5 288.6 156.9 283.6C161.3 278.6 160.9 271 155.9 266.6L131.9 293.8Z" fill="#0F373C"/>
</g>
</g>
<g id="galazka-gorna">
<g id="Group_4">
<g id="Group_5">
<path id="Vector_6" d="M169 187.9C175 185.1 182 187.6 184.9 193.6C187.6 199.4 185.3 206.2 179.8 209.3C173.8 212.3 153 209.4 153 209.4C153 209.4 163.1 190.9 169 187.9Z" fill="#FF8764"/>
<path id="Vector_7" d="M166.3 167.6C172.8 168.7 177.2 175 176.1 181.5C175 188 168.7 192.4 162.2 191.4C155.7 190.3 140.6 175.5 140.6 175.5C140.6 175.5 159.8 166.5 166.3 167.6Z" fill="#006464"/>
<path id="Vector_8" d="M140.8 175.6C140.8 175.6 155.8 190.3 162.4 191.5C169 192.7 175.2 188.2 176.3 181.6L140.8 175.6Z" fill="#0F373C"/>
</g>
<path id="Vector_9" d="M153 209.6C153 209.6 173.8 212.4 179.8 209.5C185.6 206.5 188 199.3 185.2 193.3L153 209.6Z" fill="#D25A3C"/>
</g>
<g id="Group_6">
<g id="Group_7">
<path id="Vector_10" d="M174.7 104.4C174.7 104.4 192.7 115.2 195.5 121.3C197.9 127.1 195.4 134.1 189.7 136.9C183.7 139.9 176.7 137.5 173.7 131.5C171 125.3 174.7 104.4 174.7 104.4Z" fill="#FF8764"/>
<path id="Vector_11" d="M143.9 123.4C143.9 123.4 164.9 121.3 170.6 124.4C176.4 127.7 178.4 134.9 175.3 140.7C172 146.5 164.8 148.6 159 145.5C153.3 142.3 143.9 123.4 143.9 123.4Z" fill="#006464"/>
<path id="Vector_12" d="M175.3 140.7C178.6 134.9 176.4 127.5 170.6 124.4C164.8 121.3 143.9 123.4 143.9 123.4L175.3 140.7Z" fill="#0F373C"/>
</g>
<path id="Vector_13" d="M189.6 137.2C195.6 134.4 198.2 127.3 195.6 121.2C192.8 115.2 174.8 104.5 174.8 104.5L189.6 137.2Z" fill="#D25A3C"/>
</g>
<path id="Vector_14" d="M178.2 182.4C182 182.4 212.9 182.8 227.8 210.5C231.1 216.7 233.3 223.5 234.5 230.6" stroke="#333F00" stroke-width="2.8358" stroke-miterlimit="10" stroke-linecap="round"/>
<path id="Vector_15" d="M185.8 146.2C193.5 151.3 233.3 193.1 238.1 252.4C238.7 258.5 238.7 295.5 238.1 303" stroke="#333F00" stroke-width="2.8358" stroke-miterlimit="10" stroke-linecap="round"/>
</g>
<g id="Group_8">
<g id="Group_9">
<path id="Vector_16" d="M479.7 98C435.5 146.2 475.7 182.4 435.5 238.7" stroke="#333F00" stroke-width="5.6716" stroke-miterlimit="10" stroke-linecap="round"/>
<path id="Vector_17" d="M455.9 186.5C458.5 181.1 469.1 160.8 487.9 159.8C491.9 159.7 496 160.2 499.7 161.6" stroke="#333F00" stroke-width="5.6716" stroke-miterlimit="10" stroke-linecap="round"/>
<path id="Vector_18" d="M506.5 78.9C507.5 77.5 508.2 75.8 508.8 74.2C512.8 61.4 505.5 48 492.8 44.1C480.9 40.4 468.1 46.5 463.4 58C462.8 59.7 462.4 61.4 462.1 63.1C448.8 62.7 437.7 73.2 437.3 86.5C436.9 99.8 447.4 110.9 460.7 111.3C464.1 111.4 467.5 110.7 470.6 109.5C477 121.3 491.6 125.5 503.2 119.1C515 112.7 519.2 98.1 512.8 86.5C511.5 83.6 509.2 81 506.5 78.9Z" fill="#006464"/>
<path id="Vector_19" d="M506.5 78.9C507.5 77.5 508.2 75.8 508.8 74.2C513.2 61.7 506.7 47.8 494.2 43.4C490.9 42.3 487.4 41.8 484 42.1C492.1 50 493.6 62.5 487.7 72.2C498.2 80.3 500.2 95.5 492.1 105.9C488 111.3 481.9 114.5 475.2 115.3C477.6 117.7 480.6 119.6 483.8 120.7C496.3 125.2 510.2 118.6 514.6 106.1C518 96.3 514.7 85.3 506.5 78.9Z" fill="#0F373C"/>
<path id="Vector_20" d="M479.7 70H495.9C498.2 70 499.9 71.8 499.9 74C499.9 76.3 498.1 78 495.9 78H479.7C477.4 78 475.7 76.2 475.7 74C475.7 71.7 477.4 70 479.7 70Z" fill="#0F373C"/>
<path id="Vector_21" d="M487.8 86H504C506.3 86 508 87.8 508 90C508 92.3 506.2 94 504 94H487.8C485.5 94 483.8 92.2 483.8 90C483.7 87.8 485.5 86 487.8 86Z" fill="#0F373C"/>
<path id="Vector_22" d="M479.7 77.9H495.9C498.2 77.9 499.9 79.7 499.9 81.9C499.9 84.2 498.1 85.9 495.9 85.9H479.7C477.4 85.9 475.7 84.1 475.7 81.9C475.7 79.7 477.4 77.9 479.7 77.9Z" fill="#006464"/>
<path id="Vector_23" d="M531.9 134.2H527.8C526.7 126.5 519.6 121.2 511.9 122.3C505.7 123.2 500.8 128 500 134.2H499.9C493.2 134.2 487.8 139.6 487.8 146.3V150.3C481.1 150.6 476 156.3 476.3 162.9C476.6 169.1 481.5 174.1 487.8 174.4H520C526.7 174.4 532.1 169 532.1 162.3V158.3C538.8 158.6 544.4 153.5 544.7 146.8C545 140.1 539.9 134.5 533.2 134.2C532.7 134.2 532.3 134.2 531.9 134.2Z" fill="#006464"/>
<path id="Vector_24" d="M531.9 134.2H527.8C526.8 127.3 520.9 122.1 513.9 122.1C511.1 122.1 508.2 123 505.8 124.7C508.9 127 511 130.4 511.6 134.2H515.9C522.6 134.5 527.7 140.2 527.4 146.8C527.1 153 522.2 158 515.9 158.3V162.3C515.9 169 510.5 174.4 503.8 174.4H519.8C526.5 174.4 531.9 169 531.9 162.3V158.3C538.6 158.6 544.2 153.5 544.5 146.8C544.8 140.1 539.7 134.5 533 134.2C532.7 134.2 532.3 134.2 531.9 134.2Z" fill="#0F373C"/>
<path id="Vector_25" d="M503.8 158.3H520C522.3 158.3 524 160.1 524 162.3C524 164.6 522.2 166.3 520 166.3H503.8C501.5 166.3 499.8 164.5 499.8 162.3C499.8 160.1 501.5 158.3 503.8 158.3Z" fill="#0F373C"/>
<path id="Vector_26" d="M507.8 134.2H527.9C530.2 134.2 531.9 136 531.9 138.2C531.9 140.5 530.1 142.2 527.9 142.2H507.8C505.5 142.2 503.8 140.4 503.8 138.2C503.8 136 505.6 134.2 507.8 134.2Z" fill="#0F373C"/>
</g>
<path id="Vector_27" d="M447.5 368.8C458.1 348.7 479.4 324.6 500.5 332.6C521.6 340.7 514.7 360.7 514.7 360.7" stroke="#333F00" stroke-width="4.2537" stroke-linecap="round" stroke-linejoin="round"/>
<path id="Vector_28" d="M232.6 359.2C219.4 345 202.3 337.1 188.5 339.6C184.5 340.3 180.8 342 177.6 344.4" stroke="#333F00" stroke-width="4.2537" stroke-linecap="round" stroke-linejoin="round"/>
<path id="Vector_29" d="M166.9 324.9L148.9 347.9C144.2 353.9 147.5 360.8 154.9 361.4L184.1 363.2C189.2 363.5 194 360.8 196.6 356.4L197.5 354.8C199.6 351.1 198.5 346.6 194.8 344.3C194.1 343.9 193.2 343.6 192.4 343.4C188.3 342.5 185.6 338.6 186.4 334.5C186.5 333.6 187 332.8 187.4 331.9C189.5 328.4 188.4 323.7 184.8 321.4C184.1 321 183.1 320.5 182.2 320.4L180.5 320C175.3 319.1 170 320.9 166.9 324.9Z" fill="#6E7832"/>
<path id="Vector_30" d="M192.1 343.5C196.2 344.2 198.9 348.3 198.2 352.4C198.1 353.3 197.6 354.1 197.2 355L196.3 356.6C193.7 361 188.9 363.7 183.8 363.4L154.7 361.4C151.4 361.4 148.6 359.6 147.2 356.7L186.5 339.1C187.7 341.3 189.7 342.9 192.1 343.5Z" fill="#324100"/>
<path id="Vector_31" d="M258.6 150.2V295" stroke="#333F00" stroke-width="5.6716" stroke-miterlimit="10" stroke-linecap="round"/>
<path id="Vector_32" d="M258.6 82C276.3 82 290.8 96.5 290.8 114.2V178.6C290.8 196.3 276.3 210.8 258.6 210.8C240.9 210.8 226.4 196.3 226.4 178.6V114C226.5 96.3 240.9 82 258.6 82Z" fill="#FF8764"/>
<path id="Vector_33" d="M258.6 82C255.9 82 253.2 82.3 250.5 83C264.7 86.7 274.6 99.6 274.6 114.2V178.6C274.6 193.2 264.7 206.1 250.5 209.8C253.2 210.5 255.9 210.8 258.6 210.8C276.3 210.8 290.6 196.3 290.8 178.6V114C290.7 96.3 276.4 82 258.6 82Z" fill="#D25A3C"/>
<path id="Vector_34" d="M288.3 191.2C288.7 190.2 289 189.2 289.4 188.2C290.4 185.1 290.8 182 290.8 178.7V114.3C290.8 111 290.4 107.9 289.4 104.8C289.1 103.8 288.7 102.8 288.3 101.8C288.2 101.4 287.9 100.8 287.6 100.4C287.2 99.5 286.7 98.8 286.3 98C261.8 111.6 252.8 142.4 266.3 167.1C268.6 171.2 271.4 175 274.8 178.4C271.7 187.6 271.3 197.7 273.5 207.2C279.6 203.9 284.4 198.8 287.5 192.7C287.7 192.2 288 191.6 288.3 191.2Z" fill="#D25A3C"/>
<path id="Vector_35" d="M481.4 455.8L545.8 379.4C545.8 379.4 517.7 371.3 489.5 399.5C467.4 421.6 423.6 455.9 423.6 455.9L481.4 455.8Z" fill="#E2AB93"/>
<path id="Vector_36" d="M540.8 378.5L475.7 455.8H483.1L547.5 379.4C545.2 378.9 542.9 378.5 540.8 378.5Z" fill="#C6856D"/>
<path id="Vector_37" d="M461.1 430.7L499.7 351.3C499.7 351.3 471.6 343.2 459.4 371.4L447.3 399.5L394.7 448.4L438.9 457.2L461.1 430.7Z" fill="#E2AB93"/>
<path id="Vector_38" d="M270.7 379.3C249.1 362.1 224.3 350.2 210.4 355.2C203.3 357.8 195.8 368.8 199.1 375.3" stroke="#333F00" stroke-width="4.2537" stroke-linecap="round" stroke-linejoin="round"/>
<path id="Vector_39" d="M451.6 194.4C451.6 229.8 437.3 258.8 419.4 258.8C401.5 258.8 387.2 230 387.2 194.4C387.2 158.8 419.4 130 419.4 130C419.4 130 451.6 159 451.6 194.4Z" fill="#FF8764"/>
<path id="Vector_40" d="M419.4 130.2C415.9 133.6 412.5 137.1 409.3 141C418.7 152.5 431.4 172.2 431.4 194.5C431.4 223 422.2 247.1 409.3 255.6C412.3 257.6 415.7 258.7 419.4 258.9C437.1 258.9 451.6 230.1 451.6 194.5C451.6 158.9 419.4 130.2 419.4 130.2Z" fill="#D25A3C"/>
<path id="Vector_41" d="M415.3 194.4H443.4C447.8 194.4 451.5 197.9 451.5 202.5C451.5 206.9 448 210.6 443.4 210.6H415.3C410.9 210.6 407.2 207.1 407.2 202.5C407.4 198.1 410.9 194.4 415.3 194.4Z" fill="#D25A3C"/>
<path id="Vector_42" d="M403.3 178.4H431.4C435.8 178.4 439.5 181.9 439.5 186.5C439.5 190.9 436 194.6 431.4 194.6H403.3C398.9 194.6 395.2 191.1 395.2 186.5C395.3 182 398.9 178.4 403.3 178.4Z" fill="#FF8764"/>
<path id="Vector_43" d="M421.4 166.4H441.5C444.8 166.4 447.5 169.1 447.5 172.4C447.5 175.7 444.8 178.4 441.5 178.4H421.4C418.1 178.4 415.4 175.7 415.4 172.4C415.3 169.1 418 166.4 421.4 166.4Z" fill="#D25A3C"/>
<path id="Vector_44" d="M466.4 302.6C467.5 308.7 471.1 331.1 457.5 352.2C452.5 359.9 446 366.4 438.5 371.3" stroke="#333F00" stroke-width="5.6716" stroke-miterlimit="10"/>
<path id="Vector_45" d="M513.7 228.8C506 203.3 479.1 188.8 453.6 196.6C438.1 201.3 426.1 213.3 421.4 228.8C395.9 236.6 381.6 263.5 389.4 288.9C397.2 314.4 424.1 328.7 449.5 320.9C456.2 318.9 462.3 315.4 467.5 310.8C487.4 328.5 517.8 326.8 535.6 306.8C553.3 286.9 551.6 256.5 531.6 238.7C526.6 234.1 520.4 230.7 513.7 228.8Z" fill="#006464"/>
<path id="Vector_46" d="M513.7 228.8C506 203.3 479.1 189 453.6 196.6C452.2 197 450.8 197.5 449.5 198C463 203.5 473.3 214.7 477.6 228.6C503.1 236.3 517.6 263.2 509.8 288.7C505.5 302.7 495.2 314.1 481.6 319.5C506.4 329.1 534.3 316.8 544 292C553.6 267.2 541.3 239.3 516.5 229.6C515.7 229.3 514.7 229 513.7 228.8Z" fill="#0F373C"/>
<path id="Vector_47" d="M462.1 288.5V315C439.8 329.7 409.9 323.6 395.3 301.4C384.7 285.2 384.7 264.3 395.3 248.2H442.1L462.1 288.5Z" fill="#001E1D"/>
<path id="Vector_48" d="M419.3 291H322.9V358.1H419.3V291Z" fill="#FFD1B8"/>
<path id="Vector_49" d="M451.6 387.4H419.4V291L435.5 258.8L451.6 291V387.4Z" fill="#E2AB93"/>
<path id="Vector_50" d="M435.5 258.8H339L322.9 291H419.4L435.5 258.8Z" fill="#D25A3C"/>
<path id="Vector_51" d="M419.4 342.6V358.1H323V313.4C357.8 308.9 392.9 319.5 419.4 342.6Z" fill="#E5AC93"/>
<path id="Vector_52" d="M451.6 355.2H399.3V391.4H451.6V355.2Z" fill="#0F373C"/>
<path id="Vector_53" d="M240.5 371.4H260.6C295.1 371.4 322.8 399.3 322.8 433.6C322.8 468.1 294.9 495.8 260.6 495.8H240.5C206 495.8 178.3 467.9 178.3 433.6C178.2 399.2 206.2 371.4 240.5 371.4Z" fill="#006464"/>
<path id="Vector_54" d="M198.4 433.6C198.5 399.3 226.3 371.4 260.6 371.4H240.5C206.2 371.5 178.3 399.3 178.3 433.6C178.4 467.9 206.2 495.8 240.5 495.8H260.6C226.3 495.9 198.4 468 198.4 433.6Z" fill="#0F373C"/>
<path id="Vector_55" d="M220.2 301.9C241.3 336.4 279.3 351.5 279.3 351.5C279.3 351.5 283 310.8 261.7 276.4C240.4 242 202.6 226.8 202.6 226.8C202.6 226.8 198.9 267.3 220.2 301.9Z" fill="#6E7832"/>
<path id="Vector_56" d="M202.6 226.6C202.6 226.6 240.6 241.8 261.7 276.2C282.8 310.6 279.3 351.3 279.3 351.3L202.6 226.6Z" fill="#324100"/>
<path id="Vector_57" d="M355 307H339V331.1H355V307Z" fill="#A87462"/>
<path id="Vector_58" d="M347.1 307H339V331.1H347.1V307Z" fill="#8E503F"/>
<path id="Vector_59" d="M515.9 451.7C515.8 425 494.3 403.6 467.7 403.5H446.9C432.6 355.9 388.8 323.2 339.1 323.1C277 323.2 226.8 373.6 226.5 435.7V463.8H515.9V451.7Z" fill="#006464"/>
<path id="Vector_60" d="M467.6 403.4H446.8C431.2 350.7 379.6 316.9 325 323.9C369.1 329.7 405.7 360.8 418.6 403.4H439.4C466.1 403.5 487.5 425 487.6 451.6V463.7H515.8V451.6C515.7 425.1 494.2 403.6 467.6 403.4Z" fill="#0F373C"/>
<path id="Vector_61" d="M202.4 311L193.9 321.6C199 326.6 204.4 331.1 210.2 335.2L226.5 327L218.4 340.5C249 358.4 282.3 358.2 282.3 358.2C282.3 358.2 266.3 328 235.4 309.3C204.5 290.6 170.2 290.7 170.2 290.7C175.4 300.1 181.8 308.6 189.2 316.5L202.4 311Z" fill="#6E7832"/>
<path id="Vector_62" d="M170.2 291C170.2 291 204.4 290.9 235.4 309.6C266.5 328.3 282.3 358.5 282.3 358.5L170.2 291Z" fill="#324100"/>
<path id="Vector_63" d="M433.5 380C416.6 400.6 415.4 427.5 415.4 427.5C415.4 427.5 441.5 421 458.4 400.4C475.3 379.8 476.5 352.9 476.5 352.9C476.5 352.9 450.3 359.5 433.5 380Z" fill="#006464"/>
<path id="Vector_64" d="M476.4 353C476.4 353 475.1 379.9 458.3 400.5C441.5 421.1 415.3 427.6 415.3 427.6L476.4 353Z" fill="#0F373C"/>
<path id="Vector_65" d="M403.2 307H387.2V331.1H403.2V307Z" fill="#A87462"/>
<path id="Vector_66" d="M250.6 198.6C260 202.6 309 235.9 315 283C315.6 287.8 315.7 317.3 315 323.1" stroke="#333F00" stroke-width="5.6716" stroke-miterlimit="10"/>
<path id="Vector_67" d="M327.1 194.4C319.9 219.2 315.8 244.9 315 270.8C314.9 276.3 314.9 281.7 315 286.8" stroke="#333F00" stroke-width="5.6716" stroke-miterlimit="10"/>
<path id="Vector_68" d="M363.1 122.1C357.7 122.1 352.3 123.2 347.4 125.4C338.2 105.3 314.2 96.5 294.1 105.7C274 114.9 265.2 138.9 274.4 159C277.4 165.5 282.1 171.1 287.9 175.2C277.1 194.6 284.2 219.2 303.6 229.8C323 240.6 347.6 233.5 358.2 214.1C360.2 210.6 361.6 206.7 362.3 202.8H363.2C385.5 202.4 403 184.1 402.6 161.8C402.1 140 384.8 122.6 363.1 122.1Z" fill="#6E7832"/>
<path id="Vector_69" d="M403.3 162.4C403.3 184.7 385.3 202.5 363.2 202.5H362.3C357.9 224.3 336.6 238.4 314.8 233.8C312.1 233.2 309.4 232.4 306.9 231.2C319 226 327.6 215.2 330.2 202.4H331.1C353.4 202.4 371.2 184.4 371.2 162.1C371.2 139.8 353.2 122 330.9 122C326.8 122 322.8 122.6 319 123.8C317.7 124.2 316.4 124.7 315.2 125.2C311.1 116.3 303.9 109.2 294.8 105.2C305.3 100.7 317.3 100.7 327.7 105.5C338.9 94.9 356.8 95.3 367.4 106.6C371.8 111.3 374.5 117.4 375.1 123.8C391.8 129.2 403.3 144.7 403.3 162.4Z" fill="#324100"/>
<path id="Vector_70" d="M312.8 202.5H345C348.3 202.5 351 205.2 351 208.5C351 211.8 348.3 214.5 345 214.5H312.8C309.5 214.5 306.8 211.8 306.8 208.5C306.9 205.2 309.5 202.5 312.8 202.5Z" fill="#324100"/>
<path id="Vector_71" d="M278.8 186.5C275.7 186.5 272.6 187.5 269.9 189.2C266.9 180.8 257.8 176.4 249.5 179.3C241.1 182.1 236.7 191.4 239.6 199.7C240.9 203.2 243.3 206.2 246.5 208.2C240.8 215 241.7 225.1 248.3 230.9C255.1 236.6 265.2 235.7 271 229.1C273.4 226.1 274.8 222.4 274.8 218.7C274.8 218.6 274.8 218.4 274.8 218.1C276.1 218.4 277.5 218.7 278.9 218.7C287.8 219 295.2 212 295.5 203.1C295.8 194.2 288.8 186.8 279.9 186.5C279.3 186.5 279.1 186.5 278.8 186.5Z" fill="#6E7832"/>
<path id="Vector_72" d="M253.7 189.2C258.4 186.1 264.2 185.7 269.3 187.9C265.6 179.8 256.3 176.3 248.2 179.8C247.6 180.1 247.2 180.2 246.6 180.5C250 182.5 252.4 185.5 253.7 189.2Z" fill="#324100"/>
<path id="Vector_73" d="M278.8 186.5C276 186.5 273.3 187.4 270.9 188.8C278.6 193.2 281.3 203 276.9 210.8C274.1 215.8 268.7 218.9 263 218.9C261.6 218.9 260.3 218.8 258.9 218.3C258.9 218.4 258.9 218.6 258.9 218.9C258.9 224.6 255.8 230 250.8 232.8C258.5 237.2 268.2 234.6 272.8 227C274.2 224.6 274.9 221.8 274.9 218.9C274.9 218.8 274.9 218.6 274.9 218.3C276.2 218.6 277.6 218.9 279 218.9C287.9 219.2 295.3 212.2 295.6 203.3C295.9 194.4 288.9 187 280 186.7C279.3 186.5 279.1 186.5 278.8 186.5Z" fill="#324100"/>
<path id="Vector_74" d="M379.2 399.5C379.2 399.5 319.2 420.3 394.8 435.7L425.4 443.8L491.3 427.8L498.7 439.7L429.4 457.6L298.8 433.4L311.1 415L379.2 399.5Z" fill="#001E1D"/>
<path id="Vector_75" d="M280.8 343.2H329C332.3 343.2 335 345.9 335 349.2C335 352.5 332.3 355.2 329 355.2H280.8C277.5 355.2 274.8 352.5 274.8 349.2C274.7 345.9 277.4 343.2 280.8 343.2Z" fill="#0F373C"/>
<path id="Vector_76" d="M419.4 367.3C426.083 367.3 431.5 361.883 431.5 355.2C431.5 348.517 426.083 343.1 419.4 343.1C412.717 343.1 407.3 348.517 407.3 355.2C407.3 361.883 412.717 367.3 419.4 367.3Z" fill="#F5A03C"/>
<path id="Vector_77" d="M523.9 347.2C530.583 347.2 536 341.783 536 335.1C536 328.417 530.583 323 523.9 323C517.217 323 511.8 328.417 511.8 335.1C511.8 341.783 517.217 347.2 523.9 347.2Z" fill="#F5A03C"/>
<path id="Vector_78" d="M395.3 307H387.2V331.1H395.3V307Z" fill="#8E503F"/>
<path id="Vector_79" d="M419.3 291H322.9V295H419.3V291Z" fill="#8E503F"/>
<path id="Vector_80" d="M306.6 295.1C306.7 293.7 306.9 292.3 306.9 291C307.3 273.3 293.1 258.5 275.4 258.1C257.7 257.7 242.9 271.9 242.5 289.6C242.5 290 242.5 290.5 242.5 291C242.5 292.4 242.6 293.8 242.8 295.1C227.3 303.9 222 323.6 230.9 338.9C239.7 354.4 259.4 359.7 274.7 351C290.2 359.8 309.7 354.4 318.5 338.9C327.4 323.5 322 303.9 306.6 295.1Z" fill="#F5A03C"/>
<path id="Vector_81" d="M306.6 295.1C306.7 293.7 306.9 292.3 306.9 291C306.9 273.3 292.6 258.8 274.7 258.8V266.9H268.7C265.4 266.9 262.6 269.6 262.6 272.9C262.6 276.2 265.3 279 268.6 279H282.6C287 279 290.7 282.5 290.7 287.1C290.7 291.5 287.2 295.2 282.6 295.2H270.5C266.1 295.2 262.4 298.7 262.4 303.3C262.4 307.7 265.9 311.4 270.5 311.4H274.5V351.2C290 360 309.5 354.6 318.3 339.1C327.4 323.5 322 303.9 306.6 295.1Z" fill="#D17820"/>
<path id="Vector_82" d="M278.4 352.5C281.4 339.5 273.3 326.6 260.3 323.6C247.3 320.6 234.4 328.7 231.4 341.7C230.5 345.1 230.5 348.6 231.3 352.1C218.7 356.2 211.7 369.8 215.7 382.4C219.8 395 233.4 402 246 398C249.1 397 252 395.4 254.4 393.2C264.2 402.1 279.5 401.4 288.4 391.6C297.3 381.8 296.6 366.5 286.8 357.6C284.4 355.4 281.5 353.7 278.4 352.5Z" fill="#006464"/>
<path id="Vector_83" d="M278.4 352.5C281.4 339.5 273.3 326.6 260.3 323.6C255.2 322.5 249.8 322.9 245 325.2C255.4 330 260.9 341.4 258.3 352.4C270.9 356.7 277.7 370.3 273.5 382.9C271.4 389.3 266.7 394.5 260.6 397.2C272.7 402.9 287 397.8 292.8 385.9C298.5 373.8 293.4 359.5 281.5 353.7C280.3 353.2 279.3 352.8 278.4 352.5Z" fill="#0F373C"/>
<path id="Vector_84" d="M250.6 351.3H266.8C269.1 351.3 270.8 353.1 270.8 355.3C270.8 357.6 269 359.3 266.8 359.3H250.6C248.3 359.3 246.6 357.5 246.6 355.3C246.6 353.1 248.3 351.3 250.6 351.3Z" fill="#0F373C"/>
<path id="Vector_85" d="M580.2 447.7L362.7 517.3L243.3 527.9C243.3 527.9 174.1 536 150.6 603.6C120.7 581.9 90.6 562.5 69.8 531.9C146.2 483.7 172.5 410.2 243.5 393.4C278.9 384.9 358.4 365.9 371.3 363.1C407.5 355 414.7 386.1 379.4 399.3C344 412.4 307 427.3 307 427.3L427.5 451.4C427.5 451.7 562.5 408 580.2 447.7Z" fill="#FFD1B8"/>
<path id="Vector_86" d="M556.7 433.4L342.6 502L223.2 512.6C223.2 512.6 154 520.7 130.5 588.3C120.6 581.1 133.5 592 150.6 604.3C174.3 536.7 243.3 528.6 243.3 528.6L362.7 518L580.2 448.4C576.5 440.2 568 435.6 556.7 433.4Z" fill="#E2AB93"/>
<path id="Vector_87" d="M461.5 218.5H489.7C493 218.5 495.7 221.2 495.7 224.5C495.7 227.8 493 230.5 489.7 230.5H461.5C458.2 230.5 455.5 227.8 455.5 224.5C455.6 221.2 458.3 218.5 461.5 218.5Z" fill="#0F373C"/>
<path id="Vector_88" d="M489.8 242.7H517.9C521.2 242.7 523.9 245.4 523.9 248.7C523.9 252 521.2 254.7 517.9 254.7H489.7C486.4 254.7 483.7 252 483.7 248.7C483.7 245.3 486.4 242.7 489.8 242.7Z" fill="#0F373C"/>
<path id="Vector_89" d="M469.6 230.6H497.8C501.1 230.6 503.8 233.3 503.8 236.6C503.8 239.9 501.1 242.6 497.8 242.6H469.6C466.3 242.6 463.6 239.9 463.6 236.6C463.7 233.3 466.4 230.6 469.6 230.6Z" fill="#006464"/>
<path id="Vector_90" d="M431.5 311H411.4V319.1H431.5V311Z" fill="#E2AB93"/>
<path id="Vector_91" d="M423.4 323H407.4V331.1H423.4V323Z" fill="#E2AB93"/>
<path id="Vector_92" d="M480.4 350C476.7 344.5 478.1 337 483.7 333.3C489.2 329.6 496.7 331 500.4 336.6C504.1 342.1 503.8 363.4 503.8 363.4C503.8 363.4 484.1 355.5 480.4 350Z" fill="#006464"/>
<path id="Vector_93" d="M503.8 363.2C503.8 363.2 504.1 341.9 500.4 336.4C496.7 330.9 489.2 329.5 483.7 333.1L503.8 363.2Z" fill="#0F373C"/>
<path id="Vector_94" d="M363.1 214.6C367.574 214.6 371.2 210.974 371.2 206.5C371.2 202.026 367.574 198.4 363.1 198.4C358.626 198.4 355 202.026 355 206.5C355 210.974 358.626 214.6 363.1 214.6Z" fill="#FF8764"/>
<path id="Vector_95" d="M363.1 198.6C362.4 198.6 361.7 198.7 361.1 198.9C365.4 199.9 368 204.3 367.1 208.5C366.4 211.5 364.1 213.7 361.1 214.5C361.8 214.6 362.4 214.8 363.1 214.8C367.5 214.8 371.2 211.3 371.2 206.7C371.2 202.1 367.5 198.6 363.1 198.6Z" fill="#D25A3C"/>
<path id="Vector_96" d="M278.8 234.7C283.273 234.7 286.9 231.074 286.9 226.6C286.9 222.126 283.273 218.5 278.8 218.5C274.326 218.5 270.7 222.126 270.7 226.6C270.7 231.074 274.326 234.7 278.8 234.7Z" fill="#FF8764"/>
<path id="Vector_97" d="M278.8 218.5C278.1 218.5 277.4 218.6 276.8 218.8C281.1 219.8 283.7 224.2 282.8 228.4C282.1 231.4 279.8 233.6 276.8 234.4C277.5 234.5 278.1 234.7 278.8 234.7C283.2 234.7 286.9 231.2 286.9 226.6C286.7 222.2 283.2 218.7 278.8 218.5Z" fill="#D25A3C"/>
<path id="Vector_98" d="M335.1 238.7C339.574 238.7 343.2 235.074 343.2 230.6C343.2 226.126 339.574 222.5 335.1 222.5C330.626 222.5 327 226.126 327 230.6C327 235.074 330.626 238.7 335.1 238.7Z" fill="#FF8764"/>
<path id="Vector_99" d="M335.1 222.7C334.4 222.7 333.7 222.8 333.1 223C337.4 224 340 228.4 339.1 232.6C338.4 235.6 336.1 237.8 333.1 238.6C333.8 238.7 334.4 238.9 335.1 238.9C339.5 238.9 343.2 235.4 343.2 230.8C343 226.2 339.5 222.7 335.1 222.7Z" fill="#D25A3C"/>
<path id="Vector_100" d="M314.9 162.4C314.9 169.1 309.5 174.5 302.8 174.5H286.6C286 174.1 285.5 173.6 285 173.2C284.6 172.8 284.3 172.5 283.9 172.2C283.5 171.8 283 171.5 282.8 171.1C282.5 170.7 281.8 170.1 281.4 169.7C281 169.3 280.5 168.8 280.3 168.4C280 168 279.7 167.7 279.4 167.3L279 166.7C278.7 166.4 278.4 166 278.3 165.7L278 165.3C277.7 164.9 277.4 164.4 277.1 164C276.8 163.6 276.4 163 276.1 162.4C275.8 161.8 275.7 161.5 275.4 161.1C275 160.4 274.7 159.5 274.3 158.8C274.2 158.4 273.9 157.9 273.7 157.4C273.6 156.8 273.3 156.3 273 155.7C272.7 155.1 272.6 154.6 272.4 154C272.2 153.4 272.1 152.9 271.8 152.2C271.7 151.6 271.5 151.1 271.4 150.4C270.8 147.7 270.5 145 270.5 142.3C270.5 137.9 271.2 133.7 272.6 129.5C277.3 142 289.3 150.3 302.7 150.3C309.5 150.3 314.9 155.7 314.9 162.4Z" fill="#324100"/>
<path id="Vector_101" d="M403.4 499C395.6 487.8 383.8 480 370.6 477.2C362 475.4 353 475.5 344.5 477.9C343.6 478.2 342.8 478.3 342.1 478.6C339.7 479.5 337.3 480.3 335 481.4C333.4 482.1 332 483 330.6 483.8C327.1 486.1 323.7 488.6 320.8 491.6C319 493.4 317.4 495.4 315.8 497.4C314.2 499.5 313 501.7 311.7 503.9C310.8 505.5 310.1 507 309.6 508.7C308.6 511.1 307.9 513.7 307.3 516.4C307 517.7 306.9 518.8 306.7 520.1L349.2 516.3L403.4 499Z" fill="#E2AB93"/>
<path id="Vector_102" d="M407.4 258.8H371.2V238.7H391.2L407.4 258.8Z" fill="#D25A3C"/>
<path id="Vector_103" d="M387.2 258.8L371.2 238.7L355.1 258.8V291H387.2V258.8Z" fill="#FFD1B8"/>
<path id="Vector_104" d="M407.4 258.8H387.2V291L407.4 258.8Z" fill="#E2AB93"/>
<path id="Vector_105" d="M387.3 258.8H355.1V262.8H387.3V258.8Z" fill="#8E503F"/>
<path id="Vector_106" d="M363.1 291V279C363.1 274.6 366.6 270.9 371.2 270.9C375.6 270.9 379.3 274.4 379.3 279V291H363.1Z" fill="#A87462"/>
<path id="Vector_107" d="M375.2 272C371.4 269.7 366.4 271 364.3 274.8C363.6 276.1 363.2 277.5 363.2 278.9V291H371.3V279C371.2 276 372.6 273.4 375.2 272Z" fill="#8E503F"/>
<path id="Vector_108" d="M391.3 262.8H355.1V266.8H391.3V262.8Z" fill="#E2AB93"/>
<path id="Vector_109" d="M423.4 295H322.9V299H423.4V295Z" fill="#E2AB93"/>
</g>
<g id="galazka-dolna">
<path id="Vector_110" d="M339 431.7C353.2 434.8 384.9 443.8 411.3 472C421.2 482.6 429.4 494.8 435.4 508.2" stroke="#001E1D" stroke-width="4.2537" stroke-miterlimit="10"/>
<path id="Vector_111" d="M359 431.7C363.5 435.7 382.1 453.1 383.1 479.9C383.4 488.1 382 496.3 379.1 504" stroke="#001E1D" stroke-width="4.2537" stroke-miterlimit="10"/>
<path id="Vector_112" d="M443.5 524.1L457.4 518.6C458 515.1 458.4 511.5 458.5 508.1H439.4L458.5 499.9C458.4 496.6 457.6 493.4 456.4 490.4C448.5 474.5 429 468.1 413.2 476.2C397.9 483.9 391.4 502.3 398.3 517.9C406 533.9 449.6 551.4 449.6 551.4C452.3 542.5 454.6 533.4 456.4 524.3H443.5V524.1V524.1Z" fill="#6E7832"/>
<path id="Vector_113" d="M449.8 551.2L413.8 474.9C397.8 482.6 390.8 501.7 398.5 517.7C406 533.7 449.8 551.2 449.8 551.2Z" fill="#324100"/>
<path id="Vector_114" d="M364.6 521.8C365.7 523.6 365.3 526.2 363.3 527.3L335.7 545C334.3 545.9 333.6 547.6 334 549.3C334.4 551.3 335 553.3 335.4 555.1C336 557.2 338.2 558.5 340.4 557.9C340.8 557.8 341.1 557.6 341.5 557.3L354 549.4C355.8 548.3 358.3 548.7 359.5 550.5C360.6 552.3 360.2 554.8 358.4 556L342 566.5C340.4 567.5 339.7 569.3 340.3 571L341.6 574.8C342.3 576.9 344.6 578.1 346.7 577.4C347 577.3 347.3 577.1 347.6 577L351.3 574.6C353.1 573.5 355.6 573.9 356.8 575.7C357.9 577.5 357.5 580.1 355.5 581.2L348.6 585.6C347 586.6 346.3 588.6 347 590.3C349.1 596.3 351.1 601.4 352.5 605C353.4 607 355.6 608.1 357.7 607.3C358.1 607.2 358.6 606.9 359 606.4C361.8 603.7 365.7 599.9 370.2 595.3C371.5 594 371.8 591.9 370.8 590.3L366.4 583.4C365.3 581.6 365.7 579 367.7 577.9C369.5 576.8 372.1 577.2 373.2 579.2L375.6 582.9C376.7 584.7 379.3 585.3 381.1 584C381.4 583.9 381.7 583.6 381.8 583.4C382.7 582.4 383.6 581.4 384.5 580.4C385.8 579.1 385.9 577.1 384.9 575.6L374.4 559.2C373.3 557.4 373.7 554.8 375.7 553.7C377.5 552.6 380.1 553 381.2 555L389.1 567.5C390.2 569.3 392.8 569.9 394.6 568.8C395 568.5 395.3 568.2 395.6 567.9C396.9 566.3 398.2 564.8 399.4 563.2C400.4 561.9 400.5 559.9 399.7 558.5L382 531.1C380.9 529.3 381.3 526.7 383.3 525.6C385.1 524.5 387.7 524.9 388.8 526.9L403 549C404.1 550.8 406.7 551.4 408.5 550.3C409.1 550 409.5 549.4 409.8 548.9C411.9 545.5 413.6 541.8 414.6 537.8C419.6 515.5 404.8 493.3 381.8 488.3C358.8 483.3 336.1 497.2 331.3 519.5C330.6 523.5 330.6 527.4 331 531.6C331.3 533.9 333.1 535.4 335.4 535.1C336 535.1 336.7 534.8 337.1 534.5L359.2 520.3C361 519.4 363.4 520 364.6 521.8Z" fill="#006464"/>
<path id="Vector_115" d="M330.8 531.8C331.1 534.1 332.9 535.6 335.2 535.3C335.8 535.3 336.5 535 336.9 534.7L359 520.5C361 519.5 363.4 520.2 364.4 522.1C365.4 523.8 364.8 526.1 363.3 527.2L335.6 545C334.2 545.9 333.5 547.6 333.9 549.3C334.3 551.3 334.9 553.3 335.3 555.1C335.9 557.2 338.1 558.5 340.3 557.9C340.7 557.8 341 557.6 341.4 557.3L353.9 549.4C355.9 548.4 358.3 549.1 359.3 551.1C360.2 552.8 359.7 554.9 358.2 556.1L341.8 566.6C340.2 567.6 339.5 569.4 340.1 571.1L341.4 574.9C342.1 577 344.4 578.2 346.5 577.5C346.8 577.4 347.1 577.2 347.4 577.1L351.1 574.7C353.1 573.7 355.5 574.4 356.5 576.4C357.4 578.1 356.9 580.2 355.4 581.4L348.5 585.8C346.9 586.8 346.2 588.8 346.9 590.5C349 596.5 351 601.6 352.4 605.2C352.8 606.5 354 607.3 355.2 607.6L381.4 488.2C358.4 483.1 335.7 497.1 330.9 519.4C330.2 523.7 330.2 527.8 330.8 531.8Z" fill="#0F373C"/>
</g>
</g>
</g>
</g>
</svg>
