<svg width="1366" height="667" viewBox="0 0 1366 667" fill="none" xmlns="http://www.w3.org/2000/svg">
<g id="main-image-desktop" clip-path="url(#clip0)">
<path id="Vector" d="M1292.5 451.7L1315.1 440.6C1315.2 437.8 1315.3 434.9 1315.3 432C1315.4 424.2 1315 416.6 1314.4 409.3L1281.5 409.1L1313.1 398C1308.3 364.7 1296.2 341.1 1282 341C1263.2 340.9 1247.7 381.4 1247.3 431.5C1246.9 481.6 1261.9 522.3 1280.7 522.5C1296.9 522.6 1310.7 492.4 1314.4 451.9L1292.5 451.7Z" fill="#F5A03C"/>
<path id="Vector_2" d="M1071.9 273.4C1086.87 273.4 1099 261.267 1099 246.3C1099 231.333 1086.87 219.2 1071.9 219.2C1056.93 219.2 1044.8 231.333 1044.8 246.3C1044.8 261.267 1056.93 273.4 1071.9 273.4Z" fill="#E2BBAA"/>
<path id="Vector_3" d="M1142.7 293C1132.2 263.3 1104.1 243.4 1072.6 243.4C1072.2 216 1049.7 194.2 1022.3 194.5C995.5 194.9 973.8 216.5 973.4 243.4V243.7C971.4 243.5 969.3 243.4 967.2 243.4C926.1 243.4 892.8 276.7 892.8 317.7C892.8 358.8 926.1 392.1 967.1 392.1C986.9 392.1 1005.8 384.2 1019.8 370.2C1043.8 394.3 1081.1 399 1110.3 381.7C1131.9 398.4 1163.1 394.4 1179.8 372.8C1196.5 351.2 1192.5 320 1170.9 303.3C1162.8 297 1152.9 293.4 1142.7 293Z" fill="#FAEBDC"/>
<path id="Vector_4" d="M958 272C953.7 275.5 949.8 279.4 946.3 283.7C949.5 279.2 953.5 275.3 958 272Z" fill="#E2BBAA"/>
<path id="Vector_5" d="M1022.9 223.2C1031.3 213.5 1043.2 207.5 1056 206.4C1036.7 189.2 1007.3 189.7 988.7 207.7L988.5 207.9C988 208.4 987.5 208.9 987 209.5C986.5 210.1 985.9 210.6 985.4 211.3L985.3 211.4C984.8 212 984.3 212.6 983.8 213.2C982.4 215 981.1 216.9 980 218.9C979.1 220.5 978.3 222.1 977.6 223.8C977.3 224.5 977 225.3 976.7 226C976.1 227.6 975.6 229.1 975.2 230.8C975 231.3 974.9 231.9 974.8 232.5C974.5 233.6 974.3 234.7 974.2 235.8C974.1 236.3 974 236.7 974 237.2C974 237.7 973.9 238.1 973.8 238.5C973.6 240.2 973.5 241.9 973.5 243.6C973.5 243.7 973.5 243.8 973.5 243.9C971.5 243.7 969.4 243.6 967.3 243.6C926.2 243.7 893 277 893.1 318.1C893.2 357.5 923.9 390 963.2 392.2C929.1 369.4 919.8 323.3 942.6 289.1C943.8 287.4 945 285.7 946.3 284C949.5 279.5 953.5 275.5 958 272.2C981.5 255.1 1014.5 260.4 1031.5 283.9C1034.8 288.4 1037.3 293.4 1039 298.7C1040.5 304.4 1041.4 310.2 1041.5 316.1C1041.5 316.7 1041.5 317.3 1041.5 317.9C1041.5 322.6 1041.1 327.3 1040.2 331.9C1063.8 296.6 1056.2 249.1 1022.9 223.2Z" fill="#E2BBAA"/>
<path id="Vector_6" d="M1064.8 373C1088.22 373 1107.2 354.017 1107.2 330.6C1107.2 307.183 1088.22 288.2 1064.8 288.2C1041.38 288.2 1022.4 307.183 1022.4 330.6C1022.4 354.017 1041.38 373 1064.8 373Z" fill="#E2BBAA"/>
<path id="Vector_7" d="M1078.3 380.1C1101.55 380.1 1120.4 361.251 1120.4 338C1120.4 314.749 1101.55 295.9 1078.3 295.9C1055.05 295.9 1036.2 314.749 1036.2 338C1036.2 361.251 1055.05 380.1 1078.3 380.1Z" fill="#FAEBDC"/>
<path id="Vector_8" d="M1052.5 285.9C1067.8 285.9 1080.2 273.498 1080.2 258.2C1080.2 242.902 1067.8 230.5 1052.5 230.5C1037.2 230.5 1024.8 242.902 1024.8 258.2C1024.8 273.498 1037.2 285.9 1052.5 285.9Z" fill="#E2BBAA"/>
<path id="Vector_9" d="M1061.3 290.6C1076.54 290.6 1088.9 278.243 1088.9 263C1088.9 247.757 1076.54 235.4 1061.3 235.4C1046.06 235.4 1033.7 247.757 1033.7 263C1033.7 278.243 1046.06 290.6 1061.3 290.6Z" fill="#FAEBDC"/>
<path id="Vector_10" d="M959.5 385.8C978.72 385.8 994.3 370.22 994.3 351C994.3 331.78 978.72 316.2 959.5 316.2C940.28 316.2 924.7 331.78 924.7 351C924.7 370.22 940.28 385.8 959.5 385.8Z" fill="#E2BBAA"/>
<path id="Vector_11" d="M970.5 391.6C989.609 391.6 1005.1 376.109 1005.1 357C1005.1 337.891 989.609 322.4 970.5 322.4C951.391 322.4 935.9 337.891 935.9 357C935.9 376.109 951.391 391.6 970.5 391.6Z" fill="#FAEBDC"/>
<path id="Vector_12" d="M1125.3 386.9C1139.33 386.9 1150.7 375.528 1150.7 361.5C1150.7 347.472 1139.33 336.1 1125.3 336.1C1111.27 336.1 1099.9 347.472 1099.9 361.5C1099.9 375.528 1111.27 386.9 1125.3 386.9Z" fill="#E2BBAA"/>
<path id="Vector_13" d="M1133.4 391.1C1147.32 391.1 1158.6 379.818 1158.6 365.9C1158.6 351.982 1147.32 340.7 1133.4 340.7C1119.48 340.7 1108.2 351.982 1108.2 365.9C1108.2 379.818 1119.48 391.1 1133.4 391.1Z" fill="#FAEBDC"/>
<path id="Vector_14" d="M1145.9 360.8C1156.17 360.8 1164.5 352.473 1164.5 342.2C1164.5 331.928 1156.17 323.6 1145.9 323.6C1135.63 323.6 1127.3 331.928 1127.3 342.2C1127.3 352.473 1135.63 360.8 1145.9 360.8Z" fill="#E2BBAA"/>
<path id="Vector_15" d="M1153.9 365.9C1164.06 365.9 1172.3 357.662 1172.3 347.5C1172.3 337.338 1164.06 329.1 1153.9 329.1C1143.74 329.1 1135.5 337.338 1135.5 347.5C1135.5 357.662 1143.74 365.9 1153.9 365.9Z" fill="#FAEBDC"/>
<path id="Vector_16" d="M1098.1 324.6C1112.63 324.6 1124.4 312.825 1124.4 298.3C1124.4 283.775 1112.63 272 1098.1 272C1083.57 272 1071.8 283.775 1071.8 298.3C1071.8 312.825 1083.57 324.6 1098.1 324.6Z" fill="#E2BBAA"/>
<path id="Vector_17" d="M1109.4 331.9C1123.81 331.9 1135.5 320.215 1135.5 305.8C1135.5 291.385 1123.81 279.7 1109.4 279.7C1094.99 279.7 1083.3 291.385 1083.3 305.8C1083.3 320.215 1094.99 331.9 1109.4 331.9Z" fill="#FAEBDC"/>
<path id="Vector_18" d="M1068.7 454.4H1114V375L1068.7 380.7V454.4Z" fill="#001C1E"/>
<path id="Vector_19" d="M691.7 522.5C798.181 522.5 884.5 436.181 884.5 329.7C884.5 223.22 798.181 136.9 691.7 136.9C585.22 136.9 498.9 223.22 498.9 329.7C498.9 436.181 585.22 522.5 691.7 522.5Z" fill="#FFD3AB"/>
<path id="Vector_20" d="M199.9 358.9C216.579 358.9 230.1 345.379 230.1 328.7C230.1 312.021 216.579 298.5 199.9 298.5C183.221 298.5 169.7 312.021 169.7 328.7C169.7 345.379 183.221 358.9 199.9 358.9Z" fill="#E2BBAA"/>
<path id="Vector_21" d="M278.8 380.9C267.1 347.7 235.7 325.5 200.5 325.5C200.1 294.9 175 270.5 144.4 270.9C114.4 271.3 90.2 295.5 89.8 325.5C89.8 325.6 89.8 325.7 89.8 325.8C87.5 325.6 85.2 325.5 82.9 325.5C37.1 325.5 -0.0999942 362.6 -0.199994 408.4C-0.299994 454.2 36.9 491.4 82.7 491.5C104.8 491.5 126 482.7 141.6 467C168.4 493.9 210 499.1 242.6 479.9C266.7 498.6 301.5 494.2 320.2 470.1C338.9 446 334.5 411.2 310.4 392.5C301.4 385.3 290.3 381.3 278.8 380.9Z" fill="#FAEBDC"/>
<path id="Vector_22" d="M72.7 357.5C67.9 361.4 63.5 365.8 59.6 370.6C63.2 365.5 67.6 361.1 72.7 357.5Z" fill="#E2BBAA"/>
<path id="Vector_23" d="M145.1 302.9C154.5 292.1 167.8 285.4 182.1 284.2C160.5 265 127.8 265.6 107 285.6L106.8 285.8C106.2 286.4 105.6 286.9 105.1 287.6C104.6 288.3 103.9 288.9 103.3 289.6L103.2 289.7C102.6 290.3 102.1 291.1 101.5 291.7C99.9 293.7 98.5 295.9 97.2 298.1C96.2 299.9 95.3 301.7 94.5 303.5C94.1 304.3 93.8 305.2 93.5 306C92.8 307.7 92.3 309.5 91.8 311.3C91.6 311.9 91.5 312.5 91.4 313.2C91.1 314.4 90.9 315.6 90.7 316.9C90.6 317.4 90.5 317.9 90.5 318.4C90.5 318.9 90.4 319.4 90.3 319.8C90.1 321.7 90 323.6 90 325.5C90 325.6 90 325.7 90 325.8C87.7 325.6 85.4 325.5 83.1 325.5C37.3 325.7 0.300014 363 0.500014 408.9C0.700014 452.7 34.8 488.7 78.5 491.4C40.4 465.9 30.1 414.4 55.6 376.3C56.9 374.4 58.2 372.5 59.7 370.7C63.3 365.7 67.7 361.2 72.8 357.6C99.1 338.5 135.8 344.3 154.9 370.6C158.6 375.6 161.4 381.2 163.3 387.2C165 393.6 166 400.1 166.1 406.7C166.1 407.3 166.1 408 166.1 408.7C166.1 414 165.6 419.2 164.6 424.4C190.9 384.9 182.4 332 145.1 302.9Z" fill="#E2BBAA"/>
<path id="Vector_24" d="M191.9 470.2C218.023 470.2 239.2 449.023 239.2 422.9C239.2 396.777 218.023 375.6 191.9 375.6C165.777 375.6 144.6 396.777 144.6 422.9C144.6 449.023 165.777 470.2 191.9 470.2Z" fill="#E2BBAA"/>
<path id="Vector_25" d="M206.9 478.1C232.857 478.1 253.9 457.057 253.9 431.1C253.9 405.143 232.857 384.1 206.9 384.1C180.943 384.1 159.9 405.143 159.9 431.1C159.9 457.057 180.943 478.1 206.9 478.1Z" fill="#FAEBDC"/>
<path id="Vector_26" d="M178.1 373C195.221 373 209.1 359.121 209.1 342C209.1 324.879 195.221 311 178.1 311C160.979 311 147.1 324.879 147.1 342C147.1 359.121 160.979 373 178.1 373Z" fill="#E2BBAA"/>
<path id="Vector_27" d="M188 378.2C205.01 378.2 218.8 364.41 218.8 347.4C218.8 330.39 205.01 316.6 188 316.6C170.99 316.6 157.2 330.39 157.2 347.4C157.2 364.41 170.99 378.2 188 378.2Z" fill="#FAEBDC"/>
<path id="Vector_28" d="M74.3 484.4C95.7287 484.4 113.1 467.029 113.1 445.6C113.1 424.171 95.7287 406.8 74.3 406.8C52.8714 406.8 35.5 424.171 35.5 445.6C35.5 467.029 52.8714 484.4 74.3 484.4Z" fill="#E2BBAA"/>
<path id="Vector_29" d="M86.7 491C108.018 491 125.3 473.718 125.3 452.4C125.3 431.082 108.018 413.8 86.7 413.8C65.3818 413.8 48.1 431.082 48.1 452.4C48.1 473.718 65.3818 491 86.7 491Z" fill="#FAEBDC"/>
<path id="Vector_30" d="M287.766 459.381C288.878 443.736 277.096 430.151 261.45 429.039C245.805 427.927 232.22 439.709 231.108 455.355C229.996 471 241.778 484.585 257.424 485.697C273.07 486.809 286.654 475.027 287.766 459.381Z" fill="#E2BBAA"/>
<path id="Vector_31" d="M268.4 490.5C283.974 490.5 296.6 477.874 296.6 462.3C296.6 446.726 283.974 434.1 268.4 434.1C252.826 434.1 240.2 446.726 240.2 462.3C240.2 477.874 252.826 490.5 268.4 490.5Z" fill="#FAEBDC"/>
<path id="Vector_32" d="M282.5 456.5C293.932 456.5 303.2 447.232 303.2 435.8C303.2 424.368 293.932 415.1 282.5 415.1C271.068 415.1 261.8 424.368 261.8 435.8C261.8 447.232 271.068 456.5 282.5 456.5Z" fill="#E2BBAA"/>
<path id="Vector_33" d="M291.4 462.3C302.777 462.3 312 453.077 312 441.7C312 430.323 302.777 421.1 291.4 421.1C280.023 421.1 270.8 430.323 270.8 441.7C270.8 453.077 280.023 462.3 291.4 462.3Z" fill="#FAEBDC"/>
<path id="Vector_34" d="M229.1 416.1C245.282 416.1 258.4 402.982 258.4 386.8C258.4 370.618 245.282 357.5 229.1 357.5C212.918 357.5 199.8 370.618 199.8 386.8C199.8 402.982 212.918 416.1 229.1 416.1Z" fill="#E2BBAA"/>
<path id="Vector_35" d="M241.7 424.2C257.771 424.2 270.8 411.171 270.8 395.1C270.8 379.029 257.771 366 241.7 366C225.628 366 212.6 379.029 212.6 395.1C212.6 411.171 225.628 424.2 241.7 424.2Z" fill="#FAEBDC"/>
<path id="Vector_36" d="M635.6 117.2C647.75 117.2 657.6 107.35 657.6 95.2C657.6 83.0497 647.75 73.2 635.6 73.2C623.45 73.2 613.6 83.0497 613.6 95.2C613.6 107.35 623.45 117.2 635.6 117.2Z" fill="#E2BBAA"/>
<path id="Vector_37" d="M693 133.1C684.5 109 661.7 92.9 636.1 92.9C636.1 70.7 618.1 52.7 595.9 52.7C573.7 52.7 555.7 70.7 555.7 92.9C555.7 93 555.7 93.1 555.7 93.1C554 93 552.4 92.9 550.7 92.9C517.4 92.9 490.4 119.9 490.4 153.2C490.4 186.5 517.4 213.5 550.7 213.5C566.7 213.5 582.1 207.1 593.4 195.7C612.9 215.2 643.1 219.1 666.8 205C684.4 218.6 709.6 215.3 723.2 197.7C736.8 180.1 733.5 154.9 715.9 141.3C709.3 136.3 701.3 133.4 693 133.1Z" fill="#FAEBDC"/>
<path id="Vector_38" d="M543.2 116.1C539.7 118.9 536.5 122.1 533.7 125.6C536.3 121.9 539.5 118.7 543.2 116.1Z" fill="#E2BBAA"/>
<path id="Vector_39" d="M595.8 76.4C602.6 68.5 612.3 63.7 622.7 62.8C607 48.8 583.2 49.2 568.1 63.8L568 64C567.6 64.4 567.2 64.8 566.8 65.3C566.4 65.8 565.9 66.2 565.5 66.7C565.5 66.7 565.5 66.8 565.4 66.8C565 67.3 564.6 67.8 564.2 68.3C563 69.8 562 71.3 561.1 73C560.3 74.3 559.7 75.6 559.1 77C558.8 77.6 558.6 78.2 558.4 78.8C557.9 80.1 557.5 81.4 557.2 82.7C557.1 83.1 557 83.6 556.9 84C556.7 84.9 556.5 85.8 556.4 86.7C556.3 87.1 556.3 87.4 556.2 87.8C556.1 88.1 556.1 88.5 556.1 88.8C556 90.2 555.9 91.5 555.9 92.9C555.9 93 555.9 93 555.9 93.1C554.2 93 552.6 92.9 550.9 92.9C517.6 92.9 490.6 119.9 490.6 153.2C490.6 185.2 515.6 211.7 547.6 213.5C519.9 195 512.4 157.6 530.9 129.9C531.8 128.5 532.9 127.1 533.9 125.8C536.5 122.1 539.7 118.9 543.4 116.3C562.5 102.4 589.2 106.6 603.1 125.7C605.8 129.4 607.8 133.5 609.2 137.8C610.4 142.4 611.1 147.2 611.2 151.9C611.2 152.4 611.2 152.9 611.2 153.3C611.2 157.1 610.8 160.9 610.1 164.7C629.1 136 622.9 97.5 595.8 76.4Z" fill="#E2BBAA"/>
<path id="Vector_40" d="M629.8 198C648.799 198 664.2 182.599 664.2 163.6C664.2 144.601 648.799 129.2 629.8 129.2C610.801 129.2 595.4 144.601 595.4 163.6C595.4 182.599 610.801 198 629.8 198Z" fill="#E2BBAA"/>
<path id="Vector_41" d="M640.8 203.8C659.688 203.8 675 188.488 675 169.6C675 150.712 659.688 135.4 640.8 135.4C621.912 135.4 606.6 150.712 606.6 169.6C606.6 188.488 621.912 203.8 640.8 203.8Z" fill="#FAEBDC"/>
<path id="Vector_42" d="M619.8 127.4C632.226 127.4 642.3 117.326 642.3 104.9C642.3 92.4736 632.226 82.4 619.8 82.4C607.374 82.4 597.3 92.4736 597.3 104.9C597.3 117.326 607.374 127.4 619.8 127.4Z" fill="#E2BBAA"/>
<path id="Vector_43" d="M627 131.2C639.371 131.2 649.4 121.171 649.4 108.8C649.4 96.4288 639.371 86.4 627 86.4C614.629 86.4 604.6 96.4288 604.6 108.8C604.6 121.171 614.629 131.2 627 131.2Z" fill="#FAEBDC"/>
<path id="Vector_44" d="M544.4 208.4C559.974 208.4 572.6 195.774 572.6 180.2C572.6 164.626 559.974 152 544.4 152C528.826 152 516.2 164.626 516.2 180.2C516.2 195.774 528.826 208.4 544.4 208.4Z" fill="#E2BBAA"/>
<path id="Vector_45" d="M553.4 213.1C568.864 213.1 581.4 200.564 581.4 185.1C581.4 169.636 568.864 157.1 553.4 157.1C537.936 157.1 525.4 169.636 525.4 185.1C525.4 200.564 537.936 213.1 553.4 213.1Z" fill="#FAEBDC"/>
<path id="Vector_46" d="M678.9 209.3C690.277 209.3 699.5 200.077 699.5 188.7C699.5 177.323 690.277 168.1 678.9 168.1C667.523 168.1 658.3 177.323 658.3 188.7C658.3 200.077 667.523 209.3 678.9 209.3Z" fill="#E2BBAA"/>
<path id="Vector_47" d="M685.5 212.7C696.822 212.7 706 203.522 706 192.2C706 180.878 696.822 171.7 685.5 171.7C674.178 171.7 665 180.878 665 192.2C665 203.522 674.178 212.7 685.5 212.7Z" fill="#FAEBDC"/>
<path id="Vector_48" d="M695.7 188C703.984 188 710.7 181.284 710.7 173C710.7 164.716 703.984 158 695.7 158C687.416 158 680.7 164.716 680.7 173C680.7 181.284 687.416 188 695.7 188Z" fill="#E2BBAA"/>
<path id="Vector_49" d="M702.2 192.3C710.484 192.3 717.2 185.584 717.2 177.3C717.2 169.016 710.484 162.3 702.2 162.3C693.916 162.3 687.2 169.016 687.2 177.3C687.2 185.584 693.916 192.3 702.2 192.3Z" fill="#FAEBDC"/>
<path id="Vector_50" d="M656.9 158.7C668.664 158.7 678.2 149.164 678.2 137.4C678.2 125.636 668.664 116.1 656.9 116.1C645.136 116.1 635.6 125.636 635.6 137.4C635.6 149.164 645.136 158.7 656.9 158.7Z" fill="#E2BBAA"/>
<path id="Vector_51" d="M666 164.6C677.708 164.6 687.2 155.108 687.2 143.4C687.2 131.692 677.708 122.2 666 122.2C654.292 122.2 644.8 131.692 644.8 143.4C644.8 155.108 654.292 164.6 666 164.6Z" fill="#FAEBDC"/>
<path id="Vector_52" d="M251.5 370.8C283.1 402.3 301.4 435.1 292.6 444C283.8 452.9 251 434.5 219.4 402.9C187.8 371.3 178.3 329.7 178.3 329.7C178.3 329.7 219.9 339.2 251.5 370.8Z" fill="#006464"/>
<path id="Vector_53" d="M178.3 329.7L292.5 443.9C301.4 435 283 402.3 251.4 370.7C219.8 339.1 178.3 329.7 178.3 329.7Z" fill="#0F373C"/>
<path id="Vector_54" d="M291.9 365C312.8 404.4 320.7 441.2 309.6 447C298.5 452.8 272.6 425.6 251.8 386.2C231 346.8 234.1 304.2 234.1 304.2C234.1 304.2 271.1 325.5 291.9 365Z" fill="#006464"/>
<path id="Vector_55" d="M234.1 304.2L309.6 447C320.7 441.1 312.7 404.4 291.9 365C271.1 325.6 234.1 304.2 234.1 304.2Z" fill="#0F373C"/>
<path id="Vector_56" d="M1213.2 545.1C1225.74 545.1 1235.9 509.551 1235.9 465.7C1235.9 421.849 1225.74 386.3 1213.2 386.3C1200.66 386.3 1190.5 421.849 1190.5 465.7C1190.5 509.551 1200.66 545.1 1213.2 545.1Z" fill="#F5A03C"/>
<path id="Vector_57" d="M1213.2 386.4C1200.7 386.4 1190.5 421.9 1190.5 465.8C1190.5 509.7 1200.7 545.2 1213.2 545.2V386.4Z" fill="#EA7500"/>
<path id="Vector_58" d="M1281.3 341C1262.5 341 1247.3 381.6 1247.3 431.7C1247.3 481.8 1262.5 522.4 1281.3 522.4V341Z" fill="#EA7500"/>
<path id="Vector_59" d="M1366 522.4H0V667H1366V522.4Z" fill="#006464"/>
<path id="Vector_60" d="M450.7 290C442 301.4 428.4 322.9 425.2 352.4C424.3 360.9 424.3 369.4 425.2 377.9" stroke="#301300" stroke-width="5" stroke-miterlimit="10"/>
<path id="Vector_61" d="M911.3 545.1H1121.1C1123.4 545.1 1125.3 547 1125.3 549.3C1125.3 551.6 1123.4 553.5 1121.1 553.5H911.3C909 553.5 907.1 551.6 907.1 549.3C907.1 547 909 545.1 911.3 545.1Z" fill="#0F373C"/>
<path id="Vector_62" d="M402.5 307C408.2 383.5 447.9 383.5 447.9 443.1" stroke="#301300" stroke-width="5" stroke-miterlimit="10"/>
<path id="Vector_63" d="M386.9 390.9C391.5 355.7 366.8 323.4 331.6 318.8C296.4 314.2 264.1 338.9 259.5 374.1C258.8 379.7 258.8 385.3 259.5 390.9C228.5 408.1 217.3 447.2 234.5 478.3C251.7 509.4 290.8 520.5 321.9 503.3C322.3 503.1 322.8 502.8 323.2 502.6C353.8 520.5 393.2 510.3 411.1 479.7C429 449.1 418.8 409.7 388.2 391.8C387.7 391.4 387.3 391.1 386.9 390.9Z" fill="#006464"/>
<path id="Vector_64" d="M287 446.8C287 423.6 299.5 402.2 319.7 390.8C319.3 388 319.1 385.3 319.1 382.5C319.1 358.7 332.2 336.9 353.2 325.7C321.8 309.1 283 321 266.3 352.4C261.4 361.7 258.8 372 258.8 382.5C258.8 385.3 259 388 259.3 390.8C228.3 408.1 217.2 447.2 234.5 478.2C251.6 508.9 290.1 520.1 321 503.5C300.1 492.4 287 470.6 287 446.8Z" fill="#0F373C"/>
<path id="Vector_65" d="M386.9 390.9C390.4 364.3 377 338.4 353.3 325.8C352.3 325.2 351.2 324.7 350.1 324.2L349.6 324C348.6 323.6 347.7 323.1 346.7 322.8L346.2 322.6C345.1 322.2 344 321.8 342.9 321.4L342.8 321.3C341.6 320.9 340.4 320.6 339.1 320.3H338.9C337.8 320 336.7 319.8 335.5 319.6C335.2 319.5 334.8 319.5 334.5 319.4C333.6 319.2 332.8 319.1 331.9 319L330.7 318.8C329.8 318.7 329 318.6 328.1 318.6L327 318.5C325.8 318.4 324.5 318.4 323.3 318.4C317.9 318.4 312.5 319.1 307.2 320.4C308.4 320.7 309.5 321 310.6 321.4L310.8 321.5C311.9 321.9 313 322.2 314.1 322.7L314.6 322.9C315.6 323.3 316.6 323.7 317.5 324.1L318 324.3C319.1 324.8 320.2 325.3 321.2 325.9C342.2 337 355.3 358.9 355.3 382.7C355.3 385.5 355.1 388.2 354.7 391C385.6 408.4 396.5 447.6 379.1 478.5C370.5 493.7 356.1 504.8 339.2 509.1C373.6 517.9 408.6 497.3 417.4 462.9C424.8 434.7 412.2 405.2 386.9 390.9Z" fill="#009B97"/>
<path id="Vector_66" d="M286.1 501.9L285.1 501.3C282.2 499.5 279.4 497.4 276.9 495.2C276.2 494.6 275.6 494 274.9 493.4C273.8 492.3 272.7 491.3 271.7 490.1C247.8 463.9 249.6 423.3 275.8 399.4C279.4 396.1 283.3 393.3 287.6 390.9C283.2 358 304.8 327.1 337.2 319.9C336.6 319.8 336.1 319.6 335.5 319.5C335.2 319.4 334.8 319.4 334.5 319.3C333.6 319.1 332.8 319 331.9 318.9L330.7 318.7C329.8 318.6 329 318.5 328.1 318.5L327 318.4C325.8 318.3 324.5 318.3 323.3 318.3C287.9 318.3 259.1 347 259.1 382.4C259.1 385.2 259.3 388.1 259.6 390.9C228.7 408.3 217.8 447.5 235.2 478.4C237.6 482.6 240.4 486.6 243.7 490.2C244.7 491.3 245.8 492.4 246.9 493.5C247.5 494.1 248.2 494.7 248.9 495.3C251.5 497.6 254.2 499.6 257.1 501.4L258.1 502C268.1 508 279.5 511.2 291.1 511.2H291.2C292.6 511.2 293.9 511.2 295.3 511.1C295.9 511.1 296.5 511 297.1 510.9C297.7 510.8 298.6 510.8 299.3 510.7C300 510.6 300.9 510.5 301.7 510.3C302.2 510.2 302.7 510.1 303.3 510C303.9 509.9 304.5 509.7 305.1 509.6C298.3 508 291.9 505.5 286.1 501.9Z" fill="#001C1E"/>
<path id="Vector_67" d="M932.6 624.5C932.6 630.8 927.5 635.8 921.3 635.8H876.8C868.2 635.8 861.2 642.8 861.2 651.4C861.2 660 868.2 667 876.8 667H593.9C602.5 667 609.5 660 609.5 651.4C609.5 642.8 602.5 635.8 593.9 635.8H484.7C478.4 635.6 473.5 630.4 473.7 624.1C473.9 618.1 478.7 613.3 484.7 613.1H521.6C534.1 613.1 544.3 602.9 544.3 590.4C544.3 577.9 534.1 567.7 521.6 567.7H476.2C463.7 567.4 453.7 557.1 454 544.5C454.3 532.3 464 522.6 476.2 522.3H861.7C874.2 522.6 884.2 532.9 883.9 545.5C883.6 557.7 873.9 567.4 861.7 567.7C849.2 567.7 839 577.9 839 590.4C839 602.9 849.2 613.1 861.7 613.1H921.2C927.5 613.2 932.6 618.2 932.6 624.5Z" fill="#00B5AC"/>
<path id="Vector_68" d="M1068.1 435.4C1030.7 468.8 993.7 488.2 985.3 478.9C976.9 469.6 1000.5 434.9 1037.9 401.6C1075.3 368.3 1120.7 358.1 1120.7 358.1C1120.7 358.1 1105.4 402 1068.1 435.4Z" fill="#FF8764"/>
<path id="Vector_69" d="M1068.1 435.4C1105.5 402 1120.7 358 1120.7 358L985.3 478.9C993.6 488.2 1030.7 468.7 1068.1 435.4Z" fill="#D25A3C"/>
<path id="Vector_70" d="M1039 392.5C1020.2 438.9 995.6 472.8 984 468.1C972.4 463.4 978.2 422 997 375.5C1015.8 329 1052 299.9 1052 299.9C1052 299.9 1057.7 346.1 1039 392.5Z" fill="#FF8764"/>
<path id="Vector_71" d="M1039 392.5C1057.8 346 1052 299.9 1052 299.9L984 468.1C995.5 472.8 1020.2 439 1039 392.5Z" fill="#D25A3C"/>
<path id="Vector_72" d="M983.9 468.1C984.6 468.4 985.4 468.5 986.2 468.5C992 468.5 1000.1 461.3 1009 449.1C1004.9 444.3 1000.3 440.1 995.2 436.4C1003.2 420.3 1007.8 397.6 1007.8 373.5C1007.8 367.1 1007.5 360.9 1006.9 354.8C1003.1 361.4 999.8 368.3 996.9 375.4C978.1 422 972.3 463.5 983.9 468.1Z" fill="#BF3116"/>
<path id="Vector_73" d="M367.7 427.5C399.2 459 417.7 491.8 408.8 500.7C399.9 509.6 367.2 491.2 335.6 459.6C304 428 294.5 386.4 294.5 386.4C294.5 386.4 336.2 395.9 367.7 427.5Z" fill="#FF8764"/>
<path id="Vector_74" d="M183.5 441C164.8 459.7 145.4 470.6 140.2 465.3C135 460 145.8 440.7 164.5 422C183.2 403.3 207.8 397.7 207.8 397.7C207.8 397.7 202.2 422.3 183.5 441Z" fill="#001819"/>
<path id="Vector_75" d="M163.4 419C148.5 448.5 129.6 469 121.4 464.8C113.2 460.6 118.5 433.3 133.5 403.8C148.5 374.3 175.5 358 175.5 358C175.5 358 178.4 389.5 163.4 419Z" fill="#001819"/>
<path id="Vector_76" d="M70.7 423.1C89.7 450.2 98.8 476.4 91.2 481.7C83.6 487 62.1 469.4 43.1 442.3C24.1 415.2 22.6 383.7 22.6 383.7C22.6 383.7 51.8 396.1 70.7 423.1Z" fill="#001819"/>
<path id="Vector_77" d="M383.9 588.8C365.1 596.3 348.1 598 346 592.7C343.9 587.4 357.5 577.1 376.3 569.7C395.1 562.3 414.2 565.8 414.2 565.8C414.2 565.8 402.7 581.4 383.9 588.8Z" fill="#001819"/>
<path id="Vector_78" d="M294.5 386.4L408.7 500.6C417.6 491.7 399.2 459 367.6 427.4C336 395.8 294.5 386.4 294.5 386.4Z" fill="#D25A3C"/>
<path id="Vector_79" d="M337.3 461.1C368.3 491.7 400.1 509.3 408.8 500.6C417.7 491.7 399.3 459 367.7 427.4C366.1 425.8 364.4 424.2 362.8 422.7C356.9 431.2 353.5 441.1 353 451.5C347.4 454.1 342.1 457.3 337.3 461.1Z" fill="#BF3116"/>
<path id="Vector_80" d="M1111.2 454.4C1105 454.4 1098.8 455.7 1093 458.2C1070.1 436.9 1034.2 438.3 1012.9 461.2C1003.2 471.7 997.8 485.5 997.8 499.8H1156.5C1156.5 474.7 1136.2 454.4 1111.2 454.4Z" fill="#0F373C"/>
<path id="Vector_81" d="M963.8 451.6C982.578 451.6 997.8 416.678 997.8 373.6C997.8 330.522 982.578 295.6 963.8 295.6C945.022 295.6 929.8 330.522 929.8 373.6C929.8 416.678 945.022 451.6 963.8 451.6Z" fill="#F5A03C"/>
<path id="Vector_82" d="M959.9 341C959.9 328.1 955.2 315.7 946.7 306.1C936.5 319.6 929.7 344.7 929.7 373.6C929.7 416.7 944.9 451.6 963.7 451.6C972 451.6 979.7 444.7 985.6 433.3C977.5 428.9 968.7 426.1 959.6 424.9C958.1 408.8 951.6 393.7 940.9 381.6C953 371.6 959.9 356.7 959.9 341Z" fill="#EA7500"/>
<path id="Vector_83" d="M952.4 431.8C952.4 394.2 921.9 363.7 884.3 363.8C846.7 363.8 816.3 394.3 816.4 431.9C816.4 468.3 845.2 498.2 881.5 499.8C881.5 499.8 881.5 499.8 881.5 499.9H1017.6C1017.7 463.3 988.9 433.3 952.4 431.8Z" fill="#0F373C"/>
<path id="Vector_84" d="M926.9 431.8C926.9 394.2 896.4 363.7 858.8 363.8C821.2 363.8 790.8 394.3 790.9 431.9C790.9 468.3 819.6 498.2 856 499.8V499.9H992.1C992.2 463.3 963.4 433.3 926.9 431.8Z" fill="#0F373C"/>
<path id="Vector_85" d="M952.4 431.8C952.4 394.2 922 363.7 884.4 363.7C880.1 363.7 875.8 364.1 871.6 364.9C903.7 371 926.9 399.1 926.9 431.7V431.8C963.4 433.3 992.1 463.3 992.1 499.8H1017.6C1017.7 463.3 988.9 433.3 952.4 431.8Z" fill="#006464"/>
<path id="Vector_86" d="M475.8 414.9C479.1 390.1 461.6 367.3 436.8 364C412 360.7 389.2 378.2 385.9 403C385.4 407 385.4 411 385.9 414.9C364.2 427.3 356.6 455 369 476.8C381.4 498.6 409.1 506.1 430.9 493.7C452.6 506.1 480.4 498.6 492.8 476.8C505.2 455 497.6 427.3 475.8 414.9Z" fill="#006464"/>
<path id="Vector_87" d="M405.4 454.4C405.4 438 414.2 422.9 428.5 414.9C426 396.1 435.5 377.8 452.2 369C430.1 357.2 402.7 365.6 390.9 387.7C386.5 396 384.7 405.6 386 414.9C364.2 427.3 356.6 455 369 476.7C381.1 498 407.9 505.8 429.5 494.4C414.6 486.6 405.3 471.2 405.4 454.4Z" fill="#0F373C"/>
<path id="Vector_88" d="M475.8 414.9C478.3 396.1 468.8 377.8 452.1 369C451.4 368.6 450.6 368.2 449.8 367.9L449.5 367.7C448.8 367.4 448.1 367.1 447.4 366.8L447 366.7C446.2 366.4 445.5 366.1 444.7 365.9H444.6C443.7 365.6 442.9 365.4 442 365.2H441.9C441.1 365 440.3 364.8 439.5 364.7L438.8 364.6C438.2 364.5 437.6 364.4 437 364.3L436.1 364.2C435.5 364.1 434.9 364.1 434.3 364L433.5 363.9C432.6 363.9 431.8 363.8 430.9 363.8C427.1 363.8 423.3 364.3 419.5 365.2C420.3 365.4 421.1 365.6 421.9 365.9H422C422.8 366.1 423.6 366.4 424.3 366.7L424.7 366.8C425.4 367.1 426.1 367.4 426.8 367.7L427.1 367.9C427.9 368.3 428.6 368.6 429.4 369C446.1 377.9 455.6 396.2 453.1 414.9C474.9 427.2 482.6 454.9 470.3 476.7C464.3 487.4 454.1 495.2 442.2 498.3C466.4 504.5 491.2 490 497.4 465.7C502.6 445.9 493.7 425 475.8 414.9Z" fill="#009B97"/>
<path id="Vector_89" d="M404.7 493.3L404 492.9C402 491.6 400 490.2 398.2 488.6C397.7 488.2 397.3 487.8 396.8 487.4C396 486.6 395.3 485.9 394.5 485.1C377.6 466.6 378.9 437.9 397.4 421C399.9 418.7 402.7 416.7 405.7 415C405.4 413.1 405.3 411.1 405.3 409.1C405.3 387.9 420 369.5 440.7 364.9C440.3 364.8 439.9 364.7 439.5 364.6L438.8 364.5C438.2 364.4 437.6 364.3 437 364.2L436.1 364.1C435.5 364 434.9 364 434.3 363.9L433.5 363.8C432.6 363.8 431.8 363.7 430.9 363.7C405.9 363.6 385.6 383.9 385.5 408.9C385.5 410.9 385.6 412.9 385.9 414.9C364.1 427.2 356.4 454.8 368.7 476.6C370.4 479.6 372.4 482.4 374.7 484.9C375.4 485.7 376.2 486.5 377 487.2C377.5 487.6 377.9 488 378.4 488.4C380.2 490 382.2 491.4 384.2 492.7L384.9 493.1C391.9 497.3 400 499.6 408.2 499.6H408.3C409.3 499.6 410.2 499.6 411.2 499.5C411.6 499.5 412.1 499.4 412.5 499.4C412.9 499.4 413.6 499.3 414.1 499.3C414.6 499.3 415.2 499.1 415.8 499L416.9 498.8C417.3 498.7 417.8 498.6 418.2 498.5C413.3 497.6 408.8 495.8 404.7 493.3Z" fill="#001C1E"/>
<path id="Vector_90" d="M444.9 466.8C426.6 469.7 410.9 481.6 403.2 498.5C404.9 498.7 406.5 498.8 408.2 498.8C409.2 498.8 410.2 498.8 411.1 498.7C411.5 498.7 412 498.6 412.4 498.6C412.8 498.6 413.5 498.5 414 498.4C414.5 498.3 415.1 498.2 415.7 498.1L416.8 497.9C417.4 497.8 418.1 497.6 418.7 497.5C419 497.4 419.2 497.4 419.5 497.3C420.2 497.1 420.9 496.9 421.6 496.7L422.1 496.5C422.9 496.3 423.6 496 424.3 495.7L424.6 495.6C425.4 495.3 426.2 495 426.9 494.6H427C427.8 494.2 428.6 493.8 429.4 493.4C429.9 493.1 430.4 492.9 430.9 492.6C452.6 505.1 480.3 497.7 492.8 476.1C500.7 462.4 500.9 445.5 493.3 431.6C491.7 435.4 490.5 439.3 489.8 443.3H476.2C461.8 443.5 449 453 444.9 466.8Z" fill="#001C1E"/>
<path id="Vector_91" d="M843.4 193.7C792.4 245.2 772.3 310.8 792.9 356.9C797 366.1 804.3 377.9 817.7 389.2" stroke="#301300" stroke-width="5" stroke-miterlimit="10"/>
<path id="Vector_92" d="M918.4 297.1C918.4 296.6 918.4 296.2 918.4 295.7C918 270.7 897.4 250.6 872.4 251C847.9 251.4 828.1 271.2 827.7 295.7C827.7 296.2 827.7 296.7 827.7 297.1C803.4 303.4 788.9 328.1 795.2 352.4C801.5 376.7 826.2 391.2 850.5 384.9C859.3 382.6 867.1 377.8 873.1 371C889.7 389.8 918.3 391.6 937.1 375C955.9 358.4 957.7 329.8 941.1 311C935.1 304.2 927.2 299.3 918.4 297.1Z" fill="#006464"/>
<path id="Vector_93" d="M839.1 341C839.1 320.3 853.1 302.2 873.1 297.1C873.1 296.6 873.1 296.2 873.1 295.7C873.1 279.5 881.7 264.5 895.8 256.4C874.1 243.9 846.4 251.3 833.9 273C829.9 279.9 827.8 287.7 827.8 295.6C827.8 296.1 827.8 296.6 827.8 297C803.5 303.2 788.9 328 795.2 352.2C801.4 376.5 826.2 391.1 850.4 384.8C854.4 383.8 858.2 382.2 861.8 380.1C847.7 372.2 839.1 357.2 839.1 341Z" fill="#0F373C"/>
<path id="Vector_94" d="M807.9 341C807.9 320.3 821.9 302.2 842 297.1C842 296.6 842 296.2 842 295.7C842 273.4 858.2 254.4 880.2 250.9C855.5 247 832.3 263.8 828.4 288.5C828 290.9 827.8 293.3 827.8 295.7C827.8 296.2 827.8 296.7 827.8 297.1C803.5 303.2 788.8 327.9 794.9 352.2C800.7 375 822.9 389.6 846.1 385.9C824.1 382.3 807.9 363.3 807.9 341Z" fill="#001C1E"/>
<path id="Vector_95" d="M581.1 312.7C574.3 327.1 562.1 347.6 541.1 364.1C535.9 368.2 530.3 371.9 524.4 375.1" stroke="#301300" stroke-width="5" stroke-miterlimit="10"/>
<path id="Vector_96" d="M515.9 326.4C518.8 386.6 545.2 432.9 581.2 442.1C588.4 443.9 598.6 444.9 611.7 441.5" stroke="#301300" stroke-width="5" stroke-miterlimit="10"/>
<path id="Vector_97" d="M677.3 368.1C677.4 366.6 677.5 365.1 677.5 363.6C677.5 338.5 657.3 318.2 632.2 318.2C607.1 318.2 586.8 338.4 586.8 363.5C586.8 366.1 587 368.6 587.4 371.1C566.3 384.7 560.3 412.7 573.8 433.8C587 454.3 614 460.7 635 448.3C656.7 460.9 684.4 453.5 697 431.9C709.6 410.3 702.2 382.5 680.6 369.9C679.5 369.3 678.4 368.7 677.3 368.1Z" fill="#F5A03C"/>
<path id="Vector_98" d="M677.3 368.1C677.4 366.6 677.5 365.1 677.5 363.6C677.5 344 664.9 326.6 646.3 320.5V397.6H568.4C562.1 421.9 576.7 446.6 601 452.9C612.5 455.9 624.8 454.2 635.1 448.2C656.8 460.8 684.5 453.4 697.1 431.8C709.7 410.2 702.3 382.4 680.7 369.8C679.5 369.3 678.4 368.7 677.3 368.1Z" fill="#EA7500"/>
<path id="Vector_99" d="M861.7 409C861.7 371.4 831.3 341 793.7 341C756.1 341 725.7 371.4 725.7 409C725.7 446.6 756.1 477 793.7 477C793.6 493.7 799.8 509.9 811 522.4H912.4C937.5 494.4 935.1 451.4 907.1 426.4C894.7 415.2 878.5 409 861.7 409Z" fill="#006464"/>
<path id="Vector_100" d="M612.3 409H544.3C519.3 409.1 499 429.3 498.9 454.4H476.2C463.7 454.4 453.6 464.6 453.5 477.1C453.5 489.6 463.7 499.7 476.2 499.8H612.3H613.5C638.1 499.1 657.6 479 657.7 454.5C657.6 429.4 637.3 409.1 612.3 409Z" fill="#006464"/>
<path id="Vector_101" d="M895.9 522.6C895.9 478.7 860.4 443.1 816.5 443C794.7 443 773.9 451.9 758.9 467.6C769.4 473.9 781.4 477.2 793.7 477.2C793.7 493.9 799.8 510.1 811 522.6H895.9Z" fill="#0F373C"/>
<path id="Vector_102" d="M725.7 409C725.7 446.6 756.1 477 793.7 477H805V410.5C805 403.4 799.3 397.7 792.2 397.7H726.7C726 401.5 725.7 405.2 725.7 409Z" fill="#0F373C"/>
<path id="Vector_103" d="M771 182.3C770.6 157.3 790.6 136.6 815.7 136.3C840.8 136 861.4 155.9 861.7 181C861.7 181.4 861.7 181.9 861.7 182.3H771Z" fill="#0F373C"/>
<path id="Vector_104" d="M830.5 139.2C806.7 131.4 781.1 144.3 773.2 168.1C771.7 172.7 770.9 177.5 770.9 182.3H799.2C799.4 162.7 811.9 145.3 830.5 139.2Z" fill="#001C1E"/>
<path id="Vector_105" d="M555.6 499.8H612.3H613.5C638.1 499.1 657.6 479 657.7 454.5C657.6 429.5 637.4 409.2 612.3 409.1H578.3L555.6 445.9V499.8V499.8Z" fill="#0F373C"/>
<path id="Vector_106" d="M793.7 205C794.1 180 814.7 159.9 839.7 160.3C864.2 160.7 884 180.5 884.4 205H793.7Z" fill="#006464"/>
<path id="Vector_107" d="M839.1 159.6C835.3 159.6 831.5 160.1 827.8 161C847.8 166.2 861.8 184.2 861.8 204.9H884.5C884.4 179.9 864.1 159.6 839.1 159.6Z" fill="#009B97"/>
<path id="Vector_108" d="M702.9 295.7H657.6V522.5H702.9V295.7Z" fill="#E6A073"/>
<path id="Vector_109" d="M725.7 295.7H703V522.5H725.7V295.7Z" fill="#4C1F00"/>
<path id="Vector_110" d="M708.7 256H652V295.7H708.7V256Z" fill="#E6A073"/>
<path id="Vector_111" d="M731.4 256H708.7V295.7H731.4V256Z" fill="#4C1F00"/>
<path id="Vector_112" d="M714.3 256H669L688.8 119.9H694.5L714.3 256Z" fill="#4C1F00"/>
<path id="Vector_113" d="M725.6 295.7H657.6V304.2H725.6V295.7Z" fill="#4C1F00"/>
<path id="Vector_114" d="M660.5 287.2V267.3C660.5 265.7 661.8 264.5 663.3 264.5C664.9 264.5 666.1 265.8 666.1 267.3V287.2H660.5Z" fill="#4C1F00"/>
<path id="Vector_115" d="M671.8 287.2V267.3C671.8 265.7 673.1 264.5 674.6 264.5C676.2 264.5 677.4 265.8 677.4 267.3V287.2H671.8Z" fill="#4C1F00"/>
<path id="Vector_116" d="M683.2 287.2V267.3C683.2 265.7 684.5 264.5 686 264.5C687.6 264.5 688.8 265.8 688.8 267.3V287.2H683.2Z" fill="#4C1F00"/>
<path id="Vector_117" d="M694.5 287.2V267.3C694.5 265.7 695.8 264.5 697.3 264.5C698.9 264.5 700.1 265.8 700.1 267.3V287.2H694.5Z" fill="#4C1F00"/>
<path id="Vector_118" d="M700.2 281.5H660.5V287.2H700.2V281.5Z" fill="#4C1F00"/>
<path id="Vector_119" d="M663.3 247.5H652V258.8H663.3V247.5Z" fill="#E6A073"/>
<path id="Vector_120" d="M708.6 247.5H697.3V258.8H708.6V247.5Z" fill="#E6A073"/>
<path id="Vector_121" d="M731.3 247.5H720V258.8H731.3V247.5Z" fill="#4C1F00"/>
<path id="Vector_122" d="M657.6 213.5L652 247.5H663.3L657.6 213.5Z" fill="#4C1F00"/>
<path id="Vector_123" d="M703 341L657.6 304.2H703V341Z" fill="#C1754C"/>
<path id="Vector_124" d="M703 383.5L657.6 346.7H703V383.5Z" fill="#C1754C"/>
<path id="Vector_125" d="M703 426.1L657.6 389.2H703V426.1Z" fill="#C1754C"/>
<path id="Vector_126" d="M725.7 213.5L720 247.5H731.3L725.7 213.5Z" fill="#4C1F00"/>
<path id="Vector_127" d="M703 213.5L697.3 247.5H708.7L703 213.5Z" fill="#E6A073"/>
<path id="Vector_128" d="M705.8 341H657.6V346.7H705.8V341Z" fill="#4C1F00"/>
<path id="Vector_129" d="M705.8 440.2H657.6V445.9H705.8V440.2Z" fill="#4C1F00"/>
<path id="Vector_130" d="M705.8 383.5H657.6V389.2H705.8V383.5Z" fill="#4C1F00"/>
<path id="Vector_131" d="M793.7 445.9H566.9V522.4H793.7V445.9Z" fill="#E6A073"/>
<path id="Vector_132" d="M663.3 522.4V508.2C663.3 498.8 670.9 491.2 680.3 491.2C689.7 491.2 697.3 498.8 697.3 508.2V522.4H663.3Z" fill="#4C1F00"/>
<path id="Vector_133" d="M666.1 341V316.9C666.1 314.6 668 312.7 670.3 312.7C672.6 312.7 674.5 314.6 674.6 316.9V341H666.1Z" fill="#4C1F00"/>
<path id="Vector_134" d="M666.1 383.5V359.4C666.1 357.1 668 355.2 670.3 355.2C672.6 355.2 674.5 357.1 674.6 359.4V383.5H666.1Z" fill="#4C1F00"/>
<path id="Vector_135" d="M686 341V316.9C686 314.6 687.9 312.7 690.3 312.7C692.6 312.7 694.5 314.6 694.5 316.9V341H686Z" fill="#4C1F00"/>
<path id="Vector_136" d="M686 383.5V359.4C686 357.1 687.9 355.2 690.3 355.2C692.6 355.2 694.5 357.1 694.5 359.4V383.5H686Z" fill="#4C1F00"/>
<path id="Vector_137" d="M666.1 431.7V407.6C666.1 405.3 668 403.4 670.3 403.4C672.6 403.4 674.5 405.3 674.6 407.6V431.7H666.1Z" fill="#4C1F00"/>
<path id="Vector_138" d="M686 431.7V407.6C686 405.3 687.9 403.4 690.3 403.4C692.6 403.4 694.5 405.3 694.5 407.6V431.7H686Z" fill="#4C1F00"/>
<path id="Vector_139" d="M635 477.1V461.5C635 459.2 636.9 457.3 639.2 457.3C641.5 457.3 643.4 459.2 643.4 461.5V477.1H635Z" fill="#4C1F00"/>
<path id="Vector_140" d="M793.7 522.4V450.4C781.9 454.1 771.1 460.7 762.4 469.6H748.3C719.1 469.6 695.5 493.3 695.4 522.5L793.7 522.4Z" fill="#A35431"/>
<path id="Vector_141" d="M612.3 477.1V461.5C612.3 459.2 614.2 457.3 616.6 457.3C618.9 457.3 620.8 459.2 620.8 461.5V477.1H612.3Z" fill="#4C1F00"/>
<path id="Vector_142" d="M589.6 477.1V461.5C589.6 459.2 591.5 457.3 593.8 457.3C596.1 457.3 598 459.2 598 461.5V477.1H589.6Z" fill="#4C1F00"/>
<path id="Vector_143" d="M635 511.1V495.5C635 493.2 636.9 491.3 639.2 491.3C641.5 491.3 643.4 493.2 643.4 495.5V511.1H635Z" fill="#4C1F00"/>
<path id="Vector_144" d="M612.3 511.1V495.5C612.3 493.2 614.2 491.3 616.6 491.3C618.9 491.3 620.8 493.2 620.8 495.5V511.1H612.3Z" fill="#4C1F00"/>
<path id="Vector_145" d="M589.6 511.1V495.5C589.6 493.2 591.5 491.3 593.8 491.3C596.1 491.3 598 493.2 598 495.5V511.1H589.6Z" fill="#4C1F00"/>
<path id="Vector_146" d="M762.5 477.1V461.5C762.5 459.2 764.4 457.3 766.7 457.3C769 457.3 770.9 459.2 770.9 461.5V477.1H762.5Z" fill="#4C1F00"/>
<path id="Vector_147" d="M739.8 477.1V461.5C739.8 459.2 741.7 457.3 744 457.3C746.3 457.3 748.2 459.2 748.3 461.5V477.1H739.8Z" fill="#4C1F00"/>
<path id="Vector_148" d="M717.2 477.1V461.5C717.2 459.2 719.1 457.3 721.4 457.3C723.7 457.3 725.6 459.2 725.6 461.5V477.1H717.2Z" fill="#4C1F00"/>
<path id="Vector_149" d="M686 477.1V461.5C686 459.2 687.9 457.3 690.3 457.3C692.6 457.3 694.5 459.2 694.5 461.5V477.1H686Z" fill="#4C1F00"/>
<path id="Vector_150" d="M666.1 477.1V461.5C666.1 459.2 668 457.3 670.3 457.3C672.6 457.3 674.5 459.2 674.6 461.5V477.1H666.1Z" fill="#4C1F00"/>
<path id="Vector_151" d="M762.5 511.1V495.5C762.5 493.2 764.4 491.3 766.7 491.3C769 491.3 770.9 493.2 770.9 495.5V511.1H762.5Z" fill="#4C1F00"/>
<path id="Vector_152" d="M739.8 511.1V495.5C739.8 493.2 741.7 491.3 744 491.3C746.3 491.3 748.2 493.2 748.3 495.5V511.1H739.8Z" fill="#4C1F00"/>
<path id="Vector_153" d="M717.2 511.1V495.5C717.2 493.2 719.1 491.3 721.4 491.3C723.7 491.3 725.6 493.2 725.6 495.5V511.1H717.2Z" fill="#4C1F00"/>
<path id="Vector_154" d="M793.7 409H725.7L703 445.9H793.7V409Z" fill="#301300"/>
<path id="Vector_155" d="M657.6 409H589.6L566.9 445.9H657.6V409Z" fill="#301300"/>
<path id="Vector_156" d="M861.7 522.4C861.6 497.4 841.4 477.1 816.4 477H748.4C723.4 477.1 703.1 497.3 703 522.4H861.7Z" fill="#006464"/>
<path id="Vector_157" d="M589.6 522.4C589.5 497.4 569.3 477.1 544.2 477H453.5C428.5 477.1 408.2 497.3 408.1 522.4H589.6Z" fill="#006464"/>
<path id="Vector_158" d="M544.2 477.1H527.2C552.2 477.2 572.5 497.4 572.6 522.5H589.6C589.5 497.4 569.3 477.2 544.2 477.1Z" fill="#009B97"/>
<path id="Vector_159" d="M521.6 454.4C521.7 429.4 541.9 409.1 567 409H544.3C519.3 409.1 499 429.3 498.9 454.4H521.6Z" fill="#0F373C"/>
<path id="Vector_160" d="M476.2 477.1C476.2 464.6 486.4 454.5 498.9 454.4H476.2C463.7 454.4 453.6 464.6 453.5 477.1C428.5 477.2 408.2 497.4 408.1 522.5H430.8C430.9 497.4 451.2 477.2 476.2 477.1Z" fill="#0F373C"/>
<path id="Vector_161" d="M805 342C801.3 341.4 797.5 341 793.7 341C756.1 341 725.7 371.4 725.7 409H748.4C748.4 375.8 772.3 347.5 805 342Z" fill="#0F373C"/>
<path id="Vector_162" d="M476.2 522.4C476.2 503.6 491.5 488.4 510.2 488.4C529 488.4 544.2 503.6 544.2 522.4H476.2Z" fill="#0F373C"/>
<path id="Vector_163" d="M510.2 488.4C507.8 488.4 505.4 488.6 503.1 489.1C518.8 492.4 530 506.3 530 522.4H544.2C544.3 503.7 529 488.4 510.2 488.4C510.2 488.4 510.3 488.4 510.2 488.4Z" fill="#009B97"/>
<path id="Vector_164" d="M466.3 468.6H494.7C497 468.6 498.9 470.5 498.9 472.8C498.9 475.1 497 477 494.7 477H466.3C464 477 462.1 475.1 462.1 472.8C462 470.5 464 468.6 466.3 468.6Z" fill="#0F373C"/>
<path id="Vector_165" d="M511.7 440.2H537.2C541.1 440.2 544.3 443.4 544.3 447.3C544.3 451.2 541.1 454.4 537.2 454.4H511.7C507.8 454.4 504.6 451.2 504.6 447.3C504.6 443.4 507.7 440.2 511.7 440.2Z" fill="#0F373C"/>
<path id="Vector_166" d="M739.8 522.4H861.7C861.6 497.4 841.4 477.1 816.4 477H754.8C745.1 490.2 739.8 506.1 739.8 522.4Z" fill="#0F373C"/>
<path id="Vector_167" d="M748.3 522.4C748.3 484.8 778.8 454.4 816.3 454.4C853.9 454.4 884.3 484.9 884.3 522.4H748.3Z" fill="#FF8764"/>
<path id="Vector_168" d="M317.5 522.4C317.5 484.8 348 454.4 385.5 454.4C423 454.4 453.5 484.9 453.5 522.4H317.5Z" fill="#F5A03C"/>
<path id="Vector_169" d="M408.2 458.3C372.8 445.8 333.9 464.3 321.4 499.7C318.8 507 317.5 514.7 317.5 522.5H362.9C362.8 493.6 381 467.9 408.2 458.3Z" fill="#EA7500"/>
<path id="Vector_170" d="M827.7 455.4C790.7 449.1 755.6 474 749.3 511.1C748.7 514.9 748.3 518.7 748.3 522.5H771C771 489.2 795 460.9 827.7 455.4Z" fill="#D25A3C"/>
<path id="Vector_171" d="M521.6 341C521.2 316 541.2 295.3 566.3 295C591.4 294.7 612 314.6 612.3 339.7C612.3 340.1 612.3 340.6 612.3 341H521.6Z" fill="#D25A3C"/>
<path id="Vector_172" d="M574.4 340.4C574.4 324.3 569.2 308.6 559.6 295.6C537.6 299.2 521.5 318.1 521.5 340.4H574.4Z" fill="#BF3116"/>
<path id="Vector_173" d="M430.9 341C430.9 303.4 461.4 273 498.9 273C536.4 273 566.9 303.5 566.9 341H430.9Z" fill="#FF8764"/>
<path id="Vector_174" d="M510.2 273.9C473.2 267.6 438.1 292.5 431.8 329.6C431.2 333.4 430.8 337.2 430.8 341H453.5C453.5 307.8 477.5 279.5 510.2 273.9Z" fill="#D25A3C"/>
<path id="Vector_175" d="M722.8 477.1H566.9V482.8H722.8V477.1Z" fill="#A35431"/>
<path id="Vector_176" d="M884.4 522.4C884.4 509.8 881 497.5 874.4 486.8C861.9 494.3 854.3 507.8 854.3 522.4H884.4Z" fill="#BF3116"/>
<path id="Vector_177" d="M612.3 397.7H646.3V363.7C646.3 382.5 631.1 397.7 612.3 397.7Z" fill="#EA7500"/>
<path id="Vector_178" d="M691.7 119.9H688.8L669 256H691.7V119.9Z" fill="#994C29"/>
<path id="Vector_179" d="M670.2 247.5L669 256H691.7V247.5H670.2Z" fill="#4C1F00"/>
<path id="Vector_180" d="M805 431.7C823.778 431.7 839 416.478 839 397.7C839 378.922 823.778 363.7 805 363.7C786.222 363.7 771 378.922 771 397.7C771 416.478 786.222 431.7 805 431.7Z" fill="#006464"/>
<path id="Vector_181" d="M861.7 409C861.7 371.4 831.3 341 793.7 341C789.9 341 786.1 341.4 782.4 342C815.1 347.5 839.1 375.9 839.1 409.1C876.7 409.1 907.1 439.5 907.1 477.1C907.1 493.9 900.9 510 889.7 522.5H912.4C937.5 494.5 935.1 451.5 907.1 426.5C894.7 415.3 878.5 409.1 861.7 409Z" fill="#009B97"/>
<path id="Vector_182" d="M861.7 522.4C861.7 503.6 876.9 488.4 895.7 488.4C914.5 488.4 929.7 503.6 929.7 522.4H861.7Z" fill="#FF8764"/>
<path id="Vector_183" d="M765.4 383.5C768.5 383.5 771.1 386 771.1 389.2V403.4C771.1 406.5 768.6 409.1 765.4 409.1C762.3 409.1 759.7 406.6 759.7 403.4V389.2C759.7 386.1 762.2 383.5 765.4 383.5Z" fill="#0F373C"/>
<path id="Vector_184" d="M807.9 431.7H822C828.3 431.7 833.3 436.8 833.3 443C833.3 449.3 828.2 454.3 822 454.3H807.8C801.5 454.3 796.5 449.2 796.5 443C796.5 436.8 801.6 431.7 807.9 431.7Z" fill="#0F373C"/>
<path id="Vector_185" d="M907.1 386.3C932.118 386.3 952.4 366.019 952.4 341C952.4 315.982 932.118 295.7 907.1 295.7C882.081 295.7 861.8 315.982 861.8 341C861.8 366.019 882.081 386.3 907.1 386.3Z" fill="#006464"/>
<path id="Vector_186" d="M922.3 298.3C936.5 320.8 929.8 350.5 907.4 364.7C897.4 371.1 885.3 373.5 873.6 371.5C890.5 390 919.1 391.4 937.7 374.5C956.3 357.6 957.6 329 940.7 310.4C935.6 305 929.3 300.8 922.3 298.3Z" fill="#009B97"/>
<path id="Vector_187" d="M873.1 394.9C891.878 394.9 907.1 379.678 907.1 360.9C907.1 342.122 891.878 326.9 873.1 326.9C854.322 326.9 839.1 342.122 839.1 360.9C839.1 379.678 854.322 394.9 873.1 394.9Z" fill="#006464"/>
<path id="Vector_188" d="M873.1 326.8C871.2 326.8 869.3 327 867.4 327.3C885.9 330.4 898.4 347.9 895.3 366.4C892.9 380.7 881.7 391.9 867.4 394.3C885.9 397.3 903.4 384.8 906.5 366.3C909.6 347.8 897 330.3 878.5 327.2C876.7 327 874.9 326.8 873.1 326.8Z" fill="#009B97"/>
<path id="Vector_189" d="M918.7 360.9C918.7 370.7 914.5 380 907.2 386.4C906.4 386.4 905.7 386.4 904.9 386.3H904.8L904.1 386.2C903.6 386.2 903 386.1 902.5 386.1H902.3C902 386.1 901.8 386 901.5 386L900.1 385.8H899.9L899.2 385.7C898.7 385.6 898.3 385.5 897.8 385.4H897.5L897 385.3C910.5 372.2 910.8 350.7 897.7 337.2C892.6 332 886.1 328.5 878.9 327.3C897.4 324.2 915 336.6 918.1 355.1C918.5 357.1 918.7 359 918.7 360.9Z" fill="#0F373C"/>
<path id="Vector_190" d="M759.4 151.1C772.7 171.3 788.3 202.5 790.6 241.8C791 248.4 791 255 790.6 261.7" stroke="#301300" stroke-width="5" stroke-miterlimit="10"/>
<path id="Vector_191" d="M762.5 247.5C771.7 263.4 778.4 280.6 782.3 298.5C783.6 304.4 784.5 310.1 785.1 315.5" stroke="#301300" stroke-width="5" stroke-miterlimit="10"/>
<path id="Vector_192" d="M603.8 522.4C603.8 503.6 619 488.4 637.8 488.4C656.6 488.4 671.8 503.6 671.8 522.4H603.8Z" fill="#006464"/>
<path id="Vector_193" d="M644.9 489.2C626.5 485.3 608.5 497 604.5 515.4C604 517.7 603.7 520.1 603.8 522.5H618C618 506.4 629.2 492.5 644.9 489.2Z" fill="#0F373C"/>
<path id="Vector_194" d="M737 522.4H830.5C833.6 522.4 836.2 524.9 836.2 528.1C836.2 531.2 833.7 533.8 830.5 533.8H737C733.9 533.8 731.3 531.3 731.3 528.1C731.3 525 733.9 522.4 737 522.4Z" fill="#00998E"/>
<path id="Vector_195" d="M610.9 513.9H642C644.3 513.9 646.2 515.8 646.2 518.1C646.2 520.4 644.3 522.3 642 522.3H610.8C608.5 522.3 606.6 520.4 606.6 518.1C606.6 515.8 608.5 513.9 610.9 513.9Z" fill="#0F373C"/>
<path id="Vector_196" d="M731.3 511.1H739.8C742.9 511.1 745.5 513.6 745.5 516.8C745.5 519.9 743 522.5 739.8 522.5H731.3C728.2 522.5 725.6 520 725.6 516.8C725.7 513.6 728.2 511.1 731.3 511.1Z" fill="#0F373C"/>
<path id="Vector_197" d="M725.7 182.3C725.3 157.3 745.3 136.6 770.4 136.3C795.5 136 816.1 155.9 816.4 181C816.4 181.4 816.4 181.9 816.4 182.3H725.7Z" fill="#006464"/>
<path id="Vector_198" d="M778.1 137.5C775.8 137.1 773.4 136.9 771 136.9C746 136.9 725.7 157.2 725.7 182.3H739.9C739.8 160 756.1 141 778.1 137.5Z" fill="#0F373C"/>
<path id="Vector_199" d="M844.7 160.1C842.4 159.7 840 159.6 837.6 159.5C812.6 159.5 792.2 179.8 792.2 204.8C792.2 204.8 792.2 204.8 792.2 204.9H806.4C806.4 182.7 822.7 163.6 844.7 160.1Z" fill="#0F373C"/>
<path id="Vector_200" d="M771 136.9C767.2 136.9 763.4 137.4 759.7 138.3C779.7 143.5 793.7 161.5 793.7 182.2H816.4C816.3 157.2 796 136.9 771 136.9Z" fill="#009B97"/>
<path id="Vector_201" d="M748.3 273C748.3 254.2 763.5 239 782.3 239C801.1 239 816.3 254.2 816.3 273H748.3Z" fill="#0F373C"/>
<path id="Vector_202" d="M793.7 240.9C776 234.6 756.6 243.9 750.3 261.6C749 265.3 748.3 269.1 748.3 273H771C771 258.6 780.1 245.7 793.7 240.9Z" fill="#001C1E"/>
<path id="Vector_203" d="M632.1 241.8C646.3 278.6 629.3 295.7 643.4 360.9" stroke="#301300" stroke-width="5" stroke-miterlimit="10"/>
<path id="Vector_204" d="M762.5 522.4C762.5 503.6 777.7 488.4 796.5 488.4C815.3 488.4 830.5 503.6 830.5 522.4" fill="#D25A3C"/>
<path id="Vector_205" d="M654.8 409C648.6 370.7 634.6 316.2 600.9 267.2C594.8 258.3 588.2 249.8 581.1 241.8" stroke="#301300" stroke-width="5" stroke-miterlimit="10"/>
<path id="Vector_206" d="M558.4 247.5C563.8 260.7 577.3 287.7 606.6 304.2C612.9 307.7 619.6 310.6 626.4 312.7" stroke="#301300" stroke-width="5" stroke-miterlimit="10"/>
<path id="Vector_207" d="M657.6 216.3C657.6 201.3 647.8 188.1 633.5 183.7C628.1 165.7 609.1 155.5 591.1 161C580.2 164.3 571.6 172.8 568.4 183.7C557.5 187 549 195.5 545.7 206.4C527.7 211.9 517.7 230.9 523.2 248.9C528.7 266.9 547.7 276.9 565.7 271.4C570.4 270 574.7 267.5 578.3 264.3C592.3 276.8 613.8 275.7 626.3 261.7C629.6 258 632.1 253.6 633.5 248.9C647.8 244.5 657.6 231.3 657.6 216.3Z" fill="#006464"/>
<path id="Vector_208" d="M633.5 183.7C628.2 166.3 610.1 156.1 592.4 160.6C603.9 163.6 613 172.3 616.4 183.7C634.4 189.1 644.6 208.1 639.1 226.1C635.8 237 627.3 245.6 616.4 248.8C613 260.1 603.9 268.9 592.4 271.9C595.2 272.6 598 273 600.9 273C615.9 273 629.1 263.2 633.5 248.9C651.5 243.5 661.7 224.5 656.2 206.5C652.9 195.6 644.4 187 633.5 183.7Z" fill="#009B97"/>
<path id="Vector_209" d="M544.2 239C544.2 224 554 210.8 568.3 206.4C571.6 195.5 580.1 187 591 183.7C594.1 173.4 602 165.1 612.2 161.5C594.5 155.2 575.1 164.5 568.8 182.2C568.6 182.7 568.5 183.2 568.3 183.7C557.4 187 548.9 195.5 545.6 206.4C527.6 211.6 517.2 230.5 522.4 248.5C527.6 266.5 546.5 276.9 564.5 271.7C565.3 271.5 566 271.2 566.8 271C553.4 266.2 544.3 253.4 544.2 239Z" fill="#0F373C"/>
<path id="Vector_210" d="M600.9 273C619.678 273 634.9 257.778 634.9 239C634.9 220.222 619.678 205 600.9 205C582.122 205 566.9 220.222 566.9 239C566.9 257.778 582.122 273 600.9 273Z" fill="#006464"/>
<path id="Vector_211" d="M586.8 239C586.8 224 596.6 210.8 610.9 206.5C592.9 201.1 573.9 211.2 568.5 229.2C563.1 247.2 573.2 266.2 591.2 271.6C597.6 273.5 604.5 273.5 610.9 271.6C596.5 267.2 586.8 254 586.8 239Z" fill="#0F373C"/>
<path id="Vector_212" d="M1051.7 477.1C1046.3 477.1 1041 478.4 1036.2 480.8C1025.7 458 998.8 448.1 976 458.5C966.2 463 958.3 470.9 953.7 480.8C937 472.3 916.5 478.9 908 495.7C899.5 512.4 906.1 532.9 922.9 541.4C927.7 543.8 932.9 545.1 938.3 545.1H1051.7C1070.5 545.1 1085.7 529.9 1085.7 511.1C1085.7 492.3 1070.4 477.1 1051.7 477.1Z" fill="#0F373C"/>
<path id="Vector_213" d="M1051.7 477.1C1046.3 477.1 1041 478.4 1036.2 480.8C1028.8 464.7 1012.7 454.4 995 454.4V545.1H1051.7C1070.5 545.1 1085.7 529.9 1085.7 511.1C1085.7 492.3 1070.5 477.1 1051.7 477.1Z" fill="#006464"/>
<path id="Vector_214" d="M1051.7 477.1C1048.3 477.1 1045 477.6 1041.8 478.6C1059.8 484 1070 503 1064.5 521C1060.2 535.4 1046.9 545.2 1031.8 545.2H1051.6C1070.4 545.2 1085.6 530 1085.6 511.2C1085.6 492.3 1070.4 477.1 1051.7 477.1Z" fill="#009B97"/>
<path id="Vector_215" d="M995 481.3V545.1H938.3C932.8 545.1 927.4 543.8 922.6 541.3C929.2 506.5 959.6 481.3 995 481.3Z" fill="#001C1E"/>
<path id="Vector_216" d="M941.1 545.1C941.1 515.4 965.2 491.2 994.9 491.2C1024.6 491.2 1048.8 515.3 1048.8 545V545.1H941.1Z" fill="#006464"/>
<path id="Vector_217" d="M995 491.2C991.2 491.2 987.4 491.6 983.7 492.4C1008.5 497.7 1026.2 519.7 1026.2 545H1048.9C1048.9 515.4 1024.7 491.2 995 491.2Z" fill="#009B97"/>
<path id="Vector_218" d="M272.1 522.4C272.1 497.4 292.4 477 317.5 477C342.6 477 362.9 497.3 362.9 522.4H272.1Z" fill="#F5A03C"/>
<path id="Vector_219" d="M328.8 478.5C304.5 472.3 279.8 486.9 273.5 511.2C272.6 514.9 272.1 518.7 272.1 522.5H294.8C294.8 501.7 308.8 483.7 328.8 478.5Z" fill="#EA7500"/>
<path id="Vector_220" d="M408.2 545.1C408.6 520.1 429.2 500 454.2 500.4C478.7 500.8 498.5 520.6 498.9 545.1H408.2Z" fill="#006464"/>
<path id="Vector_221" d="M453.5 499.8C457.8 499.8 462.1 500.4 466.3 501.6C447 507.3 433.7 525 433.7 545.1H408.2C408.2 520.1 428.5 499.8 453.5 499.8Z" fill="#0F373C"/>
<path id="Vector_222" d="M678.9 159.6H704.4C706.7 159.6 708.6 161.5 708.6 163.8C708.6 166.1 706.7 168 704.4 168H678.9C676.6 168 674.7 166.1 674.7 163.8C674.7 161.5 676.6 159.6 678.9 159.6Z" fill="#994C29"/>
<path id="Vector_223" d="M704.4 159.6H693.1C695.4 159.6 697.3 161.5 697.3 163.8C697.3 166.1 695.4 168 693.1 168H704.4C706.7 168 708.6 166.1 708.6 163.7C708.7 161.5 706.8 159.6 704.4 159.6Z" fill="#4C1F00"/>
<path id="Vector_224" d="M1206.1 487.3C1206.5 484.5 1206.6 481.8 1206.7 479C1206.7 443.5 1177.9 414.8 1142.5 414.8C1107.1 414.8 1078.3 443.6 1078.3 479C1078.3 481.8 1078.5 484.5 1078.9 487.3C1047.9 504.5 1036.7 543.6 1053.9 574.7C1071.1 605.7 1110.2 616.9 1141.3 599.7C1141.7 599.5 1142.2 599.2 1142.6 599C1173.2 616.9 1212.6 606.7 1230.5 576.1C1248.4 545.5 1238.2 506.1 1207.6 488.2C1206.9 487.8 1206.5 487.5 1206.1 487.3Z" fill="#006464"/>
<path id="Vector_225" d="M1106.2 543.2C1106.2 520 1118.7 498.6 1138.9 487.2C1138.5 484.4 1138.4 481.7 1138.3 478.9C1138.3 455.1 1151.4 433.3 1172.4 422.1C1141 405.5 1102.2 417.4 1085.5 448.8C1080.6 458.1 1078 468.5 1078 479C1078 481.8 1078.2 484.5 1078.6 487.3C1047.5 504.3 1036.1 543.4 1053.1 574.5C1070.1 605.6 1109.2 617 1140.3 600C1119.3 588.8 1106.2 567 1106.2 543.2Z" fill="#0F373C"/>
<path id="Vector_226" d="M1206.1 487.3C1206.5 484.5 1206.6 481.8 1206.7 479C1206.7 455.2 1193.6 433.4 1172.6 422.2C1171.5 421.6 1170.5 421.1 1169.4 420.6L1168.9 420.4C1167.9 420 1167 419.5 1166 419.2L1165.5 419C1164.4 418.6 1163.3 418.2 1162.2 417.8H1162C1160.8 417.4 1159.6 417.1 1158.3 416.8H1158.1C1157 416.5 1155.9 416.3 1154.8 416.1L1153.8 415.9C1152.9 415.8 1152.1 415.6 1151.2 415.5L1150 415.3C1149.1 415.2 1148.3 415.1 1147.4 415.1L1146.3 415C1145.1 414.9 1143.9 414.9 1142.6 414.9C1137.2 414.9 1131.8 415.6 1126.5 416.9C1127.7 417.2 1128.8 417.5 1129.9 417.9H1130.1C1131.2 418.3 1132.3 418.7 1133.4 419.1L1134 419.3C1135 419.7 1136 420.1 1136.9 420.5L1137.4 420.7C1138.5 421.2 1139.6 421.7 1140.6 422.3C1161.6 433.5 1174.7 455.3 1174.7 479.1C1174.7 481.9 1174.5 484.6 1174.1 487.4C1205 504.8 1215.9 544 1198.5 574.9C1189.9 590.1 1175.6 601.1 1158.7 605.5C1193.1 614.3 1228.1 593.6 1236.9 559.3C1243.9 531.1 1231.4 501.6 1206.1 487.3Z" fill="#009B97"/>
<path id="Vector_227" d="M1105.3 598.3C1105 598.1 1104.6 597.9 1104.3 597.7C1101.4 595.9 1098.6 593.8 1096.1 591.6C1095.4 591 1094.8 590.4 1094.1 589.8C1093 588.8 1091.9 587.7 1090.9 586.5C1067 560.3 1068.8 519.7 1095 495.8C1098.6 492.5 1102.5 489.7 1106.8 487.3C1106.4 484.5 1106.3 481.8 1106.2 479C1106.2 448.9 1127 422.9 1156.4 416.3C1155.8 416.2 1155.2 416 1154.7 415.9L1153.7 415.7C1152.8 415.6 1152 415.4 1151.1 415.3L1149.9 415.1C1149 415 1148.2 414.9 1147.3 414.9L1146.2 414.8C1145 414.7 1143.8 414.7 1142.5 414.7C1107 414.7 1078.3 443.5 1078.3 479C1078.3 481.8 1078.5 484.5 1078.9 487.3C1048 504.7 1037.1 543.9 1054.5 574.8C1056.9 579 1059.7 583 1063 586.6C1064 587.7 1065.1 588.8 1066.2 589.9C1066.8 590.5 1067.5 591.1 1068.2 591.7C1070.8 594 1073.5 596 1076.4 597.8C1076.7 598 1077.1 598.2 1077.4 598.4C1087.4 604.4 1098.8 607.6 1110.5 607.6H1110.6C1112 607.6 1113.3 607.6 1114.7 607.5C1115.3 607.5 1115.9 607.4 1116.5 607.3C1117.1 607.2 1118 607.2 1118.7 607.1C1119.4 607 1120.3 606.9 1121.1 606.7C1121.6 606.6 1122.2 606.5 1122.7 606.4C1123.2 606.3 1123.9 606.1 1124.5 606C1117.6 604.4 1111.2 601.9 1105.3 598.3Z" fill="#001C1E"/>
<path id="Vector_228" d="M453.5 667H0V468.9C2.8 468.7 5.7 468.6 8.5 468.6H195.6C262.8 468.8 317.3 523.3 317.5 590.5H377C419.2 590.6 453.4 624.8 453.5 667Z" fill="#001819"/>
<path id="Vector_229" d="M430.9 227.6C430.3 227.6 429.6 227.6 429 227.7C422.7 210 403.2 200.8 385.6 207.1C367.9 213.4 358.7 232.9 365 250.5C366.5 254.6 368.7 258.4 371.6 261.7C359.1 275.7 360.2 297.2 374.2 309.7C384.8 319.2 400.1 321.1 412.7 314.5C435.6 324.6 462.4 314.2 472.5 291.3C482.6 268.4 472.2 241.6 449.3 231.5C443.4 229 437.2 227.7 430.9 227.6Z" fill="#006464"/>
<path id="Vector_230" d="M394 284.3C394 275.9 397.1 267.9 402.7 261.6C390.2 247.6 391.4 226.1 405.3 213.6C407.5 211.7 409.8 210 412.4 208.7C395.7 200.1 375.2 206.6 366.6 223.2C360.1 235.8 362 251.1 371.5 261.6C359 275.6 360.1 297.1 374.1 309.6C384.6 319 399.9 321 412.4 314.5C401.1 308.7 394 297.1 394 284.3Z" fill="#0F373C"/>
<path id="Vector_231" d="M406.2 227.6C406.8 227.7 407.5 227.6 408.1 227.6H406.2Z" fill="#009B97"/>
<path id="Vector_232" d="M430.9 227.6C430.3 227.6 429.6 227.6 429 227.7V227.6H408.2C433.3 227.6 453.6 247.9 453.6 273C453.6 293.7 439.6 311.7 419.6 316.9C443.9 323.1 468.6 308.5 474.8 284.3C481 260 466.4 235.3 442.2 229.1C438.5 228.1 434.7 227.6 430.9 227.6Z" fill="#009B97"/>
<path id="Vector_233" d="M110.6 511.1C134.072 511.1 153.1 492.072 153.1 468.6C153.1 445.128 134.072 426.1 110.6 426.1C87.1279 426.1 68.1 445.128 68.1 468.6C68.1 492.072 87.1279 511.1 110.6 511.1Z" fill="#001819"/>
<path id="Vector_234" d="M42.5 516.2C65.9721 516.2 85 497.172 85 473.7C85 450.228 65.9721 431.2 42.5 431.2C19.0279 431.2 0 450.228 0 473.7C0 497.172 19.0279 516.2 42.5 516.2Z" fill="#001819"/>
<path id="Vector_235" d="M161.6 528.1C185.072 528.1 204.1 509.072 204.1 485.6C204.1 462.128 185.072 443.1 161.6 443.1C138.128 443.1 119.1 462.128 119.1 485.6C119.1 509.072 138.128 528.1 161.6 528.1Z" fill="#001819"/>
<path id="Vector_236" d="M371.9 571C342.4 602.1 311.5 620.5 302.8 612.3C294.1 604.1 310.9 572.1 340.4 541.1C369.9 510.1 409.5 499.8 409.5 499.8C409.5 499.8 401.4 539.9 371.9 571Z" fill="#001819"/>
<path id="Vector_237" d="M348.9 550C334.3 590.2 313.3 619.5 302 615.5C290.7 611.5 293.4 575.5 308 535.2C322.6 494.9 354.9 469.7 354.9 469.7C354.9 469.7 363.5 509.8 348.9 550Z" fill="#001819"/>
<path id="Vector_238" d="M734.2 539.4C734.2 536.3 736.7 533.7 739.9 533.7H589.6C592.7 533.7 595.3 536.2 595.3 539.4C595.3 542.5 592.8 545.1 589.6 545.1H739.8C736.7 545.1 734.2 542.6 734.2 539.4Z" fill="#00998E"/>
<path id="Vector_239" d="M765.3 545.1H575.4C572.3 545.1 569.7 547.6 569.7 550.8C569.7 553.9 572.2 556.5 575.4 556.5H765.3C768.4 556.5 771 554 771 550.8C771 547.6 768.5 545.1 765.3 545.1Z" fill="#00998E"/>
<path id="Vector_240" d="M739.8 567.8H708.6C705.5 567.8 702.9 565.3 702.9 562.1C702.9 559 705.4 556.4 708.6 556.4H629.2C632.3 556.4 634.9 558.9 634.9 562.1C634.9 565.2 632.4 567.8 629.2 567.8H615C611.9 567.8 609.3 570.3 609.3 573.5C609.3 576.6 611.8 579.2 615 579.2H629.2C632.3 579.1 635 581.5 635.1 584.6C635.2 587.7 632.8 590.4 629.7 590.5C629.5 590.5 629.4 590.5 629.2 590.5H686C682.9 590.4 680.4 587.7 680.6 584.6C680.7 581.7 683.1 579.3 686 579.2H739.9C743 579.2 745.6 576.7 745.6 573.5C745.5 570.3 743 567.8 739.8 567.8Z" fill="#00998E"/>
<path id="Vector_241" d="M697.3 590.5H595.3C592.2 590.5 589.6 593 589.6 596.2C589.6 599.3 592.1 601.9 595.3 601.9H697.3C700.4 601.9 703 599.4 703 596.2C703 593 700.5 590.5 697.3 590.5Z" fill="#00998E"/>
<path id="Vector_242" d="M669 613.1H660.5C657.4 613.1 654.8 610.6 654.8 607.4C654.8 604.3 657.3 601.7 660.5 601.7H603.8C606.9 601.7 609.5 604.2 609.5 607.4C609.5 610.5 607 613.1 603.8 613.1H589.6C586.5 613.1 583.9 615.6 583.9 618.8C583.9 621.9 586.4 624.5 589.6 624.5H669C672.1 624.5 674.7 622 674.7 618.8C674.7 615.7 672.1 613.1 669 613.1Z" fill="#00998E"/>
<path id="Vector_243" d="M566.9 567.8H589.6C592.7 567.8 595.3 570.3 595.3 573.5C595.3 576.6 592.8 579.2 589.6 579.2H566.9C563.8 579.2 561.2 576.7 561.2 573.5C561.3 570.3 563.8 567.8 566.9 567.8Z" fill="#00998E"/>
<path id="Vector_244" d="M765.4 567.8H782.4C785.5 567.8 788.1 570.3 788.1 573.5C788.1 576.6 785.6 579.2 782.4 579.2H765.4C762.3 579.2 759.7 576.7 759.7 573.5C759.7 570.3 762.2 567.8 765.4 567.8Z" fill="#00998E"/>
<path id="Vector_245" d="M799.4 545.1H833.4C836.5 545.1 839.1 547.6 839.1 550.8C839.1 553.9 836.6 556.5 833.4 556.5H799.4C796.3 556.5 793.7 554 793.7 550.8C793.7 547.6 796.2 545.1 799.4 545.1Z" fill="#00998E"/>
<path id="Vector_246" d="M671.8 630.2H688.8C691.9 630.2 694.5 632.7 694.5 635.9C694.5 639 692 641.6 688.8 641.6H671.8C668.7 641.6 666.1 639.1 666.1 635.9C666.1 632.7 668.7 630.2 671.8 630.2Z" fill="#00998E"/>
<path id="Vector_247" d="M481.9 522.4H748.3C754.6 522.4 759.6 527.5 759.6 533.7C759.6 540 754.5 545 748.3 545H481.9C475.6 545 470.6 539.9 470.6 533.7C470.5 527.5 475.6 522.4 481.9 522.4Z" fill="#006464"/>
<path id="Vector_248" d="M510.3 0H487.6V667H510.3V0Z" fill="#001819"/>
<path id="Vector_249" d="M379.8 0C368.5 174.2 459.2 128.5 496.1 256" stroke="#001819" stroke-width="20" stroke-miterlimit="10"/>
<path id="Vector_250" d="M1017.6 318.3L1034.7 341L1014.8 326.8L1009.1 338.2L1026.1 363.7L1003.5 343.9V321.2L1017.6 318.3Z" fill="#FAEBDC"/>
<g id="jakis-ptak">
<path id="Vector_251" d="M958.9 185C958.9 181.4 961.8 178.4 965.5 178.4H978.7C982.3 178.4 985.3 181.3 985.3 185" fill="#F4A03E"/>
<g id="Group">
<path id="Vector_252" d="M945.7 224.5C934.8 224.4 926.1 215.6 926 204.8V152.2C926 141.3 934.8 132.5 945.7 132.5H952.3V224.6H945.7V224.5Z" fill="#A8B28E"/>
<path id="Vector_253" d="M952.3 217.9C941.4 217.9 932.6 209.1 932.6 198.2V158.8C932.6 147.9 941.4 139.1 952.3 139.1" fill="#757B68"/>
<path id="Vector_254" d="M926 188.3C931.4 188.3 935.9 192.7 935.9 198.2H939.2V185H926V188.3Z" fill="#1C2600"/>
<path id="Vector_255" d="M952.3 214.6C943.2 214.6 935.9 207.2 935.9 198.2V158.8C935.9 149.7 943.3 142.4 952.3 142.4" fill="#1C2600"/>
<path id="Vector_256" d="M972 171.9H965.4C958.1 171.9 952.2 166 952.2 158.8V145.6C944.9 145.6 939.1 151.5 939 158.7V160.3C939 166.7 933.9 171.8 927.5 171.8H926L899.7 158.7C890.9 170.4 890.9 186.5 899.7 198.1L926 185H927.7C934.1 185 939.2 190.1 939.2 196.5V198.1C939.2 205.4 945.1 211.2 952.4 211.2V198.1C952.4 190.8 958.2 184.9 965.5 184.9H972.1C972.4 184.9 972.6 184.9 972.9 184.9H978.7V178.3C978.5 174.8 975.6 171.9 972 171.9Z" fill="#757B68"/>
<path id="Vector_257" d="M908.8 191.6C909 192.2 909.3 192.7 909.6 193.2L906.3 194.9L899.7 198.2C898.8 197.2 898.1 196.1 897.5 194.9C896.9 193.8 896.3 192.7 895.8 191.6C895.3 190.5 894.9 189.4 894.6 188.3C894.3 187.3 894 186.2 893.8 185C893.6 183.9 893.4 182.8 893.3 181.7C893.2 180.6 893.1 179.6 893.1 178.4C893.1 177.2 893.2 176.2 893.3 175.1C893.4 174 893.6 172.9 893.8 171.8C894 170.7 894.3 169.6 894.6 168.5C894.9 167.4 895.3 166.3 895.8 165.2C896.3 164.1 896.8 163 897.5 161.9C898.1 160.7 898.9 159.6 899.7 158.6L906.3 161.9L909.6 163.6C909.4 164.1 909.1 164.7 908.8 165.2C907.5 168.3 906.6 171.7 906.3 175.1C906.2 176.1 906.1 177.2 906.1 178.4C906.1 179.6 906.2 180.6 906.3 181.7C906.4 182.8 906.6 183.9 906.8 185C907 186.1 907.3 187.3 907.6 188.3C907.9 189.4 908.3 190.5 908.8 191.6Z" fill="#A8B28E"/>
<path id="Vector_258" d="M952.4 198.2V185H965.6C958.2 185 952.4 190.9 952.4 198.2Z" fill="#A8B28E"/>
<path id="Vector_259" d="M972.1 181C973.481 181 974.6 179.881 974.6 178.5C974.6 177.119 973.481 176 972.1 176C970.719 176 969.6 177.119 969.6 178.5C969.6 179.881 970.719 181 972.1 181Z" fill="#FAEBDC"/>
<path id="Vector_260" d="M965.5 185H952.4V172.7L965.5 185Z" fill="#1C2600"/>
<path id="Vector_261" d="M897.2 178.5C897.2 185 899.1 191.3 902.7 196.7L899.7 198.2C890.9 186.5 890.9 170.4 899.7 158.8L902.7 160.3C899 165.6 897.1 172 897.2 178.5Z" fill="#1C2600"/>
</g>
</g>
<path id="Vector_262" d="M423 627.9C388.1 662.8 335.8 667 335.8 667C335.8 667 340 614.7 374.9 579.8C409.8 544.9 462.1 540.7 462.1 540.7C462.1 540.7 457.8 593 423 627.9Z" fill="#D25A3C"/>
<path id="Vector_263" d="M462 540.7L335.8 667C335.8 667 388.1 662.8 423 627.9C457.9 593 462 540.7 462 540.7Z" fill="#FF8764"/>
<path id="Vector_264" d="M151.4 635.2C97.8 656.2 45 649.5 45 649.5C45 649.5 79.1 608.6 132.7 587.5C186.3 566.4 239.1 573.1 239.1 573.1C239.1 573.1 205 614 151.4 635.2Z" fill="#EA7500"/>
<path id="Vector_265" d="M239.1 573.1L45 649.5C45 649.5 97.8 656.2 151.4 635.1C205 614 239.1 573.1 239.1 573.1Z" fill="#F5A03C"/>
<path id="Vector_266" d="M329.5 628.6C331.2 626.9 331.2 624.3 329.5 622.6L304.9 597.9C303.6 596.6 303.3 594.7 304.1 593C305 591.1 306 589.2 307 587.2C308.1 585.1 310.7 584.3 312.7 585.4C313.1 585.6 313.4 585.9 313.7 586.2L324.9 597.4C326.6 599.1 329.2 599.1 330.9 597.4C332.6 595.7 332.6 593.1 330.9 591.4L316.3 576.7C314.9 575.3 314.7 573.2 315.6 571.6C316.3 570.4 317 569.1 317.7 567.9C318.9 565.9 321.5 565.2 323.5 566.4C323.8 566.6 324.1 566.8 324.4 567.1L327.8 570.4C329.5 572.1 332.1 572.1 333.8 570.4C335.5 568.7 335.5 566.1 333.8 564.4L327.6 558.2C326.2 556.8 325.9 554.6 327 552.9C330.6 547.2 333.9 542.3 336.1 538.9C337.4 537 340 536.4 342 537.7C342.5 538 342.9 538.4 343.2 538.9C345.5 542.3 348.7 547.1 352.3 552.9C353.4 554.6 353.1 556.8 351.7 558.2L345.5 564.4C343.8 566.1 343.8 568.7 345.5 570.4C347.2 572 349.8 572 351.5 570.4L354.8 567.1C356.4 565.4 359.1 565.4 360.8 567.1C361.1 567.4 361.3 567.6 361.5 568C362.2 569.2 362.9 570.4 363.6 571.7C364.6 573.4 364.3 575.5 362.9 576.8L348.3 591.5C346.7 593.2 346.7 595.8 348.3 597.5C350 599.2 352.6 599.2 354.3 597.5L365.5 586.3C367.1 584.6 369.8 584.6 371.5 586.3C371.8 586.6 372.1 587 372.3 587.3C373.3 589.2 374.3 591.2 375.2 593.1C376 594.7 375.7 596.7 374.4 598L349.8 622.7C348.2 624.4 348.2 627 349.8 628.7C351.5 630.4 354.1 630.4 355.8 628.7L375.5 609C377.2 607.3 379.9 607.4 381.5 609C382 609.5 382.3 610 382.5 610.7C384 614.7 384.8 618.9 385 623.2C385 647.5 364.7 667.1 339.6 667.1C314.5 667.1 294.2 647.4 294.2 623.2C294.4 618.9 295.2 614.7 296.7 610.7C297.4 608.5 299.8 607.2 302.1 608C302.7 608.2 303.3 608.6 303.8 609L323.5 628.7C325.1 630.3 327.8 630.3 329.5 628.6Z" fill="#006464"/>
<path id="Vector_267" d="M296.7 610.6C297.4 608.4 299.8 607.1 302.1 607.9C302.7 608.1 303.3 608.5 303.8 608.9L323.5 628.6C325.3 630.2 327.9 630 329.5 628.2C330.9 626.6 330.9 624.2 329.5 622.6L304.9 598C303.6 596.7 303.3 594.7 304.1 593.1C305 591.2 306 589.3 307 587.3C308.1 585.2 310.7 584.4 312.7 585.5C313.1 585.7 313.4 586 313.7 586.3L324.9 597.5C326.7 599.1 329.3 598.9 330.9 597.1C332.3 595.5 332.3 593.1 330.9 591.5L316.3 576.8C314.9 575.4 314.7 573.3 315.6 571.7C316.3 570.5 317 569.2 317.7 568C318.9 566 321.5 565.3 323.5 566.5C323.8 566.7 324.1 566.9 324.4 567.2L327.8 570.5C329.6 572.1 332.2 571.9 333.8 570.1C335.2 568.5 335.2 566.1 333.8 564.5L327.6 558.3C326.2 556.9 325.9 554.7 327 553C330.6 547.3 333.9 542.4 336.1 539C336.9 537.8 338.2 537.1 339.6 537.1V667C314.6 667 294.2 647.3 294.2 623.1C294.4 618.8 295.3 614.6 296.7 610.6Z" fill="#0F373C"/>
<path id="Vector_268" d="M156.2 582.3C109.2 629.3 53 649.2 53 649.2C53 649.2 73 593 119.9 546.1C166.8 499.2 223 479.2 223 479.2C223 479.2 203.2 535.3 156.2 582.3Z" fill="#006464"/>
<path id="Vector_269" d="M223.2 479.1L53.1 649.2C53.1 649.2 109.3 629.2 156.3 582.3C203.3 535.4 223.2 479.1 223.2 479.1Z" fill="#0F373C"/>
<path id="Vector_270" d="M112.7 578.3C87.2 619.1 44.9 638.7 44.9 638.7C44.9 638.7 43.8 592.1 69.3 551.2C94.8 510.3 137.1 490.8 137.1 490.8C137.1 490.8 138.1 537.5 112.7 578.3Z" fill="#006464"/>
<path id="Vector_271" d="M137.1 490.8L44.8 638.7C44.8 638.7 87.2 619.2 112.6 578.3C138 537.4 137.1 490.8 137.1 490.8Z" fill="#0F373C"/>
<path id="Vector_272" d="M153.1 635.8H110.6V633C109.9 596.2 79.4 567 42.7 567.8C26.9 568.1 11.8 574 0 584.3V667H184.2C184.2 649.8 170.3 635.9 153.1 635.8Z" fill="#006464"/>
<path id="Vector_273" d="M70.8 633V635.8H110.5V633C109.7 596.2 79.3 567.1 42.5 567.8C36.2 567.9 30 568.9 24.1 570.8C51.4 579.4 70.2 604.4 70.8 633Z" fill="#009B97"/>
<path id="Vector_274" d="M153.1 635.8H113.4C130.6 635.8 144.5 649.8 144.6 667H184.3C184.2 649.8 170.3 635.9 153.1 635.8Z" fill="#009B97"/>
<path id="Vector_275" d="M170.1 485.6L172.9 528.1L158.7 496.9L147.4 505.4L153.1 545.1L141.7 516.8L147.4 488.4L172.9 485.6" fill="#001819"/>
<path id="Vector_276" d="M212.6 613.1L181.4 596.1L198.4 627.3L153.1 607.5L181.4 638.7L212.6 650L215.4 613.1" fill="#001819"/>
<path id="Vector_277" d="M0 667H53.9C53.9 637.3 29.8 613.1 0.1 613.1V667H0Z" fill="#0F373C"/>
<path id="Vector_278" d="M1366.3 621.7C1366.7 596.7 1346.7 576 1321.6 575.7C1296.6 575.3 1275.9 595.3 1275.6 620.4C1275.6 620.8 1275.6 621.3 1275.6 621.7H1252.9C1227.9 621.8 1207.6 642 1207.6 667H1366.3V621.7Z" fill="#006464"/>
<path id="Vector_279" d="M1293.9 621.7C1293.9 600.4 1308.7 582 1329.5 577.4C1305.1 572 1280.8 587.4 1275.4 611.9C1274.7 615.1 1274.3 618.4 1274.3 621.7H1293.9Z" fill="#009B97"/>
<path id="Vector_280" d="M1271.2 621.7H1251.6C1226.6 621.8 1206.3 642 1206.3 667H1225.9C1225.9 642 1246.2 621.7 1271.2 621.7Z" fill="#009B97"/>
<g id="labedz-prawy">
<path id="Vector_281" d="M809.5 565.6C808.2 562.9 809.4 559.7 812.1 558.4C814.7 557.2 817.8 558.2 819.2 560.7L821 564.3C822 566.4 824.5 567.4 826.7 566.6C829 565.7 830.2 563.1 829.3 560.8C829.2 560.7 829.2 560.5 829.1 560.4L827.2 556.6C823.6 549.5 814.9 546.6 807.8 550.2C800.7 553.8 797.8 562.5 801.4 569.6L811.9 590.4H785.1C772.6 590.4 762.4 600.6 762.4 613.1H818.7C823.7 613.1 827.7 609 827.6 604C827.6 602.6 827.3 601.3 826.7 600.1L809.5 565.6Z" fill="#FAEBDC"/>
<path id="Vector_282" d="M802.2 590.5H785.2C772.7 590.5 762.5 600.7 762.5 613.2H779.5C779.5 600.6 789.7 590.5 802.2 590.5Z" fill="#DBD7AF"/>
<path id="Vector_283" d="M819.8 561.9C822.3 560.7 825.4 561.7 826.6 564.2L827.6 566.3C828.8 568.8 827.8 571.9 825.3 573.1L819.8 561.9Z" fill="#FF8764"/>
</g>
<path id="Vector_284" d="M704.2 0C704.2 17.7 689.9 32 672.2 32H636.2C635.3 46.4 623.4 57.6 609 57.6H590.2C572.2 92.4 536.3 114.3 497.1 114.3H487.6V91.6H467.8C442.8 91.6 422.4 71.3 422.4 46.3H405.4C380.3 46.3 360 26 360 0.9V0H704.2Z" fill="#F5A03C"/>
<path id="Vector_285" d="M671 0C671 17.7 656.7 32 639 32H672.2C689.9 32 704.2 17.7 704.2 0H671Z" fill="#EA7500"/>
<path id="Vector_286" d="M540.2 91.6H520.4C495.4 91.6 475 71.3 475 46.3H458C433 46.3 412.6 26 412.6 1V0H360V0.9C360 25.9 380.3 46.2 405.4 46.2H422.4C422.4 71.3 442.7 91.6 467.8 91.6H487.6V114.3H497.1C512 114.3 526.7 111.2 540.2 105.1V91.6V91.6Z" fill="#EA7500"/>
<path id="Vector_287" d="M476.2 46.2H510.2C516.5 46.2 521.5 51.3 521.5 57.5C521.5 63.8 516.4 68.8 510.2 68.8H476.2C469.9 68.8 464.9 63.7 464.9 57.5C464.9 51.3 470 46.2 476.2 46.2Z" fill="#EA7500"/>
<path id="Vector_288" d="M636.1 32C635.2 46.3 623.4 57.5 609 57.6H579.7C572.7 57.6 566.9 51.9 566.9 44.8C566.9 37.8 572.6 32 579.7 32H636.1Z" fill="#EA7500"/>
<g id="labedz-srodkowy">
<path id="Vector_289" d="M677.2 520.2C675.9 517.5 676.9 514.3 679.6 512.9C680.9 512.2 682.4 512.1 683.8 512.6C685.2 513 686.3 514 686.9 515.3L688.7 518.9C689.7 521 692.2 522 694.4 521.2C696.7 520.3 697.9 517.7 697 515.4C696.9 515.3 696.9 515.1 696.8 515L694.9 511.2C691.3 504.1 682.6 501.2 675.5 504.8C668.4 508.4 665.5 517.1 669.1 524.2L679.6 545H652.8C640.3 545 630.1 555.1 630.1 567.7H686.4C691.4 567.7 695.4 563.6 695.3 558.6C695.3 557.2 695 555.9 694.4 554.7L677.2 520.2Z" fill="#FAEBDC"/>
<path id="Vector_290" d="M669.9 545.1H652.9C640.4 545.1 630.2 555.2 630.2 567.8H647.2C647.2 555.3 657.3 545.1 669.9 545.1Z" fill="#DBD7AF"/>
<path id="Vector_291" d="M687.5 516.5C690 515.3 693.1 516.3 694.3 518.8L695.3 520.9C696.5 523.4 695.5 526.5 693 527.7L687.5 516.5Z" fill="#FF8764"/>
</g>
<path id="Vector_292" d="M728.5 613.1H827.7C829.3 613.1 830.5 614.4 830.5 615.9C830.5 617.5 829.2 618.7 827.7 618.7H728.5C726.9 618.7 725.7 617.4 725.7 615.9C725.7 614.4 726.9 613.1 728.5 613.1Z" fill="#006464"/>
<path id="Vector_293" d="M711.5 630.2H810.7C813.8 630.2 816.4 632.7 816.4 635.9C816.4 639 813.9 641.6 810.7 641.6H711.5C708.4 641.6 705.8 639.1 705.8 635.9C705.8 632.7 708.4 630.2 711.5 630.2Z" fill="#00998E"/>
<path id="Vector_294" d="M717.2 635.8C717.2 610.8 737.5 590.4 762.5 590.4C787.5 590.4 807.9 610.7 807.9 635.8H717.2Z" fill="#006464"/>
<path id="Vector_295" d="M762.5 590.5C766.8 590.5 771.1 591.1 775.3 592.3C756 598 742.7 615.7 742.7 635.8H717.2C717.2 610.8 737.5 590.5 762.5 590.5Z" fill="#0F373C"/>
<path id="Vector_296" d="M612.3 567.8H694.5C696.1 567.8 697.3 569.1 697.3 570.6C697.3 572.2 696 573.4 694.5 573.4H612.3C610.7 573.4 609.5 572.1 609.5 570.6C609.5 569.1 610.7 567.8 612.3 567.8Z" fill="#006464"/>
<g id="labedz-lewy">
<path id="Vector_297" d="M586.9 576.9C585.6 574.2 586.8 571 589.5 569.7C592.1 568.5 595.2 569.5 596.6 572L598.4 575.6C599.4 577.7 601.9 578.7 604.1 577.9C606.4 577 607.6 574.4 606.7 572.1C606.6 572 606.6 571.8 606.5 571.7L604.6 567.9C601 560.8 592.3 557.9 585.2 561.5C578.1 565.1 575.2 573.8 578.8 580.9L589.3 601.7H562.5C550 601.7 539.8 611.9 539.8 624.4H596.1C601.1 624.4 605.1 620.3 605 615.3C605 613.9 604.7 612.6 604.1 611.4L586.9 576.9Z" fill="#FAEBDC"/>
<path id="Vector_298" d="M579.6 601.8H562.6C550.1 601.8 539.9 612 539.9 624.5H556.9C556.9 612 567.1 601.8 579.6 601.8Z" fill="#DBD7AF"/>
<path id="Vector_299" d="M597.2 573.2C599.7 572 602.8 573 604 575.5L605 577.6C606.2 580.1 605.2 583.2 602.7 584.4L597.2 573.2Z" fill="#FF8764"/>
</g>
<path id="Vector_300" d="M524.4 624.5H612.3C613.9 624.5 615.1 625.8 615.1 627.3C615.1 628.9 613.8 630.1 612.3 630.1H524.4C522.8 630.1 521.6 628.8 521.6 627.3C521.6 625.7 522.8 624.5 524.4 624.5Z" fill="#006464"/>
<path id="Vector_301" d="M863.2 582H894.4C896.7 582 898.6 583.9 898.6 586.2C898.6 588.5 896.7 590.4 894.4 590.4H863.2C860.9 590.4 859 588.5 859 586.2C858.9 583.9 860.8 582 863.2 582Z" fill="#0F373C"/>
<path id="Vector_302" d="M879 561.4C886.1 571.7 887.7 582.9 882.5 586.5C877.3 590.1 867.4 584.6 860.3 574.3C853.2 564 850.3 539.9 850.3 539.9C850.3 539.9 871.9 551.1 879 561.4Z" fill="#D25A3C"/>
<path id="Vector_303" d="M850.4 539.9L882.6 586.6C887.8 583 886.2 571.8 879.1 561.5C872 551.2 850.4 539.9 850.4 539.9Z" fill="#FF8764"/>
<path id="Vector_304" d="M891.3 565C891.3 577.5 886.2 587.7 880 587.7C873.8 587.7 868.7 577.5 868.7 565C868.7 552.5 880 531 880 531C880 531 891.3 552.4 891.3 565Z" fill="#D25A3C"/>
<path id="Vector_305" d="M879.9 530.9V587.6C886.2 587.6 891.2 577.4 891.2 564.9C891.2 552.4 879.9 530.9 879.9 530.9Z" fill="#FF8764"/>
<path id="Vector_306" d="M521.6 545.1C521.6 526.3 536.8 511.1 555.6 511.1C574.4 511.1 589.6 526.3 589.6 545.1H521.6Z" fill="#0F373C"/>
<path id="Vector_307" d="M545.7 512.6C563.7 507.1 582.7 517.2 588.2 535.2C589.2 538.4 589.7 541.8 589.7 545.2H569.9C569.8 530.1 560 516.9 545.7 512.6Z" fill="#009B97"/>
<path id="Vector_308" d="M1366.3 618.9C1339.7 594.6 1298.5 596.4 1274.2 623C1263.2 635 1257.1 650.7 1257.1 667H1366.3V618.9Z" fill="#009B97"/>
<path id="Vector_309" d="M1347.6 613.1C1352 613.1 1356.4 613.5 1360.7 614.4C1331.7 593.1 1290.9 599.3 1269.6 628.3C1261.4 639.5 1256.9 653 1256.9 666.9H1283.4C1288.9 635.9 1315.9 613.1 1347.6 613.1Z" fill="#0F373C"/>
<path id="Vector_310" d="M91.1 528.1C78.7 573.4 76.6 620.8 85 667" stroke="#001819" stroke-width="5" stroke-miterlimit="10"/>
<path id="Vector_311" d="M102.1 499.8L90.8 488.5L79.5 499.8L68 488.4V511.1C68 523.6 78.2 533.7 90.7 533.8C103.2 533.8 113.3 523.6 113.4 511.1V488.4L102.1 499.8Z" fill="#FF8764"/>
<path id="Vector_312" d="M79.4 511.1V499.8L68 488.4V511.1C68 523.6 78.2 533.7 90.7 533.8C92.6 533.8 94.5 533.6 96.4 533.1C86.4 530.4 79.4 521.4 79.4 511.1Z" fill="#D25A3C"/>
<path id="Vector_313" d="M487.6 46.2C487.6 97.8 445.1 130.4 422.4 142.6" stroke="#001819" stroke-width="15" stroke-miterlimit="10"/>
<path id="Vector_314" d="M824.9 667H779.5L1233.9 6.5H1279.2L824.9 667Z" fill="white"/>
<path id="Vector_315" d="M694.1 667H648.7L1103 0H1148.4L694.1 667Z" fill="white"/>
<g id="drzewa-i-kobieta">
<path id="Vector_316" d="M1185 102.6C1165 288.9 1230.2 249.3 1233 382" stroke="#001819" stroke-width="14.9664" stroke-miterlimit="10"/>
<path id="Vector_317" d="M1054.5 9.5C1037.5 156.2 1097 207 1119.7 314.3" stroke="#001819" stroke-width="14.9664" stroke-miterlimit="10"/>
<path id="Vector_318" d="M1349.3 113.9C1366 291.7 1267.1 322.7 1261.4 424.3" stroke="#001819" stroke-width="14.9664" stroke-miterlimit="10"/>
<path id="Vector_319" d="M1313 534.7C1283.5 565.6 1252.6 584 1243.9 575.8C1235.2 567.6 1252 535.8 1281.5 504.9C1311 474 1350.6 463.8 1350.6 463.8C1350.6 463.8 1342.5 503.8 1313 534.7Z" fill="#001819"/>
<path id="Vector_320" d="M1156.4 3H1111.2V667H1156.4V3Z" fill="#001819"/>
<path id="Vector_321" d="M1269.9 3H1224.6V667H1269.9V3Z" fill="#001819"/>
<path id="Vector_322" d="M1093.9 576.7C1126.5 576.7 1156.9 582.3 1182.1 591.9C1209.9 565.9 1260.3 548.5 1317.8 548.5C1334 548.5 1350.1 549.9 1366 552.7V667H935.2C935.2 617.1 1006.2 576.7 1093.9 576.7Z" fill="#001819"/>
<path id="Vector_323" d="M1009.4 556.6C1027.7 575.6 1038.2 595.1 1032.8 600.2C1027.4 605.3 1008.3 594.1 990 575.1C971.7 556.1 966.6 531.5 966.6 531.5C966.6 531.5 991.2 537.7 1009.4 556.6Z" fill="#001819"/>
<path id="Vector_324" d="M984.7 575.5C1008.9 585.9 1026.2 599.9 1023.2 606.7C1020.2 613.5 998.2 610.5 974 600.1C949.8 589.7 935.5 568.9 935.5 568.9C935.5 568.9 960.5 565.1 984.7 575.5Z" fill="#001819"/>
<path id="Vector_325" d="M1082.9 204.2C1038.1 153.4 979 153.4 944 74.4" stroke="#001819" stroke-width="14.9664" stroke-miterlimit="10"/>
<path id="Vector_326" d="M976.6 49H975.1C974.5 35.9 963.7 25.6 950.6 25.6H908C894.9 25.6 884.1 36 883.5 49H873.2C854.4 49.1 839.3 64.2 839.2 82.8C839.3 101.5 854.4 116.6 873.2 116.6H918.6C934.1 116.6 947.6 106.1 951.5 91.2H976.7C988.4 91.2 997.9 81.7 998 70.1C997.8 58.5 988.3 49 976.6 49Z" fill="#001819"/>
<path id="Vector_327" d="M856.1 82.9C856.2 64.2 871.3 49.1 890.1 49.1H900.4C901 36 911.8 25.7 924.9 25.7H907.9C894.8 25.7 884 36.1 883.4 49.1H873.1C854.3 49.1 839.1 64.3 839.1 82.9C839.1 101.5 854.3 116.7 873.1 116.7H890.1C871.4 116.6 856.2 101.5 856.1 82.9Z" fill="#006464"/>
<path id="Vector_328" d="M1295.5 136.5C1295.5 136.5 1292.7 204.2 1338 243.7" stroke="#001819" stroke-width="14.9664" stroke-miterlimit="10"/>
<path id="Vector_329" d="M887.3 82.9H900.9C891.5 82.9 883.9 75.3 883.9 66C883.9 56.7 891.5 49.1 900.9 49.1H887.3C877.9 49.1 870.3 56.7 870.3 66C870.3 75.3 877.9 82.8 887.3 82.9Z" fill="#006464"/>
<path id="Vector_330" d="M918.8 99.8H932.7C923.1 99.8 915.4 92.1 915.4 82.5C915.4 73 923.2 65.3 932.7 65.3H918.8C909.2 65.3 901.5 73 901.5 82.5C901.5 92 909.2 99.8 918.8 99.8Z" fill="#006464"/>
<path id="Vector_331" d="M935.2 77.2H944C937.9 77.2 933 72.3 933 66.2C933 60.2 937.9 55.3 944 55.2H935.2C929.1 55.2 924.2 60.1 924.2 66.2C924.2 72.3 929.1 77.2 935.2 77.2Z" fill="#006464"/>
<path id="Vector_332" d="M898.9 116.7H912.8C903.2 116.7 895.5 109 895.5 99.5C895.5 90 903.3 82.3 912.8 82.3H898.9C889.3 82.3 881.6 90 881.6 99.5C881.6 109 889.4 116.7 898.9 116.7Z" fill="#006464"/>
<path id="Vector_333" d="M1369.2 -1.79999H998.9C998.2 2.40001 997.9 6.60001 997.9 10.9C997.9 53.8 1032.8 88.6 1075.9 88.6C1088.7 88.6 1101.4 85.5 1112.7 79.4C1120.1 114.5 1154.7 136.9 1189.9 129.5C1194.6 128.5 1199.1 127 1203.5 125.1C1220.6 160.1 1263 174.7 1298.2 157.7C1301.8 156 1305.2 154 1308.4 151.7C1320.9 168.8 1340.9 179 1362.2 178.9C1364.6 178.9 1366.9 178.8 1369.3 178.5L1369.2 -1.79999Z" fill="#001819"/>
<path id="Vector_334" d="M1068.7 10.9C1068.7 6.60001 1069.1 2.40001 1069.8 -1.79999H998.9C998.2 2.40001 997.9 6.60001 997.9 10.9C997.9 53.8 1032.8 88.6 1075.9 88.6C1088.2 88.6 1100.4 85.7 1111.3 80.1C1085.2 66.8 1068.7 40.1 1068.7 10.9Z" fill="#006464"/>
<path id="Vector_335" d="M1274.3 125C1241.5 139.8 1202.9 125.4 1188 92.8C1186 88.5 1184.5 84 1183.5 79.3C1161.6 91 1135.5 91.6 1113.1 80.9C1121.4 115.8 1156.5 137.3 1191.5 129.1C1195.6 128.1 1199.6 126.8 1203.5 125C1220.6 160 1263 174.6 1298.2 157.6C1299.7 156.9 1301.2 156.1 1302.6 155.2C1290.3 148.2 1280.5 137.7 1274.3 125Z" fill="#006464"/>
<path id="Vector_336" d="M1207.8 69.6C1187.4 69.6 1171 53.2 1171 32.9C1171 31.7 1171.1 30.5 1171.2 29.2C1155.1 41.6 1152.1 64.6 1164.5 80.7C1176.9 96.7 1200.1 99.7 1216.2 87.3C1224.2 81.1 1229.4 71.9 1230.4 61.9C1223.8 66.9 1215.9 69.6 1207.8 69.6Z" fill="#006464"/>
<path id="Vector_337" d="M1291.1 116C1276.9 116 1265.4 104.6 1265.4 90.5C1265.4 89.6 1265.4 88.8 1265.5 88C1254.3 96.6 1252.2 112.7 1260.8 123.8C1269.4 134.9 1285.6 137.1 1296.8 128.4C1302.4 124.1 1306 117.7 1306.7 110.7C1302.3 114.1 1296.8 116 1291.1 116Z" fill="#006464"/>
<path id="Vector_338" d="M1270 68.3C1247 68.3 1228.4 49.8 1228.4 26.9C1228.4 25.5 1228.5 24.1 1228.6 22.8C1210.4 36.8 1207 62.8 1221 80.9C1235 99 1261.2 102.4 1279.4 88.4C1288.5 81.4 1294.3 71.1 1295.4 59.7C1288.2 65.3 1279.2 68.3 1270 68.3Z" fill="#006464"/>
<path id="Vector_339" d="M1160.2 591.8C1162.5 591.7 1164.3 589.7 1164.2 587.4L1162.4 552.7C1162.3 550.9 1163.4 549.2 1165.1 548.6C1167.1 547.8 1169.1 547 1171.1 546.3C1173.3 545.5 1175.7 546.6 1176.6 548.8C1176.8 549.2 1176.8 549.6 1176.9 550.1L1177.7 565.8C1177.8 568.1 1179.8 569.9 1182.2 569.8C1184.5 569.7 1186.3 567.7 1186.2 565.4L1185.2 544.8C1185.1 542.9 1186.3 541.1 1188.1 540.5L1192.1 539.2C1194.3 538.5 1196.7 539.7 1197.4 542C1197.5 542.3 1197.6 542.7 1197.6 543L1197.8 547.7C1197.9 550 1199.9 551.8 1202.3 551.7C1204.6 551.6 1206.4 549.6 1206.3 547.2L1205.8 538.4C1205.7 536.4 1207 534.6 1208.9 534.1C1215.4 532.3 1221.1 530.8 1225 529.8C1227.3 529.2 1229.6 530.6 1230.2 532.9C1230.3 533.4 1230.4 534 1230.3 534.5C1229.7 538.5 1228.9 544.3 1227.7 550.9C1227.4 552.9 1225.7 554.3 1223.7 554.4L1214.9 554.9C1212.6 555 1210.8 557 1210.9 559.4C1211 561.7 1213 563.5 1215.4 563.4L1220.1 563.2C1222.4 563.1 1224.4 564.9 1224.6 567.2C1224.6 567.6 1224.6 567.9 1224.5 568.3C1224.2 569.7 1223.9 571.1 1223.6 572.5C1223.2 574.4 1221.6 575.7 1219.7 575.8L1199 576.9C1196.7 577 1194.9 579 1195 581.3C1195.1 583.6 1197.1 585.4 1199.5 585.3L1215.3 584.5C1217.6 584.4 1219.6 586.2 1219.8 588.5C1219.8 588.9 1219.8 589.4 1219.7 589.8C1219.1 591.9 1218.6 594 1218 596C1217.5 597.7 1215.9 599 1214.1 599.1L1179.3 600.9C1177 601 1175.2 603 1175.3 605.4C1175.4 607.7 1177.4 609.5 1179.8 609.4L1207.7 607.9C1210 607.8 1212.1 609.6 1212.2 611.9C1212.2 612.6 1212.1 613.2 1211.8 613.9C1210.2 617.9 1208 621.6 1205.3 624.9C1189.1 642.8 1160.8 643.9 1142.2 627.2C1123.6 610.5 1121.6 582.4 1137.9 564.5C1140.9 561.5 1144.3 558.9 1148.1 556.9C1150.1 555.7 1152.7 556.4 1153.9 558.4C1154.2 559 1154.4 559.6 1154.5 560.3L1156 588C1155.8 590 1157.7 591.9 1160.2 591.8C1160.1 591.8 1160.1 591.8 1160.2 591.8Z" fill="#006464"/>
<path id="Vector_340" d="M1147.8 556.6C1149.8 555.4 1152.4 556.1 1153.6 558.1C1153.9 558.7 1154.1 559.3 1154.2 560L1155.7 587.7C1155.9 590 1158 591.7 1160.4 591.5C1162.6 591.3 1164.3 589.4 1164.2 587.3L1162.4 552.6C1162.3 550.8 1163.4 549.1 1165.1 548.5C1167.1 547.7 1169.1 546.9 1171.1 546.2C1173.3 545.4 1175.7 546.5 1176.6 548.7C1176.8 549.1 1176.8 549.5 1176.9 550L1177.7 565.7C1177.9 568 1180 569.7 1182.4 569.5C1184.6 569.3 1186.3 567.4 1186.2 565.3L1185.1 544.6C1185 542.7 1186.2 540.9 1188 540.3L1192 539C1194.2 538.3 1196.6 539.5 1197.3 541.8C1197.4 542.1 1197.5 542.5 1197.5 542.8L1197.7 547.5C1197.8 549.8 1199.8 551.6 1202.2 551.5C1204.5 551.4 1206.3 549.4 1206.2 547L1205.7 538.2C1205.6 536.2 1206.9 534.4 1208.8 533.9C1215.3 532.1 1221 530.6 1224.9 529.6C1226.3 529.3 1227.7 529.6 1228.8 530.6L1141.9 626.7C1123.3 610 1121.3 581.9 1137.6 564C1140.6 561.2 1144.1 558.6 1147.8 556.6Z" fill="#0F373C"/>
<g id="Kobieta">
<path id="Vector_341" d="M1091.1 642.8L1083.6 646.9L1045.4 557.1L1065.2 546.1L1091.1 642.8Z" fill="#EC8E62"/>
<path id="Vector_342" d="M1051.7 648.7H1042.2L1043.2 548.5H1065.9L1051.7 648.7Z" fill="#F6B594"/>
<path id="Vector_343" d="M1042.8 585.2V590.7L1059.7 592L1061 583L1042.8 585.2Z" fill="#DD9980"/>
<path id="Vector_344" d="M1091.4 461L1079.6 486.4C1076.3 493.6 1073.9 501.8 1077.2 509L1116.9 585.2H1031.9L1060.2 461H1091.4Z" fill="#FBF9E0"/>
<path id="Vector_345" d="M1058.8 667V665.6C1058.8 649.3 1072.1 636 1088.6 636H1121.2C1137.6 636 1150.9 649.3 1151 665.6V667H1058.8Z" fill="#006464"/>
<path id="Vector_346" d="M1077.2 444.1L1040.3 477.9L1009.6 464L1000.9 455.3C999.2 457.1 999.2 459.9 1000.9 461.6L1003.1 463.7H986.5C986.5 468.4 990.3 472.2 995 472.2H1009.2L1040.4 492L1074.4 463.8L1094.2 461L1077.2 444.1Z" fill="#F6B594"/>
<path id="Vector_347" d="M1076.7 573.9H1034.3L1031.9 585.2H1076.7V573.9Z" fill="#DBD7AF"/>
<path id="Vector_348" d="M1082.3 458.4L1074.4 463.8L1056.1 479L1052.6 494.3L1082.3 458.4Z" fill="#DBD7AF"/>
<path id="Vector_349" d="M1057.4 412.1V421.5L1053.9 426.7C1053.2 427.7 1053.5 429 1054.5 429.6C1054.8 429.8 1055.3 430 1055.7 430H1057.4V431.1C1057.4 436.2 1061.6 440.4 1066.7 440.4C1067.9 440.4 1068.8 441.4 1068.8 442.5V455.4H1083V412.2H1057.4V412.1Z" fill="#F6B594"/>
<path id="Vector_350" d="M1057.1 551.9L1054.5 534.1C1054.5 534.1 1091.9 543.1 1103.9 560.3L1116.8 585.1L1093.2 589.2L1057.1 551.9Z" fill="#DBD7AF"/>
<path id="Vector_351" d="M1060.2 418.7C1060.2 418.7 1060.2 430 1070.5 433.6C1080.1 437 1080 455.3 1080 463.8C1080 477.9 1088.8 487.1 1097 489.2C1108.3 492 1122.5 477.9 1108.3 458.2C1098.7 444.8 1085.6 415.9 1085.6 415.9L1060.2 418.7Z" fill="#D25A3C"/>
<path id="Vector_352" d="M1057.1 411.1C1057.1 411.1 1057.1 422.4 1067.4 426C1077 429.4 1076.9 447.7 1076.9 456.2C1076.9 470.3 1085.7 479.5 1093.9 481.6C1105.2 484.4 1119.4 470.3 1105.2 450.5C1095.6 437.1 1082.5 408.2 1082.5 408.2L1057.1 411.1Z" fill="#D25A3C"/>
<path id="Vector_353" d="M1110.6 461.6C1114 475.3 1103 483.9 1094 481.7C1089.2 480.5 1084.3 476.9 1081 471.4C1083.4 481.2 1090.4 487.6 1097.1 489.2C1107.7 491.9 1120.9 479.5 1110.6 461.6Z" fill="#BF3116"/>
<path id="Vector_354" d="M1060.5 421.2C1060.5 421.2 1073.9 431.4 1091.2 427.5L1086.6 418.1L1060.5 421.2Z" fill="#BF3116"/>
<path id="Vector_355" d="M1088.4 408.2C1087.3 398.9 1078.8 392.3 1069.5 393.4C1061.7 394.3 1055.6 400.4 1054.7 408.2C1042.8 409.4 1034.7 411.7 1034.7 414.5C1034.7 418.4 1051.2 421.6 1071.5 421.6C1091.8 421.6 1108.3 418.4 1108.3 414.5C1108.4 411.7 1100.3 409.3 1088.4 408.2Z" fill="#FBF9E0"/>
<path id="Vector_356" d="M1060.2 585.2L1060.1 590.7L1077.4 589.8L1078 585.2H1060.2Z" fill="#D86A3F"/>
<path id="Vector_357" d="M1104.8 570.8C1129.1 596 1143 621.9 1135.9 628.7C1128.8 635.5 1103.4 620.6 1079.1 595.4C1054.8 570.2 1048 537.5 1048 537.5C1048 537.5 1080.6 545.6 1104.8 570.8Z" fill="#0F373C"/>
<path id="Vector_358" d="M1023.4 667C1023.4 656.9 1031.7 648.7 1041.8 648.7H1087.2C1097.4 648.7 1105.6 656.9 1105.6 667" fill="#0F373C"/>
<path id="Vector_359" d="M994.7 450.3C996.4 452.9 995.6 456.4 992.9 458.1C990.4 459.7 987 459 985.3 456.6C983.6 454 983.7 444.1 983.7 444.1C983.7 444.1 992.9 447.7 994.7 450.3Z" fill="#F5A03C"/>
<path id="Vector_360" d="M967.6 450.5C970.3 448.9 973.8 449.8 975.4 452.5C977 455.2 976.1 458.6 973.4 460.2C973.3 460.3 973.2 460.3 973.1 460.3C970.4 461.8 960.4 460.9 960.4 460.9C960.4 460.9 964.9 452 967.6 450.5Z" fill="#D25A3C"/>
<path id="Vector_361" d="M976 413.7C978.3 415.8 978.6 419.3 976.5 421.7C974.4 424 970.8 424.3 968.5 422.2C968.4 422.2 968.4 422.1 968.3 422.1C966 420 963.8 410.3 963.8 410.3C963.8 410.3 973.7 411.6 976 413.7Z" fill="#006464"/>
<path id="Vector_362" d="M1088.4 408.2C1088.4 408.2 1073.8 416.8 1054.6 408.2" stroke="#C6C29E" stroke-width="4.9888" stroke-miterlimit="10" stroke-linecap="round"/>
<path id="Vector_363" d="M1149.2 601.4C1156.1 635.6 1154 664.9 1144.3 666.9C1134.6 668.9 1121.2 642.7 1114.3 608.5C1107.4 574.3 1119.2 543 1119.2 543C1119.2 543 1142.3 567.2 1149.2 601.4Z" fill="#006464"/>
</g>
</g>
<path id="Vector_364" d="M1366 258.2V326.2L1229.5 530.9C1227.7 528.3 1224.7 529.1 1224.7 529.1L1224.6 470.2L1366 258.2Z" fill="white"/>
</g>
<defs>
<clipPath id="clip0">
<rect width="1366" height="667" fill="white"/>
</clipPath>
</defs>
</svg>
