<svg xmlns="http://www.w3.org/2000/svg" viewBox="0 0 650 650"><defs><style>.cls-1,.cls-13{isolation:isolate;}.cls-2{fill:#00a8a3;}.cls-3{fill:#e56445;}.cls-4{fill:#c1391e;}.cls-5{fill:#006464;}.cls-6{fill:#003f3f;}.cls-12,.cls-7{fill:none;stroke-miterlimit:10;}.cls-7{stroke:#002728;stroke-linecap:round;stroke-width:8.21px;}.cls-13,.cls-8{fill:#4c1f00;}.cls-9{fill:#e6a073;}.cls-10{fill:#ffbf9c;}.cls-11{fill:#260f00;}.cls-12{stroke:#4c1f00;stroke-width:3.52px;}.cls-13{opacity:0.5;}.cls-14{fill:#002728;}.cls-15{fill:#ff8764;}.cls-16{fill:#001919;}.cls-17{fill:#d17846;}.cls-18{fill:#872702;}.cls-19{fill:#ffdfca;}.cls-20,.cls-24{fill:#e2bbaa;}.cls-21{fill:#af4617;}.cls-22{fill:#00bcb7;}.cls-23{fill:#fff;}.cls-23,.cls-24,.cls-25{mix-blend-mode:soft-light;}.cls-25{fill:#faebdc;}</style></defs><g class="cls-1"><g id="Layer_1" data-name="Layer 1"><path class="cls-2" d="M551.43,208.64c-2.82-4.54-5.73-9-8.81-13.27a267.64,267.64,0,0,0-58-59.83H165.5a267.43,267.43,0,0,0-58,59.83c-3.08,4.37-6,8.73-8.82,13.27a266,266,0,0,0,13.61,299.14c2.57,3.43,5.14,6.68,7.87,9.93a266,266,0,0,0,36.81,36.55l4.11,3.34c1.37,1.11,2.82,2.22,4.28,3.33H484.41c1.46-1.11,2.91-2.22,4.28-3.33s2.74-2.23,4.11-3.34a270.52,270.52,0,0,0,36.89-36.55c2.74-3.25,5.31-6.59,7.88-9.93A265.55,265.55,0,0,0,551.43,208.64Z"/><path class="cls-3" d="M252,424.76V354.91a23.37,23.37,0,0,1,23.28-23.28h0a23.37,23.37,0,0,1,23.28,23.28v69.85Z"/><path class="cls-4" d="M275.23,331.63A23.36,23.36,0,0,0,252,354.91v69.85h23.28Z"/><path class="cls-3" d="M431.35,360.48a39.89,39.89,0,1,0-79.77,0,39.84,39.84,0,0,0,13.26,77.46h53.24a39.85,39.85,0,0,0,13.27-77.46Z"/><path class="cls-4" d="M384.87,322.22a39.8,39.8,0,0,0-33.21,38.26,39.84,39.84,0,0,0,13.27,77.46h19.94Z"/><path class="cls-5" d="M446.33,135.54H270.18a5,5,0,0,0-5,5h0a5,5,0,0,0,5,5h16.6a5,5,0,1,1,0,9.93H253.57a5,5,0,0,0-5,5h0a5,5,0,0,0,5,5H313.4a5,5,0,1,1,0,9.93H300.13a5,5,0,0,0-5,5h0a5,5,0,0,0,5,5h93a5,5,0,0,0,5-5h0a5,5,0,0,0-5-5h-16.6a5,5,0,1,1,0-9.93h43.22a5,5,0,0,0,5-5h0a5,5,0,0,0-5-5h-16.6a5,5,0,1,1,0-9.93h43.22a5,5,0,0,0,5-5h0A5,5,0,0,0,446.33,135.54Z"/><path class="cls-6" d="M473.89,452.49c-12,54.09-34.15,95.09-49.65,91.67s-18.31-50-6.33-104.08,49.64-91.59,49.64-91.59S485.87,398.48,473.89,452.49Z"/><path class="cls-7" d="M534.49,255.2v53.15a40,40,0,0,1-39.89,39.89h0a40,40,0,0,1-39.89-39.89V255.2"/><line class="cls-7" x1="494.6" y1="255.2" x2="494.6" y2="401.48"/><path class="cls-7" d="M474.66,268.47V305.1a20,20,0,0,1-20,19.94h0a20,20,0,0,1-19.94-19.94V268.47"/><path class="cls-7" d="M148.89,454.63h0c-30.81,0-39.88-18-39.88-39.89V361.5"/><line class="cls-7" x1="148.89" y1="361.59" x2="148.89" y2="507.87"/><path class="cls-7" d="M129,374.86v36.55A20,20,0,0,1,109,431.35h0a20,20,0,0,1-20-19.94V374.86"/><path class="cls-7" d="M195.37,374.86h0A40,40,0,0,1,155.48,335V295.09"/><line class="cls-7" x1="195.37" y1="275.14" x2="195.37" y2="428.01"/><path class="cls-7" d="M175.43,275.14v36.55a20,20,0,0,1-20,19.94h0a20,20,0,0,1-19.94-19.94V275.14"/><path class="cls-7" d="M224.73,258.54v53.75a29.37,29.37,0,0,1-29.27,29.27h0"/><circle class="cls-4" cx="364.93" cy="430.92" r="29.87"/><path class="cls-5" d="M295.08,450.86a43.16,43.16,0,0,1-69.75,34,43.23,43.23,0,1,1-41.43-74.72,43.24,43.24,0,1,1,82.77,0A43.15,43.15,0,0,1,295.08,450.86Z"/><path class="cls-6" d="M184,410.21a43.24,43.24,0,0,1,28.84-53.93,44,44,0,0,1,12.5-1.88V484.84a43.23,43.23,0,1,1-53.24-68.13A46,46,0,0,1,184,410.21Z"/><path class="cls-5" d="M202.05,444.19h46.56a19.9,19.9,0,0,1,19.94,19.94h0a19.9,19.9,0,0,1-19.94,19.94H202.05a19.91,19.91,0,0,1-20-19.94h0A20,20,0,0,1,202.05,444.19Z"/><path class="cls-6" d="M183.73,420.91h39.89a11.66,11.66,0,0,1,11.64,11.64h0a11.66,11.66,0,0,1-11.64,11.64H183.73a11.65,11.65,0,0,1-11.64-11.64h0A11.7,11.7,0,0,1,183.73,420.91Z"/><path class="cls-5" d="M213.69,404.3h26.62a8.25,8.25,0,0,1,8.3,8.3h0a8.26,8.26,0,0,1-8.3,8.31H213.69a8.26,8.26,0,0,1-8.31-8.31h0A8.31,8.31,0,0,1,213.69,404.3Z"/><path class="cls-6" d="M220.36,374.43h9.93a15,15,0,0,1,15,15h0a15,15,0,0,1-15,15h-9.93a15,15,0,0,1-15-15h0A15,15,0,0,1,220.36,374.43Z"/><path class="cls-5" d="M245.27,359.37v.08a15.06,15.06,0,0,1-15,15h-10a15,15,0,0,1-15-15v-.17a43.61,43.61,0,0,1,40,.09Z"/><polygon class="cls-8" points="369.63 264.44 374.09 231.75 379.05 264.44 369.63 264.44"/><rect class="cls-9" x="257.34" y="423.56" width="18.74" height="84.22"/><polygon class="cls-8" points="266.67 376.83 257.34 423.56 276.08 423.56 266.67 376.83"/><rect class="cls-10" x="308.78" y="273.86" width="42.11" height="165.45"/><rect class="cls-8" x="350.98" y="273.86" width="23.37" height="165.45"/><rect class="cls-10" x="304.16" y="264.44" width="9.33" height="42.11"/><rect class="cls-8" x="369.64" y="264.44" width="9.33" height="42.11"/><polygon class="cls-8" points="308.78 437.6 257.34 437.6 285.16 400.19 308.78 400.19 308.78 437.6"/><polygon class="cls-11" points="402.42 437.6 350.98 437.6 368.69 400.19 411.75 400.19 402.42 437.6"/><rect class="cls-10" x="257.34" y="437.6" width="145.08" height="70.19"/><rect class="cls-8" x="308.78" y="306.64" width="46.82" height="9.33"/><rect class="cls-8" x="313.49" y="292.35" width="32.78" height="4.88"/><polygon class="cls-8" points="248.01 381.45 238.59 428.27 257.34 428.27 248.01 381.45"/><polygon class="cls-8" points="411.75 381.45 402.42 428.27 421.16 428.27 411.75 381.45"/><path class="cls-8" d="M313.49,348.75V325.3a4.75,4.75,0,0,1,4.7-4.71h0a4.75,4.75,0,0,1,4.71,4.71v23.45Z"/><path class="cls-8" d="M313.49,395.49V376.74a4.75,4.75,0,0,1,4.7-4.71h0a4.75,4.75,0,0,1,4.71,4.71v18.75Z"/><path class="cls-8" d="M313.49,437.6V418.85a4.75,4.75,0,0,1,4.7-4.71h0a4.75,4.75,0,0,1,4.71,4.71V437.6Z"/><path class="cls-8" d="M313.49,470.38v-14a4.75,4.75,0,0,1,4.7-4.71h0a4.75,4.75,0,0,1,4.71,4.71v14Z"/><path class="cls-8" d="M332.23,470.38v-14a4.75,4.75,0,0,1,4.71-4.71h0a4.75,4.75,0,0,1,4.71,4.71v14Z"/><path class="cls-8" d="M360.31,470.38v-14a4.75,4.75,0,0,1,4.7-4.71h0a4.75,4.75,0,0,1,4.71,4.71v14Z"/><path class="cls-8" d="M379.05,470.38v-14a4.75,4.75,0,0,1,4.71-4.71h0a4.75,4.75,0,0,1,4.71,4.71v14Z"/><path class="cls-8" d="M360.31,498.45v-14a4.75,4.75,0,0,1,4.7-4.71h0a4.75,4.75,0,0,1,4.71,4.71v14Z"/><path class="cls-8" d="M379.05,498.45v-14a4.75,4.75,0,0,1,4.71-4.71h0a4.75,4.75,0,0,1,4.71,4.71v14Z"/><path class="cls-8" d="M271.38,470.38v-14a4.75,4.75,0,0,1,4.7-4.71h0a4.75,4.75,0,0,1,4.71,4.71v14Z"/><path class="cls-8" d="M290.12,470.38v-14a4.75,4.75,0,0,1,4.71-4.71h0a4.75,4.75,0,0,1,4.71,4.71v14Z"/><path class="cls-8" d="M271.38,498.45v-14a4.75,4.75,0,0,1,4.7-4.71h0a4.75,4.75,0,0,1,4.71,4.71v14Z"/><path class="cls-8" d="M290.12,498.45v-14a4.75,4.75,0,0,1,4.71-4.71h0a4.75,4.75,0,0,1,4.71,4.71v14Z"/><path class="cls-8" d="M332.23,395.49V376.74a4.75,4.75,0,0,1,4.71-4.71h0a4.75,4.75,0,0,1,4.71,4.71v18.75Z"/><path class="cls-8" d="M332.23,437.6V418.85a4.75,4.75,0,0,1,4.71-4.71h0a4.75,4.75,0,0,1,4.71,4.71V437.6Z"/><path class="cls-8" d="M332.23,348.75V325.3a4.75,4.75,0,0,1,4.71-4.71h0a4.75,4.75,0,0,1,4.71,4.71v23.45Z"/><path class="cls-8" d="M313.49,507.87v-14a14,14,0,0,1,14-14h0a14.05,14.05,0,0,1,14,14v14Z"/><rect class="cls-10" x="346.27" y="264.44" width="9.33" height="42.11"/><path class="cls-8" d="M313.49,297.23V280.79a2.3,2.3,0,0,1,2.31-2.31h0a2.3,2.3,0,0,1,2.31,2.31v16.44Z"/><path class="cls-8" d="M341.56,297.23V280.79a2.3,2.3,0,0,1,2.31-2.31h0a2.3,2.3,0,0,1,2.31,2.31v16.44Z"/><path class="cls-8" d="M332.23,297.23V280.79a2.3,2.3,0,0,1,2.31-2.31h0a2.3,2.3,0,0,1,2.31,2.31v16.44Z"/><path class="cls-8" d="M322.82,297.23V280.79a2.3,2.3,0,0,1,2.31-2.31h0a2.3,2.3,0,0,1,2.31,2.31v16.44Z"/><rect class="cls-10" x="238.59" y="428.27" width="18.74" height="79.6"/><rect class="cls-10" x="402.42" y="428.27" width="18.74" height="79.6"/><path class="cls-8" d="M330.86,189.64h21.49a3.34,3.34,0,0,1,3.33,3.33v2.74a3.34,3.34,0,0,1-3.33,3.34H330.86a3.34,3.34,0,0,1-3.34-3.34V193A3.29,3.29,0,0,1,330.86,189.64Z"/><rect class="cls-8" x="350.98" y="442.3" width="51.44" height="4.71"/><rect class="cls-8" x="257.34" y="442.3" width="51.44" height="4.71"/><rect class="cls-8" x="350.98" y="442.3" width="4.71" height="65.48"/><line class="cls-12" x1="350.98" y1="354.91" x2="308.78" y2="354.91"/><line class="cls-12" x1="350.98" y1="394.8" x2="308.78" y2="394.8"/><polygon class="cls-8" points="363.81 273.86 318.19 273.86 339.25 152.15 344.13 152.15 363.81 273.86"/><polygon class="cls-13" points="308.78 357.4 350.98 315.29 308.78 315.29 308.78 357.4"/><polygon class="cls-13" points="308.78 399.51 350.98 362.1 308.78 362.1 308.78 399.51"/><polygon class="cls-13" points="308.78 441.7 350.98 404.21 308.78 404.21 308.78 441.7"/><path class="cls-6" d="M398.14,507.87a19.94,19.94,0,1,1,39.88,0h0"/><path class="cls-14" d="M202,412.6a12,12,0,0,0-.68-3c-.26-.69-.52-1.37-.86-2.06a9,9,0,0,0-.68-1.19,10.69,10.69,0,0,0-1.8-2.14c-5.31-5.31-29-9.68-29-9.68h0s4.37,23.71,9.67,29.1a13.66,13.66,0,0,0,19.35,0h0a13.72,13.72,0,0,0,3.76-7A13.48,13.48,0,0,0,202,414,3.5,3.5,0,0,0,202,412.6Z"/><path class="cls-5" d="M193.74,400.45A13.28,13.28,0,0,1,175,419.19C169.78,414,165.58,391,165.58,391S188.52,395.23,193.74,400.45Z"/><path class="cls-6" d="M165.5,391h0l28.24,28.16h0a13.31,13.31,0,0,0,0-18.74C188.52,395.23,165.5,391,165.5,391Z"/><path class="cls-3" d="M192.12,507.87A29.93,29.93,0,1,1,252,506.24V508H192.12Z"/><path class="cls-15" d="M198.71,507.87a23.28,23.28,0,1,1,46.56,0H198.71Z"/><path class="cls-3" d="M205.38,507.87a16.61,16.61,0,1,1,33.21-.86v.86Z"/><path class="cls-15" d="M212.06,507.87a10,10,0,0,1,19.94-.94v.94Z"/><path class="cls-14" d="M476.28,388.21c-4.62,6.25-9,12.67-13,19.34-38.6,64.37-55,125.48-36.63,136.52l1.54.77c15.15-3.33,34.75-41.94,45.71-91.58C479.11,429.47,478.51,406.44,476.28,388.21Z"/><path class="cls-13" d="M291.83,504.44A33.61,33.61,0,0,0,258.37,471H199a33.61,33.61,0,0,0-33.46,33.46h0v3.34H291.83Z"/><path class="cls-13" d="M414.83,454.63a26.54,26.54,0,0,0-13.27-23h0a27.75,27.75,0,0,0-4.62-2.13h-.17a6.38,6.38,0,0,0-1.46-.43h-.17c-1-.26-2.14-.52-3.17-.69h-.42a5.51,5.51,0,0,1-1.2-.17h-.43c-.51,0-1.11-.08-1.63-.08a26.58,26.58,0,0,0-26.61,26.61,26.57,26.57,0,0,0-26.62,26.54h0v6.67a20,20,0,0,0-19.95,19.95H441.36V481.08a26.54,26.54,0,0,0-26.53-26.45Z"/><path class="cls-5" d="M428.09,454.63a26.58,26.58,0,0,0-53.15-1.11v1.11a26.58,26.58,0,0,0-26.53,26.62h0v6.67a20,20,0,0,0-19.94,19.95H454.71V481.25A26.65,26.65,0,0,0,428.09,454.63Z"/><path class="cls-6" d="M374.94,487.92v-6.67h0a26.58,26.58,0,0,1,26.54-26.62h0a26.66,26.66,0,0,1,13.26-23,26.58,26.58,0,0,0-36.29,9.68,26.89,26.89,0,0,0-3.59,13.35,26.47,26.47,0,0,0-26.54,26.62h0v6.67a20,20,0,0,0-19.94,19.95H355A19.91,19.91,0,0,1,374.94,487.92Z"/><path class="cls-9" d="M537.82,507.87c-2.56,3.42-5.13,6.67-7.87,9.93a265.42,265.42,0,0,1-36.89,36.54H157a265.31,265.31,0,0,1-36.8-36.54c-2.74-3.26-5.31-6.59-7.87-9.93Z"/><path class="cls-5" d="M278.48,507.87a30.09,30.09,0,0,0-29.87-30H195.46a30,30,0,0,0-29.88,30Z"/><path class="cls-14" d="M211.12,507.87c.6-6.25.94-12.41.94-18.66,0-30-7.45-54.44-16.6-54.44s-16.61,24.4-16.61,54.44c0,6.25.34,12.49.94,18.66Z"/><path class="cls-16" d="M195.37,434.69v73.09H179.71c-.6-6.25-.94-12.41-.94-18.66C178.77,459.08,186.21,434.69,195.37,434.69Z"/><path class="cls-14" d="M148.89,507.87a26.59,26.59,0,1,1,53.16-1.12v1.12Z"/><path class="cls-16" d="M175.43,481.25a26.58,26.58,0,0,0-26.62,26.53h26.62Z"/><path class="cls-14" d="M414.23,507.87a99,99,0,0,0,.6-10c0-16.52-4.45-29.87-9.93-29.87s-10,13.35-10,29.87a80.18,80.18,0,0,0,.59,10Z"/><path class="cls-16" d="M404.81,468v39.89H395.4a99,99,0,0,1-.6-10C394.8,481.33,399.34,468,404.81,468Z"/><path class="cls-14" d="M397.62,507.87a27,27,0,0,0,.6-5.91c0-9.67-4.45-17.46-10-17.46s-9.93,7.79-9.93,17.46a27.58,27.58,0,0,0,.6,5.91Z"/><path class="cls-16" d="M388.21,484.5c-5.48,0-9.93,7.79-9.93,17.46a26.19,26.19,0,0,0,.6,5.82h9.41Z"/><path class="cls-17" d="M537.82,507.87c-2.56,3.42-5.13,6.67-7.87,9.93-1.88,2.22-3.77,4.45-5.74,6.67H125.87c-2-2.14-3.85-4.36-5.74-6.67-2.73-3.26-5.3-6.59-7.87-9.93Z"/><path class="cls-18" d="M117.48,514.46H532.6c1.71-2.23,3.51-4.37,5.14-6.68H112.35Q114.78,511.25,117.48,514.46Z"/><path class="cls-5" d="M240.31,501.19h0a5,5,0,0,1,5,5V542.7a5,5,0,0,1-5,5h0a5,5,0,0,1-5-5V506.16A4.93,4.93,0,0,1,240.31,501.19Z"/><path class="cls-5" d="M260.25,484.59h0a5,5,0,0,1,5,5V526.1a5,5,0,0,1-5,5h0a5,5,0,0,1-5-5V489.55A4.92,4.92,0,0,1,260.25,484.59Z"/><path class="cls-5" d="M250.23,494.52a5,5,0,0,0-5,5v19.94a5,5,0,0,1,5.22-4.71,4.87,4.87,0,0,1,4.71,4.71V499.48A5,5,0,0,0,250.23,494.52Z"/><path class="cls-16" d="M172.17,497.85h0a3.29,3.29,0,0,1,3.34,3.34v39.89a3.35,3.35,0,0,1-3.34,3.34h0a3.34,3.34,0,0,1-3.33-3.34V501.19A3.29,3.29,0,0,1,172.17,497.85Z"/><path class="cls-16" d="M158.82,491.18h0a3.28,3.28,0,0,1,3.34,3.34V534.4a3.34,3.34,0,0,1-3.34,3.34h0a3.35,3.35,0,0,1-3.34-3.34V494.52A3.4,3.4,0,0,1,158.82,491.18Z"/><path class="cls-16" d="M165.5,504.44a3.35,3.35,0,0,0-3.34,3.34v16.61a3.34,3.34,0,0,1,6.68-.35V507.87a3.37,3.37,0,0,0-3.34-3.43Z"/><path class="cls-5" d="M519.34,440.51c-26.45,44.08-58.12,73.69-70.7,66.16s-1.37-49.39,25.08-93.47S544.41,347,544.41,347,545.78,396.43,519.34,440.51Z"/><path class="cls-3" d="M421.42,507.87a53.2,53.2,0,1,1,106.39-1.63v1.54H421.42Z"/><path class="cls-3" d="M243.64,238.59H201.87A30,30,0,0,0,172.17,212h0a30,30,0,0,0-29.87,29.87v5.56A14.45,14.45,0,0,1,128,261.79H115.6a23.37,23.37,0,0,0-23.2,23.37h0a23.36,23.36,0,0,0,23.28,23.28h63.17a23.35,23.35,0,0,0,23.28-23.28h0a20.79,20.79,0,0,0-.26-3.34h41.86a21.59,21.59,0,0,0,21.57-21.57h0A21.75,21.75,0,0,0,243.64,238.59Z"/><path class="cls-4" d="M167.12,245.27h-8.3v-3.34a30.17,30.17,0,0,1,21.66-28.76,30.46,30.46,0,0,0-8.31-1.19h0a30,30,0,0,0-29.87,29.87v5.56A14.31,14.31,0,0,1,128,261.7H115.6a23.51,23.51,0,0,0-23.2,23.46h0a23.36,23.36,0,0,0,23.28,23.28h16.61A23.35,23.35,0,0,1,109,285.16h0a23.35,23.35,0,0,1,23.28-23.28h34.92a8.31,8.31,0,0,0,.68-16.61Z"/><path class="cls-5" d="M280.19,195.37h23.28a5,5,0,0,1,5,5h0a5,5,0,0,1-5,5H280.19a5,5,0,0,1-5-5h0A5,5,0,0,1,280.19,195.37Z"/><path class="cls-5" d="M409.78,175.43h49.9a5,5,0,0,1,5,5h0a5,5,0,0,1-5,5h-49.9a5,5,0,0,1-5-5h0A5,5,0,0,1,409.78,175.43Z"/><path class="cls-4" d="M433.06,477.91a22.75,22.75,0,0,0-2.48.09,53,53,0,0,0-9.16,29.87h69.76A71.19,71.19,0,0,0,433.06,477.91Z"/><polygon class="cls-8" points="304.16 264.44 308.61 231.75 313.49 264.44 304.16 264.44"/><polygon class="cls-10" points="346.27 264.44 350.72 231.75 355.6 264.44 346.27 264.44"/><path class="cls-19" d="M218.65,55.77h212.7a19.9,19.9,0,0,1,19.94,19.94h0a19.91,19.91,0,0,1-19.94,20H218.65a19.91,19.91,0,0,1-19.94-20h0A20,20,0,0,1,218.65,55.77Z"/><path class="cls-20" d="M238.59,75.71h0a20,20,0,0,1,20-19.94H218.65a20,20,0,0,0-19.94,19.94h0a20,20,0,0,0,19.94,20h39.89A20,20,0,0,1,238.59,75.71Z"/><path class="cls-5" d="M381.53,539.45a51.53,51.53,0,1,1,103.06,0Z"/><path class="cls-17" d="M376.57,534.4H492.89a5,5,0,0,1,5,5h0a5,5,0,0,1-5,5H376.57a5,5,0,0,1-5-5h0A5,5,0,0,1,376.57,534.4Z"/><path class="cls-21" d="M158.82,554.34H494.51a19.92,19.92,0,0,1,20,19.95h0a19.91,19.91,0,0,1-20,19.94H158.82a19.9,19.9,0,0,1-19.94-19.94h0A20,20,0,0,1,158.82,554.34Z"/><path class="cls-18" d="M494.6,554.34H464.73a20,20,0,0,1,19.94,19.95h0a20,20,0,0,1-19.94,19.94H494.6a20,20,0,0,0,19.94-19.94h0A20.13,20.13,0,0,0,494.6,554.34Z"/><path class="cls-7" d="M554.43,268.47V305.1A20,20,0,0,1,534.49,325h0a20,20,0,0,1-20-19.94V268.47"/><circle class="cls-22" cx="401.48" cy="260.25" r="13.27"/><path class="cls-23" d="M401.48,246.89a14.64,14.64,0,0,0-3.34.43,13.3,13.3,0,0,1,0,25.76,14.64,14.64,0,0,0,3.34.43,13.32,13.32,0,0,0,.77-26.62Z"/><ellipse class="cls-23" cx="395.72" cy="254.52" rx="4.96" ry="3.34" transform="translate(-64.07 354.36) rotate(-45)"/><circle class="cls-22" cx="541.08" cy="451.68" r="13.27"/><path class="cls-23" d="M541.08,438.32a15.21,15.21,0,0,0-3.34.43,13.3,13.3,0,0,1,0,25.77,15.2,15.2,0,0,0,3.34.42,13.31,13.31,0,0,0,0-26.62Z"/><ellipse class="cls-23" cx="535.32" cy="445.94" rx="4.96" ry="3.34" transform="translate(-158.54 509.14) rotate(-45)"/><circle class="cls-22" cx="477.91" cy="427.61" r="13.27"/><path class="cls-23" d="M477.91,414.35a14.71,14.71,0,0,0-3.34.43,13.29,13.29,0,0,1,0,25.76,14.71,14.71,0,0,0,3.34.43,13.31,13.31,0,0,0,0-26.62Z"/><ellipse class="cls-23" cx="472.15" cy="421.87" rx="4.96" ry="3.34" transform="translate(-160.02 457.43) rotate(-45)"/><circle class="cls-22" cx="275.23" cy="301.76" r="13.27"/><path class="cls-23" d="M275.23,288.41a14.64,14.64,0,0,0-3.34.43,13.26,13.26,0,0,1,0,25.67,14.64,14.64,0,0,0,3.34.43,13.27,13.27,0,0,0,0-26.53Z"/><ellipse class="cls-23" cx="269.5" cy="296.04" rx="4.96" ry="3.34" transform="translate(-130.39 277.28) rotate(-45)"/><circle class="cls-22" cx="245.27" cy="276.47" r="13.27"/><path class="cls-23" d="M245.27,263.21a14.71,14.71,0,0,0-3.34.43,13.29,13.29,0,0,1,0,25.76,14.71,14.71,0,0,0,3.34.43,13.31,13.31,0,0,0,0-26.62Z"/><ellipse class="cls-23" cx="239.54" cy="270.73" rx="4.96" ry="3.34" transform="translate(-121.28 248.67) rotate(-45)"/><circle class="cls-22" cx="118.94" cy="395.47" r="13.27"/><path class="cls-23" d="M118.94,382.2a14.64,14.64,0,0,0-3.34.43,13.3,13.3,0,0,1,0,25.76,14.64,14.64,0,0,0,3.34.43,13.32,13.32,0,0,0,.77-26.62,1.27,1.27,0,0,0-.77,0Z"/><ellipse class="cls-23" cx="113.19" cy="389.74" rx="4.96" ry="3.34" transform="translate(-242.43 194.19) rotate(-45)"/><ellipse class="cls-3" cx="312.46" cy="294.79" rx="23.28" ry="9.93"/><path class="cls-3" d="M272.57,278.18a16.61,16.61,0,1,1,0,33.21h0"/><path class="cls-24" d="M196.91,554.34a264.76,264.76,0,0,1-36.8-36.54c-2.74-3.26-5.31-6.59-7.88-9.93C64.07,390.35,87.87,223.62,205.38,135.46a266.36,266.36,0,0,1,53.16-31V95.66h-40v8.81C84,163.36,22.56,320.08,81.28,454.71a266.15,266.15,0,0,0,31,53.24c2.57,3.43,5.14,6.68,7.87,9.93a266,266,0,0,0,36.81,36.55l4.11,3.34c1.37,1.11,2.82,2.22,4.28,3.34h40c-1.45-1.12-2.91-2.23-4.28-3.34A40.9,40.9,0,0,1,196.91,554.34Z"/><path class="cls-25" d="M269.92,554.34a264.76,264.76,0,0,1-36.8-36.54c-2.74-3.26-5.31-6.59-7.88-9.93a266,266,0,0,1-13.61-299.15c2.83-4.53,5.74-9,8.82-13.26a267,267,0,0,1,58-59.83h-73.1a267,267,0,0,0-58,59.83c-3.08,4.36-6,8.81-8.81,13.26a266,266,0,0,0,13.61,299.15c2.56,3.42,5.13,6.67,7.87,9.93a264.84,264.84,0,0,0,36.81,36.54q2,1.68,4.1,3.34c1.37,1.11,2.83,2.23,4.28,3.34h73.1c-1.46-1.11-2.91-2.23-4.28-3.34S271.2,555.46,269.92,554.34Z"/><ellipse class="cls-25" cx="537.51" cy="246.14" rx="22.17" ry="41.77" transform="translate(-53.62 254.05) rotate(-25.37)"/><ellipse class="cls-6" cx="288.15" cy="185.35" rx="29.87" ry="9.93"/><path class="cls-6" d="M331.38,198.7a13.32,13.32,0,1,1-.77-26.62h.77Z"/></g></g></svg>