<?xml version="1.0" encoding="utf-8"?>
<!-- Generator: Adobe Illustrator 24.3.0, SVG Export Plug-In . SVG Version: 6.00 Build 0)  -->
<svg version="1.1" id="Layer_1" xmlns="http://www.w3.org/2000/svg" xmlns:xlink="http://www.w3.org/1999/xlink" x="0px" y="0px"
	 viewBox="0 0 650 650" style="enable-background:new 0 0 650 650;" xml:space="preserve">
<style type="text/css">
	.st0{fill:#6E7832;}
	.st1{fill:#324100;}
	.st2{fill:none;stroke:#333F00;stroke-width:1.0993;stroke-miterlimit:10;}
	.st3{fill:#D8AA91;}
	.st4{fill:#006464;}
	.st5{fill:#0F373C;}
	.st6{fill:#E6A073;}
	.st7{fill:#D37E44;}
	.st8{fill:#AF500E;}
	.st9{fill:#059999;}
	.st10{fill:#D25A3C;}
	.st11{fill:#FF8764;}
	.st12{fill:#E8A272;}
	.st13{fill:#843500;}
	.st14{fill:#7C3200;}
	.st15{fill:none;stroke:#AF500E;stroke-width:21.9869;stroke-miterlimit:10;}
</style>
<g>
	<path class="st0" d="M195.9,418.3c21.8,51.5,22.4,100.5,22.4,100.5s-34.8-34.5-56.7-86s-22.4-100.5-22.4-100.5
		S174,366.8,195.9,418.3z"/>
	<g>
		<path class="st1" d="M89.3,388.1c5.4,3,12.3,1.1,15.3-4.4c3-5.4,1.1-12.3-4.4-15.3c-5.5-3-25.2-1.2-25.2-1.2S83.9,385,89.3,388.1z
			"/>
		<path class="st1" d="M161.6,432.9c21.8,51.5,56.7,86,56.7,86l-79.1-186.5C139.2,332.4,139.8,381.4,161.6,432.9z"/>
		<path class="st0" d="M95.3,382.1c1.2,2.1,3.1,3.8,5.4,4.7c0.9,0.3,1.8,0.5,2.7,0.6c1.9,0.1,3.7-0.5,5.2-1.7
			c4.2-3.2,4.9-10.1,1.8-15.4c-3.2-5.3-19.1-13.1-19.1-13.1S92.1,376.9,95.3,382.1z"/>
		<path class="st2" d="M162.2,432.1c-6.2-25-20.7-43.4-37.4-45.9c-1.7-0.3-15.2-2.1-22.3,5.9c-3.9,4.4-6.8,12.9-2.1,18.3
			c2.9,3.3,8.1,4.7,12.5,3.7c4.9-0.9,8.8-4.8,9.7-9.7"/>
	</g>
</g>
<g>
	<path class="st0" d="M555.5,535.8c-27.9,20.4-61.5,21.9-61.5,21.9s11.7-31.5,39.6-51.9c27.9-20.4,61.5-21.8,61.5-21.8
		S583.4,515.4,555.5,535.8z"/>
	<path class="st1" d="M533.6,505.8c-27.9,20.4-39.6,51.9-39.6,51.9l101.1-73.7C595.1,483.9,561.5,485.4,533.6,505.8z"/>
	<path class="st0" d="M527.9,520.1c-12,32.4-39.1,52.2-39.1,52.2s-7.7-32.7,4.2-65.1c11.9-32.4,39.1-52.2,39.1-52.2
		S539.8,487.7,527.9,520.1z"/>
	<path class="st1" d="M493,507.2c-12,32.4-4.2,65.1-4.2,65.1L532.1,455C532.1,455,505,474.8,493,507.2z"/>
	<path class="st0" d="M541.5,522.3c-20.5,24.2-51.2,31.9-51.2,31.9s2.4-31.6,22.8-55.8s51.2-31.9,51.2-31.9S561.9,498.1,541.5,522.3
		z"/>
	<path class="st1" d="M513.1,498.3c-20.5,24.2-22.8,55.8-22.8,55.8l74.1-87.7C564.3,466.5,533.5,474.1,513.1,498.3z"/>
	<path class="st3" d="M95.2,553.6h280.5c4.3,0,7.8,3.5,7.8,7.8v0c0,4.3-3.5,7.8-7.8,7.8H95.2c-4.3,0-7.8-3.5-7.8-7.8v0
		C87.4,557.1,90.9,553.6,95.2,553.6z"/>
	<path class="st3" d="M367.9,563h174.5c3.4,0,6.2,2.8,6.2,6.2v0c0,3.4-2.8,6.2-6.2,6.2H367.9c-3.4,0-6.2-2.8-6.2-6.2v0
		C361.6,565.8,364.4,563,367.9,563z"/>
	<path class="st3" d="M156,581.7h90.4c3.4,0,6.2,2.8,6.2,6.2v0c0,3.4-2.8,6.2-6.2,6.2H156c-3.4,0-6.2-2.8-6.2-6.2v0
		C149.7,584.5,152.5,581.7,156,581.7z"/>
	<path class="st4" d="M214.7,490.7c10.2,25.6-2.3,54.6-27.9,64.8s-54.6-2.3-64.8-27.9c-10.2-25.6,9.5-111.1,9.5-111.1
		S204.6,465.1,214.7,490.7z"/>
	<path class="st5" d="M131.5,416.5c0,0-19.6,85.5-9.5,111.1c10.2,25.6,39.2,38.1,64.8,27.9L131.5,416.5z"/>
	<rect x="205.8" y="388.5" class="st6" width="249.3" height="99.7"/>
	<path class="st6" d="M430.2,363.5H230.8c0,13.8-11.1,24.9-24.9,24.9h249.3C441.4,388.5,430.2,377.3,430.2,363.5z"/>
	<path class="st6" d="M199.6,388.5h261.8c3.4,0,6.2,2.8,6.2,6.2v0c0,3.4-2.8,6.2-6.2,6.2H199.6c-3.4,0-6.2-2.8-6.2-6.2v0
		C193.4,391.2,196.2,388.5,199.6,388.5z"/>
	<polygon class="st6" points="455.1,463.2 205.8,463.2 180.9,488.2 180.9,563 480.1,563 480.1,488.2 	"/>
	<path class="st7" d="M283.7,463.2v-62.3h-6.2c-3.4,0-6.2-2.8-6.2-6.2c0-3.4,2.8-6.2,6.2-6.2c0,0,0,0,0,0h6.2
		c13.8,0,24.9-11.2,24.9-24.9c0,0,0,0,0,0h-77.9c0,13.8-11.1,24.9-24.9,24.9h-6.2c-3.4,0-6.2,2.8-6.2,6.2c0,3.4,2.8,6.2,6.2,6.2h6.2
		v62.3l-25,24.9v74.8h77.9v-74.8L283.7,463.2z"/>
	<path class="st8" d="M224.5,463.2v-62.3h-6.2c-3.4,0-6.2-2.8-6.2-6.2c0-3.4,2.8-6.2,6.2-6.2h6.2c13.8,0,24.9-11.2,24.9-24.9h-18.7
		c0,13.8-11.2,24.9-24.9,24.9h-6.2c-3.4,0-6.2,2.8-6.2,6.2c0,3.4,2.8,6.2,6.2,6.2h6.2v62.3l-25,24.9v74.8h18.7v-74.8L224.5,463.2z"
		/>
	<polygon class="st7" points="180.9,488.2 480.1,488.2 455.1,463.2 205.8,463.2 	"/>
	<rect x="205.8" y="400.9" class="st7" width="249.3" height="9.3"/>
	<path class="st5" d="M392.8,494.4c5.9,0,11.8,1.4,17,4.1c11.5-25,41.1-36,66.1-24.5c10.8,5,19.5,13.7,24.5,24.5
		c18.4-9.4,40.9-2.1,50.3,16.3c9.4,18.4,2.1,40.9-16.3,50.3c-5.2,2.7-11,4.1-16.9,4.1H392.8c-20.6,0-37.4-16.7-37.4-37.4
		C355.4,511.2,372.2,494.4,392.8,494.4L392.8,494.4L392.8,494.4z"/>
	<rect x="205.8" y="400.9" class="st8" width="77.9" height="9.3"/>
	<polygon class="st8" points="283.7,463.2 205.8,463.2 180.9,488.2 258.8,488.2 	"/>
	<path class="st8" d="M205.9,388.5h77.9c13.7,0,24.9-11.2,24.9-24.9h-77.9C230.7,377.3,219.6,388.4,205.9,388.5z"/>
	<path class="st4" d="M155.2,523.7c8.2,10.3,6.5,25.4-3.9,33.6c-9.9,7.9-24.2,6.6-32.7-2.8c-8.5-10.1-12.5-51.9-12.5-51.9
		S146.7,513.6,155.2,523.7z"/>
	<path class="st5" d="M106.1,502.5c0,0,4,41.8,12.5,51.9c8.5,10.1,23.6,11.4,33.7,2.9c0,0,0,0,0,0L106.1,502.5z"/>
	<rect x="342.9" y="407.2" class="st7" width="53" height="37.4"/>
	<rect x="342.9" y="410.3" class="st8" width="53" height="6.2"/>
	<rect x="283.7" y="450.8" class="st7" width="24.9" height="12.5"/>
	<rect x="258.8" y="550.5" class="st7" width="24.9" height="12.5"/>
	<rect x="258.8" y="538" class="st7" width="12.5" height="12.5"/>
	<rect x="283.7" y="438.3" class="st7" width="12.5" height="12.5"/>
	<rect x="430.2" y="450.8" class="st7" width="24.9" height="12.5"/>
	<rect x="442.7" y="438.3" class="st7" width="12.5" height="12.5"/>
	<rect x="224.5" y="556.7" class="st8" width="149.6" height="6.2"/>
	<rect x="205.8" y="457" class="st8" width="249.3" height="6.2"/>
	<path class="st4" d="M455.1,469.5c-19.5,0-37.2,11.3-45.3,29c-18.4-9.4-40.9-2.1-50.3,16.3c-9.4,18.4-2.1,40.9,16.3,50.3
		c5.2,2.7,11,4.1,16.9,4.1h62.3V469.5z"/>
	<path class="st5" d="M377.2,531.8c0-16.5,10.8-31,26.5-35.8c-19.8-6-40.6,5.2-46.6,25c-6,19.8,5.2,40.6,25,46.6
		c3.5,1,7.1,1.6,10.7,1.6h21.8C394,569.2,377.2,552.5,377.2,531.8C377.2,531.8,377.2,531.8,377.2,531.8z"/>
	<path class="st9" d="M529.9,531.8c0-15.8-10-30-24.9-35.3c19.5-6.8,40.8,3.4,47.6,22.9s-3.4,40.8-22.9,47.6
		c-4,1.4-8.1,2.1-12.3,2.1h-24.9C513.2,569.2,529.9,552.5,529.9,531.8C529.9,531.8,529.9,531.8,529.9,531.8z"/>
	<path class="st5" d="M400.1,550.5c0,6.4,1.1,12.7,3.3,18.7h101.5c10.3-28-4-59.1-32-69.5c-28-10.3-59.1,4-69.5,32
		C401.2,537.8,400.1,544.1,400.1,550.5L400.1,550.5z"/>
	<path class="st4" d="M415.7,569.2c-10.3-21.8-1.1-47.8,20.7-58.1c21.8-10.3,47.8-1.1,58.1,20.7c5.6,11.8,5.6,25.6,0,37.4H415.7z"/>
	<path class="st9" d="M445.8,507.9c3.1-0.7,6.2-1,9.3-1c24.1,0,43.6,19.5,43.6,43.6c0,6.5-1.4,12.9-4.2,18.7h-18.7
		c10.3-21.8,1.1-47.8-20.7-58.1C452.2,509.7,449,508.6,445.8,507.9L445.8,507.9z"/>
	<path class="st10" d="M231.6,571.5c-6.6,15.9-24.9,23.4-40.8,16.8c-15.7-6.5-23.2-24.4-17-40.2c6.5-16,52.3-46,52.3-46
		S238.1,555.6,231.6,571.5z"/>
	<path class="st11" d="M226.1,502.1c0,0-45.8,30.1-52.3,46c-6.5,15.9,1.2,34.1,17.2,40.6L226.1,502.1z"/>
	<rect x="424" y="410.3" class="st7" width="31.2" height="15.6"/>
	<rect x="233.9" y="382.2" class="st8" width="211.9" height="6.2"/>
	<path class="st0" d="M339,514l-1.1-36.8c-0.3-9.5-9-13.8-16.7-8.2l-29.8,21.6c-5.2,3.8-7.7,10.2-6.6,16.6l0.5,2.2
		c1.5,6.9,7.8,10,14.2,7l0,0c6.3-3,12.7,0.1,14.2,7l0,0c1.5,6.9,7.8,10,14.2,7l2.1-1C335.6,526.3,339.1,520.4,339,514z"/>
	<path class="st1" d="M299.5,516.3c-6.3,3-12.7-0.1-14.2-7l-0.5-2.2c-1.1-6.3,1.4-12.7,6.6-16.6l29.8-21.7c3.8-2.8,7.9-3.1,11.1-1.5
		l-24,48.7C305.6,514.8,302.3,514.9,299.5,516.3z"/>
	<path class="st0" d="M290,525.1l-18.3-13.3c-4.7-3.4-10.1-0.8-10.3,5l-0.6,22.6c-0.1,4,2.1,7.6,5.6,9.4l1.3,0.6
		c2.8,1.6,6.4,0.6,8-2.3c0.3-0.6,0.6-1.3,0.7-2l0,0c0.5-3.2,3.5-5.4,6.7-5c0.7,0.1,1.4,0.3,2,0.7l0,0c2.8,1.6,6.4,0.6,8-2.3
		c0.3-0.6,0.6-1.3,0.7-2l0.3-1.4C294.8,531.4,293.2,527.5,290,525.1z"/>
	<path class="st1" d="M276.3,545.2c-0.5,3.2-3.5,5.4-6.7,5c-0.7-0.1-1.4-0.3-2-0.7l-1.3-0.6c-3.5-1.8-5.7-5.5-5.6-9.4l0.7-22.6
		c-0.1-2.5,1.2-4.8,3.4-6l14.7,30C277.9,541.7,276.7,543.3,276.3,545.2z"/>
	<path class="st12" d="M352.3,119.5L352.3,119.5c-20.7,0-34.3,16.7-34.3,37.4v53h34.3V119.5z"/>
	<path class="st8" d="M293.1,250.4v2c8.5-2.3,17.5,0.7,22.9,7.5l42.5,52.9v49.9h18.7v-59.2l-18.7-21.8l16-21.5
		c2.3-2.9,4.2-6.1,5.7-9.5l0.1-0.2H293.1z"/>
	<path class="st13" d="M293.1,250.4v2c8.5-2.3,17.5,0.7,22.9,7.5l17.4,21.7h25.1l16-21.5c2.3-2.9,4.2-6.1,5.7-9.5l0.1-0.2H293.1z"/>
	<rect x="240.1" y="225.5" class="st8" width="18.7" height="137.1"/>
	<rect x="240.1" y="234.8" class="st13" width="18.7" height="46.7"/>
	<path class="st8" d="M470.6,247.3c-1.7-29.7-26.3-52.9-56-53h-56.1v24.9h49.9c17.2,0,31.1,14,31.2,31.2v12.5
		c0,17.2,14,31.2,31.2,31.2l0,0v-46.7H470.6z"/>
	<path class="st14" d="M470.6,247.3c-1.7-29.7-26.3-52.9-56-53h-12.5c29.7,0.1,54.3,23.3,56,53h0.1v44.1c3.9,1.7,8.2,2.6,12.5,2.6
		L470.6,247.3L470.6,247.3z"/>
	<path class="st14" d="M410.3,194.3h-51.8v24.9h49.9c8.2,0,16.1,3.3,21.9,9.1C428.5,214.7,421.3,202.5,410.3,194.3z"/>
	<rect x="268.2" y="225.5" class="st12" width="18.7" height="137.1"/>
	<path class="st12" d="M420.8,235.3c0.2-21.3-16.1-39.2-37.4-40.8v-0.1H280.8c-12.1,0-22-9.8-22-22v-21.7c0-28.6-22.7-52-51.2-52.9
		c-1.1,0-2.3,0.3-3.2,0.9L156.2,128c-2.8,1.7-3.7,5.4-2,8.2c0.2,0.4,0.5,0.8,0.9,1.1l8.3,8.3c5,5.1,12.4,4.9,19.3,3.1l15.7-3.9
		c3.2-0.8,6.5,1.2,7.3,4.4c0.1,0.5,0.2,1,0.2,1.4v58.9c0,32.9,26.6,59.5,59.5,59.5c0,0,0,0,0,0h20.4c0.8,0,1.5-0.1,2.2-0.4
		l40.3-15.2c9-3.5,19.2-1.3,25.2,6.2l41.2,51.3c0.9,1.1,1.3,2.4,1.3,3.8v50.9h18.7v-40.5l0,0v-19.9c0-1.2-0.4-2.5-1.1-3.5
		l-12.2-17.1c-1.4-1.9-1.5-4.5-0.3-6.6l10.7-17.8c0.1-0.2,0.3-0.4,0.4-0.6c2.2-2.8,4.1-5.9,5.5-9.2l0.1-0.2l0,0
		C419.8,245.6,420.8,240.4,420.8,235.3z"/>
	<path class="st7" d="M420.9,235.3c0.2-21.3-16.1-39.2-37.4-40.8v-0.1h-12c18.6,6.9,30.9,24.8,30.7,44.7c-0.1,6-1.3,12-3.7,17.6l0,0
		l-0.1,0.3c-1.6,3.8-3.8,7.4-6.4,10.7c-0.2,0.2-0.3,0.4-0.5,0.7l-12.4,20.7c-0.4,0.6-0.6,1.3-0.8,1.9l16.2,20.2
		c0.9,1.1,1.3,2.4,1.3,3.8v47.8h18.7v-37.4l0,0v-19.9c0-1.2-0.4-2.5-1.1-3.5l-12.2-17.1c-1.4-1.9-1.5-4.5-0.3-6.6l10.7-17.8
		c0.1-0.2,0.3-0.4,0.4-0.6c2.2-2.8,4.1-5.9,5.5-9.2l0.1-0.2l0,0C419.8,245.6,420.8,240.5,420.9,235.3z"/>
	<path class="st7" d="M224.2,209.6v-58.9c0-3.3-2.7-6-6-6c-0.5,0-1,0.1-1.5,0.2l-12.4,3.1c0.4,0.8,0.6,1.8,0.6,2.7v58.9
		c0,32.9,26.6,59.5,59.5,59.5h19.2C250.9,269.1,224.3,242.5,224.2,209.6z"/>
	<rect x="240.1" y="350.1" class="st13" width="18.7" height="12.5"/>
	<rect x="268.2" y="350.1" class="st7" width="18.7" height="12.5"/>
	<rect x="358.5" y="350.1" class="st13" width="18.7" height="12.5"/>
	<rect x="395.9" y="350.1" class="st13" width="18.7" height="12.5"/>
	<circle class="st8" cx="205.8" cy="119.5" r="6.2"/>
	<path class="st8" d="M352.3,169.4L352.3,169.4v24.9h24.9l0,0C363.8,193.5,353.1,182.8,352.3,169.4z"/>
	<rect x="336.7" y="82.1" class="st12" width="15.6" height="49.9"/>
	<path class="st12" d="M311.8,82.1h49.9c1.7,0,3.1,1.4,3.1,3.1v0c0,1.7-1.4,3.1-3.1,3.1h-49.9c-1.7,0-3.1-1.4-3.1-3.1v0
		C308.7,83.5,310.1,82.1,311.8,82.1z"/>
	<path class="st12" d="M321.1,82.1h24.9l0,0v34.3l0,0h-12.8c-6.7,0-12.1-5.4-12.1-12.1L321.1,82.1L321.1,82.1z"/>
	<path class="st12" d="M324.3,82.1l9.7-46.7c0.4-1.5,2-2.5,3.5-2.1c1,0.3,1.8,1.1,2.1,2.1l9.7,46.7L324.3,82.1z"/>
	<path class="st12" d="M293.1,194.3H318v-24.9C318,183.1,306.8,194.3,293.1,194.3z"/>
	<polygon class="st8" points="352.3,194.3 314.9,225.5 314.9,259.8 327.4,253.5 327.4,228.6 371,194.3 	"/>
	<rect x="299.3" y="222.4" class="st12" width="18.7" height="59.2"/>
	<polygon class="st8" points="349.2,82.1 324.3,82.1 326.2,72.8 347.3,72.8 	"/>
	<polygon class="st12" points="347.3,72.8 326.2,72.8 328.1,63.4 345.3,63.4 	"/>
	<polygon class="st8" points="345.3,63.4 328.1,63.4 330.1,54.1 343.4,54.1 	"/>
	<polygon class="st12" points="343.4,54.1 330.1,54.1 332,44.7 341.5,44.7 	"/>
	<polygon class="st8" points="341.5,44.7 332,44.7 333.9,35.4 339.5,35.4 	"/>
	<polygon class="st8" points="321.1,103.9 321.1,88.4 352.3,88.4 	"/>
	<polygon class="st7" points="286.9,281.6 274.4,290.9 274.4,297.2 286.9,297.2 	"/>
	<path class="st12" d="M299.3,278.5l-18.7,12.5v6.2h27c5.8,0,10.4-4.7,10.4-10.4v-8.3H299.3z"/>
	<path class="st7" d="M336.7,138.2v28h-31.1c-8.6,0-15.6,7-15.6,15.6h62.3v-59.2C343.7,122.6,336.7,129.6,336.7,138.2
		C336.7,138.2,336.7,138.2,336.7,138.2z"/>
	<path class="st7" d="M299.3,194.3h-18.5c-4.5,0-9-1.4-12.7-4v78.8h17.6c0.8,0,1.5-0.1,2.2-0.4l11.4-4.3V194.3z"/>
	<path class="st15" d="M207.4,97.7c28.5,0.9,51.2,24.4,51.2,52.9v21.7c0,12.1,9.8,22,22,22h12.5"/>
	<path class="st13" d="M233.9,93.3c-8.1-4-17-6.2-26.1-6.5l-0.7,22c9.9,0.3,19.4,4.1,26.8,10.8V93.3z"/>
	<path class="st12" d="M218.3,88.4v24.9h-12.4V75.9C212.7,75.9,218.3,81.5,218.3,88.4z"/>
</g>
</svg>
