<?xml version="1.0" encoding="utf-8"?>
<!-- Generator: Adobe Illustrator 24.3.0, SVG Export Plug-In . SVG Version: 6.00 Build 0)  -->
<svg version="1.1" id="Layer_1" xmlns="http://www.w3.org/2000/svg" xmlns:xlink="http://www.w3.org/1999/xlink" x="0px" y="0px"
	 viewBox="0 0 1366 667" style="enable-background:new 0 0 1366 667;" xml:space="preserve">
<style type="text/css">
	.st0{fill:#F5A03C;}
	.st1{fill:#E2BBAA;}
	.st2{fill:#FAEBDC;}
	.st3{fill:#001C1E;}
	.st4{fill:#FFD3AB;}
	.st5{fill:#006464;}
	.st6{fill:#0F373C;}
	.st7{fill:#EA7500;}
	.st8{fill:none;stroke:#301300;stroke-width:5;stroke-miterlimit:10;}
	.st9{fill:#009B97;}
	.st10{fill:#00B5AC;}
	.st11{fill:#FF8764;}
	.st12{fill:#D25A3C;}
	.st13{fill:#BF3116;}
	.st14{fill:#001819;}
	.st15{fill:#E6A073;}
	.st16{fill:#4C1F00;}
	.st17{fill:#C1754C;}
	.st18{fill:#A35431;}
	.st19{fill:#301300;}
	.st20{fill:#994C29;}
	.st21{fill:#00998E;}
	.st22{fill:none;stroke:#001819;stroke-width:20;stroke-miterlimit:10;}
	.st23{fill:#F4A03E;}
	.st24{fill:#A8B28E;}
	.st25{fill:#757B68;}
	.st26{fill:#1C2600;}
	.st27{fill:#DBD7AF;}
	.st28{fill:none;stroke:#001819;stroke-width:5;stroke-miterlimit:10;}
	.st29{fill:none;stroke:#001819;stroke-width:15;stroke-miterlimit:10;}
	.st30{fill:#FFFFFF;}
	.st31{fill:none;stroke:#001819;stroke-width:14.9664;stroke-miterlimit:10;}
	.st32{fill:#EC8E62;}
	.st33{fill:#F6B594;}
	.st34{fill:#DD9980;}
	.st35{fill:#FBF9E0;}
	.st36{fill:#D86A3F;}
	.st37{fill:none;stroke:#C6C29E;stroke-width:4.9888;stroke-linecap:round;stroke-miterlimit:10;}
</style>
<path class="st0" d="M1292.5,451.7l22.6-11.1c0.1-2.8,0.2-5.7,0.2-8.6c0.1-7.8-0.3-15.4-0.9-22.7l-32.9-0.2l31.6-11.1
	c-4.8-33.3-16.9-56.9-31.1-57c-18.8-0.1-34.3,40.4-34.7,90.5c-0.4,50.1,14.6,90.8,33.4,91c16.2,0.1,30-30.1,33.7-70.6L1292.5,451.7z
	"/>
<circle class="st1" cx="1071.9" cy="246.3" r="27.1"/>
<path class="st2" d="M1142.7,293c-10.5-29.7-38.6-49.6-70.1-49.6c-0.4-27.4-22.9-49.2-50.3-48.9c-26.8,0.4-48.5,22-48.9,48.9v0.3
	c-2-0.2-4.1-0.3-6.2-0.3c-41.1,0-74.4,33.3-74.4,74.3c0,41.1,33.3,74.4,74.3,74.4c19.8,0,38.7-7.9,52.7-21.9
	c24,24.1,61.3,28.8,90.5,11.5c21.6,16.7,52.8,12.7,69.5-8.9c16.7-21.6,12.7-52.8-8.9-69.5C1162.8,297,1152.9,293.4,1142.7,293
	L1142.7,293z"/>
<path class="st1" d="M958,272c-4.3,3.5-8.2,7.4-11.7,11.7C949.5,279.2,953.5,275.3,958,272z"/>
<path class="st1" d="M1022.9,223.2c8.4-9.7,20.3-15.7,33.1-16.8c-19.3-17.2-48.7-16.7-67.3,1.3l0,0l-0.2,0.2c-0.5,0.5-1,1-1.5,1.6
	s-1.1,1.1-1.6,1.8c0,0-0.1,0.1-0.1,0.1c-0.5,0.6-1,1.2-1.5,1.8c-1.4,1.8-2.7,3.7-3.8,5.7c-0.9,1.6-1.7,3.2-2.4,4.9
	c-0.3,0.7-0.6,1.5-0.9,2.2c-0.6,1.6-1.1,3.1-1.5,4.8c-0.2,0.5-0.3,1.1-0.4,1.7c-0.3,1.1-0.5,2.2-0.6,3.3c-0.1,0.5-0.2,0.9-0.2,1.4
	s-0.1,0.9-0.2,1.3c-0.2,1.7-0.3,3.4-0.3,5.1c0,0.1,0,0.2,0,0.3l0,0c-2-0.2-4.1-0.3-6.2-0.3c-41.1,0.1-74.3,33.4-74.2,74.5
	c0.1,39.4,30.8,71.9,70.1,74.1c-34.1-22.8-43.4-68.9-20.6-103.1c1.2-1.7,2.4-3.4,3.7-5.1c3.2-4.5,7.2-8.5,11.7-11.8
	c23.5-17.1,56.5-11.8,73.5,11.7c3.3,4.5,5.8,9.5,7.5,14.8c1.5,5.7,2.4,11.5,2.5,17.4c0,0.6,0,1.2,0,1.8c0,4.7-0.4,9.4-1.3,14
	C1063.8,296.6,1056.2,249.1,1022.9,223.2L1022.9,223.2z"/>
<circle class="st1" cx="1064.8" cy="330.6" r="42.4"/>
<circle class="st2" cx="1078.3" cy="338" r="42.1"/>
<circle class="st1" cx="1052.5" cy="258.2" r="27.7"/>
<circle class="st2" cx="1061.3" cy="263" r="27.6"/>
<circle class="st1" cx="959.5" cy="351" r="34.8"/>
<circle class="st2" cx="970.5" cy="357" r="34.6"/>
<circle class="st1" cx="1125.3" cy="361.5" r="25.4"/>
<circle class="st2" cx="1133.4" cy="365.9" r="25.2"/>
<circle class="st1" cx="1145.9" cy="342.2" r="18.6"/>
<circle class="st2" cx="1153.9" cy="347.5" r="18.4"/>
<circle class="st1" cx="1098.1" cy="298.3" r="26.3"/>
<circle class="st2" cx="1109.4" cy="305.8" r="26.1"/>
<polygon class="st3" points="1068.7,454.4 1114,454.4 1114,375 1068.7,380.7 "/>
<circle class="st4" cx="691.7" cy="329.7" r="192.8"/>
<circle class="st1" cx="199.9" cy="328.7" r="30.2"/>
<path class="st2" d="M278.8,380.9c-11.7-33.2-43.1-55.4-78.3-55.4c-0.4-30.6-25.5-55-56.1-54.6c-30,0.4-54.2,24.6-54.6,54.6
	c0,0.1,0,0.2,0,0.3c-2.3-0.2-4.6-0.3-6.9-0.3c-45.8,0-83,37.1-83.1,82.9s37.1,83,82.9,83.1c22.1,0,43.3-8.8,58.9-24.5
	c26.8,26.9,68.4,32.1,101,12.9c24.1,18.7,58.9,14.3,77.6-9.8c18.7-24.1,14.3-58.9-9.8-77.6C301.4,385.3,290.3,381.3,278.8,380.9
	L278.8,380.9z"/>
<path class="st1" d="M72.7,357.5c-4.8,3.9-9.2,8.3-13.1,13.1C63.2,365.5,67.6,361.1,72.7,357.5z"/>
<path class="st1" d="M145.1,302.9c9.4-10.8,22.7-17.5,37-18.7c-21.6-19.2-54.3-18.6-75.1,1.4l0,0l-0.2,0.2c-0.6,0.6-1.2,1.1-1.7,1.8
	s-1.2,1.3-1.8,2c0,0-0.1,0.1-0.1,0.1c-0.6,0.6-1.1,1.4-1.7,2c-1.6,2-3,4.2-4.3,6.4c-1,1.8-1.9,3.6-2.7,5.4c-0.4,0.8-0.7,1.7-1,2.5
	c-0.7,1.7-1.2,3.5-1.7,5.3c-0.2,0.6-0.3,1.2-0.4,1.9c-0.3,1.2-0.5,2.4-0.7,3.7c-0.1,0.5-0.2,1-0.2,1.5s-0.1,1-0.2,1.4
	c-0.2,1.9-0.3,3.8-0.3,5.7c0,0.1,0,0.2,0,0.3l0,0c-2.3-0.2-4.6-0.3-6.9-0.3c-45.8,0.2-82.8,37.5-82.6,83.4
	c0.2,43.8,34.3,79.8,78,82.5c-38.1-25.5-48.4-77-22.9-115.1c1.3-1.9,2.6-3.8,4.1-5.6c3.6-5,8-9.5,13.1-13.1
	c26.3-19.1,63-13.3,82.1,13c3.7,5,6.5,10.6,8.4,16.6c1.7,6.4,2.7,12.9,2.8,19.5c0,0.6,0,1.3,0,2c0,5.3-0.5,10.5-1.5,15.7
	C190.9,384.9,182.4,332,145.1,302.9L145.1,302.9z"/>
<circle class="st1" cx="191.9" cy="422.9" r="47.3"/>
<circle class="st2" cx="206.9" cy="431.1" r="47"/>
<circle class="st1" cx="178.1" cy="342" r="31"/>
<circle class="st2" cx="188" cy="347.4" r="30.8"/>
<circle class="st1" cx="74.3" cy="445.6" r="38.8"/>
<circle class="st2" cx="86.7" cy="452.4" r="38.6"/>
<ellipse transform="matrix(7.088899e-02 -0.9975 0.9975 7.088899e-02 -215.208 683.6949)" class="st1" cx="259.4" cy="457.4" rx="28.4" ry="28.4"/>
<circle class="st2" cx="268.4" cy="462.3" r="28.2"/>
<circle class="st1" cx="282.5" cy="435.8" r="20.7"/>
<circle class="st2" cx="291.4" cy="441.7" r="20.6"/>
<circle class="st1" cx="229.1" cy="386.8" r="29.3"/>
<circle class="st2" cx="241.7" cy="395.1" r="29.1"/>
<circle class="st1" cx="635.6" cy="95.2" r="22"/>
<path class="st2" d="M693,133.1c-8.5-24.1-31.3-40.2-56.9-40.2c0-22.2-18-40.2-40.2-40.2c-22.2,0-40.2,18-40.2,40.2c0,0,0,0,0,0
	c0,0.1,0,0.2,0,0.2c-1.7-0.1-3.3-0.2-5-0.2c-33.3,0-60.3,27-60.3,60.3c0,33.3,27,60.3,60.3,60.3c16,0,31.4-6.4,42.7-17.8
	c19.5,19.5,49.7,23.4,73.4,9.3c17.6,13.6,42.8,10.3,56.4-7.3s10.3-42.8-7.3-56.4C709.3,136.3,701.3,133.4,693,133.1L693,133.1z"/>
<path class="st1" d="M543.2,116.1c-3.5,2.8-6.7,6-9.5,9.5C536.3,121.9,539.5,118.7,543.2,116.1z"/>
<path class="st1" d="M595.8,76.4c6.8-7.9,16.5-12.7,26.9-13.6c-15.7-14-39.5-13.6-54.6,1l0,0L568,64c-0.4,0.4-0.8,0.8-1.2,1.3
	s-0.9,0.9-1.3,1.4c0,0,0,0.1-0.1,0.1c-0.4,0.5-0.8,1-1.2,1.5c-1.2,1.5-2.2,3-3.1,4.7c-0.8,1.3-1.4,2.6-2,4c-0.3,0.6-0.5,1.2-0.7,1.8
	c-0.5,1.3-0.9,2.6-1.2,3.9c-0.1,0.4-0.2,0.9-0.3,1.3c-0.2,0.9-0.4,1.8-0.5,2.7c-0.1,0.4-0.1,0.7-0.2,1.1c-0.1,0.3-0.1,0.7-0.1,1
	c-0.1,1.4-0.2,2.7-0.2,4.1c0,0.1,0,0.1,0,0.2l0,0c-1.7-0.1-3.3-0.2-5-0.2c-33.3,0-60.3,27-60.3,60.3c0,32,25,58.5,57,60.3
	c-27.7-18.5-35.2-55.9-16.7-83.6c0.9-1.4,2-2.8,3-4.1c2.6-3.7,5.8-6.9,9.5-9.5c19.1-13.9,45.8-9.7,59.7,9.4
	c2.7,3.7,4.7,7.8,6.1,12.1c1.2,4.6,1.9,9.4,2,14.1c0,0.5,0,1,0,1.4c0,3.8-0.4,7.6-1.1,11.4C629.1,136,622.9,97.5,595.8,76.4
	L595.8,76.4z"/>
<circle class="st1" cx="629.8" cy="163.6" r="34.4"/>
<circle class="st2" cx="640.8" cy="169.6" r="34.2"/>
<circle class="st1" cx="619.8" cy="104.9" r="22.5"/>
<circle class="st2" cx="627" cy="108.8" r="22.4"/>
<circle class="st1" cx="544.4" cy="180.2" r="28.2"/>
<circle class="st2" cx="553.4" cy="185.1" r="28"/>
<circle class="st1" cx="678.9" cy="188.7" r="20.6"/>
<circle class="st2" cx="685.5" cy="192.2" r="20.5"/>
<circle class="st1" cx="695.7" cy="173" r="15"/>
<circle class="st2" cx="702.2" cy="177.3" r="15"/>
<circle class="st1" cx="656.9" cy="137.4" r="21.3"/>
<circle class="st2" cx="666" cy="143.4" r="21.2"/>
<path class="st5" d="M251.5,370.8c31.6,31.5,49.9,64.3,41.1,73.2s-41.6-9.5-73.2-41.1s-41.1-73.2-41.1-73.2S219.9,339.2,251.5,370.8
	z"/>
<path class="st6" d="M178.3,329.7l114.2,114.2c8.9-8.9-9.5-41.6-41.1-73.2S178.3,329.7,178.3,329.7z"/>
<path class="st5" d="M291.9,365c20.9,39.4,28.8,76.2,17.7,82s-37-21.4-57.8-60.8s-17.7-82-17.7-82S271.1,325.5,291.9,365z"/>
<path class="st6" d="M234.1,304.2L309.6,447c11.1-5.9,3.1-42.6-17.7-82S234.1,304.2,234.1,304.2z"/>
<ellipse class="st0" cx="1213.2" cy="465.7" rx="22.7" ry="79.4"/>
<path class="st7" d="M1213.2,386.4c-12.5,0-22.7,35.5-22.7,79.4s10.2,79.4,22.7,79.4V386.4z"/>
<path class="st7" d="M1281.3,341c-18.8,0-34,40.6-34,90.7s15.2,90.7,34,90.7V341z"/>
<rect y="522.4" class="st5" width="1366" height="144.6"/>
<path class="st8" d="M450.7,290c-8.7,11.4-22.3,32.9-25.5,62.4c-0.9,8.5-0.9,17,0,25.5"/>
<path class="st6" d="M911.3,545.1h209.8c2.3,0,4.2,1.9,4.2,4.2l0,0c0,2.3-1.9,4.2-4.2,4.2H911.3c-2.3,0-4.2-1.9-4.2-4.2l0,0
	C907.1,547,909,545.1,911.3,545.1z"/>
<path class="st8" d="M402.5,307c5.7,76.5,45.4,76.5,45.4,136.1"/>
<path class="st5" d="M386.9,390.9c4.6-35.2-20.1-67.5-55.3-72.1c-35.2-4.6-67.5,20.1-72.1,55.3c-0.7,5.6-0.7,11.2,0,16.8
	c-31,17.2-42.2,56.3-25,87.4s56.3,42.2,87.4,25c0.4-0.2,0.9-0.5,1.3-0.7c30.6,17.9,70,7.7,87.9-22.9s7.7-70-22.9-87.9
	C387.7,391.4,387.3,391.1,386.9,390.9L386.9,390.9z"/>
<path class="st6" d="M287,446.8c0-23.2,12.5-44.6,32.7-56c-0.4-2.8-0.6-5.5-0.6-8.3c0-23.8,13.1-45.6,34.1-56.8
	c-31.4-16.6-70.2-4.7-86.9,26.7c-4.9,9.3-7.5,19.6-7.5,30.1c0,2.8,0.2,5.5,0.5,8.3c-31,17.3-42.1,56.4-24.8,87.4
	c17.1,30.7,55.6,41.9,86.5,25.3C300.1,492.4,287,470.6,287,446.8z"/>
<path class="st9" d="M386.9,390.9c3.5-26.6-9.9-52.5-33.6-65.1l0,0c-1-0.6-2.1-1.1-3.2-1.6l-0.5-0.2c-1-0.4-1.9-0.9-2.9-1.2
	l-0.5-0.2c-1.1-0.4-2.2-0.8-3.3-1.2l-0.1-0.1c-1.2-0.4-2.4-0.7-3.7-1h-0.2c-1.1-0.3-2.2-0.5-3.4-0.7c-0.3-0.1-0.7-0.1-1-0.2
	c-0.9-0.2-1.7-0.3-2.6-0.4l-1.2-0.2c-0.9-0.1-1.7-0.2-2.6-0.2l-1.1-0.1c-1.2-0.1-2.5-0.1-3.7-0.1l0,0c-5.4,0-10.8,0.7-16.1,2
	c1.2,0.3,2.3,0.6,3.4,1l0.2,0.1c1.1,0.4,2.2,0.7,3.3,1.2l0.5,0.2c1,0.4,2,0.8,2.9,1.2l0.5,0.2c1.1,0.5,2.2,1,3.2,1.6l0,0
	c21,11.1,34.1,33,34.1,56.8c0,2.8-0.2,5.5-0.6,8.3c30.9,17.4,41.8,56.6,24.4,87.5c-8.6,15.2-23,26.3-39.9,30.6
	c34.4,8.8,69.4-11.8,78.2-46.2C424.8,434.7,412.2,405.2,386.9,390.9L386.9,390.9z"/>
<path class="st3" d="M286.1,501.9l-1-0.6c-2.9-1.8-5.7-3.9-8.2-6.1c-0.7-0.6-1.3-1.2-2-1.8c-1.1-1.1-2.2-2.1-3.2-3.3
	c-23.9-26.2-22.1-66.8,4.1-90.7c3.6-3.3,7.5-6.1,11.8-8.5c-4.4-32.9,17.2-63.8,49.6-71c-0.6-0.1-1.1-0.3-1.7-0.4
	c-0.3-0.1-0.7-0.1-1-0.2c-0.9-0.2-1.7-0.3-2.6-0.4l-1.2-0.2c-0.9-0.1-1.7-0.2-2.6-0.2l-1.1-0.1c-1.2-0.1-2.5-0.1-3.7-0.1l0,0
	c-35.4,0-64.2,28.7-64.2,64.1c0,2.8,0.2,5.7,0.5,8.5c-30.9,17.4-41.8,56.6-24.4,87.5c2.4,4.2,5.2,8.2,8.5,11.8
	c1,1.1,2.1,2.2,3.2,3.3c0.6,0.6,1.3,1.2,2,1.8c2.6,2.3,5.3,4.3,8.2,6.1l1,0.6c10,6,21.4,9.2,33,9.2h0.1c1.4,0,2.7,0,4.1-0.1
	c0.6,0,1.2-0.1,1.8-0.2s1.5-0.1,2.2-0.2s1.6-0.2,2.4-0.4c0.5-0.1,1-0.2,1.6-0.3s1.2-0.3,1.8-0.4C298.3,508,291.9,505.5,286.1,501.9z
	"/>
<path class="st10" d="M932.6,624.5c0,6.3-5.1,11.3-11.3,11.3h-44.5c-8.6,0-15.6,7-15.6,15.6c0,8.6,7,15.6,15.6,15.6H593.9
	c8.6,0,15.6-7,15.6-15.6s-7-15.6-15.6-15.6c0,0,0,0,0,0H484.7c-6.3-0.2-11.2-5.4-11-11.7c0.2-6,5-10.8,11-11h36.9
	c12.5,0,22.7-10.2,22.7-22.7c0-12.5-10.2-22.7-22.7-22.7h-45.4c-12.5-0.3-22.5-10.6-22.2-23.2c0.3-12.2,10-21.9,22.2-22.2h385.5
	c12.5,0.3,22.5,10.6,22.2,23.2c-0.3,12.2-10,21.9-22.2,22.2c-12.5,0-22.7,10.2-22.7,22.7c0,12.5,10.2,22.7,22.7,22.7h59.5
	C927.5,613.2,932.6,618.2,932.6,624.5z"/>
<path class="st11" d="M1068.1,435.4c-37.4,33.4-74.4,52.8-82.8,43.5s15.2-44,52.6-77.3c37.4-33.3,82.8-43.5,82.8-43.5
	S1105.4,402,1068.1,435.4z"/>
<path class="st12" d="M1068.1,435.4c37.4-33.4,52.6-77.4,52.6-77.4L985.3,478.9C993.6,488.2,1030.7,468.7,1068.1,435.4z"/>
<path class="st11" d="M1039,392.5c-18.8,46.4-43.4,80.3-55,75.6s-5.8-46.1,13-92.6s55-75.6,55-75.6S1057.7,346.1,1039,392.5z"/>
<path class="st12" d="M1039,392.5c18.8-46.5,13-92.6,13-92.6l-68,168.2C995.5,472.8,1020.2,439,1039,392.5z"/>
<path class="st13" d="M983.9,468.1c0.7,0.3,1.5,0.4,2.3,0.4c5.8,0,13.9-7.2,22.8-19.4c-4.1-4.8-8.7-9-13.8-12.7
	c8-16.1,12.6-38.8,12.6-62.9c0-6.4-0.3-12.6-0.9-18.7c-3.8,6.6-7.1,13.5-10,20.6C978.1,422,972.3,463.5,983.9,468.1z"/>
<path class="st11" d="M367.7,427.5c31.5,31.5,50,64.3,41.1,73.2s-41.6-9.5-73.2-41.1s-41.1-73.2-41.1-73.2S336.2,395.9,367.7,427.5z
	"/>
<path class="st14" d="M183.5,441c-18.7,18.7-38.1,29.6-43.3,24.3s5.6-24.6,24.3-43.3s43.3-24.3,43.3-24.3S202.2,422.3,183.5,441z"/>
<path class="st14" d="M163.4,419c-14.9,29.5-33.8,50-42,45.8s-2.9-31.5,12.1-61s42-45.8,42-45.8S178.4,389.5,163.4,419z"/>
<path class="st14" d="M70.7,423.1c19,27.1,28.1,53.3,20.5,58.6s-29.1-12.3-48.1-39.4s-20.5-58.6-20.5-58.6S51.8,396.1,70.7,423.1z"
	/>
<path class="st14" d="M383.9,588.8c-18.8,7.5-35.8,9.2-37.9,3.9s11.5-15.6,30.3-23s37.9-3.9,37.9-3.9S402.7,581.4,383.9,588.8z"/>
<path class="st12" d="M294.5,386.4l114.2,114.2c8.9-8.9-9.5-41.6-41.1-73.2S294.5,386.4,294.5,386.4z"/>
<path class="st13" d="M337.3,461.1c31,30.6,62.8,48.2,71.5,39.5c8.9-8.9-9.5-41.6-41.1-73.2c-1.6-1.6-3.3-3.2-4.9-4.7
	c-5.9,8.5-9.3,18.4-9.8,28.8C347.4,454.1,342.1,457.3,337.3,461.1z"/>
<path class="st6" d="M1111.2,454.4c-6.2,0-12.4,1.3-18.2,3.8c-22.9-21.3-58.8-19.9-80.1,3c-9.7,10.5-15.1,24.3-15.1,38.6h158.7
	C1156.5,474.7,1136.2,454.4,1111.2,454.4L1111.2,454.4z"/>
<ellipse class="st0" cx="963.8" cy="373.6" rx="34" ry="78"/>
<path class="st7" d="M959.9,341c0-12.9-4.7-25.3-13.2-34.9c-10.2,13.5-17,38.6-17,67.5c0,43.1,15.2,78,34,78c8.3,0,16-6.9,21.9-18.3
	c-8.1-4.4-16.9-7.2-26-8.4c-1.5-16.1-8-31.2-18.7-43.3C953,371.6,959.9,356.7,959.9,341z"/>
<path class="st6" d="M952.4,431.8L952.4,431.8c0-37.6-30.5-68.1-68.1-68c-37.6,0-68,30.5-67.9,68.1c0,36.4,28.8,66.3,65.1,67.9
	c0,0,0,0,0,0.1h136.1C1017.7,463.3,988.9,433.3,952.4,431.8z"/>
<path class="st6" d="M926.9,431.8L926.9,431.8c0-37.6-30.5-68.1-68.1-68c-37.6,0-68,30.5-67.9,68.1c0,36.4,28.7,66.3,65.1,67.9v0.1
	h136.1C992.2,463.3,963.4,433.3,926.9,431.8z"/>
<path class="st5" d="M952.4,431.8L952.4,431.8c0-37.6-30.4-68.1-68-68.1c-4.3,0-8.6,0.4-12.8,1.2c32.1,6.1,55.3,34.2,55.3,66.8v0.1
	c36.5,1.5,65.2,31.5,65.2,68h25.5C1017.7,463.3,988.9,433.3,952.4,431.8z"/>
<path class="st5" d="M475.8,414.9c3.3-24.8-14.2-47.6-39-50.9c-24.8-3.3-47.6,14.2-50.9,39c-0.5,4-0.5,8,0,11.9
	c-21.7,12.4-29.3,40.1-16.9,61.9s40.1,29.3,61.9,16.9c21.7,12.4,49.5,4.9,61.9-16.9C505.2,455,497.6,427.3,475.8,414.9L475.8,414.9z
	"/>
<path class="st6" d="M405.4,454.4c0-16.4,8.8-31.5,23.1-39.5c-2.5-18.8,7-37.1,23.7-45.9c-22.1-11.8-49.5-3.4-61.3,18.7
	c-4.4,8.3-6.2,17.9-4.9,27.2c-21.8,12.4-29.4,40.1-17,61.8c12.1,21.3,38.9,29.1,60.5,17.7C414.6,486.6,405.3,471.2,405.4,454.4z"/>
<path class="st9" d="M475.8,414.9c2.5-18.8-7-37.1-23.7-45.9l0,0c-0.7-0.4-1.5-0.8-2.3-1.1l-0.3-0.2c-0.7-0.3-1.4-0.6-2.1-0.9
	l-0.4-0.1c-0.8-0.3-1.5-0.6-2.3-0.8h-0.1c-0.9-0.3-1.7-0.5-2.6-0.7h-0.1c-0.8-0.2-1.6-0.4-2.4-0.5l-0.7-0.1
	c-0.6-0.1-1.2-0.2-1.8-0.3l-0.9-0.1c-0.6-0.1-1.2-0.1-1.8-0.2l-0.8-0.1c-0.9,0-1.7-0.1-2.6-0.1l0,0c-3.8,0-7.6,0.5-11.4,1.4
	c0.8,0.2,1.6,0.4,2.4,0.7h0.1c0.8,0.2,1.6,0.5,2.3,0.8l0.4,0.1c0.7,0.3,1.4,0.6,2.1,0.9l0.3,0.2c0.8,0.4,1.5,0.7,2.3,1.1l0,0
	c16.7,8.9,26.2,27.2,23.7,45.9c21.8,12.3,29.5,40,17.2,61.8c-6,10.7-16.2,18.5-28.1,21.6c24.2,6.2,49-8.3,55.2-32.6
	C502.6,445.9,493.7,425,475.8,414.9L475.8,414.9z"/>
<path class="st3" d="M404.7,493.3l-0.7-0.4c-2-1.3-4-2.7-5.8-4.3c-0.5-0.4-0.9-0.8-1.4-1.2c-0.8-0.8-1.5-1.5-2.3-2.3
	c-16.9-18.5-15.6-47.2,2.9-64.1c2.5-2.3,5.3-4.3,8.3-6c-0.3-1.9-0.4-3.9-0.4-5.9c0-21.2,14.7-39.6,35.4-44.2
	c-0.4-0.1-0.8-0.2-1.2-0.3l-0.7-0.1c-0.6-0.1-1.2-0.2-1.8-0.3l-0.9-0.1c-0.6-0.1-1.2-0.1-1.8-0.2l-0.8-0.1c-0.9,0-1.7-0.1-2.6-0.1
	l0,0c-25-0.1-45.3,20.2-45.4,45.2c0,2,0.1,4,0.4,6c-21.8,12.3-29.5,39.9-17.2,61.7c1.7,3,3.7,5.8,6,8.3c0.7,0.8,1.5,1.6,2.3,2.3
	c0.5,0.4,0.9,0.8,1.4,1.2c1.8,1.6,3.8,3,5.8,4.3l0.7,0.4c7,4.2,15.1,6.5,23.3,6.5h0.1c1,0,1.9,0,2.9-0.1c0.4,0,0.9-0.1,1.3-0.1
	s1.1-0.1,1.6-0.1s1.1-0.2,1.7-0.3l1.1-0.2c0.4-0.1,0.9-0.2,1.3-0.3C413.3,497.6,408.8,495.8,404.7,493.3z"/>
<path class="st3" d="M444.9,466.8c-18.3,2.9-34,14.8-41.7,31.7c1.7,0.2,3.3,0.3,5,0.3l0,0c1,0,2,0,2.9-0.1c0.4,0,0.9-0.1,1.3-0.1
	s1.1-0.1,1.6-0.2s1.1-0.2,1.7-0.3l1.1-0.2c0.6-0.1,1.3-0.3,1.9-0.4c0.3-0.1,0.5-0.1,0.8-0.2c0.7-0.2,1.4-0.4,2.1-0.6l0.5-0.2
	c0.8-0.2,1.5-0.5,2.2-0.8l0.3-0.1c0.8-0.3,1.6-0.6,2.3-1h0.1c0.8-0.4,1.6-0.8,2.4-1.2l0,0c0.5-0.3,1-0.5,1.5-0.8
	c21.7,12.5,49.4,5.1,61.9-16.5c7.9-13.7,8.1-30.6,0.5-44.5c-1.6,3.8-2.8,7.7-3.5,11.7h-13.6C461.8,443.5,449,453,444.9,466.8z"/>
<path class="st8" d="M843.4,193.7c-51,51.5-71.1,117.1-50.5,163.2c4.1,9.2,11.4,21,24.8,32.3"/>
<path class="st5" d="M918.4,297.1c0-0.5,0-0.9,0-1.4c-0.4-25-21-45.1-46-44.7c-24.5,0.4-44.3,20.2-44.7,44.7c0,0.5,0,1,0,1.4
	c-24.3,6.3-38.8,31-32.5,55.3c6.3,24.3,31,38.8,55.3,32.5c8.8-2.3,16.6-7.1,22.6-13.9c16.6,18.8,45.2,20.6,64,4
	c18.8-16.6,20.6-45.2,4-64C935.1,304.2,927.2,299.3,918.4,297.1L918.4,297.1z"/>
<path class="st6" d="M839.1,341c0-20.7,14-38.8,34-43.9c0-0.5,0-0.9,0-1.4c0-16.2,8.6-31.2,22.7-39.3c-21.7-12.5-49.4-5.1-61.9,16.6
	c-4,6.9-6.1,14.7-6.1,22.6c0,0.5,0,1,0,1.4c-24.3,6.2-38.9,31-32.6,55.2c6.2,24.3,31,38.9,55.2,32.6c4-1,7.8-2.6,11.4-4.7
	C847.7,372.2,839.1,357.2,839.1,341z"/>
<path class="st3" d="M807.9,341c0-20.7,14-38.8,34.1-43.9c0-0.5,0-0.9,0-1.4c0-22.3,16.2-41.3,38.2-44.8
	c-24.7-3.9-47.9,12.9-51.8,37.6c-0.4,2.4-0.6,4.8-0.6,7.2c0,0.5,0,1,0,1.4c-24.3,6.1-39,30.8-32.9,55.1c5.8,22.8,28,37.4,51.2,33.7
	C824.1,382.3,807.9,363.3,807.9,341z"/>
<path class="st8" d="M581.1,312.7c-6.8,14.4-19,34.9-40,51.4c-5.2,4.1-10.8,7.8-16.7,11"/>
<path class="st8" d="M515.9,326.4c2.9,60.2,29.3,106.5,65.3,115.7c7.2,1.8,17.4,2.8,30.5-0.6"/>
<path class="st0" d="M677.3,368.1c0.1-1.5,0.2-3,0.2-4.5c0-25.1-20.2-45.4-45.3-45.4s-45.4,20.2-45.4,45.3c0,2.6,0.2,5.1,0.6,7.6
	c-21.1,13.6-27.1,41.6-13.6,62.7c13.2,20.5,40.2,26.9,61.2,14.5c21.7,12.6,49.4,5.2,62-16.4s5.2-49.4-16.4-62
	C679.5,369.3,678.4,368.7,677.3,368.1L677.3,368.1z"/>
<path class="st7" d="M677.3,368.1c0.1-1.5,0.2-3,0.2-4.5c0-19.6-12.6-37-31.2-43.1v77.1h-77.9c-6.3,24.3,8.3,49,32.6,55.3
	c11.5,3,23.8,1.3,34.1-4.7c21.7,12.6,49.4,5.2,62-16.4s5.2-49.4-16.4-62C679.5,369.3,678.4,368.7,677.3,368.1L677.3,368.1z"/>
<path class="st5" d="M861.7,409L861.7,409c0-37.6-30.4-68-68-68s-68,30.4-68,68s30.4,68,68,68l0,0l0,0c-0.1,16.7,6.1,32.9,17.3,45.4
	h101.4c25.1-28,22.7-71-5.3-96C894.7,415.2,878.5,409,861.7,409z"/>
<path class="st5" d="M612.3,409h-68c-25,0.1-45.3,20.3-45.4,45.4h-22.7c-12.5,0-22.6,10.2-22.7,22.7l0,0c0,12.5,10.2,22.6,22.7,22.7
	h136.1h1.2c24.6-0.7,44.1-20.8,44.2-45.3l0,0C657.6,429.4,637.3,409.1,612.3,409z"/>
<path class="st6" d="M895.9,522.6c0-43.9-35.5-79.5-79.4-79.6c-21.8,0-42.6,8.9-57.6,24.6c10.5,6.3,22.5,9.6,34.8,9.6
	c0,16.7,6.1,32.9,17.3,45.4H895.9z"/>
<path class="st6" d="M725.7,409c0,37.6,30.4,68,68,68H805v-66.5c0-7.1-5.7-12.8-12.8-12.8c0,0,0,0,0,0h-65.5
	C726,401.5,725.7,405.2,725.7,409z"/>
<path class="st6" d="M771,182.3c-0.4-25,19.6-45.7,44.7-46s45.7,19.6,46,44.7c0,0.4,0,0.9,0,1.3H771z"/>
<path class="st3" d="M830.5,139.2c-23.8-7.8-49.4,5.1-57.3,28.9c-1.5,4.6-2.3,9.4-2.3,14.2h28.3
	C799.4,162.7,811.9,145.3,830.5,139.2z"/>
<path class="st6" d="M555.6,499.8h56.7h1.2c24.6-0.7,44.1-20.8,44.2-45.3l0,0c-0.1-25-20.3-45.3-45.4-45.4h-34l-22.7,36.8V499.8z"/>
<path class="st5" d="M793.7,205c0.4-25,21-45.1,46-44.7c24.5,0.4,44.3,20.2,44.7,44.7H793.7z"/>
<path class="st9" d="M839.1,159.6c-3.8,0-7.6,0.5-11.3,1.4c20,5.2,34,23.2,34,43.9h22.7C884.4,179.9,864.1,159.6,839.1,159.6z"/>
<rect x="657.6" y="295.7" class="st15" width="45.3" height="226.8"/>
<rect x="703" y="295.7" class="st16" width="22.7" height="226.8"/>
<rect x="652" y="256" class="st15" width="56.7" height="39.7"/>
<rect x="708.7" y="256" class="st16" width="22.7" height="39.7"/>
<polygon class="st16" points="714.3,256 669,256 688.8,119.9 694.5,119.9 "/>
<rect x="657.6" y="295.7" class="st16" width="68" height="8.5"/>
<path class="st16" d="M660.5,287.2v-19.9c0-1.6,1.3-2.8,2.8-2.8l0,0c1.6,0,2.8,1.3,2.8,2.8v19.9H660.5z"/>
<path class="st16" d="M671.8,287.2v-19.9c0-1.6,1.3-2.8,2.8-2.8l0,0c1.6,0,2.8,1.3,2.8,2.8v19.9H671.8z"/>
<path class="st16" d="M683.2,287.2v-19.9c0-1.6,1.3-2.8,2.8-2.8l0,0c1.6,0,2.8,1.3,2.8,2.8v19.9H683.2z"/>
<path class="st16" d="M694.5,287.2v-19.9c0-1.6,1.3-2.8,2.8-2.8l0,0c1.6,0,2.8,1.3,2.8,2.8v19.9H694.5z"/>
<rect x="660.5" y="281.5" class="st16" width="39.7" height="5.7"/>
<rect x="652" y="247.5" class="st15" width="11.3" height="11.3"/>
<rect x="697.3" y="247.5" class="st15" width="11.3" height="11.3"/>
<rect x="720" y="247.5" class="st16" width="11.3" height="11.3"/>
<polygon class="st16" points="657.6,213.5 652,247.5 663.3,247.5 "/>
<polygon class="st17" points="703,341 657.6,304.2 703,304.2 "/>
<polygon class="st17" points="703,383.5 657.6,346.7 703,346.7 "/>
<polygon class="st17" points="703,426.1 657.6,389.2 703,389.2 "/>
<polygon class="st16" points="725.7,213.5 720,247.5 731.3,247.5 "/>
<polygon class="st15" points="703,213.5 697.3,247.5 708.7,247.5 "/>
<rect x="657.6" y="341" class="st16" width="48.2" height="5.7"/>
<rect x="657.6" y="440.2" class="st16" width="48.2" height="5.7"/>
<rect x="657.6" y="383.5" class="st16" width="48.2" height="5.7"/>
<rect x="566.9" y="445.9" class="st15" width="226.8" height="76.5"/>
<path class="st16" d="M663.3,522.4v-14.2c0-9.4,7.6-17,17-17l0,0c9.4,0,17,7.6,17,17v14.2H663.3z"/>
<path class="st16" d="M666.1,341v-24.1c0-2.3,1.9-4.2,4.2-4.2l0,0c2.3,0,4.2,1.9,4.3,4.2V341H666.1z"/>
<path class="st16" d="M666.1,383.5v-24.1c0-2.3,1.9-4.2,4.2-4.2l0,0c2.3,0,4.2,1.9,4.3,4.2v24.1H666.1z"/>
<path class="st16" d="M686,341v-24.1c0-2.3,1.9-4.2,4.3-4.2l0,0c2.3,0,4.2,1.9,4.2,4.2V341H686z"/>
<path class="st16" d="M686,383.5v-24.1c0-2.3,1.9-4.2,4.3-4.2l0,0c2.3,0,4.2,1.9,4.2,4.2v24.1H686z"/>
<path class="st16" d="M666.1,431.7v-24.1c0-2.3,1.9-4.2,4.2-4.2l0,0c2.3,0,4.2,1.9,4.3,4.2v24.1H666.1z"/>
<path class="st16" d="M686,431.7v-24.1c0-2.3,1.9-4.2,4.3-4.2l0,0c2.3,0,4.2,1.9,4.2,4.2v24.1H686z"/>
<path class="st16" d="M635,477.1v-15.6c0-2.3,1.9-4.2,4.2-4.2l0,0c2.3,0,4.2,1.9,4.2,4.2v15.6H635z"/>
<path class="st18" d="M793.7,522.4v-72c-11.8,3.7-22.6,10.3-31.3,19.2h-14.1c-29.2,0-52.8,23.7-52.9,52.9L793.7,522.4z"/>
<path class="st16" d="M612.3,477.1v-15.6c0-2.3,1.9-4.2,4.3-4.2l0,0c2.3,0,4.2,1.9,4.2,4.2v15.6H612.3z"/>
<path class="st16" d="M589.6,477.1v-15.6c0-2.3,1.9-4.2,4.2-4.2l0,0c2.3,0,4.2,1.9,4.2,4.2v15.6H589.6z"/>
<path class="st16" d="M635,511.1v-15.6c0-2.3,1.9-4.2,4.2-4.2l0,0c2.3,0,4.2,1.9,4.2,4.2v15.6H635z"/>
<path class="st16" d="M612.3,511.1v-15.6c0-2.3,1.9-4.2,4.3-4.2l0,0c2.3,0,4.2,1.9,4.2,4.2v15.6H612.3z"/>
<path class="st16" d="M589.6,511.1v-15.6c0-2.3,1.9-4.2,4.2-4.2l0,0c2.3,0,4.2,1.9,4.2,4.2v15.6H589.6z"/>
<path class="st16" d="M762.5,477.1v-15.6c0-2.3,1.9-4.2,4.2-4.2l0,0c2.3,0,4.2,1.9,4.2,4.2v15.6H762.5z"/>
<path class="st16" d="M739.8,477.1v-15.6c0-2.3,1.9-4.2,4.2-4.2l0,0c2.3,0,4.2,1.9,4.3,4.2v15.6H739.8z"/>
<path class="st16" d="M717.2,477.1v-15.6c0-2.3,1.9-4.2,4.2-4.2l0,0c2.3,0,4.2,1.9,4.2,4.2v15.6H717.2z"/>
<path class="st16" d="M686,477.1v-15.6c0-2.3,1.9-4.2,4.3-4.2l0,0c2.3,0,4.2,1.9,4.2,4.2v15.6H686z"/>
<path class="st16" d="M666.1,477.1v-15.6c0-2.3,1.9-4.2,4.2-4.2l0,0c2.3,0,4.2,1.9,4.3,4.2v15.6H666.1z"/>
<path class="st16" d="M762.5,511.1v-15.6c0-2.3,1.9-4.2,4.2-4.2l0,0c2.3,0,4.2,1.9,4.2,4.2v15.6H762.5z"/>
<path class="st16" d="M739.8,511.1v-15.6c0-2.3,1.9-4.2,4.2-4.2l0,0c2.3,0,4.2,1.9,4.3,4.2v15.6H739.8z"/>
<path class="st16" d="M717.2,511.1v-15.6c0-2.3,1.9-4.2,4.2-4.2l0,0c2.3,0,4.2,1.9,4.2,4.2v15.6H717.2z"/>
<polygon class="st19" points="793.7,409 725.7,409 703,445.9 793.7,445.9 "/>
<polygon class="st19" points="657.6,409 589.6,409 566.9,445.9 657.6,445.9 "/>
<path class="st5" d="M861.7,522.4c-0.1-25-20.3-45.3-45.3-45.4h-68c-25,0.1-45.3,20.3-45.4,45.4H861.7z"/>
<path class="st5" d="M589.6,522.4c-0.1-25-20.3-45.3-45.4-45.4h-90.7c-25,0.1-45.3,20.3-45.4,45.4H589.6z"/>
<path class="st9" d="M544.2,477.1h-17c25,0.1,45.3,20.3,45.4,45.4h17C589.5,497.4,569.3,477.2,544.2,477.1z"/>
<path class="st6" d="M521.6,454.4c0.1-25,20.3-45.3,45.4-45.4h-22.7c-25,0.1-45.3,20.3-45.4,45.4H521.6z"/>
<path class="st6" d="M476.2,477.1c0-12.5,10.2-22.6,22.7-22.7h-22.7c-12.5,0-22.6,10.2-22.7,22.7c-25,0.1-45.3,20.3-45.4,45.4h22.7
	C430.9,497.4,451.2,477.2,476.2,477.1z"/>
<path class="st6" d="M805,342c-3.7-0.6-7.5-1-11.3-1c-37.6,0-68,30.4-68,68h22.7C748.4,375.8,772.3,347.5,805,342z"/>
<path class="st6" d="M476.2,522.4c0-18.8,15.3-34,34-34c18.8,0,34,15.2,34,34H476.2z"/>
<path class="st9" d="M510.2,488.4c-2.4,0-4.8,0.2-7.1,0.7c15.7,3.3,26.9,17.2,26.9,33.3h14.2C544.3,503.7,529,488.4,510.2,488.4
	C510.3,488.4,510.2,488.4,510.2,488.4z"/>
<path class="st6" d="M466.3,468.6h28.4c2.3,0,4.2,1.9,4.2,4.2l0,0c0,2.3-1.9,4.2-4.2,4.2h-28.4c-2.3,0-4.2-1.9-4.2-4.2l0,0
	C462,470.5,464,468.6,466.3,468.6z"/>
<path class="st6" d="M511.7,440.2h25.5c3.9,0,7.1,3.2,7.1,7.1v0c0,3.9-3.2,7.1-7.1,7.1h-25.5c-3.9,0-7.1-3.2-7.1-7.1v0
	C504.6,443.4,507.7,440.2,511.7,440.2z"/>
<path class="st6" d="M739.8,522.4h121.9c-0.1-25-20.3-45.3-45.3-45.4h-61.6C745.1,490.2,739.8,506.1,739.8,522.4z"/>
<path class="st11" d="M748.3,522.4c0-37.6,30.5-68,68-68c37.6,0,68,30.5,68,68H748.3z"/>
<path class="st0" d="M317.5,522.4c0-37.6,30.5-68,68-68s68,30.5,68,68H317.5z"/>
<path class="st7" d="M408.2,458.3c-35.4-12.5-74.3,6-86.8,41.4c-2.6,7.3-3.9,15-3.9,22.8h45.4C362.8,493.6,381,467.9,408.2,458.3z"
	/>
<path class="st12" d="M827.7,455.4c-37-6.3-72.1,18.6-78.4,55.7c-0.6,3.8-1,7.6-1,11.4H771C771,489.2,795,460.9,827.7,455.4z"/>
<path class="st12" d="M521.6,341c-0.4-25,19.6-45.7,44.7-46s45.7,19.6,46,44.7c0,0.4,0,0.9,0,1.3H521.6z"/>
<path class="st13" d="M574.4,340.4c0-16.1-5.2-31.8-14.8-44.8c-22,3.6-38.1,22.5-38.1,44.8H574.4z"/>
<path class="st11" d="M430.9,341c0-37.6,30.5-68,68-68s68,30.5,68,68H430.9z"/>
<path class="st12" d="M510.2,273.9c-37-6.3-72.1,18.6-78.4,55.7c-0.6,3.8-1,7.6-1,11.4h22.7C453.5,307.8,477.5,279.5,510.2,273.9z"
	/>
<rect x="566.9" y="477.1" class="st18" width="155.9" height="5.7"/>
<path class="st13" d="M884.4,522.4c0-12.6-3.4-24.9-10-35.6c-12.5,7.5-20.1,21-20.1,35.6H884.4z"/>
<path class="st7" d="M612.3,397.7h34v-34C646.3,382.5,631.1,397.7,612.3,397.7z"/>
<polygon class="st20" points="691.7,119.9 688.8,119.9 669,256 691.7,256 "/>
<polygon class="st16" points="670.2,247.5 669,256 691.7,256 691.7,247.5 "/>
<circle class="st5" cx="805" cy="397.7" r="34"/>
<path class="st9" d="M861.7,409c0-37.6-30.4-68-68-68c-3.8,0-7.6,0.4-11.3,1c32.7,5.5,56.7,33.9,56.7,67.1c37.6,0,68,30.4,68,68
	c0,16.8-6.2,32.9-17.4,45.4h22.7c25.1-28,22.7-71-5.3-96C894.7,415.3,878.5,409.1,861.7,409L861.7,409z"/>
<path class="st11" d="M861.7,522.4c0-18.8,15.2-34,34-34c18.8,0,34,15.2,34,34H861.7z"/>
<path class="st6" d="M765.4,383.5L765.4,383.5c3.1,0,5.7,2.5,5.7,5.7v14.2c0,3.1-2.5,5.7-5.7,5.7h0c-3.1,0-5.7-2.5-5.7-5.7v-14.2
	C759.7,386.1,762.2,383.5,765.4,383.5z"/>
<path class="st6" d="M807.9,431.7H822c6.3,0,11.3,5.1,11.3,11.3l0,0c0,6.3-5.1,11.3-11.3,11.3h-14.2c-6.3,0-11.3-5.1-11.3-11.3l0,0
	C796.5,436.8,801.6,431.7,807.9,431.7z"/>
<circle class="st5" cx="907.1" cy="341" r="45.3"/>
<path class="st9" d="M922.3,298.3c14.2,22.5,7.5,52.2-14.9,66.4c-10,6.4-22.1,8.8-33.8,6.8c16.9,18.5,45.5,19.9,64.1,3
	s19.9-45.5,3-64.1C935.6,305,929.3,300.8,922.3,298.3z"/>
<circle class="st5" cx="873.1" cy="360.9" r="34"/>
<path class="st9" d="M873.1,326.8c-1.9,0-3.8,0.2-5.7,0.5c18.5,3.1,31,20.6,27.9,39.1c-2.4,14.3-13.6,25.5-27.9,27.9
	c18.5,3,36-9.5,39.1-28s-9.5-36-28-39.1C876.7,327,874.9,326.8,873.1,326.8L873.1,326.8z"/>
<path class="st6" d="M918.7,360.9c0,9.8-4.2,19.1-11.5,25.5c-0.8,0-1.5,0-2.3-0.1h-0.1l-0.7-0.1c-0.5,0-1.1-0.1-1.6-0.1h-0.2
	c-0.3,0-0.5-0.1-0.8-0.1l-1.4-0.2h-0.2l-0.7-0.1c-0.5-0.1-0.9-0.2-1.4-0.3l-0.3,0l-0.5-0.1c13.5-13.1,13.8-34.6,0.7-48.1
	c-5.1-5.2-11.6-8.7-18.8-9.9c18.5-3.1,36.1,9.3,39.2,27.8C918.5,357.1,918.7,359,918.7,360.9L918.7,360.9z"/>
<path class="st8" d="M759.4,151.1c13.3,20.2,28.9,51.4,31.2,90.7c0.4,6.6,0.4,13.2,0,19.9"/>
<path class="st8" d="M762.5,247.5c9.2,15.9,15.9,33.1,19.8,51c1.3,5.9,2.2,11.6,2.8,17"/>
<path class="st5" d="M603.8,522.4c0-18.8,15.2-34,34-34c18.8,0,34,15.2,34,34H603.8z"/>
<path class="st6" d="M644.9,489.2c-18.4-3.9-36.4,7.8-40.4,26.2c-0.5,2.3-0.8,4.7-0.7,7.1H618C618,506.4,629.2,492.5,644.9,489.2z"
	/>
<path class="st21" d="M737,522.4h93.5c3.1,0,5.7,2.5,5.7,5.7v0c0,3.1-2.5,5.7-5.7,5.7H737c-3.1,0-5.7-2.5-5.7-5.7v0
	C731.3,525,733.9,522.4,737,522.4z"/>
<path class="st6" d="M610.9,513.9H642c2.3,0,4.2,1.9,4.2,4.2l0,0c0,2.3-1.9,4.2-4.2,4.2h-31.2c-2.3,0-4.2-1.9-4.2-4.2l0,0
	C606.6,515.8,608.5,513.9,610.9,513.9z"/>
<path class="st6" d="M731.3,511.1h8.5c3.1,0,5.7,2.5,5.7,5.7l0,0c0,3.1-2.5,5.7-5.7,5.7h-8.5c-3.1,0-5.7-2.5-5.7-5.7l0,0
	C725.7,513.6,728.2,511.1,731.3,511.1z"/>
<path class="st5" d="M725.7,182.3c-0.4-25,19.6-45.7,44.7-46s45.7,19.6,46,44.7c0,0.4,0,0.9,0,1.3H725.7z"/>
<path class="st6" d="M778.1,137.5c-2.3-0.4-4.7-0.6-7.1-0.6c-25,0-45.3,20.3-45.3,45.4h14.2C739.8,160,756.1,141,778.1,137.5z"/>
<path class="st6" d="M844.7,160.1c-2.3-0.4-4.7-0.5-7.1-0.6c-25,0-45.4,20.3-45.4,45.3c0,0,0,0,0,0.1h14.2
	C806.4,182.7,822.7,163.6,844.7,160.1z"/>
<path class="st9" d="M771,136.9c-3.8,0-7.6,0.5-11.3,1.4c20,5.2,34,23.2,34,43.9h22.7C816.3,157.2,796,136.9,771,136.9z"/>
<path class="st6" d="M748.3,273c0-18.8,15.2-34,34-34s34,15.2,34,34H748.3z"/>
<path class="st3" d="M793.7,240.9c-17.7-6.3-37.1,3-43.4,20.7c-1.3,3.7-2,7.5-2,11.4H771C771,258.6,780.1,245.7,793.7,240.9z"/>
<path class="st8" d="M632.1,241.8c14.2,36.8-2.8,53.9,11.3,119.1"/>
<path class="st12" d="M762.5,522.4c0-18.8,15.2-34,34-34c18.8,0,34,15.2,34,34"/>
<path class="st8" d="M654.8,409c-6.2-38.3-20.2-92.8-53.9-141.8c-6.1-8.9-12.7-17.4-19.8-25.4"/>
<path class="st8" d="M558.4,247.5c5.4,13.2,18.9,40.2,48.2,56.7c6.3,3.5,13,6.4,19.8,8.5"/>
<path class="st5" d="M657.6,216.3c0-15-9.8-28.2-24.1-32.6c-5.4-18-24.4-28.2-42.4-22.7c-10.9,3.3-19.5,11.8-22.7,22.7
	c-10.9,3.3-19.4,11.8-22.7,22.7c-18,5.5-28,24.5-22.5,42.5c5.5,18,24.5,28,42.5,22.5c4.7-1.4,9-3.9,12.6-7.1
	c14,12.5,35.5,11.4,48-2.6c3.3-3.7,5.8-8.1,7.2-12.8C647.8,244.5,657.6,231.3,657.6,216.3z"/>
<path class="st9" d="M633.5,183.7c-5.3-17.4-23.4-27.6-41.1-23.1c11.5,3,20.6,11.7,24,23.1c18,5.4,28.2,24.4,22.7,42.4
	c-3.3,10.9-11.8,19.5-22.7,22.7c-3.4,11.3-12.5,20.1-24,23.1c2.8,0.7,5.6,1.1,8.5,1.1c15,0,28.2-9.8,32.6-24.1
	c18-5.4,28.2-24.4,22.7-42.4C652.9,195.6,644.4,187,633.5,183.7L633.5,183.7z"/>
<path class="st6" d="M544.2,239c0-15,9.8-28.2,24.1-32.6c3.3-10.9,11.8-19.4,22.7-22.7c3.1-10.3,11-18.6,21.2-22.2
	c-17.7-6.3-37.1,3-43.4,20.7c-0.2,0.5-0.3,1-0.5,1.5c-10.9,3.3-19.4,11.8-22.7,22.7c-18,5.2-28.4,24.1-23.2,42.1
	s24.1,28.4,42.1,23.2c0.8-0.2,1.5-0.5,2.3-0.7C553.4,266.2,544.3,253.4,544.2,239z"/>
<circle class="st5" cx="600.9" cy="239" r="34"/>
<path class="st6" d="M586.8,239c0-15,9.8-28.2,24.1-32.5c-18-5.4-37,4.7-42.4,22.7s4.7,37,22.7,42.4c6.4,1.9,13.3,1.9,19.7,0
	C596.5,267.2,586.8,254,586.8,239z"/>
<path class="st6" d="M1051.7,477.1c-5.4,0-10.7,1.3-15.5,3.7c-10.5-22.8-37.4-32.7-60.2-22.3c-9.8,4.5-17.7,12.4-22.3,22.3
	c-16.7-8.5-37.2-1.9-45.7,14.9c-8.5,16.7-1.9,37.2,14.9,45.7c4.8,2.4,10,3.7,15.4,3.7h113.4c18.8,0,34-15.2,34-34
	C1085.7,492.3,1070.4,477.1,1051.7,477.1L1051.7,477.1z"/>
<path class="st5" d="M1051.7,477.1c-5.4,0-10.7,1.3-15.5,3.7c-7.4-16.1-23.5-26.4-41.2-26.4v90.7h56.7c18.8,0,34-15.2,34-34
	C1085.7,492.3,1070.5,477.1,1051.7,477.1L1051.7,477.1z"/>
<path class="st9" d="M1051.7,477.1c-3.4,0-6.7,0.5-9.9,1.5c18,5.4,28.2,24.4,22.7,42.4c-4.3,14.4-17.6,24.2-32.7,24.2h19.8
	c18.8,0,34-15.2,34-34C1085.6,492.3,1070.4,477.1,1051.7,477.1L1051.7,477.1z"/>
<path class="st3" d="M995,481.3v63.8h-56.7c-5.5,0-10.9-1.3-15.7-3.8C929.2,506.5,959.6,481.3,995,481.3z"/>
<path class="st5" d="M941.1,545.1c0-29.7,24.1-53.9,53.8-53.9s53.9,24.1,53.9,53.8c0,0,0,0.1,0,0.1H941.1z"/>
<path class="st9" d="M995,491.2c-3.8,0-7.6,0.4-11.3,1.2c24.8,5.3,42.5,27.3,42.5,52.6h22.7C1048.9,515.4,1024.7,491.2,995,491.2z"
	/>
<path class="st0" d="M272.1,522.4c0-25,20.3-45.4,45.4-45.4s45.4,20.3,45.4,45.4H272.1z"/>
<path class="st7" d="M328.8,478.5c-24.3-6.2-49,8.4-55.3,32.7c-0.9,3.7-1.4,7.5-1.4,11.3h22.7C294.8,501.7,308.8,483.7,328.8,478.5z
	"/>
<path class="st5" d="M408.2,545.1c0.4-25,21-45.1,46-44.7c24.5,0.4,44.3,20.2,44.7,44.7H408.2z"/>
<path class="st6" d="M453.5,499.8c4.3,0,8.6,0.6,12.8,1.8c-19.3,5.7-32.6,23.4-32.6,43.5h-25.5C408.2,520.1,428.5,499.8,453.5,499.8
	z"/>
<path class="st20" d="M678.9,159.6h25.5c2.3,0,4.2,1.9,4.2,4.2l0,0c0,2.3-1.9,4.2-4.2,4.2h-25.5c-2.3,0-4.2-1.9-4.2-4.2l0,0
	C674.7,161.5,676.6,159.6,678.9,159.6z"/>
<path class="st16" d="M704.4,159.6h-11.3c2.3,0,4.2,1.9,4.2,4.2s-1.9,4.2-4.2,4.2l0,0h11.3c2.3,0,4.2-1.9,4.2-4.3
	C708.7,161.5,706.8,159.6,704.4,159.6L704.4,159.6z"/>
<path class="st5" d="M1206.1,487.3c0.4-2.8,0.5-5.5,0.6-8.3c0-35.5-28.8-64.2-64.2-64.2s-64.2,28.8-64.2,64.2l0,0
	c0,2.8,0.2,5.5,0.6,8.3c-31,17.2-42.2,56.3-25,87.4c17.2,31,56.3,42.2,87.4,25c0.4-0.2,0.9-0.5,1.3-0.7c30.6,17.9,70,7.7,87.9-22.9
	s7.7-70-22.9-87.9C1206.9,487.8,1206.5,487.5,1206.1,487.3z"/>
<path class="st6" d="M1106.2,543.2c0-23.2,12.5-44.6,32.7-56c-0.4-2.8-0.5-5.5-0.6-8.3c0-23.8,13.1-45.6,34.1-56.8
	c-31.4-16.6-70.2-4.7-86.9,26.7c-4.9,9.3-7.5,19.7-7.5,30.2c0,2.8,0.2,5.5,0.6,8.3c-31.1,17-42.5,56.1-25.5,87.2
	c17,31.1,56.1,42.5,87.2,25.5l0,0C1119.3,588.8,1106.2,567,1106.2,543.2z"/>
<path class="st9" d="M1206.1,487.3c0.4-2.8,0.5-5.5,0.6-8.3c0-23.8-13.1-45.6-34.1-56.8l0,0c-1.1-0.6-2.1-1.1-3.2-1.6l-0.5-0.2
	c-1-0.4-1.9-0.9-2.9-1.2l-0.5-0.2c-1.1-0.4-2.2-0.8-3.3-1.2h-0.2c-1.2-0.4-2.4-0.7-3.7-1h-0.2c-1.1-0.3-2.2-0.5-3.3-0.7l-1-0.2
	c-0.9-0.1-1.7-0.3-2.6-0.4l-1.2-0.2c-0.9-0.1-1.7-0.2-2.6-0.2l-1.1-0.1c-1.2-0.1-2.4-0.1-3.7-0.1l0,0c-5.4,0-10.8,0.7-16.1,2
	c1.2,0.3,2.3,0.6,3.4,1h0.2c1.1,0.4,2.2,0.8,3.3,1.2l0.6,0.2c1,0.4,2,0.8,2.9,1.2l0.5,0.2c1.1,0.5,2.2,1,3.2,1.6l0,0
	c21,11.2,34.1,33,34.1,56.8c0,2.8-0.2,5.5-0.6,8.3c30.9,17.4,41.8,56.6,24.4,87.5c-8.6,15.2-22.9,26.2-39.8,30.6
	c34.4,8.8,69.4-11.9,78.2-46.2C1243.9,531.1,1231.4,501.6,1206.1,487.3L1206.1,487.3z"/>
<path class="st3" d="M1105.3,598.3c-0.3-0.2-0.7-0.4-1-0.6c-2.9-1.8-5.7-3.9-8.2-6.1c-0.7-0.6-1.3-1.2-2-1.8c-1.1-1-2.2-2.1-3.2-3.3
	c-23.9-26.2-22.1-66.8,4.1-90.7c3.6-3.3,7.5-6.1,11.8-8.5c-0.4-2.8-0.5-5.5-0.6-8.3c0-30.1,20.8-56.1,50.2-62.7
	c-0.6-0.1-1.2-0.3-1.7-0.4l-1-0.2c-0.9-0.1-1.7-0.3-2.6-0.4l-1.2-0.2c-0.9-0.1-1.7-0.2-2.6-0.2l-1.1-0.1c-1.2-0.1-2.4-0.1-3.7-0.1
	l0,0c-35.5,0-64.2,28.8-64.2,64.3c0,0,0,0,0,0c0,2.8,0.2,5.5,0.6,8.3c-30.9,17.4-41.8,56.6-24.4,87.5c2.4,4.2,5.2,8.2,8.5,11.8
	c1,1.1,2.1,2.2,3.2,3.3c0.6,0.6,1.3,1.2,2,1.8c2.6,2.3,5.3,4.3,8.2,6.1c0.3,0.2,0.7,0.4,1,0.6c10,6,21.4,9.2,33.1,9.2h0.1
	c1.4,0,2.7,0,4.1-0.1c0.6,0,1.2-0.1,1.8-0.2s1.5-0.1,2.2-0.2s1.6-0.2,2.4-0.4c0.5-0.1,1.1-0.2,1.6-0.3s1.2-0.3,1.8-0.4
	C1117.6,604.4,1111.2,601.9,1105.3,598.3z"/>
<path class="st14" d="M453.5,667H0V468.9c2.8-0.2,5.7-0.3,8.5-0.3h187.1c67.2,0.2,121.7,54.7,121.9,121.9H377
	C419.2,590.6,453.4,624.8,453.5,667z"/>
<path class="st5" d="M430.9,227.6c-0.6,0-1.3,0-1.9,0.1c-6.3-17.7-25.8-26.9-43.4-20.6c-17.7,6.3-26.9,25.8-20.6,43.4
	c1.5,4.1,3.7,7.9,6.6,11.2c-12.5,14-11.4,35.5,2.6,48c10.6,9.5,25.9,11.4,38.5,4.8c22.9,10.1,49.7-0.3,59.8-23.2
	c10.1-22.9-0.3-49.7-23.2-59.8C443.4,229,437.2,227.7,430.9,227.6L430.9,227.6z"/>
<path class="st6" d="M394,284.3c0-8.4,3.1-16.4,8.7-22.7c-12.5-14-11.3-35.5,2.6-48c2.2-1.9,4.5-3.6,7.1-4.9
	c-16.7-8.6-37.2-2.1-45.8,14.5c-6.5,12.6-4.6,27.9,4.9,38.4c-12.5,14-11.4,35.5,2.6,48c10.5,9.4,25.8,11.4,38.3,4.9
	C401.1,308.7,394,297.1,394,284.3z"/>
<path class="st9" d="M406.2,227.6C406.2,227.6,406.2,227.6,406.2,227.6c0.6,0.1,1.3,0,1.9,0H406.2z"/>
<path class="st9" d="M430.9,227.6L430.9,227.6c-0.6,0-1.3,0-1.9,0.1v-0.1h-20.8c25.1,0,45.4,20.3,45.4,45.4c0,20.7-14,38.7-34,43.9
	c24.3,6.2,49-8.4,55.2-32.6c6.2-24.3-8.4-49-32.6-55.2C438.5,228.1,434.7,227.6,430.9,227.6z"/>
<circle class="st14" cx="110.6" cy="468.6" r="42.5"/>
<circle class="st14" cx="42.5" cy="473.7" r="42.5"/>
<circle class="st14" cx="161.6" cy="485.6" r="42.5"/>
<path class="st14" d="M371.9,571c-29.5,31.1-60.4,49.5-69.1,41.3s8.1-40.2,37.6-71.2s69.1-41.3,69.1-41.3S401.4,539.9,371.9,571z"/>
<path class="st14" d="M348.9,550c-14.6,40.2-35.6,69.5-46.9,65.5s-8.6-40,6-80.3s46.9-65.5,46.9-65.5S363.5,509.8,348.9,550z"/>
<path class="st21" d="M734.2,539.4c0-3.1,2.5-5.7,5.7-5.7H589.6c3.1,0,5.7,2.5,5.7,5.7c0,3.1-2.5,5.7-5.7,5.7h150.2
	C736.7,545.1,734.2,542.6,734.2,539.4z"/>
<path class="st21" d="M765.3,545.1H575.4c-3.1,0-5.7,2.5-5.7,5.7c0,3.1,2.5,5.7,5.7,5.7h189.9c3.1,0,5.7-2.5,5.7-5.7
	C771,547.6,768.5,545.1,765.3,545.1z"/>
<path class="st21" d="M739.8,567.8h-31.2c-3.1,0-5.7-2.5-5.7-5.7c0-3.1,2.5-5.7,5.7-5.7h-79.4c3.1,0,5.7,2.5,5.7,5.7
	c0,3.1-2.5,5.7-5.7,5.7h-14.2c-3.1,0-5.7,2.5-5.7,5.7c0,3.1,2.5,5.7,5.7,5.7l0,0h14.2c3.1-0.1,5.8,2.3,5.9,5.4
	c0.1,3.1-2.3,5.8-5.4,5.9c-0.2,0-0.3,0-0.5,0H686c-3.1-0.1-5.6-2.8-5.4-5.9c0.1-2.9,2.5-5.3,5.4-5.4h53.9c3.1,0,5.7-2.5,5.7-5.7
	C745.5,570.3,743,567.8,739.8,567.8L739.8,567.8z"/>
<path class="st21" d="M697.3,590.5h-102c-3.1,0-5.7,2.5-5.7,5.7c0,3.1,2.5,5.7,5.7,5.7h102c3.1,0,5.7-2.5,5.7-5.7
	C703,593,700.5,590.5,697.3,590.5z"/>
<path class="st21" d="M669,613.1h-8.5c-3.1,0-5.7-2.5-5.7-5.7c0-3.1,2.5-5.7,5.7-5.7h-56.7c3.1,0,5.7,2.5,5.7,5.7
	c0,3.1-2.5,5.7-5.7,5.7h-14.2c-3.1,0-5.7,2.5-5.7,5.7c0,3.1,2.5,5.7,5.7,5.7H669c3.1,0,5.7-2.5,5.7-5.7
	C674.7,615.7,672.1,613.1,669,613.1z"/>
<path class="st21" d="M566.9,567.8h22.7c3.1,0,5.7,2.5,5.7,5.7v0c0,3.1-2.5,5.7-5.7,5.7h-22.7c-3.1,0-5.7-2.5-5.7-5.7v0
	C561.3,570.3,563.8,567.8,566.9,567.8z"/>
<path class="st21" d="M765.4,567.8h17c3.1,0,5.7,2.5,5.7,5.7v0c0,3.1-2.5,5.7-5.7,5.7h-17c-3.1,0-5.7-2.5-5.7-5.7v0
	C759.7,570.3,762.2,567.8,765.4,567.8z"/>
<path class="st21" d="M799.4,545.1h34c3.1,0,5.7,2.5,5.7,5.7v0c0,3.1-2.5,5.7-5.7,5.7h-34c-3.1,0-5.7-2.5-5.7-5.7v0
	C793.7,547.6,796.2,545.1,799.4,545.1z"/>
<path class="st21" d="M671.8,630.2h17c3.1,0,5.7,2.5,5.7,5.7v0c0,3.1-2.5,5.7-5.7,5.7h-17c-3.1,0-5.7-2.5-5.7-5.7v0
	C666.1,632.7,668.7,630.2,671.8,630.2z"/>
<path class="st5" d="M481.9,522.4h266.4c6.3,0,11.3,5.1,11.3,11.3v0c0,6.3-5.1,11.3-11.3,11.3H481.9c-6.3,0-11.3-5.1-11.3-11.3v0
	C470.5,527.5,475.6,522.4,481.9,522.4z"/>
<rect x="487.6" class="st14" width="22.7" height="667"/>
<path class="st22" d="M379.8,0c-11.3,174.2,79.4,128.5,116.3,256"/>
<polygon class="st2" points="1017.6,318.3 1034.7,341 1014.8,326.8 1009.1,338.2 1026.1,363.7 1003.5,343.9 1003.5,321.2 "/>
<g>
	<path class="st23" d="M958.9,185L958.9,185c0-3.6,2.9-6.6,6.6-6.6h13.2c3.6,0,6.6,2.9,6.6,6.6l0,0"/>
	<g>
		<path class="st24" d="M945.7,224.5L945.7,224.5c-10.9-0.1-19.6-8.9-19.7-19.7v-52.6c0-10.9,8.8-19.7,19.7-19.7h6.6v92.1H945.7z"/>
		<path class="st25" d="M952.3,217.9L952.3,217.9c-10.9,0-19.7-8.8-19.7-19.7v-39.4c0-10.9,8.8-19.7,19.7-19.7l0,0"/>
		<path class="st26" d="M926,188.3c5.4,0,9.9,4.4,9.9,9.9c0,0,0,0,0,0h3.3V185H926V188.3z"/>
		<path class="st26" d="M952.3,214.6L952.3,214.6c-9.1,0-16.4-7.4-16.4-16.4v-39.4c0-9.1,7.4-16.4,16.4-16.4l0,0"/>
		<path class="st25" d="M972,171.9h-6.6c-7.3,0-13.2-5.9-13.2-13.1v0v-13.2c-7.3,0-13.1,5.9-13.2,13.1v1.6c0,6.4-5.1,11.5-11.5,11.5
			c0,0,0,0,0,0H926l-26.3-13.1c-8.8,11.7-8.8,27.8,0,39.4L926,185h1.7c6.4,0,11.5,5.1,11.5,11.5c0,0,0,0,0,0v1.6
			c0,7.3,5.9,13.1,13.2,13.1v-13.1c0-7.3,5.8-13.2,13.1-13.2h6.6c0.3,0,0.5,0,0.8,0l0,0h5.8v-6.6l0,0
			C978.5,174.8,975.6,171.9,972,171.9z"/>
		<path class="st24" d="M908.8,191.6c0.2,0.6,0.5,1.1,0.8,1.6l-3.3,1.7l-6.6,3.3c-0.9-1-1.6-2.1-2.2-3.3c-0.6-1.1-1.2-2.2-1.7-3.3
			c-0.5-1.1-0.9-2.2-1.2-3.3c-0.3-1-0.6-2.1-0.8-3.3c-0.2-1.1-0.4-2.2-0.5-3.3c-0.1-1.1-0.2-2.1-0.2-3.3s0.1-2.2,0.2-3.3
			c0.1-1.1,0.3-2.2,0.5-3.3c0.2-1.1,0.5-2.2,0.8-3.3c0.3-1.1,0.7-2.2,1.2-3.3c0.5-1.1,1-2.2,1.7-3.3c0.6-1.2,1.4-2.3,2.2-3.3
			l6.6,3.3l3.3,1.7c-0.2,0.5-0.5,1.1-0.8,1.6c-1.3,3.1-2.2,6.5-2.5,9.9c-0.1,1-0.2,2.1-0.2,3.3s0.1,2.2,0.2,3.3s0.3,2.2,0.5,3.3
			s0.5,2.3,0.8,3.3C907.9,189.4,908.3,190.5,908.8,191.6z"/>
		<path class="st24" d="M952.4,198.2V185h13.2C958.2,185,952.4,190.9,952.4,198.2C952.4,198.2,952.4,198.2,952.4,198.2z"/>
		<circle class="st2" cx="972.1" cy="178.5" r="2.5"/>
		<polygon class="st26" points="965.5,185 952.4,185 952.4,172.7 		"/>
		<path class="st26" d="M897.2,178.5c0,6.5,1.9,12.8,5.5,18.2l-3,1.5c-8.8-11.7-8.8-27.8,0-39.4l3,1.5
			C899,165.6,897.1,172,897.2,178.5z"/>
	</g>
</g>
<path class="st12" d="M423,627.9c-34.9,34.9-87.2,39.1-87.2,39.1s4.2-52.3,39.1-87.2s87.2-39.1,87.2-39.1S457.8,593,423,627.9z"/>
<path class="st11" d="M462,540.7L335.8,667c0,0,52.3-4.2,87.2-39.1S462,540.7,462,540.7z"/>
<path class="st7" d="M151.4,635.2C97.8,656.2,45,649.5,45,649.5s34.1-40.9,87.7-62s106.4-14.4,106.4-14.4S205,614,151.4,635.2z"/>
<path class="st0" d="M239.1,573.1L45,649.5c0,0,52.8,6.7,106.4-14.4S239.1,573.1,239.1,573.1z"/>
<path class="st5" d="M329.5,628.6L329.5,628.6c1.7-1.7,1.7-4.3,0-6c0,0,0,0,0,0l-24.6-24.7c-1.3-1.3-1.6-3.2-0.8-4.9
	c0.9-1.9,1.9-3.8,2.9-5.8c1.1-2.1,3.7-2.9,5.7-1.8c0.4,0.2,0.7,0.5,1,0.8l11.2,11.2c1.7,1.7,4.3,1.7,6,0l0,0c1.7-1.7,1.7-4.3,0-6
	c0,0,0,0,0,0l-14.6-14.7c-1.4-1.4-1.6-3.5-0.7-5.1c0.7-1.2,1.4-2.5,2.1-3.7c1.2-2,3.8-2.7,5.8-1.5c0.3,0.2,0.6,0.4,0.9,0.7l3.4,3.3
	c1.7,1.7,4.3,1.7,6,0l0,0c1.7-1.7,1.7-4.3,0-6l-6.2-6.2c-1.4-1.4-1.7-3.6-0.6-5.3c3.6-5.7,6.9-10.6,9.1-14c1.3-1.9,3.9-2.5,5.9-1.2
	c0.5,0.3,0.9,0.7,1.2,1.2c2.3,3.4,5.5,8.2,9.1,14c1.1,1.7,0.8,3.9-0.6,5.3l-6.2,6.2c-1.7,1.7-1.7,4.3,0,6l0,0c1.7,1.6,4.3,1.6,6,0
	l3.3-3.3c1.6-1.7,4.3-1.7,6,0c0.3,0.3,0.5,0.5,0.7,0.9c0.7,1.2,1.4,2.4,2.1,3.7c1,1.7,0.7,3.8-0.7,5.1l-14.6,14.7
	c-1.6,1.7-1.6,4.3,0,6l0,0c1.7,1.7,4.3,1.7,6,0l11.2-11.2c1.6-1.7,4.3-1.7,6,0c0.3,0.3,0.6,0.7,0.8,1c1,1.9,2,3.9,2.9,5.8
	c0.8,1.6,0.5,3.6-0.8,4.9l-24.6,24.7c-1.6,1.7-1.6,4.3,0,6l0,0c1.7,1.7,4.3,1.7,6,0l19.7-19.7c1.7-1.7,4.4-1.6,6,0
	c0.5,0.5,0.8,1,1,1.7c1.5,4,2.3,8.2,2.5,12.5c0,24.3-20.3,43.9-45.4,43.9s-45.4-19.7-45.4-43.9c0.2-4.3,1-8.5,2.5-12.5
	c0.7-2.2,3.1-3.5,5.4-2.7c0.6,0.2,1.2,0.6,1.7,1l19.7,19.7C325.1,630.3,327.8,630.3,329.5,628.6
	C329.5,628.6,329.5,628.6,329.5,628.6z"/>
<path class="st6" d="M296.7,610.6c0.7-2.2,3.1-3.5,5.4-2.7c0.6,0.2,1.2,0.6,1.7,1l19.7,19.7c1.8,1.6,4.4,1.4,6-0.4
	c1.4-1.6,1.4-4,0-5.6l-24.6-24.6c-1.3-1.3-1.6-3.3-0.8-4.9c0.9-1.9,1.9-3.8,2.9-5.8c1.1-2.1,3.7-2.9,5.7-1.8c0.4,0.2,0.7,0.5,1,0.8
	l11.2,11.2c1.8,1.6,4.4,1.4,6-0.4c1.4-1.6,1.4-4,0-5.6l-14.6-14.7c-1.4-1.4-1.6-3.5-0.7-5.1c0.7-1.2,1.4-2.5,2.1-3.7
	c1.2-2,3.8-2.7,5.8-1.5c0.3,0.2,0.6,0.4,0.9,0.7l3.4,3.3c1.8,1.6,4.4,1.4,6-0.4c1.4-1.6,1.4-4,0-5.6l-6.2-6.2
	c-1.4-1.4-1.7-3.6-0.6-5.3c3.6-5.7,6.9-10.6,9.1-14c0.8-1.2,2.1-1.9,3.5-1.9V667c-25,0-45.4-19.7-45.4-43.9
	C294.4,618.8,295.3,614.6,296.7,610.6z"/>
<path class="st5" d="M156.2,582.3c-47,47-103.2,66.9-103.2,66.9s20-56.2,66.9-103.1s103.1-66.9,103.1-66.9S203.2,535.3,156.2,582.3z
	"/>
<path class="st6" d="M223.2,479.1L53.1,649.2c0,0,56.2-20,103.2-66.9S223.2,479.1,223.2,479.1z"/>
<path class="st5" d="M112.7,578.3c-25.5,40.8-67.8,60.4-67.8,60.4s-1.1-46.6,24.4-87.5s67.8-60.4,67.8-60.4S138.1,537.5,112.7,578.3
	z"/>
<path class="st6" d="M137.1,490.8L44.8,638.7c0,0,42.4-19.5,67.8-60.4S137.1,490.8,137.1,490.8z"/>
<path class="st5" d="M153.1,635.8h-42.5V633l0,0c-0.7-36.8-31.2-66-67.9-65.2C26.9,568.1,11.8,574,0,584.3V667h184.2
	C184.2,649.8,170.3,635.9,153.1,635.8z"/>
<path class="st9" d="M70.8,633L70.8,633v2.8h39.7V633l0,0c-0.8-36.8-31.2-65.9-68-65.2c-6.3,0.1-12.5,1.1-18.4,3
	C51.4,579.4,70.2,604.4,70.8,633z"/>
<path class="st9" d="M153.1,635.8h-39.7c17.2,0,31.1,14,31.2,31.2h39.7C184.2,649.8,170.3,635.9,153.1,635.8z"/>
<polyline class="st14" points="170.1,485.6 172.9,528.1 158.7,496.9 147.4,505.4 153.1,545.1 141.7,516.8 147.4,488.4 172.9,485.6 
	"/>
<polyline class="st14" points="212.6,613.1 181.4,596.1 198.4,627.3 153.1,607.5 181.4,638.7 212.6,650 215.4,613.1 "/>
<path class="st6" d="M0,667h53.9c0-29.7-24.1-53.9-53.8-53.9c0,0,0,0,0,0V667z"/>
<path class="st5" d="M1366.3,621.7L1366.3,621.7c0.4-25-19.6-45.7-44.7-46c-25-0.4-45.7,19.6-46,44.7c0,0.4,0,0.9,0,1.3h-22.7
	c-25,0.1-45.3,20.3-45.3,45.3h158.7V621.7z"/>
<path class="st9" d="M1293.9,621.7c0-21.3,14.8-39.7,35.6-44.3c-24.4-5.4-48.7,10-54.1,34.5c-0.7,3.2-1.1,6.5-1.1,9.8H1293.9z"/>
<path class="st9" d="M1271.2,621.7h-19.6c-25,0.1-45.3,20.3-45.3,45.3h19.6C1225.9,642,1246.2,621.7,1271.2,621.7z"/>
<g>
	<path class="st2" d="M809.5,565.6c-1.3-2.7-0.1-5.9,2.6-7.2c2.6-1.2,5.7-0.2,7.1,2.3l1.8,3.6c1,2.1,3.5,3.1,5.7,2.3
		c2.3-0.9,3.5-3.5,2.6-5.8c-0.1-0.1-0.1-0.3-0.2-0.4l-1.9-3.8c-3.6-7.1-12.3-10-19.4-6.4s-10,12.3-6.4,19.4l10.5,20.8h-26.8
		c-12.5,0-22.7,10.2-22.7,22.7h56.3c5,0,9-4.1,8.9-9.1c0-1.4-0.3-2.7-0.9-3.9L809.5,565.6z"/>
	<path class="st27" d="M802.2,590.5h-17c-12.5,0-22.7,10.2-22.7,22.7h17C779.5,600.6,789.7,590.5,802.2,590.5z"/>
	<path class="st11" d="M819.8,561.9L819.8,561.9c2.5-1.2,5.6-0.2,6.8,2.3l0,0l1,2.1c1.2,2.5,0.2,5.6-2.3,6.8l0,0l0,0l0,0
		L819.8,561.9L819.8,561.9z"/>
</g>
<path class="st0" d="M704.2,0c0,17.7-14.3,32-32,32h-36c-0.9,14.4-12.8,25.6-27.2,25.6h-18.8c-18,34.8-53.9,56.7-93.1,56.7h-9.5
	V91.6h-19.8c-25,0-45.4-20.3-45.4-45.3h-17c-25.1,0-45.4-20.3-45.4-45.4V0H704.2z"/>
<path class="st7" d="M671,0c0,17.7-14.3,32-32,32h33.2c17.7,0,32-14.3,32-32H671z"/>
<path class="st7" d="M540.2,91.6h-19.8c-25,0-45.4-20.3-45.4-45.3c0,0,0,0,0,0h-17c-25,0-45.4-20.3-45.4-45.3c0,0,0,0,0,0V0H360v0.9
	c0,25,20.3,45.3,45.4,45.3l0,0h17c0,25.1,20.3,45.4,45.4,45.4c0,0,0,0,0,0h19.8v22.7h9.5c14.9,0,29.6-3.1,43.1-9.2V91.6z"/>
<path class="st7" d="M476.2,46.2h34c6.3,0,11.3,5.1,11.3,11.3l0,0c0,6.3-5.1,11.3-11.3,11.3h-34c-6.3,0-11.3-5.1-11.3-11.3l0,0
	C464.9,51.3,470,46.2,476.2,46.2z"/>
<path class="st7" d="M636.1,32c-0.9,14.3-12.7,25.5-27.1,25.6h-29.3c-7,0-12.8-5.7-12.8-12.8c0-7,5.7-12.8,12.8-12.8L636.1,32z"/>
<g>
	<path class="st2" d="M677.2,520.2c-1.3-2.7-0.3-5.9,2.4-7.3c1.3-0.7,2.8-0.8,4.2-0.3c1.4,0.4,2.5,1.4,3.1,2.7l1.8,3.6
		c1,2.1,3.5,3.1,5.7,2.3c2.3-0.9,3.5-3.5,2.6-5.8c-0.1-0.1-0.1-0.3-0.2-0.4l-1.9-3.8c-3.6-7.1-12.3-10-19.4-6.4s-10,12.3-6.4,19.4
		l10.5,20.8h-26.8c-12.5,0-22.7,10.1-22.7,22.7c0,0,0,0,0,0h56.3c5,0,9-4.1,8.9-9.1c0-1.4-0.3-2.7-0.9-3.9L677.2,520.2z"/>
	<path class="st27" d="M669.9,545.1h-17c-12.5,0-22.7,10.1-22.7,22.7c0,0,0,0,0,0h17C647.2,555.3,657.3,545.1,669.9,545.1
		C669.9,545.1,669.9,545.1,669.9,545.1z"/>
	<path class="st11" d="M687.5,516.5L687.5,516.5c2.5-1.2,5.6-0.2,6.8,2.3l0,0l1,2.1c1.2,2.5,0.2,5.6-2.3,6.8l0,0l0,0l0,0
		L687.5,516.5L687.5,516.5z"/>
</g>
<path class="st5" d="M728.5,613.1h99.2c1.6,0,2.8,1.3,2.8,2.8v0c0,1.6-1.3,2.8-2.8,2.8h-99.2c-1.6,0-2.8-1.3-2.8-2.8v0
	C725.7,614.4,726.9,613.1,728.5,613.1z"/>
<path class="st21" d="M711.5,630.2h99.2c3.1,0,5.7,2.5,5.7,5.7v0c0,3.1-2.5,5.7-5.7,5.7h-99.2c-3.1,0-5.7-2.5-5.7-5.7v0
	C705.8,632.7,708.4,630.2,711.5,630.2z"/>
<path class="st5" d="M717.2,635.8c0-25,20.3-45.4,45.3-45.4c25,0,45.4,20.3,45.4,45.4H717.2z"/>
<path class="st6" d="M762.5,590.5c4.3,0,8.6,0.6,12.8,1.8c-19.3,5.7-32.6,23.4-32.6,43.5h-25.5C717.2,610.8,737.5,590.5,762.5,590.5
	C762.5,590.5,762.5,590.5,762.5,590.5z"/>
<path class="st5" d="M612.3,567.8h82.2c1.6,0,2.8,1.3,2.8,2.8v0c0,1.6-1.3,2.8-2.8,2.8h-82.2c-1.6,0-2.8-1.3-2.8-2.8v0
	C609.5,569.1,610.7,567.8,612.3,567.8z"/>
<g>
	<path class="st2" d="M586.9,576.9c-1.3-2.7-0.1-5.9,2.6-7.2c2.6-1.2,5.7-0.2,7.1,2.3l1.8,3.6c1,2.1,3.5,3.1,5.7,2.3
		c2.3-0.9,3.5-3.5,2.6-5.8c-0.1-0.1-0.1-0.3-0.2-0.4l-1.9-3.8c-3.6-7.1-12.3-10-19.4-6.4s-10,12.3-6.4,19.4l10.5,20.8h-26.8
		c-12.5,0-22.7,10.2-22.7,22.7h56.3c5,0,9-4.1,8.9-9.1c0-1.4-0.3-2.7-0.9-3.9L586.9,576.9z"/>
	<path class="st27" d="M579.6,601.8h-17c-12.5,0-22.7,10.2-22.7,22.7h17C556.9,612,567.1,601.8,579.6,601.8z"/>
	<path class="st11" d="M597.2,573.2L597.2,573.2c2.5-1.2,5.6-0.2,6.8,2.3l0,0l1,2.1c1.2,2.5,0.2,5.6-2.3,6.8l0,0l0,0l0,0
		L597.2,573.2L597.2,573.2z"/>
</g>
<path class="st5" d="M524.4,624.5h87.9c1.6,0,2.8,1.3,2.8,2.8v0c0,1.6-1.3,2.8-2.8,2.8h-87.9c-1.6,0-2.8-1.3-2.8-2.8v0
	C521.6,625.7,522.8,624.5,524.4,624.5z"/>
<path class="st6" d="M863.2,582h31.2c2.3,0,4.2,1.9,4.2,4.2l0,0c0,2.3-1.9,4.2-4.2,4.2h-31.2c-2.3,0-4.2-1.9-4.2-4.2l0,0
	C858.9,583.9,860.8,582,863.2,582z"/>
<path class="st12" d="M879,561.4c7.1,10.3,8.7,21.5,3.5,25.1s-15.1-1.9-22.2-12.2s-10-34.4-10-34.4S871.9,551.1,879,561.4z"/>
<path class="st11" d="M850.4,539.9l32.2,46.7c5.2-3.6,3.6-14.8-3.5-25.1S850.4,539.9,850.4,539.9z"/>
<path class="st12" d="M891.3,565c0,12.5-5.1,22.7-11.3,22.7s-11.3-10.2-11.3-22.7s11.3-34,11.3-34S891.3,552.4,891.3,565z"/>
<path class="st11" d="M879.9,530.9v56.7c6.3,0,11.3-10.2,11.3-22.7S879.9,530.9,879.9,530.9z"/>
<path class="st6" d="M521.6,545.1c0-18.8,15.2-34,34-34s34,15.2,34,34H521.6z"/>
<path class="st9" d="M545.7,512.6c18-5.5,37,4.6,42.5,22.6c1,3.2,1.5,6.6,1.5,10h-19.8C569.8,530.1,560,516.9,545.7,512.6z"/>
<path class="st9" d="M1366.3,618.9c-26.6-24.3-67.8-22.5-92.1,4.1c-11,12-17.1,27.7-17.1,44h109.2L1366.3,618.9z"/>
<path class="st6" d="M1347.6,613.1c4.4,0,8.8,0.4,13.1,1.3c-29-21.3-69.8-15.1-91.1,13.9c-8.2,11.2-12.7,24.7-12.7,38.6h26.5
	C1288.9,635.9,1315.9,613.1,1347.6,613.1z"/>
<path class="st28" d="M91.1,528.1C78.7,573.4,76.6,620.8,85,667"/>
<path class="st11" d="M102.1,499.8l-11.3-11.3l-11.3,11.3L68,488.4v22.7c0,12.5,10.2,22.6,22.7,22.7l0,0c12.5,0,22.6-10.2,22.7-22.7
	v-22.7L102.1,499.8z"/>
<path class="st12" d="M79.4,511.1v-11.3L68,488.4v22.7c0,12.5,10.2,22.6,22.7,22.7l0,0c1.9,0,3.8-0.2,5.7-0.7
	C86.4,530.4,79.4,521.4,79.4,511.1z"/>
<path class="st29" d="M487.6,46.2c0,51.6-42.5,84.2-65.2,96.4"/>
<polygon class="st30" points="824.9,667 779.5,667 1233.9,6.5 1279.2,6.5 "/>
<polygon class="st30" points="694.1,667 648.7,667 1103,0 1148.4,0 "/>
<g>
	<path class="st31" d="M1185,102.6c-20,186.3,45.2,146.7,48,279.4"/>
	<path class="st31" d="M1054.5,9.5c-17,146.7,42.5,197.5,65.2,304.8"/>
	<path class="st31" d="M1349.3,113.9c16.7,177.8-82.2,208.8-87.9,310.4"/>
	<path class="st14" d="M1313,534.7c-29.5,30.9-60.4,49.3-69.1,41.1c-8.7-8.2,8.1-40,37.6-70.9s69.1-41.1,69.1-41.1
		S1342.5,503.8,1313,534.7z"/>
	<rect x="1111.2" y="3" class="st14" width="45.2" height="664"/>
	<rect x="1224.6" y="3" class="st14" width="45.3" height="664"/>
	<path class="st14" d="M1093.9,576.7c32.6,0,63,5.6,88.2,15.2c27.8-26,78.2-43.4,135.7-43.4c16.2,0,32.3,1.4,48.2,4.2V667H935.2
		C935.2,617.1,1006.2,576.7,1093.9,576.7z"/>
	<path class="st14" d="M1009.4,556.6c18.3,19,28.8,38.5,23.4,43.6s-24.5-6.1-42.8-25.1c-18.3-19-23.4-43.6-23.4-43.6
		S991.2,537.7,1009.4,556.6z"/>
	<path class="st14" d="M984.7,575.5c24.2,10.4,41.5,24.4,38.5,31.2c-3,6.8-25,3.8-49.2-6.6s-38.5-31.2-38.5-31.2
		S960.5,565.1,984.7,575.5z"/>
	<path class="st31" d="M1082.9,204.2C1038.1,153.4,979,153.4,944,74.4"/>
	<path class="st14" d="M976.6,49h-1.5c-0.6-13.1-11.4-23.4-24.5-23.4H908c-13.1,0-23.9,10.4-24.5,23.4h-10.3
		c-18.8,0.1-33.9,15.2-34,33.8l0,0c0.1,18.7,15.2,33.8,34,33.8h45.4c15.5,0,29-10.5,32.9-25.4h25.2c11.7,0,21.2-9.5,21.3-21.1l0,0
		C997.8,58.5,988.3,49,976.6,49z"/>
	<path class="st5" d="M856.1,82.9c0.1-18.7,15.2-33.8,34-33.8h10.3c0.6-13.1,11.4-23.4,24.5-23.4h-17c-13.1,0-23.9,10.4-24.5,23.4
		h-10.3c-18.8,0-34,15.2-34,33.8s15.2,33.8,34,33.8h17C871.4,116.6,856.2,101.5,856.1,82.9z"/>
	<path class="st31" d="M1295.5,136.5c0,0-2.8,67.7,42.5,107.2"/>
	<path class="st5" d="M887.3,82.9h13.6c-9.4,0-17-7.6-17-16.9l0,0c0-9.3,7.6-16.9,17-16.9h-13.6c-9.4,0-17,7.6-17,16.9l0,0
		C870.3,75.3,877.9,82.8,887.3,82.9z"/>
	<path class="st5" d="M918.8,99.8h13.9c-9.6,0-17.3-7.7-17.3-17.3l0,0c0-9.5,7.8-17.2,17.3-17.2h-13.9c-9.6,0-17.3,7.7-17.3,17.2
		l0,0C901.5,92,909.2,99.8,918.8,99.8z"/>
	<path class="st5" d="M935.2,77.2h8.8c-6.1,0-11-4.9-11-11l0,0c0-6,4.9-10.9,11-11h-8.8c-6.1,0-11,4.9-11,11l0,0
		C924.2,72.3,929.1,77.2,935.2,77.2z"/>
	<path class="st5" d="M898.9,116.7h13.9c-9.6,0-17.3-7.7-17.3-17.2l0,0c0-9.5,7.8-17.2,17.3-17.2h-13.9c-9.6,0-17.3,7.7-17.3,17.2
		l0,0C881.6,109,889.4,116.7,898.9,116.7z"/>
	<path class="st14" d="M1369.2-1.8H998.9c-0.7,4.2-1,8.4-1,12.7c0,42.9,34.9,77.7,78,77.7l0,0c12.8,0,25.5-3.1,36.8-9.2
		c7.4,35.1,42,57.5,77.2,50.1c4.7-1,9.2-2.5,13.6-4.4c17.1,35,59.5,49.6,94.7,32.6c3.6-1.7,7-3.7,10.2-6
		c12.5,17.1,32.5,27.3,53.8,27.2c2.4,0,4.7-0.1,7.1-0.4L1369.2-1.8z"/>
	<path class="st5" d="M1068.7,10.9c0-4.3,0.4-8.5,1.1-12.7h-70.9c-0.7,4.2-1,8.4-1,12.7c0,42.9,34.9,77.7,78,77.7l0,0
		c12.3,0,24.5-2.9,35.4-8.5C1085.2,66.8,1068.7,40.1,1068.7,10.9z"/>
	<path class="st5" d="M1274.3,125c-32.8,14.8-71.4,0.4-86.3-32.2c-2-4.3-3.5-8.8-4.5-13.5c-21.9,11.7-48,12.3-70.4,1.6
		c8.3,34.9,43.4,56.4,78.4,48.2c4.1-1,8.1-2.3,12-4.1c17.1,35,59.5,49.6,94.7,32.6c1.5-0.7,3-1.5,4.4-2.4
		C1290.3,148.2,1280.5,137.7,1274.3,125z"/>
	<path class="st5" d="M1207.8,69.6c-20.4,0-36.8-16.4-36.8-36.7c0,0,0,0,0,0c0-1.2,0.1-2.4,0.2-3.7c-16.1,12.4-19.1,35.4-6.7,51.5
		c12.4,16,35.6,19,51.7,6.6c8-6.2,13.2-15.4,14.2-25.4C1223.8,66.9,1215.9,69.6,1207.8,69.6z"/>
	<path class="st5" d="M1291.1,116c-14.2,0-25.7-11.4-25.7-25.5c0,0,0,0,0,0c0-0.9,0-1.7,0.1-2.5c-11.2,8.6-13.3,24.7-4.7,35.8
		s24.8,13.3,36,4.6c5.6-4.3,9.2-10.7,9.9-17.7C1302.3,114.1,1296.8,116,1291.1,116z"/>
	<path class="st5" d="M1270,68.3c-23,0-41.6-18.5-41.6-41.4c0-1.4,0.1-2.8,0.2-4.1c-18.2,14-21.6,40-7.6,58.1
		c14,18.1,40.2,21.5,58.4,7.5c9.1-7,14.9-17.3,16-28.7C1288.2,65.3,1279.2,68.3,1270,68.3z"/>
	<path class="st5" d="M1160.2,591.8L1160.2,591.8c2.3-0.1,4.1-2.1,4-4.4l-1.8-34.7c-0.1-1.8,1-3.5,2.7-4.1c2-0.8,4-1.6,6-2.3
		c2.2-0.8,4.6,0.3,5.5,2.5c0.2,0.4,0.2,0.8,0.3,1.3l0.8,15.7c0.1,2.3,2.1,4.1,4.5,4l0,0c2.3-0.1,4.1-2.1,4-4.4l-1-20.6
		c-0.1-1.9,1.1-3.7,2.9-4.3l4-1.3c2.2-0.7,4.6,0.5,5.3,2.8c0.1,0.3,0.2,0.7,0.2,1l0.2,4.7c0.1,2.3,2.1,4.1,4.5,4c0,0,0,0,0,0l0,0
		c2.3-0.1,4.1-2.1,4-4.5l-0.5-8.8c-0.1-2,1.2-3.8,3.1-4.3c6.5-1.8,12.2-3.3,16.1-4.3c2.3-0.6,4.6,0.8,5.2,3.1
		c0.1,0.5,0.2,1.1,0.1,1.6c-0.6,4-1.4,9.8-2.6,16.4c-0.3,2-2,3.4-4,3.5l-8.8,0.5c-2.3,0.1-4.1,2.1-4,4.5l0,0c0.1,2.3,2.1,4.1,4.5,4
		l4.7-0.2c2.3-0.1,4.3,1.7,4.5,4c0,0.4,0,0.7-0.1,1.1c-0.3,1.4-0.6,2.8-0.9,4.2c-0.4,1.9-2,3.2-3.9,3.3l-20.7,1.1
		c-2.3,0.1-4.1,2.1-4,4.4l0,0c0.1,2.3,2.1,4.1,4.5,4l15.8-0.8c2.3-0.1,4.3,1.7,4.5,4c0,0.4,0,0.9-0.1,1.3c-0.6,2.1-1.1,4.2-1.7,6.2
		c-0.5,1.7-2.1,3-3.9,3.1l-34.8,1.8c-2.3,0.1-4.1,2.1-4,4.5l0,0c0.1,2.3,2.1,4.1,4.5,4l27.9-1.5c2.3-0.1,4.4,1.7,4.5,4
		c0,0.7-0.1,1.3-0.4,2c-1.6,4-3.8,7.7-6.5,11c-16.2,17.9-44.5,19-63.1,2.3s-20.6-44.8-4.3-62.7c3-3,6.4-5.6,10.2-7.6
		c2-1.2,4.6-0.5,5.8,1.5c0.3,0.6,0.5,1.2,0.6,1.9l1.5,27.7C1155.8,590,1157.7,591.9,1160.2,591.8
		C1160.1,591.8,1160.1,591.8,1160.2,591.8z"/>
	<path class="st6" d="M1147.8,556.6c2-1.2,4.6-0.5,5.8,1.5c0.3,0.6,0.5,1.2,0.6,1.9l1.5,27.7c0.2,2.3,2.3,4,4.7,3.8
		c2.2-0.2,3.9-2.1,3.8-4.2l-1.8-34.7c-0.1-1.8,1-3.5,2.7-4.1c2-0.8,4-1.6,6-2.3c2.2-0.8,4.6,0.3,5.5,2.5c0.2,0.4,0.2,0.8,0.3,1.3
		l0.8,15.7c0.2,2.3,2.3,4,4.7,3.8c2.2-0.2,3.9-2.1,3.8-4.2l-1.1-20.7c-0.1-1.9,1.1-3.7,2.9-4.3l4-1.3c2.2-0.7,4.6,0.5,5.3,2.8
		c0.1,0.3,0.2,0.7,0.2,1l0.2,4.7c0.1,2.3,2.1,4.1,4.5,4c2.3-0.1,4.1-2.1,4-4.5l-0.5-8.8c-0.1-2,1.2-3.8,3.1-4.3
		c6.5-1.8,12.2-3.3,16.1-4.3c1.4-0.3,2.8,0,3.9,1l-86.9,96.1c-18.6-16.7-20.6-44.8-4.3-62.7C1140.6,561.2,1144.1,558.6,1147.8,556.6
		z"/>
	<g id="Kobieta">
		<polygon class="st32" points="1091.1,642.8 1083.6,646.9 1045.4,557.1 1065.2,546.1 		"/>
		<polygon class="st33" points="1051.7,648.7 1042.2,648.7 1043.2,548.5 1065.9,548.5 		"/>
		<polygon class="st34" points="1042.8,585.2 1042.8,590.7 1059.7,592 1061,583 		"/>
		<path class="st35" d="M1091.4,461l-11.8,25.4c-3.3,7.2-5.7,15.4-2.4,22.6l39.7,76.2h-85l28.3-124.2L1091.4,461z"/>
		<path class="st5" d="M1058.8,667v-1.4c0-16.3,13.3-29.6,29.8-29.6h32.6c16.4,0,29.7,13.3,29.8,29.6v1.4H1058.8z"/>
		<path class="st33" d="M1077.2,444.1l-36.9,33.8l-30.7-13.9l-8.7-8.7c-1.7,1.8-1.7,4.6,0,6.3l2.2,2.1h-16.6c0,4.7,3.8,8.5,8.5,8.5
			h14.2l31.2,19.8l34-28.2l19.8-2.8L1077.2,444.1z"/>
		<polygon class="st27" points="1076.7,573.9 1034.3,573.9 1031.9,585.2 1076.7,585.2 		"/>
		<polygon class="st27" points="1082.3,458.4 1074.4,463.8 1056.1,479 1052.6,494.3 		"/>
		<path class="st33" d="M1057.4,412.1v9.4l-3.5,5.2c-0.7,1-0.4,2.3,0.6,2.9c0.3,0.2,0.8,0.4,1.2,0.4h1.7v1.1c0,5.1,4.2,9.3,9.3,9.3
			c1.2,0,2.1,1,2.1,2.1c0,0,0,0,0,0v12.9h14.2v-43.2H1057.4z"/>
		<path class="st27" d="M1057.1,551.9l-2.6-17.8c0,0,37.4,9,49.4,26.2l12.9,24.8l-23.6,4.1L1057.1,551.9z"/>
		<path class="st12" d="M1060.2,418.7c0,0,0,11.3,10.3,14.9c9.6,3.4,9.5,21.7,9.5,30.2c0,14.1,8.8,23.3,17,25.4
			c11.3,2.8,25.5-11.3,11.3-31c-9.6-13.4-22.7-42.3-22.7-42.3L1060.2,418.7z"/>
		<path class="st12" d="M1057.1,411.1c0,0,0,11.3,10.3,14.9c9.6,3.4,9.5,21.7,9.5,30.2c0,14.1,8.8,23.3,17,25.4
			c11.3,2.8,25.5-11.3,11.3-31.1c-9.6-13.4-22.7-42.3-22.7-42.3L1057.1,411.1z"/>
		<path class="st13" d="M1110.6,461.6c3.4,13.7-7.6,22.3-16.6,20.1c-4.8-1.2-9.7-4.8-13-10.3c2.4,9.8,9.4,16.2,16.1,17.8
			C1107.7,491.9,1120.9,479.5,1110.6,461.6z"/>
		<path class="st13" d="M1060.5,421.2c0,0,13.4,10.2,30.7,6.3l-4.6-9.4L1060.5,421.2z"/>
		<path class="st35" d="M1088.4,408.2c-1.1-9.3-9.6-15.9-18.9-14.8c-7.8,0.9-13.9,7-14.8,14.8c-11.9,1.2-20,3.5-20,6.3
			c0,3.9,16.5,7.1,36.8,7.1s36.8-3.2,36.8-7.1C1108.4,411.7,1100.3,409.3,1088.4,408.2z"/>
		<polygon class="st36" points="1060.2,585.2 1060.1,590.7 1077.4,589.8 1078,585.2 		"/>
		<path class="st6" d="M1104.8,570.8c24.3,25.2,38.2,51.1,31.1,57.9c-7.1,6.8-32.5-8.1-56.8-33.3c-24.3-25.2-31.1-57.9-31.1-57.9
			S1080.6,545.6,1104.8,570.8z"/>
		<path class="st6" d="M1023.4,667L1023.4,667c0-10.1,8.3-18.3,18.4-18.3h45.4c10.2,0,18.4,8.2,18.4,18.3l0,0"/>
		<path class="st0" d="M994.7,450.3c1.7,2.6,0.9,6.1-1.8,7.8c-2.5,1.6-5.9,0.9-7.6-1.5c-1.7-2.6-1.6-12.5-1.6-12.5
			S992.9,447.7,994.7,450.3z"/>
		<path class="st12" d="M967.6,450.5c2.7-1.6,6.2-0.7,7.8,2s0.7,6.1-2,7.7c-0.1,0.1-0.2,0.1-0.3,0.1c-2.7,1.5-12.7,0.6-12.7,0.6
			S964.9,452,967.6,450.5z"/>
		<path class="st5" d="M976,413.7c2.3,2.1,2.6,5.6,0.5,8c-2.1,2.3-5.7,2.6-8,0.5c-0.1,0-0.1-0.1-0.2-0.1c-2.3-2.1-4.5-11.8-4.5-11.8
			S973.7,411.6,976,413.7z"/>
		<path class="st37" d="M1088.4,408.2c0,0-14.6,8.6-33.8,0"/>
		<path class="st5" d="M1149.2,601.4c6.9,34.2,4.8,63.5-4.9,65.5s-23.1-24.2-30-58.4s4.9-65.5,4.9-65.5S1142.3,567.2,1149.2,601.4z"
			/>
	</g>
</g>
<path class="st30" d="M1366,258.2v68l-136.5,204.7c-1.8-2.6-4.8-1.8-4.8-1.8l-0.1-58.9L1366,258.2z"/>
</svg>
