<?xml version="1.0" encoding="utf-8"?>
<!-- Generator: Adobe Illustrator 24.3.0, SVG Export Plug-In . SVG Version: 6.00 Build 0)  -->
<svg version="1.1" id="Layer_1" xmlns="http://www.w3.org/2000/svg" xmlns:xlink="http://www.w3.org/1999/xlink" x="0px" y="0px"
	 viewBox="0 0 566.9 566.9" style="enable-background:new 0 0 566.9 566.9;" xml:space="preserve">
<style type="text/css">
	.st0{fill:#FFD1B8;}
	.st1{fill:#D8AA91;}
	.st2{fill:none;stroke:#002828;stroke-width:4.11;stroke-linecap:round;stroke-miterlimit:10;}
	.st3{fill:#FFFFFF;}
	.st4{fill:#FF8764;}
	.st5{fill:#EAEAEA;}
	.st6{fill:#FF5027;}
	.st7{fill:#1D1D1B;}
	.st8{fill:#006464;}
	.st9{fill:#002828;}
	.st10{fill:#059999;}
</style>
<g id="Ilustracja">
	<circle class="st0" cx="283.5" cy="283.2" r="283"/>
	<ellipse class="st1" cx="240.5" cy="495.5" rx="53.1" ry="10.1"/>
	<ellipse class="st1" cx="404.8" cy="407" rx="106.1" ry="17.7"/>
	<path class="st2" d="M127,176.2c0,0,11.3-18.8,41.4-11.3"/>
	<path class="st3" d="M342.5,66L342.5,66c1.6,1,2.1,3.1,1.2,4.7L239.3,261.9l-1.8,0.1c-18.7,1.4-49.6,27.9-49.9,28.1l-2.4,2.1
		l-15.6-16.4l168-209C338.8,65.3,340.9,65,342.5,66z"/>
	<path class="st4" d="M39,346.7C22.5,372.5,27.1,405,49.1,419c22.1,14.1,53.4,4.5,69.9-21.3c0.8-1.2,1.4-2.4,2-3.5l0.3-0.6
		c0.6-1.1,1.2-2.3,1.8-3.6c0,0,4.4-9.6,9.3-20.4c4.5-9.8,10.3-22.5,12.3-27.6c5.1-11,24.7-33.4,41.3-50.7l2.2-2.3l-19.4-19.5
		c-1.3-1.3-3.4-1.3-4.7,0c-0.1,0.1-0.1,0.1-0.2,0.2l0,0c-22.7,26.8-44.7,33.6-65.9,40.3c-12.9,4-26.3,8.2-39.3,16.8l-0.1,0.1
		l-2.4,1.6l-1.3,0.9l-0.2,0.1c-0.6,0.5-1.3,0.9-1.9,1.4L53,331c-0.5,0.4-1.1,0.9-1.6,1.4l-0.4,0.2l-0.2,0.3c-1.5,1.4-3,2.7-4.5,4.3
		c-0.1,0.1-0.2,0.2-0.3,0.3c-0.3,0.4-0.7,0.7-1,1.1c-0.3,0.4-0.4,0.5-0.6,0.7l-2.5,3.1c-0.3,0.4-0.6,0.8-0.9,1.3l-0.5,0.8
		C40,345.2,39.5,345.9,39,346.7z M98.8,341.2c13.4,8.5,15.4,29.4,4.5,46.6c-10.9,17.1-30.7,24.1-44.1,15.6
		c-13.4-8.5-15.4-29.4-4.5-46.6S85.5,332.6,98.8,341.2L98.8,341.2z"/>
	<path class="st5" d="M237.2,261.9l1.8-0.2l21.3-39.1l7.7-69.7l-66.2,82.3l-4.1,14l3.5,4.1c3.7,4.3,6.5,11.9,8.6,20.1
		C219,267.7,229.2,262.5,237.2,261.9z"/>
	<path class="st3" d="M271.1,36.4L271.1,36.4c-1.8-0.4-3.7,0.7-4.2,2.5l-61.6,208.9l1.2,1.4c12.2,14.2,15.3,54.8,15.3,55.2l0.2,3.2
		l22.6-0.6L274,40.4C274.2,38.5,272.9,36.8,271.1,36.4z"/>
	<path class="st4" d="M287.3,446.9l0.2-0.9c0.1-0.5,0.2-1.1,0.2-1.6l0.4-3.9c0-0.3,0-0.6,0-1s0.1-1,0.1-1.5c0-0.1,0-0.3,0-0.4
		c0.1-2.1,0-4.1-0.1-6.2l0.1-0.4l-0.1-0.5c0-0.7-0.1-1.4-0.2-2.1v-0.2c-0.1-0.8-0.2-1.6-0.3-2.3v-0.2c-0.1-0.5-0.2-1-0.3-1.5
		l-0.6-2.8c0,0,0-0.1,0-0.1c-3.1-15.3-9.6-27.7-15.9-39.7c-10.3-19.7-20.9-40.1-18-75.1l0,0c0.2-1.8-1.2-3.4-3-3.6
		c-0.1,0-0.2,0-0.3,0h-27.6l-0.1,3.3c-0.5,24-2.5,53.7-6.7,65c-2.1,5.1-7,18.1-10.8,28.2c-4.1,11.1-7.8,21-7.8,21
		c-0.5,1.4-0.9,2.7-1.3,3.8l-0.2,0.7c-0.3,1.2-0.7,2.5-1,3.9c-6.6,29.9,8.8,58.8,34.3,64.5c25.6,5.7,51.8-14,58.4-43.9
		C287,448.6,287.2,447.8,287.3,446.9z M268.6,445.4c-4.4,19.8-20.6,33.2-36.1,29.7s-24.6-22.4-20.1-42.2
		c4.4-19.8,20.5-33.2,36.1-29.7C264,406.7,273,425.6,268.6,445.4z"/>
	<path class="st6" d="M248.4,403.2h0.2c-2.2-1.4-4.6-2.4-7.1-2.9c-15.5-3.5-31.7,9.9-36.1,29.7c-4.4,19.8,4.6,38.6,19.9,42.2
		c-11-6.9-16.7-22.7-13-39.3C216.7,413.1,232.9,399.8,248.4,403.2z"/>
	<path class="st6" d="M286.8,449.5c0.2-0.9,0.4-1.7,0.5-2.6l0.2-0.9c0.1-0.5,0.2-1.1,0.2-1.6l0.4-3.9c0-0.3,0-0.6,0-1s0.1-1,0.1-1.5
		c0-0.1,0-0.3,0-0.4c0.1-2.1,0-4.1-0.1-6.2l0.1-0.4l-0.1-0.5c0-0.7-0.1-1.4-0.2-2.1v-0.2c-0.1-0.8-0.2-1.6-0.3-2.3v-0.2
		c-0.1-0.5-0.2-1-0.3-1.5l-0.6-2.8c0,0,0-0.1,0-0.1c-3.1-15.3-9.6-27.7-15.9-39.7c-10.3-19.7-20.9-40.1-18-75.1
		c0.2-1.8-1.2-3.4-3-3.6c-0.1,0-0.2,0-0.3,0h-3.7c0,0.2,0,0.5,0,0.7c-2.9,35,7.7,55.4,18,75.1c6.3,12,12.7,24.4,15.9,39.7
		c0,0,0,0.1,0,0.1l0.6,2.8c0.1,0.5,0.2,1,0.3,1.5v0.2c0.1,0.8,0.2,1.5,0.3,2.3v0.2c0.1,0.7,0.2,1.4,0.2,2.1l0.1,0.5l-0.1,0.4
		c0.1,2.1,0.2,4.1,0.1,6.2c0,0.1,0,0.2,0,0.4c0,0.5,0,1-0.1,1.5c-0.1,0.5,0,0.6,0,0.9l-0.4,3.9c-0.1,0.5-0.2,1-0.2,1.6l-0.2,0.9
		c-0.2,0.9-0.3,1.7-0.5,2.6c-6.6,29.9-32.9,49.6-58.4,43.9c-1.1-0.3-2.2-0.6-3.3-0.9c3.2,1.7,6.7,3,10.2,3.8
		C254,499.1,280.2,479.4,286.8,449.5z"/>
	<path class="st6" d="M58.7,404.1c-13.4-8.5-15.4-29.4-4.5-46.6c9.1-14.3,24.4-21.5,37-18.5c-13.4-8.4-33.1-1.4-43.9,15.7
		c-10.9,17-8.9,38,4.5,46.6c2.2,1.4,4.6,2.4,7.1,3L58.7,404.1z"/>
	<path class="st6" d="M168.5,269.3c-1.2-1.2-3-1.3-4.4-0.3l16.9,16.9l-2.3,2.4c-16.6,17.3-36.3,39.7-41.3,50.7
		c-2.1,5-7.9,17.8-12.3,27.6c-4.9,10.8-9.3,20.4-9.3,20.4c-0.6,1.3-1.2,2.5-1.8,3.6l-0.3,0.6c-0.6,1.1-1.3,2.3-2,3.5
		c-14.1,22.2-39.3,32.3-60,25.9c21.9,11.5,51.2,1.7,67-23c0.8-1.2,1.4-2.4,2-3.5l0.3-0.6c0.6-1.1,1.2-2.3,1.8-3.6
		c0,0,4.4-9.6,9.4-20.4c4.5-9.8,10.2-22.5,12.3-27.6c5-11,24.7-33.4,41.3-50.7l2.3-2.3L168.5,269.3z"/>
	<circle class="st7" cx="231.8" cy="232.7" r="11.3"/>
	<path class="st8" d="M132.6,169c-12.1-11.4-31.1-10.9-42.6,1.2c-11.4,12.1-19.5,64.5-19.5,64.5s25.4-5.4,44.5-12.8l-3.1-24.9
		l12,21.1c3.6-1.6,6.9-3.8,9.8-6.5C145.2,199.5,144.7,180.5,132.6,169z"/>
	<path class="st9" d="M70.5,234.7l62.1-65.7c-12.1-11.4-31.1-10.9-42.6,1.2C78.6,182.3,70.5,234.7,70.5,234.7z"/>
	<path class="st2" d="M232.4,127.3c0,0,12.1,23.7,39.4,10.3"/>
	<path class="st8" d="M236.1,90.3c11.4,12.1,10.9,31.2-1.2,42.6c-11.6,11-29.8,11-41.4,0c-11.8-11.8-21.3-63.9-21.3-63.9
		S224.3,78.6,236.1,90.3z"/>
	<path class="st9" d="M172.2,69l63.9,63.9c11.7-11.8,11.7-30.8,0-42.6C224.3,78.6,172.2,69,172.2,69z"/>
	<path class="st8" d="M526.1,323.6c0,44.6-36.1,80.9-80.8,80.9c-14.2,0-28.2-3.7-40.5-10.9c-12.3,7.1-26.2,10.9-40.4,10.9
		c-2.7,0-5.3-0.1-7.9-0.4c-44.4-4.3-76.9-43.8-72.6-88.3c2.5-26,17.5-49.2,40.1-62.2v-21c0-44.7,36.2-80.9,80.9-80.9
		s80.9,36.2,80.9,80.9v21C510.7,268.1,526.1,294.8,526.1,323.6z"/>
	<path class="st9" d="M485.6,232.7v21c38.7,22.3,51.9,71.8,29.6,110.4c-22.3,38.7-71.8,51.9-110.4,29.6l0,0V151.8
		C449.4,151.8,485.6,188,485.6,232.7C485.6,232.7,485.6,232.7,485.6,232.7z"/>
	<path class="st9" d="M383,257.9h43.6c7.5,0,13.6,6.1,13.6,13.6v8.2c0,7.5-6.1,13.6-13.6,13.6H383c-7.5,0-13.6-6.1-13.6-13.6v-8.2
		C369.4,264,375.5,257.9,383,257.9z"/>
	<path class="st8" d="M396.6,151.8H413c15,0,27.2,12.2,27.2,27.2v51.8c0,15-12.2,27.2-27.2,27.2h-16.4c-15,0-27.2-12.2-27.2-27.2
		V179C369.4,164,381.6,151.8,396.6,151.8z"/>
	<path class="st10" d="M404.8,362.7L404.8,362.7l-13.4,7.8c-8.2,4.8-17.5,7.3-27,7.2c-1.8,0-3.6-0.1-5.3-0.2
		c-29.7-2.9-51.5-29.4-48.6-59.1c1.7-17.4,11.7-32.9,26.8-41.6l0,0c8.3-4.8,13.3-13.6,13.3-23.2l0,0v-23.2c0-33.4,21.1-45.9,37-50.6
		c10.1-2.9,17.1-12.1,17.1-22.6v-5.5l0,0c-44.6,0-80.8,36.2-80.8,80.8v21c-38.7,22.2-52.1,71.6-29.9,110.3
		c13,22.8,36.3,37.8,62.4,40.3c2.6,0.2,5.2,0.4,7.9,0.4c14.2,0,28.2-3.8,40.4-10.9l0,0V362.7z"/>
	<circle class="st8" cx="404.8" cy="348.9" r="55.6"/>
	<path class="st10" d="M404.8,293.3h-0.5c-1.1,0-2.2,0-3.3,0.1l-1.3,0.1c-1.2,0.1-2.4,0.2-3.5,0.4l-1.2,0.2
		c-0.9,0.2-1.8,0.3-2.7,0.5L391,295c-1.1,0.3-2.2,0.6-3.3,1l-0.6,0.2l0,0c-16.5,5.6-29.5,18.5-35.1,35.1l0,0c0,0,0,0,0,0.1
		c-0.5,1.3-0.9,2.7-1.2,4.1l-0.1,0.3c-0.3,1.2-0.6,2.5-0.8,3.8c0,0.2,0,0.4-0.1,0.5c-0.2,1.3-0.4,2.6-0.5,4c0,0.2,0,0.5,0,0.8
		c-0.1,1.4-0.2,2.7-0.2,4.1l0,0c0,6,0.9,11.9,2.8,17.6c8.7-1.4,15.1-8.9,15.1-17.6c0-0.1,0-0.3,0-0.4c0.2-20.5,16.8-37.1,37.3-37.3
		h0.4c8.8,0,16.3-6.4,17.6-15.1C416.7,294.2,410.7,293.3,404.8,293.3z"/>
	<path class="st9" d="M386.5,401.5c-7.2,2.1-14.7,3.1-22.1,3.1c-2.7,0-5.3-0.1-7.9-0.4c-13.4-11.7-22.1-28-24.5-45.6
		c-0.6-4.7,2.7-8.9,7.4-9.5c0.4,0,0.7-0.1,1.1-0.1h0.8c4.3,0,7.9,3.3,8.4,7.5C352.5,377.2,366.7,394.6,386.5,401.5z"/>
</g>
</svg>
