<?xml version="1.0" encoding="utf-8"?>
<!-- Generator: Adobe Illustrator 24.3.0, SVG Export Plug-In . SVG Version: 6.00 Build 0)  -->
<svg version="1.1" id="Layer_1" xmlns="http://www.w3.org/2000/svg" xmlns:xlink="http://www.w3.org/1999/xlink" x="0px" y="0px"
	 viewBox="0 0 566.9 566.9" style="enable-background:new 0 0 566.9 566.9;" xml:space="preserve">
<style type="text/css">
	.st0{fill:#FFD1B8;}
	.st1{fill:#006464;}
	.st2{fill:#002828;}
	.st3{fill:#008C85;}
	.st4{fill:none;stroke:#002828;stroke-width:4.11;stroke-linecap:round;stroke-miterlimit:10;}
	.st5{fill:#F5A03C;}
	.st6{fill:#E57200;}
	.st7{fill:#FAEBDC;}
	.st8{fill:#E2CFBF;}
	.st9{fill:none;stroke:#1D1D1B;stroke-width:6.85;stroke-linecap:round;stroke-linejoin:round;}
	.st10{fill:#D25A3C;}
	.st11{fill:#D8AA91;}
	.st12{fill:#FF8764;}
	.st13{fill:#1D1D1B;}
	.st14{fill:none;stroke:#FFD1B8;stroke-width:4.11;stroke-linecap:round;stroke-miterlimit:10;}
</style>
<g id="Ilustracja">
	<circle class="st0" cx="283.9" cy="283" r="283"/>
	<path class="st1" d="M427.3,114.5c0,0-23.1,16.2-48.6,45.5l21.4,32.1l-32.6-18.7c-6.8,8.7-13.2,17.7-19,27.1l21.3,31.9l-29.9-17.1
		c-5.9,10.9-11,22.2-15.3,33.8c-30.5,84-33.9,159.7-7.7,169.3c26.2,9.5,72.2-50.8,102.8-134.8S427.3,114.5,427.3,114.5z"/>
	<path class="st2" d="M427.3,114.5c0,0,22.8,85.3-7.7,169.3c-30.5,84-76.5,144.3-102.8,134.8L427.3,114.5z"/>
	<path class="st1" d="M402.1,288.7c-45.8,56.3-68.9,113.4-51.5,127.4c17.3,14,68.5-20.1,114.3-76.5s51.5-127.4,51.5-127.4
		S447.9,232.4,402.1,288.7z"/>
	<path class="st2" d="M516.4,212.2c0,0-5.8,71.2-51.5,127.4s-96.9,90.5-114.3,76.5L516.4,212.2z"/>
	<path class="st3" d="M415.3,308.3c0,16.7-13.5,30.3-30.3,30.4c-5.4,0-10.8-1.4-15.5-4.2c9.6-16,20.4-31.3,32.2-45.7
		c0.9-1.2,1.9-2.3,2.9-3.4C411.4,291,415.3,299.4,415.3,308.3z"/>
	<path class="st3" d="M440.6,267.8c0,8.4-6.8,15.2-15.1,15.2c-5.1,0-9.8-2.5-12.6-6.7c6.9-7.2,14.4-14,22.2-20.2
		C438.5,259,440.6,263.3,440.6,267.8z"/>
	<path class="st4" d="M310.5,308.3c23.6-56,9.5-174.4-43.4-149.8c-6.6,3.1-12.7,11.9-11.2,25.3c1.5,13,13.9,24.7,30.5,26"/>
	<path class="st5" d="M261,280.6c-7-13.8-34.8-44.5-62.7-73.6l-20.6,15.4l12.1-24.1c-29.4-30.3-56.5-56.7-56.5-56.7
		s22.5,155.2,37.7,185c15.2,29.8,47.7,43.7,72.6,31.1C268.4,344.9,276.2,310.4,261,280.6z"/>
	<path class="st6" d="M133.2,141.5l110.3,216.1c-24.9,12.7-57.4-1.2-72.6-31.1C155.7,296.7,133.2,141.5,133.2,141.5z"/>
	<path class="st7" d="M182.8,343.6L41.3,212.2c0,0-30.3,212.4,141.5,212.4V343.6z"/>
	<path class="st8" d="M159.5,322c-32.9,13.5-45.1,38.4-49.8,55.2c-1.3,5-6.4,8-11.5,6.7c-1.8-0.5-3.5-1.5-4.7-2.9
		c-41.3-49-40.6-125.7-38.4-155.9l-13.9-12.9c0,0-21.9,153.9,77.6,199.6l0.7,0.3c1.2,0.5,2.4,1.1,3.6,1.6l0.7,0.3
		c2.2,0.9,4.5,1.8,6.9,2.5l1.4,0.5l3.2,1l2.3,0.7c1,0.3,2,0.6,3,0.8c1.5,0.4,3,0.7,4.5,1.1l2.9,0.6c1.2,0.2,2.5,0.5,3.7,0.7l2.5,0.4
		c1.4,0.2,2.9,0.4,4.3,0.6c0.6,0.1,1.2,0.2,1.9,0.2c2.1,0.3,4.2,0.5,6.3,0.6l1.9,0.1c1.7,0.1,3.4,0.2,5.1,0.3l2.1,0.1
		c2.3,0.1,4.6,0.1,7,0.1l0,0v-80.8L159.5,322z"/>
	<polyline class="st9" points="182.8,343.6 41.3,212.2 91.8,212.2 233.3,343.6 	"/>
	<rect x="162.6" y="394.2" class="st10" width="283" height="40.4"/>
	<path class="st11" d="M89.5,444.7h388.8c4.3,0,7.8,3.5,7.8,7.8v4.7c0,4.3-3.5,7.8-7.8,7.8H89.5c-4.3,0-7.8-3.5-7.8-7.8v-4.7
		C81.7,448.2,85.2,444.7,89.5,444.7z"/>
	<rect x="182.8" y="333.5" class="st10" width="181.9" height="60.6"/>
	<path class="st12" d="M445.6,392.5c0-10.7-9-19.8-21.3-21.6l-232-33.1c-15.6-2.2-29.7,8.1-29.7,21.6v33.1
		c0,12.1,11.4,21.9,25.5,21.9h257.6v-20.2h-0.1C445.6,393.6,445.6,393.1,445.6,392.5z"/>
	<path class="st10" d="M263.7,394.2c0-17.5-5.7-34.5-16.2-48.5l-55.2-7.9c-15.6-2.2-29.7,8.1-29.7,21.6v33.1c0,0.6,0,1.1,0.1,1.7
		h-0.1v40.4h90.2C260,422.3,263.7,408.4,263.7,394.2z"/>
	<circle class="st13" cx="182.8" cy="394.2" r="60.6"/>
	<path class="st10" d="M445.5,394.2c0-0.6,0.1-1.1,0.1-1.7c0-10.7-9-19.8-21.3-21.6l-19.3-2.7c-25.4,11.3-37,41-25.8,66.4h66.5
		v-40.4H445.5L445.5,394.2z"/>
	<circle class="st13" cx="425.4" cy="414.4" r="40.4"/>
	<circle class="st0" cx="182.8" cy="394.2" r="30.3"/>
	<circle class="st0" cx="425.4" cy="414.4" r="20.2"/>
	<path class="st12" d="M219,272.9h99.2c25.7,0,46.6,20.9,46.6,46.6v14l0,0H203l0,0v-44.7C203,280,210.2,272.9,219,272.9L219,272.9z"
		/>
	<path class="st10" d="M244,272.9h-20.2c-11.5,0-20.8,9.3-20.8,20.8v39.9h20.2v-39.9C223.2,282.2,232.5,272.9,244,272.9z"/>
	<path class="st13" d="M224.8,242.6h67.7c6.4,0,11.6,5.2,11.6,11.6v7c0,6.4-5.2,11.6-11.6,11.6h-67.7c-6.4,0-11.6-5.2-11.6-11.6v-7
		C213.1,247.8,218.4,242.6,224.8,242.6z"/>
	<circle class="st13" cx="182.8" cy="394.2" r="15.2"/>
	<circle class="st13" cx="425.4" cy="414.4" r="10.1"/>
	<path class="st14" d="M306.6,283c26.5,0.1,47.9,21.6,48,48l0,0"/>
	<path class="st13" d="M238.7,222.4h39.8c5.8,0,10.4,4.7,10.4,10.4v14.5c0,5.8-4.7,10.4-10.4,10.4h-39.8c-5.8,0-10.4-4.7-10.4-10.4
		v-14.5C228.3,227,233,222.4,238.7,222.4z"/>
	<path class="st4" d="M335.9,130.5c-11,7.6-18.8,18.9-21.9,31.9c-1.9,8.1-2.2,16.5-0.8,24.7"/>
	<path class="st12" d="M279.4,141.5c7.8,8,20.6,8,28.6,0.2c7.8-7.7,8.1-20.1,0.7-28.1c-7.7-8.1-49.5-22.6-49.5-22.6
		S271.7,133.4,279.4,141.5z"/>
	<path class="st10" d="M259.1,90.9l48.8,51.2c-8.1,7.7-20.9,7.4-28.6-0.7C271.7,133.4,259.1,90.9,259.1,90.9z"/>
	<path class="st1" d="M353,145.5c-9.2,3.4-19.4-1.3-22.8-10.5c-3.4-9.2,1.3-19.4,10.5-22.8c0.2-0.1,0.3-0.1,0.5-0.2
		c9.2-3.2,47.7,2,47.7,2S362.2,142.3,353,145.5z"/>
	<path class="st2" d="M388.9,114.1l-58.5,20.5c3.3,9.2,13.4,14.1,22.6,10.8C362.2,142.3,388.9,114.1,388.9,114.1z"/>
</g>
</svg>
