<?xml version="1.0" encoding="utf-8"?>
<!-- Generator: Adobe Illustrator 24.3.0, SVG Export Plug-In . SVG Version: 6.00 Build 0)  -->
<svg version="1.1" id="Layer_1" xmlns="http://www.w3.org/2000/svg" xmlns:xlink="http://www.w3.org/1999/xlink" x="0px" y="0px"
	 viewBox="0 0 566.9 566.9" style="enable-background:new 0 0 566.9 566.9;" xml:space="preserve">
<style type="text/css">
	.st0{fill:#FFD1B8;}
	.st1{fill:#E5AC93;}
	.st2{fill:#FAEBDC;}
	.st3{fill:none;stroke:#0F373C;stroke-width:4.11;stroke-linecap:round;stroke-linejoin:round;}
	.st4{fill:#929292;}
	.st5{fill:#565656;}
	.st6{fill:#FF8764;}
	.st7{fill:#D25A3C;}
	.st8{fill:#C7C7C7;}
	.st9{fill:#006464;}
	.st10{fill:#0F373C;}
</style>
<g id="Ilustracja">
	<circle class="st0" cx="283.5" cy="283.5" r="283"/>
	<path class="st1" d="M246.3,207.1c-6.2,1.6-10.5,7.3-10.4,13.7v61.1c0.1,3.3-2.2,6.2-5.4,7c-3.7,0.8-7.3-1.5-8.2-5.2
		c-0.1-0.5-0.2-1-0.2-1.5v-144c0-13.1-7.2-19.2-15.5-18.2c-6.9,1-12,7.1-11.9,14.1v106.7c0.1,3.3-2.2,6.2-5.4,7
		c-3.7,0.8-7.3-1.5-8.2-5.2c-0.1-0.5-0.2-1-0.2-1.5V115.7c0.1-6.9-4.8-12.8-11.6-14c-7.5-1.2-14.5,3.9-15.7,11.4
		c-0.1,0.7-0.2,1.4-0.2,2.2v125.5c0.1,3.3-2.2,6.2-5.4,7c-3.7,0.8-7.3-1.5-8.2-5.2c-0.1-0.5-0.2-1-0.2-1.5V129
		c0.1-6.9-4.8-12.8-11.6-14c-7.5-1.2-14.5,3.9-15.7,11.4c-0.1,0.7-0.2,1.4-0.2,2.2v112.2c0.1,3.3-2.2,6.2-5.4,7
		c-3.7,0.8-7.4-1.5-8.2-5.2c-0.1-0.5-0.2-1-0.2-1.5v-66.3c0-7.6-6.1-13.7-13.7-13.7l0,0c-7.6,0-13.7,6.1-13.7,13.7v269.8h132.6
		v-38.9c0-13.2,5.3-25.8,14.6-35.1l23-23c14-14,21.9-33,21.9-52.8v-74.3c0-7.6-6.1-13.7-13.6-13.8
		C248.5,206.6,247.4,206.8,246.3,207.1z"/>
	<path class="st2" d="M256.4,202.7c-6.2,1.6-10.5,7.3-10.4,13.7v61.1c0.1,3.3-2.2,6.2-5.4,7c-3.7,0.8-7.3-1.5-8.2-5.2
		c-0.1-0.5-0.2-1-0.2-1.5v-144c0-13.1-7.2-19.2-15.5-18.2c-6.9,1-12,7-11.9,14.1v106.7c0.1,3.3-2.2,6.2-5.4,7
		c-3.7,0.8-7.4-1.5-8.2-5.2c-0.1-0.5-0.2-1-0.2-1.5V111.4c0.1-6.9-4.8-12.8-11.6-14c-7.5-1.2-14.5,4-15.6,11.4
		c-0.1,0.7-0.2,1.4-0.2,2.1v125.5c0.1,3.3-2.2,6.2-5.4,7c-3.7,0.8-7.3-1.5-8.1-5.2c-0.1-0.5-0.2-1-0.2-1.5v-112
		c0.1-6.9-4.8-12.8-11.6-14c-7.5-1.2-14.5,3.9-15.7,11.4c-0.1,0.7-0.2,1.4-0.2,2.2v112.2c0.1,3.3-2.2,6.2-5.4,7
		c-3.7,0.8-7.4-1.5-8.2-5.2c-0.1-0.5-0.2-1-0.2-1.5v-66.3c0-7.6-6.1-13.7-13.7-13.7l0,0c-7.6,0-13.7,6.1-13.7,13.7v269.8H214v-38.8
		c0-13.2,5.2-25.9,14.6-35.2l22.9-23c14-14,21.9-33,21.9-52.8v-74.2c0-7.6-6.2-13.8-13.8-13.7C258.5,202.4,257.4,202.5,256.4,202.7z
		"/>
	<path class="st3" d="M322.8,133.7c0,0-39.7,42.4,0,93.3"/>
	<path class="st4" d="M383.4,296.7l-29.1-27.1l134.6-157.7l0,0c17.3,14.3,19.8,39.9,5.6,57.3L383.4,296.7z"/>
	<path class="st5" d="M488.9,111.9l-4.1,4.8c13,15,13.4,37.1,0.8,52.5l-107.1,123l4.9,4.6l111-127.6
		C508.7,151.8,506.2,126.1,488.9,111.9z"/>
	<path class="st6" d="M386.9,299.4c1.1-1.2,1-3.2-0.2-4.3c0,0,0,0,0,0l-31.5-27.9c-1.2-1.1-3.2-1-4.3,0.2c0,0,0,0,0,0
		c-40.9,46.1-70.4,90.4-87.8,131.9c-13.7,32.5-14.7,51.8-14.8,53.9c0,0.2,0,0.4,0,0.6c0.1,10.4,6.9,19.6,16.9,22.8l0,0
		c12.7,3.9,26.2-3.2,30.1-15.9c0.5-1.7,0.8-3.4,1-5.1c0-0.1,0-0.2,0-0.3c0-0.2,1.2-14.7,12.4-40.5
		C319.6,390.2,341.9,350.2,386.9,299.4z"/>
	<path class="st5" d="M391.9,287.2l70.6-81.1l-6.5-2c14-13.2,14.6-35.2,1.5-49.2c-0.9-0.9-1.8-1.8-2.8-2.7l-69,80.9L391.9,287.2z"/>
	<path class="st7" d="M262.1,402.3c-12.9,31.3-13.9,49.9-14,52c0,0.2,0,0.4,0,0.6c0.1,10.4,7,19.6,16.9,22.7l0,0
		c12.7,3.9,26.2-3.2,30.1-15.9c0.5-1.7,0.8-3.4,1-5.1v-0.3c0-0.2,1.1-14.5,12.1-39.7L262.1,402.3z"/>
	<path class="st8" d="M453.9,215.8l-17.7-5.5l-13.4-119c-22.4,2-39,21.7-37,44.1l19.7,168l38.2-6.3L453.9,215.8z"/>
	<path class="st4" d="M392.6,135.5c-1.7-19.6,10.9-37.7,29.9-42.8l-0.2-1.3c-22.4,2-39,21.7-37,44.1c0,0,0,0,0,0l19.7,168l7.1-1.2
		L392.6,135.5z"/>
	<circle class="st8" cx="431.9" cy="178.8" r="23.1"/>
	<circle class="st5" cx="431.9" cy="178.8" r="11.5"/>
	<polygon class="st4" points="403.8,289.7 445.3,283.9 443.6,297.2 405.4,303.6 	"/>
	<path class="st6" d="M399.6,303.3c-0.2-1.7,1-3.2,2.6-3.4c0,0,0,0,0,0l41.7-5.3c1.7-0.2,3.2,1,3.4,2.6c0,0,0,0,0,0
		c7.7,61.1,7.1,114.4-2,158.4c-7.1,34.5-17.1,51.1-18.3,52.9c-0.1,0.2-0.2,0.3-0.4,0.5c-6,8.5-16.8,12.3-26.8,9.2l0,0
		c-12.7-3.9-19.8-17.4-15.9-30c0.5-1.7,1.2-3.3,2.1-4.8c0-0.1,0.1-0.2,0.1-0.3c0.1-0.1,7.4-12.8,12.6-40.5
		C403.9,416.3,408.1,370.7,399.6,303.3z"/>
	<path class="st7" d="M447.3,297.2c-0.2-1.7-1.7-2.9-3.4-2.6c0,0,0,0,0,0l-9.3,1.2c0.3,0.4,0.5,0.9,0.6,1.5
		c7.7,61.1,7.1,114.4-2,158.4c-7.1,34.5-17.1,51.1-18.3,52.9c-0.1,0.2-0.2,0.3-0.4,0.5c-3.3,4.7-8.1,8.1-13.7,9.5
		c9.7,2.5,20-1.3,25.8-9.5c0.1-0.1,0.3-0.3,0.4-0.5c1.1-1.8,11.2-18.3,18.3-52.9C454.4,411.6,455,358.4,447.3,297.2z"/>
	<path class="st7" d="M385.9,484.1l-0.2,0.3c-0.9,1.5-1.6,3.2-2.1,4.8c-3.9,12.7,3.2,26.1,15.9,30l0,0c10,3,20.8-0.7,26.8-9.2
		c0.1-0.1,0.3-0.3,0.4-0.5c1.1-1.7,10.8-17.7,17.8-50.8l-46.1-14.2C393.2,471.5,386,484,385.9,484.1z"/>
	<path class="st9" d="M368.8,136.3c-11.3,23.2-39.3,32.8-62.5,21.5c-23.2-11.3-32.8-39.3-21.5-62.5c0.3-0.5,0.5-1.1,0.8-1.6
		c11.8-23,84.7-63,84.7-63S380.5,113.4,368.8,136.3z"/>
	<path class="st10" d="M370.3,31.3l-64.2,125.5c22.9,11.6,50.9,2.5,62.6-20.4C380,114.4,371.1,37.4,370.3,31.3z"/>
	<path class="st3" d="M256.1,122.1c0,0-5.3,47.3,47.3,68.4"/>
	<polygon class="st0" points="321.2,36.7 339,78.1 303.5,42.6 297.6,60.3 315.3,95.8 279.8,66.2 303.5,30.7 	"/>
</g>
</svg>
