<?xml version="1.0" encoding="utf-8"?>
<!-- Generator: Adobe Illustrator 24.3.0, SVG Export Plug-In . SVG Version: 6.00 Build 0)  -->
<svg version="1.1" id="Layer_1" xmlns="http://www.w3.org/2000/svg" xmlns:xlink="http://www.w3.org/1999/xlink" x="0px" y="0px"
	 viewBox="0 0 566.9 566.9" style="enable-background:new 0 0 566.9 566.9;" xml:space="preserve">
<style type="text/css">
	.st0{fill:#FFD1B8;}
	.st1{fill:#D8AA91;}
	.st2{fill:#006464;}
	.st3{fill:#0F373C;}
	.st4{fill:#6E7832;}
	.st5{fill:#D37E44;}
	.st6{fill:#B7B7B7;}
	.st7{fill:#FF8764;}
	.st8{fill:#919191;}
	.st9{fill:#AF500E;}
	.st10{fill:none;stroke:#1D1D1B;stroke-width:17.81;stroke-linecap:round;stroke-linejoin:round;}
	.st11{fill:#D25A3C;}
	.st12{fill:#324100;}
	.st13{fill:#F5A03C;}
	.st14{fill:#F27900;}
	.st15{fill:#B75300;}
	.st16{fill:none;stroke:#324100;stroke-width:4.11;stroke-miterlimit:10;}
	.st17{fill:none;stroke:#324100;stroke-width:4.11;stroke-linecap:round;stroke-linejoin:round;}
	.st18{fill:#727272;}
	.st19{fill:#1D1D1B;}
</style>
<g id="Ilustracja">
	<circle class="st0" cx="283.5" cy="283.5" r="283"/>
	<path class="st1" d="M92.9,450.3h347c5.4,0,9.7,4.3,9.7,9.7v5.8c0,5.4-4.3,9.7-9.7,9.7h-347c-5.4,0-9.7-4.3-9.7-9.7V460
		C83.2,454.6,87.6,450.3,92.9,450.3z"/>
	<path class="st2" d="M336.2,204.2c-13.2,29-37.8,46.1-55,38.3c-17.1-7.8-20.3-37.6-7.2-66.6c10.6-23.2,58.6-75.8,77.4-95.8
		c1.4-1.5,3.8-1.6,5.3-0.2c0.8,0.8,1.3,1.9,1.2,3.1C355,110.3,346.8,181,336.2,204.2z"/>
	<path class="st3" d="M336.5,200.5c4.8-10.6,9.2-31.1,12.7-52.8c-25.8,14.2-53.4,31.3-63.1,43.6c-8.7,11-13.7,24.5-14.4,38.5
		c2.3,3.9,5.7,7,9.8,8.9C298.6,246.6,323.2,229.5,336.5,200.5z"/>
	<path class="st4" d="M365.1,256.8c-18.5,23.8-50.1,30.2-70.5,14.4s-21.9-48.1-3.3-71.9c18.6-23.8,112.5-68.3,112.5-68.3
		S383.6,233,365.1,256.8z"/>
	
		<rect x="423.2" y="203.9" transform="matrix(0.9411 -0.3381 0.3381 0.9411 -68.8219 162.7219)" class="st5" width="19.1" height="150"/>
	<path class="st6" d="M439.3,417l-9.3-26c-1.9-5-0.2-10.7,4.1-13.9c11.1-8.1,15.6-22.6,11-35.5L463,335c4.7,13,17.3,21.3,31.1,20.4
		c5.4-0.3,10.3,3.1,12.1,8.2l9.3,26c0,0,19.3,53.8-18.8,67.5C458.6,470.8,439.3,417,439.3,417z"/>
	<path class="st7" d="M398.7,212.4l5.3,14.8l17.9-6.4l-5.3-14.8c11.8-8.8,16.5-24.2,11.6-38.1l-4-11.2c-3.1-8.7-12.6-13.2-21.3-10.1
		c0,0,0,0,0,0l-31.4,11.3c-8.7,3.1-13.2,12.7-10,21.3c0,0,0,0,0,0l4,11.2C370.6,204.3,384,213.2,398.7,212.4z M377.2,173.6
		l31.4-11.3l4,11.2c3.1,8.7-1.4,18.2-10.1,21.3c-8.7,3.1-18.2-1.4-21.3-10.1l0,0L377.2,173.6z"/>
	<path class="st8" d="M463,335.1l13.7,38.1c1.7,4.9-0.8,10.4-5.7,12.2l0,0c-4.9,1.7-10.4-0.8-12.2-5.7l-13.7-38.1L463,335.1z"/>
	<path class="st8" d="M496.7,457.1L496.7,457.1c38.1-13.7,18.8-67.5,18.8-67.5l-9.4-25.9c-1.8-5.1-6.7-8.4-12.1-8.1
		c-13.7,0.8-26.4-7.5-31.1-20.4l-8.9,3.2L496.7,457.1z"/>
	
		<rect x="442.9" y="329.1" transform="matrix(0.9411 -0.3381 0.3381 0.9411 -86.2249 172.6195)" class="st9" width="19.1" height="9.5"/>
	
		<rect x="405.1" y="223.7" transform="matrix(0.9411 -0.3381 0.3381 0.9411 -52.8387 153.6267)" class="st9" width="19.1" height="9.5"/>
	<path class="st10" d="M268.5,392.6c-18.2,0-34.3-11.8-39.7-29.1l-28.4-90c-5.5-17.3-21.6-29.1-39.7-29.1h-31.9"/>
	<path class="st11" d="M117.7,232.7h38.4l0,0v23.4l0,0h-38.4c-4.7,0-8.5-3.8-8.5-8.5l0,0v-6.5C109.2,236.5,113,232.7,117.7,232.7z"
		/>
	<path class="st4" d="M171.7,299c0-60.3,48.9-109.2,109.2-109.2S390.1,238.6,390.1,299H171.7z"/>
	<path class="st12" d="M390.1,299c0-60.3-48.9-109.2-109.2-109.2c-13.3,0-26.6,2.4-39,7.2c16.7,6.4,31.6,16.8,43.4,30.3
		c4.8,5.5,4.2,13.9-1.3,18.7c-1.5,1.3-3.2,2.2-5,2.7l-105.4,30.1c-1.2,6.7-1.9,13.4-1.9,20.2L390.1,299L390.1,299z"/>
	<path class="st13" d="M331.6,244.4l-56,140l-6.4,16.1h-105c-8.3-1.1-16.2-4.3-22.9-9.4l-28.1-84.3l8.1-2.3L331.6,244.4z"/>
	<path class="st9" d="M407.7,236.8h-0.4l13.7,38.1l4.6-11.6c4-9.9-0.9-21.2-10.8-25.1C412.7,237.3,410.2,236.8,407.7,236.8
		L407.7,236.8z"/>
	<path class="st14" d="M407.9,244.4c6.5,0,11.8,5.2,11.8,11.7c0,1.5-0.3,3-0.8,4.4l-24.8,61.9l-31.2,78.1h-93.7l62.4-156.1
		L407.9,244.4z"/>
	<path class="st15" d="M395.6,318.4h-41.5c-33.9,0-61.4,36.7-61.4,81.9h70.2L395.6,318.4z"/>
	<path class="st14" d="M171,374c-10.1,0-19-6.5-22-16.1l-17.8-56.3l-9.9,2.8l-8.1,2.3l28.2,84.3c6.7,5,14.6,8.2,22.9,9.3h124.5V374
		H171z"/>
	<path class="st10" d="M331.6,392.6H171c-18.2,0-34.3-11.8-39.7-29.1l-28.4-90c-5.5-17.3-21.6-29.1-39.7-29.1H31.2"/>
	<polyline class="st10" points="120.9,330.2 160,455 234.1,392.6 	"/>
	<path class="st11" d="M24.1,232.7h38.4l0,0v23.4l0,0H24.1c-4.7,0-8.5-3.8-8.5-8.5l0,0v-6.5C15.6,236.5,19.4,232.7,24.1,232.7
		C24.1,232.7,24.1,232.7,24.1,232.7L24.1,232.7z"/>
	<path class="st16" d="M202.9,306.8c0-21.5,17.5-39,39-39c0,0,0,0,0,0"/>
	<path class="st17" d="M286.7,119.5L286.7,119.5c-7.6,0-13.7-6.1-13.7-13.7V94.1"/>
	<path class="st4" d="M288.7,88.3c0,8.6-7,15.6-15.6,15.6c-8.6,0-15.6-7-15.6-15.6c0-8.6,15.6-35.1,15.6-35.1S288.7,79.7,288.7,88.3
		z"/>
	<path class="st12" d="M273.1,53.2c0,0,15.6,26.5,15.6,35.1c0,8.6-7,15.6-15.6,15.6l0,0V53.2z"/>
	<path class="st17" d="M175.1,85.8L175.1,85.8c2.8-7,10.6-10.5,17.7-7.8l11,4.2"/>
	<path class="st4" d="M203.5,99c-8-3.1-12-12.2-8.9-20.2c3.1-8,12.2-12,20.2-8.9c8,3.1,27.1,27.3,27.1,27.3S211.6,102.1,203.5,99z"
		/>
	<path class="st12" d="M241.9,97.2c0,0-30.3,4.9-38.4,1.8c-8-3.1-12-12.2-8.9-20.2L241.9,97.2z"/>
	<path class="st17" d="M87.8,149.3L87.8,149.3c6.3-4.2,14.7-2.5,18.9,3.8l6.5,9.7"/>
	<path class="st7" d="M103.5,176.3c-4.8-7.2-2.9-16.9,4.3-21.7c7.2-4.8,16.9-2.9,21.7,4.3l0,0c4.8,7.2,6.5,37.9,6.5,37.9
		S108.3,183.5,103.5,176.3z"/>
	<path class="st11" d="M136,196.8c0,0-27.7-13.3-32.5-20.6c-4.8-7.2-2.9-16.9,4.3-21.6c0,0,0,0,0,0L136,196.8z"/>
	<path class="st4" d="M187.3,314.6c0-8.6,7-15.6,15.6-15.6c8.6,0,15.6,7,15.6,15.6c0,8.6-15.6,35.1-15.6,35.1
		S187.3,323.2,187.3,314.6z"/>
	<path class="st12" d="M202.9,349.7c0,0-15.6-26.5-15.6-35.1c0-8.6,7-15.6,15.6-15.6h0V349.7z"/>
	<path class="st4" d="M225,307.6c-4.8-7.2-2.8-16.9,4.4-21.7c7.2-4.8,16.9-2.8,21.7,4.4c4.8,7.2,6.5,37.9,6.5,37.9
		S229.8,314.8,225,307.6z"/>
	<path class="st12" d="M257.5,328.2c0,0-27.7-13.4-32.5-20.5c-4.8-7.2-2.8-16.9,4.3-21.6L257.5,328.2z"/>
	<path class="st18" d="M439,372.4c-1.5,1.7-3.2,3.3-5.1,4.7c-4.3,3.2-6,8.9-4.1,13.9l9.3,26c0,0,0.7,1.8,1.9,4.7
		c1.7-6.9,2.6-14.1,2.6-21.2C443.7,390.9,442.1,381.4,439,372.4z"/>
	<path class="st19" d="M390.1,338h-31.2v124.8h31.2c25.9,0,46.8-27.9,46.8-62.4S416,338,390.1,338z"/>
	<ellipse class="st19" cx="358.9" cy="400.4" rx="46.8" ry="62.4"/>
	<ellipse class="st7" cx="358.9" cy="400.4" rx="26.3" ry="35.1"/>
	<path class="st11" d="M357.9,435.5c2.5,0,5-0.5,7.3-1.4c-11-4.2-19-17.7-19-33.7c0-16,8-29.5,19-33.7c-2.3-0.9-4.8-1.4-7.3-1.4
		c-14.5,0-26.3,15.7-26.3,35.1S343.4,435.5,357.9,435.5z"/>
	<polygon class="st0" points="300.4,84.4 323.8,139 296.5,119.5 316,158.5 280.9,135.1 	"/>
	<polygon class="st0" points="89.7,302.9 70.2,338 93.6,318.5 101.4,334.1 89.7,361.4 109.2,341.9 101.4,314.6 	"/>
	<path class="st2" d="M223.5,192.5L223.5,192.5c-2.1-0.1-3.8-2-3.6-4.1c0,0,0,0,0,0l1.9-31.8c0.1-1.7-0.9-3.2-2.4-3.8
		c-1.8-0.7-3.7-1.5-5.5-2.2c-2-0.8-4.2,0.2-5,2.2c-0.1,0.4-0.2,0.8-0.3,1.2l-0.9,14.4c-0.1,2.1-2,3.8-4.1,3.6c0,0,0,0,0,0l0,0
		c-2.1-0.1-3.8-2-3.6-4.1c0,0,0,0,0,0l1.1-18.9c0.1-1.8-1-3.4-2.6-3.9c-1.2-0.4-2.5-0.8-3.7-1.2c-2-0.7-4.2,0.5-4.9,2.5
		c-0.1,0.3-0.2,0.6-0.2,1l-0.3,4.3c-0.1,2.1-2,3.8-4.1,3.6c0,0,0,0,0,0l0,0c-2.1-0.1-3.8-2-3.6-4.1l0.5-8c0.1-1.8-1-3.4-2.7-4
		c-6-1.7-11.1-3.1-14.7-4c-2.1-0.5-4.2,0.7-4.7,2.8c-0.1,0.5-0.2,1-0.1,1.5c0.5,3.7,1.2,9,2.2,15.1c0.3,1.8,1.8,3.2,3.6,3.3l8,0.5
		c2.1,0.1,3.8,2,3.6,4.1l0,0c-0.1,2.1-2,3.8-4.1,3.6c0,0,0,0,0,0l-4.3-0.2c-2.1-0.2-4,1.4-4.2,3.5c0,0.4,0,0.7,0.1,1.1
		c0.2,1.3,0.5,2.5,0.7,3.8c0.4,1.7,1.8,3,3.6,3.1l18.9,1.1c2.1,0.1,3.8,2,3.6,4.1l0,0c-0.1,2.1-2,3.8-4.1,3.6c0,0,0,0,0,0l-14.4-0.9
		c-2.1-0.1-4,1.5-4.1,3.7c0,0.4,0,0.8,0.1,1.2c0.5,1.9,1,3.8,1.5,5.7c0.4,1.6,1.9,2.8,3.5,2.9l31.7,1.8c2.1,0.1,3.8,2,3.6,4.1l0,0
		c-0.1,2.1-2,3.8-4.1,3.6l-25.4-1.5c-2.2-0.1-4,1.5-4.1,3.7c0,0.6,0.1,1.2,0.3,1.8c1.4,3.6,3.4,7,5.9,10
		c14.7,16.6,40.5,17.8,57.6,2.6s19.1-40.9,4.4-57.5c-2.7-2.8-5.8-5.2-9.3-7c-1.8-1.1-4.2-0.5-5.3,1.4c-0.3,0.5-0.5,1.1-0.5,1.8
		l-1.5,25.4C227.5,191,225.7,192.7,223.5,192.5C223.6,192.5,223.6,192.5,223.5,192.5z"/>
	<path class="st3" d="M235.1,160.4c-1.8-1.1-4.2-0.5-5.3,1.4c-0.3,0.5-0.5,1.1-0.5,1.8l-1.5,25.4c-0.1,2.1-2,3.8-4.1,3.6
		c-2.1-0.1-3.8-2-3.6-4.1l0,0l1.9-31.8c0.1-1.7-0.9-3.2-2.4-3.8c-1.8-0.7-3.7-1.5-5.5-2.2c-2-0.8-4.2,0.2-5,2.2
		c-0.1,0.4-0.2,0.8-0.3,1.2l-0.9,14.4c-0.1,2.1-2,3.8-4.1,3.6c-2.1-0.1-3.8-2-3.6-4.1l0,0l1.1-18.9c0.1-1.8-1-3.4-2.6-3.9
		c-1.2-0.4-2.5-0.8-3.7-1.2c-2-0.7-4.2,0.5-4.9,2.5c-0.1,0.3-0.2,0.6-0.2,1l-0.3,4.3c0,2.1-1.7,3.9-3.9,3.9c-2.1,0-3.9-1.7-3.9-3.9
		c0-0.2,0-0.3,0-0.5l0.5-8c0.1-1.8-1-3.4-2.7-4c-6-1.7-11.1-3.1-14.7-4c-1.3-0.3-2.6,0-3.5,0.8l78.7,88.8
		c17.1-15.2,19.1-40.9,4.4-57.5C241.7,164.6,238.5,162.2,235.1,160.4z"/>
</g>
</svg>
