<?xml version="1.0" encoding="utf-8"?>
<!-- Generator: Adobe Illustrator 24.3.0, SVG Export Plug-In . SVG Version: 6.00 Build 0)  -->
<svg version="1.1" id="Layer_1" xmlns="http://www.w3.org/2000/svg" xmlns:xlink="http://www.w3.org/1999/xlink" x="0px" y="0px"
	 viewBox="0 0 566.9 566.9" style="enable-background:new 0 0 566.9 566.9;" xml:space="preserve">
<style type="text/css">
	.st0{fill:#FFD1B8;}
	.st1{fill:none;stroke:#6E7832;stroke-width:6.85;stroke-miterlimit:10;}
	.st2{fill:none;stroke:#FF8764;stroke-width:20.55;stroke-miterlimit:10;}
	.st3{fill:#6E7832;}
	.st4{fill:#324100;}
	.st5{fill:#D37E44;}
	.st6{fill:#AF500E;}
</style>
<g id="Ilustracja">
	<circle class="st0" cx="283.5" cy="283.5" r="283"/>
	<line class="st1" x1="283.5" y1="182.4" x2="283.5" y2="485.6"/>
	<circle class="st2" cx="283.5" cy="283.5" r="242.6"/>
	<path class="st3" d="M283.5,81.3c0,0-70.7,46.9-70.7,104.8c0,27.6,19.8,49.9,44.2,49.9c9.8-0.1,19.2-3.6,26.5-10
		c7.4,6.4,16.8,9.9,26.5,10c24.4,0,44.2-22.4,44.2-49.9C354.2,128.2,283.5,81.3,283.5,81.3z"/>
	<path class="st4" d="M283.5,81.3L283.5,81.3v144.8l0,0c-7.4,6.4-16.8,9.9-26.5,10c-24.4,0-44.2-22.4-44.2-49.9
		C212.7,128.2,283.5,81.3,283.5,81.3z"/>
	<path class="st1" d="M283.5,394.7c0-44.6,36.2-80.8,80.8-80.8"/>
	<path class="st3" d="M500.8,313.8c0,0-46.9,70.8-104.9,70.8c-27.6,0-49.9-19.8-49.9-44.2c0-9.8,3.6-19.2,10-26.5
		c-6.4-7.4-9.9-16.8-10-26.5c0-24.4,22.4-44.2,49.9-44.2C453.8,243.1,500.8,313.8,500.8,313.8z"/>
	<path class="st4" d="M500.8,313.8H356c-6.4,7.4-9.9,16.8-10,26.6c0,24.4,22.4,44.2,49.9,44.2C453.8,384.6,500.8,313.8,500.8,313.8z
		"/>
	<polyline class="st0" points="364.3,121.7 288.5,147 364.3,147 	"/>
	<polyline class="st0" points="197.5,182.4 258.2,202.6 202.6,202.6 	"/>
	<path class="st5" d="M202.6,485.6c0-33.5,36.2-60.6,80.8-60.6s80.8,27.2,80.8,60.6H202.6z"/>
	<path class="st6" d="M293.6,425.5c-3.3-0.3-6.7-0.5-10.1-0.5c-44.7,0-80.8,27.2-80.8,60.6h20.2
		C222.8,454.7,253.7,429.2,293.6,425.5z"/>
	<ellipse class="st6" cx="326.4" cy="462.9" rx="17.7" ry="12.6"/>
	<ellipse class="st6" cx="298.6" cy="442.7" rx="10.1" ry="7.6"/>
	<line class="st2" x1="116.1" y1="450.9" x2="450.9" y2="116.1"/>
	<path class="st1" d="M283.5,394.7c0-44.6-36.2-80.8-80.8-80.8"/>
	<path class="st3" d="M66.1,313.8c0,0,46.9,70.8,104.8,70.8c27.6,0,49.9-19.8,49.9-44.2c0-9.8-3.6-19.2-10-26.5
		c6.4-7.4,9.9-16.8,10-26.5c0-24.4-22.4-44.2-49.9-44.2C113.1,243.1,66.1,313.8,66.1,313.8z"/>
	<path class="st4" d="M66.1,313.8h144.8c6.4,7.4,9.9,16.8,10,26.6c0,24.4-22.4,44.2-49.9,44.2C113.1,384.6,66.1,313.8,66.1,313.8z"
		/>
</g>
</svg>
