<?xml version="1.0" encoding="utf-8"?>
<!-- Generator: Adobe Illustrator 24.3.0, SVG Export Plug-In . SVG Version: 6.00 Build 0)  -->
<svg version="1.1" id="Layer_1" xmlns="http://www.w3.org/2000/svg" xmlns:xlink="http://www.w3.org/1999/xlink" x="0px" y="0px"
	 viewBox="0 0 566.9 566.9" style="enable-background:new 0 0 566.9 566.9;" xml:space="preserve">
<style type="text/css">
	.st0{fill:#FFD1B8;}
	.st1{fill:none;stroke:#6E7832;stroke-width:5.48;stroke-miterlimit:10;}
	.st2{fill:#6E7832;}
	.st3{fill:#324100;}
	.st4{fill:#F5A03C;}
	.st5{fill:#AF500E;}
	.st6{fill:#E6A073;}
	.st7{fill:#C7C7C7;}
	.st8{fill:#FF8764;}
	.st9{fill:#929292;}
	.st10{fill:#D37E44;}
	.st11{fill:#D25A3C;}
</style>
<g id="Ilustracja">
	<circle class="st0" cx="283.5" cy="283.5" r="283"/>
	<line class="st1" x1="332.4" y1="222.5" x2="332.4" y2="480.6"/>
	<path class="st1" d="M332.1,361.7c0-25.1,20.4-45.5,45.5-45.5"/>
	<path class="st1" d="M332.1,361.7c0-25.1-20.4-45.5-45.5-45.5h0"/>
	<path class="st2" d="M480.6,317.3c0,0-35.8,54-80,54c-21.1,0-38.1-15.1-38.1-33.8c0-7.4,2.7-14.6,7.6-20.3
		c-4.9-5.6-7.6-12.8-7.6-20.2c0-18.6,17.1-33.8,38.1-33.8C444.8,263.3,480.6,317.3,480.6,317.3z"/>
	<path class="st3" d="M480.6,317.3H370.1c-4.9,5.6-7.6,12.8-7.6,20.3c0,18.6,17.1,33.8,38.1,33.8
		C444.8,371.3,480.6,317.3,480.6,317.3z"/>
	<path class="st2" d="M185.1,317.3c0,0,36.1,54.4,80.7,54.4c21.2,0,38.4-15.2,38.4-34c0-7.5-2.7-14.7-7.6-20.4
		c4.9-5.7,7.6-12.9,7.7-20.4c0-18.8-17.2-34-38.4-34C221.2,262.9,185.1,317.3,185.1,317.3z"/>
	<path class="st3" d="M185.1,317.3h111.5c4.9,5.7,7.6,12.9,7.7,20.4c0,18.8-17.2,34-38.4,34C221.2,371.8,185.1,317.3,185.1,317.3z"
		/>
	<path class="st4" d="M345.8,108.8l2.9,4.5c4.1,6.1,11.6,8.8,18.6,6.6l5.2-1.6c11.4-3.5,22.6,5.7,21.1,17.3l-0.7,5.3
		c-0.9,7.2,3.2,14.1,9.9,16.8l5,2.1c8.1,3.2,12.1,12.4,8.9,20.5c-0.9,2.3-2.3,4.3-4.2,6l-4,3.6c-5.4,4.8-6.8,12.6-3.4,19l2.5,4.7
		c4,7.8,1,17.5-6.9,21.5c-2.1,1.1-4.5,1.7-6.9,1.8l-5.5,0.3c-7.3,0.3-13.5,5.4-15.2,12.4l-1.2,5.2c-2.6,11.3-16.4,16.2-25.9,9.2
		l-4.3-3.2c-5.9-4.3-13.9-4.3-19.8,0l-4.3,3.2c-9.5,7-23.3,2.2-25.9-9.2l-1.2-5.2c-1.7-7.1-7.9-12.2-15.2-12.4l-5.5-0.3
		c-8.8-0.3-15.7-7.6-15.5-16.5c0.1-2.4,0.7-4.7,1.8-6.8l2.5-4.7c3.3-6.4,1.9-14.2-3.5-19l-4-3.6c-6.5-5.8-7-15.8-1.2-22.3
		c1.6-1.8,3.7-3.3,6-4.2l5-2.1c6.7-2.7,10.8-9.6,9.9-16.8l-0.7-5.3c-1.5-11.5,9.7-20.7,21.1-17.3l5.2,1.6c7,2.1,14.6-0.5,18.6-6.6
		l3-4.5c5.1-7.6,15.4-9.6,23-4.5C343.1,105.5,344.6,107.1,345.8,108.8z"/>
	<circle class="st5" cx="332.1" cy="187.4" r="34.4"/>
	<rect x="135" y="182" class="st6" width="30.3" height="126.4"/>
	<path class="st7" d="M205.8,364l-21.3-11.1c-11.8-6.2-19.2-18.3-19.2-31.6v-17.8H135v17.8c0,13.3-7.4,25.5-19.2,31.6l-21.3,11.1
		v60.7c0.1,30.7,24.9,55.5,55.6,55.6l0,0c30.7-0.1,55.5-24.9,55.6-55.6L205.8,364z"/>
	<path class="st8" d="M175.1,126.4h-50c-11.3,0-20.5,9.2-20.5,20.5v8.9c-0.1,19.5,12,37,30.3,43.8v22.9h30.3v-22.9
		c18.1-6.5,30.3-23.6,30.4-42.8V147C195.6,135.6,186.5,126.5,175.1,126.4z M175.4,156.7c0,14-11.4,25.3-25.4,25.3c-1,0-2-0.1-3-0.2
		c-12.8-1.5-22.2-12.9-22.2-25.7v-9.5h50.5V156.7z"/>
	<path class="st9" d="M184.5,352.9c-11.8-6.2-19.2-18.3-19.2-31.6v-17.8h-15.1v176.8l0,0c30.7-0.1,55.5-24.9,55.6-55.6V364
		L184.5,352.9z"/>
	<path class="st9" d="M165.3,303.4V364c0,8.4-6.8,15.1-15.2,15.2l0,0c-8.4,0-15.1-6.8-15.2-15.2v-60.6H165.3z"/>
	<rect x="150.2" y="222.8" class="st10" width="15.2" height="80.9"/>
	<path class="st11" d="M175.1,126.4h-25v20.2h25.3v10.2c0,13.9-11.3,25.2-25.3,25.3v40.4h15.2v-22.9c18.1-6.5,30.2-23.6,30.3-42.8
		V147C195.6,135.6,186.5,126.5,175.1,126.4z"/>
	<path class="st5" d="M271.5,480.6c0-33.5,27.2-60.6,60.6-60.6s60.6,27.2,60.6,60.6H271.5z"/>
	<path class="st6" d="M147,480.6c0-43.3,35.1-78.3,78.3-78.3c43.3,0,78.3,35.1,78.3,78.3H147z"/>
	<path class="st7" d="M273.4,480.6c0.4-16.7,14.2-30,31-29.7c16.2,0.3,29.3,13.4,29.7,29.7"/>
</g>
</svg>
