<?xml version="1.0" encoding="utf-8"?>
<!-- Generator: Adobe Illustrator 24.3.0, SVG Export Plug-In . SVG Version: 6.00 Build 0)  -->
<svg version="1.1" id="Layer_1" xmlns="http://www.w3.org/2000/svg" xmlns:xlink="http://www.w3.org/1999/xlink" x="0px" y="0px"
	 viewBox="0 0 566.9 566.9" style="enable-background:new 0 0 566.9 566.9;" xml:space="preserve">
<style type="text/css">
	.st0{fill:#FFD1B8;}
	.st1{fill:#D8AA91;}
	.st2{fill:none;stroke:#6E7832;stroke-width:5.48;stroke-miterlimit:10;}
	.st3{fill:#6E7832;}
	.st4{fill:#324100;}
	.st5{fill:#AF500E;}
	.st6{fill:#7C3200;}
	.st7{fill:#FFFFFF;}
	.st8{fill:#F5A03C;}
	.st9{fill:none;}
	.st10{fill:#EAEAEA;}
	.st11{fill:#AD4E00;}
	.st12{fill:#1D1D1B;}
</style>
<g id="Ilustracja">
	<circle class="st0" cx="283.5" cy="283.5" r="283"/>
	<path class="st1" d="M245.6,480.6h146.2c4.3,0,7.8,3.5,7.8,7.8v4.7c0,4.3-3.5,7.8-7.8,7.8H245.6c-4.3,0-7.8-3.5-7.8-7.8v-4.7
		C237.8,484.1,241.3,480.6,245.6,480.6z"/>
	<path class="st2" d="M109.4,117.6c11.3-11.3,29.5-11.3,40.8,0c0,0,0,0,0,0"/>
	<path class="st3" d="M195.9,164.2c0,0-40.3,8.2-60.1-11.7c-9.4-9.4-10.3-23.9-1.9-32.2c3.4-3.3,7.8-5.3,12.5-5.7
		c0.3-4.7,2.3-9.1,5.7-12.5c8.4-8.4,22.8-7.5,32.2,2C204,123.9,195.9,164.2,195.9,164.2z"/>
	<path class="st4" d="M195.9,164.2L195.9,164.2l-49.6-49.6l0,0c-4.7,0.3-9.1,2.4-12.5,5.7c-8.4,8.4-7.5,22.8,1.9,32.2
		C155.6,172.4,195.9,164.2,195.9,164.2z"/>
	<rect x="303.5" y="303.7" class="st5" width="30.3" height="187"/>
	<path class="st5" d="M389.4,273.4v40.4c0,39.1-31.7,70.7-70.8,70.7c-39,0-70.7-31.7-70.7-70.7v-40.4h-30.3v35.4
		c0,55.8,45.2,101.1,101.1,101.1c55.8,0,101.1-45.2,101.1-101.1c0,0,0,0,0,0v-35.4H389.4z"/>
	<rect x="303.5" y="303.7" class="st6" width="30.3" height="20.2"/>
	<path class="st6" d="M389.4,313.8c0,3.4-0.3,6.8-0.7,10.1h29.9c0.8-5,1.1-10.1,1.2-15.2v-35.4h-30.3V313.8z"/>
	<path class="st6" d="M247.9,313.8v-40.4h-30.3v35.4c0,5.1,0.4,10.1,1.2,15.2h29.8C248.1,320.6,247.9,317.2,247.9,313.8z"/>
	<path class="st3" d="M419.7,177.3v131.4H217.6V177.3c0.1-55.8,45.5-101,101.3-100.9c47.4,0.1,88.4,33.2,98.6,79.5
		C419,163,419.8,170.2,419.7,177.3z"/>
	<path class="st3" d="M121.5,278.4c0-53,43-96,96-96c0.4,0,0.8,0,1.3,0c52.8,0.7,94.7,44.7,94.7,97.4v28.9H151.9
		C135.2,308.7,121.6,295.2,121.5,278.4C121.6,278.4,121.6,278.4,121.5,278.4L121.5,278.4z"/>
	<path class="st4" d="M146.8,293.6c0-53,43-96,96-96c0,0,0,0,0,0v-5.1c0.2-55.8,45.3-100.9,101.1-101.1c13.2,0,26.4,2.6,38.6,7.7
		c-43.1-35.3-106.7-29-142.1,14.1c-14.8,18.1-22.9,40.7-22.9,64.1v5.1c-53,0-96,43-96,96c0,0,0,0,0,0c0,16.4,13,29.8,29.3,30.3
		C148.2,304.1,146.8,298.9,146.8,293.6z"/>
	<path class="st3" d="M515.7,278.4c0-53-43-96-96-96c-0.4,0-0.8,0-1.3,0c-52.8,0.7-94.7,44.7-94.7,97.4v28.9h161.7
		C502.2,308.7,515.7,295.2,515.7,278.4z"/>
	<path class="st4" d="M354.1,295c0-52.8,42-96.8,94.8-97.5c9.6-0.1,19.1,1.2,28.3,3.9c-16.9-12.7-37.6-19.4-58.7-19
		c-52.8,0.7-94.7,44.7-94.7,97.4v28.9h30.4V295z"/>
	<path class="st4" d="M311,213.5l-49.2,36l0.1-0.3l-6,4.4l24.7-63.4c1-2.5-0.2-5.4-2.8-6.4c-2.2-0.9-4.8,0-6.1,2l-62,101.7l-9.2,6.8
		l-0.2,0.4l-19.2,14.1h53.5l0.5-1.3l82.4-86.6l0,0c1.9-2,1.9-5.1-0.1-7C315.7,212.2,313,212,311,213.5L311,213.5z"/>
	<path class="st7" d="M303.9,216L303.9,216c0.8,0.9,0.8,2.2,0,3.1l-94.5,99.3l-1.1-0.2c-11.6-2.2-34.7,8.9-34.9,9l-1.8,0.9
		l-6.8-12.5l136.2-99.8C301.8,215,303.1,215.1,303.9,216z"/>
	<path class="st8" d="M73.6,337.4c-14.2,13-16.7,33.5-5.6,45.7c11.1,12.2,31.8,11.5,46-1.6c0.7-0.6,1.3-1.2,1.8-1.8l0.3-0.3
		c0.5-0.6,1.1-1.2,1.7-1.9c0,0,4.3-5.1,9-10.9c4.3-5.2,9.9-12,12-14.8c4.8-5.8,20.4-16.3,33.4-24.1l1.8-1.1l-8.7-15.1
		c-0.6-1-1.8-1.3-2.8-0.8c-0.1,0-0.1,0.1-0.2,0.1l0,0c-18.2,12.6-32.6,13.2-46.6,13.8c-8.5,0.4-17.3,0.7-26.6,3.8H89l-1.7,0.6
		l-0.9,0.3h-0.1l-1.4,0.6h-0.1l-1.2,0.5l-0.3,0.1l-0.2,0.2c-1.2,0.6-2.3,1.2-3.4,1.9l-0.2,0.1l-0.8,0.5l-0.5,0.3l-2,1.5l-0.8,0.6
		l-0.5,0.4C74.4,336.6,74,337,73.6,337.4z M110.9,343.8c6.8,7.4,4.6,20.4-4.8,29.1c-9.4,8.6-22.6,9.7-29.4,2.3
		c-6.8-7.4-4.6-20.4,4.8-29.1C91,337.4,104.2,336.4,110.9,343.8z"/>
	<path class="st9" d="M198.8,135.9c1.3-3.3-0.3-7.1-3.6-8.4c-3-1.2-6.3,0-7.9,2.7"/>
	<path class="st10" d="M208,318l1.1,0.2l19.3-20.3l16-41.1l-53.7,39.3l-4.8,7.8l1.5,3.1c1.5,3.2,2,8.3,2,13.6
		C195.9,318.6,203,317.1,208,318z"/>
	<path class="st7" d="M265.3,186.4L265.3,186.4c-1.1-0.5-2.3-0.1-3,0.9l-71.4,117.1l0.5,1c5.1,10.7,0.4,35.8,0.4,36.1l-0.4,2
		l13.9,3.3l61.1-157.4C266.8,188.1,266.3,186.9,265.3,186.4z"/>
	<path class="st8" d="M208.4,438.7l0.2-0.5l0.4-0.9l0.9-2.3c0.1-0.2,0.1-0.4,0.2-0.6c0.1-0.2,0.2-0.6,0.3-0.9c0-0.1,0-0.2,0-0.2
		c0.4-1.2,0.7-2.5,0.9-3.8l0.1-0.2V429c0.1-0.4,0.2-0.9,0.2-1.3v-0.1c0.1-0.5,0.1-1,0.2-1.5V426c0-0.3,0.1-0.6,0.1-1l0.1-1.8v-0.1
		c0.6-9.8-1.4-18.4-3.2-26.7c-3.1-13.7-6.2-27.8,1.3-48.6l0,0c0.4-1.1-0.1-2.3-1.2-2.7c0,0-0.1,0-0.1,0l-16.8-4.5l-0.6,2
		c-4.2,14.5-10.3,32.3-14.6,38.5c-2.1,2.7-7.2,9.9-11.2,15.4c-4.3,6.1-8.2,11.5-8.2,11.5c-0.5,0.7-1,1.5-1.4,2.1l-0.2,0.4
		c-0.4,0.7-0.8,1.4-1.2,2.2c-8.9,17.1-4.2,37.2,10.4,44.8c14.6,7.6,33.8-0.1,42.7-17.2C207.9,439.7,208.2,439.2,208.4,438.7z
		 M197.2,434.8c-5.9,11.4-17.9,16.8-26.8,12.2c-8.9-4.6-11.3-17.6-5.4-29c5.9-11.4,17.9-16.8,26.8-12.2
		C200.7,410.4,203.1,423.4,197.2,434.8z"/>
	<path class="st11" d="M191.8,405.8l0.1,0.1c-1.1-1.2-2.4-2.2-3.9-3c-8.9-4.6-20.9,0.9-26.8,12.2s-3.5,24.2,5.3,28.9
		c-5.6-5.9-6.5-16.5-1.5-26C170.9,406.7,183,401.2,191.8,405.8z"/>
	<path class="st11" d="M207.7,440.2c0.2-0.5,0.5-1,0.7-1.5l0.2-0.5l0.4-0.9l0.9-2.3c0.1-0.2,0.1-0.4,0.2-0.6
		c0.1-0.2,0.2-0.6,0.3-0.9c0-0.1,0-0.2,0-0.2c0.4-1.2,0.7-2.5,0.9-3.8l0.1-0.2V429c0.1-0.4,0.2-0.9,0.2-1.3v-0.1
		c0.1-0.5,0.1-1,0.2-1.5V426c0-0.3,0.1-0.6,0.1-1l0.1-1.8v-0.1c0.6-9.8-1.4-18.4-3.2-26.7c-3.1-13.7-6.2-27.8,1.3-48.6
		c0.4-1.1-0.1-2.3-1.2-2.7c0,0-0.1,0-0.1,0l-2.2-0.6c0,0.1-0.1,0.3-0.1,0.4c-7.5,20.8-4.3,34.9-1.2,48.6c1.8,8.3,3.8,16.9,3.2,26.7
		v0.1l-0.1,1.8c0,0.3,0,0.7-0.1,1v0.2c0,0.5-0.1,1-0.2,1.5v0.1c0,0.4-0.1,0.9-0.2,1.3v0.3l-0.1,0.2c-0.3,1.3-0.6,2.5-1,3.8
		c0,0.1,0,0.2,0,0.2c-0.1,0.3-0.2,0.6-0.3,0.9s-0.1,0.4-0.2,0.6l-0.9,2.3c-0.1,0.3-0.3,0.6-0.4,0.9l-0.2,0.5c-0.2,0.5-0.5,1-0.7,1.5
		c-8.9,17.1-28.1,24.8-42.7,17.2c-0.6-0.3-1.2-0.7-1.8-1.1c1.7,1.6,3.6,2.9,5.6,3.9C179.6,465,198.8,457.3,207.7,440.2z"/>
	<path class="st11" d="M76.4,374.9c-6.8-7.4-4.6-20.4,4.8-29.1c7.9-7.2,18.3-9.1,25.5-5.3c-6.8-7.3-19.9-6.2-29.3,2.4
		c-9.4,8.6-11.6,21.7-4.8,29.1C73.8,373.2,75.1,374.2,76.4,374.9L76.4,374.9z"/>
	<path class="st11" d="M165,311.4c-0.5-0.9-1.6-1.3-2.6-0.9l7.5,13.1l-1.8,1.1c-12.9,7.8-28.5,18.3-33.4,24.1
		c-2.1,2.7-7.7,9.6-12,14.8c-4.7,5.8-9,10.9-9,10.9c-0.6,0.7-1.2,1.4-1.7,1.9l-0.3,0.3c-0.5,0.6-1.2,1.2-1.8,1.8
		c-12.2,11.2-29.1,13.3-40.7,6c11.4,10.6,30.9,9.4,44.5-3.1c0.7-0.6,1.3-1.2,1.8-1.8l0.3-0.3c0.5-0.6,1.1-1.2,1.7-1.9
		c0,0,4.3-5.1,9-10.9c4.3-5.2,9.9-12,12-14.8c4.8-5.8,20.4-16.3,33.4-24.1l1.8-1.1L165,311.4z"/>
	<circle class="st12" cx="209.4" cy="299.4" r="7.1"/>
</g>
</svg>
